<svg width="4330" height="390" xmlns="http://www.w3.org/2000/svg" xmlns:xlink="http://www.w3.org/1999/xlink" xml:space="preserve" overflow="hidden"><g transform="translate(-35 -181)"><path d="M63.9564 343.074 110.067 343.074 110.067 357.968 105.234 357.968C104.741 356.357 104.231 354.943 103.705 353.726 103.179 352.51 102.637 351.491 102.078 350.669 101.519 349.847 100.903 349.189 100.229 348.696 99.5546 348.203 98.7573 347.866 97.8367 347.685 96.9162 347.504 95.8148 347.414 94.5325 347.414L78.9486 347.414 78.9486 373.256 89.5023 373.256C90.9489 373.256 92.0832 373.05 92.9051 372.639 93.727 372.228 94.4093 371.53 94.9517 370.543 95.4942 369.557 96.012 368.012 96.5052 365.908L101.141 365.908 101.141 384.845 96.5052 384.845C96.0449 382.872 95.5353 381.385 94.9764 380.382 94.4175 379.379 93.7517 378.664 92.9791 378.237 92.2065 377.809 91.0475 377.596 89.5023 377.596L78.9486 377.596 78.9486 406.051 94.286 406.051C95.897 406.051 97.2038 405.911 98.2066 405.632 99.2094 405.352 100.072 404.876 100.796 404.202 101.519 403.528 102.16 402.648 102.719 401.563 103.278 400.478 103.746 399.352 104.125 398.185 104.503 397.018 105.021 395.317 105.678 393.081L110.56 393.081 109.623 410.391 63.9564 410.391 63.9564 407.974C65.9948 407.448 67.3592 406.865 68.0496 406.224 68.7401 405.583 69.1921 404.67 69.4058 403.487 69.6195 402.303 69.7264 400.495 69.7264 398.062L69.7264 355.403C69.7264 353.135 69.6442 351.482 69.4798 350.447 69.3154 349.411 69.0442 348.606 68.6661 348.03 68.288 347.455 67.7866 346.995 67.1619 346.649 66.5373 346.304 65.4687 345.918 63.9564 345.491Z" fill-rule="evenodd"/><text fill="#000000" fill-opacity="0" font-family="Arial,Arial_MSFontService,sans-serif" font-size="67.3169" x="63.9564" y="401.976">E</text><path d="M203.683 334.531 225.678 334.531 225.678 428.578 203.683 428.578 203.683 424.78 217.491 424.78 217.491 338.329 203.683 338.329ZM127.098 334.531 149.093 334.531 149.093 338.329 135.284 338.329 135.284 424.78 149.093 424.78 149.093 428.578 127.098 428.578Z" fill-rule="evenodd"/><path d="M162.735 363.244 197.799 363.244 198.736 365.71 175.212 392.736C170.642 397.963 166.68 402.402 163.326 406.051L163.622 406.396 174.768 406.396C176.741 406.396 178.253 406.289 179.305 406.076 180.357 405.862 181.278 405.459 182.067 404.867 182.856 404.276 183.67 403.38 184.508 402.18 185.346 400.98 186.39 399.097 187.639 396.533L192.029 396.533 189.02 410.391 153.315 410.391 152.378 407.974 179.354 376.905C183.168 372.532 185.963 369.425 187.738 367.584L187.442 367.239 175.902 367.239C174.193 367.239 172.943 367.354 172.154 367.584 171.365 367.814 170.576 368.217 169.787 368.793 168.998 369.368 168.151 370.223 167.247 371.357 166.343 372.491 165.332 374.111 164.214 376.215L159.825 376.215Z" fill-rule="evenodd"/><text fill="#000000" fill-opacity="0" font-family="Arial,Arial_MSFontService,sans-serif" font-size="47.1465" x="152.378" y="404.498">𝑧</text><path d="M272.206 398.703 332.964 398.703 332.964 405.262 272.206 405.262ZM272.206 378.237 332.964 378.237 332.964 384.796 272.206 384.796ZM272.206 357.77 332.964 357.77 332.964 364.329 272.206 364.329Z" fill-rule="evenodd"/><text fill="#000000" fill-opacity="0" font-family="Arial,Arial_MSFontService,sans-serif" font-size="47.4917" x="272.206" y="399.326">≡</text><path d="M383.251 363.244 391.537 363.244 385.471 390.122C384.978 392.292 384.591 394.174 384.312 395.769 384.032 397.363 383.893 398.818 383.893 400.133 383.893 401.843 384.345 403.141 385.249 404.029 386.153 404.917 387.443 405.361 389.12 405.361 391.06 405.361 393.172 404.325 395.457 402.254 397.742 400.182 399.789 397.585 401.597 394.462 403.405 391.338 404.573 388.577 405.099 386.177L409.981 363.244 418.513 363.244 411.51 394.462C410.754 397.848 410.376 400.281 410.376 401.761 410.376 403.076 410.589 404.029 411.017 404.621 411.444 405.213 412.118 405.509 413.039 405.509 413.795 405.509 414.707 405.213 415.776 404.621 416.844 404.029 418.036 402.993 419.351 401.514L422.113 404.276C420.272 406.084 418.636 407.481 417.206 408.468 415.776 409.454 414.469 410.153 413.285 410.564 412.102 410.975 410.819 411.18 409.439 411.18 407.301 411.18 405.641 410.547 404.458 409.281 403.274 408.016 402.682 406.248 402.682 403.98 402.682 402.139 403.11 400.166 403.964 398.062L403.422 397.766C400.364 402.303 397.537 405.599 394.939 407.654 392.342 409.709 389.663 410.736 386.901 410.736 385.52 410.736 384.262 410.514 383.128 410.07 381.994 409.627 380.819 408.78 379.602 407.531 379.208 409.503 378.854 412.158 378.542 415.495 378.229 418.832 378.073 421.832 378.073 424.495 378.073 425.482 378.106 426.271 378.172 426.863L377.481 430.167 371.07 430.167 368.654 427.208C370.133 421.75 371.514 416.145 372.796 410.391Z" fill-rule="evenodd"/><text fill="#000000" fill-opacity="0" font-family="Arial,Arial_MSFontService,sans-serif" font-size="66.9224" x="368.654" y="421.802">𝜇</text><path d="M445.539 384.431 447.743 384.431C447.695 385.756 447.659 386.942 447.635 387.99 447.611 389.038 447.593 390.056 447.581 391.043 447.569 392.031 447.563 393.007 447.563 393.97L447.563 421.431C447.563 422.178 447.587 422.822 447.635 423.364 447.683 423.906 447.761 424.364 447.87 424.737 447.978 425.111 448.123 425.43 448.303 425.695 448.484 425.96 448.695 426.189 448.936 426.381 449.225 426.67 449.61 426.893 450.092 427.05 450.574 427.206 451.188 427.339 451.935 427.447 452.681 427.556 453.579 427.64 454.627 427.7 455.674 427.76 456.933 427.802 458.402 427.827L458.402 430.97 429.749 430.97 429.749 427.827C431.17 427.778 432.375 427.724 433.362 427.664 434.35 427.604 435.193 427.519 435.892 427.411 436.59 427.303 437.15 427.182 437.572 427.05 437.993 426.917 438.361 426.755 438.674 426.562 439.011 426.345 439.3 426.11 439.541 425.857 439.782 425.604 439.975 425.285 440.119 424.9 440.264 424.514 440.378 424.045 440.462 423.491 440.547 422.937 440.589 422.25 440.589 421.431L440.589 395.524C440.589 394.584 440.408 393.922 440.047 393.536 439.686 393.151 439.168 392.958 438.493 392.958 437.747 392.958 436.638 393.344 435.169 394.115 433.7 394.885 431.797 396.03 429.46 397.547 429.147 396.993 428.858 396.439 428.593 395.885 428.328 395.331 428.051 394.765 427.762 394.187 430.749 392.549 433.706 390.917 436.632 389.291 439.559 387.665 442.528 386.045 445.539 384.431Z" fill-rule="evenodd"/><text fill="#000000" fill-opacity="0" font-family="Arial,Arial_MSFontService,sans-serif" font-size="46.5391" x="427.762" y="425.153">1</text><path d="M503.091 388.494 563.849 388.494 563.849 395.054 503.091 395.054ZM503.091 368.028 563.849 368.028 563.849 374.587 503.091 374.587Z" fill-rule="evenodd"/><text fill="#000000" fill-opacity="0" font-family="Arial,Arial_MSFontService,sans-serif" font-size="27.0254" x="503.091" y="391.675">=</text><path d="M660.544 272.918C662.286 272.918 663.872 273.074 665.303 273.386 666.733 273.699 667.941 274.085 668.927 274.545L667.99 284.852 662.516 284.852C662.418 283.044 662.023 281.671 661.333 280.734 660.642 279.797 659.376 279.329 657.535 279.329 652.932 279.329 649.579 284.507 647.475 294.864 645.371 305.22 643.48 333.807 641.803 380.625 640.127 422.741 636.864 451.525 632.014 466.978 627.165 482.43 620.614 490.156 612.362 490.156 610.685 490.156 609.14 490.025 607.726 489.762 606.312 489.499 605.063 489.072 603.978 488.48L604.915 477.679 609.896 477.679C610.389 479.849 611.03 481.37 611.819 482.241 612.608 483.112 613.808 483.548 615.419 483.548 618.378 483.548 621.222 478.436 623.951 468.211 626.68 457.986 628.817 431.24 630.362 387.973 632.269 341.024 635.335 310.11 639.56 295.233 643.784 280.356 650.779 272.918 660.544 272.918Z" fill-rule="evenodd"/><text fill="#000000" fill-opacity="0" font-family="Arial,Arial_MSFontService,sans-serif" font-size="217.239" x="603.978" y="463.002">න</text><path d="M776.008 363.244 811.072 363.244 812.009 365.71 788.485 392.736C783.915 397.963 779.953 402.402 776.599 406.051L776.895 406.396 788.041 406.396C790.013 406.396 791.526 406.289 792.578 406.076 793.63 405.862 794.551 405.459 795.34 404.867 796.129 404.276 796.942 403.38 797.781 402.18 798.619 400.98 799.663 399.097 800.912 396.533L805.302 396.533 802.293 410.391 766.588 410.391 765.651 407.974 792.627 376.905C796.441 372.532 799.236 369.425 801.011 367.584L800.715 367.239 789.175 367.239C787.465 367.239 786.216 367.354 785.427 367.584 784.638 367.814 783.849 368.217 783.06 368.793 782.271 369.368 781.424 370.223 780.52 371.357 779.616 372.491 778.605 374.111 777.487 376.215L773.098 376.215Z" fill-rule="evenodd"/><text fill="#000000" fill-opacity="0" font-family="Arial,Arial_MSFontService,sans-serif" font-size="47.1465" x="765.651" y="404.498">𝑧</text><path d="M873.574 347.414C871.536 347.414 869.399 347.463 867.163 347.562L860.456 377.448 865.585 377.448C869.563 377.448 872.777 377.037 875.226 376.215 877.676 375.393 879.681 374.119 881.243 372.393 882.805 370.667 884.013 368.62 884.868 366.253 885.722 363.886 886.15 361.288 886.15 358.461 886.15 354.647 885.18 351.852 883.24 350.077 881.3 348.302 878.078 347.414 873.574 347.414ZM852.911 343.074 874.659 343.074C878.572 343.074 881.785 343.378 884.3 343.986 886.816 344.595 888.887 345.532 890.514 346.797 892.142 348.063 893.358 349.666 894.164 351.606 894.969 353.546 895.372 355.798 895.372 358.362 895.372 363.294 894.205 367.568 891.871 371.184 889.536 374.801 886.372 377.464 882.377 379.174 878.383 380.883 873.591 381.738 868.001 381.738 864.648 381.738 861.853 381.672 859.618 381.541L856.461 396.04C856.165 397.388 855.96 398.423 855.845 399.147 855.73 399.87 855.631 400.651 855.549 401.489 855.467 402.328 855.426 403.076 855.426 403.733 855.426 404.752 855.59 405.55 855.919 406.125 856.248 406.7 856.741 407.12 857.398 407.383 858.056 407.646 859.19 407.843 860.801 407.974L860.259 410.391 839.99 410.391 840.532 407.974C841.781 407.777 842.719 407.457 843.343 407.013 843.968 406.569 844.494 405.952 844.921 405.163 845.349 404.374 845.743 403.413 846.105 402.278 846.467 401.144 847.009 398.95 847.732 395.695L856.116 357.721C856.839 354.433 857.201 351.836 857.201 349.929 857.201 348.318 856.823 347.2 856.067 346.576 855.311 345.951 854.078 345.589 852.368 345.491Z" fill-rule="evenodd"/><text fill="#000000" fill-opacity="0" font-family="Arial,Arial_MSFontService,sans-serif" font-size="67.3169" x="839.99" y="401.976">𝑃</text><path d="M997.547 334.752C1007.15 337.283 1014.52 342.749 1019.67 351.149 1024.81 359.55 1027.38 369.684 1027.38 381.553 1027.38 393.455 1024.82 403.589 1019.69 411.956 1014.56 420.324 1007.18 425.773 997.547 428.305L996.363 424.508C1003.96 421.976 1009.6 416.979 1013.3 409.515 1017 402.052 1018.85 392.567 1018.85 381.06 1018.85 369.947 1017.01 360.717 1013.33 353.369 1009.65 346.02 1003.94 341.081 996.215 338.549ZM940.792 334.752 942.124 338.549C934.43 341.081 928.734 346.02 925.035 353.369 921.337 360.717 919.487 369.947 919.487 381.06 919.487 392.567 921.337 402.052 925.035 409.515 928.734 416.979 934.381 421.976 941.976 424.508L940.792 428.305C931.159 425.773 923.778 420.324 918.649 411.956 913.52 403.589 910.956 393.455 910.956 381.553 910.956 369.684 913.528 359.55 918.674 351.149 923.819 342.749 931.192 337.283 940.792 334.752Z" fill-rule="evenodd"/><path d="M955.514 363.244 990.578 363.244 991.515 365.71 967.991 392.736C963.421 397.963 959.459 402.402 956.106 406.051L956.402 406.396 967.547 406.396C969.52 406.396 971.032 406.289 972.084 406.076 973.136 405.862 974.057 405.459 974.846 404.867 975.635 404.276 976.449 403.38 977.287 402.18 978.125 400.98 979.169 399.097 980.419 396.533L984.808 396.533 981.799 410.391 946.094 410.391 945.157 407.974 972.133 376.905C975.947 372.532 978.742 369.425 980.517 367.584L980.221 367.239 968.681 367.239C966.972 367.239 965.722 367.354 964.933 367.584 964.144 367.814 963.355 368.217 962.566 368.793 961.777 369.368 960.93 370.223 960.026 371.357 959.122 372.491 958.111 374.111 956.993 376.215L952.604 376.215Z" fill-rule="evenodd"/><text fill="#000000" fill-opacity="0" font-family="Arial,Arial_MSFontService,sans-serif" font-size="47.1465" x="945.157" y="404.498">𝑧</text><path d="M1085.9 366.351C1081.69 366.351 1078.49 368.036 1076.28 371.406 1074.08 374.776 1072.98 379.617 1072.98 385.93 1072.98 392.242 1073.88 397.043 1075.69 400.33 1077.5 403.618 1080.25 405.262 1083.93 405.262 1085.38 405.262 1086.58 405.139 1087.53 404.892 1088.48 404.646 1089.42 404.251 1090.34 403.709 1091.26 403.166 1092.2 402.418 1093.15 401.465 1094.1 400.511 1094.8 399.64 1095.25 398.851 1095.69 398.062 1096.03 397.158 1096.26 396.138 1096.49 395.119 1096.6 393.804 1096.6 392.193L1096.6 381.146C1096.6 378.582 1096.49 376.527 1096.26 374.982 1096.03 373.437 1095.64 372.138 1095.1 371.086 1094.56 370.034 1093.82 369.146 1092.9 368.423 1091.98 367.699 1090.97 367.173 1089.87 366.845 1088.77 366.516 1087.45 366.351 1085.9 366.351ZM1102.18 339.819 1105.09 339.819 1105.09 396.928C1105.09 399.492 1105.13 401.325 1105.23 402.426 1105.33 403.528 1105.55 404.407 1105.87 405.065 1106.2 405.722 1106.72 406.257 1107.43 406.668 1108.13 407.079 1109.38 407.465 1111.15 407.826L1111.15 410.391 1099.51 410.884 1096.55 410.884 1097.15 402.796 1096.41 402.599C1094.33 404.802 1092.53 406.454 1091.01 407.555 1089.48 408.657 1087.85 409.536 1086.12 410.194 1084.4 410.851 1082.55 411.18 1080.58 411.18 1075.18 411.18 1071.02 409.133 1068.1 405.04 1065.17 400.947 1063.71 395.037 1063.71 387.311 1063.71 381.919 1064.66 377.341 1066.57 373.576 1068.48 369.812 1071.05 367.009 1074.29 365.168 1077.53 363.327 1081.17 362.406 1085.21 362.406 1087.38 362.406 1089.35 362.579 1091.13 362.924 1092.9 363.269 1094.73 363.836 1096.6 364.625L1096.6 356.784C1096.6 353.628 1096.58 351.425 1096.53 350.176 1096.48 348.926 1096.35 347.866 1096.13 346.995 1095.92 346.123 1095.62 345.441 1095.25 344.948 1094.87 344.455 1094.36 344.06 1093.72 343.764 1093.08 343.469 1091.92 343.173 1090.24 342.877L1090.24 340.312Z" fill-rule="evenodd"/><text fill="#000000" fill-opacity="0" font-family="Arial,Arial_MSFontService,sans-serif" font-size="71.3608" x="1063.71" y="402.26">d</text><path d="M1126.27 363.244 1161.33 363.244 1162.27 365.71 1138.74 392.736C1134.17 397.963 1130.21 402.402 1126.86 406.051L1127.15 406.396 1138.3 406.396C1140.27 406.396 1141.78 406.289 1142.84 406.076 1143.89 405.862 1144.81 405.459 1145.6 404.867 1146.39 404.276 1147.2 403.38 1148.04 402.18 1148.88 400.98 1149.92 399.097 1151.17 396.533L1155.56 396.533 1152.55 410.391 1116.85 410.391 1115.91 407.974 1142.89 376.905C1146.7 372.532 1149.49 369.425 1151.27 367.584L1150.97 367.239 1139.43 367.239C1137.72 367.239 1136.47 367.354 1135.69 367.584 1134.9 367.814 1134.11 368.217 1133.32 368.793 1132.53 369.368 1131.68 370.223 1130.78 371.357 1129.87 372.491 1128.86 374.111 1127.75 376.215L1123.36 376.215Z" fill-rule="evenodd"/><text fill="#000000" fill-opacity="0" font-family="Arial,Arial_MSFontService,sans-serif" font-size="47.1465" x="1115.91" y="404.498">𝑧</text><path d="M728.766 264.205C726.14 264.205 723.906 265.283 722.063 267.438 720.22 269.594 718.359 272.66 716.48 276.634 718.191 279.79 719.937 282.151 721.72 283.716 723.502 285.282 725.875 286.065 728.838 286.065 731.463 286.065 733.625 285.095 735.324 283.156 737.022 281.217 737.871 278.549 737.871 275.153 737.871 271.877 737.076 269.233 735.486 267.222 733.896 265.21 731.656 264.205 728.766 264.205ZM700.112 263.084C697.414 263.084 695.222 264.193 693.536 266.409 691.85 268.625 691.007 271.491 691.007 275.008 691.007 277.899 691.759 280.284 693.265 282.163 694.771 284.042 696.957 284.981 699.823 284.981 702.545 284.981 705.008 283.68 707.212 281.079 709.416 278.477 710.988 275.767 711.928 272.949 710.338 269.817 708.591 267.39 706.688 265.668 704.785 263.946 702.593 263.084 700.112 263.084ZM700.184 259.291C703.292 259.291 705.942 260.2 708.134 262.019 710.326 263.837 712.253 266.288 713.915 269.372 715.143 266.674 717.01 264.331 719.516 262.344 722.021 260.356 724.984 259.363 728.404 259.363 732.596 259.363 736.01 260.754 738.648 263.536 741.286 266.318 742.604 270.082 742.604 274.828 742.604 278.995 741.34 282.542 738.81 285.469 736.281 288.396 733.017 289.859 729.018 289.859 725.55 289.859 722.671 288.938 720.383 287.095 718.094 285.252 716.131 282.933 714.493 280.139 713.337 282.596 711.548 284.83 709.127 286.842 706.706 288.853 703.725 289.859 700.184 289.859 695.68 289.859 692.247 288.432 689.887 285.577 687.526 282.723 686.346 279.248 686.346 275.153 686.346 270.672 687.526 266.909 689.887 263.861 692.247 260.814 695.68 259.291 700.184 259.291Z" fill-rule="evenodd"/><text fill="#000000" fill-opacity="0" font-family="Arial,Arial_MSFontService,sans-serif" font-size="30.5684" x="686.346" y="286.038">∞</text><path d="M649.066 481.873 690.691 481.873 690.691 487.401 649.066 487.401Z" fill-rule="evenodd"/><text fill="#000000" fill-opacity="0" font-family="Arial,Arial_MSFontService,sans-serif" font-size="5.52832" x="649.066" y="486.71">−</text><path d="M744.876 474.213C742.25 474.213 740.016 475.291 738.173 477.447 736.331 479.603 734.47 482.668 732.591 486.643 734.301 489.798 736.047 492.159 737.83 493.725 739.613 495.29 741.985 496.073 744.948 496.073 747.574 496.073 749.736 495.104 751.434 493.165 753.132 491.225 753.981 488.558 753.981 485.161 753.981 481.885 753.186 479.241 751.597 477.23 750.007 475.219 747.767 474.213 744.876 474.213ZM716.223 473.093C713.525 473.093 711.333 474.201 709.646 476.417 707.96 478.633 707.117 481.5 707.117 485.017 707.117 487.907 707.87 490.292 709.375 492.171 710.881 494.05 713.067 494.989 715.934 494.989 718.656 494.989 721.119 493.689 723.323 491.087 725.527 488.485 727.099 485.775 728.038 482.957 726.448 479.826 724.702 477.399 722.799 475.676 720.896 473.954 718.704 473.093 716.223 473.093ZM716.295 469.299C719.402 469.299 722.052 470.208 724.244 472.027 726.436 473.846 728.363 476.297 730.025 479.38 731.254 476.682 733.121 474.339 735.626 472.352 738.131 470.365 741.094 469.371 744.515 469.371 748.706 469.371 752.121 470.762 754.758 473.544 757.396 476.327 758.715 480.091 758.715 484.836 758.715 489.003 757.45 492.55 754.921 495.477 752.392 498.404 749.128 499.867 745.129 499.867 741.66 499.867 738.781 498.946 736.493 497.103 734.205 495.26 732.241 492.942 730.603 490.147 729.447 492.605 727.659 494.839 725.238 496.85 722.817 498.862 719.836 499.867 716.295 499.867 711.79 499.867 708.358 498.44 705.997 495.585 703.636 492.731 702.456 489.256 702.456 485.161 702.456 480.681 703.636 476.917 705.997 473.87 708.358 470.822 711.79 469.299 716.295 469.299Z" fill-rule="evenodd"/><text fill="#000000" fill-opacity="0" font-family="Arial,Arial_MSFontService,sans-serif" font-size="30.5684" x="702.456" y="496.046">∞</text><path d="M1188.5 398.95 1197.13 398.95C1197.59 401.251 1197.82 403.52 1197.82 405.755 1197.82 408.057 1197.43 410.161 1196.64 412.068 1195.85 413.975 1194.59 415.873 1192.86 417.764 1191.14 419.654 1188.76 421.734 1185.74 424.002L1183.07 420.994C1184.75 419.416 1185.97 417.994 1186.72 416.728 1187.48 415.462 1188.02 414.024 1188.35 412.413 1188.68 410.802 1188.84 408.78 1188.84 406.347 1188.84 403.848 1188.73 401.382 1188.5 398.95Z" fill-rule="evenodd"/><text fill="#000000" fill-opacity="0" font-family="Arial,Arial_MSFontService,sans-serif" font-size="25.0527" x="1183.07" y="420.871">,</text><path d="M1432.49 343.074 1478.6 343.074 1478.6 357.968 1473.77 357.968C1473.28 356.357 1472.77 354.943 1472.24 353.726 1471.72 352.51 1471.17 351.491 1470.62 350.669 1470.06 349.847 1469.44 349.189 1468.77 348.696 1468.09 348.203 1467.29 347.866 1466.37 347.685 1465.45 347.504 1464.35 347.414 1463.07 347.414L1447.49 347.414 1447.49 373.256 1458.04 373.256C1459.49 373.256 1460.62 373.05 1461.44 372.639 1462.26 372.228 1462.95 371.53 1463.49 370.543 1464.03 369.557 1464.55 368.012 1465.04 365.908L1469.68 365.908 1469.68 384.845 1465.04 384.845C1464.58 382.872 1464.07 381.385 1463.51 380.382 1462.95 379.379 1462.29 378.664 1461.52 378.237 1460.74 377.809 1459.58 377.596 1458.04 377.596L1447.49 377.596 1447.49 406.051 1462.82 406.051C1464.43 406.051 1465.74 405.911 1466.74 405.632 1467.75 405.352 1468.61 404.876 1469.33 404.202 1470.06 403.528 1470.7 402.648 1471.26 401.563 1471.82 400.478 1472.28 399.352 1472.66 398.185 1473.04 397.018 1473.56 395.317 1474.22 393.081L1479.1 393.081 1478.16 410.391 1432.49 410.391 1432.49 407.974C1434.53 407.448 1435.9 406.865 1436.59 406.224 1437.28 405.583 1437.73 404.67 1437.94 403.487 1438.16 402.303 1438.26 400.495 1438.26 398.062L1438.26 355.403C1438.26 353.135 1438.18 351.482 1438.02 350.447 1437.85 349.411 1437.58 348.606 1437.2 348.03 1436.83 347.455 1436.32 346.995 1435.7 346.649 1435.07 346.304 1434.01 345.918 1432.49 345.491Z" fill-rule="evenodd"/><text fill="#000000" fill-opacity="0" font-family="Arial,Arial_MSFontService,sans-serif" font-size="67.3169" x="1432.49" y="401.976">E</text><path d="M1622.02 334.531 1644.01 334.531 1644.01 428.578 1622.02 428.578 1622.02 424.78 1635.83 424.78 1635.83 338.329 1622.02 338.329ZM1495.64 334.531 1517.63 334.531 1517.63 338.329 1503.82 338.329 1503.82 424.78 1517.63 424.78 1517.63 428.578 1495.64 428.578Z" fill-rule="evenodd"/><path d="M1531.27 363.244 1566.34 363.244 1567.27 365.71 1543.75 392.736C1539.18 397.963 1535.22 402.402 1531.86 406.051L1532.16 406.396 1543.31 406.396C1545.28 406.396 1546.79 406.289 1547.84 406.076 1548.89 405.862 1549.82 405.459 1550.6 404.867 1551.39 404.276 1552.21 403.38 1553.05 402.18 1553.88 400.98 1554.93 399.097 1556.18 396.533L1560.57 396.533 1557.56 410.391 1521.85 410.391 1520.92 407.974 1547.89 376.905C1551.71 372.532 1554.5 369.425 1556.28 367.584L1555.98 367.239 1544.44 367.239C1542.73 367.239 1541.48 367.354 1540.69 367.584 1539.9 367.814 1539.11 368.217 1538.32 368.793 1537.54 369.368 1536.69 370.223 1535.78 371.357 1534.88 372.491 1533.87 374.111 1532.75 376.215L1528.36 376.215Z" fill-rule="evenodd"/><text fill="#000000" fill-opacity="0" font-family="Arial,Arial_MSFontService,sans-serif" font-size="47.1465" x="1520.92" y="404.498">𝑧</text><path d="M1594.88 326.68C1597.38 326.68 1599.52 326.963 1601.29 327.529 1603.06 328.095 1604.5 328.86 1605.61 329.824 1606.72 330.787 1607.52 331.944 1608.01 333.292 1608.51 334.641 1608.75 336.099 1608.75 337.665 1608.75 338.604 1608.69 339.477 1608.56 340.284 1608.42 341.091 1608.19 341.886 1607.87 342.669 1607.54 343.452 1607.12 344.241 1606.59 345.036 1606.06 345.831 1605.39 346.674 1604.6 347.565 1604 348.336 1603.21 349.227 1602.25 350.239 1601.29 351.25 1600.23 352.334 1599.09 353.491 1597.94 354.647 1596.75 355.851 1595.49 357.104 1594.24 358.357 1593.02 359.597 1591.84 360.826 1590.66 362.054 1589.58 363.247 1588.59 364.403 1587.6 365.559 1586.8 366.619 1586.17 367.583L1599.54 367.583C1600.67 367.583 1601.58 367.54 1602.25 367.456 1602.92 367.372 1603.48 367.185 1603.93 366.896 1604.38 366.607 1604.76 366.167 1605.07 365.577 1605.38 364.987 1605.74 364.174 1606.15 363.138L1609.51 363.138C1609.39 364.848 1609.28 366.571 1609.17 368.305 1609.06 370.04 1608.95 371.762 1608.83 373.472L1578.22 373.472 1578.22 371.593C1578.8 370.292 1579.47 369.01 1580.25 367.745 1581.02 366.48 1581.88 365.198 1582.85 363.897 1583.81 362.596 1584.91 361.253 1586.13 359.868 1587.36 358.483 1588.72 357.044 1590.22 355.55 1592.48 353.286 1594.32 351.353 1595.75 349.751 1597.17 348.149 1598.29 346.722 1599.11 345.469 1599.93 344.217 1600.49 343.06 1600.79 342 1601.09 340.941 1601.24 339.808 1601.24 338.604 1601.24 337.375 1601.06 336.243 1600.71 335.208 1600.37 334.172 1599.87 333.292 1599.21 332.57 1598.56 331.847 1597.74 331.281 1596.74 330.872 1595.74 330.462 1594.59 330.257 1593.29 330.257 1591.05 330.257 1589.17 330.866 1587.65 332.082 1586.13 333.298 1584.95 335.063 1584.11 337.375L1579.38 337.375 1579.38 330.33C1582.46 329.053 1585.3 328.125 1587.89 327.547 1590.48 326.969 1592.81 326.68 1594.88 326.68Z" fill-rule="evenodd"/><text fill="#000000" fill-opacity="0" font-family="Arial,Arial_MSFontService,sans-serif" font-size="46.792" x="1578.22" y="367.623">2</text><path d="M1690.54 398.703 1751.3 398.703 1751.3 405.262 1690.54 405.262ZM1690.54 378.237 1751.3 378.237 1751.3 384.796 1690.54 384.796ZM1690.54 357.77 1751.3 357.77 1751.3 364.329 1690.54 364.329Z" fill-rule="evenodd"/><text fill="#000000" fill-opacity="0" font-family="Arial,Arial_MSFontService,sans-serif" font-size="47.4917" x="1690.54" y="399.326">≡</text><path d="M1801.59 363.244 1809.87 363.244 1803.81 390.122C1803.31 392.292 1802.93 394.174 1802.65 395.769 1802.37 397.363 1802.23 398.818 1802.23 400.133 1802.23 401.843 1802.68 403.141 1803.58 404.029 1804.49 404.917 1805.78 405.361 1807.46 405.361 1809.4 405.361 1811.51 404.325 1813.79 402.254 1816.08 400.182 1818.12 397.585 1819.93 394.462 1821.74 391.338 1822.91 388.577 1823.43 386.177L1828.32 363.244 1836.85 363.244 1829.85 394.462C1829.09 397.848 1828.71 400.281 1828.71 401.761 1828.71 403.076 1828.92 404.029 1829.35 404.621 1829.78 405.213 1830.45 405.509 1831.37 405.509 1832.13 405.509 1833.04 405.213 1834.11 404.621 1835.18 404.029 1836.37 402.993 1837.69 401.514L1840.45 404.276C1838.61 406.084 1836.97 407.481 1835.54 408.468 1834.11 409.454 1832.8 410.153 1831.62 410.564 1830.44 410.975 1829.15 411.18 1827.77 411.18 1825.64 411.18 1823.98 410.547 1822.79 409.281 1821.61 408.016 1821.02 406.248 1821.02 403.98 1821.02 402.139 1821.44 400.166 1822.3 398.062L1821.76 397.766C1818.7 402.303 1815.87 405.599 1813.27 407.654 1810.68 409.709 1808 410.736 1805.24 410.736 1803.86 410.736 1802.6 410.514 1801.46 410.07 1800.33 409.627 1799.15 408.78 1797.94 407.531 1797.54 409.503 1797.19 412.158 1796.88 415.495 1796.56 418.832 1796.41 421.832 1796.41 424.495 1796.41 425.482 1796.44 426.271 1796.51 426.863L1795.82 430.167 1789.41 430.167 1786.99 427.208C1788.47 421.75 1789.85 416.145 1791.13 410.391Z" fill-rule="evenodd"/><text fill="#000000" fill-opacity="0" font-family="Arial,Arial_MSFontService,sans-serif" font-size="66.9224" x="1786.99" y="421.802">𝜇</text><path d="M1863.39 384.178C1865.9 384.178 1868.04 384.461 1869.81 385.027 1871.58 385.593 1873.02 386.358 1874.13 387.322 1875.23 388.285 1876.03 389.441 1876.53 390.79 1877.02 392.139 1877.27 393.597 1877.27 395.162 1877.27 396.102 1877.2 396.975 1877.07 397.782 1876.94 398.589 1876.71 399.384 1876.38 400.167 1876.06 400.95 1875.63 401.739 1875.1 402.534 1874.57 403.328 1873.91 404.172 1873.11 405.063 1872.51 405.834 1871.73 406.725 1870.76 407.737 1869.8 408.748 1868.75 409.832 1867.6 410.989 1866.46 412.145 1865.26 413.349 1864.01 414.602 1862.76 415.855 1861.54 417.095 1860.36 418.324 1859.18 419.552 1858.09 420.745 1857.11 421.901 1856.12 423.057 1855.31 424.117 1854.69 425.08L1868.05 425.08C1869.19 425.08 1870.09 425.038 1870.76 424.954 1871.44 424.87 1872 424.683 1872.44 424.394 1872.89 424.105 1873.27 423.665 1873.58 423.075 1873.9 422.485 1874.26 421.672 1874.67 420.636L1878.03 420.636C1877.91 422.346 1877.79 424.069 1877.68 425.803 1877.58 427.537 1877.46 429.26 1877.34 430.97L1846.74 430.97 1846.74 429.091C1847.31 427.79 1847.99 426.508 1848.76 425.243 1849.53 423.978 1850.4 422.696 1851.36 421.395 1852.32 420.094 1853.42 418.751 1854.65 417.366 1855.88 415.981 1857.24 414.542 1858.73 413.048 1861 410.784 1862.84 408.851 1864.26 407.249 1865.68 405.647 1866.8 404.22 1867.62 402.967 1868.44 401.715 1869 400.558 1869.3 399.498 1869.6 398.439 1869.75 397.306 1869.75 396.102 1869.75 394.873 1869.58 393.741 1869.23 392.705 1868.88 391.67 1868.38 390.79 1867.73 390.068 1867.08 389.345 1866.25 388.779 1865.25 388.37 1864.25 387.96 1863.1 387.755 1861.8 387.755 1859.56 387.755 1857.68 388.363 1856.17 389.58 1854.65 390.796 1853.47 392.561 1852.63 394.873L1847.89 394.873 1847.89 387.828C1850.98 386.551 1853.81 385.623 1856.4 385.045 1858.99 384.467 1861.32 384.178 1863.39 384.178Z" fill-rule="evenodd"/><text fill="#000000" fill-opacity="0" font-family="Arial,Arial_MSFontService,sans-serif" font-size="46.792" x="1846.74" y="425.121">2</text><path d="M1923.76 388.494 1984.52 388.494 1984.52 395.054 1923.76 395.054ZM1923.76 368.028 1984.52 368.028 1984.52 374.587 1923.76 374.587Z" fill-rule="evenodd"/><text fill="#000000" fill-opacity="0" font-family="Arial,Arial_MSFontService,sans-serif" font-size="27.0254" x="1923.76" y="391.675">=</text><path d="M2081.22 272.918C2082.96 272.918 2084.55 273.074 2085.98 273.386 2087.41 273.699 2088.61 274.085 2089.6 274.545L2088.66 284.852 2083.19 284.852C2083.09 283.044 2082.7 281.671 2082.01 280.734 2081.32 279.797 2080.05 279.329 2078.21 279.329 2073.61 279.329 2070.25 284.507 2068.15 294.864 2066.04 305.22 2064.15 333.807 2062.48 380.625 2060.8 422.741 2057.54 451.525 2052.69 466.978 2047.84 482.43 2041.29 490.156 2033.03 490.156 2031.36 490.156 2029.81 490.025 2028.4 489.762 2026.98 489.499 2025.74 489.072 2024.65 488.48L2025.59 477.679 2030.57 477.679C2031.06 479.849 2031.7 481.37 2032.49 482.241 2033.28 483.112 2034.48 483.548 2036.09 483.548 2039.05 483.548 2041.89 478.436 2044.62 468.211 2047.35 457.986 2049.49 431.24 2051.03 387.973 2052.94 341.024 2056.01 310.11 2060.23 295.233 2064.46 280.356 2071.45 272.918 2081.22 272.918Z" fill-rule="evenodd"/><text fill="#000000" fill-opacity="0" font-family="Arial,Arial_MSFontService,sans-serif" font-size="217.239" x="2024.65" y="463.002">න</text><path d="M2196.68 363.244 2231.74 363.244 2232.68 365.71 2209.16 392.736C2204.59 397.963 2200.63 402.402 2197.27 406.051L2197.57 406.396 2208.71 406.396C2210.69 406.396 2212.2 406.289 2213.25 406.076 2214.3 405.862 2215.22 405.459 2216.01 404.867 2216.8 404.276 2217.62 403.38 2218.45 402.18 2219.29 400.98 2220.34 399.097 2221.59 396.533L2225.97 396.533 2222.97 410.391 2187.26 410.391 2186.32 407.974 2213.3 376.905C2217.11 372.532 2219.91 369.425 2221.68 367.584L2221.39 367.239 2209.85 367.239C2208.14 367.239 2206.89 367.354 2206.1 367.584 2205.31 367.814 2204.52 368.217 2203.73 368.793 2202.94 369.368 2202.1 370.223 2201.19 371.357 2200.29 372.491 2199.28 374.111 2198.16 376.215L2193.77 376.215Z" fill-rule="evenodd"/><text fill="#000000" fill-opacity="0" font-family="Arial,Arial_MSFontService,sans-serif" font-size="47.1465" x="2186.32" y="404.498">𝑧</text><path d="M2260.29 326.68C2262.79 326.68 2264.93 326.963 2266.7 327.529 2268.47 328.095 2269.91 328.86 2271.02 329.824 2272.13 330.787 2272.93 331.944 2273.42 333.292 2273.92 334.641 2274.16 336.099 2274.16 337.665 2274.16 338.604 2274.1 339.477 2273.96 340.284 2273.83 341.091 2273.6 341.886 2273.28 342.669 2272.95 343.452 2272.52 344.241 2271.99 345.036 2271.46 345.831 2270.8 346.674 2270.01 347.565 2269.4 348.336 2268.62 349.227 2267.66 350.239 2266.69 351.25 2265.64 352.334 2264.5 353.491 2263.35 354.647 2262.15 355.851 2260.9 357.104 2259.65 358.357 2258.43 359.597 2257.25 360.826 2256.07 362.054 2254.99 363.247 2254 364.403 2253.01 365.559 2252.21 366.619 2251.58 367.583L2264.95 367.583C2266.08 367.583 2266.98 367.54 2267.66 367.456 2268.33 367.372 2268.89 367.185 2269.34 366.896 2269.78 366.607 2270.16 366.167 2270.48 365.577 2270.79 364.987 2271.15 364.174 2271.56 363.138L2274.92 363.138C2274.8 364.848 2274.69 366.571 2274.58 368.305 2274.47 370.04 2274.35 371.762 2274.23 373.472L2243.63 373.472 2243.63 371.593C2244.21 370.292 2244.88 369.01 2245.65 367.745 2246.42 366.48 2247.29 365.198 2248.26 363.897 2249.22 362.596 2250.31 361.253 2251.54 359.868 2252.77 358.483 2254.13 357.044 2255.63 355.55 2257.89 353.286 2259.73 351.353 2261.15 349.751 2262.58 348.149 2263.7 346.722 2264.51 345.469 2265.33 344.217 2265.89 343.06 2266.2 342 2266.5 340.941 2266.65 339.808 2266.65 338.604 2266.65 337.375 2266.47 336.243 2266.12 335.208 2265.77 334.172 2265.27 333.292 2264.62 332.57 2263.97 331.847 2263.15 331.281 2262.15 330.872 2261.15 330.462 2260 330.257 2258.7 330.257 2256.46 330.257 2254.58 330.866 2253.06 332.082 2251.54 333.298 2250.36 335.063 2249.52 337.375L2244.79 337.375 2244.79 330.33C2247.87 329.053 2250.71 328.125 2253.3 327.547 2255.89 326.969 2258.22 326.68 2260.29 326.68Z" fill-rule="evenodd"/><text fill="#000000" fill-opacity="0" font-family="Arial,Arial_MSFontService,sans-serif" font-size="46.792" x="2243.63" y="367.623">2</text><path d="M2344.04 347.414C2342.01 347.414 2339.87 347.463 2337.63 347.562L2330.93 377.448 2336.06 377.448C2340.03 377.448 2343.25 377.037 2345.7 376.215 2348.15 375.393 2350.15 374.119 2351.71 372.393 2353.28 370.667 2354.48 368.62 2355.34 366.253 2356.19 363.886 2356.62 361.288 2356.62 358.461 2356.62 354.647 2355.65 351.852 2353.71 350.077 2351.77 348.302 2348.55 347.414 2344.04 347.414ZM2323.38 343.074 2345.13 343.074C2349.04 343.074 2352.26 343.378 2354.77 343.986 2357.29 344.595 2359.36 345.532 2360.99 346.797 2362.61 348.063 2363.83 349.666 2364.63 351.606 2365.44 353.546 2365.84 355.798 2365.84 358.362 2365.84 363.294 2364.68 367.568 2362.34 371.184 2360.01 374.801 2356.84 377.464 2352.85 379.174 2348.85 380.883 2344.06 381.738 2338.47 381.738 2335.12 381.738 2332.32 381.672 2330.09 381.541L2326.93 396.04C2326.64 397.388 2326.43 398.423 2326.32 399.147 2326.2 399.87 2326.1 400.651 2326.02 401.489 2325.94 402.328 2325.9 403.076 2325.9 403.733 2325.9 404.752 2326.06 405.55 2326.39 406.125 2326.72 406.7 2327.21 407.12 2327.87 407.383 2328.53 407.646 2329.66 407.843 2331.27 407.974L2330.73 410.391 2310.46 410.391 2311 407.974C2312.25 407.777 2313.19 407.457 2313.81 407.013 2314.44 406.569 2314.96 405.952 2315.39 405.163 2315.82 404.374 2316.21 403.413 2316.58 402.278 2316.94 401.144 2317.48 398.95 2318.2 395.695L2326.59 357.721C2327.31 354.433 2327.67 351.836 2327.67 349.929 2327.67 348.318 2327.29 347.2 2326.54 346.576 2325.78 345.951 2324.55 345.589 2322.84 345.491Z" fill-rule="evenodd"/><text fill="#000000" fill-opacity="0" font-family="Arial,Arial_MSFontService,sans-serif" font-size="67.3169" x="2310.46" y="401.976">𝑃</text><path d="M2468.02 334.752C2477.62 337.283 2484.99 342.749 2490.14 351.149 2495.28 359.55 2497.85 369.684 2497.85 381.553 2497.85 393.455 2495.29 403.589 2490.16 411.956 2485.03 420.324 2477.65 425.773 2468.02 428.305L2466.83 424.508C2474.43 421.976 2480.08 416.979 2483.77 409.515 2487.47 402.052 2489.32 392.567 2489.32 381.06 2489.32 369.947 2487.48 360.717 2483.8 353.369 2480.12 346.02 2474.41 341.081 2466.69 338.549ZM2411.26 334.752 2412.59 338.549C2404.9 341.081 2399.2 346.02 2395.51 353.369 2391.81 360.717 2389.96 369.947 2389.96 381.06 2389.96 392.567 2391.81 402.052 2395.51 409.515 2399.2 416.979 2404.85 421.976 2412.45 424.508L2411.26 428.305C2401.63 425.773 2394.25 420.324 2389.12 411.956 2383.99 403.589 2381.43 393.455 2381.43 381.553 2381.43 369.684 2384 359.55 2389.14 351.149 2394.29 342.749 2401.66 337.283 2411.26 334.752Z" fill-rule="evenodd"/><path d="M2425.98 363.244 2461.05 363.244 2461.99 365.71 2438.46 392.736C2433.89 397.963 2429.93 402.402 2426.58 406.051L2426.87 406.396 2438.02 406.396C2439.99 406.396 2441.5 406.289 2442.55 406.076 2443.61 405.862 2444.53 405.459 2445.32 404.867 2446.11 404.276 2446.92 403.38 2447.76 402.18 2448.6 400.98 2449.64 399.097 2450.89 396.533L2455.28 396.533 2452.27 410.391 2416.57 410.391 2415.63 407.974 2442.6 376.905C2446.42 372.532 2449.21 369.425 2450.99 367.584L2450.69 367.239 2439.15 367.239C2437.44 367.239 2436.19 367.354 2435.4 367.584 2434.61 367.814 2433.83 368.217 2433.04 368.793 2432.25 369.368 2431.4 370.223 2430.5 371.357 2429.59 372.491 2428.58 374.111 2427.46 376.215L2423.07 376.215Z" fill-rule="evenodd"/><text fill="#000000" fill-opacity="0" font-family="Arial,Arial_MSFontService,sans-serif" font-size="47.1465" x="2415.63" y="404.498">𝑧</text><path d="M2556.37 366.351C2552.16 366.351 2548.96 368.036 2546.76 371.406 2544.55 374.776 2543.45 379.617 2543.45 385.93 2543.45 392.242 2544.36 397.043 2546.16 400.33 2547.97 403.618 2550.72 405.262 2554.4 405.262 2555.85 405.262 2557.05 405.139 2558 404.892 2558.95 404.646 2559.89 404.251 2560.81 403.709 2561.73 403.166 2562.67 402.418 2563.62 401.465 2564.57 400.511 2565.27 399.64 2565.72 398.851 2566.16 398.062 2566.5 397.158 2566.73 396.138 2566.96 395.119 2567.07 393.804 2567.07 392.193L2567.07 381.146C2567.07 378.582 2566.96 376.527 2566.73 374.982 2566.5 373.437 2566.11 372.138 2565.57 371.086 2565.03 370.034 2564.3 369.146 2563.38 368.423 2562.45 367.699 2561.44 367.173 2560.34 366.845 2559.24 366.516 2557.92 366.351 2556.37 366.351ZM2572.65 339.819 2575.56 339.819 2575.56 396.928C2575.56 399.492 2575.61 401.325 2575.7 402.426 2575.8 403.528 2576.02 404.407 2576.35 405.065 2576.67 405.722 2577.19 406.257 2577.9 406.668 2578.61 407.079 2579.85 407.465 2581.62 407.826L2581.62 410.391 2569.98 410.884 2567.02 410.884 2567.62 402.796 2566.88 402.599C2564.81 404.802 2563.01 406.454 2561.48 407.555 2559.95 408.657 2558.32 409.536 2556.59 410.194 2554.87 410.851 2553.02 411.18 2551.05 411.18 2545.65 411.18 2541.49 409.133 2538.57 405.04 2535.64 400.947 2534.18 395.037 2534.18 387.311 2534.18 381.919 2535.13 377.341 2537.04 373.576 2538.95 369.812 2541.52 367.009 2544.76 365.168 2548 363.327 2551.64 362.406 2555.68 362.406 2557.85 362.406 2559.82 362.579 2561.6 362.924 2563.38 363.269 2565.2 363.836 2567.07 364.625L2567.07 356.784C2567.07 353.628 2567.05 351.425 2567 350.176 2566.95 348.926 2566.82 347.866 2566.61 346.995 2566.39 346.123 2566.1 345.441 2565.72 344.948 2565.34 344.455 2564.83 344.06 2564.19 343.764 2563.55 343.469 2562.39 343.173 2560.71 342.877L2560.71 340.312Z" fill-rule="evenodd"/><text fill="#000000" fill-opacity="0" font-family="Arial,Arial_MSFontService,sans-serif" font-size="71.3608" x="2534.18" y="402.26">d</text><path d="M2596.74 363.244 2631.8 363.244 2632.74 365.71 2609.21 392.736C2604.64 397.963 2600.68 402.402 2597.33 406.051L2597.62 406.396 2608.77 406.396C2610.74 406.396 2612.25 406.289 2613.31 406.076 2614.36 405.862 2615.28 405.459 2616.07 404.867 2616.86 404.276 2617.67 403.38 2618.51 402.18 2619.35 400.98 2620.39 399.097 2621.64 396.533L2626.03 396.533 2623.02 410.391 2587.32 410.391 2586.38 407.974 2613.36 376.905C2617.17 372.532 2619.96 369.425 2621.74 367.584L2621.44 367.239 2609.9 367.239C2608.19 367.239 2606.95 367.354 2606.16 367.584 2605.37 367.814 2604.58 368.217 2603.79 368.793 2603 369.368 2602.15 370.223 2601.25 371.357 2600.34 372.491 2599.33 374.111 2598.22 376.215L2593.83 376.215Z" fill-rule="evenodd"/><text fill="#000000" fill-opacity="0" font-family="Arial,Arial_MSFontService,sans-serif" font-size="47.1465" x="2586.38" y="404.498">𝑧</text><path d="M2149.44 264.205C2146.81 264.205 2144.58 265.283 2142.74 267.438 2140.89 269.594 2139.03 272.66 2137.15 276.634 2138.86 279.79 2140.61 282.151 2142.39 283.716 2144.18 285.282 2146.55 286.065 2149.51 286.065 2152.14 286.065 2154.3 285.095 2156 283.156 2157.69 281.217 2158.54 278.549 2158.54 275.153 2158.54 271.877 2157.75 269.233 2156.16 267.222 2154.57 265.21 2152.33 264.205 2149.44 264.205ZM2120.79 263.084C2118.09 263.084 2115.9 264.193 2114.21 266.409 2112.52 268.625 2111.68 271.491 2111.68 275.008 2111.68 277.899 2112.43 280.284 2113.94 282.163 2115.44 284.042 2117.63 284.981 2120.5 284.981 2123.22 284.981 2125.68 283.68 2127.89 281.079 2130.09 278.477 2131.66 275.767 2132.6 272.949 2131.01 269.817 2129.26 267.39 2127.36 265.668 2125.46 263.946 2123.27 263.084 2120.79 263.084ZM2120.86 259.291C2123.96 259.291 2126.61 260.2 2128.81 262.019 2131 263.837 2132.93 266.288 2134.59 269.372 2135.82 266.674 2137.68 264.331 2140.19 262.344 2142.69 260.356 2145.66 259.363 2149.08 259.363 2153.27 259.363 2156.68 260.754 2159.32 263.536 2161.96 266.318 2163.28 270.082 2163.28 274.828 2163.28 278.995 2162.01 282.542 2159.48 285.469 2156.95 288.396 2153.69 289.859 2149.69 289.859 2146.22 289.859 2143.34 288.938 2141.06 287.095 2138.77 285.252 2136.8 282.933 2135.17 280.139 2134.01 282.596 2132.22 284.83 2129.8 286.842 2127.38 288.853 2124.4 289.859 2120.86 289.859 2116.35 289.859 2112.92 288.432 2110.56 285.577 2108.2 282.723 2107.02 279.248 2107.02 275.153 2107.02 270.672 2108.2 266.909 2110.56 263.861 2112.92 260.814 2116.35 259.291 2120.86 259.291Z" fill-rule="evenodd"/><text fill="#000000" fill-opacity="0" font-family="Arial,Arial_MSFontService,sans-serif" font-size="30.5684" x="2107.02" y="286.038">∞</text><path d="M2069.74 481.873 2111.36 481.873 2111.36 487.401 2069.74 487.401Z" fill-rule="evenodd"/><text fill="#000000" fill-opacity="0" font-family="Arial,Arial_MSFontService,sans-serif" font-size="5.52832" x="2069.74" y="486.71">−</text><path d="M2165.55 474.213C2162.92 474.213 2160.69 475.291 2158.85 477.447 2157 479.603 2155.14 482.668 2153.26 486.643 2154.97 489.798 2156.72 492.159 2158.5 493.725 2160.29 495.29 2162.66 496.073 2165.62 496.073 2168.25 496.073 2170.41 495.104 2172.11 493.165 2173.81 491.225 2174.65 488.558 2174.65 485.161 2174.65 481.885 2173.86 479.241 2172.27 477.23 2170.68 475.219 2168.44 474.213 2165.55 474.213ZM2136.9 473.093C2134.2 473.093 2132.01 474.201 2130.32 476.417 2128.63 478.633 2127.79 481.5 2127.79 485.017 2127.79 487.907 2128.54 490.292 2130.05 492.171 2131.55 494.05 2133.74 494.989 2136.61 494.989 2139.33 494.989 2141.79 493.689 2144 491.087 2146.2 488.485 2147.77 485.775 2148.71 482.957 2147.12 479.826 2145.37 477.399 2143.47 475.676 2141.57 473.954 2139.38 473.093 2136.9 473.093ZM2136.97 469.299C2140.08 469.299 2142.72 470.208 2144.92 472.027 2147.11 473.846 2149.04 476.297 2150.7 479.38 2151.93 476.682 2153.79 474.339 2156.3 472.352 2158.8 470.365 2161.77 469.371 2165.19 469.371 2169.38 469.371 2172.79 470.762 2175.43 473.544 2178.07 476.327 2179.39 480.091 2179.39 484.836 2179.39 489.003 2178.12 492.55 2175.59 495.477 2173.06 498.404 2169.8 499.867 2165.8 499.867 2162.33 499.867 2159.45 498.946 2157.17 497.103 2154.88 495.26 2152.91 492.942 2151.28 490.147 2150.12 492.605 2148.33 494.839 2145.91 496.85 2143.49 498.862 2140.51 499.867 2136.97 499.867 2132.46 499.867 2129.03 498.44 2126.67 495.585 2124.31 492.731 2123.13 489.256 2123.13 485.161 2123.13 480.681 2124.31 476.917 2126.67 473.87 2129.03 470.822 2132.46 469.299 2136.97 469.299Z" fill-rule="evenodd"/><text fill="#000000" fill-opacity="0" font-family="Arial,Arial_MSFontService,sans-serif" font-size="30.5684" x="2123.13" y="496.046">∞</text><path d="M2914.07 398.95 2924.03 398.95 2924.03 410.391 2914.07 410.391ZM2889.9 398.95 2899.86 398.95 2899.86 410.391 2889.9 410.391ZM2865.74 398.95 2875.7 398.95 2875.7 410.391 2865.74 410.391Z" fill-rule="evenodd"/><text fill="#000000" fill-opacity="0" font-family="Arial,Arial_MSFontService,sans-serif" font-size="11.4414" x="2865.74" y="408.961">…</text><path d="M3108.25 343.074 3154.36 343.074 3154.36 357.968 3149.53 357.968C3149.04 356.357 3148.53 354.943 3148 353.726 3147.48 352.51 3146.93 351.491 3146.37 350.669 3145.81 349.847 3145.2 349.189 3144.52 348.696 3143.85 348.203 3143.05 347.866 3142.13 347.685 3141.21 347.504 3140.11 347.414 3138.83 347.414L3123.24 347.414 3123.24 373.256 3133.8 373.256C3135.24 373.256 3136.38 373.05 3137.2 372.639 3138.02 372.228 3138.71 371.53 3139.25 370.543 3139.79 369.557 3140.31 368.012 3140.8 365.908L3145.44 365.908 3145.44 384.845 3140.8 384.845C3140.34 382.872 3139.83 381.385 3139.27 380.382 3138.71 379.379 3138.05 378.664 3137.27 378.237 3136.5 377.809 3135.34 377.596 3133.8 377.596L3123.24 377.596 3123.24 406.051 3138.58 406.051C3140.19 406.051 3141.5 405.911 3142.5 405.632 3143.51 405.352 3144.37 404.876 3145.09 404.202 3145.81 403.528 3146.46 402.648 3147.01 401.563 3147.57 400.478 3148.04 399.352 3148.42 398.185 3148.8 397.018 3149.32 395.317 3149.97 393.081L3154.86 393.081 3153.92 410.391 3108.25 410.391 3108.25 407.974C3110.29 407.448 3111.66 406.865 3112.35 406.224 3113.04 405.583 3113.49 404.67 3113.7 403.487 3113.92 402.303 3114.02 400.495 3114.02 398.062L3114.02 355.403C3114.02 353.135 3113.94 351.482 3113.78 350.447 3113.61 349.411 3113.34 348.606 3112.96 348.03 3112.58 347.455 3112.08 346.995 3111.46 346.649 3110.83 346.304 3109.76 345.918 3108.25 345.491Z" fill-rule="evenodd"/><text fill="#000000" fill-opacity="0" font-family="Arial,Arial_MSFontService,sans-serif" font-size="67.3169" x="3108.25" y="401.976">E</text><path d="M3304.19 334.531 3326.19 334.531 3326.19 428.578 3304.19 428.578 3304.19 424.78 3318 424.78 3318 338.329 3304.19 338.329ZM3171.39 334.531 3193.39 334.531 3193.39 338.329 3179.58 338.329 3179.58 424.78 3193.39 424.78 3193.39 428.578 3171.39 428.578Z" fill-rule="evenodd"/><path d="M3207.03 363.244 3242.09 363.244 3243.03 365.71 3219.51 392.736C3214.94 397.963 3210.98 402.402 3207.62 406.051L3207.92 406.396 3219.06 406.396C3221.04 406.396 3222.55 406.289 3223.6 406.076 3224.65 405.862 3225.57 405.459 3226.36 404.867 3227.15 404.276 3227.97 403.38 3228.8 402.18 3229.64 400.98 3230.69 399.097 3231.94 396.533L3236.32 396.533 3233.32 410.391 3197.61 410.391 3196.67 407.974 3223.65 376.905C3227.46 372.532 3230.26 369.425 3232.03 367.584L3231.74 367.239 3220.2 367.239C3218.49 367.239 3217.24 367.354 3216.45 367.584 3215.66 367.814 3214.87 368.217 3214.08 368.793 3213.29 369.368 3212.45 370.223 3211.54 371.357 3210.64 372.491 3209.63 374.111 3208.51 376.215L3204.12 376.215Z" fill-rule="evenodd"/><text fill="#000000" fill-opacity="0" font-family="Arial,Arial_MSFontService,sans-serif" font-size="47.1465" x="3196.67" y="404.498">𝑧</text><path d="M3262.22 336.581C3264 336.581 3265.38 337.165 3266.36 338.333 3267.33 339.501 3267.82 341.037 3267.82 342.94 3267.82 343.422 3267.78 343.928 3267.69 344.458 3267.61 344.987 3267.46 345.493 3267.24 345.975L3267.75 346.156C3270.08 342.952 3272.39 340.555 3274.67 338.965 3276.94 337.375 3279.3 336.581 3281.73 336.581 3284.28 336.581 3286.19 337.267 3287.46 338.64 3288.72 340.013 3289.35 341.94 3289.35 344.421 3289.35 345.168 3289.25 346.204 3289.03 347.529 3288.81 348.854 3288.54 350.299 3288.2 351.865 3287.86 353.431 3287.5 355.038 3287.11 356.688 3286.73 358.339 3286.37 359.862 3286.03 361.259 3285.69 362.656 3285.42 363.849 3285.2 364.836 3284.98 365.824 3284.87 366.438 3284.87 366.679 3284.87 367.595 3285.04 368.257 3285.38 368.667 3285.72 369.076 3286.26 369.281 3287.01 369.281 3287.46 369.281 3287.92 369.196 3288.36 369.028 3288.81 368.859 3289.27 368.594 3289.75 368.233 3290.23 367.872 3290.76 367.408 3291.34 366.842 3291.92 366.276 3292.57 365.595 3293.29 364.8L3295.79 367.185C3294.61 368.389 3293.52 369.425 3292.53 370.292 3291.55 371.16 3290.59 371.876 3289.66 372.442 3288.73 373.008 3287.81 373.43 3286.9 373.707 3285.98 373.984 3285.01 374.123 3283.97 374.123 3283.1 374.123 3282.3 373.954 3281.57 373.617 3280.83 373.279 3280.2 372.816 3279.67 372.226 3279.14 371.635 3278.73 370.937 3278.44 370.13 3278.15 369.323 3278.01 368.438 3278.01 367.474 3278.01 366.511 3278.11 365.384 3278.32 364.096 3278.52 362.807 3278.83 361.392 3279.24 359.85 3279.67 358.284 3280.07 356.785 3280.45 355.352 3280.82 353.918 3281.15 352.593 3281.42 351.377 3281.7 350.16 3281.92 349.077 3282.07 348.125 3282.23 347.173 3282.31 346.385 3282.31 345.758 3282.31 344.265 3282.03 343.169 3281.46 342.47 3280.89 341.772 3279.98 341.422 3278.73 341.422 3278.01 341.422 3277.23 341.609 3276.4 341.982 3275.57 342.356 3274.73 342.874 3273.89 343.536 3273.05 344.199 3272.22 344.981 3271.41 345.885 3270.61 346.788 3269.87 347.752 3269.19 348.775 3268.52 349.799 3267.92 350.871 3267.4 351.991 3266.89 353.111 3266.51 354.225 3266.27 355.333L3262.22 373.472 3255.14 373.472 3260.56 349.914C3260.87 348.661 3261.1 347.541 3261.24 346.553 3261.39 345.566 3261.46 344.759 3261.46 344.132 3261.46 342.374 3260.75 341.495 3259.33 341.495 3258.89 341.495 3258.45 341.585 3258.01 341.766 3257.56 341.946 3257.09 342.217 3256.6 342.579 3256.11 342.94 3255.57 343.398 3254.99 343.952 3254.41 344.506 3253.76 345.156 3253.04 345.903L3250.55 343.554C3251.75 342.326 3252.85 341.272 3253.85 340.393 3254.85 339.513 3255.8 338.791 3256.71 338.225 3257.61 337.659 3258.51 337.243 3259.4 336.978 3260.29 336.713 3261.23 336.581 3262.22 336.581Z" fill-rule="evenodd"/><text fill="#000000" fill-opacity="0" font-family="Arial,Arial_MSFontService,sans-serif" font-size="37.542" x="3250.55" y="369.43">𝑛</text><path d="M3372.72 398.703 3433.47 398.703 3433.47 405.262 3372.72 405.262ZM3372.72 378.237 3433.47 378.237 3433.47 384.796 3372.72 384.796ZM3372.72 357.77 3433.47 357.77 3433.47 364.329 3372.72 364.329Z" fill-rule="evenodd"/><text fill="#000000" fill-opacity="0" font-family="Arial,Arial_MSFontService,sans-serif" font-size="47.4917" x="3372.72" y="399.326">≡</text><path d="M3483.76 363.244 3492.05 363.244 3485.98 390.122C3485.49 392.292 3485.1 394.174 3484.82 395.769 3484.54 397.363 3484.4 398.818 3484.4 400.133 3484.4 401.843 3484.85 403.141 3485.76 404.029 3486.66 404.917 3487.95 405.361 3489.63 405.361 3491.57 405.361 3493.68 404.325 3495.97 402.254 3498.25 400.182 3500.3 397.585 3502.11 394.462 3503.92 391.338 3505.08 388.577 3505.61 386.177L3510.49 363.244 3519.02 363.244 3512.02 394.462C3511.26 397.848 3510.89 400.281 3510.89 401.761 3510.89 403.076 3511.1 404.029 3511.53 404.621 3511.95 405.213 3512.63 405.509 3513.55 405.509 3514.3 405.509 3515.22 405.213 3516.29 404.621 3517.35 404.029 3518.55 402.993 3519.86 401.514L3522.62 404.276C3520.78 406.084 3519.15 407.481 3517.72 408.468 3516.29 409.454 3514.98 410.153 3513.8 410.564 3512.61 410.975 3511.33 411.18 3509.95 411.18 3507.81 411.18 3506.15 410.547 3504.97 409.281 3503.78 408.016 3503.19 406.248 3503.19 403.98 3503.19 402.139 3503.62 400.166 3504.47 398.062L3503.93 397.766C3500.87 402.303 3498.05 405.599 3495.45 407.654 3492.85 409.709 3490.17 410.736 3487.41 410.736 3486.03 410.736 3484.77 410.514 3483.64 410.07 3482.5 409.627 3481.33 408.78 3480.11 407.531 3479.72 409.503 3479.36 412.158 3479.05 415.495 3478.74 418.832 3478.58 421.832 3478.58 424.495 3478.58 425.482 3478.62 426.271 3478.68 426.863L3477.99 430.167 3471.58 430.167 3469.16 427.208C3470.64 421.75 3472.02 416.145 3473.31 410.391Z" fill-rule="evenodd"/><text fill="#000000" fill-opacity="0" font-family="Arial,Arial_MSFontService,sans-serif" font-size="66.9224" x="3469.16" y="421.802">𝜇</text><path d="M3535.23 384.106 3547.7 384.106C3548.83 387.117 3549.99 390.146 3551.19 393.193 3552.38 396.24 3553.55 399.282 3554.71 402.317 3555.87 405.352 3556.98 408.345 3558.05 411.296 3559.12 414.247 3560.11 417.131 3561 419.95L3561.47 419.95C3561.73 418.408 3562.07 416.583 3562.48 414.475 3562.89 412.368 3563.37 410.182 3563.92 407.917 3564.33 406.207 3564.75 404.449 3565.17 402.642 3565.59 400.835 3565.98 399.101 3566.34 397.439 3566.71 395.777 3567 394.241 3567.23 392.832 3567.46 391.423 3567.57 390.26 3567.57 389.345 3567.57 388.285 3567.3 387.532 3566.76 387.087 3566.22 386.641 3565.21 386.406 3563.74 386.382L3564.25 384.106 3577.65 384.106 3577.18 386.274C3576.37 386.515 3575.72 386.725 3575.23 386.906 3574.75 387.087 3574.34 387.436 3574.01 387.954 3573.67 388.472 3573.35 389.225 3573.05 390.212 3572.75 391.2 3572.39 392.621 3571.98 394.476L3563.82 430.97 3558.36 430.97C3557.08 427.694 3555.78 424.394 3554.44 421.07 3553.1 417.745 3551.79 414.421 3550.5 411.097 3549.21 407.773 3547.98 404.473 3546.8 401.197 3545.62 397.921 3544.54 394.693 3543.58 391.513L3543.11 391.513C3542.99 392.26 3542.85 393.127 3542.68 394.115 3542.51 395.102 3542.32 396.168 3542.12 397.312 3541.91 398.457 3541.7 399.631 3541.47 400.835 3541.24 402.04 3541 403.244 3540.76 404.449 3540.55 405.364 3540.29 406.43 3539.99 407.646 3539.69 408.863 3539.38 410.164 3539.06 411.549 3538.75 412.934 3538.43 414.337 3538.11 415.758 3537.78 417.179 3537.49 418.534 3537.22 419.823 3536.96 421.112 3536.75 422.286 3536.59 423.346 3536.43 424.406 3536.35 425.237 3536.35 425.839 3536.35 426.851 3536.64 427.568 3537.22 427.989 3537.8 428.411 3538.79 428.67 3540.18 428.766L3539.79 430.97 3526.31 430.97 3526.78 428.766C3527.5 428.646 3528.1 428.501 3528.59 428.332 3529.07 428.164 3529.49 427.821 3529.85 427.303 3530.21 426.785 3530.56 426.008 3530.88 424.972 3531.21 423.936 3531.57 422.479 3531.98 420.6L3537.91 394.259C3538.13 393.296 3538.29 392.398 3538.4 391.567 3538.5 390.736 3538.56 389.995 3538.56 389.345 3538.56 388.285 3538.28 387.532 3537.73 387.087 3537.17 386.641 3536.16 386.406 3534.69 386.382Z" fill-rule="evenodd"/><text fill="#000000" fill-opacity="0" font-family="Arial,Arial_MSFontService,sans-serif" font-size="46.8643" x="3526.31" y="425.112">𝑁</text><path d="M3620.83 388.494 3681.59 388.494 3681.59 395.054 3620.83 395.054ZM3620.83 368.028 3681.59 368.028 3681.59 374.587 3620.83 374.587Z" fill-rule="evenodd"/><text fill="#000000" fill-opacity="0" font-family="Arial,Arial_MSFontService,sans-serif" font-size="27.0254" x="3620.83" y="391.675">=</text><path d="M3778.29 272.918C3780.03 272.918 3781.62 273.074 3783.05 273.386 3784.48 273.699 3785.68 274.085 3786.67 274.545L3785.73 284.852 3780.26 284.852C3780.16 283.044 3779.77 281.671 3779.08 280.734 3778.39 279.797 3777.12 279.329 3775.28 279.329 3770.68 279.329 3767.32 284.507 3765.22 294.864 3763.11 305.22 3761.22 333.807 3759.55 380.625 3757.87 422.741 3754.61 451.525 3749.76 466.978 3744.91 482.43 3738.36 490.156 3730.11 490.156 3728.43 490.156 3726.88 490.025 3725.47 489.762 3724.06 489.499 3722.81 489.072 3721.72 488.48L3722.66 477.679 3727.64 477.679C3728.13 479.849 3728.77 481.37 3729.56 482.241 3730.35 483.112 3731.55 483.548 3733.16 483.548 3736.12 483.548 3738.97 478.436 3741.69 468.211 3744.42 457.986 3746.56 431.24 3748.11 387.973 3750.01 341.024 3753.08 310.11 3757.3 295.233 3761.53 280.356 3768.52 272.918 3778.29 272.918Z" fill-rule="evenodd"/><text fill="#000000" fill-opacity="0" font-family="Arial,Arial_MSFontService,sans-serif" font-size="217.239" x="3721.72" y="463.002">න</text><path d="M3893.75 363.244 3928.82 363.244 3929.75 365.71 3906.23 392.736C3901.66 397.963 3897.7 402.402 3894.34 406.051L3894.64 406.396 3905.78 406.396C3907.76 406.396 3909.27 406.289 3910.32 406.076 3911.37 405.862 3912.29 405.459 3913.08 404.867 3913.87 404.276 3914.69 403.38 3915.52 402.18 3916.36 400.98 3917.41 399.097 3918.66 396.533L3923.05 396.533 3920.04 410.391 3884.33 410.391 3883.39 407.974 3910.37 376.905C3914.18 372.532 3916.98 369.425 3918.75 367.584L3918.46 367.239 3906.92 367.239C3905.21 367.239 3903.96 367.354 3903.17 367.584 3902.38 367.814 3901.59 368.217 3900.8 368.793 3900.01 369.368 3899.17 370.223 3898.26 371.357 3897.36 372.491 3896.35 374.111 3895.23 376.215L3890.84 376.215Z" fill-rule="evenodd"/><text fill="#000000" fill-opacity="0" font-family="Arial,Arial_MSFontService,sans-serif" font-size="47.1465" x="3883.39" y="404.498">𝑧</text><path d="M3947.02 326.608 3959.49 326.608C3960.62 329.619 3961.78 332.648 3962.98 335.695 3964.17 338.743 3965.34 341.784 3966.5 344.819 3967.66 347.854 3968.77 350.847 3969.84 353.798 3970.91 356.749 3971.9 359.633 3972.79 362.452L3973.26 362.452C3973.52 360.91 3973.86 359.085 3974.27 356.978 3974.68 354.87 3975.16 352.684 3975.71 350.419 3976.12 348.709 3976.54 346.951 3976.96 345.144 3977.38 343.337 3977.77 341.603 3978.13 339.941 3978.5 338.279 3978.79 336.743 3979.02 335.334 3979.25 333.925 3979.36 332.763 3979.36 331.847 3979.36 330.787 3979.09 330.035 3978.55 329.589 3978.01 329.143 3977 328.908 3975.53 328.884L3976.04 326.608 3989.44 326.608 3988.97 328.776C3988.16 329.017 3987.5 329.228 3987.02 329.408 3986.54 329.589 3986.13 329.938 3985.79 330.456 3985.46 330.974 3985.14 331.727 3984.84 332.714 3984.54 333.702 3984.18 335.123 3983.77 336.978L3975.61 373.472 3970.15 373.472C3968.87 370.196 3967.57 366.896 3966.23 363.572 3964.89 360.248 3963.58 356.923 3962.29 353.599 3961 350.275 3959.77 346.975 3958.59 343.699 3957.41 340.423 3956.33 337.195 3955.37 334.015L3954.9 334.015C3954.78 334.762 3954.64 335.629 3954.47 336.617 3954.3 337.604 3954.11 338.67 3953.91 339.814 3953.7 340.959 3953.49 342.133 3953.26 343.337 3953.03 344.542 3952.79 345.746 3952.55 346.951 3952.34 347.866 3952.08 348.932 3951.78 350.148 3951.47 351.365 3951.17 352.666 3950.85 354.051 3950.54 355.436 3950.22 356.839 3949.9 358.26 3949.57 359.681 3949.28 361.036 3949.01 362.325 3948.75 363.614 3948.54 364.788 3948.38 365.848 3948.22 366.908 3948.14 367.739 3948.14 368.341 3948.14 369.353 3948.43 370.07 3949.01 370.491 3949.59 370.913 3950.58 371.172 3951.97 371.268L3951.58 373.472 3938.1 373.472 3938.57 371.268C3939.29 371.148 3939.89 371.003 3940.38 370.834 3940.86 370.666 3941.28 370.323 3941.64 369.805 3942 369.287 3942.34 368.51 3942.67 367.474 3943 366.438 3943.36 364.981 3943.77 363.102L3949.7 336.761C3949.91 335.798 3950.08 334.9 3950.19 334.069 3950.29 333.238 3950.35 332.498 3950.35 331.847 3950.35 330.787 3950.07 330.035 3949.52 329.589 3948.96 329.143 3947.95 328.908 3946.48 328.884Z" fill-rule="evenodd"/><text fill="#000000" fill-opacity="0" font-family="Arial,Arial_MSFontService,sans-serif" font-size="46.8643" x="3938.1" y="367.614">𝑁</text><path d="M3846.51 264.205C3843.88 264.205 3841.65 265.283 3839.81 267.438 3837.96 269.594 3836.1 272.66 3834.22 276.634 3835.93 279.79 3837.68 282.151 3839.46 283.716 3841.25 285.282 3843.62 286.065 3846.58 286.065 3849.21 286.065 3851.37 285.095 3853.07 283.156 3854.77 281.217 3855.61 278.549 3855.61 275.153 3855.61 271.877 3854.82 269.233 3853.23 267.222 3851.64 265.21 3849.4 264.205 3846.51 264.205ZM3817.86 263.084C3815.16 263.084 3812.97 264.193 3811.28 266.409 3809.59 268.625 3808.75 271.491 3808.75 275.008 3808.75 277.899 3809.5 280.284 3811.01 282.163 3812.51 284.042 3814.7 284.981 3817.57 284.981 3820.29 284.981 3822.75 283.68 3824.96 281.079 3827.16 278.477 3828.73 275.767 3829.67 272.949 3828.08 269.817 3826.33 267.39 3824.43 265.668 3822.53 263.946 3820.34 263.084 3817.86 263.084ZM3817.93 259.291C3821.04 259.291 3823.69 260.2 3825.88 262.019 3828.07 263.837 3830 266.288 3831.66 269.372 3832.89 266.674 3834.75 264.331 3837.26 262.344 3839.76 260.356 3842.73 259.363 3846.15 259.363 3850.34 259.363 3853.75 260.754 3856.39 263.536 3859.03 266.318 3860.35 270.082 3860.35 274.828 3860.35 278.995 3859.08 282.542 3856.55 285.469 3854.02 288.396 3850.76 289.859 3846.76 289.859 3843.29 289.859 3840.41 288.938 3838.13 287.095 3835.84 285.252 3833.87 282.933 3832.24 280.139 3831.08 282.596 3829.29 284.83 3826.87 286.842 3824.45 288.853 3821.47 289.859 3817.93 289.859 3813.42 289.859 3809.99 288.432 3807.63 285.577 3805.27 282.723 3804.09 279.248 3804.09 275.153 3804.09 270.672 3805.27 266.909 3807.63 263.861 3809.99 260.814 3813.42 259.291 3817.93 259.291Z" fill-rule="evenodd"/><text fill="#000000" fill-opacity="0" font-family="Arial,Arial_MSFontService,sans-serif" font-size="30.5684" x="3804.09" y="286.038">∞</text><path d="M3766.81 481.873 3808.44 481.873 3808.44 487.401 3766.81 487.401Z" fill-rule="evenodd"/><text fill="#000000" fill-opacity="0" font-family="Arial,Arial_MSFontService,sans-serif" font-size="5.52832" x="3766.81" y="486.71">−</text><path d="M3862.62 474.213C3859.99 474.213 3857.76 475.291 3855.92 477.447 3854.07 479.603 3852.21 482.668 3850.33 486.643 3852.04 489.798 3853.79 492.159 3855.57 493.725 3857.36 495.29 3859.73 496.073 3862.69 496.073 3865.32 496.073 3867.48 495.104 3869.18 493.165 3870.88 491.225 3871.73 488.558 3871.73 485.161 3871.73 481.885 3870.93 479.241 3869.34 477.23 3867.75 475.219 3865.51 474.213 3862.62 474.213ZM3833.97 473.093C3831.27 473.093 3829.08 474.201 3827.39 476.417 3825.7 478.633 3824.86 481.5 3824.86 485.017 3824.86 487.907 3825.61 490.292 3827.12 492.171 3828.62 494.05 3830.81 494.989 3833.68 494.989 3836.4 494.989 3838.86 493.689 3841.07 491.087 3843.27 488.485 3844.84 485.775 3845.78 482.957 3844.19 479.826 3842.45 477.399 3840.54 475.676 3838.64 473.954 3836.45 473.093 3833.97 473.093ZM3834.04 469.299C3837.15 469.299 3839.8 470.208 3841.99 472.027 3844.18 473.846 3846.11 476.297 3847.77 479.38 3849 476.682 3850.86 474.339 3853.37 472.352 3855.87 470.365 3858.84 469.371 3862.26 469.371 3866.45 469.371 3869.86 470.762 3872.5 473.544 3875.14 476.327 3876.46 480.091 3876.46 484.836 3876.46 489.003 3875.19 492.55 3872.66 495.477 3870.14 498.404 3866.87 499.867 3862.87 499.867 3859.4 499.867 3856.53 498.946 3854.24 497.103 3851.95 495.26 3849.99 492.942 3848.35 490.147 3847.19 492.605 3845.4 494.839 3842.98 496.85 3840.56 498.862 3837.58 499.867 3834.04 499.867 3829.53 499.867 3826.1 498.44 3823.74 495.585 3821.38 492.731 3820.2 489.256 3820.2 485.161 3820.2 480.681 3821.38 476.917 3823.74 473.87 3826.1 470.822 3829.53 469.299 3834.04 469.299Z" fill-rule="evenodd"/><text fill="#000000" fill-opacity="0" font-family="Arial,Arial_MSFontService,sans-serif" font-size="30.5684" x="3820.2" y="496.046">∞</text><path d="M4050.47 347.414C4048.43 347.414 4046.29 347.463 4044.05 347.562L4037.35 377.448 4042.48 377.448C4046.45 377.448 4049.67 377.037 4052.12 376.215 4054.57 375.393 4056.57 374.119 4058.13 372.393 4059.7 370.667 4060.9 368.62 4061.76 366.253 4062.61 363.886 4063.04 361.288 4063.04 358.461 4063.04 354.647 4062.07 351.852 4060.13 350.077 4058.19 348.302 4054.97 347.414 4050.47 347.414ZM4029.8 343.074 4051.55 343.074C4055.46 343.074 4058.68 343.378 4061.19 343.986 4063.71 344.595 4065.78 345.532 4067.41 346.797 4069.03 348.063 4070.25 349.666 4071.06 351.606 4071.86 353.546 4072.26 355.798 4072.26 358.362 4072.26 363.294 4071.1 367.568 4068.76 371.184 4066.43 374.801 4063.26 377.464 4059.27 379.174 4055.27 380.883 4050.48 381.738 4044.89 381.738 4041.54 381.738 4038.74 381.672 4036.51 381.541L4033.35 396.04C4033.06 397.388 4032.85 398.423 4032.74 399.147 4032.62 399.87 4032.52 400.651 4032.44 401.489 4032.36 402.328 4032.32 403.076 4032.32 403.733 4032.32 404.752 4032.48 405.55 4032.81 406.125 4033.14 406.7 4033.63 407.12 4034.29 407.383 4034.95 407.646 4036.08 407.843 4037.69 407.974L4037.15 410.391 4016.88 410.391 4017.42 407.974C4018.67 407.777 4019.61 407.457 4020.23 407.013 4020.86 406.569 4021.39 405.952 4021.81 405.163 4022.24 404.374 4022.64 403.413 4023 402.278 4023.36 401.144 4023.9 398.95 4024.62 395.695L4033.01 357.721C4033.73 354.433 4034.09 351.836 4034.09 349.929 4034.09 348.318 4033.71 347.2 4032.96 346.576 4032.2 345.951 4030.97 345.589 4029.26 345.491Z" fill-rule="evenodd"/><text fill="#000000" fill-opacity="0" font-family="Arial,Arial_MSFontService,sans-serif" font-size="67.3169" x="4016.88" y="401.976">𝑃</text><path d="M4174.44 334.752C4184.04 337.283 4191.41 342.749 4196.56 351.149 4201.7 359.55 4204.27 369.684 4204.27 381.553 4204.27 393.455 4201.71 403.589 4196.58 411.956 4191.45 420.324 4184.07 425.773 4174.44 428.305L4173.25 424.508C4180.85 421.976 4186.5 416.979 4190.19 409.515 4193.89 402.052 4195.74 392.567 4195.74 381.06 4195.74 369.947 4193.9 360.717 4190.22 353.369 4186.54 346.02 4180.83 341.081 4173.11 338.549ZM4117.68 334.752 4119.02 338.549C4111.32 341.081 4105.63 346.02 4101.93 353.369 4098.23 360.717 4096.38 369.947 4096.38 381.06 4096.38 392.567 4098.23 402.052 4101.93 409.515 4105.63 416.979 4111.27 421.976 4118.87 424.508L4117.68 428.305C4108.05 425.773 4100.67 420.324 4095.54 411.956 4090.41 403.589 4087.85 393.455 4087.85 381.553 4087.85 369.684 4090.42 359.55 4095.57 351.149 4100.71 342.749 4108.08 337.283 4117.68 334.752Z" fill-rule="evenodd"/><path d="M4132.41 363.244 4167.47 363.244 4168.41 365.71 4144.88 392.736C4140.31 397.963 4136.35 402.402 4133 406.051L4133.29 406.396 4144.44 406.396C4146.41 406.396 4147.92 406.289 4148.98 406.076 4150.03 405.862 4150.95 405.459 4151.74 404.867 4152.53 404.276 4153.34 403.38 4154.18 402.18 4155.02 400.98 4156.06 399.097 4157.31 396.533L4161.7 396.533 4158.69 410.391 4122.99 410.391 4122.05 407.974 4149.02 376.905C4152.84 372.532 4155.63 369.425 4157.41 367.584L4157.11 367.239 4145.57 367.239C4143.86 367.239 4142.61 367.354 4141.82 367.584 4141.04 367.814 4140.25 368.217 4139.46 368.793 4138.67 369.368 4137.82 370.223 4136.92 371.357 4136.01 372.491 4135 374.111 4133.88 376.215L4129.5 376.215Z" fill-rule="evenodd"/><text fill="#000000" fill-opacity="0" font-family="Arial,Arial_MSFontService,sans-serif" font-size="47.1465" x="4122.05" y="404.498">𝑧</text><path d="M4262.79 366.351C4258.58 366.351 4255.38 368.036 4253.18 371.406 4250.97 374.776 4249.87 379.617 4249.87 385.93 4249.87 392.242 4250.78 397.043 4252.58 400.33 4254.39 403.618 4257.14 405.262 4260.82 405.262 4262.27 405.262 4263.47 405.139 4264.42 404.892 4265.37 404.646 4266.31 404.251 4267.23 403.709 4268.15 403.166 4269.09 402.418 4270.04 401.465 4271 400.511 4271.69 399.64 4272.14 398.851 4272.58 398.062 4272.92 397.158 4273.15 396.138 4273.38 395.119 4273.49 393.804 4273.49 392.193L4273.49 381.146C4273.49 378.582 4273.38 376.527 4273.15 374.982 4272.92 373.437 4272.53 372.138 4271.99 371.086 4271.45 370.034 4270.72 369.146 4269.8 368.423 4268.88 367.699 4267.86 367.173 4266.76 366.845 4265.66 366.516 4264.34 366.351 4262.79 366.351ZM4279.07 339.819 4281.98 339.819 4281.98 396.928C4281.98 399.492 4282.03 401.325 4282.12 402.426 4282.22 403.528 4282.44 404.407 4282.77 405.065 4283.09 405.722 4283.61 406.257 4284.32 406.668 4285.03 407.079 4286.27 407.465 4288.04 407.826L4288.04 410.391 4276.4 410.884 4273.45 410.884 4274.04 402.796 4273.3 402.599C4271.23 404.802 4269.43 406.454 4267.9 407.555 4266.37 408.657 4264.74 409.536 4263.01 410.194 4261.29 410.851 4259.44 411.18 4257.47 411.18 4252.07 411.18 4247.92 409.133 4244.99 405.04 4242.06 400.947 4240.6 395.037 4240.6 387.311 4240.6 381.919 4241.55 377.341 4243.46 373.576 4245.37 369.812 4247.94 367.009 4251.18 365.168 4254.42 363.327 4258.06 362.406 4262.1 362.406 4264.27 362.406 4266.25 362.579 4268.02 362.924 4269.8 363.269 4271.62 363.836 4273.49 364.625L4273.49 356.784C4273.49 353.628 4273.47 351.425 4273.42 350.176 4273.37 348.926 4273.24 347.866 4273.03 346.995 4272.81 346.123 4272.52 345.441 4272.14 344.948 4271.76 344.455 4271.25 344.06 4270.61 343.764 4269.97 343.469 4268.81 343.173 4267.13 342.877L4267.13 340.312Z" fill-rule="evenodd"/><text fill="#000000" fill-opacity="0" font-family="Arial,Arial_MSFontService,sans-serif" font-size="71.3608" x="4240.6" y="402.26">d</text><path d="M4303.16 363.244 4338.22 363.244 4339.16 365.71 4315.63 392.736C4311.06 397.963 4307.1 402.402 4303.75 406.051L4304.04 406.396 4315.19 406.396C4317.16 406.396 4318.68 406.289 4319.73 406.076 4320.78 405.862 4321.7 405.459 4322.49 404.867 4323.28 404.276 4324.09 403.38 4324.93 402.18 4325.77 400.98 4326.81 399.097 4328.06 396.533L4332.45 396.533 4329.44 410.391 4293.74 410.391 4292.8 407.974 4319.78 376.905C4323.59 372.532 4326.39 369.425 4328.16 367.584L4327.86 367.239 4316.32 367.239C4314.62 367.239 4313.37 367.354 4312.58 367.584 4311.79 367.814 4311 368.217 4310.21 368.793 4309.42 369.368 4308.57 370.223 4307.67 371.357 4306.77 372.491 4305.75 374.111 4304.64 376.215L4300.25 376.215Z" fill-rule="evenodd"/><text fill="#000000" fill-opacity="0" font-family="Arial,Arial_MSFontService,sans-serif" font-size="47.1465" x="4292.8" y="404.498">𝑧</text></g></svg>