<svg width="2403" height="390" xmlns="http://www.w3.org/2000/svg" xmlns:xlink="http://www.w3.org/1999/xlink" xml:space="preserve" overflow="hidden"><g transform="translate(-1781 -1676)"><path d="M1844.18 1843.85 1838.01 1872.15C1841.14 1872.84 1843.91 1873.19 1846.35 1873.19 1850.36 1873.19 1853.65 1872.46 1856.21 1870.99 1858.77 1869.53 1860.63 1867.56 1861.78 1865.08 1862.93 1862.59 1863.51 1859.74 1863.51 1856.52 1863.51 1852.21 1862.1 1849.02 1859.29 1846.95 1856.48 1844.88 1851.97 1843.85 1845.76 1843.85ZM1841.42 1838.37 1845.9 1838.37C1852.84 1838.37 1858.18 1839.05 1861.93 1840.42 1865.68 1841.78 1868.39 1843.68 1870.07 1846.11 1871.74 1848.55 1872.58 1851.49 1872.58 1854.94 1872.58 1859.45 1871.24 1863.54 1868.56 1867.22 1865.88 1870.9 1862.22 1873.71 1857.57 1875.65 1852.91 1877.59 1847.3 1878.56 1840.72 1878.56 1839.41 1878.56 1838.08 1878.51 1836.73 1878.42L1834.56 1888.72C1834.03 1891.19 1833.38 1893.34 1832.61 1895.18 1831.84 1897.02 1830.88 1898.66 1829.73 1900.09 1828.58 1901.52 1827.06 1902.79 1825.19 1903.91 1823.32 1905.03 1821.6 1905.79 1820.04 1906.18 1818.47 1906.58 1816.81 1906.77 1815.03 1906.77 1812.53 1906.77 1810.3 1906.07 1808.32 1904.68 1806.35 1903.28 1804.59 1901.15 1803.05 1898.29L1809.75 1894.44C1811.14 1897.17 1812.47 1899.19 1813.75 1900.49 1815.03 1901.78 1816.44 1902.43 1817.99 1902.43 1818.78 1902.43 1819.57 1902.28 1820.36 1901.96 1821.15 1901.65 1821.86 1901.04 1822.5 1900.12 1823.14 1899.19 1823.7 1897.9 1824.18 1896.22 1824.66 1894.54 1825.29 1891.83 1826.08 1888.08L1832.29 1858.05C1832.92 1855.09 1833.7 1852.43 1834.63 1850.06 1835.57 1847.69 1836.55 1845.82 1837.57 1844.44L1837.47 1843.94C1832.54 1843.94 1828.6 1844.22 1825.66 1844.78 1822.72 1845.34 1820.53 1846.25 1819.1 1847.52 1817.67 1848.79 1816.95 1850.52 1816.95 1852.72 1816.95 1854.5 1817.53 1856.59 1818.68 1858.99L1811.09 1861.94C1810.36 1860.76 1809.84 1859.65 1809.53 1858.62 1809.22 1857.58 1809.06 1856.44 1809.06 1855.19 1809.06 1853.77 1809.49 1852.34 1810.35 1850.9 1811.4 1849.12 1813.12 1847.3 1815.52 1845.42 1817.92 1843.55 1820.37 1842.08 1822.87 1841.01 1825.37 1839.94 1828.21 1839.21 1831.4 1838.81 1833.77 1838.52 1837.11 1838.37 1841.42 1838.37Z" fill-rule="evenodd"/><text fill="#000000" fill-opacity="0" font-family="Arial,Arial_MSFontService,sans-serif" font-size="68.4019" x="1803.05" y="1898.22">𝒫</text><path d="M2060.95 1830.34C2070.55 1832.88 2077.92 1838.34 2083.07 1846.74 2088.21 1855.14 2090.78 1865.28 2090.78 1877.15 2090.78 1889.05 2088.22 1899.18 2083.09 1907.55 2077.96 1915.92 2070.58 1921.37 2060.95 1923.9L2059.76 1920.1C2067.36 1917.57 2073.01 1912.57 2076.71 1905.11 2080.4 1897.65 2082.25 1888.16 2082.25 1876.65 2082.25 1865.54 2080.41 1856.31 2076.73 1848.96 2073.05 1841.61 2067.34 1836.67 2059.62 1834.14ZM1918.3 1830.34 1919.63 1834.14C1911.94 1836.67 1906.24 1841.61 1902.55 1848.96 1898.85 1856.31 1897 1865.54 1897 1876.65 1897 1888.16 1898.85 1897.65 1902.55 1905.11 1906.24 1912.57 1911.89 1917.57 1919.49 1920.1L1918.3 1923.9C1908.67 1921.37 1901.29 1915.92 1896.16 1907.55 1891.03 1899.18 1888.47 1889.05 1888.47 1877.15 1888.47 1865.28 1891.04 1855.14 1896.18 1846.74 1901.33 1838.34 1908.7 1832.88 1918.3 1830.34Z" fill-rule="evenodd"/><path d="M1940.91 1858C1941.93 1858 1942.83 1858.11 1943.6 1858.34 1944.38 1858.57 1945.06 1858.93 1945.65 1859.4 1946.24 1859.88 1946.77 1860.5 1947.23 1861.25 1947.69 1862.01 1948.13 1863.04 1948.56 1864.34 1948.99 1865.63 1949.39 1867.25 1949.77 1869.17 1950.15 1871.09 1950.48 1873.09 1950.78 1875.16L1951.27 1875.16C1954.43 1870.72 1956.82 1867.48 1958.45 1865.42 1960.07 1863.37 1961.45 1861.84 1962.56 1860.83 1963.68 1859.83 1964.76 1859.13 1965.79 1858.71 1966.83 1858.3 1968.2 1858.1 1969.91 1858.1 1971.46 1858.1 1972.72 1858.29 1973.71 1858.69L1971.74 1867.62 1968.29 1867.62C1968.09 1866.23 1967.51 1865.54 1966.56 1865.54 1966.26 1865.54 1965.95 1865.59 1965.62 1865.69 1965.29 1865.79 1964.89 1866 1964.41 1866.33 1963.94 1866.66 1963.24 1867.3 1962.32 1868.26 1961.4 1869.21 1960.36 1870.38 1959.21 1871.76 1958.06 1873.14 1956.88 1874.59 1955.66 1876.1L1952.31 1880.29C1952.9 1883.45 1953.46 1886.18 1953.98 1888.48 1954.51 1890.78 1954.98 1892.69 1955.39 1894.22 1955.8 1895.75 1956.16 1896.96 1956.47 1897.85 1956.79 1898.73 1957.12 1899.4 1957.48 1899.84 1957.85 1900.29 1958.22 1900.6 1958.59 1900.78 1958.97 1900.96 1959.41 1901.05 1959.9 1901.05 1960.79 1901.05 1961.65 1900.71 1962.49 1900.02 1963.33 1899.33 1964.54 1897.76 1966.12 1895.33L1969.32 1897.45C1967.02 1900.87 1964.94 1903.28 1963.08 1904.68 1961.22 1906.07 1959.01 1906.77 1956.45 1906.77 1955.04 1906.77 1953.84 1906.52 1952.85 1906.01 1951.86 1905.5 1951.01 1904.69 1950.28 1903.57 1949.56 1902.45 1948.92 1900.71 1948.36 1898.34 1947.34 1894.13 1946.72 1890.91 1946.49 1888.67L1945.99 1888.67C1942.51 1893.57 1939.92 1897.09 1938.23 1899.23 1936.53 1901.36 1935.14 1902.94 1934.04 1903.96 1932.93 1904.98 1931.87 1905.7 1930.83 1906.11 1929.79 1906.52 1928.42 1906.72 1926.71 1906.72 1925.17 1906.72 1923.9 1906.53 1922.91 1906.13L1924.89 1897.21 1928.34 1897.21C1928.54 1898.59 1929.11 1899.28 1930.07 1899.28 1930.53 1899.28 1931.01 1899.15 1931.52 1898.91 1932.03 1898.66 1932.76 1898.07 1933.71 1897.13 1934.67 1896.19 1935.98 1894.72 1937.66 1892.72 1939.34 1890.71 1941.77 1887.7 1944.96 1883.69 1944.47 1881.1 1943.96 1878.6 1943.43 1876.2 1942.9 1873.8 1942.36 1871.56 1941.8 1869.49 1941.24 1867.42 1940.78 1866.06 1940.42 1865.42 1940.06 1864.78 1939.67 1864.34 1939.26 1864.09 1938.85 1863.84 1938.33 1863.72 1937.71 1863.72 1937.02 1863.72 1936.39 1863.88 1935.84 1864.19 1935.28 1864.5 1934.67 1865.04 1934.01 1865.82 1933.35 1866.59 1932.48 1867.8 1931.4 1869.44L1928.19 1867.32C1930.26 1864.2 1932.25 1861.86 1934.16 1860.32 1936.07 1858.77 1938.32 1858 1940.91 1858Z" fill-rule="evenodd"/><text fill="#000000" fill-opacity="0" font-family="Arial,Arial_MSFontService,sans-serif" font-size="48.7739" x="1922.91" y="1900.68">𝑥</text><path d="M1984.95 1894.54 1993.58 1894.54C1994.04 1896.84 1994.27 1899.11 1994.27 1901.35 1994.27 1903.65 1993.87 1905.75 1993.08 1907.66 1992.29 1909.57 1991.04 1911.47 1989.31 1913.36 1987.58 1915.25 1985.21 1917.33 1982.18 1919.6L1979.52 1916.59C1981.2 1915.01 1982.41 1913.59 1983.17 1912.32 1983.93 1911.06 1984.47 1909.62 1984.8 1908.01 1985.13 1906.39 1985.29 1904.37 1985.29 1901.94 1985.29 1899.44 1985.18 1896.98 1984.95 1894.54Z" fill-rule="evenodd"/><text fill="#000000" fill-opacity="0" font-family="Arial,Arial_MSFontService,sans-serif" font-size="25.0527" x="1979.52" y="1916.46">,</text><path d="M2035.04 1846.66 2041.85 1846.66 2039.14 1858.84 2054.13 1858.84 2053.04 1863.82 2038.05 1863.82 2033.66 1882.95C2032.81 1886.67 2032.26 1889.34 2032.03 1890.97 2031.8 1892.59 2031.69 1893.9 2031.69 1894.89 2031.69 1898.96 2033.38 1901 2036.77 1901 2038.22 1901 2039.75 1900.45 2041.38 1899.35 2043.01 1898.25 2044.94 1896.37 2047.17 1893.7L2050.03 1896.66C2047.17 1900.12 2044.42 1902.66 2041.77 1904.31 2039.13 1905.95 2036.36 1906.77 2033.46 1906.77 2026.59 1906.77 2023.16 1903.3 2023.16 1896.37 2023.16 1894.16 2023.44 1891.85 2024 1889.41L2029.81 1863.82 2021.53 1863.82 2022.27 1860.42C2024.21 1860.38 2025.68 1860.23 2026.68 1859.97 2027.69 1859.71 2028.52 1859.35 2029.2 1858.89 2029.87 1858.43 2030.49 1857.77 2031.05 1856.91 2031.61 1856.06 2032.15 1854.97 2032.68 1853.63 2033.2 1852.3 2033.99 1849.98 2035.04 1846.66Z" fill-rule="evenodd"/><text fill="#000000" fill-opacity="0" font-family="Arial,Arial_MSFontService,sans-serif" font-size="60.1167" x="2021.53" y="1899.26">𝑡</text><path d="M2134.94 1884.09 2195.7 1884.09 2195.7 1890.65 2134.94 1890.65ZM2134.94 1863.62 2195.7 1863.62 2195.7 1870.18 2134.94 1870.18Z" fill-rule="evenodd"/><text fill="#000000" fill-opacity="0" font-family="Arial,Arial_MSFontService,sans-serif" font-size="27.0254" x="2134.94" y="1887.27">=</text><path d="M2353.56 1761.57 2356.27 1761.57C2356.07 1764.72 2355.97 1769.09 2355.97 1774.68L2355.97 1816.8C2355.97 1818.71 2356.08 1820.15 2356.29 1821.11 2356.51 1822.08 2356.88 1822.87 2357.43 1823.48 2357.97 1824.09 2358.75 1824.57 2359.77 1824.91 2360.79 1825.26 2362.07 1825.52 2363.62 1825.7 2365.16 1825.88 2367.2 1826.01 2369.73 1826.07L2369.73 1829.67 2333.29 1829.67 2333.29 1826.07C2336.94 1825.91 2339.54 1825.68 2341.1 1825.41 2342.66 1825.13 2343.86 1824.71 2344.68 1824.15 2345.5 1823.59 2346.1 1822.8 2346.48 1821.78 2346.86 1820.76 2347.05 1819.1 2347.05 1816.8L2347.05 1776.8C2347.05 1775.49 2346.82 1774.53 2346.36 1773.92 2345.9 1773.31 2345.22 1773.01 2344.33 1773.01 2343.28 1773.01 2341.79 1773.55 2339.85 1774.63 2337.91 1775.72 2335.51 1777.22 2332.65 1779.12L2330.48 1775.32Z" fill-rule="evenodd"/><text fill="#000000" fill-opacity="0" font-family="Arial,Arial_MSFontService,sans-serif" font-size="68.106" x="2330.48" y="1821.16">1</text><path d="M2290.32 1899.67 2302.9 1899.67 2302.9 1899.99 2468.18 1899.99 2468.18 1906.99 2297.18 1906.99 2297.18 1906.23 2293.97 1906.23 2267.44 1996.87 2262.66 1996.87 2242.24 1952.98 2233.9 1956.68 2232.38 1952.98 2248.55 1945.58 2265.96 1983.85Z" fill-rule="evenodd"/><path d="M2315.52 1940.97 2356.01 1940.97 2354.58 1947.48 2342.84 1947.48 2337.27 1972.19C2336.55 1975.41 2336.18 1977.84 2336.18 1979.49 2336.18 1980.8 2336.4 1981.76 2336.82 1982.35 2337.25 1982.94 2337.93 1983.23 2338.85 1983.23 2340.82 1983.23 2343.14 1981.66 2345.8 1978.5L2348.66 1981.16C2346.16 1983.89 2343.89 1985.87 2341.83 1987.08 2339.78 1988.3 2337.58 1988.91 2335.25 1988.91 2333.01 1988.91 2331.25 1988.14 2329.97 1986.61 2328.69 1985.08 2328.05 1983.07 2328.05 1980.57 2328.05 1978.37 2328.51 1975.18 2329.43 1971L2330.51 1966.02C2331.07 1963.39 2331.87 1960.22 2332.9 1956.51 2333.94 1952.79 2334.84 1949.93 2335.59 1947.92L2335.35 1947.48 2320.85 1947.48 2314.78 1975.54C2314.29 1977.74 2313.71 1980.12 2313.05 1982.67 2312.4 1985.22 2311.89 1987.03 2311.53 1988.12L2301.07 1988.12 2301.56 1985.7C2305.05 1982.25 2308.27 1974.16 2311.23 1961.44L2314.48 1947.48 2312.91 1947.48C2310.57 1947.48 2308.6 1947.88 2306.99 1948.66 2305.38 1949.45 2303.62 1951.03 2301.71 1953.4L2298.6 1950.78C2300.31 1948.71 2301.71 1947.14 2302.8 1946.05 2303.88 1944.97 2305.02 1944.04 2306.22 1943.29 2307.42 1942.53 2308.77 1941.96 2310.27 1941.56 2311.76 1941.17 2313.51 1940.97 2315.52 1940.97ZM2445.16 1928.79 2451.97 1928.79 2449.25 1940.97 2464.25 1940.97 2463.16 1945.95 2448.17 1945.95 2443.78 1965.09C2442.93 1968.8 2442.38 1971.47 2442.15 1973.1 2441.92 1974.73 2441.81 1976.03 2441.81 1977.02 2441.81 1981.1 2443.5 1983.14 2446.89 1983.14 2448.33 1983.14 2449.87 1982.59 2451.5 1981.48 2453.13 1980.38 2455.06 1978.5 2457.29 1975.84L2460.15 1978.8C2457.29 1982.25 2454.54 1984.8 2451.89 1986.44 2449.25 1988.08 2446.48 1988.91 2443.58 1988.91 2436.71 1988.91 2433.28 1985.44 2433.28 1978.5 2433.28 1976.3 2433.56 1973.98 2434.11 1971.55L2439.93 1945.95 2431.65 1945.95 2432.39 1942.55C2434.33 1942.52 2435.8 1942.37 2436.8 1942.11 2437.8 1941.84 2438.64 1941.48 2439.32 1941.02 2439.99 1940.56 2440.61 1939.9 2441.17 1939.05 2441.73 1938.19 2442.27 1937.1 2442.79 1935.77 2443.32 1934.44 2444.11 1932.11 2445.16 1928.79ZM2391.45 1925.09C2390 1925.09 2388.44 1925.14 2386.76 1925.24L2373.99 1983.58C2374.94 1983.68 2376.77 1983.73 2379.47 1983.73 2384.79 1983.73 2389.31 1982.8 2393.03 1980.94 2396.74 1979.08 2399.95 1976.17 2402.64 1972.21 2405.34 1968.25 2407.33 1964.08 2408.61 1959.69 2409.89 1955.3 2410.53 1950.67 2410.53 1945.8 2410.53 1938.93 2408.93 1933.76 2405.73 1930.29 2402.52 1926.83 2397.76 1925.09 2391.45 1925.09ZM2372.61 1920.8 2391.3 1920.8C2396.27 1920.8 2400.29 1921.18 2403.38 1921.93 2406.47 1922.69 2409.36 1924.06 2412.04 1926.03 2414.72 1928 2416.73 1930.62 2418.08 1933.89 2419.43 1937.17 2420.1 1941.04 2420.1 1945.51 2420.1 1949.95 2419.59 1954.19 2418.57 1958.23 2417.55 1962.28 2416.09 1966 2414.18 1969.4 2412.28 1972.8 2409.99 1975.76 2407.33 1978.28 2404.67 1980.79 2402.09 1982.73 2399.59 1984.07 2397.09 1985.42 2394.29 1986.43 2391.2 1987.11 2388.11 1987.78 2384.51 1988.12 2380.4 1988.12L2359.69 1988.12 2360.23 1985.7C2361.48 1985.5 2362.42 1985.18 2363.04 1984.74 2363.67 1984.3 2364.19 1983.68 2364.62 1982.89 2365.05 1982.1 2365.44 1981.14 2365.8 1980 2366.17 1978.87 2366.71 1976.68 2367.43 1973.42L2375.82 1935.45C2376.54 1932.16 2376.9 1929.51 2376.9 1927.51 2376.9 1925.96 2376.51 1924.89 2375.74 1924.28 2374.97 1923.67 2373.74 1923.32 2372.07 1923.22Z" fill-rule="evenodd"/><text fill="#000000" fill-opacity="0" font-family="Arial,Arial_MSFontService,sans-serif" font-size="68.106" x="2298.6" y="1980.39">𝜋𝐷𝑡</text><path d="M2230.18 1873.99 2468.18 1873.99 2468.18 1880.99 2230.18 1880.99Z" fill-rule="evenodd"/><path d="M2516.85 1861.9C2513.53 1861.9 2510.33 1863.57 2507.26 1866.93 2504.18 1870.28 2501.82 1874.82 2500.18 1880.54 2504.82 1880.5 2508.79 1880.08 2512.11 1879.28 2515.44 1878.47 2517.98 1877.19 2519.76 1875.43 2521.53 1873.67 2522.42 1871.3 2522.42 1868.31 2522.42 1866.3 2521.95 1864.73 2521.02 1863.6 2520.08 1862.46 2518.69 1861.9 2516.85 1861.9ZM2518.62 1858C2522.6 1858 2525.59 1858.8 2527.58 1860.42 2529.56 1862.03 2530.56 1864.54 2530.56 1867.96 2530.56 1873.55 2527.94 1877.74 2522.69 1880.54 2517.45 1883.33 2509.67 1884.73 2499.34 1884.73 2498.95 1886.7 2498.75 1888.84 2498.75 1891.14 2498.75 1894.59 2499.42 1897.1 2500.77 1898.66 2502.12 1900.22 2504.32 1901 2507.38 1901 2510.41 1901 2513.14 1900.35 2515.59 1899.03 2518.04 1897.72 2520.63 1895.69 2523.36 1892.96L2526.42 1896.17C2523.23 1899.69 2520 1902.33 2516.73 1904.11 2513.45 1905.89 2509.65 1906.77 2505.31 1906.77 2500.54 1906.77 2496.85 1905.32 2494.24 1902.41 2491.62 1899.5 2490.32 1895.45 2490.32 1890.25 2490.32 1886.73 2490.95 1882.96 2492.22 1878.93 2493.48 1874.91 2495.4 1871.29 2497.96 1868.08 2500.53 1864.88 2503.6 1862.4 2507.18 1860.64 2510.77 1858.88 2514.58 1858 2518.62 1858Z" fill-rule="evenodd"/><text fill="#000000" fill-opacity="0" font-family="Arial,Arial_MSFontService,sans-serif" font-size="48.7739" x="2490.32" y="1900.68">𝑒</text><path d="M2546.52 1845.15 2588.15 1845.15 2588.15 1850.67 2546.52 1850.67Z" fill-rule="evenodd"/><text fill="#000000" fill-opacity="0" font-family="Arial,Arial_MSFontService,sans-serif" font-size="5.52832" x="2546.52" y="1849.98">−</text><path d="M2808.07 1813.69C2815.1 1815.55 2820.5 1819.55 2824.27 1825.7 2828.04 1831.86 2829.93 1839.28 2829.93 1847.98 2829.93 1856.7 2828.05 1864.13 2824.29 1870.26 2820.53 1876.39 2815.13 1880.38 2808.07 1882.23L2807.2 1879.45C2812.77 1877.6 2816.9 1873.94 2819.61 1868.47 2822.32 1863 2823.68 1856.05 2823.68 1847.62 2823.68 1839.48 2822.33 1832.71 2819.63 1827.33 2816.93 1821.95 2812.75 1818.33 2807.09 1816.47ZM2622.06 1813.69 2623.03 1816.47C2617.4 1818.33 2613.22 1821.95 2610.51 1827.33 2607.8 1832.71 2606.45 1839.48 2606.45 1847.62 2606.45 1856.05 2607.8 1863 2610.51 1868.47 2613.22 1873.94 2617.36 1877.6 2622.93 1879.45L2622.06 1882.23C2615 1880.38 2609.59 1876.39 2605.84 1870.26 2602.08 1864.13 2600.2 1856.7 2600.2 1847.98 2600.2 1839.28 2602.08 1831.86 2605.85 1825.7 2609.62 1819.55 2615.03 1815.55 2622.06 1813.69Z" fill-rule="evenodd"/><path d="M2640.29 1832.17C2641.61 1832.17 2642.69 1832.46 2643.54 1833.04 2644.38 1833.62 2645.08 1834.46 2645.63 1835.57 2646.19 1836.68 2646.65 1838.05 2647.01 1839.67 2647.37 1841.3 2647.75 1843.16 2648.16 1845.25L2648.63 1845.25C2650.08 1843.35 2651.33 1841.7 2652.39 1840.3 2653.45 1838.91 2654.4 1837.73 2655.23 1836.76 2656.06 1835.8 2656.8 1835.02 2657.47 1834.41 2658.13 1833.81 2658.77 1833.35 2659.4 1833.02 2660.03 1832.7 2660.67 1832.47 2661.33 1832.35 2662 1832.23 2662.74 1832.17 2663.56 1832.17 2664.76 1832.17 2665.86 1832.39 2666.84 1832.82L2665.04 1839.94 2662.04 1839.94C2661.97 1838.91 2661.58 1838.39 2660.88 1838.39 2660.62 1838.39 2660.33 1838.44 2660.01 1838.53 2659.7 1838.63 2659.33 1838.82 2658.89 1839.11 2658.46 1839.4 2657.96 1839.8 2657.39 1840.32 2656.83 1840.84 2656.16 1841.51 2655.39 1842.34 2654.62 1843.18 2653.74 1844.19 2652.75 1845.4 2651.76 1846.6 2650.63 1848.02 2649.36 1849.66 2650.01 1852.99 2650.57 1855.65 2651.04 1857.65 2651.51 1859.65 2651.96 1861.18 2652.39 1862.24 2652.82 1863.3 2653.26 1863.99 2653.69 1864.31 2654.12 1864.64 2654.62 1864.8 2655.17 1864.8 2655.58 1864.8 2655.96 1864.75 2656.31 1864.66 2656.66 1864.56 2657.02 1864.35 2657.39 1864.02 2657.77 1863.7 2658.18 1863.23 2658.64 1862.62 2659.1 1862 2659.64 1861.19 2660.27 1860.18L2662.98 1861.95C2661.92 1863.54 2660.98 1864.84 2660.16 1865.85 2659.34 1866.86 2658.54 1867.66 2657.77 1868.23 2657 1868.81 2656.21 1869.2 2655.39 1869.41 2654.57 1869.61 2653.63 1869.72 2652.57 1869.72 2651.66 1869.72 2650.84 1869.59 2650.11 1869.34 2649.39 1869.08 2648.77 1868.62 2648.24 1867.95 2647.87 1867.54 2647.54 1866.99 2647.22 1866.3 2646.91 1865.61 2646.62 1864.87 2646.36 1864.08 2646.09 1863.28 2645.85 1862.46 2645.63 1861.6 2645.42 1860.75 2645.24 1859.95 2645.09 1859.2 2644.95 1858.45 2644.83 1857.79 2644.75 1857.2 2644.66 1856.61 2644.61 1856.17 2644.59 1855.88L2644.19 1855.88C2642.74 1857.8 2641.48 1859.48 2640.41 1860.92 2639.34 1862.35 2638.37 1863.58 2637.5 1864.6 2636.64 1865.63 2635.85 1866.47 2635.16 1867.13 2634.46 1867.79 2633.77 1868.32 2633.1 1868.7 2632.42 1869.09 2631.73 1869.35 2631.02 1869.5 2630.31 1869.64 2629.52 1869.72 2628.65 1869.72 2627.4 1869.72 2626.33 1869.5 2625.44 1869.07L2627.1 1862.02 2630.17 1862.02C2630.24 1863.08 2630.64 1863.61 2631.36 1863.61 2631.63 1863.59 2631.89 1863.54 2632.14 1863.46 2632.39 1863.39 2632.69 1863.24 2633.02 1863.01 2633.36 1862.78 2633.79 1862.42 2634.31 1861.93 2634.82 1861.44 2635.48 1860.75 2636.28 1859.87 2637.07 1858.99 2638.05 1857.89 2639.2 1856.56 2640.36 1855.24 2641.74 1853.6 2643.36 1851.65 2642.92 1849.63 2642.54 1847.87 2642.22 1846.37 2641.89 1844.88 2641.59 1843.6 2641.32 1842.53 2641.04 1841.45 2640.77 1840.58 2640.5 1839.91 2640.24 1839.23 2639.97 1838.7 2639.69 1838.3 2639.41 1837.9 2639.11 1837.62 2638.79 1837.45 2638.46 1837.28 2638.08 1837.18 2637.65 1837.16 2637.24 1837.16 2636.86 1837.23 2636.51 1837.36 2636.16 1837.49 2635.8 1837.73 2635.43 1838.06 2635.05 1838.4 2634.64 1838.87 2634.2 1839.47 2633.75 1840.07 2633.24 1840.86 2632.66 1841.82L2629.88 1840.01C2630.87 1838.55 2631.76 1837.3 2632.55 1836.29 2633.35 1835.28 2634.13 1834.47 2634.9 1833.87 2635.67 1833.27 2636.49 1832.84 2637.34 1832.57 2638.2 1832.31 2639.18 1832.17 2640.29 1832.17Z" fill-rule="evenodd"/><text fill="#000000" fill-opacity="0" font-family="Arial,Arial_MSFontService,sans-serif" font-size="37.542" x="2625.44" y="1865.02">𝑥</text><path d="M2675.86 1845.15 2717.49 1845.15 2717.49 1850.67 2675.86 1850.67Z" fill-rule="evenodd"/><text fill="#000000" fill-opacity="0" font-family="Arial,Arial_MSFontService,sans-serif" font-size="5.52832" x="2675.86" y="1849.98">−</text><path d="M2739.08 1832.17C2740.4 1832.17 2741.49 1832.46 2742.33 1833.04 2743.17 1833.62 2743.87 1834.46 2744.43 1835.57 2744.98 1836.68 2745.44 1838.05 2745.8 1839.67 2746.16 1841.3 2746.55 1843.16 2746.96 1845.25L2747.43 1845.25C2748.87 1843.35 2750.12 1841.7 2751.18 1840.3 2752.24 1838.91 2753.19 1837.73 2754.02 1836.76 2754.85 1835.8 2755.6 1835.02 2756.26 1834.41 2756.92 1833.81 2757.57 1833.35 2758.19 1833.02 2758.82 1832.7 2759.46 1832.47 2760.13 1832.35 2760.79 1832.23 2761.53 1832.17 2762.35 1832.17 2763.55 1832.17 2764.65 1832.39 2765.64 1832.82L2763.83 1839.94 2760.83 1839.94C2760.76 1838.91 2760.37 1838.39 2759.68 1838.39 2759.41 1838.39 2759.12 1838.44 2758.81 1838.53 2758.49 1838.63 2758.12 1838.82 2757.69 1839.11 2757.25 1839.4 2756.75 1839.8 2756.19 1840.32 2755.62 1840.84 2754.95 1841.51 2754.18 1842.34 2753.41 1843.18 2752.53 1844.19 2751.55 1845.4 2750.56 1846.6 2749.43 1848.02 2748.15 1849.66 2748.8 1852.99 2749.36 1855.65 2749.83 1857.65 2750.3 1859.65 2750.75 1861.18 2751.18 1862.24 2751.62 1863.3 2752.05 1863.99 2752.48 1864.31 2752.92 1864.64 2753.41 1864.8 2753.97 1864.8 2754.38 1864.8 2754.76 1864.75 2755.1 1864.66 2755.45 1864.56 2755.82 1864.35 2756.19 1864.02 2756.56 1863.7 2756.98 1863.23 2757.44 1862.62 2757.89 1862 2758.43 1861.19 2759.06 1860.18L2761.77 1861.95C2760.71 1863.54 2759.77 1864.84 2758.95 1865.85 2758.13 1866.86 2757.34 1867.66 2756.57 1868.23 2755.8 1868.81 2755 1869.2 2754.18 1869.41 2753.36 1869.61 2752.42 1869.72 2751.36 1869.72 2750.45 1869.72 2749.63 1869.59 2748.91 1869.34 2748.19 1869.08 2747.56 1868.62 2747.03 1867.95 2746.67 1867.54 2746.33 1866.99 2746.02 1866.3 2745.7 1865.61 2745.41 1864.87 2745.15 1864.08 2744.89 1863.28 2744.64 1862.46 2744.43 1861.6 2744.21 1860.75 2744.03 1859.95 2743.89 1859.2 2743.74 1858.45 2743.63 1857.79 2743.54 1857.2 2743.46 1856.61 2743.4 1856.17 2743.38 1855.88L2742.98 1855.88C2741.54 1857.8 2740.28 1859.48 2739.21 1860.92 2738.13 1862.35 2737.16 1863.58 2736.3 1864.6 2735.43 1865.63 2734.65 1866.47 2733.95 1867.13 2733.25 1867.79 2732.56 1868.32 2731.89 1868.7 2731.21 1869.09 2730.52 1869.35 2729.81 1869.5 2729.1 1869.64 2728.31 1869.72 2727.44 1869.72 2726.19 1869.72 2725.12 1869.5 2724.23 1869.07L2725.89 1862.02 2728.96 1862.02C2729.03 1863.08 2729.43 1863.61 2730.15 1863.61 2730.42 1863.59 2730.68 1863.54 2730.93 1863.46 2731.18 1863.39 2731.48 1863.24 2731.82 1863.01 2732.15 1862.78 2732.58 1862.42 2733.1 1861.93 2733.62 1861.44 2734.27 1860.75 2735.07 1859.87 2735.86 1858.99 2736.84 1857.89 2738 1856.56 2739.15 1855.24 2740.54 1853.6 2742.15 1851.65 2741.72 1849.63 2741.34 1847.87 2741.01 1846.37 2740.69 1844.88 2740.39 1843.6 2740.11 1842.53 2739.83 1841.45 2739.56 1840.58 2739.3 1839.91 2739.03 1839.23 2738.76 1838.7 2738.48 1838.3 2738.21 1837.9 2737.91 1837.62 2737.58 1837.45 2737.25 1837.28 2736.88 1837.18 2736.44 1837.16 2736.03 1837.16 2735.65 1837.23 2735.3 1837.36 2734.95 1837.49 2734.59 1837.73 2734.22 1838.06 2733.85 1838.4 2733.44 1838.87 2732.99 1839.47 2732.55 1840.07 2732.03 1840.86 2731.46 1841.82L2728.67 1840.01C2729.66 1838.55 2730.55 1837.3 2731.35 1836.29 2732.14 1835.28 2732.93 1834.47 2733.7 1833.87 2734.47 1833.27 2735.28 1832.84 2736.13 1832.57 2736.99 1832.31 2737.97 1832.17 2739.08 1832.17Z" fill-rule="evenodd"/><text fill="#000000" fill-opacity="0" font-family="Arial,Arial_MSFontService,sans-serif" font-size="37.542" x="2724.23" y="1865.02">𝑥</text><path d="M2784.78 1850.33C2782.97 1850.33 2781.54 1850.94 2780.47 1852.16 2779.41 1853.38 2778.66 1855.1 2778.22 1857.31 2777.79 1859.53 2777.57 1862.27 2777.57 1865.55 2777.57 1871.17 2778.15 1875.25 2779.31 1877.81 2780.47 1880.36 2782.31 1881.63 2784.84 1881.63 2787.22 1881.63 2788.98 1880.45 2790.12 1878.07 2791.27 1875.7 2791.84 1871.9 2791.84 1866.68 2791.84 1861.12 2791.27 1857.01 2790.12 1854.34 2788.98 1851.66 2787.2 1850.33 2784.78 1850.33ZM2784.84 1847.2C2787.36 1847.2 2789.47 1847.65 2791.18 1848.54 2792.89 1849.44 2794.27 1850.69 2795.34 1852.31 2796.4 1853.93 2797.15 1855.86 2797.6 1858.1 2798.05 1860.35 2798.27 1862.81 2798.27 1865.49 2798.27 1871.86 2797.07 1876.67 2794.68 1879.91 2792.29 1883.14 2788.85 1884.76 2784.36 1884.76 2779.93 1884.76 2776.62 1883.22 2774.43 1880.14 2772.23 1877.07 2771.14 1872.45 2771.14 1866.29 2771.14 1862 2771.72 1858.43 2772.89 1855.57 2774.06 1852.71 2775.67 1850.6 2777.72 1849.24 2779.76 1847.88 2782.14 1847.2 2784.84 1847.2Z" fill-rule="evenodd"/><text fill="#000000" fill-opacity="0" font-family="Arial,Arial_MSFontService,sans-serif" font-size="37.5591" x="2771.14" y="1880.07">0</text><path d="M2854.41 1805.24C2856.69 1805.24 2858.58 1805.49 2860.08 1805.99 2861.58 1806.48 2862.78 1807.13 2863.67 1807.92 2864.56 1808.72 2865.19 1809.65 2865.55 1810.72 2865.9 1811.79 2866.08 1812.9 2866.08 1814.03 2866.08 1815.46 2865.79 1816.78 2865.22 1818 2864.64 1819.23 2863.7 1820.56 2862.39 1822 2861.08 1823.43 2858.74 1825.68 2855.36 1828.74 2851.77 1832 2849.15 1834.82 2847.53 1837.2L2858.28 1837.2C2859.29 1837.2 2860.07 1837.15 2860.6 1837.05 2861.14 1836.95 2861.57 1836.8 2861.88 1836.59 2862.2 1836.38 2862.47 1836.12 2862.69 1835.8 2862.91 1835.48 2863.23 1834.79 2863.67 1833.72L2866.68 1833.72 2866.05 1842.12 2840.56 1842.12 2840.56 1840.48C2841.55 1838.35 2842.89 1836.26 2844.58 1834.21 2846.27 1832.15 2848.23 1830.03 2850.48 1827.85 2853.18 1825.27 2855.09 1823.32 2856.22 1822.01 2857.36 1820.7 2858.19 1819.45 2858.74 1818.27 2859.29 1817.09 2859.56 1815.9 2859.56 1814.71 2859.56 1812.75 2859 1811.2 2857.89 1810.07 2856.78 1808.93 2855.18 1808.37 2853.1 1808.37 2851.29 1808.37 2849.76 1808.85 2848.49 1809.8 2847.23 1810.75 2846.28 1812.16 2845.62 1814.03L2841.48 1814.03 2841.48 1808.16C2844.06 1807.11 2846.44 1806.36 2848.61 1805.91 2850.79 1805.46 2852.72 1805.24 2854.41 1805.24Z" fill-rule="evenodd"/><text fill="#000000" fill-opacity="0" font-family="Arial,Arial_MSFontService,sans-serif" font-size="36.874" x="2840.56" y="1837.51">2</text><path d="M2903.81 1817.36 2909.41 1817.36 2883.32 1884.6 2877.65 1884.6Z" fill-rule="evenodd"/><text fill="#000000" fill-opacity="0" font-family="Arial,Arial_MSFontService,sans-serif" font-size="67.2432" x="2877.65" y="1876.2">/</text><path d="M2934.77 1831.23C2932.46 1834.58 2930.15 1837.91 2927.85 1841.21 2925.55 1844.51 2923.23 1847.82 2920.9 1851.14L2920.9 1851.58 2934.77 1851.58 2934.77 1844.31C2934.77 1843.5 2934.78 1842.48 2934.81 1841.28 2934.83 1840.07 2934.86 1838.85 2934.9 1837.61 2934.94 1836.37 2934.98 1835.19 2935.03 1834.07 2935.07 1832.95 2935.12 1832.01 2935.17 1831.23ZM2979.81 1825.96C2978.97 1825.96 2978.22 1825.97 2977.59 1825.99 2976.95 1826.02 2976.36 1826.06 2975.83 1826.1L2967.05 1865.24C2967.15 1865.24 2967.37 1865.24 2967.7 1865.25 2968.04 1865.27 2968.41 1865.28 2968.82 1865.29 2969.23 1865.3 2969.65 1865.31 2970.07 1865.33 2970.49 1865.34 2970.84 1865.34 2971.1 1865.34 2975.05 1865.34 2978.39 1864.74 2981.13 1863.52 2983.86 1862.3 2986.2 1860.41 2988.15 1857.83 2990.11 1855.15 2991.54 1852.35 2992.45 1849.43 2993.37 1846.5 2993.83 1843.33 2993.83 1839.91 2993.83 1837.69 2993.52 1835.71 2992.91 1833.98 2992.29 1832.25 2991.39 1830.78 2990.2 1829.59 2989 1828.4 2987.53 1827.49 2985.79 1826.88 2984.04 1826.27 2982.05 1825.96 2979.81 1825.96ZM3022.04 1823.75 3027.68 1823.75 3025.62 1832.93 3037.9 1832.93 3037.07 1836.94 3024.82 1836.94 3021.14 1852.08C3020.9 1853.09 3020.7 1854 3020.54 1854.81 3020.38 1855.62 3020.26 1856.35 3020.16 1857 3020.07 1857.65 3020 1858.24 3019.96 1858.77 3019.93 1859.3 3019.91 1859.79 3019.91 1860.25 3019.91 1861.69 3020.21 1862.83 3020.81 1863.65 3021.41 1864.46 3022.4 1864.87 3023.77 1864.87 3024.93 1864.87 3026.16 1864.45 3027.46 1863.59 3028.76 1862.74 3030.24 1861.39 3031.9 1859.56L3034.4 1862.09C3033.17 1863.46 3032 1864.63 3030.89 1865.6 3029.78 1866.56 3028.7 1867.35 3027.64 1867.96 3026.58 1868.58 3025.53 1869.02 3024.5 1869.3 3023.46 1869.58 3022.4 1869.72 3021.32 1869.72 3018.45 1869.72 3016.31 1869.04 3014.9 1867.69 3013.5 1866.34 3012.79 1864.36 3012.79 1861.73 3012.79 1860.84 3012.86 1859.86 3012.99 1858.79 3013.12 1857.71 3013.31 1856.67 3013.55 1855.66L3017.85 1836.94 3011.63 1836.94 3012.36 1834.16C3013.8 1834.16 3014.93 1834.02 3015.74 1833.75 3016.54 1833.47 3017.22 1833.09 3017.78 1832.61 3018.14 1832.27 3018.49 1831.85 3018.82 1831.36 3019.16 1830.87 3019.5 1830.27 3019.84 1829.57 3020.17 1828.87 3020.52 1828.05 3020.87 1827.1 3021.22 1826.15 3021.61 1825.03 3022.04 1823.75ZM2935.82 1822.78 2941.57 1822.78 2941.57 1851.58 2942.22 1851.58C2943.2 1851.58 2944 1851.53 2944.62 1851.43 2945.23 1851.34 2945.73 1851.14 2946.1 1850.84 2946.47 1850.54 2946.79 1850.11 2947.04 1849.57 2947.29 1849.03 2947.56 1848.32 2947.85 1847.46L2950.92 1847.46C2950.85 1848.78 2950.77 1850.1 2950.69 1851.4 2950.61 1852.7 2950.53 1854.02 2950.45 1855.37L2941.57 1855.37 2941.57 1860.1C2941.57 1861.5 2941.6 1862.59 2941.66 1863.36 2941.72 1864.13 2941.9 1864.73 2942.2 1865.16 2942.5 1865.6 2942.95 1865.92 2943.54 1866.14 2944.13 1866.36 2944.95 1866.61 2946.01 1866.9L2946.01 1869.07 2930.4 1869.07 2930.4 1866.9C2931.12 1866.7 2931.74 1866.53 2932.24 1866.37 2932.75 1866.22 2933.17 1866.04 2933.51 1865.83 2933.85 1865.63 2934.09 1865.39 2934.25 1865.11 2934.41 1864.83 2934.53 1864.48 2934.61 1864.06 2934.69 1863.64 2934.74 1863.11 2934.75 1862.47 2934.77 1861.83 2934.77 1861.04 2934.77 1860.1L2934.77 1855.37 2914.43 1855.37 2914.43 1852.52C2918.02 1847.53 2921.58 1842.57 2925.13 1837.65 2928.67 1832.72 2932.23 1827.77 2935.82 1822.78ZM2964.81 1822.2 2979.12 1822.2C2981.46 1822.2 2983.49 1822.31 2985.21 1822.53 2986.93 1822.74 2988.42 1823.07 2989.67 1823.5 2991.38 1823.98 2992.95 1824.68 2994.37 1825.6 2995.79 1826.51 2997.02 1827.65 2998.06 1829.01 2999.09 1830.37 2999.9 1831.96 3000.48 1833.78 3001.05 1835.6 3001.34 1837.64 3001.34 1839.91 3001.34 1844.22 3000.68 1848.16 2999.36 1851.72 2998.03 1855.29 2996.09 1858.35 2993.54 1860.92 2990.99 1863.48 2987.84 1865.48 2984.11 1866.92 2980.37 1868.35 2976.09 1869.07 2971.24 1869.07L2955.89 1869.07 2956.29 1866.86C2957.03 1866.74 2957.64 1866.6 2958.11 1866.45 2958.58 1866.29 2959 1865.95 2959.38 1865.43 2959.75 1864.92 2960.09 1864.14 2960.4 1863.1 2960.72 1862.07 2961.08 1860.6 2961.49 1858.7L2967.41 1832.35C2967.66 1831.29 2967.84 1830.35 2967.96 1829.54 2968.08 1828.72 2968.14 1828.02 2968.14 1827.44 2968.14 1826.38 2967.86 1825.63 2967.31 1825.18 2966.75 1824.74 2965.74 1824.5 2964.27 1824.48Z" fill-rule="evenodd"/><text fill="#000000" fill-opacity="0" font-family="Arial,Arial_MSFontService,sans-serif" font-size="47.5146" x="2914.43" y="1863.78">4𝐷𝑡</text><path d="M3075.19 1873.83 3135.95 1873.83 3135.95 1880.39 3075.19 1880.39Z" fill-rule="evenodd"/><text fill="#000000" fill-opacity="0" font-family="Arial,Arial_MSFontService,sans-serif" font-size="6.55908" x="3075.19" y="1879.57">−</text><path d="M3177.49 1759.1 3185.08 1759.1 3185.08 1850.88 3177.49 1850.88Z" fill-rule="evenodd"/><text fill="#000000" fill-opacity="0" font-family="Arial,Arial_MSFontService,sans-serif" font-size="91.7778" x="3177.49" y="1839.41">|</text><path d="M3216.87 1781.69C3217.89 1781.69 3218.78 1781.8 3219.56 1782.03 3220.33 1782.26 3221.01 1782.62 3221.6 1783.09 3222.19 1783.57 3222.72 1784.19 3223.18 1784.94 3223.64 1785.7 3224.09 1786.72 3224.51 1788.02 3224.94 1789.32 3225.34 1790.93 3225.72 1792.86 3226.1 1794.78 3226.44 1796.78 3226.73 1798.85L3227.23 1798.85C3230.38 1794.41 3232.77 1791.16 3234.4 1789.11 3236.03 1787.05 3237.4 1785.53 3238.52 1784.52 3239.64 1783.52 3240.71 1782.81 3241.75 1782.4 3242.78 1781.99 3244.16 1781.79 3245.87 1781.79 3247.41 1781.79 3248.68 1781.98 3249.66 1782.38L3247.69 1791.3 3244.24 1791.3C3244.04 1789.92 3243.47 1789.23 3242.51 1789.23 3242.22 1789.23 3241.91 1789.28 3241.58 1789.38 3241.25 1789.48 3240.84 1789.69 3240.37 1790.02 3239.89 1790.35 3239.19 1790.99 3238.27 1791.94 3237.35 1792.9 3236.32 1794.06 3235.17 1795.45 3234.01 1796.83 3232.83 1798.27 3231.61 1799.79L3228.26 1803.98C3228.85 1807.13 3229.41 1809.86 3229.94 1812.16 3230.46 1814.47 3230.93 1816.38 3231.34 1817.91 3231.75 1819.44 3232.12 1820.65 3232.43 1821.53 3232.74 1822.42 3233.08 1823.09 3233.44 1823.53 3233.8 1823.98 3234.17 1824.29 3234.55 1824.47 3234.93 1824.65 3235.36 1824.74 3235.86 1824.74 3236.74 1824.74 3237.61 1824.39 3238.44 1823.7 3239.28 1823.01 3240.49 1821.45 3242.07 1819.02L3245.27 1821.14C3242.97 1824.56 3240.89 1826.97 3239.04 1828.36 3237.18 1829.76 3234.97 1830.46 3232.4 1830.46 3230.99 1830.46 3229.79 1830.21 3228.8 1829.7 3227.82 1829.19 3226.96 1828.37 3226.24 1827.25 3225.52 1826.14 3224.87 1824.39 3224.32 1822.03 3223.3 1817.82 3222.67 1814.6 3222.44 1812.36L3221.95 1812.36C3218.46 1817.26 3215.87 1820.78 3214.18 1822.92 3212.49 1825.05 3211.09 1826.63 3209.99 1827.65 3208.89 1828.67 3207.82 1829.38 3206.78 1829.79 3205.75 1830.21 3204.38 1830.41 3202.67 1830.41 3201.12 1830.41 3199.85 1830.21 3198.87 1829.82L3200.84 1820.89 3204.29 1820.89C3204.49 1822.27 3205.07 1822.96 3206.02 1822.96 3206.48 1822.96 3206.96 1822.84 3207.47 1822.59 3207.98 1822.35 3208.72 1821.76 3209.67 1820.82 3210.62 1819.88 3211.94 1818.41 3213.61 1816.41 3215.29 1814.4 3217.72 1811.39 3220.91 1807.38 3220.42 1804.78 3219.91 1802.28 3219.38 1799.88 3218.86 1797.48 3218.32 1795.25 3217.76 1793.18 3217.2 1791.11 3216.74 1789.75 3216.38 1789.11 3216.01 1788.47 3215.63 1788.02 3215.22 1787.78 3214.81 1787.53 3214.29 1787.41 3213.66 1787.41 3212.97 1787.41 3212.35 1787.56 3211.79 1787.88 3211.23 1788.19 3210.62 1788.73 3209.96 1789.5 3209.31 1790.28 3208.44 1791.48 3207.35 1793.13L3204.15 1791.01C3206.22 1787.88 3208.21 1785.55 3210.11 1784 3212.02 1782.46 3214.27 1781.69 3216.87 1781.69Z" fill-rule="evenodd"/><text fill="#000000" fill-opacity="0" font-family="Arial,Arial_MSFontService,sans-serif" font-size="48.7739" x="3198.87" y="1824.36">𝑥</text><path d="M3284.05 1797.52 3344.81 1797.52 3344.81 1804.08 3284.05 1804.08Z" fill-rule="evenodd"/><text fill="#000000" fill-opacity="0" font-family="Arial,Arial_MSFontService,sans-serif" font-size="6.55908" x="3284.05" y="1803.26">−</text><path d="M3393.65 1781.69C3394.67 1781.69 3395.56 1781.8 3396.34 1782.03 3397.11 1782.26 3397.79 1782.62 3398.38 1783.09 3398.97 1783.57 3399.5 1784.19 3399.96 1784.94 3400.42 1785.7 3400.86 1786.72 3401.29 1788.02 3401.72 1789.32 3402.12 1790.93 3402.5 1792.86 3402.88 1794.78 3403.22 1796.78 3403.51 1798.85L3404 1798.85C3407.16 1794.41 3409.55 1791.16 3411.18 1789.11 3412.81 1787.05 3414.18 1785.53 3415.3 1784.52 3416.42 1783.52 3417.49 1782.81 3418.53 1782.4 3419.56 1781.99 3420.94 1781.79 3422.65 1781.79 3424.19 1781.79 3425.46 1781.98 3426.44 1782.38L3424.47 1791.3 3421.02 1791.3C3420.82 1789.92 3420.25 1789.23 3419.29 1789.23 3419 1789.23 3418.68 1789.28 3418.36 1789.38 3418.03 1789.48 3417.62 1789.69 3417.15 1790.02 3416.67 1790.35 3415.97 1790.99 3415.05 1791.94 3414.13 1792.9 3413.09 1794.06 3411.94 1795.45 3410.79 1796.83 3409.61 1798.27 3408.39 1799.79L3405.04 1803.98C3405.63 1807.13 3406.19 1809.86 3406.72 1812.16 3407.24 1814.47 3407.71 1816.38 3408.12 1817.91 3408.53 1819.44 3408.9 1820.65 3409.21 1821.53 3409.52 1822.42 3409.86 1823.09 3410.22 1823.53 3410.58 1823.98 3410.95 1824.29 3411.33 1824.47 3411.71 1824.65 3412.14 1824.74 3412.63 1824.74 3413.52 1824.74 3414.39 1824.39 3415.22 1823.7 3416.06 1823.01 3417.27 1821.45 3418.85 1819.02L3422.05 1821.14C3419.75 1824.56 3417.67 1826.97 3415.82 1828.36 3413.96 1829.76 3411.75 1830.46 3409.18 1830.46 3407.77 1830.46 3406.57 1830.21 3405.58 1829.7 3404.6 1829.19 3403.74 1828.37 3403.02 1827.25 3402.29 1826.14 3401.65 1824.39 3401.09 1822.03 3400.08 1817.82 3399.45 1814.6 3399.22 1812.36L3398.73 1812.36C3395.24 1817.26 3392.65 1820.78 3390.96 1822.92 3389.27 1825.05 3387.87 1826.63 3386.77 1827.65 3385.67 1828.67 3384.6 1829.38 3383.56 1829.79 3382.53 1830.21 3381.15 1830.41 3379.44 1830.41 3377.9 1830.41 3376.63 1830.21 3375.65 1829.82L3377.62 1820.89 3381.07 1820.89C3381.27 1822.27 3381.84 1822.96 3382.8 1822.96 3383.26 1822.96 3383.74 1822.84 3384.25 1822.59 3384.76 1822.35 3385.49 1821.76 3386.45 1820.82 3387.4 1819.88 3388.72 1818.41 3390.39 1816.41 3392.07 1814.4 3394.5 1811.39 3397.69 1807.38 3397.2 1804.78 3396.69 1802.28 3396.16 1799.88 3395.64 1797.48 3395.09 1795.25 3394.54 1793.18 3393.98 1791.11 3393.52 1789.75 3393.15 1789.11 3392.79 1788.47 3392.41 1788.02 3392 1787.78 3391.58 1787.53 3391.07 1787.41 3390.44 1787.41 3389.75 1787.41 3389.13 1787.56 3388.57 1787.88 3388.01 1788.19 3387.4 1788.73 3386.74 1789.5 3386.09 1790.28 3385.21 1791.48 3384.13 1793.13L3380.92 1791.01C3383 1787.88 3384.98 1785.55 3386.89 1784 3388.8 1782.46 3391.05 1781.69 3393.65 1781.69Z" fill-rule="evenodd"/><text fill="#000000" fill-opacity="0" font-family="Arial,Arial_MSFontService,sans-serif" font-size="48.7739" x="3375.65" y="1824.36">𝑥</text><path d="M3448.46 1806.96C3446.78 1806.96 3445.37 1807.4 3444.24 1808.28 3443.1 1809.16 3442.21 1810.45 3441.54 1812.15 3440.88 1813.85 3440.41 1815.92 3440.13 1818.36 3439.86 1820.81 3439.72 1823.58 3439.72 1826.69 3439.72 1830.28 3439.89 1833.38 3440.24 1836 3440.59 1838.61 3441.13 1840.76 3441.87 1842.45 3442.6 1844.13 3443.53 1845.37 3444.63 1846.17 3445.74 1846.96 3447.07 1847.36 3448.61 1847.36 3450.05 1847.36 3451.32 1846.99 3452.4 1846.24 3453.49 1845.49 3454.38 1844.33 3455.09 1842.75 3455.8 1841.18 3456.34 1839.18 3456.7 1836.76 3457.06 1834.33 3457.24 1831.47 3457.24 1828.17 3457.24 1824.46 3457.04 1821.27 3456.65 1818.6 3456.25 1815.92 3455.69 1813.73 3454.97 1812 3454.24 1810.28 3453.34 1809.01 3452.24 1808.19 3451.14 1807.37 3449.88 1806.96 3448.46 1806.96ZM3448.61 1803.46C3451.47 1803.46 3453.93 1803.99 3455.96 1805.07 3458 1806.14 3459.66 1807.67 3460.95 1809.66 3462.24 1811.64 3463.18 1814.07 3463.78 1816.94 3464.39 1819.8 3464.69 1823.04 3464.69 1826.66 3464.69 1834.68 3463.27 1840.74 3460.42 1844.85 3457.58 1848.96 3453.46 1851.01 3448.07 1851.01 3442.72 1851.01 3438.74 1849.07 3436.14 1845.19 3433.54 1841.31 3432.24 1835.44 3432.24 1827.56 3432.24 1823.44 3432.64 1819.88 3433.45 1816.86 3434.26 1813.85 3435.39 1811.35 3436.85 1809.37 3438.3 1807.38 3440.03 1805.9 3442.03 1804.92 3444.03 1803.95 3446.22 1803.46 3448.61 1803.46Z" fill-rule="evenodd"/><text fill="#000000" fill-opacity="0" font-family="Arial,Arial_MSFontService,sans-serif" font-size="47.5508" x="3432.24" y="1845.07">0</text><path d="M3485.81 1759.1 3493.4 1759.1 3493.4 1850.88 3485.81 1850.88Z" fill-rule="evenodd"/><text fill="#000000" fill-opacity="0" font-family="Arial,Arial_MSFontService,sans-serif" font-size="91.7778" x="3485.81" y="1839.41">|</text><path d="M3396.05 1914.1 3402.86 1914.1 3400.15 1926.28 3415.14 1926.28 3414.05 1931.26 3399.06 1931.26 3394.67 1950.4C3393.82 1954.11 3393.27 1956.78 3393.04 1958.41 3392.81 1960.04 3392.7 1961.35 3392.7 1962.33 3392.7 1966.41 3394.39 1968.45 3397.78 1968.45 3399.23 1968.45 3400.76 1967.9 3402.39 1966.79 3404.02 1965.69 3405.95 1963.81 3408.18 1961.15L3411.04 1964.11C3408.18 1967.56 3405.43 1970.11 3402.78 1971.75 3400.14 1973.39 3397.37 1974.22 3394.47 1974.22 3387.6 1974.22 3384.17 1970.75 3384.17 1963.81 3384.17 1961.61 3384.45 1959.29 3385.01 1956.86L3390.83 1931.26 3382.54 1931.26 3383.28 1927.86C3385.22 1927.83 3386.69 1927.68 3387.69 1927.42 3388.7 1927.15 3389.53 1926.79 3390.21 1926.33 3390.88 1925.87 3391.5 1925.21 3392.06 1924.36 3392.62 1923.5 3393.16 1922.41 3393.69 1921.08 3394.21 1919.75 3395 1917.42 3396.05 1914.1ZM3342.34 1910.4C3340.89 1910.4 3339.33 1910.45 3337.66 1910.55L3324.88 1968.89C3325.84 1968.99 3327.66 1969.04 3330.36 1969.04 3335.68 1969.04 3340.2 1968.11 3343.92 1966.25 3347.63 1964.39 3350.84 1961.48 3353.54 1957.52 3356.23 1953.56 3358.22 1949.39 3359.5 1945 3360.79 1940.61 3361.43 1935.98 3361.43 1931.11 3361.43 1924.24 3359.82 1919.07 3356.62 1915.6 3353.41 1912.14 3348.65 1910.4 3342.34 1910.4ZM3323.5 1906.11 3342.19 1906.11C3347.16 1906.11 3351.18 1906.49 3354.28 1907.25 3357.37 1908 3360.25 1909.37 3362.93 1911.34 3365.61 1913.31 3367.62 1915.93 3368.97 1919.2 3370.32 1922.48 3370.99 1926.35 3370.99 1930.82 3370.99 1935.26 3370.48 1939.5 3369.46 1943.54 3368.45 1947.59 3366.98 1951.31 3365.08 1954.71 3363.17 1958.11 3360.88 1961.07 3358.22 1963.59 3355.56 1966.1 3352.98 1968.04 3350.48 1969.38 3347.98 1970.73 3345.18 1971.74 3342.09 1972.42 3339 1973.09 3335.4 1973.43 3331.29 1973.43L3310.58 1973.43 3311.12 1971.01C3312.37 1970.81 3313.31 1970.49 3313.93 1970.05 3314.56 1969.61 3315.09 1968.99 3315.51 1968.2 3315.94 1967.41 3316.33 1966.45 3316.7 1965.32 3317.06 1964.18 3317.6 1961.99 3318.32 1958.73L3326.71 1920.76C3327.43 1917.47 3327.79 1914.82 3327.79 1912.82 3327.79 1911.27 3327.41 1910.2 3326.63 1909.59 3325.86 1908.98 3324.64 1908.63 3322.96 1908.53ZM3280.13 1905.32C3286.24 1905.32 3290.86 1906.66 3293.98 1909.34 3297.11 1912.02 3298.67 1915.91 3298.67 1921 3298.67 1922.75 3298.5 1924.35 3298.15 1925.81 3297.81 1927.28 3297.26 1928.72 3296.52 1930.15 3295.78 1931.58 3294.79 1933.12 3293.54 1934.76 3292.29 1936.41 3290.91 1938.08 3289.4 1939.77 3287.89 1941.46 3285.27 1944.28 3281.56 1948.23 3275.31 1954.84 3270.72 1960.61 3267.8 1965.54L3286.39 1965.54C3288 1965.54 3289.3 1965.44 3290.29 1965.24 3291.27 1965.04 3292.06 1964.72 3292.65 1964.25 3293.25 1963.79 3293.71 1963.19 3294.06 1962.45 3294.4 1961.72 3294.84 1960.57 3295.37 1959.03L3299.56 1959.03 3298.72 1973.43 3258.13 1973.43 3258.13 1971.06C3259.55 1967.61 3261.45 1964.07 3263.85 1960.46 3266.25 1956.84 3269.66 1952.58 3274.06 1947.68 3277.87 1943.48 3280.62 1940.29 3282.3 1938.12 3284.14 1935.75 3285.51 1933.7 3286.41 1931.98 3287.32 1930.25 3287.97 1928.62 3288.36 1927.09 3288.76 1925.57 3288.95 1924.03 3288.95 1922.48 3288.95 1920.02 3288.56 1917.84 3287.77 1915.95 3286.98 1914.06 3285.77 1912.57 3284.15 1911.49 3282.52 1910.4 3280.47 1909.86 3278.01 1909.86 3271.86 1909.86 3267.72 1913.28 3265.58 1920.12L3259.61 1920.12 3259.61 1910.65C3263.59 1908.77 3267.31 1907.42 3270.78 1906.58 3274.25 1905.74 3277.37 1905.32 3280.13 1905.32Z" fill-rule="evenodd"/><text fill="#000000" fill-opacity="0" font-family="Arial,Arial_MSFontService,sans-serif" font-size="68.895" x="3258.13" y="1965.6">2𝐷𝑡</text><path d="M3165.18 1873.99 3505.18 1873.99 3505.18 1880.99 3165.18 1880.99Z" fill-rule="evenodd"/><path d="M3548.55 1861.9C3545.16 1861.9 3542.46 1863.25 3540.43 1865.96 3538.41 1868.68 3537.22 1872.55 3536.86 1877.58L3558.41 1877.58C3558.21 1874.03 3557.77 1871.13 3557.08 1868.87 3556.39 1866.62 3555.35 1864.9 3553.97 1863.7 3552.59 1862.49 3550.78 1861.9 3548.55 1861.9ZM3670.68 1858C3673.38 1858 3675.87 1858.16 3678.15 1858.47 3680.44 1858.78 3682.73 1859.28 3685.03 1859.97L3685.03 1870.28 3678.77 1870.28C3678.21 1868.14 3677.52 1866.46 3676.7 1865.22 3675.88 1863.99 3674.92 1863.13 3673.84 1862.63 3672.75 1862.14 3671.4 1861.9 3669.79 1861.9 3667.49 1861.9 3665.45 1862.63 3663.68 1864.11 3661.9 1865.59 3660.5 1867.85 3659.46 1870.87 3658.43 1873.9 3657.91 1877.59 3657.91 1881.97 3657.91 1884.76 3658.11 1887.32 3658.5 1889.64 3658.89 1891.95 3659.57 1893.93 3660.52 1895.58 3661.48 1897.22 3662.74 1898.5 3664.32 1899.42 3665.9 1900.35 3667.85 1900.81 3670.19 1900.81 3672.46 1900.81 3674.57 1900.36 3676.52 1899.47 3678.48 1898.59 3680.51 1897.02 3682.62 1894.79L3685.43 1898.04C3683.75 1899.89 3682.27 1901.31 3680.99 1902.31 3679.71 1903.31 3678.33 1904.15 3676.87 1904.82 3675.41 1905.5 3673.96 1905.99 3672.53 1906.3 3671.1 1906.62 3669.55 1906.77 3667.87 1906.77 3661.66 1906.77 3656.91 1904.71 3653.62 1900.58 3650.33 1896.46 3648.69 1890.5 3648.69 1882.71 3648.69 1877.84 3649.61 1873.53 3651.45 1869.76 3653.29 1866 3655.87 1863.1 3659.19 1861.06 3662.51 1859.02 3666.34 1858 3670.68 1858ZM3606.42 1858C3608.33 1858 3610.06 1858.1 3611.6 1858.29L3611.6 1869.64 3606.03 1869.64C3605.24 1867.86 3604.4 1866.57 3603.51 1865.77 3602.63 1864.96 3601.41 1864.56 3599.86 1864.56 3598.68 1864.56 3597.51 1864.9 3596.34 1865.59 3595.17 1866.28 3594.05 1867.29 3592.96 1868.6 3591.88 1869.92 3591.13 1871.15 3590.72 1872.3 3590.31 1873.45 3590.1 1874.82 3590.1 1876.39L3590.1 1893.65C3590.1 1896.65 3590.28 1898.71 3590.64 1899.84 3591 1900.98 3591.6 1901.81 3592.44 1902.33 3593.28 1902.86 3594.54 1903.27 3596.22 1903.57L3596.22 1905.98 3576.34 1905.98 3576.34 1903.57C3577.59 1903.17 3578.49 1902.83 3579.03 1902.53 3579.57 1902.24 3580.04 1901.82 3580.43 1901.3 3580.83 1900.77 3581.12 1899.97 3581.32 1898.88 3581.52 1897.8 3581.62 1896.1 3581.62 1893.8L3581.62 1872.3C3581.62 1870.2 3581.58 1868.5 3581.52 1867.22 3581.45 1865.94 3581.22 1864.91 3580.83 1864.14 3580.43 1863.37 3579.83 1862.79 3579.03 1862.41 3578.22 1862.03 3577.08 1861.71 3575.6 1861.45L3575.6 1858.89 3587.14 1858.39 3590.15 1858.39 3589.61 1867.02 3590.3 1867.17C3592.11 1864.97 3593.78 1863.23 3595.33 1861.97 3596.87 1860.7 3598.54 1859.73 3600.33 1859.03 3602.12 1858.34 3604.16 1858 3606.42 1858ZM3549.04 1858C3552.36 1858 3555.19 1858.53 3557.52 1859.58 3559.86 1860.63 3561.72 1862.07 3563.12 1863.89 3564.52 1865.72 3565.6 1868.02 3566.37 1870.8 3567.15 1873.57 3567.58 1877.2 3567.68 1881.67L3536.61 1881.67 3536.61 1882.56C3536.61 1886.44 3537.05 1889.7 3537.92 1892.35 3538.79 1894.99 3540.22 1897.07 3542.21 1898.56 3544.2 1900.06 3546.79 1900.81 3549.98 1900.81 3552.67 1900.81 3555.1 1900.3 3557.25 1899.3 3559.4 1898.3 3561.55 1896.66 3563.69 1894.39L3566.7 1897.6C3564.59 1899.8 3562.66 1901.53 3560.9 1902.78 3559.14 1904.03 3557.21 1905.01 3555.11 1905.71 3553 1906.42 3550.68 1906.77 3548.15 1906.77 3541.38 1906.77 3536.27 1904.74 3532.81 1900.68 3529.36 1896.62 3527.64 1890.63 3527.64 1882.71 3527.64 1877.81 3528.52 1873.48 3530.27 1869.74 3532.03 1865.99 3534.54 1863.1 3537.8 1861.06 3541.05 1859.02 3544.8 1858 3549.04 1858ZM3643.54 1835.17C3646.14 1835.17 3648.34 1835.35 3650.15 1835.71L3650.15 1844.63 3645.27 1844.63C3644.64 1842.69 3643.91 1841.32 3643.07 1840.52 3642.23 1839.71 3641.06 1839.31 3639.55 1839.31 3638.46 1839.31 3637.55 1839.46 3636.81 1839.75 3636.07 1840.05 3635.39 1840.51 3634.76 1841.13 3634.14 1841.76 3633.6 1842.6 3633.16 1843.65 3632.72 1844.7 3632.39 1846.01 3632.17 1847.57 3631.96 1849.13 3631.85 1851.16 3631.85 1853.66L3631.85 1858.84 3643.64 1858.84 3643.64 1863.82 3631.85 1863.82 3631.85 1893.65C3631.85 1895.86 3631.96 1897.52 3632.17 1898.64 3632.39 1899.75 3632.7 1900.6 3633.11 1901.18 3633.52 1901.75 3634.06 1902.21 3634.74 1902.56 3635.41 1902.9 3636.49 1903.24 3637.97 1903.57L3637.97 1905.98 3617.8 1905.98 3617.8 1903.57C3619.24 1903.17 3620.28 1902.79 3620.91 1902.43 3621.53 1902.07 3622.01 1901.61 3622.36 1901.05 3622.71 1900.49 3622.96 1899.69 3623.12 1898.64 3623.29 1897.58 3623.37 1895.92 3623.37 1893.65L3623.37 1863.82 3617.4 1863.82 3617.4 1861.3C3618.65 1861.11 3619.48 1860.95 3619.89 1860.83 3620.3 1860.72 3620.7 1860.55 3621.08 1860.32 3621.46 1860.09 3621.78 1859.76 3622.06 1859.33 3622.34 1858.9 3622.59 1858.27 3622.8 1857.43 3623.02 1856.59 3623.19 1855.42 3623.32 1853.91 3623.62 1850.32 3624.27 1847.41 3625.27 1845.18 3626.27 1842.94 3627.74 1841.03 3629.66 1839.46 3631.58 1837.88 3633.64 1836.77 3635.82 1836.13 3638.01 1835.49 3640.58 1835.17 3643.54 1835.17Z" fill-rule="evenodd"/><text fill="#000000" fill-opacity="0" font-family="Arial,Arial_MSFontService,sans-serif" font-size="71.6074" x="3527.64" y="1897.82">erfc</text><path d="M4109.27 1748.39C4122.78 1759.96 4133.51 1777.22 4141.45 1800.17 4149.39 1823.12 4153.36 1848.73 4153.36 1877.01 4153.36 1904.85 4149.39 1930.42 4141.45 1953.72 4133.51 1977.01 4122.78 1994.41 4109.27 2005.92L4106.95 2002.27C4118.62 1990.4 4127.62 1973.22 4133.93 1950.73 4140.24 1928.25 4143.4 1903.69 4143.4 1877.05 4143.4 1849.8 4140.22 1825.12 4133.88 1803.03 4127.53 1780.94 4118.56 1763.96 4106.95 1752.09ZM3757.83 1748.39 3760.14 1752.09C3748.5 1763.96 3739.52 1780.94 3733.19 1803.03 3726.86 1825.12 3723.7 1849.8 3723.7 1877.05 3723.7 1903.69 3726.85 1928.25 3733.17 1950.73 3739.48 1973.22 3748.47 1990.4 3760.14 2002.27L3757.83 2005.92C3744.31 1994.41 3733.59 1977.01 3725.65 1953.72 3717.71 1930.42 3713.74 1904.85 3713.74 1877.01 3713.74 1848.73 3717.71 1823.12 3725.65 1800.17 3733.59 1777.22 3744.31 1759.96 3757.83 1748.39Z" fill-rule="evenodd"/><path d="M3775.47 1759.1 3783.07 1759.1 3783.07 1850.88 3775.47 1850.88Z" fill-rule="evenodd"/><text fill="#000000" fill-opacity="0" font-family="Arial,Arial_MSFontService,sans-serif" font-size="91.7778" x="3775.47" y="1839.41">|</text><path d="M3814.86 1781.69C3815.88 1781.69 3816.77 1781.8 3817.54 1782.03 3818.32 1782.26 3819 1782.62 3819.59 1783.09 3820.18 1783.57 3820.71 1784.19 3821.17 1784.94 3821.63 1785.7 3822.07 1786.72 3822.5 1788.02 3822.93 1789.32 3823.33 1790.93 3823.71 1792.86 3824.09 1794.78 3824.42 1796.78 3824.72 1798.85L3825.21 1798.85C3828.37 1794.41 3830.76 1791.16 3832.39 1789.11 3834.02 1787.05 3835.39 1785.53 3836.51 1784.52 3837.62 1783.52 3838.7 1782.81 3839.74 1782.4 3840.77 1781.99 3842.14 1781.79 3843.85 1781.79 3845.4 1781.79 3846.67 1781.98 3847.65 1782.38L3845.68 1791.3 3842.23 1791.3C3842.03 1789.92 3841.45 1789.23 3840.5 1789.23 3840.2 1789.23 3839.89 1789.28 3839.56 1789.38 3839.23 1789.48 3838.83 1789.69 3838.36 1790.02 3837.88 1790.35 3837.18 1790.99 3836.26 1791.94 3835.34 1792.9 3834.3 1794.06 3833.15 1795.45 3832 1796.83 3830.82 1798.27 3829.6 1799.79L3826.25 1803.98C3826.84 1807.13 3827.4 1809.86 3827.93 1812.16 3828.45 1814.47 3828.92 1816.38 3829.33 1817.91 3829.74 1819.44 3830.1 1820.65 3830.42 1821.53 3830.73 1822.42 3831.06 1823.09 3831.43 1823.53 3831.79 1823.98 3832.16 1824.29 3832.54 1824.47 3832.91 1824.65 3833.35 1824.74 3833.84 1824.74 3834.73 1824.74 3835.59 1824.39 3836.43 1823.7 3837.27 1823.01 3838.48 1821.45 3840.06 1819.02L3843.26 1821.14C3840.96 1824.56 3838.88 1826.97 3837.02 1828.36 3835.17 1829.76 3832.96 1830.46 3830.39 1830.46 3828.98 1830.46 3827.78 1830.21 3826.79 1829.7 3825.8 1829.19 3824.95 1828.37 3824.23 1827.25 3823.5 1826.14 3822.86 1824.39 3822.3 1822.03 3821.28 1817.82 3820.66 1814.6 3820.43 1812.36L3819.94 1812.36C3816.45 1817.26 3813.86 1820.78 3812.17 1822.92 3810.48 1825.05 3809.08 1826.63 3807.98 1827.65 3806.88 1828.67 3805.81 1829.38 3804.77 1829.79 3803.74 1830.21 3802.36 1830.41 3800.65 1830.41 3799.11 1830.41 3797.84 1830.21 3796.86 1829.82L3798.83 1820.89 3802.28 1820.89C3802.48 1822.27 3803.05 1822.96 3804.01 1822.96 3804.47 1822.96 3804.95 1822.84 3805.46 1822.59 3805.97 1822.35 3806.7 1821.76 3807.66 1820.82 3808.61 1819.88 3809.92 1818.41 3811.6 1816.41 3813.28 1814.4 3815.71 1811.39 3818.9 1807.38 3818.41 1804.78 3817.9 1802.28 3817.37 1799.88 3816.85 1797.48 3816.3 1795.25 3815.74 1793.18 3815.19 1791.11 3814.72 1789.75 3814.36 1789.11 3814 1788.47 3813.61 1788.02 3813.2 1787.78 3812.79 1787.53 3812.28 1787.41 3811.65 1787.41 3810.96 1787.41 3810.34 1787.56 3809.78 1787.88 3809.22 1788.19 3808.61 1788.73 3807.95 1789.5 3807.29 1790.28 3806.42 1791.48 3805.34 1793.13L3802.13 1791.01C3804.2 1787.88 3806.19 1785.55 3808.1 1784 3810.01 1782.46 3812.26 1781.69 3814.86 1781.69Z" fill-rule="evenodd"/><text fill="#000000" fill-opacity="0" font-family="Arial,Arial_MSFontService,sans-serif" font-size="48.7739" x="3796.86" y="1824.36">𝑥</text><path d="M3882.04 1797.52 3942.8 1797.52 3942.8 1804.08 3882.04 1804.08Z" fill-rule="evenodd"/><text fill="#000000" fill-opacity="0" font-family="Arial,Arial_MSFontService,sans-serif" font-size="6.55908" x="3882.04" y="1803.26">−</text><path d="M3991.64 1781.69C3992.65 1781.69 3993.55 1781.8 3994.32 1782.03 3995.1 1782.26 3995.78 1782.62 3996.37 1783.09 3996.96 1783.57 3997.49 1784.19 3997.95 1784.94 3998.41 1785.7 3998.85 1786.72 3999.28 1788.02 3999.71 1789.32 4000.11 1790.93 4000.49 1792.86 4000.87 1794.78 4001.2 1796.78 4001.5 1798.85L4001.99 1798.85C4005.15 1794.41 4007.54 1791.16 4009.17 1789.11 4010.79 1787.05 4012.17 1785.53 4013.29 1784.52 4014.4 1783.52 4015.48 1782.81 4016.52 1782.4 4017.55 1781.99 4018.92 1781.79 4020.63 1781.79 4022.18 1781.79 4023.44 1781.98 4024.43 1782.38L4022.46 1791.3 4019.01 1791.3C4018.81 1789.92 4018.23 1789.23 4017.28 1789.23 4016.98 1789.23 4016.67 1789.28 4016.34 1789.38 4016.01 1789.48 4015.61 1789.69 4015.13 1790.02 4014.66 1790.35 4013.96 1790.99 4013.04 1791.94 4012.12 1792.9 4011.08 1794.06 4009.93 1795.45 4008.78 1796.83 4007.6 1798.27 4006.38 1799.79L4003.03 1803.98C4003.62 1807.13 4004.18 1809.86 4004.7 1812.16 4005.23 1814.47 4005.7 1816.38 4006.11 1817.91 4006.52 1819.44 4006.88 1820.65 4007.19 1821.53 4007.51 1822.42 4007.84 1823.09 4008.21 1823.53 4008.57 1823.98 4008.94 1824.29 4009.32 1824.47 4009.69 1824.65 4010.13 1824.74 4010.62 1824.74 4011.51 1824.74 4012.37 1824.39 4013.21 1823.7 4014.05 1823.01 4015.26 1821.45 4016.84 1819.02L4020.04 1821.14C4017.74 1824.56 4015.66 1826.97 4013.8 1828.36 4011.95 1829.76 4009.73 1830.46 4007.17 1830.46 4005.76 1830.46 4004.56 1830.21 4003.57 1829.7 4002.58 1829.19 4001.73 1828.37 4001.01 1827.25 4000.28 1826.14 3999.64 1824.39 3999.08 1822.03 3998.06 1817.82 3997.44 1814.6 3997.21 1812.36L3996.72 1812.36C3993.23 1817.26 3990.64 1820.78 3988.95 1822.92 3987.25 1825.05 3985.86 1826.63 3984.76 1827.65 3983.65 1828.67 3982.59 1829.38 3981.55 1829.79 3980.51 1830.21 3979.14 1830.41 3977.43 1830.41 3975.89 1830.41 3974.62 1830.21 3973.64 1829.82L3975.61 1820.89 3979.06 1820.89C3979.26 1822.27 3979.83 1822.96 3980.79 1822.96 3981.25 1822.96 3981.73 1822.84 3982.24 1822.59 3982.75 1822.35 3983.48 1821.76 3984.44 1820.82 3985.39 1819.88 3986.7 1818.41 3988.38 1816.41 3990.06 1814.4 3992.49 1811.39 3995.68 1807.38 3995.19 1804.78 3994.68 1802.28 3994.15 1799.88 3993.62 1797.48 3993.08 1795.25 3992.52 1793.18 3991.96 1791.11 3991.5 1789.75 3991.14 1789.11 3990.78 1788.47 3990.39 1788.02 3989.98 1787.78 3989.57 1787.53 3989.05 1787.41 3988.43 1787.41 3987.74 1787.41 3987.11 1787.56 3986.56 1787.88 3986 1788.19 3985.39 1788.73 3984.73 1789.5 3984.07 1790.28 3983.2 1791.48 3982.12 1793.13L3978.91 1791.01C3980.98 1787.88 3982.97 1785.55 3984.88 1784 3986.79 1782.46 3989.04 1781.69 3991.64 1781.69Z" fill-rule="evenodd"/><text fill="#000000" fill-opacity="0" font-family="Arial,Arial_MSFontService,sans-serif" font-size="48.7739" x="3973.64" y="1824.36">𝑥</text><path d="M4046.45 1806.96C4044.76 1806.96 4043.36 1807.4 4042.22 1808.28 4041.09 1809.16 4040.19 1810.45 4039.53 1812.15 4038.87 1813.85 4038.4 1815.92 4038.12 1818.36 4037.85 1820.81 4037.71 1823.58 4037.71 1826.69 4037.71 1830.28 4037.88 1833.38 4038.23 1836 4038.58 1838.61 4039.12 1840.76 4039.86 1842.45 4040.59 1844.13 4041.51 1845.37 4042.62 1846.17 4043.73 1846.96 4045.05 1847.36 4046.6 1847.36 4048.04 1847.36 4049.31 1846.99 4050.39 1846.24 4051.47 1845.49 4052.37 1844.33 4053.08 1842.75 4053.79 1841.18 4054.33 1839.18 4054.69 1836.76 4055.05 1834.33 4055.23 1831.47 4055.23 1828.17 4055.23 1824.46 4055.03 1821.27 4054.64 1818.6 4054.24 1815.92 4053.68 1813.73 4052.95 1812 4052.23 1810.28 4051.32 1809.01 4050.23 1808.19 4049.13 1807.37 4047.87 1806.96 4046.45 1806.96ZM4046.6 1803.46C4049.46 1803.46 4051.91 1803.99 4053.95 1805.07 4055.98 1806.14 4057.65 1807.67 4058.93 1809.66 4060.22 1811.64 4061.17 1814.07 4061.77 1816.94 4062.37 1819.8 4062.67 1823.04 4062.67 1826.66 4062.67 1834.68 4061.25 1840.74 4058.41 1844.85 4055.57 1848.96 4051.45 1851.01 4046.05 1851.01 4040.71 1851.01 4036.73 1849.07 4034.13 1845.19 4031.53 1841.31 4030.23 1835.44 4030.23 1827.56 4030.23 1823.44 4030.63 1819.88 4031.44 1816.86 4032.24 1813.85 4033.38 1811.35 4034.83 1809.37 4036.29 1807.38 4038.02 1805.9 4040.02 1804.92 4042.02 1803.95 4044.21 1803.46 4046.6 1803.46Z" fill-rule="evenodd"/><text fill="#000000" fill-opacity="0" font-family="Arial,Arial_MSFontService,sans-serif" font-size="47.5508" x="4030.23" y="1845.07">0</text><path d="M4083.79 1759.1 4091.39 1759.1 4091.39 1850.88 4083.79 1850.88Z" fill-rule="evenodd"/><text fill="#000000" fill-opacity="0" font-family="Arial,Arial_MSFontService,sans-serif" font-size="91.7778" x="4083.79" y="1839.41">|</text><path d="M3876.32 1899.67 3888.89 1899.67 3888.89 1899.99 4050.18 1899.99 4050.18 1906.99 3883.18 1906.99 3883.18 1906.23 3879.97 1906.23 3853.43 1996.87 3848.65 1996.87 3828.23 1952.98 3819.9 1956.68 3818.37 1952.98 3834.54 1945.58 3851.95 1983.85Z" fill-rule="evenodd"/><path d="M3914.09 1931.76 3894.81 1962.39 3894.81 1963.08 3914.09 1963.08 3914.09 1950.8C3914.09 1947.71 3914.14 1944.25 3914.24 1940.42 3914.34 1936.59 3914.45 1933.7 3914.58 1931.76ZM4027.15 1928.95 4033.96 1928.95 4031.25 1941.13 4046.24 1941.13 4045.16 1946.11 4030.16 1946.11 4025.77 1965.25C4024.92 1968.96 4024.38 1971.63 4024.15 1973.26 4023.92 1974.89 4023.8 1976.2 4023.8 1977.18 4023.8 1981.26 4025.49 1983.3 4028.88 1983.3 4030.33 1983.3 4031.86 1982.75 4033.49 1981.64 4035.12 1980.54 4037.05 1978.66 4039.29 1976L4042.15 1978.96C4039.29 1982.41 4036.53 1984.96 4033.89 1986.6 4031.24 1988.24 4028.47 1989.07 4025.58 1989.07 4018.71 1989.07 4015.27 1985.6 4015.27 1978.66 4015.27 1976.46 4015.55 1974.14 4016.11 1971.71L4021.93 1946.11 4013.64 1946.11 4014.38 1942.71C4016.32 1942.68 4017.79 1942.53 4018.8 1942.27 4019.8 1942 4020.64 1941.64 4021.31 1941.18 4021.98 1940.72 4022.6 1940.06 4023.16 1939.21 4023.72 1938.35 4024.26 1937.26 4024.79 1935.93 4025.31 1934.6 4026.1 1932.27 4027.15 1928.95ZM3973.44 1925.25C3972 1925.25 3970.43 1925.3 3968.76 1925.4L3955.98 1983.74C3956.94 1983.84 3958.76 1983.89 3961.46 1983.89 3966.79 1983.89 3971.31 1982.96 3975.02 1981.1 3978.74 1979.24 3981.94 1976.33 3984.64 1972.37 3987.33 1968.41 3989.32 1964.24 3990.6 1959.85 3991.89 1955.46 3992.53 1950.83 3992.53 1945.96 3992.53 1939.09 3990.93 1933.92 3987.72 1930.45 3984.51 1926.99 3979.76 1925.25 3973.44 1925.25ZM3954.6 1920.96 3973.29 1920.96C3978.26 1920.96 3982.29 1921.34 3985.38 1922.1 3988.47 1922.85 3991.35 1924.22 3994.03 1926.19 3996.71 1928.16 3998.73 1930.78 4000.07 1934.05 4001.42 1937.33 4002.1 1941.2 4002.1 1945.67 4002.1 1950.11 4001.59 1954.35 4000.57 1958.39 3999.55 1962.44 3998.08 1966.16 3996.18 1969.56 3994.27 1972.96 3991.99 1975.92 3989.32 1978.44 3986.66 1980.95 3984.08 1982.89 3981.58 1984.23 3979.08 1985.58 3976.29 1986.59 3973.2 1987.27 3970.11 1987.94 3966.51 1988.28 3962.4 1988.28L3941.68 1988.28 3942.23 1985.86C3943.47 1985.66 3944.41 1985.34 3945.04 1984.9 3945.66 1984.46 3946.19 1983.84 3946.61 1983.05 3947.04 1982.26 3947.44 1981.3 3947.8 1980.17 3948.16 1979.03 3948.7 1976.84 3949.43 1973.58L3957.81 1935.61C3958.53 1932.32 3958.89 1929.67 3958.89 1927.67 3958.89 1926.12 3958.51 1925.05 3957.74 1924.44 3956.96 1923.83 3955.74 1923.48 3954.06 1923.38ZM3915.52 1920.62 3922.57 1920.62 3922.57 1963.08 3923.61 1963.08C3925.51 1963.08 3926.88 1962.94 3927.7 1962.66 3928.52 1962.38 3929.2 1961.89 3929.75 1961.18 3930.29 1960.47 3930.79 1959.31 3931.25 1957.7L3935 1957.7 3934.41 1967.86 3922.57 1967.86 3922.57 1975.95C3922.57 1978.15 3922.65 1979.76 3922.79 1980.78 3922.94 1981.8 3923.19 1982.61 3923.53 1983.2 3923.88 1983.79 3924.39 1984.28 3925.06 1984.68 3925.74 1985.07 3926.83 1985.47 3928.34 1985.86L3928.34 1988.28 3908.32 1988.28 3908.32 1985.86C3910.36 1985.34 3911.72 1984.75 3912.41 1984.11 3913.1 1983.47 3913.56 1982.56 3913.77 1981.37 3913.98 1980.19 3914.09 1978.38 3914.09 1975.95L3914.09 1967.86 3886.67 1967.86 3886.67 1964.16Z" fill-rule="evenodd"/><text fill="#000000" fill-opacity="0" font-family="Arial,Arial_MSFontService,sans-serif" font-size="68.4512" x="3886.67" y="1980.51">4𝐷𝑡</text><path d="M3763.18 1873.99 4103.18 1873.99 4103.18 1880.99 3763.18 1880.99Z" fill-rule="evenodd"/></g></svg>