<svg width="932" height="390" xmlns="http://www.w3.org/2000/svg" xmlns:xlink="http://www.w3.org/1999/xlink" xml:space="preserve" overflow="hidden"><g transform="translate(-285 -143)"><path d="M461.966 295.112 481.643 339.398 481.643 343.048 461.966 387.383 456.689 385.509 472.519 341.223 456.689 296.888ZM325.961 295.112 331.189 296.986 315.358 341.272 331.189 385.608 325.961 387.383 306.284 343.097 306.284 339.448Z" fill-rule="evenodd"/><path d="M347.94 322.955 383.004 322.955 383.941 325.421 360.417 352.446C355.847 357.674 351.885 362.112 348.532 365.762L348.828 366.107 359.973 366.107C361.946 366.107 363.458 366 364.51 365.786 365.563 365.573 366.483 365.17 367.272 364.578 368.061 363.986 368.875 363.09 369.713 361.89 370.552 360.69 371.596 358.808 372.845 356.244L377.234 356.244 374.226 370.101 338.521 370.101 337.584 367.685 364.56 336.616C368.374 332.243 371.168 329.136 372.944 327.295L372.648 326.95 361.108 326.95C359.398 326.95 358.149 327.065 357.36 327.295 356.571 327.525 355.781 327.928 354.992 328.503 354.203 329.078 353.357 329.933 352.453 331.068 351.548 332.202 350.537 333.821 349.42 335.925L345.03 335.925Z" fill-rule="evenodd"/><text fill="#000000" fill-opacity="0" font-family="Arial,Arial_MSFontService,sans-serif" font-size="47.1465" x="337.584" y="364.208">𝑧</text><path d="M401.213 286.318 413.679 286.318C414.811 289.33 415.973 292.359 417.166 295.406 418.358 298.453 419.532 301.494 420.689 304.529 421.845 307.565 422.959 310.558 424.031 313.508 425.103 316.459 426.084 319.344 426.976 322.162L427.445 322.162C427.71 320.621 428.048 318.796 428.457 316.688 428.867 314.58 429.348 312.394 429.903 310.13 430.312 308.42 430.728 306.661 431.149 304.855 431.571 303.048 431.962 301.314 432.323 299.651 432.685 297.989 432.98 296.454 433.209 295.045 433.438 293.635 433.552 292.473 433.552 291.558 433.552 290.498 433.281 289.745 432.739 289.299 432.197 288.854 431.191 288.619 429.722 288.595L430.228 286.318 443.633 286.318 443.163 288.486C442.344 288.727 441.694 288.938 441.212 289.119 440.73 289.299 440.321 289.649 439.984 290.167 439.646 290.685 439.327 291.437 439.026 292.425 438.725 293.413 438.37 294.834 437.96 296.689L429.794 333.183 424.338 333.183C423.061 329.907 421.755 326.607 420.418 323.282 419.081 319.958 417.768 316.634 416.479 313.31 415.19 309.985 413.956 306.685 412.776 303.409 411.595 300.133 410.523 296.905 409.56 293.726L409.09 293.726C408.97 294.472 408.825 295.34 408.656 296.327 408.488 297.315 408.301 298.381 408.096 299.525 407.892 300.669 407.675 301.844 407.446 303.048 407.217 304.252 406.982 305.457 406.741 306.661 406.525 307.577 406.266 308.643 405.965 309.859 405.663 311.075 405.356 312.376 405.043 313.761 404.73 315.146 404.411 316.55 404.086 317.971 403.76 319.392 403.465 320.747 403.2 322.036 402.935 323.324 402.725 324.499 402.568 325.559 402.411 326.619 402.333 327.45 402.333 328.052 402.333 329.064 402.622 329.78 403.2 330.202 403.779 330.623 404.766 330.882 406.163 330.979L405.766 333.183 392.288 333.183 392.758 330.979C393.481 330.858 394.083 330.714 394.565 330.545 395.046 330.376 395.468 330.033 395.829 329.515 396.191 328.997 396.534 328.22 396.859 327.185 397.184 326.149 397.552 324.691 397.961 322.813L403.887 296.472C404.104 295.508 404.266 294.611 404.375 293.78 404.483 292.949 404.537 292.208 404.537 291.558 404.537 290.498 404.26 289.745 403.706 289.299 403.152 288.854 402.14 288.619 400.671 288.595Z" fill-rule="evenodd"/><text fill="#000000" fill-opacity="0" font-family="Arial,Arial_MSFontService,sans-serif" font-size="46.8643" x="392.288" y="327.325">𝑁</text><path d="M523.045 348.205 583.803 348.205 583.803 354.764 523.045 354.764ZM523.045 327.739 583.803 327.739 583.803 334.298 523.045 334.298Z" fill-rule="evenodd"/><text fill="#000000" fill-opacity="0" font-family="Arial,Arial_MSFontService,sans-serif" font-size="27.0254" x="523.045" y="351.386">=</text><path d="M698.232 225.683 700.945 225.683C700.747 228.839 700.649 233.212 700.649 238.801L700.649 280.917C700.649 282.824 700.755 284.263 700.969 285.233 701.183 286.202 701.561 286.991 702.103 287.6 702.646 288.208 703.427 288.685 704.446 289.03 705.465 289.375 706.747 289.638 708.293 289.819 709.838 290 711.876 290.123 714.408 290.189L714.408 293.789 677.963 293.789 677.963 290.189C681.612 290.024 684.218 289.803 685.78 289.523 687.341 289.244 688.533 288.824 689.355 288.266 690.177 287.707 690.777 286.918 691.155 285.898 691.533 284.879 691.722 283.219 691.722 280.917L691.722 240.922C691.722 239.607 691.492 238.645 691.032 238.037 690.572 237.429 689.898 237.124 689.01 237.124 687.958 237.124 686.462 237.667 684.522 238.752 682.582 239.837 680.182 241.333 677.322 243.24L675.152 239.442Z" fill-rule="evenodd"/><text fill="#000000" fill-opacity="0" font-family="Arial,Arial_MSFontService,sans-serif" font-size="68.106" x="675.152" y="285.276">1</text><path d="M638.036 378.218 644.841 378.218 642.129 390.399 657.121 390.399 656.036 395.38 641.044 395.38 636.655 414.514C635.8 418.23 635.257 420.901 635.027 422.528 634.797 424.156 634.682 425.463 634.682 426.449 634.682 430.526 636.375 432.564 639.762 432.564 641.208 432.564 642.745 432.014 644.373 430.912 646 429.811 647.932 427.928 650.167 425.265L653.028 428.224C650.167 431.677 647.414 434.225 644.767 435.868 642.121 437.512 639.351 438.334 636.457 438.334 629.586 438.334 626.15 434.866 626.15 427.928 626.15 425.726 626.43 423.408 626.989 420.975L632.808 395.38 624.523 395.38 625.263 391.977C627.202 391.944 628.674 391.796 629.676 391.533 630.679 391.27 631.518 390.908 632.192 390.448 632.866 389.988 633.482 389.33 634.041 388.475 634.6 387.621 635.142 386.527 635.668 385.196 636.194 383.864 636.984 381.538 638.036 378.218Z" fill-rule="evenodd"/><text fill="#000000" fill-opacity="0" font-family="Arial,Arial_MSFontService,sans-serif" font-size="60.1167" x="624.523" y="430.82">𝑡</text><path d="M698.615 389.56C700.686 389.56 702.322 390.243 703.522 391.607 704.722 392.971 705.322 394.755 705.322 396.958 705.322 398.766 704.944 400.689 704.187 402.728L704.779 402.925C707.804 398.421 710.812 395.076 713.804 392.889 716.796 390.703 719.821 389.61 722.878 389.61 726.035 389.61 728.435 390.506 730.078 392.297 731.722 394.089 732.544 396.678 732.544 400.065L732.544 400.755C732.544 400.985 732.528 401.232 732.495 401.495 735.322 397.484 738.142 394.5 740.953 392.544 743.764 390.588 746.682 389.61 749.706 389.61 752.731 389.61 755.065 390.481 756.709 392.223 758.353 393.966 759.175 396.415 759.175 399.572 759.175 401.643 758.698 404.585 757.745 408.399L754.539 421.32C753.652 424.904 753.208 427.435 753.208 428.915 753.208 430.23 753.422 431.183 753.849 431.775 754.276 432.367 754.95 432.663 755.871 432.663 756.857 432.663 757.909 432.26 759.027 431.455 760.145 430.649 761.723 429.112 763.762 426.844L766.573 429.605C763.745 432.597 761.279 434.8 759.175 436.214 757.071 437.627 754.671 438.334 751.975 438.334 749.838 438.334 748.128 437.57 746.846 436.041 745.564 434.512 744.923 432.564 744.923 430.197 744.923 428.06 745.465 424.92 746.55 420.778L748.72 412.246C749.509 409.155 750.027 406.87 750.274 405.391 750.52 403.911 750.643 402.711 750.643 401.791 750.643 399.522 750.265 397.887 749.509 396.884 748.753 395.881 747.52 395.38 745.81 395.38 744.43 395.38 742.95 395.897 741.372 396.933 739.794 397.969 738.133 399.58 736.391 401.766 734.648 403.953 733.227 406.106 732.125 408.227 731.024 410.347 730.144 412.936 729.487 415.994L724.999 437.545 716.467 437.545 722.139 412.492C722.829 409.435 723.297 407.174 723.544 405.711 723.791 404.248 723.914 402.991 723.914 401.939 723.914 399.572 723.495 397.887 722.656 396.884 721.818 395.881 720.511 395.38 718.736 395.38 717.486 395.38 716.064 395.897 714.47 396.933 712.875 397.969 711.174 399.629 709.366 401.914 707.557 404.199 706.144 406.394 705.124 408.498 704.105 410.602 703.25 413.166 702.56 416.191L697.875 437.545 689.343 437.545 696.543 406.279C697.267 403.122 697.628 400.689 697.628 398.98 697.628 397.665 697.415 396.711 696.987 396.119 696.56 395.528 695.886 395.232 694.965 395.232 693.946 395.232 692.869 395.651 691.735 396.489 690.601 397.328 689.047 398.848 687.075 401.051L684.264 398.289C687.157 395.265 689.647 393.054 691.735 391.656 693.823 390.259 696.116 389.56 698.615 389.56Z" fill-rule="evenodd"/><text fill="#000000" fill-opacity="0" font-family="Arial,Arial_MSFontService,sans-serif" font-size="48.7739" x="684.264" y="432.238">𝑚</text><path d="M618.499 338.108 769.499 338.108 769.499 345.108 618.499 345.108Z" fill-rule="evenodd"/><path d="M789.692 244.838 908.792 244.838 908.792 274.033 902.282 274.033C901.526 267.03 899.997 261.49 897.695 257.413 895.394 253.337 891.909 251.298 887.24 251.298L809.419 251.298 868.253 331.191 868.253 337.158 804.734 423.363 890.298 423.363C894.079 423.363 896.972 422.032 898.978 419.369 900.983 416.705 902.709 410.755 904.156 401.516L911.455 401.516 908.94 437.665 787.67 437.665 787.67 432.783 856.763 339.131 789.692 249.523Z" fill-rule="evenodd"/><text fill="#000000" fill-opacity="0" font-family="Arial,Arial_MSFontService,sans-serif" font-size="192.827" x="787.67" y="413.562">෍</text><path d="M940.163 244.838 1059.26 244.838 1059.26 274.033 1052.75 274.033C1052 267.03 1050.47 261.49 1048.17 257.413 1045.86 253.337 1042.38 251.298 1037.71 251.298L959.89 251.298 1018.72 331.191 1018.72 337.158 955.205 423.363 1040.77 423.363C1044.55 423.363 1047.44 422.032 1049.45 419.369 1051.45 416.705 1053.18 410.755 1054.63 401.516L1061.93 401.516 1059.41 437.665 938.141 437.665 938.141 432.783 1007.23 339.131 940.163 249.523Z" fill-rule="evenodd"/><text fill="#000000" fill-opacity="0" font-family="Arial,Arial_MSFontService,sans-serif" font-size="192.827" x="938.141" y="413.562">෍</text><path d="M1098.92 322.955 1133.98 322.955 1134.92 325.421 1111.4 352.446C1106.83 357.674 1102.86 362.112 1099.51 365.762L1099.81 366.107 1110.95 366.107C1112.93 366.107 1114.44 366 1115.49 365.786 1116.54 365.573 1117.46 365.17 1118.25 364.578 1119.04 363.986 1119.85 363.09 1120.69 361.89 1121.53 360.69 1122.57 358.808 1123.82 356.244L1128.21 356.244 1125.2 370.101 1089.5 370.101 1088.56 367.685 1115.54 336.616C1119.35 332.243 1122.15 329.136 1123.92 327.295L1123.63 326.95 1112.09 326.95C1110.38 326.95 1109.13 327.065 1108.34 327.295 1107.55 327.525 1106.76 327.928 1105.97 328.503 1105.18 329.078 1104.34 329.933 1103.43 331.068 1102.53 332.202 1101.52 333.821 1100.4 335.925L1096.01 335.925Z" fill-rule="evenodd"/><text fill="#000000" fill-opacity="0" font-family="Arial,Arial_MSFontService,sans-serif" font-size="47.1465" x="1088.56" y="364.208">𝑧</text><path d="M1185.77 358.207 1188.27 358.207 1180.75 393.617C1180.15 396.363 1179.37 398.717 1178.42 400.681 1177.47 402.644 1176.31 404.252 1174.93 405.504 1173.56 406.757 1171.96 407.678 1170.13 408.269 1168.3 408.859 1166.2 409.154 1163.84 409.154 1163.21 409.154 1162.61 409.124 1162.03 409.064 1161.45 409.003 1160.94 408.913 1160.48 408.793L1161.38 404.999C1161.67 405.119 1162.06 405.197 1162.54 405.233 1163.02 405.27 1163.57 405.288 1164.2 405.288 1165.38 405.288 1166.44 405.131 1167.36 404.818 1168.29 404.505 1169.12 403.939 1169.86 403.12 1170.59 402.301 1171.25 401.174 1171.84 399.741 1172.43 398.308 1172.98 396.471 1173.49 394.231 1174.33 390.329 1175.14 386.667 1175.91 383.247 1176.68 379.826 1177.31 376.96 1177.8 374.647 1178.3 372.335 1178.69 370.492 1178.98 369.119 1179.27 367.746 1179.48 366.686 1179.61 365.939 1179.74 365.192 1179.82 364.662 1179.85 364.349 1179.87 364.036 1179.88 363.783 1179.88 363.59 1179.88 362.747 1179.56 362.127 1178.92 361.73 1178.29 361.332 1177.16 361.109 1175.55 361.061L1176.09 358.604ZM1150.92 358.207 1152.69 358.207 1147.34 382.271C1147.01 383.692 1146.77 384.824 1146.64 385.668 1146.51 386.511 1146.44 387.269 1146.44 387.944 1146.44 388.859 1146.63 389.522 1147 389.931 1147.37 390.341 1147.93 390.545 1148.68 390.545 1149.11 390.545 1149.55 390.461 1149.98 390.293 1150.41 390.124 1150.88 389.859 1151.37 389.498 1151.86 389.136 1152.41 388.673 1153 388.106 1153.59 387.54 1154.24 386.86 1154.97 386.065L1157.42 388.45C1156.17 389.726 1155.03 390.804 1154.01 391.684 1152.99 392.563 1152.02 393.279 1151.1 393.834 1150.18 394.388 1149.29 394.785 1148.41 395.026 1147.53 395.267 1146.6 395.387 1145.61 395.387 1144.69 395.387 1143.87 395.219 1143.13 394.881 1142.4 394.544 1141.77 394.08 1141.24 393.49 1140.71 392.9 1140.3 392.195 1140.01 391.376 1139.72 390.557 1139.57 389.654 1139.57 388.667 1139.57 387.872 1139.67 386.884 1139.86 385.704 1140.06 384.523 1140.3 383.241 1140.6 381.855 1140.9 380.47 1141.24 379.019 1141.6 377.501 1141.96 375.984 1142.31 374.478 1142.66 372.985 1143.01 371.491 1143.33 370.052 1143.6 368.667 1143.88 367.282 1144.08 366.023 1144.2 364.891 1144.25 364.698 1144.27 364.512 1144.27 364.331 1144.27 364.15 1144.27 363.988 1144.27 363.843 1144.22 362.904 1143.89 362.217 1143.28 361.784 1142.66 361.35 1141.57 361.109 1140.01 361.061L1140.44 358.604ZM1184.44 343.645 1191.7 343.645 1189.93 351.414 1182.66 351.414ZM1148.82 343.645 1156.05 343.645 1154.28 351.414 1147.13 351.414Z" fill-rule="evenodd"/><text fill="#000000" fill-opacity="0" font-family="Arial,Arial_MSFontService,sans-serif" font-size="65.5088" x="1139.57" y="400.965">𝑖𝑗</text><path d="M1152.19 282.262 1164.66 282.262C1165.79 285.273 1166.95 288.302 1168.14 291.35 1169.34 294.397 1170.51 297.438 1171.67 300.473 1172.82 303.508 1173.94 306.501 1175.01 309.452 1176.08 312.403 1177.06 315.288 1177.95 318.106L1178.42 318.106C1178.69 316.564 1179.03 314.74 1179.44 312.632 1179.85 310.524 1180.33 308.338 1180.88 306.074 1181.29 304.363 1181.71 302.605 1182.13 300.798 1182.55 298.992 1182.94 297.257 1183.3 295.595 1183.66 293.933 1183.96 292.397 1184.19 290.988 1184.42 289.579 1184.53 288.417 1184.53 287.501 1184.53 286.442 1184.26 285.689 1183.72 285.243 1183.18 284.797 1182.17 284.563 1180.7 284.539L1181.21 282.262 1194.61 282.262 1194.14 284.43C1193.32 284.671 1192.67 284.882 1192.19 285.062 1191.71 285.243 1191.3 285.592 1190.96 286.11 1190.63 286.628 1190.31 287.381 1190.01 288.369 1189.7 289.356 1189.35 290.777 1188.94 292.632L1180.77 329.126 1175.32 329.126C1174.04 325.85 1172.73 322.55 1171.4 319.226 1170.06 315.902 1168.75 312.578 1167.46 309.253 1166.17 305.929 1164.94 302.629 1163.75 299.353 1162.57 296.077 1161.5 292.849 1160.54 289.669L1160.07 289.669C1159.95 290.416 1159.8 291.283 1159.64 292.271 1159.47 293.259 1159.28 294.325 1159.08 295.469 1158.87 296.613 1158.65 297.787 1158.43 298.992 1158.2 300.196 1157.96 301.401 1157.72 302.605 1157.5 303.52 1157.24 304.586 1156.94 305.803 1156.64 307.019 1156.34 308.32 1156.02 309.705 1155.71 311.09 1155.39 312.493 1155.06 313.915 1154.74 315.336 1154.44 316.691 1154.18 317.979 1153.91 319.268 1153.7 320.443 1153.55 321.502 1153.39 322.562 1153.31 323.393 1153.31 323.996 1153.31 325.007 1153.6 325.724 1154.18 326.145 1154.76 326.567 1155.75 326.826 1157.14 326.922L1156.74 329.126 1143.27 329.126 1143.74 326.922C1144.46 326.802 1145.06 326.657 1145.54 326.489 1146.03 326.32 1146.45 325.977 1146.81 325.459 1147.17 324.941 1147.51 324.164 1147.84 323.128 1148.16 322.093 1148.53 320.635 1148.94 318.756L1154.87 292.415C1155.08 291.452 1155.25 290.555 1155.35 289.724 1155.46 288.893 1155.52 288.152 1155.52 287.501 1155.52 286.442 1155.24 285.689 1154.69 285.243 1154.13 284.797 1153.12 284.563 1151.65 284.539Z" fill-rule="evenodd"/><text fill="#000000" fill-opacity="0" font-family="Arial,Arial_MSFontService,sans-serif" font-size="46.8643" x="1143.27" y="323.268">𝑁</text><path d="M986.276 173.546 998.741 173.546C999.874 176.557 1001.04 179.586 1002.23 182.633 1003.42 185.68 1004.59 188.721 1005.75 191.756 1006.91 194.792 1008.02 197.785 1009.09 200.735 1010.17 203.686 1011.15 206.571 1012.04 209.389L1012.51 209.389C1012.77 207.848 1013.11 206.023 1013.52 203.915 1013.93 201.807 1014.41 199.621 1014.97 197.357 1015.37 195.647 1015.79 193.888 1016.21 192.082 1016.63 190.275 1017.02 188.541 1017.39 186.879 1017.75 185.216 1018.04 183.681 1018.27 182.272 1018.5 180.862 1018.61 179.7 1018.61 178.785 1018.61 177.725 1018.34 176.972 1017.8 176.526 1017.26 176.081 1016.25 175.846 1014.78 175.822L1015.29 173.546 1028.7 173.546 1028.23 175.713C1027.41 175.954 1026.76 176.165 1026.27 176.346 1025.79 176.526 1025.38 176.876 1025.05 177.394 1024.71 177.912 1024.39 178.664 1024.09 179.652 1023.79 180.64 1023.43 182.061 1023.02 183.916L1014.86 220.41 1009.4 220.41C1008.12 217.134 1006.82 213.834 1005.48 210.509 1004.14 207.185 1002.83 203.861 1001.54 200.537 1000.25 197.213 999.018 193.912 997.838 190.636 996.658 187.36 995.586 184.132 994.622 180.953L994.153 180.953C994.032 181.699 993.888 182.567 993.719 183.554 993.55 184.542 993.364 185.608 993.159 186.752 992.954 187.896 992.737 189.071 992.508 190.275 992.28 191.479 992.045 192.684 991.804 193.888 991.587 194.804 991.328 195.87 991.027 197.086 990.726 198.303 990.419 199.603 990.106 200.988 989.792 202.373 989.473 203.777 989.148 205.198 988.823 206.619 988.528 207.974 988.263 209.263 987.998 210.552 987.787 211.726 987.631 212.786 987.474 213.846 987.396 214.677 987.396 215.279 987.396 216.291 987.685 217.007 988.263 217.429 988.841 217.85 989.829 218.109 991.226 218.206L990.828 220.41 977.351 220.41 977.82 218.206C978.543 218.085 979.145 217.941 979.627 217.772 980.109 217.603 980.53 217.26 980.892 216.742 981.253 216.224 981.596 215.448 981.922 214.412 982.247 213.376 982.614 211.919 983.024 210.04L988.949 183.699C989.166 182.735 989.329 181.838 989.437 181.007 989.546 180.176 989.6 179.435 989.6 178.785 989.6 177.725 989.323 176.972 988.769 176.526 988.215 176.081 987.203 175.846 985.734 175.822Z" fill-rule="evenodd"/><text fill="#000000" fill-opacity="0" font-family="Arial,Arial_MSFontService,sans-serif" font-size="46.8643" x="977.351" y="214.552">𝑁</text><path d="M959.038 462.065 960.809 462.065 955.461 486.129C955.124 487.551 954.889 488.683 954.757 489.526 954.624 490.369 954.558 491.128 954.558 491.802 954.558 492.718 954.745 493.38 955.118 493.79 955.491 494.199 956.051 494.404 956.798 494.404 957.232 494.404 957.665 494.319 958.099 494.151 958.532 493.982 958.996 493.717 959.49 493.356 959.984 492.995 960.526 492.531 961.116 491.965 961.706 491.399 962.362 490.718 963.085 489.923L965.542 492.308C964.29 493.585 963.151 494.663 962.128 495.542 961.104 496.421 960.134 497.138 959.219 497.692 958.304 498.246 957.406 498.643 956.527 498.884 955.648 499.125 954.714 499.246 953.727 499.246 952.811 499.246 951.986 499.077 951.252 498.74 950.517 498.402 949.885 497.939 949.355 497.349 948.825 496.758 948.415 496.054 948.126 495.235 947.837 494.416 947.693 493.513 947.693 492.525 947.693 491.73 947.789 490.742 947.982 489.562 948.174 488.382 948.421 487.099 948.722 485.714 949.023 484.329 949.355 482.877 949.716 481.36 950.077 479.842 950.433 478.337 950.782 476.843 951.131 475.35 951.444 473.91 951.721 472.525 951.998 471.14 952.197 469.882 952.318 468.749 952.366 468.557 952.39 468.37 952.39 468.189 952.39 468.009 952.39 467.846 952.39 467.702 952.342 466.762 952.01 466.076 951.396 465.642 950.782 465.208 949.692 464.968 948.126 464.919L948.56 462.462ZM956.943 447.503 964.169 447.503 962.399 455.272 955.244 455.272Z" fill-rule="evenodd"/><text fill="#000000" fill-opacity="0" font-family="Arial,Arial_MSFontService,sans-serif" font-size="51.7422" x="947.693" y="492.778">𝑖</text><path d="M976.103 482.552 1017.73 482.552 1017.73 488.081 976.103 488.081ZM976.103 466.834 1017.73 466.834 1017.73 472.363 976.103 472.363Z" fill-rule="evenodd"/><text fill="#000000" fill-opacity="0" font-family="Arial,Arial_MSFontService,sans-serif" font-size="21.2461" x="976.103" y="485.425">=</text><path d="M1044.7 455.308C1043.02 455.308 1041.61 455.748 1040.48 456.627 1039.34 457.506 1038.45 458.795 1037.79 460.493 1037.12 462.191 1036.65 464.263 1036.38 466.708 1036.1 469.153 1035.96 471.929 1035.96 475.037 1035.96 478.626 1036.14 481.727 1036.48 484.341 1036.83 486.954 1037.38 489.104 1038.11 490.79 1038.85 492.477 1039.77 493.717 1040.87 494.512 1041.98 495.307 1043.31 495.705 1044.85 495.705 1046.29 495.705 1047.56 495.331 1048.64 494.584 1049.73 493.838 1050.62 492.675 1051.33 491.098 1052.05 489.52 1052.58 487.52 1052.94 485.1 1053.3 482.679 1053.48 479.818 1053.48 476.518 1053.48 472.808 1053.29 469.617 1052.89 466.943 1052.49 464.269 1051.93 462.071 1051.21 460.349 1050.49 458.626 1049.58 457.356 1048.48 456.537 1047.38 455.718 1046.13 455.308 1044.7 455.308ZM1044.85 451.803C1047.72 451.803 1050.17 452.339 1052.2 453.411 1054.24 454.483 1055.9 456.013 1057.19 458 1058.48 459.987 1059.42 462.414 1060.02 465.281 1060.63 468.147 1060.93 471.387 1060.93 475 1060.93 483.022 1059.51 489.086 1056.66 493.193 1053.82 497.3 1049.7 499.354 1044.31 499.354 1038.96 499.354 1034.98 497.415 1032.38 493.537 1029.78 489.658 1028.48 483.781 1028.48 475.904 1028.48 471.785 1028.88 468.22 1029.69 465.208 1030.5 462.197 1031.63 459.698 1033.09 457.711 1034.55 455.724 1036.27 454.242 1038.27 453.267 1040.27 452.291 1042.46 451.803 1044.85 451.803Z" fill-rule="evenodd"/><text fill="#000000" fill-opacity="0" font-family="Arial,Arial_MSFontService,sans-serif" font-size="47.5508" x="1028.48" y="493.41">0</text><path d="M851.448 175.099 857.085 175.099 855.025 184.277 867.311 184.277 866.48 188.288 854.231 188.288 850.545 203.427C850.304 204.439 850.105 205.348 849.949 206.155 849.792 206.962 849.666 207.691 849.569 208.341 849.473 208.992 849.407 209.582 849.371 210.112 849.335 210.642 849.316 211.136 849.316 211.593 849.316 213.039 849.618 214.171 850.22 214.99 850.822 215.809 851.81 216.218 853.183 216.218 854.339 216.218 855.567 215.791 856.868 214.936 858.169 214.081 859.65 212.738 861.313 210.907L863.806 213.436C862.577 214.809 861.409 215.977 860.301 216.941 859.193 217.905 858.109 218.693 857.049 219.308 855.989 219.922 854.941 220.368 853.905 220.645 852.87 220.922 851.81 221.06 850.726 221.06 847.859 221.06 845.721 220.386 844.312 219.037 842.903 217.688 842.198 215.7 842.198 213.075 842.198 212.184 842.265 211.202 842.397 210.13 842.53 209.058 842.716 208.016 842.957 207.005L847.257 188.288 841.042 188.288 841.765 185.505C843.21 185.505 844.336 185.367 845.143 185.09 845.95 184.813 846.631 184.434 847.185 183.952 847.546 183.615 847.895 183.199 848.232 182.705 848.57 182.211 848.907 181.615 849.244 180.917 849.581 180.218 849.925 179.393 850.274 178.442 850.623 177.49 851.015 176.376 851.448 175.099Z" fill-rule="evenodd"/><text fill="#000000" fill-opacity="0" font-family="Arial,Arial_MSFontService,sans-serif" font-size="45.9609" x="841.042" y="215.315">𝑡</text><path d="M813.135 462.065 815.628 462.065 808.112 497.475C807.51 500.221 806.733 502.576 805.782 504.539 804.83 506.502 803.668 508.11 802.295 509.363 800.922 510.615 799.32 511.537 797.489 512.127 795.658 512.717 793.563 513.012 791.202 513.012 790.576 513.012 789.973 512.982 789.395 512.922 788.817 512.862 788.299 512.771 787.842 512.651L788.745 508.857C789.034 508.977 789.419 509.056 789.901 509.092 790.383 509.128 790.937 509.146 791.563 509.146 792.744 509.146 793.797 508.989 794.725 508.676 795.652 508.363 796.483 507.797 797.218 506.978 797.953 506.159 798.615 505.033 799.205 503.6 799.796 502.166 800.344 500.33 800.849 498.089 801.693 494.187 802.5 490.526 803.27 487.105 804.041 483.684 804.673 480.818 805.167 478.505 805.661 476.193 806.053 474.35 806.342 472.977 806.631 471.604 806.841 470.544 806.974 469.797 807.106 469.051 807.185 468.521 807.209 468.207 807.233 467.894 807.245 467.641 807.245 467.449 807.245 466.606 806.926 465.985 806.287 465.588 805.649 465.19 804.523 464.968 802.909 464.919L803.451 462.462ZM811.798 447.503 819.06 447.503 817.29 455.272 810.027 455.272Z" fill-rule="evenodd"/><text fill="#000000" fill-opacity="0" font-family="Arial,Arial_MSFontService,sans-serif" font-size="65.5088" x="787.842" y="504.824">𝑗</text><path d="M829.941 482.552 871.566 482.552 871.566 488.081 829.941 488.081ZM829.941 466.834 871.566 466.834 871.566 472.363 829.941 472.363Z" fill-rule="evenodd"/><text fill="#000000" fill-opacity="0" font-family="Arial,Arial_MSFontService,sans-serif" font-size="21.2461" x="829.941" y="485.425">=</text><path d="M898.542 455.308C896.856 455.308 895.447 455.748 894.315 456.627 893.182 457.506 892.285 458.795 891.623 460.493 890.96 462.191 890.491 464.263 890.214 466.708 889.936 469.153 889.798 471.929 889.798 475.037 889.798 478.626 889.973 481.727 890.322 484.341 890.671 486.954 891.213 489.104 891.948 490.79 892.683 492.477 893.604 493.717 894.712 494.512 895.82 495.307 897.145 495.705 898.687 495.705 900.132 495.705 901.397 495.331 902.481 494.584 903.565 493.838 904.462 492.675 905.172 491.098 905.883 489.52 906.419 487.52 906.78 485.1 907.142 482.679 907.322 479.818 907.322 476.518 907.322 472.808 907.124 469.617 906.726 466.943 906.329 464.269 905.769 462.071 905.046 460.349 904.323 458.626 903.414 457.356 902.318 456.537 901.222 455.718 899.963 455.308 898.542 455.308ZM898.687 451.803C901.553 451.803 904.004 452.339 906.04 453.411 908.075 454.483 909.737 456.013 911.026 458 912.315 459.987 913.26 462.414 913.862 465.281 914.465 468.147 914.766 471.387 914.766 475 914.766 483.022 913.345 489.086 910.502 493.193 907.66 497.3 903.54 499.354 898.145 499.354 892.797 499.354 888.822 497.415 886.221 493.537 883.619 489.658 882.318 483.781 882.318 475.904 882.318 471.785 882.722 468.22 883.529 465.208 884.336 462.197 885.468 459.698 886.925 457.711 888.383 455.724 890.111 454.242 892.11 453.267 894.11 452.291 896.302 451.803 898.687 451.803Z" fill-rule="evenodd"/><text fill="#000000" fill-opacity="0" font-family="Arial,Arial_MSFontService,sans-serif" font-size="47.5508" x="882.318" y="493.41">0</text></g></svg>