<svg width="2605" height="390" xmlns="http://www.w3.org/2000/svg" xmlns:xlink="http://www.w3.org/1999/xlink" xml:space="preserve" overflow="hidden"><g transform="translate(-1624 -141)"><path d="M1677.4 268.999C1675.4 268.999 1673.48 269.516 1671.66 270.552 1669.83 271.588 1668.2 273.076 1666.75 275.015 1665.31 276.955 1664.1 279.207 1663.13 281.772 1662.16 284.336 1661.4 286.942 1660.86 289.588 1660.32 292.235 1660.05 294.988 1660.05 297.849 1660.05 300.808 1660.37 303.117 1661.01 304.778 1661.65 306.438 1662.49 307.581 1663.55 308.205 1664.6 308.83 1665.91 309.142 1667.49 309.142 1671.04 309.142 1674.08 307.72 1676.59 304.876 1679.11 302.032 1681.25 297.758 1683.03 292.054 1684.8 286.35 1685.69 281.854 1685.69 278.566 1685.69 275.213 1685.01 272.78 1683.64 271.267 1682.28 269.755 1680.2 268.999 1677.4 268.999ZM1679.97 241.381C1685.46 241.381 1689.57 243.247 1692.3 246.979 1695.03 250.71 1696.39 256.357 1696.39 263.919 1696.39 266.911 1696.13 270.47 1695.6 274.596 1695.08 278.722 1694.19 283.021 1692.94 287.492 1691.69 291.964 1690.24 295.761 1688.6 298.884 1686.96 302.008 1685.13 304.589 1683.13 306.627 1681.12 308.665 1678.81 310.244 1676.2 311.361 1673.58 312.479 1670.63 313.038 1667.34 313.038 1664.02 313.038 1661.15 312.356 1658.71 310.992 1656.28 309.627 1654.44 307.655 1653.19 305.074 1651.94 302.493 1651.32 299.328 1651.32 295.58 1651.32 291.898 1651.89 288.24 1653.04 284.607 1654.19 280.974 1655.88 277.67 1658.1 274.695 1660.32 271.719 1662.96 269.377 1666.04 267.667 1669.11 265.957 1672.41 265.103 1675.93 265.103 1678.29 265.103 1680.36 265.374 1682.14 265.916 1683.91 266.459 1685.89 267.519 1688.06 269.097L1688.16 267.864C1688.25 266.286 1688.3 264.922 1688.3 263.771 1688.3 261.075 1688.14 258.642 1687.81 256.472 1687.48 254.302 1686.93 252.437 1686.16 250.875 1685.39 249.313 1684.35 248.113 1683.05 247.275 1681.75 246.436 1680.12 246.017 1678.14 246.017 1675.74 246.017 1673.52 246.584 1671.46 247.719 1669.41 248.853 1667.39 250.604 1665.42 252.971L1661.87 252.971 1661.87 248.878C1664.99 246.675 1667.42 245.105 1669.14 244.168 1670.87 243.231 1672.6 242.532 1674.32 242.072 1676.05 241.612 1677.93 241.381 1679.97 241.381Z" fill-rule="evenodd"/><text fill="#000000" fill-opacity="0" font-family="Arial,Arial_MSFontService,sans-serif" font-size="71.6567" x="1651.32" y="304.081">∂</text><path d="M1738.57 249.272C1736.53 249.272 1734.39 249.321 1732.16 249.42L1725.45 279.306 1730.58 279.306C1734.56 279.306 1737.77 278.895 1740.22 278.073 1742.67 277.251 1744.68 275.977 1746.24 274.251 1747.8 272.525 1749.01 270.478 1749.86 268.111 1750.72 265.744 1751.14 263.146 1751.14 260.319 1751.14 256.505 1750.18 253.711 1748.24 251.935 1746.3 250.16 1743.07 249.272 1738.57 249.272ZM1717.91 244.932 1739.65 244.932C1743.57 244.932 1746.78 245.236 1749.3 245.845 1751.81 246.453 1753.88 247.39 1755.51 248.656 1757.14 249.921 1758.35 251.524 1759.16 253.464 1759.96 255.404 1760.37 257.656 1760.37 260.22 1760.37 265.152 1759.2 269.426 1756.87 273.043 1754.53 276.659 1751.37 279.322 1747.37 281.032 1743.38 282.741 1738.59 283.596 1733 283.596 1729.64 283.596 1726.85 283.531 1724.61 283.399L1721.46 297.898C1721.16 299.246 1720.96 300.282 1720.84 301.005 1720.72 301.728 1720.63 302.509 1720.54 303.348 1720.46 304.186 1720.42 304.934 1720.42 305.591 1720.42 306.611 1720.59 307.408 1720.91 307.983 1721.24 308.559 1721.74 308.978 1722.39 309.241 1723.05 309.504 1724.19 309.701 1725.8 309.833L1725.25 312.249 1704.98 312.249 1705.53 309.833C1706.78 309.635 1707.71 309.315 1708.34 308.871 1708.96 308.427 1709.49 307.811 1709.92 307.022 1710.34 306.233 1710.74 305.271 1711.1 304.137 1711.46 303.002 1712 300.808 1712.73 297.553L1721.11 259.579C1721.83 256.291 1722.2 253.694 1722.2 251.787 1722.2 250.176 1721.82 249.058 1721.06 248.434 1720.31 247.809 1719.07 247.447 1717.36 247.349Z" fill-rule="evenodd"/><text fill="#000000" fill-opacity="0" font-family="Arial,Arial_MSFontService,sans-serif" font-size="67.3169" x="1704.98" y="303.835">𝑃</text><path d="M1979.75 237.507 1987.35 237.507 1987.35 329.284 1979.75 329.284ZM1805.79 236.61 1807.12 240.407C1799.43 242.939 1793.73 247.879 1790.03 255.227 1786.33 262.575 1784.48 271.805 1784.48 282.918 1784.48 294.425 1786.33 303.91 1790.03 311.374 1793.73 318.837 1799.38 323.834 1806.97 326.366L1805.79 330.163C1796.15 327.631 1788.77 322.182 1783.64 313.815 1778.52 305.447 1775.95 295.313 1775.95 283.411 1775.95 271.542 1778.52 261.408 1783.67 253.008 1788.81 244.607 1796.19 239.141 1805.79 236.61Z" fill-rule="evenodd"/><path d="M1828.4 264.264C1829.42 264.264 1830.31 264.379 1831.09 264.609 1831.86 264.84 1832.54 265.193 1833.13 265.67 1833.73 266.147 1834.25 266.763 1834.71 267.519 1835.17 268.275 1835.62 269.303 1836.04 270.601 1836.47 271.9 1836.87 273.511 1837.25 275.434 1837.63 277.358 1837.97 279.355 1838.26 281.426L1838.76 281.426C1841.91 276.988 1844.3 273.741 1845.93 271.686 1847.56 269.632 1848.93 268.103 1850.05 267.1 1851.17 266.097 1852.24 265.39 1853.28 264.979 1854.32 264.568 1855.69 264.363 1857.4 264.363 1858.94 264.363 1860.21 264.56 1861.19 264.955L1859.22 273.881 1855.77 273.881C1855.57 272.5 1855 271.81 1854.04 271.81 1853.75 271.81 1853.44 271.859 1853.11 271.958 1852.78 272.056 1852.38 272.27 1851.9 272.599 1851.42 272.928 1850.72 273.569 1849.8 274.522 1848.88 275.476 1847.85 276.643 1846.7 278.024 1845.55 279.404 1844.36 280.851 1843.15 282.363L1839.79 286.555C1840.38 289.712 1840.94 292.44 1841.47 294.742 1841.99 297.043 1842.46 298.958 1842.87 300.487 1843.28 302.016 1843.65 303.224 1843.96 304.112 1844.27 305 1844.61 305.665 1844.97 306.109 1845.33 306.553 1845.7 306.865 1846.08 307.046 1846.46 307.227 1846.89 307.318 1847.39 307.318 1848.27 307.318 1849.14 306.972 1849.98 306.282 1850.81 305.591 1852.02 304.03 1853.6 301.597L1856.81 303.717C1854.5 307.137 1852.42 309.545 1850.57 310.942 1848.71 312.34 1846.5 313.038 1843.93 313.038 1842.52 313.038 1841.32 312.783 1840.33 312.274 1839.35 311.764 1838.49 310.95 1837.77 309.833 1837.05 308.715 1836.41 306.972 1835.85 304.605 1834.83 300.397 1834.2 297.175 1833.97 294.939L1833.48 294.939C1829.99 299.838 1827.41 303.356 1825.71 305.493 1824.02 307.63 1822.62 309.208 1821.52 310.227 1820.42 311.246 1819.35 311.961 1818.31 312.372 1817.28 312.783 1815.91 312.989 1814.2 312.989 1812.65 312.989 1811.39 312.792 1810.4 312.397L1812.37 303.471 1815.82 303.471C1816.02 304.852 1816.6 305.542 1817.55 305.542 1818.01 305.542 1818.5 305.419 1819 305.172 1819.51 304.926 1820.25 304.334 1821.2 303.397 1822.15 302.46 1823.47 300.989 1825.14 298.983 1826.82 296.978 1829.25 293.969 1832.44 289.958 1831.95 287.361 1831.44 284.862 1830.91 282.462 1830.39 280.062 1829.85 277.826 1829.29 275.755 1828.73 273.684 1828.27 272.328 1827.91 271.686 1827.54 271.045 1827.16 270.601 1826.75 270.355 1826.34 270.108 1825.82 269.985 1825.19 269.985 1824.5 269.985 1823.88 270.141 1823.32 270.453 1822.76 270.766 1822.15 271.308 1821.5 272.081 1820.84 272.854 1819.97 274.062 1818.88 275.706L1815.68 273.585C1817.75 270.462 1819.74 268.127 1821.64 266.582 1823.55 265.037 1825.8 264.264 1828.4 264.264Z" fill-rule="evenodd"/><text fill="#000000" fill-opacity="0" font-family="Arial,Arial_MSFontService,sans-serif" font-size="48.7739" x="1810.4" y="306.941">𝑥</text><path d="M1872.43 300.808 1881.06 300.808C1881.52 303.109 1881.75 305.378 1881.75 307.613 1881.75 309.915 1881.36 312.019 1880.57 313.926 1879.78 315.833 1878.52 317.731 1876.79 319.622 1875.07 321.512 1872.69 323.592 1869.67 325.86L1867.01 322.852C1868.68 321.274 1869.9 319.852 1870.65 318.586 1871.41 317.321 1871.95 315.882 1872.28 314.271 1872.61 312.66 1872.78 310.638 1872.78 308.205 1872.78 305.707 1872.66 303.241 1872.43 300.808Z" fill-rule="evenodd"/><text fill="#000000" fill-opacity="0" font-family="Arial,Arial_MSFontService,sans-serif" font-size="25.0527" x="1867.01" y="322.729">,</text><path d="M1922.53 252.922 1929.33 252.922 1926.62 265.103 1941.61 265.103 1940.53 270.084 1925.54 270.084 1921.15 289.218C1920.29 292.934 1919.75 295.605 1919.52 297.232 1919.29 298.86 1919.17 300.167 1919.17 301.153 1919.17 305.23 1920.87 307.268 1924.25 307.268 1925.7 307.268 1927.24 306.717 1928.86 305.616 1930.49 304.515 1932.42 302.632 1934.66 299.969L1937.52 302.928C1934.66 306.38 1931.91 308.928 1929.26 310.572 1926.61 312.216 1923.84 313.038 1920.95 313.038 1914.08 313.038 1910.64 309.57 1910.64 302.632 1910.64 300.43 1910.92 298.112 1911.48 295.679L1917.3 270.084 1909.01 270.084 1909.75 266.681C1911.69 266.648 1913.17 266.5 1914.17 266.237 1915.17 265.974 1916.01 265.612 1916.68 265.152 1917.36 264.692 1917.97 264.034 1918.53 263.179 1919.09 262.325 1919.63 261.231 1920.16 259.9 1920.69 258.568 1921.48 256.242 1922.53 252.922Z" fill-rule="evenodd"/><text fill="#000000" fill-opacity="0" font-family="Arial,Arial_MSFontService,sans-serif" font-size="60.1167" x="1909.01" y="305.524">𝑡</text><path d="M2041.3 264.264C2042.31 264.264 2043.21 264.379 2043.98 264.609 2044.76 264.84 2045.44 265.193 2046.03 265.67 2046.62 266.147 2047.15 266.763 2047.61 267.519 2048.07 268.275 2048.51 269.303 2048.94 270.601 2049.37 271.9 2049.77 273.511 2050.15 275.434 2050.53 277.358 2050.86 279.355 2051.16 281.426L2051.65 281.426C2054.81 276.988 2057.2 273.741 2058.83 271.686 2060.45 269.632 2061.83 268.103 2062.95 267.1 2064.06 266.097 2065.14 265.39 2066.18 264.979 2067.21 264.568 2068.58 264.363 2070.29 264.363 2071.84 264.363 2073.1 264.56 2074.09 264.955L2072.12 273.881 2068.67 273.881C2068.47 272.5 2067.89 271.81 2066.94 271.81 2066.64 271.81 2066.33 271.859 2066 271.958 2065.67 272.056 2065.27 272.27 2064.79 272.599 2064.32 272.928 2063.62 273.569 2062.7 274.522 2061.78 275.476 2060.74 276.643 2059.59 278.024 2058.44 279.404 2057.26 280.851 2056.04 282.363L2052.69 286.555C2053.28 289.712 2053.84 292.44 2054.36 294.742 2054.89 297.043 2055.36 298.958 2055.77 300.487 2056.18 302.016 2056.54 303.224 2056.85 304.112 2057.17 305 2057.5 305.665 2057.87 306.109 2058.23 306.553 2058.6 306.865 2058.98 307.046 2059.35 307.227 2059.79 307.318 2060.28 307.318 2061.17 307.318 2062.03 306.972 2062.87 306.282 2063.71 305.591 2064.92 304.03 2066.5 301.597L2069.7 303.717C2067.4 307.137 2065.32 309.545 2063.46 310.942 2061.61 312.34 2059.39 313.038 2056.83 313.038 2055.42 313.038 2054.22 312.783 2053.23 312.274 2052.24 311.764 2051.39 310.95 2050.67 309.833 2049.94 308.715 2049.3 306.972 2048.74 304.605 2047.72 300.397 2047.1 297.175 2046.87 294.939L2046.38 294.939C2042.89 299.838 2040.3 303.356 2038.61 305.493 2036.91 307.63 2035.52 309.208 2034.42 310.227 2033.31 311.246 2032.25 311.961 2031.21 312.372 2030.17 312.783 2028.8 312.989 2027.09 312.989 2025.55 312.989 2024.28 312.792 2023.29 312.397L2025.27 303.471 2028.72 303.471C2028.92 304.852 2029.49 305.542 2030.45 305.542 2030.91 305.542 2031.39 305.419 2031.9 305.172 2032.41 304.926 2033.14 304.334 2034.1 303.397 2035.05 302.46 2036.36 300.989 2038.04 298.983 2039.72 296.978 2042.15 293.969 2045.34 289.958 2044.85 287.361 2044.34 284.862 2043.81 282.462 2043.28 280.062 2042.74 277.826 2042.18 275.755 2041.62 273.684 2041.16 272.328 2040.8 271.686 2040.44 271.045 2040.05 270.601 2039.64 270.355 2039.23 270.108 2038.71 269.985 2038.09 269.985 2037.4 269.985 2036.77 270.141 2036.22 270.453 2035.66 270.766 2035.05 271.308 2034.39 272.081 2033.73 272.854 2032.86 274.062 2031.78 275.706L2028.57 273.585C2030.64 270.462 2032.63 268.127 2034.54 266.582 2036.45 265.037 2038.7 264.264 2041.3 264.264Z" fill-rule="evenodd"/><text fill="#000000" fill-opacity="0" font-family="Arial,Arial_MSFontService,sans-serif" font-size="48.7739" x="2023.29" y="306.941">𝑥</text><path d="M2096.11 289.541C2094.42 289.541 2093.02 289.981 2091.88 290.86 2090.75 291.739 2089.85 293.028 2089.19 294.726 2088.53 296.424 2088.06 298.496 2087.78 300.941 2087.51 303.386 2087.37 306.162 2087.37 309.27 2087.37 312.859 2087.54 315.96 2087.89 318.574 2088.24 321.188 2088.78 323.337 2089.52 325.024 2090.25 326.71 2091.17 327.95 2092.28 328.745 2093.39 329.54 2094.71 329.938 2096.26 329.938 2097.7 329.938 2098.97 329.564 2100.05 328.818 2101.13 328.071 2102.03 326.909 2102.74 325.331 2103.45 323.753 2103.99 321.754 2104.35 319.333 2104.71 316.912 2104.89 314.051 2104.89 310.751 2104.89 307.042 2104.69 303.85 2104.29 301.176 2103.9 298.502 2103.34 296.304 2102.61 294.582 2101.89 292.859 2100.98 291.589 2099.89 290.77 2098.79 289.951 2097.53 289.541 2096.11 289.541ZM2096.26 286.036C2099.12 286.036 2101.57 286.572 2103.61 287.644 2105.64 288.716 2107.31 290.246 2108.59 292.233 2109.88 294.22 2110.83 296.647 2111.43 299.514 2112.03 302.38 2112.33 305.62 2112.33 309.234 2112.33 317.255 2110.91 323.319 2108.07 327.426 2105.23 331.534 2101.11 333.587 2095.71 333.587 2090.37 333.587 2086.39 331.648 2083.79 327.77 2081.19 323.891 2079.89 318.014 2079.89 310.137 2079.89 306.018 2080.29 302.453 2081.1 299.442 2081.9 296.431 2083.04 293.931 2084.49 291.944 2085.95 289.957 2087.68 288.475 2089.68 287.5 2091.68 286.524 2093.87 286.036 2096.26 286.036Z" fill-rule="evenodd"/><text fill="#000000" fill-opacity="0" font-family="Arial,Arial_MSFontService,sans-serif" font-size="47.5508" x="2079.89" y="327.643">0</text><path d="M2124.48 240.987C2134.08 243.519 2141.45 248.984 2146.6 257.385 2151.74 265.785 2154.32 275.919 2154.32 287.788 2154.32 299.69 2151.75 309.824 2146.62 318.192 2141.49 326.559 2134.11 332.009 2124.48 334.54L2123.3 330.743C2130.89 328.211 2136.54 323.214 2140.24 315.751 2143.93 308.287 2145.78 298.802 2145.78 287.295 2145.78 276.182 2143.94 266.952 2140.26 259.604 2136.58 252.256 2130.87 247.316 2123.15 244.784Z" fill-rule="evenodd"/><text fill="#000000" fill-opacity="0" font-family="Arial,Arial_MSFontService,sans-serif" font-size="93.5532" x="2123.15" y="322.846">)</text><path d="M1886.86 412.755C1884.86 412.755 1882.94 413.273 1881.12 414.308 1879.29 415.344 1877.66 416.832 1876.21 418.771 1874.76 420.711 1873.56 422.963 1872.59 425.528 1871.62 428.092 1870.86 430.698 1870.32 433.344 1869.77 435.991 1869.5 438.745 1869.5 441.605 1869.5 444.564 1869.82 446.874 1870.47 448.534 1871.11 450.194 1871.95 451.337 1873.01 451.961 1874.06 452.586 1875.37 452.898 1876.95 452.898 1880.5 452.898 1883.53 451.476 1886.05 448.633 1888.56 445.789 1890.71 441.515 1892.49 435.81 1894.26 430.106 1895.15 425.61 1895.15 422.322 1895.15 418.969 1894.47 416.536 1893.1 415.023 1891.74 413.511 1889.66 412.755 1886.86 412.755ZM1889.43 385.138C1894.92 385.138 1899.03 387.004 1901.76 390.735 1904.49 394.467 1905.85 400.113 1905.85 407.675 1905.85 410.667 1905.59 414.226 1905.06 418.352 1904.53 422.478 1903.65 426.777 1902.4 431.249 1901.15 435.72 1899.7 439.517 1898.06 442.641 1896.41 445.764 1894.59 448.345 1892.58 450.383 1890.58 452.422 1888.27 454 1885.65 455.118 1883.04 456.236 1880.09 456.794 1876.8 456.794 1873.48 456.794 1870.61 456.112 1868.17 454.748 1865.74 453.383 1863.9 451.411 1862.65 448.83 1861.4 446.249 1860.77 443.084 1860.77 439.336 1860.77 435.654 1861.35 431.996 1862.5 428.364 1863.65 424.731 1865.34 421.426 1867.56 418.451 1869.77 415.476 1872.42 413.133 1875.5 411.423 1878.57 409.714 1881.87 408.859 1885.38 408.859 1887.75 408.859 1889.82 409.13 1891.6 409.673 1893.37 410.215 1895.35 411.275 1897.52 412.854L1897.61 411.621C1897.71 410.042 1897.76 408.678 1897.76 407.527 1897.76 404.831 1897.6 402.398 1897.27 400.229 1896.94 398.059 1896.39 396.193 1895.62 394.631 1894.84 393.069 1893.81 391.869 1892.51 391.031 1891.21 390.193 1889.58 389.773 1887.6 389.773 1885.2 389.773 1882.98 390.341 1880.92 391.475 1878.87 392.609 1876.85 394.36 1874.88 396.727L1871.33 396.727 1871.33 392.634C1874.45 390.431 1876.88 388.861 1878.6 387.924 1880.33 386.987 1882.05 386.288 1883.78 385.828 1885.51 385.368 1887.39 385.138 1889.43 385.138Z" fill-rule="evenodd"/><text fill="#000000" fill-opacity="0" font-family="Arial,Arial_MSFontService,sans-serif" font-size="71.6567" x="1860.77" y="447.837">∂</text><path d="M1930.91 396.678 1937.72 396.678 1935.01 408.859 1950 408.859 1948.92 413.84 1933.92 413.84 1929.53 432.975C1928.68 436.69 1928.14 439.361 1927.91 440.989 1927.68 442.616 1927.56 443.923 1927.56 444.909 1927.56 448.986 1929.25 451.024 1932.64 451.024 1934.09 451.024 1935.62 450.474 1937.25 449.372 1938.88 448.271 1940.81 446.389 1943.05 443.726L1945.91 446.685C1943.05 450.137 1940.29 452.685 1937.65 454.329 1935 455.973 1932.23 456.794 1929.34 456.794 1922.47 456.794 1919.03 453.326 1919.03 446.389 1919.03 444.186 1919.31 441.868 1919.87 439.435L1925.69 413.84 1917.4 413.84 1918.14 410.437C1920.08 410.404 1921.55 410.256 1922.56 409.993 1923.56 409.73 1924.4 409.368 1925.07 408.908 1925.74 408.448 1926.36 407.79 1926.92 406.936 1927.48 406.081 1928.02 404.988 1928.55 403.656 1929.07 402.324 1929.86 399.998 1930.91 396.678Z" fill-rule="evenodd"/><text fill="#000000" fill-opacity="0" font-family="Arial,Arial_MSFontService,sans-serif" font-size="60.1167" x="1917.4" y="449.28">𝑡</text><path d="M1647.49 356.57 2163.49 356.57 2163.49 363.57 1647.49 363.57Z" fill-rule="evenodd"/><path d="M2198.45 366.665 2259.21 366.665 2259.21 373.224 2198.45 373.224ZM2198.45 346.199 2259.21 346.199 2259.21 352.758 2198.45 352.758Z" fill-rule="evenodd"/><text fill="#000000" fill-opacity="0" font-family="Arial,Arial_MSFontService,sans-serif" font-size="27.0254" x="2198.45" y="369.846">=</text><path d="M2328.73 325.535C2327.28 325.535 2325.72 325.585 2324.04 325.683L2311.27 384.025C2312.22 384.123 2314.05 384.172 2316.74 384.172 2322.07 384.172 2326.59 383.244 2330.31 381.386 2334.02 379.529 2337.23 376.619 2339.92 372.657 2342.62 368.695 2344.61 364.52 2345.89 360.131 2347.17 355.742 2347.81 351.114 2347.81 346.248 2347.81 339.377 2346.21 334.207 2343 330.738 2339.8 327.27 2335.04 325.535 2328.73 325.535ZM2309.89 321.245 2328.58 321.245C2333.54 321.245 2337.57 321.623 2340.66 322.379 2343.75 323.135 2346.64 324.5 2349.32 326.472 2352 328.445 2354.01 331.067 2355.36 334.338 2356.71 337.61 2357.38 341.481 2357.38 345.952 2357.38 350.391 2356.87 354.632 2355.85 358.676 2354.83 362.72 2353.37 366.443 2351.46 369.846 2349.56 373.249 2347.27 376.208 2344.61 378.723 2341.94 381.238 2339.36 383.17 2336.86 384.518 2334.37 385.866 2331.57 386.877 2328.48 387.551 2325.39 388.225 2321.79 388.562 2317.68 388.562L2296.97 388.562 2297.51 386.145C2298.76 385.948 2299.7 385.627 2300.32 385.183 2300.95 384.74 2301.47 384.123 2301.9 383.334 2302.33 382.545 2302.72 381.583 2303.08 380.449 2303.44 379.315 2303.99 377.12 2304.71 373.865L2313.09 335.892C2313.82 332.604 2314.18 329.957 2314.18 327.952 2314.18 326.406 2313.79 325.33 2313.02 324.722 2312.25 324.113 2311.02 323.76 2309.35 323.661Z" fill-rule="evenodd"/><text fill="#000000" fill-opacity="0" font-family="Arial,Arial_MSFontService,sans-serif" font-size="67.3169" x="2296.97" y="380.147">𝐷</text><path d="M2414.04 268.999C2412.03 268.999 2410.12 269.516 2408.29 270.552 2406.47 271.588 2404.83 273.076 2403.39 275.015 2401.94 276.955 2400.73 279.207 2399.76 281.772 2398.79 284.336 2398.03 286.942 2397.49 289.588 2396.95 292.235 2396.68 294.988 2396.68 297.849 2396.68 300.808 2397 303.117 2397.64 304.778 2398.28 306.438 2399.13 307.581 2400.18 308.205 2401.23 308.83 2402.55 309.142 2404.13 309.142 2407.68 309.142 2410.71 307.72 2413.22 304.876 2415.74 302.032 2417.88 297.758 2419.66 292.054 2421.44 286.35 2422.32 281.854 2422.32 278.566 2422.32 275.213 2421.64 272.78 2420.28 271.267 2418.91 269.755 2416.83 268.999 2414.04 268.999ZM2416.6 241.381C2422.09 241.381 2426.2 243.247 2428.93 246.979 2431.66 250.71 2433.02 256.357 2433.02 263.919 2433.02 266.911 2432.76 270.47 2432.24 274.596 2431.71 278.722 2430.82 283.021 2429.57 287.492 2428.32 291.964 2426.88 295.761 2425.23 298.884 2423.59 302.008 2421.76 304.589 2419.76 306.627 2417.75 308.665 2415.44 310.244 2412.83 311.361 2410.22 312.479 2407.27 313.038 2403.98 313.038 2400.66 313.038 2397.78 312.356 2395.35 310.992 2392.91 309.627 2391.07 307.655 2389.82 305.074 2388.57 302.493 2387.95 299.328 2387.95 295.58 2387.95 291.898 2388.53 288.24 2389.68 284.607 2390.83 280.974 2392.51 277.67 2394.73 274.695 2396.95 271.719 2399.6 269.377 2402.67 267.667 2405.74 265.957 2409.04 265.103 2412.56 265.103 2414.93 265.103 2417 265.374 2418.77 265.916 2420.55 266.459 2422.52 267.519 2424.69 269.097L2424.79 267.864C2424.89 266.286 2424.94 264.922 2424.94 263.771 2424.94 261.075 2424.77 258.642 2424.44 256.472 2424.11 254.302 2423.56 252.437 2422.79 250.875 2422.02 249.313 2420.98 248.113 2419.68 247.275 2418.39 246.436 2416.75 246.017 2414.78 246.017 2412.38 246.017 2410.15 246.584 2408.1 247.719 2406.04 248.853 2404.03 250.604 2402.05 252.971L2398.5 252.971 2398.5 248.878C2401.63 246.675 2404.05 245.105 2405.78 244.168 2407.5 243.231 2409.23 242.532 2410.96 242.072 2412.68 241.612 2414.56 241.381 2416.6 241.381Z" fill-rule="evenodd"/><text fill="#000000" fill-opacity="0" font-family="Arial,Arial_MSFontService,sans-serif" font-size="71.6567" x="2387.95" y="304.081">∂</text><path d="M2460.38 228.538C2462.88 228.538 2465.02 228.821 2466.79 229.388 2468.56 229.954 2470 230.718 2471.11 231.682 2472.22 232.645 2473.02 233.802 2473.51 235.151 2474.01 236.5 2474.25 237.957 2474.25 239.523 2474.25 240.462 2474.19 241.335 2474.05 242.142 2473.92 242.949 2473.69 243.744 2473.37 244.527 2473.04 245.31 2472.62 246.099 2472.09 246.894 2471.56 247.689 2470.89 248.532 2470.1 249.423 2469.5 250.194 2468.71 251.085 2467.75 252.097 2466.79 253.109 2465.73 254.193 2464.59 255.349 2463.44 256.505 2462.25 257.71 2460.99 258.962 2459.74 260.215 2458.52 261.455 2457.34 262.684 2456.16 263.912 2455.08 265.105 2454.09 266.261 2453.1 267.417 2452.3 268.477 2451.67 269.441L2465.04 269.441C2466.17 269.441 2467.07 269.399 2467.75 269.314 2468.42 269.23 2468.98 269.043 2469.43 268.754 2469.88 268.465 2470.25 268.026 2470.57 267.435 2470.88 266.845 2471.24 266.032 2471.65 264.996L2475.01 264.996C2474.89 266.707 2474.78 268.429 2474.67 270.163 2474.56 271.898 2474.45 273.62 2474.33 275.33L2443.72 275.33 2443.72 273.451C2444.3 272.151 2444.97 270.868 2445.74 269.603 2446.52 268.339 2447.38 267.056 2448.35 265.755 2449.31 264.454 2450.41 263.111 2451.63 261.726 2452.86 260.341 2454.22 258.902 2455.72 257.409 2457.98 255.144 2459.82 253.211 2461.25 251.609 2462.67 250.007 2463.79 248.58 2464.61 247.327 2465.43 246.075 2465.99 244.919 2466.29 243.859 2466.59 242.799 2466.74 241.667 2466.74 240.462 2466.74 239.234 2466.56 238.102 2466.21 237.066 2465.86 236.03 2465.36 235.151 2464.71 234.428 2464.06 233.705 2463.24 233.139 2462.24 232.73 2461.24 232.32 2460.09 232.116 2458.79 232.116 2456.55 232.116 2454.67 232.724 2453.15 233.94 2451.63 235.157 2450.45 236.921 2449.61 239.234L2444.88 239.234 2444.88 232.188C2447.96 230.911 2450.8 229.984 2453.39 229.406 2455.98 228.827 2458.31 228.538 2460.38 228.538Z" fill-rule="evenodd"/><text fill="#000000" fill-opacity="0" font-family="Arial,Arial_MSFontService,sans-serif" font-size="46.792" x="2443.72" y="269.481">2</text><path d="M2521.79 249.272C2519.75 249.272 2517.62 249.321 2515.38 249.42L2508.67 279.306 2513.8 279.306C2517.78 279.306 2520.99 278.895 2523.44 278.073 2525.89 277.251 2527.9 275.977 2529.46 274.251 2531.02 272.525 2532.23 270.478 2533.09 268.111 2533.94 265.744 2534.37 263.146 2534.37 260.319 2534.37 256.505 2533.4 253.711 2531.46 251.935 2529.52 250.16 2526.3 249.272 2521.79 249.272ZM2501.13 244.932 2522.88 244.932C2526.79 244.932 2530 245.236 2532.52 245.845 2535.03 246.453 2537.1 247.39 2538.73 248.656 2540.36 249.921 2541.58 251.524 2542.38 253.464 2543.19 255.404 2543.59 257.656 2543.59 260.22 2543.59 265.152 2542.42 269.426 2540.09 273.043 2537.75 276.659 2534.59 279.322 2530.6 281.032 2526.6 282.741 2521.81 283.596 2516.22 283.596 2512.87 283.596 2510.07 283.531 2507.84 283.399L2504.68 297.898C2504.38 299.246 2504.18 300.282 2504.06 301.005 2503.95 301.728 2503.85 302.509 2503.77 303.348 2503.68 304.186 2503.64 304.934 2503.64 305.591 2503.64 306.611 2503.81 307.408 2504.14 307.983 2504.47 308.559 2504.96 308.978 2505.62 309.241 2506.27 309.504 2507.41 309.701 2509.02 309.833L2508.48 312.249 2488.21 312.249 2488.75 309.833C2490 309.635 2490.94 309.315 2491.56 308.871 2492.19 308.427 2492.71 307.811 2493.14 307.022 2493.57 306.233 2493.96 305.271 2494.32 304.137 2494.68 303.002 2495.23 300.808 2495.95 297.553L2504.33 259.579C2505.06 256.291 2505.42 253.694 2505.42 251.787 2505.42 250.176 2505.04 249.058 2504.28 248.434 2503.53 247.809 2502.3 247.447 2500.59 247.349Z" fill-rule="evenodd"/><text fill="#000000" fill-opacity="0" font-family="Arial,Arial_MSFontService,sans-serif" font-size="67.3169" x="2488.21" y="303.835">𝑃</text><path d="M2762.98 237.507 2770.57 237.507 2770.57 329.284 2762.98 329.284ZM2589.01 236.61 2590.34 240.407C2582.65 242.939 2576.95 247.879 2573.25 255.227 2569.55 262.575 2567.71 271.805 2567.71 282.918 2567.71 294.425 2569.55 303.91 2573.25 311.374 2576.95 318.837 2582.6 323.834 2590.19 326.366L2589.01 330.163C2579.38 327.631 2572 322.182 2566.87 313.815 2561.74 305.447 2559.17 295.313 2559.17 283.411 2559.17 271.542 2561.75 261.408 2566.89 253.008 2572.04 244.607 2579.41 239.141 2589.01 236.61Z" fill-rule="evenodd"/><path d="M2611.62 264.264C2612.64 264.264 2613.54 264.379 2614.31 264.609 2615.08 264.84 2615.77 265.193 2616.36 265.67 2616.95 266.147 2617.47 266.763 2617.94 267.519 2618.4 268.275 2618.84 269.303 2619.27 270.601 2619.69 271.9 2620.1 273.511 2620.47 275.434 2620.85 277.358 2621.19 279.355 2621.49 281.426L2621.98 281.426C2625.14 276.988 2627.53 273.741 2629.15 271.686 2630.78 269.632 2632.15 268.103 2633.27 267.1 2634.39 266.097 2635.47 265.39 2636.5 264.979 2637.54 264.568 2638.91 264.363 2640.62 264.363 2642.17 264.363 2643.43 264.56 2644.42 264.955L2642.45 273.881 2638.99 273.881C2638.8 272.5 2638.22 271.81 2637.27 271.81 2636.97 271.81 2636.66 271.859 2636.33 271.958 2636 272.056 2635.6 272.27 2635.12 272.599 2634.65 272.928 2633.95 273.569 2633.03 274.522 2632.11 275.476 2631.07 276.643 2629.92 278.024 2628.77 279.404 2627.58 280.851 2626.37 282.363L2623.01 286.555C2623.61 289.712 2624.17 292.44 2624.69 294.742 2625.22 297.043 2625.69 298.958 2626.1 300.487 2626.51 302.016 2626.87 303.224 2627.18 304.112 2627.49 305 2627.83 305.665 2628.19 306.109 2628.55 306.553 2628.92 306.865 2629.3 307.046 2629.68 307.227 2630.12 307.318 2630.61 307.318 2631.5 307.318 2632.36 306.972 2633.2 306.282 2634.04 305.591 2635.25 304.03 2636.82 301.597L2640.03 303.717C2637.73 307.137 2635.65 309.545 2633.79 310.942 2631.93 312.34 2629.72 313.038 2627.16 313.038 2625.74 313.038 2624.54 312.783 2623.56 312.274 2622.57 311.764 2621.72 310.95 2620.99 309.833 2620.27 308.715 2619.63 306.972 2619.07 304.605 2618.05 300.397 2617.43 297.175 2617.2 294.939L2616.7 294.939C2613.22 299.838 2610.63 303.356 2608.93 305.493 2607.24 307.63 2605.84 309.208 2604.74 310.227 2603.64 311.246 2602.57 311.961 2601.54 312.372 2600.5 312.783 2599.13 312.989 2597.42 312.989 2595.87 312.989 2594.61 312.792 2593.62 312.397L2595.59 303.471 2599.05 303.471C2599.24 304.852 2599.82 305.542 2600.77 305.542 2601.23 305.542 2601.72 305.419 2602.23 305.172 2602.74 304.926 2603.47 304.334 2604.42 303.397 2605.38 302.46 2606.69 300.989 2608.37 298.983 2610.04 296.978 2612.48 293.969 2615.67 289.958 2615.17 287.361 2614.66 284.862 2614.14 282.462 2613.61 280.062 2613.07 277.826 2612.51 275.755 2611.95 273.684 2611.49 272.328 2611.13 271.686 2610.77 271.045 2610.38 270.601 2609.97 270.355 2609.56 270.108 2609.04 269.985 2608.42 269.985 2607.73 269.985 2607.1 270.141 2606.54 270.453 2605.98 270.766 2605.38 271.308 2604.72 272.081 2604.06 272.854 2603.19 274.062 2602.1 275.706L2598.9 273.585C2600.97 270.462 2602.96 268.127 2604.87 266.582 2606.77 265.037 2609.03 264.264 2611.62 264.264Z" fill-rule="evenodd"/><text fill="#000000" fill-opacity="0" font-family="Arial,Arial_MSFontService,sans-serif" font-size="48.7739" x="2593.62" y="306.941">𝑥</text><path d="M2655.65 300.808 2664.28 300.808C2664.74 303.109 2664.97 305.378 2664.97 307.613 2664.97 309.915 2664.58 312.019 2663.79 313.926 2663 315.833 2661.74 317.731 2660.02 319.622 2658.29 321.512 2655.92 323.592 2652.89 325.86L2650.23 322.852C2651.91 321.274 2653.12 319.852 2653.88 318.586 2654.63 317.321 2655.18 315.882 2655.51 314.271 2655.83 312.66 2656 310.638 2656 308.205 2656 305.707 2655.88 303.241 2655.65 300.808Z" fill-rule="evenodd"/><text fill="#000000" fill-opacity="0" font-family="Arial,Arial_MSFontService,sans-serif" font-size="25.0527" x="2650.23" y="322.729">,</text><path d="M2705.75 252.922 2712.56 252.922 2709.84 265.103 2724.84 265.103 2723.75 270.084 2708.76 270.084 2704.37 289.218C2703.51 292.934 2702.97 295.605 2702.74 297.232 2702.51 298.86 2702.4 300.167 2702.4 301.153 2702.4 305.23 2704.09 307.268 2707.48 307.268 2708.92 307.268 2710.46 306.717 2712.09 305.616 2713.71 304.515 2715.65 302.632 2717.88 299.969L2720.74 302.928C2717.88 306.38 2715.13 308.928 2712.48 310.572 2709.84 312.216 2707.07 313.038 2704.17 313.038 2697.3 313.038 2693.86 309.57 2693.86 302.632 2693.86 300.43 2694.14 298.112 2694.7 295.679L2700.52 270.084 2692.24 270.084 2692.98 266.681C2694.92 266.648 2696.39 266.5 2697.39 266.237 2698.39 265.974 2699.23 265.612 2699.91 265.152 2700.58 264.692 2701.2 264.034 2701.76 263.179 2702.31 262.325 2702.86 261.231 2703.38 259.9 2703.91 258.568 2704.7 256.242 2705.75 252.922Z" fill-rule="evenodd"/><text fill="#000000" fill-opacity="0" font-family="Arial,Arial_MSFontService,sans-serif" font-size="60.1167" x="2692.24" y="305.524">𝑡</text><path d="M2824.52 264.264C2825.54 264.264 2826.43 264.379 2827.21 264.609 2827.98 264.84 2828.66 265.193 2829.25 265.67 2829.84 266.147 2830.37 266.763 2830.83 267.519 2831.29 268.275 2831.73 269.303 2832.16 270.601 2832.59 271.9 2832.99 273.511 2833.37 275.434 2833.75 277.358 2834.09 279.355 2834.38 281.426L2834.87 281.426C2838.03 276.988 2840.42 273.741 2842.05 271.686 2843.68 269.632 2845.05 268.103 2846.17 267.1 2847.29 266.097 2848.36 265.39 2849.4 264.979 2850.43 264.568 2851.81 264.363 2853.52 264.363 2855.06 264.363 2856.33 264.56 2857.31 264.955L2855.34 273.881 2851.89 273.881C2851.69 272.5 2851.12 271.81 2850.16 271.81 2849.87 271.81 2849.55 271.859 2849.23 271.958 2848.9 272.056 2848.49 272.27 2848.02 272.599 2847.54 272.928 2846.84 273.569 2845.92 274.522 2845 275.476 2843.97 276.643 2842.81 278.024 2841.66 279.404 2840.48 280.851 2839.26 282.363L2835.91 286.555C2836.5 289.712 2837.06 292.44 2837.59 294.742 2838.11 297.043 2838.58 298.958 2838.99 300.487 2839.4 302.016 2839.77 303.224 2840.08 304.112 2840.39 305 2840.73 305.665 2841.09 306.109 2841.45 306.553 2841.82 306.865 2842.2 307.046 2842.58 307.227 2843.01 307.318 2843.51 307.318 2844.39 307.318 2845.26 306.972 2846.09 306.282 2846.93 305.591 2848.14 304.03 2849.72 301.597L2852.92 303.717C2850.62 307.137 2848.54 309.545 2846.69 310.942 2844.83 312.34 2842.62 313.038 2840.05 313.038 2838.64 313.038 2837.44 312.783 2836.45 312.274 2835.47 311.764 2834.61 310.95 2833.89 309.833 2833.17 308.715 2832.52 306.972 2831.97 304.605 2830.95 300.397 2830.32 297.175 2830.09 294.939L2829.6 294.939C2826.11 299.838 2823.52 303.356 2821.83 305.493 2820.14 307.63 2818.74 309.208 2817.64 310.227 2816.54 311.246 2815.47 311.961 2814.43 312.372 2813.4 312.783 2812.02 312.989 2810.32 312.989 2808.77 312.989 2807.5 312.792 2806.52 312.397L2808.49 303.471 2811.94 303.471C2812.14 304.852 2812.72 305.542 2813.67 305.542 2814.13 305.542 2814.61 305.419 2815.12 305.172 2815.63 304.926 2816.36 304.334 2817.32 303.397 2818.27 302.46 2819.59 300.989 2821.26 298.983 2822.94 296.978 2825.37 293.969 2828.56 289.958 2828.07 287.361 2827.56 284.862 2827.03 282.462 2826.51 280.062 2825.96 277.826 2825.41 275.755 2824.85 273.684 2824.39 272.328 2824.03 271.686 2823.66 271.045 2823.28 270.601 2822.87 270.355 2822.46 270.108 2821.94 269.985 2821.31 269.985 2820.62 269.985 2820 270.141 2819.44 270.453 2818.88 270.766 2818.27 271.308 2817.61 272.081 2816.96 272.854 2816.09 274.062 2815 275.706L2811.79 273.585C2813.87 270.462 2815.85 268.127 2817.76 266.582 2819.67 265.037 2821.92 264.264 2824.52 264.264Z" fill-rule="evenodd"/><text fill="#000000" fill-opacity="0" font-family="Arial,Arial_MSFontService,sans-serif" font-size="48.7739" x="2806.52" y="306.941">𝑥</text><path d="M2879.33 289.541C2877.65 289.541 2876.24 289.981 2875.11 290.86 2873.97 291.739 2873.08 293.028 2872.41 294.726 2871.75 296.424 2871.28 298.496 2871.01 300.941 2870.73 303.386 2870.59 306.162 2870.59 309.27 2870.59 312.859 2870.76 315.96 2871.11 318.574 2871.46 321.188 2872 323.337 2872.74 325.024 2873.47 326.71 2874.4 327.95 2875.5 328.745 2876.61 329.54 2877.94 329.938 2879.48 329.938 2880.92 329.938 2882.19 329.564 2883.27 328.818 2884.36 328.071 2885.25 326.909 2885.96 325.331 2886.67 323.753 2887.21 321.754 2887.57 319.333 2887.93 316.912 2888.11 314.051 2888.11 310.751 2888.11 307.042 2887.92 303.85 2887.52 301.176 2887.12 298.502 2886.56 296.304 2885.84 294.582 2885.11 292.859 2884.21 291.589 2883.11 290.77 2882.01 289.951 2880.75 289.541 2879.33 289.541ZM2879.48 286.036C2882.34 286.036 2884.8 286.572 2886.83 287.644 2888.87 288.716 2890.53 290.246 2891.82 292.233 2893.11 294.22 2894.05 296.647 2894.65 299.514 2895.26 302.38 2895.56 305.62 2895.56 309.234 2895.56 317.255 2894.14 323.319 2891.29 327.426 2888.45 331.534 2884.33 333.587 2878.94 333.587 2873.59 333.587 2869.61 331.648 2867.01 327.77 2864.41 323.891 2863.11 318.014 2863.11 310.137 2863.11 306.018 2863.51 302.453 2864.32 299.442 2865.13 296.431 2866.26 293.931 2867.72 291.944 2869.17 289.957 2870.9 288.475 2872.9 287.5 2874.9 286.524 2877.09 286.036 2879.48 286.036Z" fill-rule="evenodd"/><text fill="#000000" fill-opacity="0" font-family="Arial,Arial_MSFontService,sans-serif" font-size="47.5508" x="2863.11" y="327.643">0</text><path d="M2907.7 240.987C2917.3 243.519 2924.68 248.984 2929.82 257.385 2934.97 265.785 2937.54 275.919 2937.54 287.788 2937.54 299.69 2934.97 309.824 2929.85 318.192 2924.72 326.559 2917.34 332.009 2907.7 334.54L2906.52 330.743C2914.11 328.211 2919.76 323.214 2923.46 315.751 2927.16 308.287 2929.01 298.802 2929.01 287.295 2929.01 276.182 2927.17 266.952 2923.48 259.604 2919.8 252.256 2914.1 247.316 2906.37 244.784Z" fill-rule="evenodd"/><text fill="#000000" fill-opacity="0" font-family="Arial,Arial_MSFontService,sans-serif" font-size="93.5532" x="2906.37" y="322.846">)</text><path d="M2614.81 412.755C2612.81 412.755 2610.89 413.273 2609.07 414.308 2607.24 415.344 2605.61 416.832 2604.16 418.771 2602.71 420.711 2601.5 422.963 2600.53 425.528 2599.56 428.092 2598.81 430.698 2598.27 433.344 2597.72 435.991 2597.45 438.745 2597.45 441.605 2597.45 444.564 2597.77 446.874 2598.41 448.534 2599.05 450.194 2599.9 451.337 2600.95 451.961 2602.01 452.586 2603.32 452.898 2604.9 452.898 2608.45 452.898 2611.48 451.476 2614 448.633 2616.51 445.789 2618.66 441.515 2620.43 435.81 2622.21 430.106 2623.1 425.61 2623.1 422.322 2623.1 418.969 2622.41 416.536 2621.05 415.023 2619.69 413.511 2617.61 412.755 2614.81 412.755ZM2617.38 385.138C2622.87 385.138 2626.98 387.004 2629.7 390.735 2632.43 394.467 2633.8 400.113 2633.8 407.675 2633.8 410.667 2633.53 414.226 2633.01 418.352 2632.48 422.478 2631.59 426.777 2630.35 431.249 2629.1 435.72 2627.65 439.517 2626.01 442.641 2624.36 445.764 2622.54 448.345 2620.53 450.383 2618.53 452.422 2616.22 454 2613.6 455.118 2610.99 456.236 2608.04 456.794 2604.75 456.794 2601.43 456.794 2598.55 456.112 2596.12 454.748 2593.69 453.383 2591.85 451.411 2590.6 448.83 2589.35 446.249 2588.72 443.084 2588.72 439.336 2588.72 435.654 2589.3 431.996 2590.45 428.364 2591.6 424.731 2593.28 421.426 2595.5 418.451 2597.72 415.476 2600.37 413.133 2603.44 411.423 2606.52 409.714 2609.81 408.859 2613.33 408.859 2615.7 408.859 2617.77 409.13 2619.55 409.673 2621.32 410.215 2623.29 411.275 2625.46 412.854L2625.56 411.621C2625.66 410.042 2625.71 408.678 2625.71 407.527 2625.71 404.831 2625.55 402.398 2625.22 400.229 2624.89 398.059 2624.34 396.193 2623.56 394.631 2622.79 393.069 2621.76 391.869 2620.46 391.031 2619.16 390.193 2617.52 389.773 2615.55 389.773 2613.15 389.773 2610.92 390.341 2608.87 391.475 2606.81 392.609 2604.8 394.36 2602.83 396.727L2599.28 396.727 2599.28 392.634C2602.4 390.431 2604.82 388.861 2606.55 387.924 2608.28 386.987 2610 386.288 2611.73 385.828 2613.45 385.368 2615.34 385.138 2617.38 385.138Z" fill-rule="evenodd"/><text fill="#000000" fill-opacity="0" font-family="Arial,Arial_MSFontService,sans-serif" font-size="71.6567" x="2588.72" y="447.837">∂</text><path d="M2659.06 408.021C2660.08 408.021 2660.98 408.136 2661.75 408.366 2662.52 408.596 2663.2 408.949 2663.79 409.426 2664.39 409.903 2664.91 410.519 2665.37 411.275 2665.83 412.032 2666.28 413.059 2666.7 414.358 2667.13 415.656 2667.53 417.267 2667.91 419.191 2668.29 421.114 2668.63 423.111 2668.92 425.183L2669.42 425.183C2672.57 420.744 2674.96 417.497 2676.59 415.443 2678.22 413.388 2679.59 411.859 2680.71 410.856 2681.83 409.853 2682.9 409.147 2683.94 408.736 2684.98 408.325 2686.35 408.119 2688.06 408.119 2689.6 408.119 2690.87 408.316 2691.86 408.711L2689.88 417.637 2686.43 417.637C2686.23 416.256 2685.66 415.566 2684.7 415.566 2684.41 415.566 2684.1 415.615 2683.77 415.714 2683.44 415.812 2683.04 416.026 2682.56 416.355 2682.08 416.684 2681.38 417.325 2680.46 418.278 2679.54 419.232 2678.51 420.399 2677.36 421.78 2676.21 423.161 2675.02 424.607 2673.81 426.12L2670.45 430.312C2671.04 433.468 2671.6 436.197 2672.13 438.498 2672.66 440.799 2673.12 442.715 2673.53 444.243 2673.95 445.772 2674.31 446.98 2674.62 447.868 2674.93 448.756 2675.27 449.422 2675.63 449.865 2675.99 450.309 2676.36 450.622 2676.74 450.802 2677.12 450.983 2677.55 451.074 2678.05 451.074 2678.93 451.074 2679.8 450.729 2680.64 450.038 2681.47 449.348 2682.68 447.786 2684.26 445.353L2687.47 447.474C2685.16 450.893 2683.09 453.301 2681.23 454.698 2679.37 456.096 2677.16 456.794 2674.59 456.794 2673.18 456.794 2671.98 456.54 2670.99 456.03 2670.01 455.52 2669.15 454.707 2668.43 453.589 2667.71 452.471 2667.07 450.729 2666.51 448.361 2665.49 444.153 2664.86 440.931 2664.63 438.695L2664.14 438.695C2660.65 443.594 2658.07 447.112 2656.37 449.249 2654.68 451.386 2653.28 452.964 2652.18 453.983 2651.08 455.003 2650.01 455.718 2648.97 456.129 2647.94 456.54 2646.57 456.745 2644.86 456.745 2643.31 456.745 2642.05 456.548 2641.06 456.153L2643.03 447.227 2646.48 447.227C2646.68 448.608 2647.26 449.298 2648.21 449.298 2648.67 449.298 2649.16 449.175 2649.67 448.928 2650.17 448.682 2650.91 448.09 2651.86 447.153 2652.81 446.216 2654.13 444.745 2655.81 442.739 2657.48 440.734 2659.91 437.725 2663.1 433.714 2662.61 431.117 2662.1 428.618 2661.58 426.218 2661.05 423.818 2660.51 421.583 2659.95 419.511 2659.39 417.44 2658.93 416.084 2658.57 415.443 2658.21 414.802 2657.82 414.358 2657.41 414.111 2657 413.865 2656.48 413.741 2655.85 413.741 2655.16 413.741 2654.54 413.897 2653.98 414.21 2653.42 414.522 2652.81 415.065 2652.16 415.837 2651.5 416.61 2650.63 417.818 2649.54 419.462L2646.34 417.341C2648.41 414.218 2650.4 411.884 2652.3 410.338 2654.21 408.793 2656.46 408.021 2659.06 408.021Z" fill-rule="evenodd"/><text fill="#000000" fill-opacity="0" font-family="Arial,Arial_MSFontService,sans-serif" font-size="48.7739" x="2641.06" y="450.698">𝑥</text><path d="M2720.51 378.94C2723.01 378.94 2725.15 379.224 2726.92 379.79 2728.69 380.356 2730.13 381.12 2731.24 382.084 2732.34 383.048 2733.15 384.204 2733.64 385.553 2734.13 386.902 2734.38 388.359 2734.38 389.925 2734.38 390.864 2734.31 391.737 2734.18 392.544 2734.05 393.351 2733.82 394.146 2733.5 394.929 2733.17 395.712 2732.74 396.501 2732.21 397.296 2731.68 398.091 2731.02 398.934 2730.23 399.825 2729.62 400.596 2728.84 401.487 2727.88 402.499 2726.91 403.511 2725.86 404.595 2724.71 405.751 2723.57 406.907 2722.37 408.112 2721.12 409.364 2719.87 410.617 2718.65 411.857 2717.47 413.086 2716.29 414.314 2715.21 415.507 2714.22 416.663 2713.23 417.819 2712.42 418.879 2711.8 419.843L2725.17 419.843C2726.3 419.843 2727.2 419.801 2727.88 419.716 2728.55 419.632 2729.11 419.445 2729.56 419.156 2730 418.867 2730.38 418.428 2730.69 417.837 2731.01 417.247 2731.37 416.434 2731.78 415.398L2735.14 415.398C2735.02 417.109 2734.9 418.831 2734.8 420.565 2734.69 422.3 2734.57 424.022 2734.45 425.732L2703.85 425.732 2703.85 423.854C2704.43 422.553 2705.1 421.27 2705.87 420.005 2706.64 418.741 2707.51 417.458 2708.47 416.157 2709.44 414.856 2710.53 413.514 2711.76 412.128 2712.99 410.743 2714.35 409.304 2715.84 407.811 2718.11 405.546 2719.95 403.613 2721.37 402.011 2722.79 400.409 2723.91 398.982 2724.73 397.73 2725.55 396.477 2726.11 395.321 2726.41 394.261 2726.71 393.201 2726.86 392.069 2726.86 390.864 2726.86 389.636 2726.69 388.504 2726.34 387.468 2725.99 386.432 2725.49 385.553 2724.84 384.83 2724.19 384.107 2723.37 383.541 2722.37 383.132 2721.37 382.722 2720.22 382.518 2718.92 382.518 2716.68 382.518 2714.8 383.126 2713.28 384.342 2711.76 385.559 2710.58 387.323 2709.74 389.636L2705 389.636 2705 382.59C2708.09 381.313 2710.92 380.386 2713.51 379.808 2716.1 379.23 2718.43 378.94 2720.51 378.94Z" fill-rule="evenodd"/><text fill="#000000" fill-opacity="0" font-family="Arial,Arial_MSFontService,sans-serif" font-size="46.792" x="2703.85" y="419.883">2</text><path d="M2383.49 356.57 2946.49 356.57 2946.49 363.57 2383.49 363.57Z" fill-rule="evenodd"/><path d="M2976.08 356.407 3036.84 356.407 3036.84 362.966 2976.08 362.966Z" fill="#C00000" fill-rule="evenodd"/><text fill="#000000" fill-opacity="0" font-family="Arial,Arial_MSFontService,sans-serif" font-size="6.55908" x="2976.08" y="362.147">−</text><path d="M3075.17 340.379C3079.84 340.379 3083.55 343.56 3086.29 349.922 3089.04 356.284 3090.82 365.827 3091.64 378.55L3092.24 378.55C3099.21 361.717 3103.79 349.306 3105.99 341.316L3115.91 341.316 3115.91 343.733C3105.91 360.533 3098.14 375.246 3092.58 387.871 3092.91 391.323 3093.07 395.285 3093.07 399.756 3093.07 401.959 3093.01 403.883 3092.88 405.526L3088.44 408.337 3083.36 408.337 3083.36 405.231C3083.36 399.773 3084.48 394.447 3086.71 389.252 3085.53 377.285 3083.51 367.027 3080.65 358.479 3077.79 349.93 3074.71 345.656 3071.42 345.656 3070.34 345.656 3068.83 346.363 3066.89 347.777L3064.86 344.917C3068.71 341.892 3072.15 340.379 3075.17 340.379Z" fill="#C00000" fill-rule="evenodd"/><text fill="#000000" fill-opacity="0" font-family="Arial,Arial_MSFontService,sans-serif" font-size="67.958" x="3064.86" y="399.843">γ</text><path d="M3175.93 325.585C3173.89 325.585 3171.75 325.634 3169.51 325.733L3162.81 355.618 3167.94 355.618C3171.91 355.618 3175.13 355.207 3177.58 354.385 3180.03 353.563 3182.03 352.289 3183.59 350.563 3185.16 348.837 3186.36 346.791 3187.22 344.423 3188.07 342.056 3188.5 339.459 3188.5 336.631 3188.5 332.818 3187.53 330.023 3185.59 328.248 3183.65 326.472 3180.43 325.585 3175.93 325.585ZM3155.26 321.245 3177.01 321.245C3180.92 321.245 3184.14 321.549 3186.65 322.157 3189.17 322.765 3191.24 323.702 3192.87 324.968 3194.49 326.234 3195.71 327.837 3196.52 329.776 3197.32 331.716 3197.72 333.968 3197.72 336.533 3197.72 341.464 3196.56 345.739 3194.22 349.355 3191.89 352.972 3188.72 355.635 3184.73 357.344 3180.73 359.054 3175.94 359.909 3170.35 359.909 3167 359.909 3164.2 359.843 3161.97 359.712L3158.81 374.211C3158.52 375.559 3158.31 376.594 3158.2 377.317 3158.08 378.041 3157.98 378.822 3157.9 379.66 3157.82 380.498 3157.78 381.246 3157.78 381.904 3157.78 382.923 3157.94 383.72 3158.27 384.296 3158.6 384.871 3159.09 385.29 3159.75 385.553 3160.41 385.816 3161.54 386.014 3163.15 386.145L3162.61 388.562 3142.34 388.562 3142.88 386.145C3144.13 385.948 3145.07 385.627 3145.69 385.183 3146.32 384.74 3146.85 384.123 3147.27 383.334 3147.7 382.545 3148.09 381.583 3148.46 380.449 3148.82 379.315 3149.36 377.12 3150.08 373.865L3158.47 335.892C3159.19 332.604 3159.55 330.007 3159.55 328.1 3159.55 326.489 3159.17 325.371 3158.42 324.746 3157.66 324.122 3156.43 323.76 3154.72 323.661Z" fill="#C00000" fill-rule="evenodd"/><text fill="#000000" fill-opacity="0" font-family="Arial,Arial_MSFontService,sans-serif" font-size="67.3169" x="3142.34" y="380.147">𝑃</text><path d="M3417.11 313.819 3424.7 313.819 3424.7 405.597 3417.11 405.597ZM3243.14 312.922 3244.47 316.72C3236.78 319.251 3231.09 324.191 3227.39 331.539 3223.69 338.887 3221.84 348.118 3221.84 359.23 3221.84 370.738 3223.69 380.223 3227.39 387.686 3231.09 395.149 3236.73 400.147 3244.33 402.678L3243.14 406.476C3233.51 403.944 3226.13 398.495 3221 390.127 3215.87 381.76 3213.31 371.625 3213.31 359.724 3213.31 347.855 3215.88 337.72 3221.02 329.32 3226.17 320.92 3233.54 315.454 3243.14 312.922Z" fill="#C00000" fill-rule="evenodd"/><path d="M3265.76 340.577C3266.78 340.577 3267.67 340.692 3268.44 340.922 3269.22 341.152 3269.9 341.506 3270.49 341.982 3271.08 342.459 3271.61 343.075 3272.07 343.832 3272.53 344.588 3272.97 345.615 3273.4 346.914 3273.83 348.213 3274.23 349.824 3274.61 351.747 3274.99 353.67 3275.32 355.668 3275.62 357.739L3276.11 357.739C3279.27 353.3 3281.66 350.054 3283.29 347.999 3284.92 345.944 3286.29 344.415 3287.41 343.412 3288.52 342.41 3289.6 341.703 3290.64 341.292 3291.67 340.881 3293.04 340.675 3294.75 340.675 3296.3 340.675 3297.56 340.873 3298.55 341.267L3296.58 350.193 3293.13 350.193C3292.93 348.813 3292.35 348.122 3291.4 348.122 3291.1 348.122 3290.79 348.171 3290.46 348.27 3290.13 348.369 3289.73 348.582 3289.26 348.911 3288.78 349.24 3288.08 349.881 3287.16 350.835 3286.24 351.788 3285.2 352.955 3284.05 354.336 3282.9 355.717 3281.72 357.164 3280.5 358.676L3277.15 362.868C3277.74 366.024 3278.3 368.753 3278.82 371.054 3279.35 373.356 3279.82 375.271 3280.23 376.8 3280.64 378.328 3281 379.537 3281.32 380.424 3281.63 381.312 3281.96 381.978 3282.33 382.422 3282.69 382.866 3283.06 383.178 3283.44 383.359 3283.81 383.54 3284.25 383.63 3284.74 383.63 3285.63 383.63 3286.49 383.285 3287.33 382.594 3288.17 381.904 3289.38 380.342 3290.96 377.909L3294.16 380.03C3291.86 383.449 3289.78 385.857 3287.92 387.255 3286.07 388.652 3283.85 389.351 3281.29 389.351 3279.88 389.351 3278.68 389.096 3277.69 388.586 3276.7 388.077 3275.85 387.263 3275.13 386.145 3274.4 385.027 3273.76 383.285 3273.2 380.918 3272.18 376.709 3271.56 373.487 3271.33 371.252L3270.84 371.252C3267.35 376.15 3264.76 379.668 3263.07 381.805 3261.38 383.942 3259.98 385.52 3258.88 386.54 3257.77 387.559 3256.71 388.274 3255.67 388.685 3254.64 389.096 3253.26 389.301 3251.55 389.301 3250.01 389.301 3248.74 389.104 3247.76 388.71L3249.73 379.783 3253.18 379.783C3253.38 381.164 3253.95 381.855 3254.91 381.855 3255.37 381.855 3255.85 381.731 3256.36 381.485 3256.87 381.238 3257.6 380.646 3258.56 379.709 3259.51 378.772 3260.82 377.301 3262.5 375.296 3264.18 373.29 3266.61 370.282 3269.8 366.271 3269.31 363.673 3268.8 361.175 3268.27 358.775 3267.74 356.374 3267.2 354.139 3266.64 352.067 3266.08 349.996 3265.62 348.64 3265.26 347.999 3264.9 347.358 3264.51 346.914 3264.1 346.667 3263.69 346.421 3263.18 346.297 3262.55 346.297 3261.86 346.297 3261.24 346.454 3260.68 346.766 3260.12 347.078 3259.51 347.621 3258.85 348.393 3258.19 349.166 3257.32 350.374 3256.24 352.018L3253.03 349.898C3255.1 346.774 3257.09 344.44 3259 342.895 3260.91 341.349 3263.16 340.577 3265.76 340.577Z" fill="#C00000" fill-rule="evenodd"/><text fill="#000000" fill-opacity="0" font-family="Arial,Arial_MSFontService,sans-serif" font-size="48.7739" x="3247.76" y="383.254">𝑥</text><path d="M3309.79 377.12 3318.42 377.12C3318.88 379.422 3319.11 381.69 3319.11 383.926 3319.11 386.227 3318.71 388.331 3317.92 390.238 3317.13 392.145 3315.88 394.044 3314.15 395.934 3312.42 397.825 3310.05 399.904 3307.02 402.173L3304.36 399.165C3306.04 397.587 3307.25 396.165 3308.01 394.899 3308.77 393.633 3309.31 392.195 3309.64 390.584 3309.97 388.973 3310.13 386.951 3310.13 384.518 3310.13 382.019 3310.02 379.553 3309.79 377.12Z" fill="#C00000" fill-rule="evenodd"/><text fill="#000000" fill-opacity="0" font-family="Arial,Arial_MSFontService,sans-serif" font-size="25.0527" x="3304.36" y="399.041">,</text><path d="M3359.88 329.234 3366.69 329.234 3363.98 341.415 3378.97 341.415 3377.88 346.396 3362.89 346.396 3358.5 365.531C3357.65 369.246 3357.11 371.917 3356.88 373.545 3356.65 375.172 3356.53 376.479 3356.53 377.465 3356.53 381.542 3358.22 383.581 3361.61 383.581 3363.06 383.581 3364.59 383.03 3366.22 381.929 3367.85 380.827 3369.78 378.945 3372.02 376.282L3374.88 379.241C3372.02 382.693 3369.26 385.241 3366.62 386.885 3363.97 388.529 3361.2 389.351 3358.31 389.351 3351.43 389.351 3348 385.882 3348 378.945 3348 376.742 3348.28 374.424 3348.84 371.991L3354.66 346.396 3346.37 346.396 3347.11 342.993C3349.05 342.96 3350.52 342.812 3351.52 342.549 3352.53 342.286 3353.37 341.925 3354.04 341.464 3354.71 341.004 3355.33 340.347 3355.89 339.492 3356.45 338.637 3356.99 337.544 3357.52 336.212 3358.04 334.881 3358.83 332.555 3359.88 329.234Z" fill="#C00000" fill-rule="evenodd"/><text fill="#000000" fill-opacity="0" font-family="Arial,Arial_MSFontService,sans-serif" font-size="60.1167" x="3346.37" y="381.836">𝑡</text><path d="M3478.65 340.577C3479.67 340.577 3480.57 340.692 3481.34 340.922 3482.11 341.152 3482.79 341.506 3483.39 341.982 3483.98 342.459 3484.5 343.075 3484.96 343.832 3485.42 344.588 3485.87 345.615 3486.3 346.914 3486.72 348.213 3487.13 349.824 3487.5 351.747 3487.88 353.67 3488.22 355.668 3488.51 357.739L3489.01 357.739C3492.16 353.3 3494.56 350.054 3496.18 347.999 3497.81 345.944 3499.18 344.415 3500.3 343.412 3501.42 342.41 3502.5 341.703 3503.53 341.292 3504.57 340.881 3505.94 340.675 3507.65 340.675 3509.19 340.675 3510.46 340.873 3511.45 341.267L3509.47 350.193 3506.02 350.193C3505.82 348.813 3505.25 348.122 3504.3 348.122 3504 348.122 3503.69 348.171 3503.36 348.27 3503.03 348.369 3502.63 348.582 3502.15 348.911 3501.67 349.24 3500.98 349.881 3500.05 350.835 3499.13 351.788 3498.1 352.955 3496.95 354.336 3495.8 355.717 3494.61 357.164 3493.4 358.676L3490.04 362.868C3490.64 366.024 3491.19 368.753 3491.72 371.054 3492.25 373.356 3492.72 375.271 3493.13 376.8 3493.54 378.328 3493.9 379.537 3494.21 380.424 3494.52 381.312 3494.86 381.978 3495.22 382.422 3495.58 382.866 3495.95 383.178 3496.33 383.359 3496.71 383.54 3497.15 383.63 3497.64 383.63 3498.53 383.63 3499.39 383.285 3500.23 382.594 3501.07 381.904 3502.27 380.342 3503.85 377.909L3507.06 380.03C3504.76 383.449 3502.68 385.857 3500.82 387.255 3498.96 388.652 3496.75 389.351 3494.19 389.351 3492.77 389.351 3491.57 389.096 3490.59 388.586 3489.6 388.077 3488.75 387.263 3488.02 386.145 3487.3 385.027 3486.66 383.285 3486.1 380.918 3485.08 376.709 3484.45 373.487 3484.22 371.252L3483.73 371.252C3480.25 376.15 3477.66 379.668 3475.96 381.805 3474.27 383.942 3472.87 385.52 3471.77 386.54 3470.67 387.559 3469.6 388.274 3468.57 388.685 3467.53 389.096 3466.16 389.301 3464.45 389.301 3462.9 389.301 3461.64 389.104 3460.65 388.71L3462.62 379.783 3466.08 379.783C3466.27 381.164 3466.85 381.855 3467.8 381.855 3468.26 381.855 3468.75 381.731 3469.26 381.485 3469.77 381.238 3470.5 380.646 3471.45 379.709 3472.4 378.772 3473.72 377.301 3475.4 375.296 3477.07 373.29 3479.51 370.282 3482.7 366.271 3482.2 363.673 3481.69 361.175 3481.17 358.775 3480.64 356.374 3480.1 354.139 3479.54 352.067 3478.98 349.996 3478.52 348.64 3478.16 347.999 3477.8 347.358 3477.41 346.914 3477 346.667 3476.59 346.421 3476.07 346.297 3475.45 346.297 3474.76 346.297 3474.13 346.454 3473.57 346.766 3473.01 347.078 3472.4 347.621 3471.75 348.393 3471.09 349.166 3470.22 350.374 3469.13 352.018L3465.93 349.898C3468 346.774 3469.99 344.44 3471.9 342.895 3473.8 341.349 3476.05 340.577 3478.65 340.577Z" fill="#C00000" fill-rule="evenodd"/><text fill="#000000" fill-opacity="0" font-family="Arial,Arial_MSFontService,sans-serif" font-size="48.7739" x="3460.65" y="383.254">𝑥</text><path d="M3533.47 365.854C3531.78 365.854 3530.37 366.293 3529.24 367.173 3528.11 368.052 3527.21 369.341 3526.55 371.039 3525.89 372.737 3525.42 374.809 3525.14 377.254 3524.86 379.699 3524.72 382.475 3524.72 385.582 3524.72 389.171 3524.9 392.273 3525.25 394.886 3525.6 397.5 3526.14 399.65 3526.87 401.336 3527.61 403.022 3528.53 404.263 3529.64 405.058 3530.75 405.853 3532.07 406.25 3533.61 406.25 3535.06 406.25 3536.32 405.877 3537.41 405.13 3538.49 404.383 3539.39 403.221 3540.1 401.643 3540.81 400.065 3541.34 398.066 3541.71 395.645 3542.07 393.224 3542.25 390.364 3542.25 387.064 3542.25 383.354 3542.05 380.162 3541.65 377.488 3541.25 374.815 3540.69 372.617 3539.97 370.894 3539.25 369.172 3538.34 367.901 3537.24 367.082 3536.15 366.263 3534.89 365.854 3533.47 365.854ZM3533.61 362.349C3536.48 362.349 3538.93 362.885 3540.96 363.957 3543 365.029 3544.66 366.558 3545.95 368.546 3547.24 370.533 3548.19 372.96 3548.79 375.826 3549.39 378.693 3549.69 381.933 3549.69 385.546 3549.69 393.568 3548.27 399.632 3545.43 403.739 3542.58 407.846 3538.47 409.9 3533.07 409.9 3527.72 409.9 3523.75 407.96 3521.15 404.082 3518.54 400.204 3517.24 394.326 3517.24 386.449 3517.24 382.33 3517.65 378.765 3518.45 375.754 3519.26 372.743 3520.39 370.244 3521.85 368.257 3523.31 366.269 3525.04 364.788 3527.04 363.812 3529.03 362.837 3531.23 362.349 3533.61 362.349Z" fill="#C00000" fill-rule="evenodd"/><text fill="#000000" fill-opacity="0" font-family="Arial,Arial_MSFontService,sans-serif" font-size="47.5508" x="3517.24" y="403.956">0</text><path d="M3561.84 317.299C3571.44 319.831 3578.81 325.297 3583.95 333.697 3589.1 342.097 3591.67 352.232 3591.67 364.101 3591.67 376.002 3589.11 386.137 3583.98 394.504 3578.85 402.872 3571.47 408.321 3561.84 410.853L3560.65 407.055C3568.25 404.524 3573.89 399.526 3577.59 392.063 3581.29 384.6 3583.14 375.115 3583.14 363.608 3583.14 352.495 3581.3 343.264 3577.62 335.916 3573.93 328.568 3568.23 323.628 3560.5 321.097Z" fill="#C00000" fill-rule="evenodd"/><text fill="#000000" fill-opacity="0" font-family="Arial,Arial_MSFontService,sans-serif" font-size="93.5532" x="3560.5" y="399.158">)</text><path d="M3657.09 328.001 3664.09 328.001 3664.09 356.407 3690.97 356.407 3690.97 362.966 3664.09 362.966 3664.09 391.373 3657.09 391.373 3657.09 362.966 3630.21 362.966 3630.21 356.407 3657.09 356.407Z" fill="#0070C0" fill-rule="evenodd"/><text fill="#000000" fill-opacity="0" font-family="Arial,Arial_MSFontService,sans-serif" font-size="63.3716" x="3630.21" y="383.451">+</text><path d="M3729.31 340.379C3733.97 340.379 3737.68 343.56 3740.43 349.922 3743.17 356.284 3744.96 365.827 3745.78 378.55L3746.37 378.55C3753.34 361.717 3757.93 349.306 3760.13 341.316L3770.04 341.316 3770.04 343.733C3760.05 360.533 3752.27 375.246 3746.71 387.871 3747.04 391.323 3747.21 395.285 3747.21 399.756 3747.21 401.959 3747.14 403.883 3747.01 405.526L3742.57 408.337 3737.49 408.337 3737.49 405.231C3737.49 399.773 3738.61 394.447 3740.85 389.252 3739.66 377.285 3737.64 367.027 3734.78 358.479 3731.92 349.93 3728.85 345.656 3725.56 345.656 3724.47 345.656 3722.96 346.363 3721.02 347.777L3719 344.917C3722.84 341.892 3726.28 340.379 3729.31 340.379Z" fill="#0070C0" fill-rule="evenodd"/><text fill="#000000" fill-opacity="0" font-family="Arial,Arial_MSFontService,sans-serif" font-size="67.958" x="3719" y="399.843">γ</text><path d="M3820.74 347.136C3812.19 350.884 3807.92 358.068 3807.92 368.687 3807.92 373.685 3809.03 377.728 3811.24 380.819 3813.46 383.909 3816.32 385.455 3819.8 385.455 3823.78 385.455 3826.88 383.852 3829.1 380.646 3831.32 377.441 3832.43 373.109 3832.43 367.651 3832.43 363.575 3831.5 359.958 3829.64 356.802 3827.78 353.646 3824.81 350.424 3820.74 347.136ZM3822.66 317.842C3829.53 317.842 3835.35 319.601 3840.12 323.119L3840.12 330.27 3835.39 330.27C3832.72 324.615 3828.51 321.787 3822.76 321.787 3819.97 321.787 3817.84 322.404 3816.37 323.637 3814.91 324.869 3814.18 326.341 3814.18 328.05 3814.18 329.596 3814.82 331.108 3816.1 332.587 3817.38 334.067 3821.12 337.371 3827.3 342.5 3832.26 346.643 3835.89 350.588 3838.2 354.336 3840.5 358.084 3841.65 362.523 3841.65 367.651 3841.65 374.161 3839.59 379.405 3835.48 383.383 3831.37 387.362 3826.18 389.351 3819.9 389.351 3813.59 389.351 3808.47 387.353 3804.56 383.359 3800.65 379.364 3798.69 374.194 3798.69 367.849 3798.69 356.342 3804.86 348.467 3817.19 344.226 3813.08 340.675 3810.33 337.823 3808.95 335.67 3807.57 333.516 3806.88 331.387 3806.88 329.283 3806.88 325.897 3808.31 323.143 3811.17 321.023 3814.03 318.902 3817.86 317.842 3822.66 317.842Z" fill="#0070C0" fill-rule="evenodd"/><text fill="#000000" fill-opacity="0" font-family="Arial,Arial_MSFontService,sans-serif" font-size="71.5088" x="3798.69" y="380.412">δ</text><path d="M3885.08 317.299 3886.42 321.097C3878.72 323.628 3873.03 328.568 3869.33 335.916 3865.63 343.264 3863.78 352.495 3863.78 363.608 3863.78 375.115 3865.63 384.6 3869.33 392.063 3873.03 399.526 3878.67 404.524 3886.27 407.055L3885.08 410.853C3875.45 408.321 3868.07 402.872 3862.94 394.504 3857.81 386.137 3855.25 376.002 3855.25 364.101 3855.25 352.232 3857.82 342.097 3862.97 333.697 3868.11 325.297 3875.48 319.831 3885.08 317.299Z" fill="#0070C0" fill-rule="evenodd"/><text fill="#000000" fill-opacity="0" font-family="Arial,Arial_MSFontService,sans-serif" font-size="93.5532" x="3855.25" y="399.158">(</text><path d="M3907.67 340.577C3908.69 340.577 3909.59 340.692 3910.36 340.922 3911.14 341.152 3911.82 341.506 3912.41 341.982 3913 342.459 3913.53 343.075 3913.99 343.832 3914.45 344.588 3914.89 345.615 3915.32 346.914 3915.75 348.213 3916.15 349.824 3916.53 351.747 3916.91 353.67 3917.24 355.668 3917.54 357.739L3918.03 357.739C3921.19 353.3 3923.58 350.054 3925.21 347.999 3926.83 345.944 3928.21 344.415 3929.32 343.412 3930.44 342.41 3931.52 341.703 3932.55 341.292 3933.59 340.881 3934.96 340.675 3936.67 340.675 3938.22 340.675 3939.48 340.873 3940.47 341.267L3938.5 350.193 3935.05 350.193C3934.85 348.813 3934.27 348.122 3933.32 348.122 3933.02 348.122 3932.71 348.171 3932.38 348.27 3932.05 348.369 3931.65 348.582 3931.17 348.911 3930.7 349.24 3930 349.881 3929.08 350.835 3928.16 351.788 3927.12 352.955 3925.97 354.336 3924.82 355.717 3923.64 357.164 3922.42 358.676L3919.07 362.868C3919.66 366.024 3920.22 368.753 3920.74 371.054 3921.27 373.356 3921.74 375.271 3922.15 376.8 3922.56 378.328 3922.92 379.537 3923.23 380.424 3923.55 381.312 3923.88 381.978 3924.24 382.422 3924.61 382.866 3924.98 383.178 3925.35 383.359 3925.73 383.54 3926.17 383.63 3926.66 383.63 3927.55 383.63 3928.41 383.285 3929.25 382.594 3930.09 381.904 3931.3 380.342 3932.88 377.909L3936.08 380.03C3933.78 383.449 3931.7 385.857 3929.84 387.255 3927.98 388.652 3925.77 389.351 3923.21 389.351 3921.8 389.351 3920.6 389.096 3919.61 388.586 3918.62 388.077 3917.77 387.263 3917.04 386.145 3916.32 385.027 3915.68 383.285 3915.12 380.918 3914.1 376.709 3913.48 373.487 3913.25 371.252L3912.75 371.252C3909.27 376.15 3906.68 379.668 3904.99 381.805 3903.29 383.942 3901.9 385.52 3900.79 386.54 3899.69 387.559 3898.62 388.274 3897.59 388.685 3896.55 389.096 3895.18 389.301 3893.47 389.301 3891.93 389.301 3890.66 389.104 3889.67 388.71L3891.65 379.783 3895.1 379.783C3895.3 381.164 3895.87 381.855 3896.82 381.855 3897.29 381.855 3897.77 381.731 3898.28 381.485 3898.79 381.238 3899.52 380.646 3900.47 379.709 3901.43 378.772 3902.74 377.301 3904.42 375.296 3906.1 373.29 3908.53 370.282 3911.72 366.271 3911.23 363.673 3910.72 361.175 3910.19 358.775 3909.66 356.374 3909.12 354.139 3908.56 352.067 3908 349.996 3907.54 348.64 3907.18 347.999 3906.82 347.358 3906.43 346.914 3906.02 346.667 3905.61 346.421 3905.09 346.297 3904.47 346.297 3903.78 346.297 3903.15 346.454 3902.59 346.766 3902.04 347.078 3901.43 347.621 3900.77 348.393 3900.11 349.166 3899.24 350.374 3898.16 352.018L3894.95 349.898C3897.02 346.774 3899.01 344.44 3900.92 342.895 3902.83 341.349 3905.08 340.577 3907.67 340.577Z" fill="#0070C0" fill-rule="evenodd"/><text fill="#000000" fill-opacity="0" font-family="Arial,Arial_MSFontService,sans-serif" font-size="48.7739" x="3889.67" y="383.254">𝑥</text><path d="M3974.86 356.407 4035.61 356.407 4035.61 362.966 3974.86 362.966Z" fill="#0070C0" fill-rule="evenodd"/><text fill="#000000" fill-opacity="0" font-family="Arial,Arial_MSFontService,sans-serif" font-size="6.55908" x="3974.86" y="362.147">−</text><path d="M4084.45 340.577C4085.47 340.577 4086.37 340.692 4087.14 340.922 4087.91 341.152 4088.6 341.506 4089.19 341.982 4089.78 342.459 4090.31 343.075 4090.77 343.832 4091.23 344.588 4091.67 345.615 4092.1 346.914 4092.53 348.213 4092.93 349.824 4093.31 351.747 4093.68 353.67 4094.02 355.668 4094.32 357.739L4094.81 357.739C4097.97 353.3 4100.36 350.054 4101.99 347.999 4103.61 345.944 4104.99 344.415 4106.1 343.412 4107.22 342.41 4108.3 341.703 4109.33 341.292 4110.37 340.881 4111.74 340.675 4113.45 340.675 4115 340.675 4116.26 340.873 4117.25 341.267L4115.28 350.193 4111.82 350.193C4111.63 348.813 4111.05 348.122 4110.1 348.122 4109.8 348.122 4109.49 348.171 4109.16 348.27 4108.83 348.369 4108.43 348.582 4107.95 348.911 4107.48 349.24 4106.78 349.881 4105.86 350.835 4104.94 351.788 4103.9 352.955 4102.75 354.336 4101.6 355.717 4100.42 357.164 4099.2 358.676L4095.85 362.868C4096.44 366.024 4097 368.753 4097.52 371.054 4098.05 373.356 4098.52 375.271 4098.93 376.8 4099.34 378.328 4099.7 379.537 4100.01 380.424 4100.33 381.312 4100.66 381.978 4101.02 382.422 4101.39 382.866 4101.76 383.178 4102.13 383.359 4102.51 383.54 4102.95 383.63 4103.44 383.63 4104.33 383.63 4105.19 383.285 4106.03 382.594 4106.87 381.904 4108.08 380.342 4109.65 377.909L4112.86 380.03C4110.56 383.449 4108.48 385.857 4106.62 387.255 4104.76 388.652 4102.55 389.351 4099.99 389.351 4098.57 389.351 4097.37 389.096 4096.39 388.586 4095.4 388.077 4094.55 387.263 4093.82 386.145 4093.1 385.027 4092.46 383.285 4091.9 380.918 4090.88 376.709 4090.26 373.487 4090.03 371.252L4089.53 371.252C4086.05 376.15 4083.46 379.668 4081.77 381.805 4080.07 383.942 4078.68 385.52 4077.57 386.54 4076.47 387.559 4075.4 388.274 4074.37 388.685 4073.33 389.096 4071.96 389.301 4070.25 389.301 4068.71 389.301 4067.44 389.104 4066.45 388.71L4068.43 379.783 4071.88 379.783C4072.08 381.164 4072.65 381.855 4073.6 381.855 4074.06 381.855 4074.55 381.731 4075.06 381.485 4075.57 381.238 4076.3 380.646 4077.25 379.709 4078.21 378.772 4079.52 377.301 4081.2 375.296 4082.88 373.29 4085.31 370.282 4088.5 366.271 4088 363.673 4087.49 361.175 4086.97 358.775 4086.44 356.374 4085.9 354.139 4085.34 352.067 4084.78 349.996 4084.32 348.64 4083.96 347.999 4083.6 347.358 4083.21 346.914 4082.8 346.667 4082.39 346.421 4081.87 346.297 4081.25 346.297 4080.56 346.297 4079.93 346.454 4079.37 346.766 4078.82 347.078 4078.21 347.621 4077.55 348.393 4076.89 349.166 4076.02 350.374 4074.94 352.018L4071.73 349.898C4073.8 346.774 4075.79 344.44 4077.7 342.895 4079.6 341.349 4081.86 340.577 4084.45 340.577Z" fill="#0070C0" fill-rule="evenodd"/><text fill="#000000" fill-opacity="0" font-family="Arial,Arial_MSFontService,sans-serif" font-size="48.7739" x="4066.45" y="383.254">𝑥</text><path d="M4139.27 365.854C4137.58 365.854 4136.17 366.293 4135.04 367.173 4133.91 368.052 4133.01 369.341 4132.35 371.039 4131.69 372.737 4131.22 374.809 4130.94 377.254 4130.66 379.699 4130.52 382.475 4130.52 385.582 4130.52 389.171 4130.7 392.273 4131.05 394.886 4131.4 397.5 4131.94 399.65 4132.67 401.336 4133.41 403.022 4134.33 404.263 4135.44 405.058 4136.55 405.853 4137.87 406.25 4139.41 406.25 4140.86 406.25 4142.12 405.877 4143.21 405.13 4144.29 404.383 4145.19 403.221 4145.9 401.643 4146.61 400.065 4147.15 398.066 4147.51 395.645 4147.87 393.224 4148.05 390.364 4148.05 387.064 4148.05 383.354 4147.85 380.162 4147.45 377.488 4147.06 374.815 4146.5 372.617 4145.77 370.894 4145.05 369.172 4144.14 367.901 4143.04 367.082 4141.95 366.263 4140.69 365.854 4139.27 365.854ZM4139.41 362.349C4142.28 362.349 4144.73 362.885 4146.77 363.957 4148.8 365.029 4150.46 366.558 4151.75 368.546 4153.04 370.533 4153.99 372.96 4154.59 375.826 4155.19 378.693 4155.49 381.933 4155.49 385.546 4155.49 393.568 4154.07 399.632 4151.23 403.739 4148.39 407.846 4144.27 409.9 4138.87 409.9 4133.52 409.9 4129.55 407.96 4126.95 404.082 4124.35 400.204 4123.05 394.326 4123.05 386.449 4123.05 382.33 4123.45 378.765 4124.26 375.754 4125.06 372.743 4126.19 370.244 4127.65 368.257 4129.11 366.269 4130.84 364.788 4132.84 363.812 4134.84 362.837 4137.03 362.349 4139.41 362.349Z" fill="#0070C0" fill-rule="evenodd"/><text fill="#000000" fill-opacity="0" font-family="Arial,Arial_MSFontService,sans-serif" font-size="47.5508" x="4123.05" y="403.956">0</text><path d="M4167.64 317.299C4177.24 319.831 4184.61 325.297 4189.76 333.697 4194.9 342.097 4197.47 352.232 4197.47 364.101 4197.47 376.002 4194.91 386.137 4189.78 394.504 4184.65 402.872 4177.27 408.321 4167.64 410.853L4166.45 407.055C4174.05 404.524 4179.7 399.526 4183.39 392.063 4187.09 384.6 4188.94 375.115 4188.94 363.608 4188.94 352.495 4187.1 343.264 4183.42 335.916 4179.74 328.568 4174.03 323.628 4166.31 321.097Z" fill="#0070C0" fill-rule="evenodd"/><text fill="#000000" fill-opacity="0" font-family="Arial,Arial_MSFontService,sans-serif" font-size="93.5532" x="4166.31" y="399.158">)</text></g></svg>