<svg width="1101" height="389" xmlns="http://www.w3.org/2000/svg" xmlns:xlink="http://www.w3.org/1999/xlink" xml:space="preserve" overflow="hidden"><g transform="translate(-162 -788)"><path d="M214.179 955.084C212.141 955.084 210.004 955.133 207.768 955.232L201.061 985.118 206.19 985.118C210.168 985.118 213.382 984.707 215.831 983.885 218.281 983.063 220.286 981.789 221.848 980.063 223.409 978.337 224.618 976.29 225.472 973.923 226.327 971.556 226.755 968.958 226.755 966.131 226.755 962.317 225.785 959.522 223.845 957.747 221.905 955.972 218.683 955.084 214.179 955.084ZM193.515 950.744 215.264 950.744C219.176 950.744 222.39 951.048 224.905 951.656 227.42 952.265 229.492 953.202 231.119 954.467 232.747 955.733 233.963 957.336 234.769 959.276 235.574 961.216 235.977 963.468 235.977 966.032 235.977 970.964 234.81 975.238 232.475 978.854 230.141 982.471 226.977 985.134 222.982 986.844 218.987 988.553 214.195 989.408 208.606 989.408 205.253 989.408 202.458 989.342 200.222 989.211L197.066 1003.71C196.77 1005.06 196.565 1006.09 196.45 1006.82 196.335 1007.54 196.236 1008.32 196.154 1009.16 196.072 1010 196.031 1010.75 196.031 1011.4 196.031 1012.42 196.195 1013.22 196.524 1013.8 196.853 1014.37 197.346 1014.79 198.003 1015.05 198.661 1015.32 199.795 1015.51 201.406 1015.64L200.864 1018.06 180.595 1018.06 181.137 1015.64C182.386 1015.45 183.323 1015.13 183.948 1014.68 184.573 1014.24 185.099 1013.62 185.526 1012.83 185.954 1012.04 186.348 1011.08 186.71 1009.95 187.071 1008.81 187.614 1006.62 188.337 1003.36L196.721 965.391C197.444 962.103 197.806 959.506 197.806 957.599 197.806 955.988 197.428 954.87 196.672 954.246 195.916 953.621 194.683 953.259 192.973 953.161Z" fill-rule="evenodd"/><text fill="#000000" fill-opacity="0" font-family="Arial,Arial_MSFontService,sans-serif" font-size="67.3169" x="180.595" y="1009.65">𝑃</text><path d="M375.956 943.318 383.551 943.318 383.551 1035.1 375.956 1035.1ZM281.397 942.422 282.728 946.219C275.035 948.751 269.339 953.69 265.64 961.039 261.942 968.387 260.092 977.617 260.092 988.73 260.092 1000.24 261.942 1009.72 265.64 1017.19 269.339 1024.65 274.986 1029.65 282.581 1032.18L281.397 1035.97C271.764 1033.44 264.383 1027.99 259.254 1019.63 254.125 1011.26 251.56 1001.12 251.56 989.223 251.56 977.354 254.133 967.22 259.279 958.819 264.424 950.419 271.797 944.953 281.397 942.422Z" fill-rule="evenodd"/><path d="M304.009 970.076C305.029 970.076 305.924 970.191 306.697 970.421 307.47 970.651 308.152 971.005 308.744 971.482 309.336 971.958 309.862 972.575 310.322 973.331 310.782 974.087 311.226 975.115 311.653 976.413 312.081 977.712 312.484 979.323 312.862 981.246 313.24 983.17 313.577 985.167 313.873 987.238L314.366 987.238C317.522 982.8 319.914 979.553 321.541 977.498 323.169 975.443 324.541 973.915 325.659 972.912 326.777 971.909 327.854 971.202 328.889 970.791 329.925 970.38 331.298 970.175 333.007 970.175 334.553 970.175 335.818 970.372 336.805 970.767L334.832 979.693 331.38 979.693C331.183 978.312 330.607 977.622 329.654 977.622 329.358 977.622 329.046 977.671 328.717 977.769 328.388 977.868 327.985 978.082 327.509 978.411 327.032 978.739 326.333 979.38 325.413 980.334 324.492 981.287 323.456 982.455 322.306 983.835 321.155 985.216 319.971 986.663 318.755 988.175L315.401 992.367C315.993 995.523 316.552 998.252 317.078 1000.55 317.604 1002.86 318.073 1004.77 318.484 1006.3 318.895 1007.83 319.256 1009.04 319.569 1009.92 319.881 1010.81 320.218 1011.48 320.58 1011.92 320.941 1012.36 321.311 1012.68 321.689 1012.86 322.067 1013.04 322.503 1013.13 322.996 1013.13 323.884 1013.13 324.747 1012.78 325.585 1012.09 326.424 1011.4 327.632 1009.84 329.21 1007.41L332.416 1009.53C330.114 1012.95 328.035 1015.36 326.177 1016.75 324.319 1018.15 322.108 1018.85 319.544 1018.85 318.13 1018.85 316.93 1018.6 315.944 1018.09 314.958 1017.58 314.103 1016.76 313.379 1015.64 312.656 1014.53 312.015 1012.78 311.456 1010.42 310.437 1006.21 309.812 1002.99 309.582 1000.75L309.089 1000.75C305.604 1005.65 303.015 1009.17 301.322 1011.3 299.628 1013.44 298.231 1015.02 297.13 1016.04 296.028 1017.06 294.96 1017.77 293.924 1018.18 292.888 1018.6 291.516 1018.8 289.806 1018.8 288.261 1018.8 286.995 1018.6 286.009 1018.21L287.982 1009.28 291.434 1009.28C291.631 1010.66 292.206 1011.35 293.16 1011.35 293.62 1011.35 294.105 1011.23 294.615 1010.98 295.124 1010.74 295.856 1010.15 296.809 1009.21 297.763 1008.27 299.078 1006.8 300.754 1004.79 302.431 1002.79 304.864 999.781 308.053 995.77 307.56 993.173 307.051 990.674 306.524 988.274 305.998 985.874 305.456 983.638 304.897 981.567 304.338 979.496 303.878 978.139 303.516 977.498 303.155 976.857 302.768 976.413 302.357 976.167 301.946 975.92 301.428 975.797 300.804 975.797 300.113 975.797 299.489 975.953 298.93 976.265 298.371 976.578 297.763 977.12 297.105 977.893 296.447 978.665 295.576 979.874 294.491 981.518L291.286 979.397C293.357 976.274 295.346 973.939 297.253 972.394 299.16 970.849 301.412 970.076 304.009 970.076Z" fill-rule="evenodd"/><text fill="#000000" fill-opacity="0" font-family="Arial,Arial_MSFontService,sans-serif" font-size="48.7739" x="286.009" y="1012.75">𝑥</text><path d="M437.499 970.076C438.518 970.076 439.414 970.191 440.187 970.421 440.959 970.651 441.641 971.005 442.233 971.482 442.825 971.958 443.351 972.575 443.811 973.331 444.272 974.087 444.716 975.115 445.143 976.413 445.57 977.712 445.973 979.323 446.351 981.246 446.729 983.17 447.066 985.167 447.362 987.238L447.855 987.238C451.012 982.8 453.403 979.553 455.031 977.498 456.658 975.443 458.031 973.915 459.149 972.912 460.267 971.909 461.343 971.202 462.379 970.791 463.415 970.38 464.787 970.175 466.497 970.175 468.042 970.175 469.308 970.372 470.294 970.767L468.322 979.693 464.87 979.693C464.672 978.312 464.097 977.622 463.143 977.622 462.848 977.622 462.535 977.671 462.206 977.769 461.878 977.868 461.475 978.082 460.998 978.411 460.521 978.739 459.823 979.38 458.902 980.334 457.982 981.287 456.946 982.455 455.795 983.835 454.645 985.216 453.461 986.663 452.245 988.175L448.891 992.367C449.483 995.523 450.042 998.252 450.568 1000.55 451.094 1002.86 451.562 1004.77 451.973 1006.3 452.384 1007.83 452.746 1009.04 453.058 1009.92 453.371 1010.81 453.708 1011.48 454.069 1011.92 454.431 1012.36 454.801 1012.68 455.179 1012.86 455.557 1013.04 455.993 1013.13 456.486 1013.13 457.373 1013.13 458.236 1012.78 459.075 1012.09 459.913 1011.4 461.121 1009.84 462.7 1007.41L465.905 1009.53C463.604 1012.95 461.524 1015.36 459.667 1016.75 457.809 1018.15 455.598 1018.85 453.034 1018.85 451.62 1018.85 450.42 1018.6 449.433 1018.09 448.447 1017.58 447.592 1016.76 446.869 1015.64 446.146 1014.53 445.505 1012.78 444.946 1010.42 443.926 1006.21 443.302 1002.99 443.072 1000.75L442.578 1000.75C439.093 1005.65 436.504 1009.17 434.811 1011.3 433.118 1013.44 431.721 1015.02 430.619 1016.04 429.518 1017.06 428.449 1017.77 427.414 1018.18 426.378 1018.6 425.005 1018.8 423.296 1018.8 421.751 1018.8 420.485 1018.6 419.498 1018.21L421.471 1009.28 424.923 1009.28C425.12 1010.66 425.696 1011.35 426.649 1011.35 427.11 1011.35 427.595 1011.23 428.104 1010.98 428.614 1010.74 429.345 1010.15 430.299 1009.21 431.252 1008.27 432.567 1006.8 434.244 1004.79 435.921 1002.79 438.354 999.781 441.543 995.77 441.05 993.173 440.54 990.674 440.014 988.274 439.488 985.874 438.946 983.638 438.387 981.567 437.828 979.496 437.367 978.139 437.006 977.498 436.644 976.857 436.258 976.413 435.847 976.167 435.436 975.92 434.918 975.797 434.293 975.797 433.603 975.797 432.978 975.953 432.419 976.265 431.86 976.578 431.252 977.12 430.595 977.893 429.937 978.665 429.066 979.874 427.981 981.518L424.775 979.397C426.847 976.274 428.836 973.939 430.743 972.394 432.649 970.849 434.902 970.076 437.499 970.076Z" fill-rule="evenodd"/><text fill="#000000" fill-opacity="0" font-family="Arial,Arial_MSFontService,sans-serif" font-size="48.7739" x="419.498" y="1012.75">𝑥</text><path d="M492.314 995.353C490.628 995.353 489.219 995.793 488.087 996.672 486.955 997.551 486.057 998.84 485.395 1000.54 484.733 1002.24 484.263 1004.31 483.986 1006.75 483.709 1009.2 483.57 1011.97 483.57 1015.08 483.57 1018.67 483.745 1021.77 484.094 1024.39 484.443 1027 484.985 1029.15 485.72 1030.84 486.455 1032.52 487.376 1033.76 488.484 1034.56 489.592 1035.35 490.917 1035.75 492.459 1035.75 493.904 1035.75 495.169 1035.38 496.253 1034.63 497.337 1033.88 498.234 1032.72 498.945 1031.14 499.655 1029.56 500.191 1027.57 500.553 1025.14 500.914 1022.72 501.095 1019.86 501.095 1016.56 501.095 1012.85 500.896 1009.66 500.499 1006.99 500.101 1004.31 499.541 1002.12 498.818 1000.39 498.096 998.671 497.186 997.401 496.09 996.582 494.994 995.763 493.736 995.353 492.314 995.353ZM492.459 991.848C495.326 991.848 497.776 992.384 499.812 993.456 501.847 994.528 503.51 996.058 504.798 998.045 506.087 1000.03 507.033 1002.46 507.635 1005.33 508.237 1008.19 508.538 1011.43 508.538 1015.05 508.538 1023.07 507.117 1029.13 504.274 1033.24 501.432 1037.35 497.313 1039.4 491.917 1039.4 486.569 1039.4 482.595 1037.46 479.993 1033.58 477.392 1029.7 476.091 1023.83 476.091 1015.95 476.091 1011.83 476.494 1008.26 477.301 1005.25 478.108 1002.24 479.24 999.743 480.698 997.756 482.155 995.769 483.883 994.287 485.883 993.312 487.882 992.336 490.074 991.848 492.459 991.848Z" fill-rule="evenodd"/><text fill="#000000" fill-opacity="0" font-family="Arial,Arial_MSFontService,sans-serif" font-size="47.5508" x="476.091" y="1033.46">0</text><path d="M520.683 946.799C530.283 949.33 537.656 954.796 542.801 963.196 547.947 971.597 550.519 981.731 550.519 993.6 550.519 1005.5 547.955 1015.64 542.826 1024 537.697 1032.37 530.316 1037.82 520.683 1040.35L519.499 1036.55C527.094 1034.02 532.741 1029.03 536.439 1021.56 540.138 1014.1 541.987 1004.61 541.987 993.107 541.987 981.994 540.146 972.764 536.464 965.416 532.782 958.068 527.078 953.128 519.351 950.596Z" fill-rule="evenodd"/><text fill="#000000" fill-opacity="0" font-family="Arial,Arial_MSFontService,sans-serif" font-size="93.5532" x="519.351" y="1028.66">)</text><path d="M594.652 996.164 655.41 996.164 655.41 1002.72 594.652 1002.72ZM594.652 975.698 655.41 975.698 655.41 982.257 594.652 982.257Z" fill-rule="evenodd"/><text fill="#000000" fill-opacity="0" font-family="Arial,Arial_MSFontService,sans-serif" font-size="27.0254" x="594.652" y="999.345">=</text><path d="M715.956 897.66C712.471 897.66 709.693 899.558 707.621 903.356 705.55 907.153 704.514 912.208 704.514 918.52 704.514 930.652 707.523 936.718 713.539 936.718 719.95 936.718 724.553 930.455 727.348 917.929 726.46 910.531 725.153 905.304 723.427 902.246 721.701 899.188 719.211 897.66 715.956 897.66ZM715.561 893.764C719.704 893.764 722.951 894.75 725.301 896.723 727.652 898.695 729.682 901.999 731.392 906.635L732.132 906.635 735.584 894.602 743.672 894.602 743.672 897.018C741.304 900.668 738.148 907.424 734.203 917.288 734.893 923.929 735.699 928.926 736.619 932.28 737.54 935.633 739.019 937.31 741.058 937.31 742.406 937.31 744 936.554 745.842 935.041L747.765 937.951C744.247 941.009 740.729 942.538 737.211 942.538 732.181 942.538 729.156 937.935 728.137 928.729L727.594 928.729C723.09 937.935 717.567 942.538 711.024 942.538 706.125 942.538 702.312 940.516 699.583 936.472 696.854 932.428 695.49 926.658 695.49 919.162 695.49 911.435 697.446 905.271 701.358 900.668 705.271 896.065 710.005 893.764 715.561 893.764Z" fill-rule="evenodd"/><text fill="#000000" fill-opacity="0" font-family="Arial,Arial_MSFontService,sans-serif" font-size="48.7739" x="695.49" y="936.441">α</text><path d="M769.652 919.041C767.966 919.041 766.557 919.48 765.424 920.359 764.292 921.239 763.395 922.527 762.732 924.226 762.07 925.924 761.6 927.995 761.323 930.44 761.046 932.885 760.908 935.662 760.908 938.769 760.908 942.358 761.082 945.46 761.432 948.073 761.781 950.687 762.323 952.837 763.058 954.523 763.792 956.209 764.714 957.45 765.822 958.245 766.93 959.04 768.255 959.437 769.796 959.437 771.242 959.437 772.506 959.064 773.59 958.317 774.674 957.57 775.572 956.408 776.282 954.83 776.993 953.252 777.529 951.253 777.89 948.832 778.252 946.411 778.432 943.551 778.432 940.25 778.432 936.541 778.233 933.349 777.836 930.675 777.439 928.001 776.878 925.803 776.156 924.081 775.433 922.359 774.524 921.088 773.428 920.269 772.332 919.45 771.073 919.041 769.652 919.041ZM769.796 915.536C772.663 915.536 775.114 916.072 777.149 917.144 779.185 918.216 780.847 919.745 782.136 921.732 783.425 923.72 784.37 926.147 784.972 929.013 785.574 931.88 785.876 935.12 785.876 938.733 785.876 946.754 784.454 952.819 781.612 956.926 778.769 961.033 774.65 963.086 769.254 963.086 763.907 963.086 759.932 961.147 757.331 957.269 754.729 953.391 753.428 947.513 753.428 939.636 753.428 935.517 753.832 931.952 754.639 928.941 755.446 925.93 756.578 923.431 758.035 921.443 759.493 919.456 761.221 917.975 763.22 916.999 765.22 916.023 767.412 915.536 769.796 915.536Z" fill-rule="evenodd"/><text fill="#000000" fill-opacity="0" font-family="Arial,Arial_MSFontService,sans-serif" font-size="47.5508" x="753.428" y="957.143">0</text><path d="M743.147 1017.4C749.262 1017.4 753.881 1018.74 757.005 1021.42 760.128 1024.1 761.69 1027.99 761.69 1033.08 761.69 1034.82 761.517 1036.43 761.172 1037.89 760.827 1039.35 760.284 1040.8 759.544 1042.23 758.805 1043.66 757.81 1045.2 756.561 1046.84 755.311 1048.48 753.931 1050.15 752.418 1051.85 750.906 1053.54 748.292 1056.36 744.577 1060.3 738.33 1066.91 733.744 1072.68 730.818 1077.61L749.41 1077.61C751.021 1077.61 752.32 1077.52 753.306 1077.32 754.292 1077.12 755.081 1076.79 755.673 1076.33 756.265 1075.87 756.733 1075.27 757.079 1074.53 757.424 1073.79 757.859 1072.65 758.385 1071.1L762.577 1071.1 761.739 1085.5 721.152 1085.5 721.152 1083.14C722.565 1079.69 724.472 1076.15 726.872 1072.53 729.272 1068.92 732.675 1064.66 737.081 1059.76 740.895 1055.55 743.64 1052.36 745.317 1050.19 747.158 1047.83 748.53 1045.78 749.435 1044.05 750.339 1042.33 750.988 1040.7 751.383 1039.17 751.777 1037.64 751.974 1036.11 751.974 1034.56 751.974 1032.1 751.58 1029.92 750.791 1028.03 750.002 1026.14 748.793 1024.65 747.166 1023.56 745.539 1022.48 743.492 1021.94 741.026 1021.94 734.878 1021.94 730.735 1025.36 728.598 1032.19L722.631 1032.19 722.631 1022.72C726.609 1020.85 730.333 1019.49 733.801 1018.66 737.27 1017.82 740.385 1017.4 743.147 1017.4Z" fill-rule="evenodd"/><text fill="#000000" fill-opacity="0" font-family="Arial,Arial_MSFontService,sans-serif" font-size="68.106" x="721.152" y="1076.99">2</text><path d="M690.292 986.071 794.292 986.071 794.292 993.071 690.292 993.071Z" fill-rule="evenodd"/><path d="M848.869 973.972C845.548 973.972 842.351 975.649 839.277 979.002 836.203 982.356 833.844 986.893 832.2 992.614 836.836 992.581 840.814 992.162 844.135 991.356 847.455 990.551 850.003 989.268 851.779 987.509 853.554 985.75 854.442 983.375 854.442 980.383 854.442 978.378 853.973 976.808 853.036 975.674 852.099 974.539 850.71 973.972 848.869 973.972ZM850.644 970.076C854.623 970.076 857.606 970.882 859.595 972.493 861.584 974.104 862.579 976.619 862.579 980.038 862.579 985.627 859.957 989.819 854.713 992.614 849.469 995.408 841.685 996.806 831.362 996.806 830.967 998.778 830.77 1000.92 830.77 1003.22 830.77 1006.67 831.444 1009.18 832.792 1010.74 834.14 1012.3 836.343 1013.08 839.4 1013.08 842.425 1013.08 845.162 1012.42 847.611 1011.11 850.061 1009.79 852.65 1007.77 855.379 1005.04L858.436 1008.25C855.247 1011.76 852.017 1014.41 848.746 1016.19 845.474 1017.96 841.669 1018.85 837.329 1018.85 832.562 1018.85 828.871 1017.4 826.257 1014.49 823.644 1011.58 822.337 1007.52 822.337 1002.33 822.337 998.811 822.97 995.038 824.235 991.011 825.501 986.983 827.416 983.367 829.981 980.161 832.545 976.956 835.619 974.474 839.203 972.715 842.787 970.956 846.6 970.076 850.644 970.076Z" fill-rule="evenodd"/><text fill="#000000" fill-opacity="0" font-family="Arial,Arial_MSFontService,sans-serif" font-size="48.7739" x="822.337" y="1012.75">𝑒</text><path d="M878.54 957.222 920.165 957.222 920.165 962.751 878.54 962.751Z" fill-rule="evenodd"/><text fill="#000000" fill-opacity="0" font-family="Arial,Arial_MSFontService,sans-serif" font-size="5.52832" x="878.54" y="962.06">−</text><path d="M950.827 947.828C949.526 947.828 948.292 948.117 947.123 948.695 945.955 949.273 944.877 950.074 943.89 951.098 942.902 952.122 942.017 953.326 941.234 954.711 940.451 956.096 939.782 957.59 939.228 959.192 938.674 960.793 938.253 962.48 937.964 964.25 937.675 966.021 937.53 967.785 937.53 969.544 937.53 972.097 937.898 973.982 938.632 975.198 939.367 976.415 940.553 977.023 942.191 977.023 943.323 977.023 944.474 976.698 945.642 976.047 946.81 975.397 947.961 974.458 949.093 973.229 950.225 972.001 951.321 970.507 952.381 968.749 953.441 966.99 954.44 965.003 955.38 962.787 955.886 960.402 956.139 958.102 956.139 955.885 956.139 953.115 955.711 951.08 954.856 949.779 954.001 948.478 952.658 947.828 950.827 947.828ZM950.972 944.251C953.934 944.251 956.235 945.124 957.873 946.87 959.511 948.617 960.426 951.309 960.619 954.946 960.715 954.946 960.794 954.934 960.854 954.91 960.914 954.886 960.968 954.874 961.016 954.874 961.86 953.212 962.709 951.568 963.564 949.942 964.419 948.316 965.256 946.672 966.075 945.009L973.157 945.009C973.085 945.395 973.013 945.786 972.94 946.184 972.868 946.581 972.772 946.985 972.651 947.394 970.604 950.068 968.647 952.67 966.78 955.199 964.913 957.728 963.136 960.233 961.45 962.714 961.161 964.738 960.938 966.593 960.782 968.279 960.625 969.965 960.547 971.495 960.547 972.868 960.547 973.687 960.595 974.361 960.691 974.891 960.788 975.421 960.938 975.837 961.143 976.138 961.348 976.439 961.613 976.65 961.938 976.77 962.263 976.891 962.642 976.951 963.076 976.951 964.57 976.951 966.521 975.566 968.93 972.796 969.339 973.205 969.749 973.609 970.158 974.006 970.568 974.403 970.977 974.783 971.387 975.144 970.182 976.373 969.098 977.409 968.135 978.252 967.171 979.095 966.25 979.775 965.37 980.293 964.491 980.811 963.63 981.19 962.787 981.431 961.944 981.672 961.041 981.793 960.077 981.793 956.343 981.793 954.476 979.432 954.476 974.711 954.476 974.157 954.495 973.627 954.531 973.121 954.567 972.615 954.609 972.097 954.657 971.567 954.561 971.567 954.476 971.543 954.404 971.495 954.332 971.447 954.26 971.422 954.187 971.422 952.814 973.301 951.508 974.903 950.267 976.228 949.026 977.553 947.81 978.625 946.618 979.444 945.425 980.263 944.221 980.859 943.004 981.233 941.788 981.606 940.517 981.793 939.192 981.793 937.771 981.793 936.506 981.51 935.398 980.943 934.29 980.377 933.363 979.582 932.616 978.559 931.869 977.535 931.303 976.306 930.918 974.873 930.532 973.44 930.34 971.844 930.34 970.086 930.34 967.797 930.575 965.569 931.044 963.401 931.514 961.233 932.195 959.192 933.086 957.276 933.977 955.361 935.049 953.609 936.302 952.019 937.554 950.429 938.951 949.056 940.493 947.9 942.035 946.744 943.691 945.846 945.461 945.208 947.232 944.57 949.069 944.251 950.972 944.251Z" fill-rule="evenodd"/><text fill="#000000" fill-opacity="0" font-family="Arial,Arial_MSFontService,sans-serif" font-size="37.542" x="930.34" y="977.1">𝛼</text><path d="M993.184 962.406C991.377 962.406 989.943 963.017 988.88 964.238 987.818 965.459 987.068 967.177 986.632 969.391 986.195 971.605 985.976 974.35 985.976 977.626 985.976 983.246 986.557 987.331 987.719 989.883 988.88 992.434 990.722 993.71 993.244 993.71 995.627 993.71 997.389 992.524 998.531 990.151 999.673 987.778 1000.24 983.98 1000.24 978.758 1000.24 973.198 999.673 969.083 998.531 966.412 997.389 963.741 995.607 962.406 993.184 962.406ZM993.244 959.279C995.766 959.279 997.88 959.725 999.588 960.619 1001.3 961.513 1002.68 962.768 1003.74 964.387 1004.81 966.005 1005.56 967.936 1006.01 970.18 1006.45 972.424 1006.68 974.886 1006.68 977.567 1006.68 983.941 1005.48 988.746 1003.09 991.983 1000.7 995.219 997.255 996.838 992.767 996.838 988.339 996.838 985.028 995.299 982.834 992.221 980.64 989.143 979.543 984.526 979.543 978.371 979.543 974.082 980.128 970.508 981.3 967.648 982.472 964.789 984.08 962.679 986.125 961.319 988.17 959.959 990.543 959.279 993.244 959.279Z" fill-rule="evenodd"/><text fill="#000000" fill-opacity="0" font-family="Arial,Arial_MSFontService,sans-serif" font-size="37.5591" x="979.543" y="992.143">0</text><path d="M1023.05 929.436 1028.62 929.436 1028.62 996.679 1023.05 996.679Z" fill-rule="evenodd"/><text fill="#000000" fill-opacity="0" font-family="Arial,Arial_MSFontService,sans-serif" font-size="67.2432" x="1023.05" y="988.274">|</text><path d="M1053.66 944.251C1054.98 944.251 1056.07 944.54 1056.91 945.118 1057.75 945.696 1058.45 946.539 1059.01 947.647 1059.56 948.755 1060.02 950.122 1060.38 951.748 1060.74 953.374 1061.13 955.235 1061.54 957.331L1062.01 957.331C1063.45 955.428 1064.7 953.778 1065.76 952.38 1066.82 950.983 1067.77 949.803 1068.6 948.839 1069.43 947.876 1070.18 947.093 1070.84 946.491 1071.5 945.889 1072.15 945.425 1072.77 945.1 1073.4 944.775 1074.04 944.552 1074.71 944.431 1075.37 944.311 1076.11 944.251 1076.93 944.251 1078.13 944.251 1079.23 944.467 1080.22 944.901L1078.41 952.019 1075.41 952.019C1075.34 950.983 1074.95 950.465 1074.26 950.465 1073.99 950.465 1073.7 950.514 1073.39 950.61 1073.08 950.706 1072.7 950.899 1072.27 951.188 1071.83 951.477 1071.33 951.881 1070.77 952.399 1070.2 952.916 1069.53 953.591 1068.76 954.422 1067.99 955.253 1067.11 956.271 1066.13 957.475 1065.14 958.68 1064.01 960.101 1062.73 961.739 1063.38 965.063 1063.94 967.725 1064.41 969.724 1064.88 971.724 1065.33 973.253 1065.76 974.313 1066.2 975.373 1066.63 976.066 1067.07 976.391 1067.5 976.716 1067.99 976.879 1068.55 976.879 1068.96 976.879 1069.34 976.83 1069.68 976.734 1070.03 976.638 1070.4 976.427 1070.77 976.102 1071.14 975.776 1071.56 975.307 1072.02 974.693 1072.47 974.078 1073.01 973.265 1073.64 972.254L1076.35 974.024C1075.29 975.614 1074.35 976.915 1073.53 977.926 1072.71 978.938 1071.92 979.733 1071.15 980.311 1070.38 980.889 1069.58 981.281 1068.76 981.485 1067.94 981.69 1067 981.793 1065.94 981.793 1065.03 981.793 1064.21 981.666 1063.49 981.413 1062.77 981.16 1062.14 980.697 1061.61 980.022 1061.25 979.613 1060.91 979.065 1060.6 978.378 1060.28 977.692 1060 976.951 1059.73 976.156 1059.47 975.361 1059.22 974.536 1059.01 973.681 1058.79 972.826 1058.61 972.025 1058.47 971.278 1058.32 970.531 1058.21 969.863 1058.12 969.273 1058.04 968.682 1057.98 968.243 1057.96 967.954L1057.56 967.954C1056.12 969.881 1054.86 971.561 1053.79 972.994 1052.71 974.428 1051.74 975.656 1050.88 976.68 1050.01 977.704 1049.23 978.547 1048.53 979.209 1047.83 979.872 1047.14 980.395 1046.47 980.781 1045.79 981.166 1045.1 981.431 1044.39 981.576 1043.68 981.72 1042.89 981.793 1042.03 981.793 1040.77 981.793 1039.7 981.576 1038.81 981.142L1040.47 974.096 1043.54 974.096C1043.61 975.156 1044.01 975.686 1044.73 975.686 1045 975.662 1045.26 975.614 1045.51 975.542 1045.76 975.469 1046.06 975.319 1046.4 975.09 1046.73 974.861 1047.16 974.5 1047.68 974.006 1048.2 973.512 1048.85 972.826 1049.65 971.946 1050.44 971.067 1051.42 969.965 1052.58 968.64 1053.73 967.315 1055.12 965.677 1056.73 963.726 1056.3 961.703 1055.92 959.944 1055.59 958.451 1055.27 956.957 1054.97 955.675 1054.69 954.603 1054.41 953.531 1054.14 952.658 1053.88 951.983 1053.61 951.309 1053.34 950.773 1053.06 950.375 1052.79 949.978 1052.49 949.695 1052.16 949.526 1051.84 949.357 1051.46 949.261 1051.02 949.237 1050.61 949.237 1050.23 949.303 1049.88 949.436 1049.53 949.568 1049.17 949.803 1048.8 950.14 1048.43 950.477 1048.02 950.947 1047.57 951.549 1047.13 952.152 1046.61 952.935 1046.04 953.898L1043.25 952.091C1044.24 950.622 1045.13 949.381 1045.93 948.37 1046.72 947.358 1047.51 946.551 1048.28 945.949 1049.05 945.347 1049.86 944.913 1050.71 944.648 1051.57 944.383 1052.55 944.251 1053.66 944.251Z" fill-rule="evenodd"/><text fill="#000000" fill-opacity="0" font-family="Arial,Arial_MSFontService,sans-serif" font-size="37.542" x="1038.81" y="977.1">𝑥</text><path d="M1089.24 957.222 1130.86 957.222 1130.86 962.751 1089.24 962.751Z" fill-rule="evenodd"/><text fill="#000000" fill-opacity="0" font-family="Arial,Arial_MSFontService,sans-serif" font-size="5.52832" x="1089.24" y="962.06">−</text><path d="M1152.45 944.251C1153.78 944.251 1154.86 944.54 1155.71 945.118 1156.55 945.696 1157.25 946.539 1157.8 947.647 1158.36 948.755 1158.81 950.122 1159.17 951.748 1159.54 953.374 1159.92 955.235 1160.33 957.331L1160.8 957.331C1162.25 955.428 1163.5 953.778 1164.56 952.38 1165.62 950.983 1166.56 949.803 1167.39 948.839 1168.23 947.876 1168.97 947.093 1169.63 946.491 1170.3 945.889 1170.94 945.425 1171.57 945.1 1172.19 944.775 1172.84 944.552 1173.5 944.431 1174.16 944.311 1174.9 944.251 1175.72 944.251 1176.93 944.251 1178.02 944.467 1179.01 944.901L1177.2 952.019 1174.21 952.019C1174.13 950.983 1173.75 950.465 1173.05 950.465 1172.78 950.465 1172.5 950.514 1172.18 950.61 1171.87 950.706 1171.5 950.899 1171.06 951.188 1170.63 951.477 1170.13 951.881 1169.56 952.399 1169 952.916 1168.33 953.591 1167.56 954.422 1166.79 955.253 1165.91 956.271 1164.92 957.475 1163.93 958.68 1162.8 960.101 1161.52 961.739 1162.17 965.063 1162.73 967.725 1163.2 969.724 1163.67 971.724 1164.12 973.253 1164.56 974.313 1164.99 975.373 1165.43 976.066 1165.86 976.391 1166.29 976.716 1166.79 976.879 1167.34 976.879 1167.75 976.879 1168.13 976.83 1168.48 976.734 1168.83 976.638 1169.19 976.427 1169.56 976.102 1169.94 975.776 1170.35 975.307 1170.81 974.693 1171.27 974.078 1171.81 973.265 1172.43 972.254L1175.14 974.024C1174.08 975.614 1173.15 976.915 1172.33 977.926 1171.51 978.938 1170.71 979.733 1169.94 980.311 1169.17 980.889 1168.38 981.281 1167.56 981.485 1166.74 981.69 1165.8 981.793 1164.74 981.793 1163.82 981.793 1163 981.666 1162.28 981.413 1161.56 981.16 1160.93 980.697 1160.4 980.022 1160.04 979.613 1159.7 979.065 1159.39 978.378 1159.08 977.692 1158.79 976.951 1158.52 976.156 1158.26 975.361 1158.02 974.536 1157.8 973.681 1157.58 972.826 1157.4 972.025 1157.26 971.278 1157.11 970.531 1157 969.863 1156.92 969.273 1156.83 968.682 1156.78 968.243 1156.75 967.954L1156.36 967.954C1154.91 969.881 1153.65 971.561 1152.58 972.994 1151.51 974.428 1150.54 975.656 1149.67 976.68 1148.8 977.704 1148.02 978.547 1147.32 979.209 1146.62 979.872 1145.94 980.395 1145.26 980.781 1144.59 981.166 1143.9 981.431 1143.19 981.576 1142.47 981.72 1141.69 981.793 1140.82 981.793 1139.57 981.793 1138.49 981.576 1137.6 981.142L1139.27 974.096 1142.34 974.096C1142.41 975.156 1142.81 975.686 1143.53 975.686 1143.79 975.662 1144.05 975.614 1144.31 975.542 1144.56 975.469 1144.85 975.319 1145.19 975.09 1145.53 974.861 1145.96 974.5 1146.47 974.006 1146.99 973.512 1147.65 972.826 1148.44 971.946 1149.24 971.067 1150.21 969.965 1151.37 968.64 1152.53 967.315 1153.91 965.677 1155.52 963.726 1155.09 961.703 1154.71 959.944 1154.39 958.451 1154.06 956.957 1153.76 955.675 1153.48 954.603 1153.21 953.531 1152.94 952.658 1152.67 951.983 1152.41 951.309 1152.13 950.773 1151.86 950.375 1151.58 949.978 1151.28 949.695 1150.95 949.526 1150.63 949.357 1150.25 949.261 1149.82 949.237 1149.41 949.237 1149.03 949.303 1148.68 949.436 1148.33 949.568 1147.97 949.803 1147.59 950.14 1147.22 950.477 1146.81 950.947 1146.37 951.549 1145.92 952.152 1145.41 952.935 1144.83 953.898L1142.05 952.091C1143.03 950.622 1143.93 949.381 1144.72 948.37 1145.52 947.358 1146.3 946.551 1147.07 945.949 1147.84 945.347 1148.65 944.913 1149.51 944.648 1150.36 944.383 1151.35 944.251 1152.45 944.251Z" fill-rule="evenodd"/><text fill="#000000" fill-opacity="0" font-family="Arial,Arial_MSFontService,sans-serif" font-size="37.542" x="1137.6" y="977.1">𝑥</text><path d="M1198.15 962.406C1196.34 962.406 1194.91 963.017 1193.85 964.238 1192.78 965.459 1192.04 967.177 1191.6 969.391 1191.16 971.605 1190.94 974.35 1190.94 977.626 1190.94 983.246 1191.52 987.331 1192.69 989.883 1193.85 992.434 1195.69 993.71 1198.21 993.71 1200.59 993.71 1202.36 992.524 1203.5 990.151 1204.64 987.778 1205.21 983.98 1205.21 978.758 1205.21 973.198 1204.64 969.083 1203.5 966.412 1202.36 963.741 1200.57 962.406 1198.15 962.406ZM1198.21 959.279C1200.73 959.279 1202.85 959.725 1204.55 960.619 1206.26 961.513 1207.65 962.768 1208.71 964.387 1209.77 966.005 1210.53 967.936 1210.97 970.18 1211.42 972.424 1211.64 974.886 1211.64 977.567 1211.64 983.941 1210.45 988.746 1208.05 991.983 1205.66 995.219 1202.22 996.838 1197.73 996.838 1193.31 996.838 1189.99 995.299 1187.8 992.221 1185.61 989.143 1184.51 984.526 1184.51 978.371 1184.51 974.082 1185.1 970.508 1186.27 967.648 1187.44 964.789 1189.05 962.679 1191.09 961.319 1193.14 959.959 1195.51 959.279 1198.21 959.279Z" fill-rule="evenodd"/><text fill="#000000" fill-opacity="0" font-family="Arial,Arial_MSFontService,sans-serif" font-size="37.5591" x="1184.51" y="992.143">0</text><path d="M1228.02 929.436 1233.58 929.436 1233.58 996.679 1228.02 996.679Z" fill-rule="evenodd"/><text fill="#000000" fill-opacity="0" font-family="Arial,Arial_MSFontService,sans-serif" font-size="67.2432" x="1228.02" y="988.274">|</text></g></svg>