<svg width="2727" height="389" xmlns="http://www.w3.org/2000/svg" xmlns:xlink="http://www.w3.org/1999/xlink" xml:space="preserve" overflow="hidden"><g transform="translate(-1479 -788)"><path d="M1522.63 901.348C1520.62 901.348 1518.71 901.866 1516.88 902.902 1515.06 903.938 1513.42 905.425 1511.98 907.365 1510.53 909.305 1509.32 911.557 1508.35 914.121 1507.38 916.686 1506.63 919.291 1506.08 921.938 1505.54 924.585 1505.27 927.338 1505.27 930.199 1505.27 933.158 1505.59 935.467 1506.23 937.128 1506.87 938.788 1507.72 939.93 1508.77 940.555 1509.82 941.18 1511.14 941.492 1512.72 941.492 1516.27 941.492 1519.3 940.07 1521.81 937.226 1524.33 934.382 1526.48 930.108 1528.25 924.404 1530.03 918.7 1530.91 914.204 1530.91 910.916 1530.91 907.562 1530.23 905.129 1528.87 903.617 1527.5 902.105 1525.42 901.348 1522.63 901.348ZM1525.19 873.731C1530.68 873.731 1534.79 875.597 1537.52 879.329 1540.25 883.06 1541.62 888.707 1541.62 896.269 1541.62 899.261 1541.35 902.82 1540.83 906.946 1540.3 911.072 1539.41 915.371 1538.16 919.842 1536.91 924.313 1535.47 928.111 1533.82 931.234 1532.18 934.358 1530.35 936.938 1528.35 938.977 1526.34 941.015 1524.03 942.593 1521.42 943.711 1518.81 944.829 1515.86 945.388 1512.57 945.388 1509.25 945.388 1506.37 944.706 1503.94 943.341 1501.5 941.977 1499.66 940.004 1498.41 937.423 1497.16 934.843 1496.54 931.678 1496.54 927.93 1496.54 924.248 1497.12 920.59 1498.27 916.957 1499.42 913.324 1501.1 910.02 1503.32 907.044 1505.54 904.069 1508.19 901.727 1511.26 900.017 1514.34 898.307 1517.63 897.452 1521.15 897.452 1523.52 897.452 1525.59 897.724 1527.36 898.266 1529.14 898.809 1531.11 899.869 1533.28 901.447L1533.38 900.214C1533.48 898.636 1533.53 897.272 1533.53 896.121 1533.53 893.425 1533.36 890.992 1533.03 888.822 1532.71 886.652 1532.15 884.786 1531.38 883.225 1530.61 881.663 1529.57 880.463 1528.28 879.625 1526.98 878.786 1525.34 878.367 1523.37 878.367 1520.97 878.367 1518.74 878.934 1516.69 880.068 1514.63 881.203 1512.62 882.953 1510.64 885.321L1507.09 885.321 1507.09 881.227C1510.22 879.025 1512.64 877.455 1514.37 876.518 1516.09 875.581 1517.82 874.882 1519.55 874.422 1521.27 873.961 1523.15 873.731 1525.19 873.731Z" fill-rule="evenodd"/><text fill="#000000" fill-opacity="0" font-family="Arial,Arial_MSFontService,sans-serif" font-size="71.6567" x="1496.54" y="936.431">∂</text><path d="M1583.79 881.622C1581.75 881.622 1579.62 881.671 1577.38 881.77L1570.68 911.656 1575.8 911.656C1579.78 911.656 1583 911.245 1585.45 910.423 1587.89 909.601 1589.9 908.327 1591.46 906.601 1593.02 904.875 1594.23 902.828 1595.09 900.461 1595.94 898.094 1596.37 895.496 1596.37 892.669 1596.37 888.855 1595.4 886.06 1593.46 884.285 1591.52 882.51 1588.3 881.622 1583.79 881.622ZM1563.13 877.282 1584.88 877.282C1588.79 877.282 1592 877.586 1594.52 878.194 1597.03 878.803 1599.11 879.74 1600.73 881.005 1602.36 882.271 1603.58 883.874 1604.38 885.814 1605.19 887.754 1605.59 890.006 1605.59 892.57 1605.59 897.502 1604.42 901.776 1602.09 905.392 1599.76 909.009 1596.59 911.672 1592.6 913.382 1588.6 915.091 1583.81 915.946 1578.22 915.946 1574.87 915.946 1572.07 915.88 1569.84 915.749L1566.68 930.248C1566.38 931.596 1566.18 932.631 1566.06 933.355 1565.95 934.078 1565.85 934.859 1565.77 935.697 1565.69 936.536 1565.64 937.284 1565.64 937.941 1565.64 938.96 1565.81 939.758 1566.14 940.333 1566.47 940.908 1566.96 941.328 1567.62 941.591 1568.28 941.854 1569.41 942.051 1571.02 942.182L1570.48 944.599 1550.21 944.599 1550.75 942.182C1552 941.985 1552.94 941.665 1553.56 941.221 1554.19 940.777 1554.71 940.16 1555.14 939.371 1555.57 938.582 1555.96 937.621 1556.32 936.486 1556.69 935.352 1557.23 933.158 1557.95 929.903L1566.34 891.929C1567.06 888.641 1567.42 886.044 1567.42 884.137 1567.42 882.526 1567.04 881.408 1566.29 880.784 1565.53 880.159 1564.3 879.797 1562.59 879.699Z" fill-rule="evenodd"/><text fill="#000000" fill-opacity="0" font-family="Arial,Arial_MSFontService,sans-serif" font-size="67.3169" x="1550.21" y="936.184">𝑃</text><path d="M1824.98 869.856 1832.57 869.856 1832.57 961.634 1824.98 961.634ZM1651.01 868.96 1652.34 872.757C1644.65 875.289 1638.95 880.228 1635.25 887.577 1631.56 894.925 1629.71 904.155 1629.71 915.268 1629.71 926.775 1631.56 936.26 1635.25 943.723 1638.95 951.187 1644.6 956.184 1652.19 958.716L1651.01 962.513C1641.38 959.981 1634 954.532 1628.87 946.164 1623.74 937.797 1621.17 927.663 1621.17 915.761 1621.17 903.892 1623.75 893.758 1628.89 885.357 1634.04 876.957 1641.41 871.491 1651.01 868.96Z" fill-rule="evenodd"/><path d="M1673.62 896.614C1674.64 896.614 1675.54 896.729 1676.31 896.959 1677.08 897.189 1677.77 897.543 1678.36 898.02 1678.95 898.496 1679.48 899.113 1679.94 899.869 1680.4 900.625 1680.84 901.653 1681.27 902.951 1681.69 904.25 1682.1 905.861 1682.48 907.784 1682.85 909.708 1683.19 911.705 1683.49 913.776L1683.98 913.776C1687.14 909.338 1689.53 906.091 1691.16 904.036 1692.78 901.981 1694.16 900.453 1695.27 899.45 1696.39 898.447 1697.47 897.74 1698.5 897.329 1699.54 896.918 1700.91 896.713 1702.62 896.713 1704.17 896.713 1705.43 896.91 1706.42 897.305L1704.45 906.231 1700.99 906.231C1700.8 904.85 1700.22 904.159 1699.27 904.159 1698.97 904.159 1698.66 904.209 1698.33 904.307 1698 904.406 1697.6 904.62 1697.12 904.949 1696.65 905.277 1695.95 905.918 1695.03 906.872 1694.11 907.825 1693.07 908.992 1691.92 910.373 1690.77 911.754 1689.59 913.201 1688.37 914.713L1685.02 918.905C1685.61 922.061 1686.17 924.79 1686.69 927.092 1687.22 929.393 1687.69 931.308 1688.1 932.837 1688.51 934.366 1688.87 935.574 1689.18 936.462 1689.5 937.349 1689.83 938.015 1690.19 938.459 1690.56 938.903 1690.93 939.215 1691.3 939.396 1691.68 939.577 1692.12 939.667 1692.61 939.667 1693.5 939.667 1694.36 939.322 1695.2 938.632 1696.04 937.941 1697.25 936.38 1698.82 933.947L1702.03 936.067C1699.73 939.486 1697.65 941.895 1695.79 943.292 1693.93 944.689 1691.72 945.388 1689.16 945.388 1687.74 945.388 1686.54 945.133 1685.56 944.624 1684.57 944.114 1683.72 943.3 1682.99 942.182 1682.27 941.065 1681.63 939.322 1681.07 936.955 1680.05 932.747 1679.43 929.525 1679.2 927.289L1678.7 927.289C1675.22 932.188 1672.63 935.706 1670.94 937.843 1669.24 939.98 1667.85 941.558 1666.74 942.577 1665.64 943.596 1664.57 944.311 1663.54 944.722 1662.5 945.133 1661.13 945.339 1659.42 945.339 1657.88 945.339 1656.61 945.141 1655.62 944.747L1657.6 935.821 1661.05 935.821C1661.25 937.201 1661.82 937.892 1662.77 937.892 1663.23 937.892 1663.72 937.769 1664.23 937.522 1664.74 937.275 1665.47 936.684 1666.42 935.747 1667.38 934.81 1668.69 933.338 1670.37 931.333 1672.05 929.327 1674.48 926.319 1677.67 922.308 1677.17 919.711 1676.66 917.212 1676.14 914.812 1675.61 912.412 1675.07 910.176 1674.51 908.105 1673.95 906.034 1673.49 904.677 1673.13 904.036 1672.77 903.395 1672.38 902.951 1671.97 902.705 1671.56 902.458 1671.04 902.335 1670.42 902.335 1669.73 902.335 1669.1 902.491 1668.54 902.803 1667.98 903.116 1667.38 903.658 1666.72 904.431 1666.06 905.203 1665.19 906.412 1664.11 908.055L1660.9 905.935C1662.97 902.812 1664.96 900.477 1666.87 898.932 1668.77 897.387 1671.03 896.614 1673.62 896.614Z" fill-rule="evenodd"/><text fill="#000000" fill-opacity="0" font-family="Arial,Arial_MSFontService,sans-serif" font-size="48.7739" x="1655.62" y="939.291">𝑥</text><path d="M1717.65 933.158 1726.28 933.158C1726.74 935.459 1726.97 937.728 1726.97 939.963 1726.97 942.265 1726.58 944.369 1725.79 946.276 1725 948.183 1723.74 950.081 1722.02 951.972 1720.29 953.862 1717.92 955.942 1714.89 958.21L1712.23 955.202C1713.91 953.624 1715.12 952.202 1715.88 950.936 1716.63 949.67 1717.18 948.232 1717.51 946.621 1717.83 945.01 1718 942.988 1718 940.555 1718 938.056 1717.88 935.59 1717.65 933.158Z" fill-rule="evenodd"/><text fill="#000000" fill-opacity="0" font-family="Arial,Arial_MSFontService,sans-serif" font-size="25.0527" x="1712.23" y="955.079">,</text><path d="M1767.75 885.271 1774.56 885.271 1771.84 897.452 1786.84 897.452 1785.75 902.433 1770.76 902.433 1766.37 921.568C1765.52 925.283 1764.97 927.955 1764.74 929.582 1764.51 931.21 1764.4 932.516 1764.4 933.503 1764.4 937.58 1766.09 939.618 1769.48 939.618 1770.92 939.618 1772.46 939.067 1774.09 937.966 1775.72 936.865 1777.65 934.982 1779.88 932.319L1782.74 935.278C1779.88 938.73 1777.13 941.278 1774.48 942.922 1771.84 944.566 1769.07 945.388 1766.17 945.388 1759.3 945.388 1755.87 941.919 1755.87 934.982 1755.87 932.779 1756.15 930.462 1756.7 928.029L1762.52 902.433 1754.24 902.433 1754.98 899.031C1756.92 898.998 1758.39 898.85 1759.39 898.587 1760.39 898.324 1761.23 897.962 1761.91 897.502 1762.58 897.042 1763.2 896.384 1763.76 895.529 1764.32 894.674 1764.86 893.581 1765.38 892.25 1765.91 890.918 1766.7 888.592 1767.75 885.271Z" fill-rule="evenodd"/><text fill="#000000" fill-opacity="0" font-family="Arial,Arial_MSFontService,sans-serif" font-size="60.1167" x="1754.24" y="937.873">𝑡</text><path d="M1886.52 896.614C1887.54 896.614 1888.43 896.729 1889.21 896.959 1889.98 897.189 1890.66 897.543 1891.25 898.02 1891.85 898.496 1892.37 899.113 1892.83 899.869 1893.29 900.625 1893.74 901.653 1894.16 902.951 1894.59 904.25 1894.99 905.861 1895.37 907.784 1895.75 909.708 1896.09 911.705 1896.38 913.776L1896.88 913.776C1900.03 909.338 1902.42 906.091 1904.05 904.036 1905.68 901.981 1907.05 900.453 1908.17 899.45 1909.29 898.447 1910.36 897.74 1911.4 897.329 1912.44 896.918 1913.81 896.713 1915.52 896.713 1917.06 896.713 1918.33 896.91 1919.31 897.305L1917.34 906.231 1913.89 906.231C1913.69 904.85 1913.12 904.159 1912.16 904.159 1911.87 904.159 1911.56 904.209 1911.23 904.307 1910.9 904.406 1910.5 904.62 1910.02 904.949 1909.54 905.277 1908.84 905.918 1907.92 906.872 1907 907.825 1905.97 908.992 1904.82 910.373 1903.66 911.754 1902.48 913.201 1901.26 914.713L1897.91 918.905C1898.5 922.061 1899.06 924.79 1899.59 927.092 1900.11 929.393 1900.58 931.308 1900.99 932.837 1901.4 934.366 1901.77 935.574 1902.08 936.462 1902.39 937.349 1902.73 938.015 1903.09 938.459 1903.45 938.903 1903.82 939.215 1904.2 939.396 1904.58 939.577 1905.01 939.667 1905.51 939.667 1906.39 939.667 1907.26 939.322 1908.1 938.632 1908.93 937.941 1910.14 936.38 1911.72 933.947L1914.93 936.067C1912.62 939.486 1910.54 941.895 1908.69 943.292 1906.83 944.689 1904.62 945.388 1902.05 945.388 1900.64 945.388 1899.44 945.133 1898.45 944.624 1897.47 944.114 1896.61 943.3 1895.89 942.182 1895.17 941.065 1894.53 939.322 1893.97 936.955 1892.95 932.747 1892.32 929.525 1892.09 927.289L1891.6 927.289C1888.11 932.188 1885.52 935.706 1883.83 937.843 1882.14 939.98 1880.74 941.558 1879.64 942.577 1878.54 943.596 1877.47 944.311 1876.43 944.722 1875.4 945.133 1874.03 945.339 1872.32 945.339 1870.77 945.339 1869.51 945.141 1868.52 944.747L1870.49 935.821 1873.94 935.821C1874.14 937.201 1874.72 937.892 1875.67 937.892 1876.13 937.892 1876.61 937.769 1877.12 937.522 1877.63 937.275 1878.37 936.684 1879.32 935.747 1880.27 934.81 1881.59 933.338 1883.26 931.333 1884.94 929.327 1887.37 926.319 1890.56 922.308 1890.07 919.711 1889.56 917.212 1889.03 914.812 1888.51 912.412 1887.97 910.176 1887.41 908.105 1886.85 906.034 1886.39 904.677 1886.03 904.036 1885.66 903.395 1885.28 902.951 1884.87 902.705 1884.46 902.458 1883.94 902.335 1883.31 902.335 1882.62 902.335 1882 902.491 1881.44 902.803 1880.88 903.116 1880.27 903.658 1879.61 904.431 1878.96 905.203 1878.09 906.412 1877 908.055L1873.8 905.935C1875.87 902.812 1877.86 900.477 1879.76 898.932 1881.67 897.387 1883.92 896.614 1886.52 896.614Z" fill-rule="evenodd"/><text fill="#000000" fill-opacity="0" font-family="Arial,Arial_MSFontService,sans-serif" font-size="48.7739" x="1868.52" y="939.291">𝑥</text><path d="M1941.33 921.891C1939.65 921.891 1938.24 922.331 1937.11 923.21 1935.98 924.089 1935.08 925.378 1934.42 927.076 1933.75 928.774 1933.28 930.846 1933.01 933.291 1932.73 935.736 1932.59 938.512 1932.59 941.62 1932.59 945.209 1932.77 948.31 1933.11 950.924 1933.46 953.537 1934.01 955.687 1934.74 957.373 1935.48 959.06 1936.4 960.3 1937.5 961.095 1938.61 961.89 1939.94 962.287 1941.48 962.287 1942.92 962.287 1944.19 961.914 1945.27 961.167 1946.36 960.421 1947.25 959.258 1947.97 957.681 1948.68 956.103 1949.21 954.103 1949.57 951.682 1949.93 949.262 1950.12 946.401 1950.12 943.101 1950.12 939.391 1949.92 936.2 1949.52 933.526 1949.12 930.852 1948.56 928.654 1947.84 926.932 1947.12 925.209 1946.21 923.939 1945.11 923.12 1944.01 922.3 1942.76 921.891 1941.33 921.891ZM1941.48 918.386C1944.35 918.386 1946.8 918.922 1948.83 919.994 1950.87 921.066 1952.53 922.596 1953.82 924.583 1955.11 926.57 1956.05 928.997 1956.66 931.864 1957.26 934.73 1957.56 937.97 1957.56 941.583 1957.56 949.605 1956.14 955.669 1953.29 959.776 1950.45 963.883 1946.33 965.937 1940.94 965.937 1935.59 965.937 1931.62 963.998 1929.01 960.12 1926.41 956.241 1925.11 950.364 1925.11 942.487 1925.11 938.368 1925.51 934.802 1926.32 931.791 1927.13 928.78 1928.26 926.281 1929.72 924.294 1931.18 922.307 1932.9 920.825 1934.9 919.849 1936.9 918.874 1939.09 918.386 1941.48 918.386Z" fill-rule="evenodd"/><text fill="#000000" fill-opacity="0" font-family="Arial,Arial_MSFontService,sans-serif" font-size="47.5508" x="1925.11" y="959.993">0</text><path d="M1969.7 873.337C1979.3 875.868 1986.68 881.334 1991.82 889.734 1996.97 898.135 1999.54 908.269 1999.54 920.138 1999.54 932.04 1996.98 942.174 1991.85 950.542 1986.72 958.909 1979.34 964.358 1969.7 966.89L1968.52 963.093C1976.11 960.561 1981.76 955.564 1985.46 948.1 1989.16 940.637 1991.01 931.152 1991.01 919.645 1991.01 908.532 1989.17 899.302 1985.48 891.954 1981.8 884.606 1976.1 879.666 1968.37 877.134Z" fill-rule="evenodd"/><text fill="#000000" fill-opacity="0" font-family="Arial,Arial_MSFontService,sans-serif" font-size="93.5532" x="1968.37" y="955.196">)</text><path d="M1732.09 1045.1C1730.08 1045.1 1728.17 1045.62 1726.34 1046.66 1724.52 1047.69 1722.88 1049.18 1721.43 1051.12 1719.99 1053.06 1718.78 1055.31 1717.81 1057.88 1716.84 1060.44 1716.08 1063.05 1715.54 1065.69 1715 1068.34 1714.73 1071.09 1714.73 1073.95 1714.73 1076.91 1715.05 1079.22 1715.69 1080.88 1716.33 1082.54 1717.18 1083.69 1718.23 1084.31 1719.28 1084.94 1720.6 1085.25 1722.17 1085.25 1725.73 1085.25 1728.76 1083.83 1731.27 1080.98 1733.79 1078.14 1735.93 1073.86 1737.71 1068.16 1739.48 1062.46 1740.37 1057.96 1740.37 1054.67 1740.37 1051.32 1739.69 1048.89 1738.33 1047.37 1736.96 1045.86 1734.88 1045.1 1732.09 1045.1ZM1734.65 1017.49C1740.14 1017.49 1744.25 1019.35 1746.98 1023.08 1749.71 1026.82 1751.07 1032.46 1751.07 1040.03 1751.07 1043.02 1750.81 1046.58 1750.28 1050.7 1749.76 1054.83 1748.87 1059.13 1747.62 1063.6 1746.37 1068.07 1744.93 1071.87 1743.28 1074.99 1741.64 1078.11 1739.81 1080.69 1737.81 1082.73 1735.8 1084.77 1733.49 1086.35 1730.88 1087.47 1728.26 1088.59 1725.31 1089.14 1722.03 1089.14 1718.71 1089.14 1715.83 1088.46 1713.4 1087.1 1710.96 1085.73 1709.12 1083.76 1707.87 1081.18 1706.62 1078.6 1706 1075.43 1706 1071.69 1706 1068 1706.57 1064.35 1707.72 1060.71 1708.88 1057.08 1710.56 1053.78 1712.78 1050.8 1715 1047.83 1717.65 1045.48 1720.72 1043.77 1723.79 1042.06 1727.09 1041.21 1730.61 1041.21 1732.97 1041.21 1735.05 1041.48 1736.82 1042.02 1738.6 1042.56 1740.57 1043.63 1742.74 1045.2L1742.84 1043.97C1742.94 1042.39 1742.99 1041.03 1742.99 1039.88 1742.99 1037.18 1742.82 1034.75 1742.49 1032.58 1742.16 1030.41 1741.61 1028.54 1740.84 1026.98 1740.07 1025.42 1739.03 1024.22 1737.73 1023.38 1736.43 1022.54 1734.8 1022.12 1732.83 1022.12 1730.43 1022.12 1728.2 1022.69 1726.14 1023.82 1724.09 1024.96 1722.08 1026.71 1720.1 1029.08L1716.55 1029.08 1716.55 1024.98C1719.68 1022.78 1722.1 1021.21 1723.83 1020.27 1725.55 1019.34 1727.28 1018.64 1729 1018.18 1730.73 1017.72 1732.61 1017.49 1734.65 1017.49Z" fill-rule="evenodd"/><text fill="#000000" fill-opacity="0" font-family="Arial,Arial_MSFontService,sans-serif" font-size="71.6567" x="1706" y="1080.19">∂</text><path d="M1776.14 1029.03 1782.94 1029.03 1780.23 1041.21 1795.22 1041.21 1794.14 1046.19 1779.15 1046.19 1774.76 1065.32C1773.9 1069.04 1773.36 1071.71 1773.13 1073.34 1772.9 1074.97 1772.79 1076.27 1772.79 1077.26 1772.79 1081.34 1774.48 1083.37 1777.86 1083.37 1779.31 1083.37 1780.85 1082.82 1782.48 1081.72 1784.1 1080.62 1786.03 1078.74 1788.27 1076.08L1791.13 1079.03C1788.27 1082.49 1785.52 1085.03 1782.87 1086.68 1780.22 1088.32 1777.45 1089.14 1774.56 1089.14 1767.69 1089.14 1764.25 1085.68 1764.25 1078.74 1764.25 1076.54 1764.53 1074.22 1765.09 1071.78L1770.91 1046.19 1762.63 1046.19 1763.37 1042.79C1765.31 1042.75 1766.78 1042.61 1767.78 1042.34 1768.78 1042.08 1769.62 1041.72 1770.29 1041.26 1770.97 1040.8 1771.59 1040.14 1772.14 1039.29 1772.7 1038.43 1773.25 1037.34 1773.77 1036.01 1774.3 1034.67 1775.09 1032.35 1776.14 1029.03Z" fill-rule="evenodd"/><text fill="#000000" fill-opacity="0" font-family="Arial,Arial_MSFontService,sans-serif" font-size="60.1167" x="1762.63" y="1081.63">𝑡</text><path d="M1492.08 988.92 2008.08 988.92 2008.08 995.92 1492.08 995.92Z" fill-rule="evenodd"/><path d="M2043.67 999.015 2104.43 999.015 2104.43 1005.57 2043.67 1005.57ZM2043.67 978.549 2104.43 978.549 2104.43 985.108 2043.67 985.108Z" fill-rule="evenodd"/><text fill="#000000" fill-opacity="0" font-family="Arial,Arial_MSFontService,sans-serif" font-size="27.0254" x="2043.67" y="1002.2">=</text><path d="M2173.95 957.885C2172.51 957.885 2170.94 957.934 2169.27 958.033L2156.49 1016.37C2157.45 1016.47 2159.27 1016.52 2161.97 1016.52 2167.29 1016.52 2171.81 1015.59 2175.53 1013.74 2179.24 1011.88 2182.45 1008.97 2185.15 1005.01 2187.84 1001.05 2189.83 996.87 2191.11 992.481 2192.4 988.091 2193.04 983.464 2193.04 978.598 2193.04 971.727 2191.43 966.557 2188.23 963.088 2185.02 959.619 2180.26 957.885 2173.95 957.885ZM2155.11 953.595 2173.8 953.595C2178.77 953.595 2182.8 953.973 2185.89 954.729 2188.98 955.485 2191.86 956.849 2194.54 958.822 2197.22 960.795 2199.23 963.417 2200.58 966.688 2201.93 969.959 2202.6 973.831 2202.6 978.302 2202.6 982.741 2202.09 986.982 2201.08 991.026 2200.06 995.07 2198.59 998.793 2196.69 1002.2 2194.78 1005.6 2192.49 1008.56 2189.83 1011.07 2187.17 1013.59 2184.59 1015.52 2182.09 1016.87 2179.59 1018.22 2176.8 1019.23 2173.71 1019.9 2170.61 1020.57 2167.01 1020.91 2162.9 1020.91L2142.19 1020.91 2142.73 1018.49C2143.98 1018.3 2144.92 1017.98 2145.55 1017.53 2146.17 1017.09 2146.7 1016.47 2147.12 1015.68 2147.55 1014.89 2147.95 1013.93 2148.31 1012.8 2148.67 1011.66 2149.21 1009.47 2149.93 1006.22L2158.32 968.242C2159.04 964.954 2159.4 962.307 2159.4 960.302 2159.4 958.756 2159.02 957.68 2158.24 957.071 2157.47 956.463 2156.25 956.11 2154.57 956.011Z" fill-rule="evenodd"/><text fill="#000000" fill-opacity="0" font-family="Arial,Arial_MSFontService,sans-serif" font-size="67.3169" x="2142.19" y="1012.5">𝐷</text><path d="M2259.26 901.348C2257.26 901.348 2255.34 901.866 2253.52 902.902 2251.69 903.938 2250.06 905.425 2248.61 907.365 2247.16 909.305 2245.95 911.557 2244.98 914.121 2244.01 916.686 2243.26 919.291 2242.72 921.938 2242.17 924.585 2241.9 927.338 2241.9 930.199 2241.9 933.158 2242.22 935.467 2242.86 937.128 2243.51 938.788 2244.35 939.93 2245.4 940.555 2246.46 941.18 2247.77 941.492 2249.35 941.492 2252.9 941.492 2255.93 940.07 2258.45 937.226 2260.96 934.382 2263.11 930.108 2264.88 924.404 2266.66 918.7 2267.55 914.204 2267.55 910.916 2267.55 907.562 2266.86 905.129 2265.5 903.617 2264.14 902.105 2262.06 901.348 2259.26 901.348ZM2261.83 873.731C2267.32 873.731 2271.43 875.597 2274.16 879.329 2276.88 883.06 2278.25 888.707 2278.25 896.269 2278.25 899.261 2277.99 902.82 2277.46 906.946 2276.93 911.072 2276.05 915.371 2274.8 919.842 2273.55 924.313 2272.1 928.111 2270.46 931.234 2268.81 934.358 2266.99 936.938 2264.98 938.977 2262.98 941.015 2260.67 942.593 2258.05 943.711 2255.44 944.829 2252.49 945.388 2249.2 945.388 2245.88 945.388 2243 944.706 2240.57 943.341 2238.14 941.977 2236.3 940.004 2235.05 937.423 2233.8 934.843 2233.17 931.678 2233.17 927.93 2233.17 924.248 2233.75 920.59 2234.9 916.957 2236.05 913.324 2237.74 910.02 2239.95 907.044 2242.17 904.069 2244.82 901.727 2247.89 900.017 2250.97 898.307 2254.26 897.452 2257.78 897.452 2260.15 897.452 2262.22 897.724 2264 898.266 2265.77 898.809 2267.74 899.869 2269.91 901.447L2270.01 900.214C2270.11 898.636 2270.16 897.272 2270.16 896.121 2270.16 893.425 2270 890.992 2269.67 888.822 2269.34 886.652 2268.79 884.786 2268.02 883.225 2267.24 881.663 2266.21 880.463 2264.91 879.625 2263.61 878.786 2261.97 878.367 2260 878.367 2257.6 878.367 2255.37 878.934 2253.32 880.068 2251.26 881.203 2249.25 882.953 2247.28 885.321L2243.73 885.321 2243.73 881.227C2246.85 879.025 2249.28 877.455 2251 876.518 2252.73 875.581 2254.45 874.882 2256.18 874.422 2257.91 873.961 2259.79 873.731 2261.83 873.731Z" fill-rule="evenodd"/><text fill="#000000" fill-opacity="0" font-family="Arial,Arial_MSFontService,sans-serif" font-size="71.6567" x="2233.17" y="936.431">∂</text><path d="M2305.6 860.888C2308.11 860.888 2310.25 861.171 2312.02 861.737 2313.79 862.303 2315.23 863.068 2316.33 864.032 2317.44 864.995 2318.24 866.152 2318.74 867.501 2319.23 868.849 2319.48 870.307 2319.48 871.873 2319.48 872.812 2319.41 873.685 2319.28 874.492 2319.15 875.299 2318.92 876.094 2318.59 876.877 2318.27 877.66 2317.84 878.449 2317.31 879.244 2316.78 880.039 2316.12 880.882 2315.32 881.773 2314.72 882.544 2313.94 883.435 2312.97 884.447 2312.01 885.459 2310.96 886.543 2309.81 887.699 2308.67 888.855 2307.47 890.059 2306.22 891.312 2304.96 892.565 2303.75 893.805 2302.57 895.034 2301.39 896.262 2300.3 897.455 2299.32 898.611 2298.33 899.767 2297.52 900.827 2296.89 901.791L2310.26 901.791C2311.4 901.791 2312.3 901.748 2312.97 901.664 2313.65 901.58 2314.21 901.393 2314.65 901.104 2315.1 900.815 2315.48 900.375 2315.79 899.785 2316.1 899.195 2316.47 898.382 2316.88 897.346L2320.24 897.346C2320.12 899.057 2320 900.779 2319.89 902.513 2319.78 904.248 2319.67 905.97 2319.55 907.68L2288.95 907.68 2288.95 905.801C2289.52 904.501 2290.2 903.218 2290.97 901.953 2291.74 900.689 2292.61 899.406 2293.57 898.105 2294.53 896.804 2295.63 895.461 2296.86 894.076 2298.09 892.691 2299.45 891.252 2300.94 889.758 2303.21 887.494 2305.05 885.561 2306.47 883.959 2307.89 882.357 2309.01 880.93 2309.83 879.677 2310.65 878.425 2311.21 877.268 2311.51 876.209 2311.81 875.149 2311.96 874.016 2311.96 872.812 2311.96 871.584 2311.79 870.451 2311.44 869.416 2311.09 868.38 2310.59 867.501 2309.94 866.778 2309.29 866.055 2308.46 865.489 2307.46 865.08 2306.46 864.67 2305.31 864.465 2304.01 864.465 2301.77 864.465 2299.89 865.074 2298.38 866.29 2296.86 867.507 2295.68 869.271 2294.83 871.584L2290.1 871.584 2290.1 864.538C2293.18 863.261 2296.02 862.334 2298.61 861.755 2301.2 861.177 2303.53 860.888 2305.6 860.888Z" fill-rule="evenodd"/><text fill="#000000" fill-opacity="0" font-family="Arial,Arial_MSFontService,sans-serif" font-size="46.792" x="2288.95" y="901.831">2</text><path d="M2367.02 881.622C2364.98 881.622 2362.84 881.671 2360.6 881.77L2353.9 911.656 2359.03 911.656C2363.01 911.656 2366.22 911.245 2368.67 910.423 2371.12 909.601 2373.12 908.327 2374.68 906.601 2376.25 904.875 2377.45 902.828 2378.31 900.461 2379.16 898.094 2379.59 895.496 2379.59 892.669 2379.59 888.855 2378.62 886.06 2376.68 884.285 2374.74 882.51 2371.52 881.622 2367.02 881.622ZM2346.35 877.282 2368.1 877.282C2372.01 877.282 2375.23 877.586 2377.74 878.194 2380.26 878.803 2382.33 879.74 2383.96 881.005 2385.58 882.271 2386.8 883.874 2387.61 885.814 2388.41 887.754 2388.81 890.006 2388.81 892.57 2388.81 897.502 2387.65 901.776 2385.31 905.392 2382.98 909.009 2379.81 911.672 2375.82 913.382 2371.82 915.091 2367.03 915.946 2361.44 915.946 2358.09 915.946 2355.3 915.88 2353.06 915.749L2349.9 930.248C2349.61 931.596 2349.4 932.631 2349.29 933.355 2349.17 934.078 2349.07 934.859 2348.99 935.697 2348.91 936.536 2348.87 937.284 2348.87 937.941 2348.87 938.96 2349.03 939.758 2349.36 940.333 2349.69 940.908 2350.18 941.328 2350.84 941.591 2351.5 941.854 2352.63 942.051 2354.24 942.182L2353.7 944.599 2333.43 944.599 2333.97 942.182C2335.22 941.985 2336.16 941.665 2336.79 941.221 2337.41 940.777 2337.94 940.16 2338.36 939.371 2338.79 938.582 2339.19 937.621 2339.55 936.486 2339.91 935.352 2340.45 933.158 2341.17 929.903L2349.56 891.929C2350.28 888.641 2350.64 886.044 2350.64 884.137 2350.64 882.526 2350.26 881.408 2349.51 880.784 2348.75 880.159 2347.52 879.797 2345.81 879.699Z" fill-rule="evenodd"/><text fill="#000000" fill-opacity="0" font-family="Arial,Arial_MSFontService,sans-serif" font-size="67.3169" x="2333.43" y="936.184">𝑃</text><path d="M2608.2 869.856 2615.79 869.856 2615.79 961.634 2608.2 961.634ZM2434.23 868.96 2435.57 872.757C2427.87 875.289 2422.18 880.228 2418.48 887.577 2414.78 894.925 2412.93 904.155 2412.93 915.268 2412.93 926.775 2414.78 936.26 2418.48 943.723 2422.18 951.187 2427.82 956.184 2435.42 958.716L2434.23 962.513C2424.6 959.981 2417.22 954.532 2412.09 946.164 2406.96 937.797 2404.4 927.663 2404.4 915.761 2404.4 903.892 2406.97 893.758 2412.12 885.357 2417.26 876.957 2424.63 871.491 2434.23 868.96Z" fill-rule="evenodd"/><path d="M2456.85 896.614C2457.87 896.614 2458.76 896.729 2459.53 896.959 2460.31 897.189 2460.99 897.543 2461.58 898.02 2462.17 898.496 2462.7 899.113 2463.16 899.869 2463.62 900.625 2464.06 901.653 2464.49 902.951 2464.92 904.25 2465.32 905.861 2465.7 907.784 2466.08 909.708 2466.41 911.705 2466.71 913.776L2467.2 913.776C2470.36 909.338 2472.75 906.091 2474.38 904.036 2476.01 901.981 2477.38 900.453 2478.5 899.45 2479.61 898.447 2480.69 897.74 2481.73 897.329 2482.76 896.918 2484.13 896.713 2485.84 896.713 2487.39 896.713 2488.66 896.91 2489.64 897.305L2487.67 906.231 2484.22 906.231C2484.02 904.85 2483.44 904.159 2482.49 904.159 2482.2 904.159 2481.88 904.209 2481.55 904.307 2481.23 904.406 2480.82 904.62 2480.35 904.949 2479.87 905.277 2479.17 905.918 2478.25 906.872 2477.33 907.825 2476.29 908.992 2475.14 910.373 2473.99 911.754 2472.81 913.201 2471.59 914.713L2468.24 918.905C2468.83 922.061 2469.39 924.79 2469.92 927.092 2470.44 929.393 2470.91 931.308 2471.32 932.837 2471.73 934.366 2472.09 935.574 2472.41 936.462 2472.72 937.349 2473.06 938.015 2473.42 938.459 2473.78 938.903 2474.15 939.215 2474.53 939.396 2474.9 939.577 2475.34 939.667 2475.83 939.667 2476.72 939.667 2477.58 939.322 2478.42 938.632 2479.26 937.941 2480.47 936.38 2482.05 933.947L2485.25 936.067C2482.95 939.486 2480.87 941.895 2479.01 943.292 2477.16 944.689 2474.95 945.388 2472.38 945.388 2470.97 945.388 2469.77 945.133 2468.78 944.624 2467.79 944.114 2466.94 943.3 2466.22 942.182 2465.49 941.065 2464.85 939.322 2464.29 936.955 2463.27 932.747 2462.65 929.525 2462.42 927.289L2461.93 927.289C2458.44 932.188 2455.85 935.706 2454.16 937.843 2452.47 939.98 2451.07 941.558 2449.97 942.577 2448.87 943.596 2447.8 944.311 2446.76 944.722 2445.73 945.133 2444.35 945.339 2442.64 945.339 2441.1 945.339 2439.83 945.141 2438.85 944.747L2440.82 935.821 2444.27 935.821C2444.47 937.201 2445.04 937.892 2446 937.892 2446.46 937.892 2446.94 937.769 2447.45 937.522 2447.96 937.275 2448.69 936.684 2449.65 935.747 2450.6 934.81 2451.91 933.338 2453.59 931.333 2455.27 929.327 2457.7 926.319 2460.89 922.308 2460.4 919.711 2459.89 917.212 2459.36 914.812 2458.84 912.412 2458.29 910.176 2457.73 908.105 2457.18 906.034 2456.71 904.677 2456.35 904.036 2455.99 903.395 2455.61 902.951 2455.19 902.705 2454.78 902.458 2454.27 902.335 2453.64 902.335 2452.95 902.335 2452.33 902.491 2451.77 902.803 2451.21 903.116 2450.6 903.658 2449.94 904.431 2449.28 905.203 2448.41 906.412 2447.33 908.055L2444.12 905.935C2446.19 902.812 2448.18 900.477 2450.09 898.932 2452 897.387 2454.25 896.614 2456.85 896.614Z" fill-rule="evenodd"/><text fill="#000000" fill-opacity="0" font-family="Arial,Arial_MSFontService,sans-serif" font-size="48.7739" x="2438.85" y="939.291">𝑥</text><path d="M2500.88 933.158 2509.51 933.158C2509.97 935.459 2510.2 937.728 2510.2 939.963 2510.2 942.265 2509.8 944.369 2509.01 946.276 2508.23 948.183 2506.97 950.081 2505.24 951.972 2503.52 953.862 2501.14 955.942 2498.12 958.21L2495.45 955.202C2497.13 953.624 2498.35 952.202 2499.1 950.936 2499.86 949.67 2500.4 948.232 2500.73 946.621 2501.06 945.01 2501.22 942.988 2501.22 940.555 2501.22 938.056 2501.11 935.59 2500.88 933.158Z" fill-rule="evenodd"/><text fill="#000000" fill-opacity="0" font-family="Arial,Arial_MSFontService,sans-serif" font-size="25.0527" x="2495.45" y="955.079">,</text><path d="M2550.97 885.271 2557.78 885.271 2555.07 897.452 2570.06 897.452 2568.97 902.433 2553.98 902.433 2549.59 921.568C2548.74 925.283 2548.2 927.955 2547.97 929.582 2547.74 931.21 2547.62 932.516 2547.62 933.503 2547.62 937.58 2549.31 939.618 2552.7 939.618 2554.15 939.618 2555.68 939.067 2557.31 937.966 2558.94 936.865 2560.87 934.982 2563.11 932.319L2565.97 935.278C2563.11 938.73 2560.35 941.278 2557.71 942.922 2555.06 944.566 2552.29 945.388 2549.4 945.388 2542.52 945.388 2539.09 941.919 2539.09 934.982 2539.09 932.779 2539.37 930.462 2539.93 928.029L2545.75 902.433 2537.46 902.433 2538.2 899.031C2540.14 898.998 2541.61 898.85 2542.61 898.587 2543.62 898.324 2544.46 897.962 2545.13 897.502 2545.8 897.042 2546.42 896.384 2546.98 895.529 2547.54 894.674 2548.08 893.581 2548.61 892.25 2549.13 890.918 2549.92 888.592 2550.97 885.271Z" fill-rule="evenodd"/><text fill="#000000" fill-opacity="0" font-family="Arial,Arial_MSFontService,sans-serif" font-size="60.1167" x="2537.46" y="937.873">𝑡</text><path d="M2669.74 896.614C2670.76 896.614 2671.66 896.729 2672.43 896.959 2673.2 897.189 2673.88 897.543 2674.48 898.02 2675.07 898.496 2675.59 899.113 2676.05 899.869 2676.51 900.625 2676.96 901.653 2677.39 902.951 2677.81 904.25 2678.22 905.861 2678.59 907.784 2678.97 909.708 2679.31 911.705 2679.61 913.776L2680.1 913.776C2683.25 909.338 2685.65 906.091 2687.27 904.036 2688.9 901.981 2690.27 900.453 2691.39 899.45 2692.51 898.447 2693.59 897.74 2694.62 897.329 2695.66 896.918 2697.03 896.713 2698.74 896.713 2700.29 896.713 2701.55 896.91 2702.54 897.305L2700.56 906.231 2697.11 906.231C2696.92 904.85 2696.34 904.159 2695.39 904.159 2695.09 904.159 2694.78 904.209 2694.45 904.307 2694.12 904.406 2693.72 904.62 2693.24 904.949 2692.76 905.277 2692.07 905.918 2691.15 906.872 2690.22 907.825 2689.19 908.992 2688.04 910.373 2686.89 911.754 2685.7 913.201 2684.49 914.713L2681.13 918.905C2681.73 922.061 2682.28 924.79 2682.81 927.092 2683.34 929.393 2683.81 931.308 2684.22 932.837 2684.63 934.366 2684.99 935.574 2685.3 936.462 2685.61 937.349 2685.95 938.015 2686.31 938.459 2686.67 938.903 2687.04 939.215 2687.42 939.396 2687.8 939.577 2688.24 939.667 2688.73 939.667 2689.62 939.667 2690.48 939.322 2691.32 938.632 2692.16 937.941 2693.36 936.38 2694.94 933.947L2698.15 936.067C2695.85 939.486 2693.77 941.895 2691.91 943.292 2690.05 944.689 2687.84 945.388 2685.28 945.388 2683.86 945.388 2682.66 945.133 2681.68 944.624 2680.69 944.114 2679.84 943.3 2679.11 942.182 2678.39 941.065 2677.75 939.322 2677.19 936.955 2676.17 932.747 2675.55 929.525 2675.31 927.289L2674.82 927.289C2671.34 932.188 2668.75 935.706 2667.05 937.843 2665.36 939.98 2663.96 941.558 2662.86 942.577 2661.76 943.596 2660.69 944.311 2659.66 944.722 2658.62 945.133 2657.25 945.339 2655.54 945.339 2653.99 945.339 2652.73 945.141 2651.74 944.747L2653.71 935.821 2657.17 935.821C2657.36 937.201 2657.94 937.892 2658.89 937.892 2659.35 937.892 2659.84 937.769 2660.35 937.522 2660.86 937.275 2661.59 936.684 2662.54 935.747 2663.5 934.81 2664.81 933.338 2666.49 931.333 2668.16 929.327 2670.6 926.319 2673.79 922.308 2673.29 919.711 2672.78 917.212 2672.26 914.812 2671.73 912.412 2671.19 910.176 2670.63 908.105 2670.07 906.034 2669.61 904.677 2669.25 904.036 2668.89 903.395 2668.5 902.951 2668.09 902.705 2667.68 902.458 2667.16 902.335 2666.54 902.335 2665.85 902.335 2665.22 902.491 2664.66 902.803 2664.1 903.116 2663.5 903.658 2662.84 904.431 2662.18 905.203 2661.31 906.412 2660.22 908.055L2657.02 905.935C2659.09 902.812 2661.08 900.477 2662.99 898.932 2664.89 897.387 2667.14 896.614 2669.74 896.614Z" fill-rule="evenodd"/><text fill="#000000" fill-opacity="0" font-family="Arial,Arial_MSFontService,sans-serif" font-size="48.7739" x="2651.74" y="939.291">𝑥</text><path d="M2724.56 921.891C2722.87 921.891 2721.46 922.331 2720.33 923.21 2719.2 924.089 2718.3 925.378 2717.64 927.076 2716.98 928.774 2716.51 930.846 2716.23 933.291 2715.95 935.736 2715.81 938.512 2715.81 941.62 2715.81 945.209 2715.99 948.31 2716.34 950.924 2716.69 953.537 2717.23 955.687 2717.96 957.373 2718.7 959.06 2719.62 960.3 2720.73 961.095 2721.84 961.89 2723.16 962.287 2724.7 962.287 2726.15 962.287 2727.41 961.914 2728.5 961.167 2729.58 960.421 2730.48 959.258 2731.19 957.681 2731.9 956.103 2732.43 954.103 2732.8 951.682 2733.16 949.262 2733.34 946.401 2733.34 943.101 2733.34 939.391 2733.14 936.2 2732.74 933.526 2732.34 930.852 2731.78 928.654 2731.06 926.932 2730.34 925.209 2729.43 923.939 2728.33 923.12 2727.24 922.3 2725.98 921.891 2724.56 921.891ZM2724.7 918.386C2727.57 918.386 2730.02 918.922 2732.06 919.994 2734.09 921.066 2735.75 922.596 2737.04 924.583 2738.33 926.57 2739.28 928.997 2739.88 931.864 2740.48 934.73 2740.78 937.97 2740.78 941.583 2740.78 949.605 2739.36 955.669 2736.52 959.776 2733.68 963.883 2729.56 965.937 2724.16 965.937 2718.81 965.937 2714.84 963.998 2712.24 960.12 2709.63 956.241 2708.33 950.364 2708.33 942.487 2708.33 938.368 2708.74 934.802 2709.54 931.791 2710.35 928.78 2711.48 926.281 2712.94 924.294 2714.4 922.307 2716.13 920.825 2718.13 919.849 2720.13 918.874 2722.32 918.386 2724.7 918.386Z" fill-rule="evenodd"/><text fill="#000000" fill-opacity="0" font-family="Arial,Arial_MSFontService,sans-serif" font-size="47.5508" x="2708.33" y="959.993">0</text><path d="M2752.93 873.337C2762.53 875.868 2769.9 881.334 2775.04 889.734 2780.19 898.135 2782.76 908.269 2782.76 920.138 2782.76 932.04 2780.2 942.174 2775.07 950.542 2769.94 958.909 2762.56 964.358 2752.93 966.89L2751.74 963.093C2759.34 960.561 2764.98 955.564 2768.68 948.1 2772.38 940.637 2774.23 931.152 2774.23 919.645 2774.23 908.532 2772.39 899.302 2768.71 891.954 2765.02 884.606 2759.32 879.666 2751.59 877.134Z" fill-rule="evenodd"/><text fill="#000000" fill-opacity="0" font-family="Arial,Arial_MSFontService,sans-serif" font-size="93.5532" x="2751.59" y="955.196">)</text><path d="M2460.03 1045.1C2458.03 1045.1 2456.11 1045.62 2454.29 1046.66 2452.46 1047.69 2450.83 1049.18 2449.38 1051.12 2447.94 1053.06 2446.73 1055.31 2445.76 1057.88 2444.79 1060.44 2444.03 1063.05 2443.49 1065.69 2442.95 1068.34 2442.68 1071.09 2442.68 1073.95 2442.68 1076.91 2443 1079.22 2443.64 1080.88 2444.28 1082.54 2445.12 1083.69 2446.18 1084.31 2447.23 1084.94 2448.54 1085.25 2450.12 1085.25 2453.67 1085.25 2456.71 1083.83 2459.22 1080.98 2461.74 1078.14 2463.88 1073.86 2465.66 1068.16 2467.43 1062.46 2468.32 1057.96 2468.32 1054.67 2468.32 1051.32 2467.64 1048.89 2466.27 1047.37 2464.91 1045.86 2462.83 1045.1 2460.03 1045.1ZM2462.6 1017.49C2468.09 1017.49 2472.2 1019.35 2474.93 1023.08 2477.66 1026.82 2479.02 1032.46 2479.02 1040.03 2479.02 1043.02 2478.76 1046.58 2478.23 1050.7 2477.71 1054.83 2476.82 1059.13 2475.57 1063.6 2474.32 1068.07 2472.87 1071.87 2471.23 1074.99 2469.59 1078.11 2467.76 1080.69 2465.76 1082.73 2463.75 1084.77 2461.44 1086.35 2458.83 1087.47 2456.21 1088.59 2453.26 1089.14 2449.97 1089.14 2446.65 1089.14 2443.78 1088.46 2441.34 1087.1 2438.91 1085.73 2437.07 1083.76 2435.82 1081.18 2434.57 1078.6 2433.95 1075.43 2433.95 1071.69 2433.95 1068 2434.52 1064.35 2435.67 1060.71 2436.82 1057.08 2438.51 1053.78 2440.73 1050.8 2442.95 1047.83 2445.59 1045.48 2448.67 1043.77 2451.74 1042.06 2455.04 1041.21 2458.56 1041.21 2460.92 1041.21 2462.99 1041.48 2464.77 1042.02 2466.54 1042.56 2468.52 1043.63 2470.69 1045.2L2470.79 1043.97C2470.88 1042.39 2470.93 1041.03 2470.93 1039.88 2470.93 1037.18 2470.77 1034.75 2470.44 1032.58 2470.11 1030.41 2469.56 1028.54 2468.79 1026.98 2468.02 1025.42 2466.98 1024.22 2465.68 1023.38 2464.38 1022.54 2462.75 1022.12 2460.77 1022.12 2458.37 1022.12 2456.15 1022.69 2454.09 1023.82 2452.04 1024.96 2450.02 1026.71 2448.05 1029.08L2444.5 1029.08 2444.5 1024.98C2447.62 1022.78 2450.05 1021.21 2451.77 1020.27 2453.5 1019.34 2455.23 1018.64 2456.95 1018.18 2458.68 1017.72 2460.56 1017.49 2462.6 1017.49Z" fill-rule="evenodd"/><text fill="#000000" fill-opacity="0" font-family="Arial,Arial_MSFontService,sans-serif" font-size="71.6567" x="2433.95" y="1080.19">∂</text><path d="M2504.28 1040.37C2505.3 1040.37 2506.2 1040.49 2506.97 1040.72 2507.74 1040.95 2508.43 1041.3 2509.02 1041.78 2509.61 1042.25 2510.14 1042.87 2510.6 1043.63 2511.06 1044.38 2511.5 1045.41 2511.93 1046.71 2512.36 1048.01 2512.76 1049.62 2513.14 1051.54 2513.51 1053.46 2513.85 1055.46 2514.15 1057.53L2514.64 1057.53C2517.8 1053.09 2520.19 1049.85 2521.82 1047.79 2523.44 1045.74 2524.82 1044.21 2525.93 1043.21 2527.05 1042.2 2528.13 1041.5 2529.16 1041.09 2530.2 1040.67 2531.57 1040.47 2533.28 1040.47 2534.83 1040.47 2536.09 1040.67 2537.08 1041.06L2535.11 1049.99 2531.65 1049.99C2531.46 1048.61 2530.88 1047.92 2529.93 1047.92 2529.63 1047.92 2529.32 1047.97 2528.99 1048.06 2528.66 1048.16 2528.26 1048.38 2527.78 1048.7 2527.31 1049.03 2526.61 1049.67 2525.69 1050.63 2524.77 1051.58 2523.73 1052.75 2522.58 1054.13 2521.43 1055.51 2520.25 1056.96 2519.03 1058.47L2515.68 1062.66C2516.27 1065.82 2516.83 1068.55 2517.35 1070.85 2517.88 1073.15 2518.35 1075.06 2518.76 1076.59 2519.17 1078.12 2519.53 1079.33 2519.84 1080.22 2520.16 1081.11 2520.49 1081.77 2520.85 1082.22 2521.22 1082.66 2521.59 1082.97 2521.96 1083.15 2522.34 1083.33 2522.78 1083.42 2523.27 1083.42 2524.16 1083.42 2525.02 1083.08 2525.86 1082.39 2526.7 1081.7 2527.91 1080.14 2529.48 1077.7L2532.69 1079.82C2530.39 1083.24 2528.31 1085.65 2526.45 1087.05 2524.59 1088.45 2522.38 1089.14 2519.82 1089.14 2518.4 1089.14 2517.2 1088.89 2516.22 1088.38 2515.23 1087.87 2514.38 1087.06 2513.65 1085.94 2512.93 1084.82 2512.29 1083.08 2511.73 1080.71 2510.71 1076.5 2510.09 1073.28 2509.86 1071.05L2509.36 1071.05C2505.88 1075.94 2503.29 1079.46 2501.6 1081.6 2499.9 1083.74 2498.51 1085.31 2497.4 1086.33 2496.3 1087.35 2495.23 1088.07 2494.2 1088.48 2493.16 1088.89 2491.79 1089.09 2490.08 1089.09 2488.54 1089.09 2487.27 1088.9 2486.28 1088.5L2488.26 1079.58 2491.71 1079.58C2491.91 1080.96 2492.48 1081.65 2493.43 1081.65 2493.89 1081.65 2494.38 1081.52 2494.89 1081.28 2495.4 1081.03 2496.13 1080.44 2497.08 1079.5 2498.04 1078.57 2499.35 1077.09 2501.03 1075.09 2502.71 1073.08 2505.14 1070.08 2508.33 1066.06 2507.83 1063.47 2507.33 1060.97 2506.8 1058.57 2506.27 1056.17 2505.73 1053.93 2505.17 1051.86 2504.61 1049.79 2504.15 1048.43 2503.79 1047.79 2503.43 1047.15 2503.04 1046.71 2502.63 1046.46 2502.22 1046.21 2501.7 1046.09 2501.08 1046.09 2500.39 1046.09 2499.76 1046.25 2499.2 1046.56 2498.65 1046.87 2498.04 1047.41 2497.38 1048.19 2496.72 1048.96 2495.85 1050.17 2494.77 1051.81L2491.56 1049.69C2493.63 1046.57 2495.62 1044.23 2497.53 1042.69 2499.43 1041.14 2501.69 1040.37 2504.28 1040.37Z" fill-rule="evenodd"/><text fill="#000000" fill-opacity="0" font-family="Arial,Arial_MSFontService,sans-serif" font-size="48.7739" x="2486.28" y="1083.05">𝑥</text><path d="M2565.73 1011.29C2568.23 1011.29 2570.37 1011.57 2572.14 1012.14 2573.91 1012.71 2575.35 1013.47 2576.46 1014.43 2577.57 1015.4 2578.37 1016.55 2578.86 1017.9 2579.36 1019.25 2579.6 1020.71 2579.6 1022.27 2579.6 1023.21 2579.54 1024.09 2579.41 1024.89 2579.27 1025.7 2579.04 1026.5 2578.72 1027.28 2578.39 1028.06 2577.97 1028.85 2577.44 1029.65 2576.91 1030.44 2576.24 1031.28 2575.45 1032.18 2574.85 1032.95 2574.06 1033.84 2573.1 1034.85 2572.14 1035.86 2571.08 1036.94 2569.94 1038.1 2568.79 1039.26 2567.6 1040.46 2566.34 1041.71 2565.09 1042.97 2563.87 1044.21 2562.69 1045.44 2561.51 1046.66 2560.43 1047.86 2559.44 1049.01 2558.45 1050.17 2557.65 1051.23 2557.02 1052.19L2570.39 1052.19C2571.52 1052.19 2572.43 1052.15 2573.1 1052.07 2573.77 1051.98 2574.33 1051.8 2574.78 1051.51 2575.23 1051.22 2575.61 1050.78 2575.92 1050.19 2576.23 1049.6 2576.59 1048.78 2577 1047.75L2580.36 1047.75C2580.24 1049.46 2580.13 1051.18 2580.02 1052.92 2579.91 1054.65 2579.8 1056.37 2579.68 1058.08L2549.07 1058.08 2549.07 1056.2C2549.65 1054.9 2550.32 1053.62 2551.1 1052.36 2551.87 1051.09 2552.73 1049.81 2553.7 1048.51 2554.66 1047.21 2555.76 1045.86 2556.99 1044.48 2558.21 1043.09 2559.57 1041.65 2561.07 1040.16 2563.33 1037.9 2565.18 1035.96 2566.6 1034.36 2568.02 1032.76 2569.14 1031.33 2569.96 1030.08 2570.78 1028.83 2571.34 1027.67 2571.64 1026.61 2571.94 1025.55 2572.09 1024.42 2572.09 1023.21 2572.09 1021.99 2571.91 1020.85 2571.56 1019.82 2571.22 1018.78 2570.72 1017.9 2570.07 1017.18 2569.41 1016.46 2568.59 1015.89 2567.59 1015.48 2566.59 1015.07 2565.44 1014.87 2564.14 1014.87 2561.9 1014.87 2560.02 1015.48 2558.5 1016.69 2556.99 1017.91 2555.8 1019.67 2554.96 1021.99L2550.23 1021.99 2550.23 1014.94C2553.31 1013.66 2556.15 1012.74 2558.74 1012.16 2561.33 1011.58 2563.66 1011.29 2565.73 1011.29Z" fill-rule="evenodd"/><text fill="#000000" fill-opacity="0" font-family="Arial,Arial_MSFontService,sans-serif" font-size="46.792" x="2549.07" y="1052.23">2</text><path d="M2229.08 988.92 2792.08 988.92 2792.08 995.92 2229.08 995.92Z" fill-rule="evenodd"/><path d="M2821.3 988.757 2882.06 988.757 2882.06 995.316 2821.3 995.316Z" fill="#C00000" fill-rule="evenodd"/><text fill="#000000" fill-opacity="0" font-family="Arial,Arial_MSFontService,sans-serif" font-size="6.55908" x="2821.3" y="994.496">−</text><path d="M2920.4 972.729C2925.06 972.729 2928.77 975.91 2931.52 982.272 2934.26 988.634 2936.05 998.177 2936.87 1010.9L2937.46 1010.9C2944.43 994.067 2949.02 981.656 2951.22 973.666L2961.13 973.666 2961.13 976.083C2951.14 992.883 2943.36 1007.6 2937.8 1020.22 2938.13 1023.67 2938.3 1027.63 2938.3 1032.11 2938.3 1034.31 2938.23 1036.23 2938.1 1037.88L2933.66 1040.69 2928.58 1040.69 2928.58 1037.58C2928.58 1032.12 2929.7 1026.8 2931.94 1021.6 2930.75 1009.63 2928.73 999.377 2925.87 990.828 2923.01 982.28 2919.94 978.006 2916.65 978.006 2915.56 978.006 2914.05 978.713 2912.11 980.127L2910.09 977.266C2913.94 974.242 2917.37 972.729 2920.4 972.729Z" fill="#C00000" fill-rule="evenodd"/><text fill="#000000" fill-opacity="0" font-family="Arial,Arial_MSFontService,sans-serif" font-size="67.9579" x="2910.09" y="1032.19">γ</text><path d="M3021.15 957.934C3019.11 957.934 3016.97 957.984 3014.74 958.082L3008.03 987.968 3013.16 987.968C3017.14 987.968 3020.35 987.557 3022.8 986.735 3025.25 985.913 3027.26 984.639 3028.82 982.913 3030.38 981.187 3031.59 979.14 3032.44 976.773 3033.3 974.406 3033.73 971.809 3033.73 968.981 3033.73 965.167 3032.76 962.373 3030.82 960.597 3028.88 958.822 3025.65 957.934 3021.15 957.934ZM3000.49 953.595 3022.23 953.595C3026.15 953.595 3029.36 953.899 3031.88 954.507 3034.39 955.115 3036.46 956.052 3038.09 957.318 3039.72 958.584 3040.93 960.187 3041.74 962.126 3042.54 964.066 3042.95 966.318 3042.95 968.883 3042.95 973.814 3041.78 978.088 3039.45 981.705 3037.11 985.321 3033.95 987.984 3029.95 989.694 3025.96 991.404 3021.17 992.259 3015.58 992.259 3012.22 992.259 3009.43 992.193 3007.19 992.061L3004.04 1006.56C3003.74 1007.91 3003.54 1008.94 3003.42 1009.67 3003.31 1010.39 3003.21 1011.17 3003.12 1012.01 3003.04 1012.85 3003 1013.6 3003 1014.25 3003 1015.27 3003.17 1016.07 3003.49 1016.65 3003.82 1017.22 3004.32 1017.64 3004.97 1017.9 3005.63 1018.17 3006.77 1018.36 3008.38 1018.49L3007.83 1020.91 2987.56 1020.91 2988.11 1018.49C2989.36 1018.3 2990.29 1017.98 2990.92 1017.53 2991.54 1017.09 2992.07 1016.47 2992.5 1015.68 2992.92 1014.89 2993.32 1013.93 2993.68 1012.8 2994.04 1011.66 2994.58 1009.47 2995.31 1006.22L3003.69 968.242C3004.41 964.954 3004.78 962.356 3004.78 960.45 3004.78 958.839 3004.4 957.721 3003.64 957.096 3002.89 956.471 3001.65 956.11 2999.94 956.011Z" fill="#C00000" fill-rule="evenodd"/><text fill="#000000" fill-opacity="0" font-family="Arial,Arial_MSFontService,sans-serif" font-size="67.3169" x="2987.56" y="1012.5">𝑃</text><path d="M3262.33 946.169 3269.93 946.169 3269.93 1037.95 3262.33 1037.95ZM3088.37 945.272 3089.7 949.07C3082.01 951.601 3076.31 956.541 3072.61 963.889 3068.91 971.237 3067.06 980.468 3067.06 991.58 3067.06 1003.09 3068.91 1012.57 3072.61 1020.04 3076.31 1027.5 3081.96 1032.5 3089.55 1035.03L3088.37 1038.83C3078.73 1036.29 3071.35 1030.84 3066.22 1022.48 3061.1 1014.11 3058.53 1003.98 3058.53 992.073 3058.53 980.205 3061.1 970.07 3066.25 961.67 3071.39 953.27 3078.77 947.804 3088.37 945.272Z" fill="#C00000" fill-rule="evenodd"/><path d="M3110.98 972.927C3112 972.927 3112.89 973.042 3113.67 973.272 3114.44 973.502 3115.12 973.855 3115.71 974.332 3116.31 974.809 3116.83 975.425 3117.29 976.181 3117.75 976.938 3118.2 977.965 3118.62 979.264 3119.05 980.562 3119.45 982.173 3119.83 984.097 3120.21 986.02 3120.55 988.017 3120.84 990.089L3121.34 990.089C3124.49 985.65 3126.88 982.404 3128.51 980.349 3130.14 978.294 3131.51 976.765 3132.63 975.762 3133.75 974.76 3134.82 974.053 3135.86 973.642 3136.9 973.231 3138.27 973.025 3139.98 973.025 3141.52 973.025 3142.79 973.222 3143.78 973.617L3141.8 982.543 3138.35 982.543C3138.15 981.162 3137.58 980.472 3136.62 980.472 3136.33 980.472 3136.02 980.521 3135.69 980.62 3135.36 980.719 3134.96 980.932 3134.48 981.261 3134 981.59 3133.3 982.231 3132.38 983.184 3131.46 984.138 3130.43 985.305 3129.28 986.686 3128.13 988.067 3126.94 989.513 3125.73 991.026L3122.37 995.218C3122.96 998.374 3123.52 1001.1 3124.05 1003.4 3124.57 1005.71 3125.04 1007.62 3125.45 1009.15 3125.86 1010.68 3126.23 1011.89 3126.54 1012.77 3126.85 1013.66 3127.19 1014.33 3127.55 1014.77 3127.91 1015.22 3128.28 1015.53 3128.66 1015.71 3129.04 1015.89 3129.47 1015.98 3129.97 1015.98 3130.85 1015.98 3131.72 1015.63 3132.56 1014.94 3133.39 1014.25 3134.6 1012.69 3136.18 1010.26L3139.39 1012.38C3137.08 1015.8 3135.01 1018.21 3133.15 1019.6 3131.29 1021 3129.08 1021.7 3126.51 1021.7 3125.1 1021.7 3123.9 1021.45 3122.91 1020.94 3121.93 1020.43 3121.07 1019.61 3120.35 1018.49 3119.63 1017.38 3118.99 1015.63 3118.43 1013.27 3117.41 1009.06 3116.78 1005.84 3116.55 1003.6L3116.06 1003.6C3112.57 1008.5 3109.99 1012.02 3108.29 1014.16 3106.6 1016.29 3105.2 1017.87 3104.1 1018.89 3103 1019.91 3101.93 1020.62 3100.89 1021.03 3099.86 1021.45 3098.49 1021.65 3096.78 1021.65 3095.23 1021.65 3093.97 1021.45 3092.98 1021.06L3094.95 1012.13 3098.4 1012.13C3098.6 1013.51 3099.18 1014.2 3100.13 1014.2 3100.59 1014.2 3101.08 1014.08 3101.58 1013.83 3102.09 1013.59 3102.83 1013 3103.78 1012.06 3104.73 1011.12 3106.05 1009.65 3107.72 1007.65 3109.4 1005.64 3111.83 1002.63 3115.02 998.62 3114.53 996.023 3114.02 993.524 3113.49 991.124 3112.97 988.724 3112.43 986.489 3111.87 984.417 3111.31 982.346 3110.85 980.99 3110.49 980.349 3110.12 979.708 3109.74 979.264 3109.33 979.017 3108.92 978.771 3108.4 978.647 3107.77 978.647 3107.08 978.647 3106.46 978.803 3105.9 979.116 3105.34 979.428 3104.73 979.971 3104.08 980.743 3103.42 981.516 3102.55 982.724 3101.46 984.368L3098.26 982.247C3100.33 979.124 3102.32 976.79 3104.22 975.244 3106.13 973.699 3108.38 972.927 3110.98 972.927Z" fill="#C00000" fill-rule="evenodd"/><text fill="#000000" fill-opacity="0" font-family="Arial,Arial_MSFontService,sans-serif" font-size="48.7739" x="3092.98" y="1015.6">𝑥</text><path d="M3155.01 1009.47 3163.64 1009.47C3164.1 1011.77 3164.33 1014.04 3164.33 1016.28 3164.33 1018.58 3163.94 1020.68 3163.15 1022.59 3162.36 1024.5 3161.1 1026.39 3159.37 1028.28 3157.65 1030.17 3155.27 1032.25 3152.25 1034.52L3149.59 1031.51C3151.26 1029.94 3152.48 1028.51 3153.23 1027.25 3153.99 1025.98 3154.53 1024.54 3154.86 1022.93 3155.19 1021.32 3155.36 1019.3 3155.36 1016.87 3155.36 1014.37 3155.24 1011.9 3155.01 1009.47Z" fill="#C00000" fill-rule="evenodd"/><text fill="#000000" fill-opacity="0" font-family="Arial,Arial_MSFontService,sans-serif" font-size="25.0527" x="3149.59" y="1031.39">,</text><path d="M3205.11 961.584 3211.91 961.584 3209.2 973.765 3224.19 973.765 3223.11 978.746 3208.12 978.746 3203.73 997.881C3202.87 1001.6 3202.33 1004.27 3202.1 1005.89 3201.87 1007.52 3201.75 1008.83 3201.75 1009.82 3201.75 1013.89 3203.45 1015.93 3206.83 1015.93 3208.28 1015.93 3209.82 1015.38 3211.44 1014.28 3213.07 1013.18 3215 1011.29 3217.24 1008.63L3220.1 1011.59C3217.24 1015.04 3214.49 1017.59 3211.84 1019.23 3209.19 1020.88 3206.42 1021.7 3203.53 1021.7 3196.66 1021.7 3193.22 1018.23 3193.22 1011.29 3193.22 1009.09 3193.5 1006.77 3194.06 1004.34L3199.88 978.746 3191.59 978.746 3192.33 975.343C3194.27 975.31 3195.75 975.162 3196.75 974.899 3197.75 974.636 3198.59 974.275 3199.26 973.814 3199.94 973.354 3200.55 972.696 3201.11 971.842 3201.67 970.987 3202.21 969.894 3202.74 968.562 3203.27 967.231 3204.06 964.904 3205.11 961.584Z" fill="#C00000" fill-rule="evenodd"/><text fill="#000000" fill-opacity="0" font-family="Arial,Arial_MSFontService,sans-serif" font-size="60.1167" x="3191.59" y="1014.19">𝑡</text><path d="M3323.88 972.927C3324.89 972.927 3325.79 973.042 3326.56 973.272 3327.34 973.502 3328.02 973.855 3328.61 974.332 3329.2 974.809 3329.73 975.425 3330.19 976.181 3330.65 976.938 3331.09 977.965 3331.52 979.264 3331.95 980.562 3332.35 982.173 3332.73 984.097 3333.11 986.02 3333.44 988.017 3333.74 990.089L3334.23 990.089C3337.39 985.65 3339.78 982.404 3341.41 980.349 3343.03 978.294 3344.41 976.765 3345.53 975.762 3346.64 974.76 3347.72 974.053 3348.76 973.642 3349.79 973.231 3351.16 973.025 3352.87 973.025 3354.42 973.025 3355.68 973.222 3356.67 973.617L3354.7 982.543 3351.25 982.543C3351.05 981.162 3350.47 980.472 3349.52 980.472 3349.22 980.472 3348.91 980.521 3348.58 980.62 3348.25 980.719 3347.85 980.932 3347.37 981.261 3346.9 981.59 3346.2 982.231 3345.28 983.184 3344.36 984.138 3343.32 985.305 3342.17 986.686 3341.02 988.067 3339.84 989.513 3338.62 991.026L3335.27 995.218C3335.86 998.374 3336.42 1001.1 3336.94 1003.4 3337.47 1005.71 3337.94 1007.62 3338.35 1009.15 3338.76 1010.68 3339.12 1011.89 3339.43 1012.77 3339.75 1013.66 3340.08 1014.33 3340.45 1014.77 3340.81 1015.22 3341.18 1015.53 3341.56 1015.71 3341.93 1015.89 3342.37 1015.98 3342.86 1015.98 3343.75 1015.98 3344.61 1015.63 3345.45 1014.94 3346.29 1014.25 3347.5 1012.69 3349.08 1010.26L3352.28 1012.38C3349.98 1015.8 3347.9 1018.21 3346.04 1019.6 3344.19 1021 3341.97 1021.7 3339.41 1021.7 3338 1021.7 3336.8 1021.45 3335.81 1020.94 3334.82 1020.43 3333.97 1019.61 3333.25 1018.49 3332.52 1017.38 3331.88 1015.63 3331.32 1013.27 3330.3 1009.06 3329.68 1005.84 3329.45 1003.6L3328.96 1003.6C3325.47 1008.5 3322.88 1012.02 3321.19 1014.16 3319.49 1016.29 3318.1 1017.87 3317 1018.89 3315.89 1019.91 3314.83 1020.62 3313.79 1021.03 3312.75 1021.45 3311.38 1021.65 3309.67 1021.65 3308.13 1021.65 3306.86 1021.45 3305.88 1021.06L3307.85 1012.13 3311.3 1012.13C3311.5 1013.51 3312.07 1014.2 3313.03 1014.2 3313.49 1014.2 3313.97 1014.08 3314.48 1013.83 3314.99 1013.59 3315.72 1013 3316.68 1012.06 3317.63 1011.12 3318.94 1009.65 3320.62 1007.65 3322.3 1005.64 3324.73 1002.63 3327.92 998.62 3327.43 996.023 3326.92 993.524 3326.39 991.124 3325.86 988.724 3325.32 986.489 3324.76 984.417 3324.2 982.346 3323.74 980.99 3323.38 980.349 3323.02 979.708 3322.63 979.264 3322.22 979.017 3321.81 978.771 3321.29 978.647 3320.67 978.647 3319.98 978.647 3319.35 978.803 3318.8 979.116 3318.24 979.428 3317.63 979.971 3316.97 980.743 3316.31 981.516 3315.44 982.724 3314.36 984.368L3311.15 982.247C3313.22 979.124 3315.21 976.79 3317.12 975.244 3319.03 973.699 3321.28 972.927 3323.88 972.927Z" fill="#C00000" fill-rule="evenodd"/><text fill="#000000" fill-opacity="0" font-family="Arial,Arial_MSFontService,sans-serif" font-size="48.7739" x="3305.88" y="1015.6">𝑥</text><path d="M3378.69 998.203C3377 998.203 3375.6 998.643 3374.46 999.522 3373.33 1000.4 3372.43 1001.69 3371.77 1003.39 3371.11 1005.09 3370.64 1007.16 3370.36 1009.6 3370.09 1012.05 3369.95 1014.82 3369.95 1017.93 3369.95 1021.52 3370.12 1024.62 3370.47 1027.24 3370.82 1029.85 3371.36 1032 3372.1 1033.69 3372.83 1035.37 3373.75 1036.61 3374.86 1037.41 3375.97 1038.2 3377.29 1038.6 3378.84 1038.6 3380.28 1038.6 3381.55 1038.23 3382.63 1037.48 3383.71 1036.73 3384.61 1035.57 3385.32 1033.99 3386.03 1032.42 3386.57 1030.42 3386.93 1027.99 3387.29 1025.57 3387.47 1022.71 3387.47 1019.41 3387.47 1015.7 3387.27 1012.51 3386.88 1009.84 3386.48 1007.16 3385.92 1004.97 3385.19 1003.24 3384.47 1001.52 3383.56 1000.25 3382.47 999.432 3381.37 998.613 3380.11 998.203 3378.69 998.203ZM3378.84 994.699C3381.7 994.699 3384.15 995.235 3386.19 996.307 3388.22 997.378 3389.89 998.908 3391.17 1000.9 3392.46 1002.88 3393.41 1005.31 3394.01 1008.18 3394.61 1011.04 3394.91 1014.28 3394.91 1017.9 3394.91 1025.92 3393.49 1031.98 3390.65 1036.09 3387.81 1040.2 3383.69 1042.25 3378.29 1042.25 3372.95 1042.25 3368.97 1040.31 3366.37 1036.43 3363.77 1032.55 3362.47 1026.68 3362.47 1018.8 3362.47 1014.68 3362.87 1011.11 3363.68 1008.1 3364.48 1005.09 3365.62 1002.59 3367.07 1000.61 3368.53 998.619 3370.26 997.138 3372.26 996.162 3374.26 995.186 3376.45 994.699 3378.84 994.699Z" fill="#C00000" fill-rule="evenodd"/><text fill="#000000" fill-opacity="0" font-family="Arial,Arial_MSFontService,sans-serif" font-size="47.5508" x="3362.47" y="1036.31">0</text><path d="M3407.06 949.649C3416.66 952.181 3424.03 957.647 3429.18 966.047 3434.32 974.447 3436.9 984.582 3436.9 996.451 3436.9 1008.35 3434.33 1018.49 3429.2 1026.85 3424.07 1035.22 3416.69 1040.67 3407.06 1043.2L3405.88 1039.41C3413.47 1036.87 3419.12 1031.88 3422.82 1024.41 3426.51 1016.95 3428.36 1007.46 3428.36 995.957 3428.36 984.845 3426.52 975.614 3422.84 968.266 3419.16 960.918 3413.45 955.978 3405.73 953.447Z" fill="#C00000" fill-rule="evenodd"/><text fill="#000000" fill-opacity="0" font-family="Arial,Arial_MSFontService,sans-serif" font-size="93.5532" x="3405.73" y="1031.51">)</text><path d="M3502.31 960.351 3509.32 960.351 3509.32 988.757 3536.2 988.757 3536.2 995.316 3509.32 995.316 3509.32 1023.72 3502.31 1023.72 3502.31 995.316 3475.44 995.316 3475.44 988.757 3502.31 988.757Z" fill="#0070C0" fill-rule="evenodd"/><text fill="#000000" fill-opacity="0" font-family="Arial,Arial_MSFontService,sans-serif" font-size="63.3716" x="3475.44" y="1015.8">+</text><path d="M3578.97 896.663C3582.19 896.663 3584.54 897.896 3586.02 900.362 3587.5 902.828 3588.24 906.888 3588.24 912.543 3588.24 919.185 3587.93 926.385 3587.3 934.144L3587.75 934.144C3595.74 920.73 3602.34 908.499 3607.57 897.452L3617.88 897.452 3617.24 899.82C3614.05 903.666 3609.38 909.995 3603.23 918.806 3597.08 927.618 3591.35 936.363 3586.02 945.043 3584.94 951.881 3583.55 958.325 3581.88 964.375L3574.53 964.375 3573.1 962.057C3574.41 956.895 3576.77 951.207 3580.15 944.993 3580.45 938.78 3580.6 932.434 3580.6 925.957 3580.6 920.467 3580.48 916.209 3580.25 913.184 3580.02 910.16 3579.68 907.883 3579.24 906.354 3578.8 904.825 3578.27 903.773 3577.66 903.198 3577.05 902.622 3576.3 902.335 3575.42 902.335 3573.58 902.335 3571.46 903.666 3569.06 906.329L3566.29 903.568C3567.87 902.154 3569.1 901.085 3569.97 900.362 3570.84 899.639 3571.74 898.998 3572.68 898.439 3573.62 897.88 3574.59 897.444 3575.59 897.132 3576.59 896.82 3577.72 896.663 3578.97 896.663Z" fill="#0070C0" fill-rule="evenodd"/><text fill="#000000" fill-opacity="0" font-family="Arial,Arial_MSFontService,sans-serif" font-size="67.7114" x="3566.29" y="955.911">𝛾</text><path d="M3591.55 1029.03 3598.36 1029.03 3595.64 1041.21 3610.64 1041.21 3609.55 1046.19 3594.56 1046.19 3590.17 1065.32C3589.32 1069.04 3588.77 1071.71 3588.54 1073.34 3588.31 1074.97 3588.2 1076.27 3588.2 1077.26 3588.2 1081.34 3589.89 1083.37 3593.28 1083.37 3594.72 1083.37 3596.26 1082.82 3597.89 1081.72 3599.52 1080.62 3601.45 1078.74 3603.68 1076.08L3606.54 1079.03C3603.68 1082.49 3600.93 1085.03 3598.28 1086.68 3595.64 1088.32 3592.87 1089.14 3589.97 1089.14 3583.1 1089.14 3579.67 1085.68 3579.67 1078.74 3579.67 1076.54 3579.95 1074.22 3580.5 1071.78L3586.32 1046.19 3578.04 1046.19 3578.78 1042.79C3580.72 1042.75 3582.19 1042.61 3583.19 1042.34 3584.19 1042.08 3585.03 1041.72 3585.71 1041.26 3586.38 1040.8 3587 1040.14 3587.56 1039.29 3588.12 1038.43 3588.66 1037.34 3589.18 1036.01 3589.71 1034.67 3590.5 1032.35 3591.55 1029.03Z" fill="#0070C0" fill-rule="evenodd"/><text fill="#000000" fill-opacity="0" font-family="Arial,Arial_MSFontService,sans-serif" font-size="60.1167" x="3578.04" y="1081.63">𝑡</text><path d="M3565.08 988.92 3620.08 988.92 3620.08 995.92 3565.08 995.92Z" fill="#0070C0" fill-rule="evenodd"/><path d="M3699.51 883.438C3701.25 883.438 3702.84 883.594 3704.27 883.907 3705.7 884.219 3706.91 884.605 3707.89 885.066L3706.96 895.373 3701.48 895.373C3701.38 893.565 3700.99 892.192 3700.3 891.255 3699.61 890.318 3698.34 889.849 3696.5 889.849 3691.9 889.849 3688.54 895.028 3686.44 905.384 3684.34 915.74 3682.44 944.328 3680.77 991.145 3679.09 1033.26 3675.83 1062.05 3670.98 1077.5 3666.13 1092.95 3659.58 1100.68 3651.33 1100.68 3649.65 1100.68 3648.1 1100.55 3646.69 1100.28 3645.28 1100.02 3644.03 1099.59 3642.94 1099L3643.88 1088.2 3648.86 1088.2C3649.35 1090.37 3649.99 1091.89 3650.78 1092.76 3651.57 1093.63 3652.77 1094.07 3654.38 1094.07 3657.34 1094.07 3660.19 1088.96 3662.92 1078.73 3665.64 1068.51 3667.78 1041.76 3669.33 998.493 3671.23 951.544 3674.3 920.631 3678.52 905.754 3682.75 890.877 3689.74 883.438 3699.51 883.438Z" fill="#0070C0" fill-rule="evenodd"/><text fill="#000000" fill-opacity="0" font-family="Arial,Arial_MSFontService,sans-serif" font-size="217.239" x="3642.94" y="1073.52">න</text><path d="M3790.12 957.934C3788.08 957.934 3785.94 957.984 3783.71 958.082L3777 987.968 3782.13 987.968C3786.11 987.968 3789.32 987.557 3791.77 986.735 3794.22 985.913 3796.23 984.639 3797.79 982.913 3799.35 981.187 3800.56 979.14 3801.41 976.773 3802.27 974.406 3802.69 971.809 3802.69 968.981 3802.69 965.167 3801.72 962.373 3799.78 960.597 3797.84 958.822 3794.62 957.934 3790.12 957.934ZM3769.45 953.595 3791.2 953.595C3795.12 953.595 3798.33 953.899 3800.84 954.507 3803.36 955.115 3805.43 956.052 3807.06 957.318 3808.69 958.584 3809.9 960.187 3810.71 962.126 3811.51 964.066 3811.92 966.318 3811.92 968.883 3811.92 973.814 3810.75 978.088 3808.41 981.705 3806.08 985.321 3802.92 987.984 3798.92 989.694 3794.93 991.404 3790.13 992.259 3784.55 992.259 3781.19 992.259 3778.4 992.193 3776.16 992.061L3773.01 1006.56C3772.71 1007.91 3772.5 1008.94 3772.39 1009.67 3772.27 1010.39 3772.18 1011.17 3772.09 1012.01 3772.01 1012.85 3771.97 1013.6 3771.97 1014.25 3771.97 1015.27 3772.13 1016.07 3772.46 1016.65 3772.79 1017.22 3773.28 1017.64 3773.94 1017.9 3774.6 1018.17 3775.73 1018.36 3777.35 1018.49L3776.8 1020.91 3756.53 1020.91 3757.08 1018.49C3758.33 1018.3 3759.26 1017.98 3759.89 1017.53 3760.51 1017.09 3761.04 1016.47 3761.47 1015.68 3761.89 1014.89 3762.29 1013.93 3762.65 1012.8 3763.01 1011.66 3763.55 1009.47 3764.28 1006.22L3772.66 968.242C3773.38 964.954 3773.75 962.356 3773.75 960.45 3773.75 958.839 3773.37 957.721 3772.61 957.096 3771.85 956.471 3770.62 956.11 3768.91 956.011Z" fill="#0070C0" fill-rule="evenodd"/><text fill="#000000" fill-opacity="0" font-family="Arial,Arial_MSFontService,sans-serif" font-size="67.3169" x="3756.53" y="1012.5">𝑃</text><path d="M4033.74 945.272C4043.34 947.804 4050.71 953.27 4055.86 961.67 4061 970.07 4063.57 980.205 4063.57 992.073 4063.57 1003.98 4061.01 1014.11 4055.88 1022.48 4050.75 1030.84 4043.37 1036.29 4033.74 1038.83L4032.55 1035.03C4040.15 1032.5 4045.8 1027.5 4049.5 1020.04 4053.19 1012.57 4055.04 1003.09 4055.04 991.58 4055.04 980.468 4053.2 971.237 4049.52 963.889 4045.84 956.541 4040.13 951.601 4032.41 949.07ZM3857.34 945.272 3858.67 949.07C3850.97 951.601 3845.28 956.541 3841.58 963.889 3837.88 971.237 3836.03 980.468 3836.03 991.58 3836.03 1003.09 3837.88 1012.57 3841.58 1020.04 3845.28 1027.5 3850.92 1032.5 3858.52 1035.03L3857.34 1038.83C3847.7 1036.29 3840.32 1030.84 3835.19 1022.48 3830.06 1014.11 3827.5 1003.98 3827.5 992.073 3827.5 980.205 3830.07 970.07 3835.22 961.67 3840.36 953.27 3847.74 947.804 3857.34 945.272Z" fill="#0070C0" fill-rule="evenodd"/><path d="M3879.95 972.927C3880.97 972.927 3881.86 973.042 3882.64 973.272 3883.41 973.502 3884.09 973.855 3884.68 974.332 3885.27 974.809 3885.8 975.425 3886.26 976.181 3886.72 976.938 3887.17 977.965 3887.59 979.264 3888.02 980.562 3888.42 982.173 3888.8 984.097 3889.18 986.02 3889.52 988.017 3889.81 990.089L3890.3 990.089C3893.46 985.65 3895.85 982.404 3897.48 980.349 3899.11 978.294 3900.48 976.765 3901.6 975.762 3902.72 974.76 3903.79 974.053 3904.83 973.642 3905.86 973.231 3907.24 973.025 3908.95 973.025 3910.49 973.025 3911.76 973.222 3912.74 973.617L3910.77 982.543 3907.32 982.543C3907.12 981.162 3906.55 980.472 3905.59 980.472 3905.3 980.472 3904.98 980.521 3904.66 980.62 3904.33 980.719 3903.92 980.932 3903.45 981.261 3902.97 981.59 3902.27 982.231 3901.35 983.184 3900.43 984.138 3899.4 985.305 3898.24 986.686 3897.09 988.067 3895.91 989.513 3894.69 991.026L3891.34 995.218C3891.93 998.374 3892.49 1001.1 3893.02 1003.4 3893.54 1005.71 3894.01 1007.62 3894.42 1009.15 3894.83 1010.68 3895.2 1011.89 3895.51 1012.77 3895.82 1013.66 3896.16 1014.33 3896.52 1014.77 3896.88 1015.22 3897.25 1015.53 3897.63 1015.71 3898.01 1015.89 3898.44 1015.98 3898.94 1015.98 3899.82 1015.98 3900.69 1015.63 3901.52 1014.94 3902.36 1014.25 3903.57 1012.69 3905.15 1010.26L3908.35 1012.38C3906.05 1015.8 3903.97 1018.21 3902.12 1019.6 3900.26 1021 3898.05 1021.7 3895.48 1021.7 3894.07 1021.7 3892.87 1021.45 3891.88 1020.94 3890.9 1020.43 3890.04 1019.61 3889.32 1018.49 3888.6 1017.38 3887.95 1015.63 3887.4 1013.27 3886.38 1009.06 3885.75 1005.84 3885.52 1003.6L3885.03 1003.6C3881.54 1008.5 3878.95 1012.02 3877.26 1014.16 3875.57 1016.29 3874.17 1017.87 3873.07 1018.89 3871.97 1019.91 3870.9 1020.62 3869.86 1021.03 3868.83 1021.45 3867.46 1021.65 3865.75 1021.65 3864.2 1021.65 3862.93 1021.45 3861.95 1021.06L3863.92 1012.13 3867.37 1012.13C3867.57 1013.51 3868.15 1014.2 3869.1 1014.2 3869.56 1014.2 3870.04 1014.08 3870.55 1013.83 3871.06 1013.59 3871.79 1013 3872.75 1012.06 3873.7 1011.12 3875.02 1009.65 3876.69 1007.65 3878.37 1005.64 3880.8 1002.63 3883.99 998.62 3883.5 996.023 3882.99 993.524 3882.46 991.124 3881.94 988.724 3881.4 986.489 3880.84 984.417 3880.28 982.346 3879.82 980.99 3879.46 980.349 3879.09 979.708 3878.71 979.264 3878.3 979.017 3877.89 978.771 3877.37 978.647 3876.74 978.647 3876.05 978.647 3875.43 978.803 3874.87 979.116 3874.31 979.428 3873.7 979.971 3873.04 980.743 3872.39 981.516 3871.52 982.724 3870.43 984.368L3867.22 982.247C3869.3 979.124 3871.29 976.79 3873.19 975.244 3875.1 973.699 3877.35 972.927 3879.95 972.927Z" fill="#0070C0" fill-rule="evenodd"/><text fill="#000000" fill-opacity="0" font-family="Arial,Arial_MSFontService,sans-serif" font-size="48.7739" x="3861.95" y="1015.6">𝑥</text><path d="M3923.98 1009.47 3932.61 1009.47C3933.07 1011.77 3933.3 1014.04 3933.3 1016.28 3933.3 1018.58 3932.91 1020.68 3932.12 1022.59 3931.33 1024.5 3930.07 1026.39 3928.34 1028.28 3926.62 1030.17 3924.24 1032.25 3921.22 1034.52L3918.55 1031.51C3920.23 1029.94 3921.45 1028.51 3922.2 1027.25 3922.96 1025.98 3923.5 1024.54 3923.83 1022.93 3924.16 1021.32 3924.32 1019.3 3924.32 1016.87 3924.32 1014.37 3924.21 1011.9 3923.98 1009.47Z" fill="#0070C0" fill-rule="evenodd"/><text fill="#000000" fill-opacity="0" font-family="Arial,Arial_MSFontService,sans-serif" font-size="25.0527" x="3918.55" y="1031.39">,</text><path d="M3974.08 961.584 3980.88 961.584 3978.17 973.765 3993.16 973.765 3992.08 978.746 3977.08 978.746 3972.7 997.881C3971.84 1001.6 3971.3 1004.27 3971.07 1005.89 3970.84 1007.52 3970.72 1008.83 3970.72 1009.82 3970.72 1013.89 3972.42 1015.93 3975.8 1015.93 3977.25 1015.93 3978.79 1015.38 3980.41 1014.28 3982.04 1013.18 3983.97 1011.29 3986.21 1008.63L3989.07 1011.59C3986.21 1015.04 3983.45 1017.59 3980.81 1019.23 3978.16 1020.88 3975.39 1021.7 3972.5 1021.7 3965.63 1021.7 3962.19 1018.23 3962.19 1011.29 3962.19 1009.09 3962.47 1006.77 3963.03 1004.34L3968.85 978.746 3960.56 978.746 3961.3 975.343C3963.24 975.31 3964.71 975.162 3965.72 974.899 3966.72 974.636 3967.56 974.275 3968.23 973.814 3968.91 973.354 3969.52 972.696 3970.08 971.842 3970.64 970.987 3971.18 969.894 3971.71 968.562 3972.24 967.231 3973.02 964.904 3974.08 961.584Z" fill="#0070C0" fill-rule="evenodd"/><text fill="#000000" fill-opacity="0" font-family="Arial,Arial_MSFontService,sans-serif" font-size="60.1167" x="3960.56" y="1014.19">𝑡</text><path d="M4012.31 945.692 4021.63 945.692 4021.63 948.51 4009.6 977.453 4005.37 976.188Z" fill="#0070C0" fill-rule="evenodd"/><text fill="#000000" fill-opacity="0" font-family="Arial,Arial_MSFontService,sans-serif" font-size="31.7607" x="4005.37" y="973.483">′</text><path d="M4122.09 976.872C4117.88 976.872 4114.68 978.557 4112.48 981.927 4110.27 985.297 4109.17 990.138 4109.17 996.451 4109.17 1002.76 4110.08 1007.56 4111.88 1010.85 4113.69 1014.14 4116.44 1015.78 4120.12 1015.78 4121.57 1015.78 4122.77 1015.66 4123.72 1015.41 4124.67 1015.17 4125.61 1014.77 4126.53 1014.23 4127.45 1013.69 4128.39 1012.94 4129.34 1011.99 4130.3 1011.03 4130.99 1010.16 4131.44 1009.37 4131.88 1008.58 4132.22 1007.68 4132.45 1006.66 4132.68 1005.64 4132.79 1004.32 4132.79 1002.71L4132.79 991.667C4132.79 989.102 4132.68 987.047 4132.45 985.502 4132.22 983.957 4131.83 982.658 4131.29 981.606 4130.75 980.554 4130.02 979.667 4129.1 978.943 4128.18 978.22 4127.16 977.694 4126.06 977.365 4124.96 977.036 4123.64 976.872 4122.09 976.872ZM4138.37 950.34 4141.28 950.34 4141.28 1007.45C4141.28 1010.01 4141.33 1011.85 4141.43 1012.95 4141.52 1014.05 4141.74 1014.93 4142.07 1015.59 4142.4 1016.24 4142.91 1016.78 4143.62 1017.19 4144.33 1017.6 4145.57 1017.99 4147.34 1018.35L4147.34 1020.91 4135.7 1021.4 4132.75 1021.4 4133.34 1013.32 4132.6 1013.12C4130.53 1015.32 4128.73 1016.97 4127.2 1018.08 4125.67 1019.18 4124.04 1020.06 4122.31 1020.71 4120.59 1021.37 4118.74 1021.7 4116.77 1021.7 4111.38 1021.7 4107.22 1019.65 4104.29 1015.56 4101.36 1011.47 4099.9 1005.56 4099.9 997.831 4099.9 992.439 4100.85 987.861 4102.76 984.097 4104.67 980.332 4107.24 977.529 4110.48 975.688 4113.72 973.847 4117.36 972.927 4121.4 972.927 4123.57 972.927 4125.55 973.099 4127.32 973.444 4129.1 973.79 4130.92 974.357 4132.79 975.146L4132.79 967.305C4132.79 964.148 4132.77 961.945 4132.72 960.696 4132.67 959.447 4132.54 958.386 4132.33 957.515 4132.11 956.644 4131.82 955.962 4131.44 955.469 4131.06 954.975 4130.55 954.581 4129.91 954.285 4129.27 953.989 4128.11 953.693 4126.43 953.397L4126.43 950.833Z" fill="#0070C0" fill-rule="evenodd"/><text fill="#000000" fill-opacity="0" font-family="Arial,Arial_MSFontService,sans-serif" font-size="71.3608" x="4099.9" y="1012.78">d</text><path d="M4170.15 961.584 4176.96 961.584 4174.24 973.765 4189.24 973.765 4188.15 978.746 4173.16 978.746 4168.77 997.881C4167.92 1001.6 4167.37 1004.27 4167.14 1005.89 4166.91 1007.52 4166.8 1008.83 4166.8 1009.82 4166.8 1013.89 4168.49 1015.93 4171.88 1015.93 4173.32 1015.93 4174.86 1015.38 4176.49 1014.28 4178.12 1013.18 4180.05 1011.29 4182.28 1008.63L4185.14 1011.59C4182.28 1015.04 4179.53 1017.59 4176.88 1019.23 4174.24 1020.88 4171.47 1021.7 4168.57 1021.7 4161.7 1021.7 4158.27 1018.23 4158.27 1011.29 4158.27 1009.09 4158.55 1006.77 4159.1 1004.34L4164.92 978.746 4156.64 978.746 4157.38 975.343C4159.32 975.31 4160.79 975.162 4161.79 974.899 4162.79 974.636 4163.63 974.275 4164.31 973.814 4164.98 973.354 4165.6 972.696 4166.16 971.842 4166.72 970.987 4167.26 969.894 4167.78 968.562 4168.31 967.231 4169.1 964.904 4170.15 961.584Z" fill="#0070C0" fill-rule="evenodd"/><text fill="#000000" fill-opacity="0" font-family="Arial,Arial_MSFontService,sans-serif" font-size="60.1167" x="4156.64" y="1014.19">𝑡</text><path d="M3734.63 860.995 3740.27 860.995 3738.21 870.172 3750.49 870.172 3749.66 874.183 3737.41 874.183 3733.73 889.323C3733.49 890.335 3733.29 891.244 3733.13 892.051 3732.98 892.858 3732.85 893.586 3732.75 894.237 3732.66 894.887 3732.59 895.477 3732.55 896.007 3732.52 896.537 3732.5 897.031 3732.5 897.489 3732.5 898.934 3732.8 900.066 3733.4 900.885 3734.01 901.704 3734.99 902.114 3736.37 902.114 3737.52 902.114 3738.75 901.686 3740.05 900.831 3741.35 899.976 3742.83 898.633 3744.5 896.802L3746.99 899.332C3745.76 900.705 3744.59 901.873 3743.49 902.836 3742.38 903.8 3741.29 904.589 3740.23 905.203 3739.17 905.817 3738.13 906.263 3737.09 906.54 3736.05 906.817 3734.99 906.956 3733.91 906.956 3731.04 906.956 3728.91 906.281 3727.5 904.932 3726.09 903.583 3725.38 901.596 3725.38 898.97 3725.38 898.079 3725.45 897.097 3725.58 896.025 3725.71 894.953 3725.9 893.912 3726.14 892.9L3730.44 874.183 3724.23 874.183 3724.95 871.401C3726.39 871.401 3727.52 871.262 3728.33 870.985 3729.13 870.708 3729.81 870.329 3730.37 869.847 3730.73 869.51 3731.08 869.094 3731.42 868.601 3731.75 868.107 3732.09 867.511 3732.43 866.812 3732.77 866.114 3733.11 865.288 3733.46 864.337 3733.81 863.385 3734.2 862.271 3734.63 860.995Z" fill="#0070C0" fill-rule="evenodd"/><text fill="#000000" fill-opacity="0" font-family="Arial,Arial_MSFontService,sans-serif" font-size="45.9609" x="3724.23" y="901.211">𝑡</text><path d="M3703.35 1073.03C3701.67 1073.03 3700.26 1073.47 3699.12 1074.35 3697.99 1075.22 3697.09 1076.51 3696.43 1078.21 3695.77 1079.91 3695.3 1081.98 3695.02 1084.43 3694.75 1086.87 3694.61 1089.65 3694.61 1092.76 3694.61 1096.34 3694.78 1099.45 3695.13 1102.06 3695.48 1104.67 3696.02 1106.82 3696.76 1108.51 3697.49 1110.2 3698.41 1111.44 3699.52 1112.23 3700.63 1113.03 3701.95 1113.42 3703.5 1113.42 3704.94 1113.42 3706.21 1113.05 3707.29 1112.3 3708.37 1111.56 3709.27 1110.39 3709.98 1108.82 3710.69 1107.24 3711.23 1105.24 3711.59 1102.82 3711.95 1100.4 3712.13 1097.54 3712.13 1094.24 3712.13 1090.53 3711.93 1087.34 3711.54 1084.66 3711.14 1081.99 3710.58 1079.79 3709.86 1078.07 3709.13 1076.34 3708.22 1075.07 3707.13 1074.26 3706.03 1073.44 3704.77 1073.03 3703.35 1073.03ZM3703.5 1069.52C3706.36 1069.52 3708.81 1070.06 3710.85 1071.13 3712.88 1072.2 3714.55 1073.73 3715.84 1075.72 3717.12 1077.71 3718.07 1080.13 3718.67 1083 3719.27 1085.87 3719.57 1089.11 3719.57 1092.72 3719.57 1100.74 3718.15 1106.8 3715.31 1110.91 3712.47 1115.02 3708.35 1117.07 3702.95 1117.07 3697.61 1117.07 3693.63 1115.13 3691.03 1111.26 3688.43 1107.38 3687.13 1101.5 3687.13 1093.62 3687.13 1089.5 3687.53 1085.94 3688.34 1082.93 3689.15 1079.92 3690.28 1077.42 3691.73 1075.43 3693.19 1073.44 3694.92 1071.96 3696.92 1070.98 3698.92 1070.01 3701.11 1069.52 3703.5 1069.52Z" fill="#0070C0" fill-rule="evenodd"/><text fill="#000000" fill-opacity="0" font-family="Arial,Arial_MSFontService,sans-serif" font-size="47.5508" x="3687.13" y="1111.13">0</text></g></svg>