<svg width="1414" height="390" xmlns="http://www.w3.org/2000/svg" xmlns:xlink="http://www.w3.org/1999/xlink" xml:space="preserve" overflow="hidden"><g transform="translate(-162 -1411)"><path d="M198.464 1599.17 205.27 1599.17 202.557 1611.35 217.55 1611.35 216.465 1616.33 201.472 1616.33 197.083 1635.47C196.228 1639.18 195.686 1641.85 195.456 1643.48 195.226 1645.11 195.111 1646.42 195.111 1647.4 195.111 1651.48 196.804 1653.52 200.19 1653.52 201.637 1653.52 203.174 1652.97 204.801 1651.87 206.429 1650.76 208.36 1648.88 210.596 1646.22L213.456 1649.18C210.596 1652.63 207.842 1655.18 205.196 1656.82 202.549 1658.47 199.779 1659.29 196.886 1659.29 190.015 1659.29 186.579 1655.82 186.579 1648.88 186.579 1646.68 186.858 1644.36 187.417 1641.93L193.237 1616.33 184.951 1616.33 185.691 1612.93C187.631 1612.9 189.102 1612.75 190.105 1612.49 191.108 1612.22 191.946 1611.86 192.62 1611.4 193.294 1610.94 193.911 1610.28 194.47 1609.43 195.028 1608.57 195.571 1607.48 196.097 1606.15 196.623 1604.82 197.412 1602.49 198.464 1599.17Z" fill-rule="evenodd"/><text fill="#000000" fill-opacity="0" font-family="Arial,Arial_MSFontService,sans-serif" font-size="60.1167" x="184.951" y="1651.77">洧노</text><path d="M265.333 1538.15C261.125 1538.15 257.919 1539.83 255.717 1543.2 253.514 1546.57 252.412 1551.41 252.412 1557.73 252.412 1564.04 253.317 1568.84 255.125 1572.13 256.933 1575.41 259.678 1577.06 263.361 1577.06 264.807 1577.06 266.007 1576.93 266.961 1576.69 267.914 1576.44 268.851 1576.05 269.772 1575.5 270.692 1574.96 271.629 1574.21 272.583 1573.26 273.536 1572.31 274.235 1571.44 274.679 1570.65 275.123 1569.86 275.46 1568.95 275.69 1567.93 275.92 1566.91 276.035 1565.6 276.035 1563.99L276.035 1552.94C276.035 1550.38 275.92 1548.32 275.69 1546.78 275.46 1545.23 275.073 1543.93 274.531 1542.88 273.988 1541.83 273.257 1540.94 272.336 1540.22 271.416 1539.49 270.405 1538.97 269.303 1538.64 268.202 1538.31 266.879 1538.15 265.333 1538.15ZM281.608 1511.61 284.517 1511.61 284.517 1568.72C284.517 1571.29 284.567 1573.12 284.665 1574.22 284.764 1575.32 284.978 1576.2 285.306 1576.86 285.635 1577.52 286.153 1578.05 286.86 1578.46 287.567 1578.87 288.808 1579.26 290.583 1579.62L290.583 1582.19 278.945 1582.68 275.986 1582.68 276.577 1574.59 275.838 1574.39C273.766 1576.6 271.966 1578.25 270.438 1579.35 268.909 1580.45 267.281 1581.33 265.555 1581.99 263.829 1582.65 261.98 1582.98 260.007 1582.98 254.615 1582.98 250.456 1580.93 247.53 1576.84 244.604 1572.74 243.141 1566.83 243.141 1559.11 243.141 1553.71 244.094 1549.14 246.001 1545.37 247.908 1541.61 250.481 1538.8 253.719 1536.96 256.958 1535.12 260.599 1534.2 264.643 1534.2 266.813 1534.2 268.785 1534.37 270.561 1534.72 272.336 1535.06 274.161 1535.63 276.035 1536.42L276.035 1528.58C276.035 1525.42 276.01 1523.22 275.961 1521.97 275.912 1520.72 275.78 1519.66 275.566 1518.79 275.353 1517.92 275.057 1517.24 274.679 1516.74 274.301 1516.25 273.791 1515.86 273.15 1515.56 272.509 1515.26 271.35 1514.97 269.673 1514.67L269.673 1512.11Z" fill-rule="evenodd"/><text fill="#000000" fill-opacity="0" font-family="Arial,Arial_MSFontService,sans-serif" font-size="71.3608" x="243.141" y="1574.06">d</text><path d="M315.68 1498.48C318.185 1498.48 320.323 1498.76 322.093 1499.32 323.864 1499.89 325.303 1500.66 326.411 1501.62 327.519 1502.58 328.32 1503.74 328.814 1505.09 329.308 1506.44 329.555 1507.89 329.555 1509.46 329.555 1510.4 329.489 1511.27 329.356 1512.08 329.224 1512.89 328.995 1513.68 328.67 1514.46 328.344 1515.25 327.917 1516.04 327.387 1516.83 326.857 1517.63 326.194 1518.47 325.4 1519.36 324.797 1520.13 324.014 1521.02 323.051 1522.03 322.087 1523.05 321.033 1524.13 319.889 1525.29 318.745 1526.44 317.547 1527.65 316.294 1528.9 315.041 1530.15 313.825 1531.39 312.645 1532.62 311.464 1533.85 310.38 1535.04 309.393 1536.2 308.405 1537.35 307.598 1538.41 306.972 1539.38L320.341 1539.38C321.473 1539.38 322.376 1539.34 323.051 1539.25 323.725 1539.17 324.285 1538.98 324.731 1538.69 325.177 1538.4 325.556 1537.96 325.869 1537.37 326.182 1536.78 326.544 1535.97 326.953 1534.93L330.314 1534.93C330.193 1536.64 330.079 1538.37 329.97 1540.1 329.862 1541.84 329.747 1543.56 329.627 1545.27L299.023 1545.27 299.023 1543.39C299.601 1542.09 300.275 1540.81 301.046 1539.54 301.817 1538.28 302.684 1536.99 303.648 1535.69 304.611 1534.39 305.707 1533.05 306.936 1531.66 308.164 1530.28 309.525 1528.84 311.019 1527.35 313.283 1525.08 315.126 1523.15 316.547 1521.55 317.968 1519.94 319.088 1518.52 319.907 1517.26 320.726 1516.01 321.286 1514.86 321.588 1513.8 321.889 1512.74 322.039 1511.6 322.039 1510.4 322.039 1509.17 321.865 1508.04 321.515 1507 321.166 1505.97 320.666 1505.09 320.016 1504.37 319.365 1503.64 318.54 1503.08 317.541 1502.67 316.541 1502.26 315.391 1502.05 314.09 1502.05 311.85 1502.05 309.971 1502.66 308.453 1503.88 306.936 1505.09 305.755 1506.86 304.912 1509.17L300.179 1509.17 300.179 1502.13C303.262 1500.85 306.099 1499.92 308.688 1499.34 311.278 1498.76 313.608 1498.48 315.68 1498.48Z" fill-rule="evenodd"/><text fill="#000000" fill-opacity="0" font-family="Arial,Arial_MSFontService,sans-serif" font-size="46.792" x="299.023" y="1539.42">2</text><path d="M356.035 1535.04 364.321 1535.04 358.255 1561.92C357.762 1564.09 357.375 1565.97 357.096 1567.56 356.816 1569.16 356.677 1570.61 356.677 1571.93 356.677 1573.64 357.129 1574.94 358.033 1575.82 358.937 1576.71 360.227 1577.16 361.904 1577.16 363.844 1577.16 365.956 1576.12 368.241 1574.05 370.526 1571.98 372.573 1569.38 374.381 1566.26 376.189 1563.13 377.357 1560.37 377.883 1557.97L382.765 1535.04 391.297 1535.04 384.294 1566.26C383.538 1569.64 383.16 1572.08 383.16 1573.56 383.16 1574.87 383.373 1575.82 383.801 1576.42 384.228 1577.01 384.902 1577.3 385.823 1577.3 386.579 1577.3 387.491 1577.01 388.56 1576.42 389.628 1575.82 390.82 1574.79 392.135 1573.31L394.897 1576.07C393.056 1577.88 391.42 1579.28 389.99 1580.26 388.56 1581.25 387.253 1581.95 386.069 1582.36 384.886 1582.77 383.603 1582.98 382.223 1582.98 380.085 1582.98 378.425 1582.34 377.242 1581.08 376.058 1579.81 375.466 1578.04 375.466 1575.78 375.466 1573.93 375.894 1571.96 376.748 1569.86L376.206 1569.56C373.148 1574.1 370.321 1577.39 367.723 1579.45 365.126 1581.5 362.447 1582.53 359.685 1582.53 358.304 1582.53 357.046 1582.31 355.912 1581.87 354.778 1581.42 353.603 1580.58 352.386 1579.33 351.992 1581.3 351.638 1583.95 351.326 1587.29 351.013 1590.63 350.857 1593.63 350.857 1596.29 350.857 1597.28 350.89 1598.07 350.956 1598.66L350.265 1601.96 343.854 1601.96 341.438 1599C342.917 1593.55 344.298 1587.94 345.58 1582.19Z" fill-rule="evenodd"/><text fill="#000000" fill-opacity="0" font-family="Arial,Arial_MSFontService,sans-serif" font-size="66.9224" x="341.438" y="1593.6">洧랞</text><path d="M417.842 1555.97C420.348 1555.97 422.485 1556.26 424.256 1556.82 426.026 1557.39 427.466 1558.15 428.574 1559.12 429.682 1560.08 430.483 1561.24 430.977 1562.59 431.47 1563.93 431.717 1565.39 431.717 1566.96 431.717 1567.9 431.651 1568.77 431.519 1569.58 431.386 1570.38 431.157 1571.18 430.832 1571.96 430.507 1572.75 430.079 1573.53 429.549 1574.33 429.019 1575.12 428.357 1575.97 427.562 1576.86 426.96 1577.63 426.177 1578.52 425.213 1579.53 424.25 1580.54 423.196 1581.63 422.052 1582.78 420.908 1583.94 419.709 1585.14 418.457 1586.4 417.204 1587.65 415.987 1588.89 414.807 1590.12 413.627 1591.35 412.543 1592.54 411.555 1593.7 410.568 1594.85 409.761 1595.91 409.134 1596.88L422.503 1596.88C423.636 1596.88 424.539 1596.83 425.213 1596.75 425.888 1596.67 426.448 1596.48 426.894 1596.19 427.339 1595.9 427.719 1595.46 428.032 1594.87 428.345 1594.28 428.706 1593.47 429.116 1592.43L432.476 1592.43C432.356 1594.14 432.241 1595.86 432.133 1597.6 432.024 1599.33 431.91 1601.06 431.79 1602.77L401.185 1602.77 401.185 1600.89C401.763 1599.59 402.438 1598.3 403.209 1597.04 403.979 1595.77 404.847 1594.49 405.81 1593.19 406.774 1591.89 407.87 1590.55 409.098 1589.16 410.327 1587.78 411.688 1586.34 413.181 1584.84 415.445 1582.58 417.288 1580.65 418.71 1579.04 420.131 1577.44 421.251 1576.02 422.07 1574.76 422.889 1573.51 423.449 1572.35 423.75 1571.29 424.051 1570.23 424.202 1569.1 424.202 1567.9 424.202 1566.67 424.027 1565.54 423.678 1564.5 423.328 1563.47 422.829 1562.59 422.178 1561.86 421.528 1561.14 420.703 1560.57 419.703 1560.17 418.703 1559.76 417.553 1559.55 416.252 1559.55 414.012 1559.55 412.133 1560.16 410.616 1561.38 409.098 1562.59 407.918 1564.36 407.075 1566.67L402.341 1566.67 402.341 1559.62C405.425 1558.35 408.261 1557.42 410.851 1556.84 413.44 1556.26 415.771 1555.97 417.842 1555.97Z" fill-rule="evenodd"/><text fill="#000000" fill-opacity="0" font-family="Arial,Arial_MSFontService,sans-serif" font-size="46.792" x="401.185" y="1596.92">2</text><path d="M481.574 1510.92 482.906 1514.72C475.212 1517.25 469.516 1522.19 465.817 1529.54 462.119 1536.89 460.269 1546.12 460.269 1557.23 460.269 1568.74 462.119 1578.22 465.817 1585.69 469.516 1593.15 475.163 1598.15 482.758 1600.68L481.574 1604.48C471.941 1601.95 464.56 1596.5 459.431 1588.13 454.302 1579.76 451.738 1569.63 451.738 1557.73 451.738 1545.86 454.31 1535.72 459.456 1527.32 464.601 1518.92 471.974 1513.46 481.574 1510.92Z" fill-rule="evenodd"/><text fill="#000000" fill-opacity="0" font-family="Arial,Arial_MSFontService,sans-serif" font-size="93.5532" x="451.738" y="1592.78">(</text><path d="M503.966 1522.86 510.772 1522.86 508.059 1535.04 523.052 1535.04 521.967 1540.02 506.975 1540.02 502.585 1559.16C501.731 1562.87 501.188 1565.54 500.958 1567.17 500.728 1568.8 500.613 1570.1 500.613 1571.09 500.613 1575.17 502.306 1577.21 505.692 1577.21 507.139 1577.21 508.676 1576.65 510.303 1575.55 511.931 1574.45 513.862 1572.57 516.098 1569.91L518.958 1572.87C516.098 1576.32 513.345 1578.87 510.698 1580.51 508.051 1582.15 505.281 1582.98 502.388 1582.98 495.517 1582.98 492.081 1579.51 492.081 1572.57 492.081 1570.37 492.36 1568.05 492.919 1565.62L498.739 1540.02 490.454 1540.02 491.193 1536.62C493.133 1536.59 494.604 1536.44 495.607 1536.17 496.61 1535.91 497.448 1535.55 498.122 1535.09 498.796 1534.63 499.413 1533.97 499.972 1533.12 500.531 1532.26 501.073 1531.17 501.599 1529.84 502.125 1528.51 502.914 1526.18 503.966 1522.86Z" fill-rule="evenodd"/><text fill="#000000" fill-opacity="0" font-family="Arial,Arial_MSFontService,sans-serif" font-size="60.1167" x="490.454" y="1575.46">洧노</text><path d="M529.872 1510.92C539.473 1513.46 546.846 1518.92 551.991 1527.32 557.136 1535.72 559.709 1545.86 559.709 1557.73 559.709 1569.63 557.144 1579.76 552.016 1588.13 546.887 1596.5 539.506 1601.95 529.872 1604.48L528.689 1600.68C536.284 1598.15 541.93 1593.15 545.629 1585.69 549.328 1578.22 551.177 1568.74 551.177 1557.23 551.177 1546.12 549.336 1536.89 545.654 1529.54 541.971 1522.19 536.267 1517.25 528.541 1514.72Z" fill-rule="evenodd"/><text fill="#000000" fill-opacity="0" font-family="Arial,Arial_MSFontService,sans-serif" font-size="93.5532" x="528.541" y="1592.78">)</text><path d="M356.633 1681.9C352.425 1681.9 349.219 1683.59 347.017 1686.96 344.814 1690.33 343.712 1695.17 343.712 1701.48 343.712 1707.79 344.617 1712.59 346.425 1715.88 348.233 1719.17 350.978 1720.81 354.661 1720.81 356.107 1720.81 357.307 1720.69 358.261 1720.44 359.214 1720.2 360.151 1719.8 361.072 1719.26 361.992 1718.72 362.929 1717.97 363.883 1717.02 364.836 1716.06 365.535 1715.19 365.979 1714.4 366.423 1713.61 366.76 1712.71 366.99 1711.69 367.22 1710.67 367.335 1709.36 367.335 1707.74L367.335 1696.7C367.335 1694.13 367.22 1692.08 366.99 1690.53 366.76 1688.99 366.373 1687.69 365.831 1686.64 365.288 1685.59 364.557 1684.7 363.636 1683.97 362.716 1683.25 361.705 1682.72 360.603 1682.4 359.502 1682.07 358.179 1681.9 356.633 1681.9ZM372.908 1655.37 375.817 1655.37 375.817 1712.48C375.817 1715.04 375.867 1716.88 375.965 1717.98 376.064 1719.08 376.278 1719.96 376.606 1720.62 376.935 1721.27 377.453 1721.81 378.16 1722.22 378.867 1722.63 380.108 1723.02 381.883 1723.38L381.883 1725.94 370.245 1726.44 367.286 1726.44 367.877 1718.35 367.138 1718.15C365.066 1720.35 363.266 1722.01 361.738 1723.11 360.209 1724.21 358.581 1725.09 356.855 1725.75 355.129 1726.4 353.28 1726.73 351.307 1726.73 345.915 1726.73 341.756 1724.69 338.83 1720.59 335.904 1716.5 334.441 1710.59 334.441 1702.86 334.441 1697.47 335.394 1692.89 337.301 1689.13 339.208 1685.36 341.781 1682.56 345.019 1680.72 348.258 1678.88 351.899 1677.96 355.943 1677.96 358.113 1677.96 360.085 1678.13 361.861 1678.48 363.636 1678.82 365.461 1679.39 367.335 1680.18L367.335 1672.34C367.335 1669.18 367.31 1666.98 367.261 1665.73 367.212 1664.48 367.08 1663.42 366.866 1662.55 366.653 1661.68 366.357 1660.99 365.979 1660.5 365.601 1660.01 365.091 1659.61 364.45 1659.32 363.809 1659.02 362.65 1658.72 360.973 1658.43L360.973 1655.86Z" fill-rule="evenodd"/><text fill="#000000" fill-opacity="0" font-family="Arial,Arial_MSFontService,sans-serif" font-size="71.3608" x="334.441" y="1717.81">d</text><path d="M404.691 1666.61 411.497 1666.61 408.784 1678.8 423.777 1678.8 422.692 1683.78 407.7 1683.78 403.31 1702.91C402.456 1706.63 401.913 1709.3 401.683 1710.93 401.453 1712.55 401.338 1713.86 401.338 1714.85 401.338 1718.92 403.031 1720.96 406.417 1720.96 407.864 1720.96 409.401 1720.41 411.028 1719.31 412.656 1718.21 414.587 1716.33 416.823 1713.66L419.683 1716.62C416.823 1720.07 414.07 1722.62 411.423 1724.27 408.776 1725.91 406.006 1726.73 403.113 1726.73 396.242 1726.73 392.806 1723.26 392.806 1716.33 392.806 1714.12 393.085 1711.81 393.644 1709.37L399.464 1683.78 391.179 1683.78 391.918 1680.37C393.858 1680.34 395.329 1680.19 396.332 1679.93 397.335 1679.67 398.173 1679.31 398.847 1678.85 399.521 1678.39 400.138 1677.73 400.697 1676.87 401.256 1676.02 401.798 1674.92 402.324 1673.59 402.85 1672.26 403.639 1669.94 404.691 1666.61Z" fill-rule="evenodd"/><text fill="#000000" fill-opacity="0" font-family="Arial,Arial_MSFontService,sans-serif" font-size="60.1167" x="391.179" y="1719.22">洧노</text><path d="M452.171 1648.88C454.677 1648.88 456.815 1649.16 458.585 1649.73 460.356 1650.29 461.795 1651.06 462.903 1652.02 464.011 1652.98 464.812 1654.14 465.306 1655.49 465.8 1656.84 466.046 1658.3 466.046 1659.86 466.046 1660.8 465.98 1661.67 465.848 1662.48 465.715 1663.29 465.486 1664.08 465.161 1664.87 464.836 1665.65 464.408 1666.44 463.879 1667.23 463.349 1668.03 462.686 1668.87 461.891 1669.76 461.289 1670.53 460.506 1671.42 459.543 1672.44 458.579 1673.45 457.525 1674.53 456.381 1675.69 455.237 1676.84 454.038 1678.05 452.786 1679.3 451.533 1680.55 450.317 1681.79 449.136 1683.02 447.956 1684.25 446.872 1685.44 445.884 1686.6 444.897 1687.76 444.09 1688.82 443.463 1689.78L456.833 1689.78C457.965 1689.78 458.868 1689.74 459.543 1689.65 460.217 1689.57 460.777 1689.38 461.223 1689.09 461.668 1688.8 462.048 1688.36 462.361 1687.77 462.674 1687.18 463.035 1686.37 463.445 1685.34L466.805 1685.34C466.685 1687.05 466.57 1688.77 466.462 1690.5 466.354 1692.24 466.239 1693.96 466.119 1695.67L435.514 1695.67 435.514 1693.79C436.092 1692.49 436.767 1691.21 437.538 1689.94 438.309 1688.68 439.176 1687.4 440.139 1686.09 441.103 1684.79 442.199 1683.45 443.427 1682.07 444.656 1680.68 446.017 1679.24 447.51 1677.75 449.775 1675.48 451.617 1673.55 453.039 1671.95 454.46 1670.35 455.58 1668.92 456.399 1667.67 457.218 1666.41 457.778 1665.26 458.079 1664.2 458.38 1663.14 458.531 1662.01 458.531 1660.8 458.531 1659.57 458.356 1658.44 458.007 1657.41 457.658 1656.37 457.158 1655.49 456.507 1654.77 455.857 1654.04 455.032 1653.48 454.032 1653.07 453.033 1652.66 451.882 1652.45 450.582 1652.45 448.341 1652.45 446.462 1653.06 444.945 1654.28 443.427 1655.5 442.247 1657.26 441.404 1659.57L436.671 1659.57 436.671 1652.53C439.754 1651.25 442.59 1650.32 445.18 1649.74 447.769 1649.17 450.1 1648.88 452.171 1648.88Z" fill-rule="evenodd"/><text fill="#000000" fill-opacity="0" font-family="Arial,Arial_MSFontService,sans-serif" font-size="46.792" x="435.514" y="1689.82">2</text><path d="M238.292 1626.51 569.292 1626.51 569.292 1633.51 238.292 1633.51Z" fill-rule="evenodd"/><path d="M625.128 1597.94 632.131 1597.94 632.131 1626.34 659.008 1626.34 659.008 1632.9 632.131 1632.9 632.131 1661.31 625.128 1661.31 625.128 1632.9 598.25 1632.9 598.25 1626.34 625.128 1626.34Z" fill-rule="evenodd"/><text fill="#000000" fill-opacity="0" font-family="Arial,Arial_MSFontService,sans-serif" font-size="63.3716" x="598.25" y="1653.39">+</text><path d="M959.858 1582.86C969.458 1585.39 976.831 1590.86 981.976 1599.26 987.122 1607.66 989.694 1617.79 989.694 1629.66 989.694 1641.56 987.13 1651.7 982.001 1660.06 976.872 1668.43 969.491 1673.88 959.858 1676.41L958.674 1672.62C966.269 1670.08 971.916 1665.09 975.614 1657.62 979.313 1650.16 981.162 1640.67 981.162 1629.17 981.162 1618.06 979.321 1608.82 975.639 1601.48 971.957 1594.13 966.253 1589.19 958.526 1586.66ZM727.08 1582.86 728.412 1586.66C720.718 1589.19 715.022 1594.13 711.324 1601.48 707.625 1608.82 705.776 1618.06 705.776 1629.17 705.776 1640.67 707.625 1650.16 711.324 1657.62 715.022 1665.09 720.669 1670.08 728.264 1672.62L727.08 1676.41C717.447 1673.88 710.066 1668.43 704.937 1660.06 699.808 1651.7 697.244 1641.56 697.244 1629.66 697.244 1617.79 699.816 1607.66 704.962 1599.26 710.107 1590.86 717.48 1585.39 727.08 1582.86Z" fill-rule="evenodd"/><path d="M762.071 1590.39 764.783 1590.39C764.586 1593.55 764.488 1597.92 764.488 1603.51L764.488 1645.63C764.488 1647.53 764.594 1648.97 764.808 1649.94 765.022 1650.91 765.4 1651.7 765.942 1652.31 766.485 1652.92 767.266 1653.39 768.285 1653.74 769.304 1654.09 770.586 1654.35 772.132 1654.53 773.677 1654.71 775.715 1654.83 778.247 1654.9L778.247 1658.5 741.802 1658.5 741.802 1654.9C745.451 1654.73 748.057 1654.51 749.619 1654.23 751.18 1653.95 752.372 1653.53 753.194 1652.98 754.016 1652.42 754.616 1651.63 754.994 1650.61 755.372 1649.59 755.561 1647.93 755.561 1645.63L755.561 1605.63C755.561 1604.32 755.331 1603.35 754.871 1602.75 754.411 1602.14 753.737 1601.83 752.849 1601.83 751.797 1601.83 750.301 1602.38 748.361 1603.46 746.421 1604.55 744.021 1606.04 741.161 1607.95L738.991 1604.15Z" fill-rule="evenodd"/><text fill="#000000" fill-opacity="0" font-family="Arial,Arial_MSFontService,sans-serif" font-size="68.106" x="738.991" y="1649.99">1</text><path d="M842.424 1597.94 849.427 1597.94 849.427 1626.34 876.304 1626.34 876.304 1632.9 849.427 1632.9 849.427 1661.31 842.424 1661.31 842.424 1632.9 815.546 1632.9 815.546 1626.34 842.424 1626.34Z" fill-rule="evenodd"/><text fill="#000000" fill-opacity="0" font-family="Arial,Arial_MSFontService,sans-serif" font-size="63.3716" x="815.546" y="1653.39">+</text><path d="M914.638 1610.32C919.307 1610.32 923.014 1613.5 925.759 1619.86 928.504 1626.22 930.288 1635.76 931.11 1648.49L931.702 1648.49C938.672 1631.65 943.258 1619.24 945.461 1611.25L955.374 1611.25 955.374 1613.67C945.379 1630.47 937.603 1645.18 932.047 1657.81 932.376 1661.26 932.54 1665.22 932.54 1669.69 932.54 1671.9 932.474 1673.82 932.343 1675.46L927.904 1678.27 922.825 1678.27 922.825 1675.17C922.825 1669.71 923.943 1664.38 926.178 1659.19 924.995 1647.22 922.973 1636.96 920.112 1628.42 917.252 1619.87 914.178 1615.59 910.89 1615.59 909.805 1615.59 908.293 1616.3 906.353 1617.71L904.331 1614.85C908.178 1611.83 911.614 1610.32 914.638 1610.32Z" fill-rule="evenodd"/><text fill="#000000" fill-opacity="0" font-family="Arial,Arial_MSFontService,sans-serif" font-size="67.958" x="904.331" y="1669.78">풥</text><path d="M1042.67 1538.15C1038.46 1538.15 1035.25 1539.83 1033.05 1543.2 1030.85 1546.57 1029.75 1551.41 1029.75 1557.73 1029.75 1564.04 1030.65 1568.84 1032.46 1572.13 1034.27 1575.41 1037.01 1577.06 1040.69 1577.06 1042.14 1577.06 1043.34 1576.93 1044.29 1576.69 1045.25 1576.44 1046.18 1576.05 1047.11 1575.5 1048.03 1574.96 1048.96 1574.21 1049.92 1573.26 1050.87 1572.31 1051.57 1571.44 1052.01 1570.65 1052.46 1569.86 1052.79 1568.95 1053.02 1567.93 1053.25 1566.91 1053.37 1565.6 1053.37 1563.99L1053.37 1552.94C1053.37 1550.38 1053.25 1548.32 1053.02 1546.78 1052.79 1545.23 1052.41 1543.93 1051.86 1542.88 1051.32 1541.83 1050.59 1540.94 1049.67 1540.22 1048.75 1539.49 1047.74 1538.97 1046.64 1538.64 1045.54 1538.31 1044.21 1538.15 1042.67 1538.15ZM1058.94 1511.61 1061.85 1511.61 1061.85 1568.72C1061.85 1571.29 1061.9 1573.12 1062 1574.22 1062.1 1575.32 1062.31 1576.2 1062.64 1576.86 1062.97 1577.52 1063.49 1578.05 1064.19 1578.46 1064.9 1578.87 1066.14 1579.26 1067.92 1579.62L1067.92 1582.19 1056.28 1582.68 1053.32 1582.68 1053.91 1574.59 1053.17 1574.39C1051.1 1576.6 1049.3 1578.25 1047.77 1579.35 1046.24 1580.45 1044.61 1581.33 1042.89 1581.99 1041.16 1582.65 1039.31 1582.98 1037.34 1582.98 1031.95 1582.98 1027.79 1580.93 1024.86 1576.84 1021.94 1572.74 1020.47 1566.83 1020.47 1559.11 1020.47 1553.71 1021.43 1549.14 1023.33 1545.37 1025.24 1541.61 1027.81 1538.8 1031.05 1536.96 1034.29 1535.12 1037.93 1534.2 1041.98 1534.2 1044.15 1534.2 1046.12 1534.37 1047.89 1534.72 1049.67 1535.06 1051.49 1535.63 1053.37 1536.42L1053.37 1528.58C1053.37 1525.42 1053.34 1523.22 1053.29 1521.97 1053.24 1520.72 1053.11 1519.66 1052.9 1518.79 1052.69 1517.92 1052.39 1517.24 1052.01 1516.74 1051.63 1516.25 1051.12 1515.86 1050.48 1515.56 1049.84 1515.26 1048.68 1514.97 1047.01 1514.67L1047.01 1512.11Z" fill-rule="evenodd"/><text fill="#000000" fill-opacity="0" font-family="Arial,Arial_MSFontService,sans-serif" font-size="71.3608" x="1020.47" y="1574.06">d</text><path d="M1086.78 1535.04 1095.06 1535.04 1089 1561.92C1088.51 1564.09 1088.12 1565.97 1087.84 1567.56 1087.56 1569.16 1087.42 1570.61 1087.42 1571.93 1087.42 1573.64 1087.87 1574.94 1088.78 1575.82 1089.68 1576.71 1090.97 1577.16 1092.65 1577.16 1094.59 1577.16 1096.7 1576.12 1098.98 1574.05 1101.27 1571.98 1103.32 1569.38 1105.12 1566.26 1106.93 1563.13 1108.1 1560.37 1108.63 1557.97L1113.51 1535.04 1122.04 1535.04 1115.04 1566.26C1114.28 1569.64 1113.9 1572.08 1113.9 1573.56 1113.9 1574.87 1114.12 1575.82 1114.54 1576.42 1114.97 1577.01 1115.65 1577.3 1116.57 1577.3 1117.32 1577.3 1118.23 1577.01 1119.3 1576.42 1120.37 1575.82 1121.56 1574.79 1122.88 1573.31L1125.64 1576.07C1123.8 1577.88 1122.16 1579.28 1120.73 1580.26 1119.3 1581.25 1118 1581.95 1116.81 1582.36 1115.63 1582.77 1114.35 1582.98 1112.97 1582.98 1110.83 1582.98 1109.17 1582.34 1107.99 1581.08 1106.8 1579.81 1106.21 1578.04 1106.21 1575.78 1106.21 1573.93 1106.64 1571.96 1107.49 1569.86L1106.95 1569.56C1103.89 1574.1 1101.06 1577.39 1098.47 1579.45 1095.87 1581.5 1093.19 1582.53 1090.43 1582.53 1089.05 1582.53 1087.79 1582.31 1086.66 1581.87 1085.52 1581.42 1084.35 1580.58 1083.13 1579.33 1082.74 1581.3 1082.38 1583.95 1082.07 1587.29 1081.76 1590.63 1081.6 1593.63 1081.6 1596.29 1081.6 1597.28 1081.63 1598.07 1081.7 1598.66L1081.01 1601.96 1074.6 1601.96 1072.18 1599C1073.66 1593.55 1075.04 1587.94 1076.32 1582.19Z" fill-rule="evenodd"/><text fill="#000000" fill-opacity="0" font-family="Arial,Arial_MSFontService,sans-serif" font-size="66.9224" x="1072.18" y="1593.6">洧랞</text><path d="M1148.59 1555.97C1151.09 1555.97 1153.23 1556.26 1155 1556.82 1156.77 1557.39 1158.21 1558.15 1159.32 1559.12 1160.43 1560.08 1161.23 1561.24 1161.72 1562.59 1162.21 1563.93 1162.46 1565.39 1162.46 1566.96 1162.46 1567.9 1162.39 1568.77 1162.26 1569.58 1162.13 1570.38 1161.9 1571.18 1161.58 1571.96 1161.25 1572.75 1160.82 1573.53 1160.29 1574.33 1159.76 1575.12 1159.1 1575.97 1158.31 1576.86 1157.7 1577.63 1156.92 1578.52 1155.96 1579.53 1154.99 1580.54 1153.94 1581.63 1152.8 1582.78 1151.65 1583.94 1150.45 1585.14 1149.2 1586.4 1147.95 1587.65 1146.73 1588.89 1145.55 1590.12 1144.37 1591.35 1143.29 1592.54 1142.3 1593.7 1141.31 1594.85 1140.5 1595.91 1139.88 1596.88L1153.25 1596.88C1154.38 1596.88 1155.28 1596.83 1155.96 1596.75 1156.63 1596.67 1157.19 1596.48 1157.64 1596.19 1158.08 1595.9 1158.46 1595.46 1158.78 1594.87 1159.09 1594.28 1159.45 1593.47 1159.86 1592.43L1163.22 1592.43C1163.1 1594.14 1162.98 1595.86 1162.88 1597.6 1162.77 1599.33 1162.65 1601.06 1162.53 1602.77L1131.93 1602.77 1131.93 1600.89C1132.51 1599.59 1133.18 1598.3 1133.95 1597.04 1134.72 1595.77 1135.59 1594.49 1136.55 1593.19 1137.52 1591.89 1138.61 1590.55 1139.84 1589.16 1141.07 1587.78 1142.43 1586.34 1143.92 1584.84 1146.19 1582.58 1148.03 1580.65 1149.45 1579.04 1150.87 1577.44 1151.99 1576.02 1152.81 1574.76 1153.63 1573.51 1154.19 1572.35 1154.49 1571.29 1154.79 1570.23 1154.95 1569.1 1154.95 1567.9 1154.95 1566.67 1154.77 1565.54 1154.42 1564.5 1154.07 1563.47 1153.57 1562.59 1152.92 1561.86 1152.27 1561.14 1151.45 1560.57 1150.45 1560.17 1149.45 1559.76 1148.3 1559.55 1147 1559.55 1144.76 1559.55 1142.88 1560.16 1141.36 1561.38 1139.84 1562.59 1138.66 1564.36 1137.82 1566.67L1133.09 1566.67 1133.09 1559.62C1136.17 1558.35 1139 1557.42 1141.59 1556.84 1144.18 1556.26 1146.51 1555.97 1148.59 1555.97Z" fill-rule="evenodd"/><text fill="#000000" fill-opacity="0" font-family="Arial,Arial_MSFontService,sans-serif" font-size="46.792" x="1131.93" y="1596.92">2</text><path d="M1260.64 1506.55C1270.24 1509.08 1277.61 1514.54 1282.76 1522.94 1287.9 1531.35 1290.48 1541.48 1290.48 1553.35 1290.48 1565.25 1287.91 1575.38 1282.78 1583.75 1277.65 1592.12 1270.27 1597.57 1260.64 1600.1L1259.46 1596.3C1267.05 1593.77 1272.7 1588.77 1276.4 1581.31 1280.09 1573.85 1281.94 1564.36 1281.94 1552.86 1281.94 1541.74 1280.1 1532.51 1276.42 1525.16 1272.74 1517.82 1267.03 1512.88 1259.31 1510.34ZM1212.32 1506.55 1213.65 1510.34C1205.96 1512.88 1200.26 1517.82 1196.56 1525.16 1192.86 1532.51 1191.01 1541.74 1191.01 1552.86 1191.01 1564.36 1192.86 1573.85 1196.56 1581.31 1200.26 1588.77 1205.91 1593.77 1213.5 1596.3L1212.32 1600.1C1202.68 1597.57 1195.3 1592.12 1190.17 1583.75 1185.05 1575.38 1182.48 1565.25 1182.48 1553.35 1182.48 1541.48 1185.05 1531.35 1190.2 1522.94 1195.34 1514.54 1202.72 1509.08 1212.32 1506.55Z" fill-rule="evenodd"/><path d="M1234.73 1522.86 1241.54 1522.86 1238.83 1535.04 1253.82 1535.04 1252.73 1540.02 1237.74 1540.02 1233.35 1559.16C1232.5 1562.87 1231.95 1565.54 1231.72 1567.17 1231.49 1568.8 1231.38 1570.1 1231.38 1571.09 1231.38 1575.17 1233.07 1577.21 1236.46 1577.21 1237.91 1577.21 1239.44 1576.65 1241.07 1575.55 1242.7 1574.45 1244.63 1572.57 1246.86 1569.91L1249.73 1572.87C1246.86 1576.32 1244.11 1578.87 1241.46 1580.51 1238.82 1582.15 1236.05 1582.98 1233.15 1582.98 1226.28 1582.98 1222.85 1579.51 1222.85 1572.57 1222.85 1570.37 1223.13 1568.05 1223.69 1565.62L1229.51 1540.02 1221.22 1540.02 1221.96 1536.62C1223.9 1536.59 1225.37 1536.44 1226.37 1536.17 1227.38 1535.91 1228.21 1535.55 1228.89 1535.09 1229.56 1534.63 1230.18 1533.97 1230.74 1533.12 1231.3 1532.26 1231.84 1531.17 1232.37 1529.84 1232.89 1528.51 1233.68 1526.18 1234.73 1522.86Z" fill-rule="evenodd"/><text fill="#000000" fill-opacity="0" font-family="Arial,Arial_MSFontService,sans-serif" font-size="60.1167" x="1221.22" y="1575.46">洧노</text><path d="M1135.59 1681.9C1131.39 1681.9 1128.18 1683.59 1125.98 1686.96 1123.77 1690.33 1122.67 1695.17 1122.67 1701.48 1122.67 1707.79 1123.58 1712.59 1125.39 1715.88 1127.19 1719.17 1129.94 1720.81 1133.62 1720.81 1135.07 1720.81 1136.27 1720.69 1137.22 1720.44 1138.17 1720.2 1139.11 1719.8 1140.03 1719.26 1140.95 1718.72 1141.89 1717.97 1142.84 1717.02 1143.8 1716.06 1144.5 1715.19 1144.94 1714.4 1145.38 1713.61 1145.72 1712.71 1145.95 1711.69 1146.18 1710.67 1146.3 1709.36 1146.3 1707.74L1146.3 1696.7C1146.3 1694.13 1146.18 1692.08 1145.95 1690.53 1145.72 1688.99 1145.33 1687.69 1144.79 1686.64 1144.25 1685.59 1143.52 1684.7 1142.6 1683.97 1141.68 1683.25 1140.67 1682.72 1139.56 1682.4 1138.46 1682.07 1137.14 1681.9 1135.59 1681.9ZM1151.87 1655.37 1154.78 1655.37 1154.78 1712.48C1154.78 1715.04 1154.83 1716.88 1154.93 1717.98 1155.02 1719.08 1155.24 1719.96 1155.57 1720.62 1155.9 1721.27 1156.41 1721.81 1157.12 1722.22 1157.83 1722.63 1159.07 1723.02 1160.84 1723.38L1160.84 1725.94 1149.2 1726.44 1146.25 1726.44 1146.84 1718.35 1146.1 1718.15C1144.03 1720.35 1142.23 1722.01 1140.7 1723.11 1139.17 1724.21 1137.54 1725.09 1135.82 1725.75 1134.09 1726.4 1132.24 1726.73 1130.27 1726.73 1124.88 1726.73 1120.72 1724.69 1117.79 1720.59 1114.86 1716.5 1113.4 1710.59 1113.4 1702.86 1113.4 1697.47 1114.35 1692.89 1116.26 1689.13 1118.17 1685.36 1120.74 1682.56 1123.98 1680.72 1127.22 1678.88 1130.86 1677.96 1134.9 1677.96 1137.07 1677.96 1139.05 1678.13 1140.82 1678.48 1142.6 1678.82 1144.42 1679.39 1146.3 1680.18L1146.3 1672.34C1146.3 1669.18 1146.27 1666.98 1146.22 1665.73 1146.17 1664.48 1146.04 1663.42 1145.83 1662.55 1145.61 1661.68 1145.32 1660.99 1144.94 1660.5 1144.56 1660.01 1144.05 1659.61 1143.41 1659.32 1142.77 1659.02 1141.61 1658.72 1139.93 1658.43L1139.93 1655.86Z" fill-rule="evenodd"/><text fill="#000000" fill-opacity="0" font-family="Arial,Arial_MSFontService,sans-serif" font-size="71.3608" x="1113.4" y="1717.81">d</text><path d="M1183.65 1666.61 1190.46 1666.61 1187.74 1678.8 1202.74 1678.8 1201.65 1683.78 1186.66 1683.78 1182.27 1702.91C1181.42 1706.63 1180.87 1709.3 1180.64 1710.93 1180.41 1712.55 1180.3 1713.86 1180.3 1714.85 1180.3 1718.92 1181.99 1720.96 1185.38 1720.96 1186.82 1720.96 1188.36 1720.41 1189.99 1719.31 1191.62 1718.21 1193.55 1716.33 1195.78 1713.66L1198.64 1716.62C1195.78 1720.07 1193.03 1722.62 1190.38 1724.27 1187.74 1725.91 1184.97 1726.73 1182.07 1726.73 1175.2 1726.73 1171.77 1723.26 1171.77 1716.33 1171.77 1714.12 1172.05 1711.81 1172.6 1709.37L1178.42 1683.78 1170.14 1683.78 1170.88 1680.37C1172.82 1680.34 1174.29 1680.19 1175.29 1679.93 1176.3 1679.67 1177.13 1679.31 1177.81 1678.85 1178.48 1678.39 1179.1 1677.73 1179.66 1676.87 1180.22 1676.02 1180.76 1674.92 1181.28 1673.59 1181.81 1672.26 1182.6 1669.94 1183.65 1666.61Z" fill-rule="evenodd"/><text fill="#000000" fill-opacity="0" font-family="Arial,Arial_MSFontService,sans-serif" font-size="60.1167" x="1170.14" y="1719.22">洧노</text><path d="M1015.29 1626.51 1299.29 1626.51 1299.29 1633.51 1015.29 1633.51Z" fill-rule="evenodd"/><path d="M1334.63 1636.6 1395.39 1636.6 1395.39 1643.16 1334.63 1643.16ZM1334.63 1616.14 1395.39 1616.14 1395.39 1622.7 1334.63 1622.7Z" fill-rule="evenodd"/><text fill="#000000" fill-opacity="0" font-family="Arial,Arial_MSFontService,sans-serif" font-size="27.0254" x="1334.63" y="1639.78">=</text><path d="M1520.91 1595.47C1519.46 1595.47 1517.9 1595.52 1516.23 1595.62L1503.45 1653.96C1504.41 1654.06 1506.23 1654.11 1508.93 1654.11 1514.25 1654.11 1518.77 1653.18 1522.49 1651.32 1526.2 1649.47 1529.41 1646.56 1532.11 1642.59 1534.8 1638.63 1536.79 1634.46 1538.07 1630.07 1539.35 1625.68 1540 1621.05 1540 1616.19 1540 1609.31 1538.39 1604.14 1535.19 1600.68 1531.98 1597.21 1527.22 1595.47 1520.91 1595.47ZM1502.07 1591.18 1520.76 1591.18C1525.73 1591.18 1529.75 1591.56 1532.85 1592.32 1535.94 1593.07 1538.82 1594.44 1541.5 1596.41 1544.18 1598.38 1546.19 1601 1547.54 1604.28 1548.89 1607.55 1549.56 1611.42 1549.56 1615.89 1549.56 1620.33 1549.05 1624.57 1548.03 1628.61 1547.02 1632.66 1545.55 1636.38 1543.65 1639.78 1541.74 1643.19 1539.45 1646.15 1536.79 1648.66 1534.13 1651.18 1531.55 1653.11 1529.05 1654.45 1526.55 1655.8 1523.75 1656.81 1520.66 1657.49 1517.57 1658.16 1513.97 1658.5 1509.86 1658.5L1489.15 1658.5 1489.69 1656.08C1490.94 1655.89 1491.88 1655.56 1492.5 1655.12 1493.13 1654.68 1493.66 1654.06 1494.08 1653.27 1494.51 1652.48 1494.9 1651.52 1495.27 1650.39 1495.63 1649.25 1496.17 1647.06 1496.89 1643.8L1505.28 1605.83C1506 1602.54 1506.36 1599.89 1506.36 1597.89 1506.36 1596.34 1505.98 1595.27 1505.2 1594.66 1504.43 1594.05 1503.21 1593.7 1501.53 1593.6ZM1458.7 1590.39C1464.81 1590.39 1469.43 1591.73 1472.55 1594.41 1475.68 1597.09 1477.24 1600.98 1477.24 1606.08 1477.24 1607.82 1477.07 1609.42 1476.72 1610.88 1476.38 1612.35 1475.83 1613.79 1475.09 1615.22 1474.35 1616.65 1473.36 1618.19 1472.11 1619.83 1470.86 1621.48 1469.48 1623.15 1467.97 1624.84 1466.46 1626.53 1463.84 1629.35 1460.13 1633.3 1453.88 1639.91 1449.29 1645.68 1446.37 1650.61L1464.96 1650.61C1466.57 1650.61 1467.87 1650.51 1468.86 1650.31 1469.84 1650.12 1470.63 1649.79 1471.22 1649.33 1471.81 1648.87 1472.28 1648.27 1472.63 1647.53 1472.97 1646.79 1473.41 1645.64 1473.94 1644.1L1478.13 1644.1 1477.29 1658.5 1436.7 1658.5 1436.7 1656.13C1438.12 1652.68 1440.02 1649.15 1442.42 1645.53 1444.82 1641.91 1448.23 1637.65 1452.63 1632.76 1456.44 1628.55 1459.19 1625.36 1460.87 1623.19 1462.71 1620.82 1464.08 1618.77 1464.98 1617.05 1465.89 1615.32 1466.54 1613.69 1466.93 1612.17 1467.33 1610.64 1467.52 1609.1 1467.52 1607.56 1467.52 1605.09 1467.13 1602.91 1466.34 1601.02 1465.55 1599.13 1464.34 1597.64 1462.72 1596.56 1461.09 1595.47 1459.04 1594.93 1456.58 1594.93 1450.43 1594.93 1446.29 1598.35 1444.15 1605.19L1438.18 1605.19 1438.18 1595.72C1442.16 1593.85 1445.88 1592.49 1449.35 1591.65 1452.82 1590.81 1455.93 1590.39 1458.7 1590.39Z" fill-rule="evenodd"/><text fill="#000000" fill-opacity="0" font-family="Arial,Arial_MSFontService,sans-serif" font-size="68.106" x="1436.7" y="1649.99">2洧냥</text></g></svg>