<svg width="1514" height="390" xmlns="http://www.w3.org/2000/svg" xmlns:xlink="http://www.w3.org/1999/xlink" xml:space="preserve" overflow="hidden"><g transform="translate(-2272 -1449)"><path d="M2295.37 1613.1 2312.98 1613.1 2330.29 1661.08 2349.32 1613.1 2365.99 1613.1 2365.99 1615.52C2364.54 1615.88 2363.5 1616.24 2362.86 1616.6 2362.22 1616.96 2361.71 1617.41 2361.33 1617.96 2360.95 1618.5 2360.67 1619.31 2360.49 1620.4 2360.31 1621.48 2360.22 1623.16 2360.22 1625.43L2360.22 1668.09C2360.22 1670.29 2360.3 1671.9 2360.44 1672.92 2360.59 1673.94 2360.84 1674.75 2361.18 1675.34 2361.53 1675.93 2362.04 1676.42 2362.71 1676.82 2363.39 1677.21 2364.48 1677.61 2365.99 1678L2365.99 1680.42 2345.43 1680.42 2345.43 1678C2347.3 1677.54 2348.6 1677.01 2349.32 1676.42 2350.05 1675.83 2350.54 1674.96 2350.8 1673.81 2351.06 1672.66 2351.2 1670.75 2351.2 1668.09L2351.2 1649.2C2351.2 1644.23 2351.27 1639.21 2351.42 1634.13 2351.57 1629.05 2351.74 1625.58 2351.94 1623.7L2351.1 1623.7 2331.57 1672.58 2325.9 1672.58 2307.75 1622.91 2306.91 1622.91C2307.07 1624.92 2307.23 1628.55 2307.38 1633.81 2307.53 1639.07 2307.6 1644.48 2307.6 1650.04L2307.6 1668.09C2307.6 1670.29 2307.67 1671.9 2307.82 1672.92 2307.97 1673.94 2308.22 1674.75 2308.56 1675.34 2308.91 1675.93 2309.42 1676.42 2310.09 1676.82 2310.77 1677.21 2311.86 1677.61 2313.37 1678L2313.37 1680.42 2295.37 1680.42 2295.37 1678C2297.41 1677.47 2298.77 1676.89 2299.46 1676.25 2300.15 1675.61 2300.61 1674.7 2300.82 1673.51 2301.03 1672.33 2301.14 1670.52 2301.14 1668.09L2301.14 1625.43C2301.14 1623.16 2301.06 1621.51 2300.89 1620.47 2300.73 1619.44 2300.46 1618.63 2300.08 1618.06 2299.7 1617.48 2299.2 1617.02 2298.58 1616.68 2297.95 1616.33 2296.88 1615.94 2295.37 1615.52Z" fill-rule="evenodd"/><text fill="#000000" fill-opacity="0" font-family="Arial,Arial_MSFontService,sans-serif" font-size="67.3169" x="2295.37" y="1672">풒</text><path d="M2393.67 1654.2C2396.18 1654.2 2398.31 1654.49 2400.09 1655.05 2401.86 1655.62 2403.29 1656.38 2404.4 1657.35 2405.51 1658.31 2406.31 1659.47 2406.81 1660.82 2407.3 1662.17 2407.55 1663.62 2407.55 1665.19 2407.55 1666.13 2407.48 1667 2407.35 1667.81 2407.22 1668.61 2406.99 1669.41 2406.66 1670.19 2406.34 1670.98 2405.91 1671.76 2405.38 1672.56 2404.85 1673.35 2404.19 1674.2 2403.39 1675.09 2402.79 1675.86 2402.01 1676.75 2401.04 1677.76 2400.08 1678.77 2399.03 1679.86 2397.88 1681.01 2396.74 1682.17 2395.54 1683.38 2394.29 1684.63 2393.03 1685.88 2391.82 1687.12 2390.64 1688.35 2389.46 1689.58 2388.37 1690.77 2387.38 1691.93 2386.4 1693.08 2385.59 1694.14 2384.96 1695.11L2398.33 1695.11C2399.46 1695.11 2400.37 1695.06 2401.04 1694.98 2401.72 1694.9 2402.28 1694.71 2402.72 1694.42 2403.17 1694.13 2403.55 1693.69 2403.86 1693.1 2404.17 1692.51 2404.54 1691.7 2404.95 1690.66L2408.31 1690.66C2408.19 1692.37 2408.07 1694.09 2407.96 1695.83 2407.85 1697.56 2407.74 1699.29 2407.62 1701L2377.01 1701 2377.01 1699.12C2377.59 1697.82 2378.27 1696.53 2379.04 1695.27 2379.81 1694 2380.68 1692.72 2381.64 1691.42 2382.6 1690.12 2383.7 1688.78 2384.93 1687.39 2386.16 1686.01 2387.52 1684.57 2389.01 1683.07 2391.27 1680.81 2393.12 1678.88 2394.54 1677.27 2395.96 1675.67 2397.08 1674.25 2397.9 1672.99 2398.72 1671.74 2399.28 1670.58 2399.58 1669.52 2399.88 1668.46 2400.03 1667.33 2400.03 1666.13 2400.03 1664.9 2399.86 1663.77 2399.51 1662.73 2399.16 1661.7 2398.66 1660.82 2398.01 1660.09 2397.36 1659.37 2396.53 1658.8 2395.53 1658.4 2394.53 1657.99 2393.38 1657.78 2392.08 1657.78 2389.84 1657.78 2387.96 1658.39 2386.45 1659.61 2384.93 1660.82 2383.75 1662.59 2382.9 1664.9L2378.17 1664.9 2378.17 1657.85C2381.25 1656.58 2384.09 1655.65 2386.68 1655.07 2389.27 1654.49 2391.6 1654.2 2393.67 1654.2Z" fill-rule="evenodd"/><text fill="#000000" fill-opacity="0" font-family="Arial,Arial_MSFontService,sans-serif" font-size="46.792" x="2377.01" y="1695.15">2</text><path d="M2505.72 1604.78C2515.32 1607.31 2522.7 1612.77 2527.84 1621.18 2532.99 1629.58 2535.56 1639.71 2535.56 1651.58 2535.56 1663.48 2533 1673.61 2527.87 1681.98 2522.74 1690.35 2515.36 1695.8 2505.72 1698.33L2504.54 1694.53C2512.14 1692 2517.78 1687 2521.48 1679.54 2525.18 1672.08 2527.03 1662.59 2527.03 1651.09 2527.03 1639.97 2525.19 1630.74 2521.51 1623.39 2517.82 1616.05 2512.12 1611.11 2504.39 1608.57ZM2457.4 1604.78 2458.73 1608.57C2451.04 1611.11 2445.35 1616.05 2441.65 1623.39 2437.95 1630.74 2436.1 1639.97 2436.1 1651.09 2436.1 1662.59 2437.95 1672.08 2441.65 1679.54 2445.35 1687 2450.99 1692 2458.59 1694.53L2457.4 1698.33C2447.77 1695.8 2440.39 1690.35 2435.26 1681.98 2430.13 1673.61 2427.57 1663.48 2427.57 1651.58 2427.57 1639.71 2430.14 1629.58 2435.28 1621.18 2440.43 1612.77 2447.8 1607.31 2457.4 1604.78Z" fill-rule="evenodd"/><path d="M2479.82 1621.09 2486.62 1621.09 2483.91 1633.27 2498.9 1633.27 2497.82 1638.25 2482.83 1638.25 2478.44 1657.39C2477.58 1661.1 2477.04 1663.77 2476.81 1665.4 2476.58 1667.03 2476.46 1668.33 2476.46 1669.32 2476.46 1673.4 2478.16 1675.44 2481.54 1675.44 2482.99 1675.44 2484.53 1674.89 2486.16 1673.78 2487.78 1672.68 2489.71 1670.8 2491.95 1668.14L2494.81 1671.1C2491.95 1674.55 2489.2 1677.1 2486.55 1678.74 2483.9 1680.38 2481.13 1681.21 2478.24 1681.21 2471.37 1681.21 2467.93 1677.74 2467.93 1670.8 2467.93 1668.6 2468.21 1666.28 2468.77 1663.85L2474.59 1638.25 2466.31 1638.25 2467.05 1634.85C2468.99 1634.82 2470.46 1634.67 2471.46 1634.4 2472.46 1634.14 2473.3 1633.78 2473.97 1633.32 2474.65 1632.86 2475.26 1632.2 2475.82 1631.35 2476.38 1630.49 2476.93 1629.4 2477.45 1628.07 2477.98 1626.74 2478.77 1624.41 2479.82 1621.09Z" fill-rule="evenodd"/><text fill="#000000" fill-opacity="0" font-family="Arial,Arial_MSFontService,sans-serif" font-size="60.1167" x="2466.31" y="1673.69">洧노</text><path d="M2579.72 1658.52 2640.47 1658.52 2640.47 1665.08 2579.72 1665.08ZM2579.72 1638.05 2640.47 1638.05 2640.47 1644.61 2579.72 1644.61Z" fill-rule="evenodd"/><text fill="#000000" fill-opacity="0" font-family="Arial,Arial_MSFontService,sans-serif" font-size="27.0254" x="2579.72" y="1661.7">=</text><path d="M2766 1541.08C2764.55 1541.08 2762.99 1541.13 2761.31 1541.23L2748.54 1599.57C2749.49 1599.67 2751.32 1599.71 2754.01 1599.71 2759.34 1599.71 2763.86 1598.79 2767.57 1596.93 2771.29 1595.07 2774.49 1592.16 2777.19 1588.2 2779.89 1584.24 2781.88 1580.06 2783.16 1575.67 2784.44 1571.28 2785.08 1566.66 2785.08 1561.79 2785.08 1554.92 2783.48 1549.75 2780.27 1546.28 2777.07 1542.81 2772.31 1541.08 2766 1541.08ZM2747.16 1536.79 2765.85 1536.79C2770.81 1536.79 2774.84 1537.17 2777.93 1537.92 2781.02 1538.68 2783.91 1540.04 2786.59 1542.01 2789.27 1543.99 2791.28 1546.61 2792.63 1549.88 2793.97 1553.15 2794.65 1557.02 2794.65 1561.49 2794.65 1565.93 2794.14 1570.17 2793.12 1574.22 2792.1 1578.26 2790.64 1581.99 2788.73 1585.39 2786.82 1588.79 2784.54 1591.75 2781.88 1594.27 2779.21 1596.78 2776.63 1598.71 2774.13 1600.06 2771.63 1601.41 2768.84 1602.42 2765.75 1603.09 2762.66 1603.77 2759.06 1604.1 2754.95 1604.1L2734.24 1604.1 2734.78 1601.69C2736.03 1601.49 2736.97 1601.17 2737.59 1600.73 2738.21 1600.28 2738.74 1599.67 2739.17 1598.88 2739.6 1598.09 2739.99 1597.13 2740.35 1595.99 2740.71 1594.86 2741.26 1592.66 2741.98 1589.41L2750.36 1551.43C2751.09 1548.15 2751.45 1545.5 2751.45 1543.49 2751.45 1541.95 2751.06 1540.87 2750.29 1540.26 2749.52 1539.66 2748.29 1539.3 2746.61 1539.2ZM2703.78 1536C2709.9 1536 2714.52 1537.34 2717.64 1540.02 2720.76 1542.7 2722.33 1546.58 2722.33 1551.68 2722.33 1553.42 2722.15 1555.03 2721.81 1556.49 2721.46 1557.95 2720.92 1559.4 2720.18 1560.83 2719.44 1562.26 2718.45 1563.8 2717.2 1565.44 2715.95 1567.08 2714.57 1568.75 2713.05 1570.45 2711.54 1572.14 2708.93 1574.96 2705.21 1578.9 2698.97 1585.51 2694.38 1591.28 2691.45 1596.21L2710.05 1596.21C2711.66 1596.21 2712.96 1596.11 2713.94 1595.92 2714.93 1595.72 2715.72 1595.39 2716.31 1594.93 2716.9 1594.47 2717.37 1593.87 2717.71 1593.13 2718.06 1592.39 2718.49 1591.25 2719.02 1589.7L2723.21 1589.7 2722.37 1604.1 2681.79 1604.1 2681.79 1601.74C2683.2 1598.28 2685.11 1594.75 2687.51 1591.13 2689.91 1587.52 2693.31 1583.26 2697.72 1578.36 2701.53 1574.15 2704.28 1570.96 2705.95 1568.79 2707.79 1566.43 2709.17 1564.38 2710.07 1562.65 2710.97 1560.93 2711.62 1559.3 2712.02 1557.77 2712.41 1556.24 2712.61 1554.71 2712.61 1553.16 2712.61 1550.69 2712.22 1548.52 2711.43 1546.63 2710.64 1544.74 2709.43 1543.25 2707.8 1542.16 2706.17 1541.08 2704.13 1540.54 2701.66 1540.54 2695.51 1540.54 2691.37 1543.95 2689.23 1550.79L2683.27 1550.79 2683.27 1541.32C2687.24 1539.45 2690.97 1538.09 2694.44 1537.26 2697.91 1536.42 2701.02 1536 2703.78 1536Z" fill-rule="evenodd"/><text fill="#000000" fill-opacity="0" font-family="Arial,Arial_MSFontService,sans-serif" font-size="68.106" x="2681.79" y="1595.59">2洧냥</text><path d="M2723.11 1699.68C2727.78 1699.68 2731.48 1702.86 2734.23 1709.22 2736.97 1715.58 2738.76 1725.13 2739.58 1737.85L2740.17 1737.85C2747.14 1721.02 2751.73 1708.6 2753.93 1700.62L2763.84 1700.62 2763.84 1703.03C2753.85 1719.83 2746.07 1734.54 2740.52 1747.17 2740.84 1750.62 2741.01 1754.58 2741.01 1759.06 2741.01 1761.26 2740.94 1763.18 2740.81 1764.83L2736.37 1767.64 2731.29 1767.64 2731.29 1764.53C2731.29 1759.07 2732.41 1753.75 2734.65 1748.55 2733.46 1736.58 2731.44 1726.33 2728.58 1717.78 2725.72 1709.23 2722.65 1704.96 2719.36 1704.96 2718.27 1704.96 2716.76 1705.66 2714.82 1707.08L2712.8 1704.22C2716.65 1701.19 2720.08 1699.68 2723.11 1699.68Z" fill-rule="evenodd"/><text fill="#000000" fill-opacity="0" font-family="Arial,Arial_MSFontService,sans-serif" font-size="67.958" x="2712.8" y="1759.14">풥</text><path d="M2675.3 1648.42 2803.3 1648.42 2803.3 1655.42 2675.3 1655.42Z" fill-rule="evenodd"/><path d="M2831.89 1608.96 2853.89 1608.96 2853.89 1612.75 2840.08 1612.75 2840.08 1699.21 2853.89 1699.21 2853.89 1703 2831.89 1703Z" fill-rule="evenodd"/><text fill="#000000" fill-opacity="0" font-family="Arial,Arial_MSFontService,sans-serif" font-size="94.0464" x="2831.89" y="1691.25">[</text><path d="M2862.14 1613.1 2908.25 1613.1 2908.25 1627.99 2903.41 1627.99C2902.92 1626.38 2902.41 1624.97 2901.89 1623.75 2901.36 1622.54 2900.82 1621.52 2900.26 1620.69 2899.7 1619.87 2899.08 1619.21 2898.41 1618.72 2897.73 1618.23 2896.94 1617.89 2896.02 1617.71 2895.1 1617.53 2893.99 1617.44 2892.71 1617.44L2877.13 1617.44 2877.13 1643.28 2887.68 1643.28C2889.13 1643.28 2890.26 1643.08 2891.08 1642.66 2891.91 1642.25 2892.59 1641.56 2893.13 1640.57 2893.67 1639.58 2894.19 1638.04 2894.69 1635.93L2899.32 1635.93 2899.32 1654.87 2894.69 1654.87C2894.22 1652.9 2893.72 1651.41 2893.16 1650.41 2892.6 1649.4 2891.93 1648.69 2891.16 1648.26 2890.39 1647.83 2889.23 1647.62 2887.68 1647.62L2877.13 1647.62 2877.13 1676.08 2892.47 1676.08C2894.08 1676.08 2895.38 1675.94 2896.39 1675.66 2897.39 1675.38 2898.25 1674.9 2898.98 1674.23 2899.7 1673.55 2900.34 1672.67 2900.9 1671.59 2901.46 1670.5 2901.93 1669.38 2902.3 1668.21 2902.68 1667.04 2903.2 1665.34 2903.86 1663.11L2908.74 1663.11 2907.8 1680.42 2862.14 1680.42 2862.14 1678C2864.17 1677.47 2865.54 1676.89 2866.23 1676.25 2866.92 1675.61 2867.37 1674.7 2867.59 1673.51 2867.8 1672.33 2867.91 1670.52 2867.91 1668.09L2867.91 1625.43C2867.91 1623.16 2867.82 1621.51 2867.66 1620.47 2867.5 1619.44 2867.22 1618.63 2866.85 1618.06 2866.47 1617.48 2865.97 1617.02 2865.34 1616.68 2864.72 1616.33 2863.65 1615.94 2862.14 1615.52Z" fill-rule="evenodd"/><text fill="#000000" fill-opacity="0" font-family="Arial,Arial_MSFontService,sans-serif" font-size="67.3169" x="2862.14" y="1672">E</text><path d="M2936.09 1654.46 2938.29 1654.46C2938.24 1655.78 2938.21 1656.97 2938.18 1658.02 2938.16 1659.06 2938.14 1660.08 2938.13 1661.07 2938.12 1662.06 2938.11 1663.03 2938.11 1664L2938.11 1691.46C2938.11 1692.2 2938.13 1692.85 2938.18 1693.39 2938.23 1693.93 2938.31 1694.39 2938.42 1694.76 2938.52 1695.14 2938.67 1695.46 2938.85 1695.72 2939.03 1695.99 2939.24 1696.21 2939.48 1696.41 2939.77 1696.7 2940.16 1696.92 2940.64 1697.08 2941.12 1697.23 2941.73 1697.36 2942.48 1697.47 2943.23 1697.58 2944.13 1697.67 2945.17 1697.73 2946.22 1697.79 2947.48 1697.83 2948.95 1697.85L2948.95 1701 2920.3 1701 2920.3 1697.85C2921.72 1697.8 2922.92 1697.75 2923.91 1697.69 2924.9 1697.63 2925.74 1697.55 2926.44 1697.44 2927.14 1697.33 2927.7 1697.21 2928.12 1697.08 2928.54 1696.94 2928.91 1696.78 2929.22 1696.59 2929.56 1696.37 2929.85 1696.14 2930.09 1695.88 2930.33 1695.63 2930.52 1695.31 2930.67 1694.93 2930.81 1694.54 2930.92 1694.07 2931.01 1693.52 2931.09 1692.96 2931.14 1692.28 2931.14 1691.46L2931.14 1665.55C2931.14 1664.61 2930.95 1663.95 2930.59 1663.56 2930.23 1663.18 2929.71 1662.98 2929.04 1662.98 2928.29 1662.98 2927.19 1663.37 2925.72 1664.14 2924.25 1664.91 2922.34 1666.06 2920.01 1667.57 2919.69 1667.02 2919.4 1666.46 2919.14 1665.91 2918.87 1665.36 2918.6 1664.79 2918.31 1664.21 2921.3 1662.57 2924.25 1660.94 2927.18 1659.32 2930.11 1657.69 2933.07 1656.07 2936.09 1654.46Z" fill-rule="evenodd"/><text fill="#000000" fill-opacity="0" font-family="Arial,Arial_MSFontService,sans-serif" font-size="46.5391" x="2918.31" y="1695.18">1</text><path d="M3096.31 1604.78C3105.91 1607.31 3113.28 1612.77 3118.43 1621.18 3123.57 1629.58 3126.15 1639.71 3126.15 1651.58 3126.15 1663.48 3123.58 1673.61 3118.45 1681.98 3113.32 1690.35 3105.94 1695.8 3096.31 1698.33L3095.13 1694.53C3102.72 1692 3108.37 1687 3112.07 1679.54 3115.77 1672.08 3117.61 1662.59 3117.61 1651.09 3117.61 1639.97 3115.77 1630.74 3112.09 1623.39 3108.41 1616.05 3102.7 1611.11 3094.98 1608.57ZM2997 1604.78 2998.33 1608.57C2990.64 1611.11 2984.94 1616.05 2981.24 1623.39 2977.54 1630.74 2975.69 1639.97 2975.69 1651.09 2975.69 1662.59 2977.54 1672.08 2981.24 1679.54 2984.94 1687 2990.59 1692 2998.18 1694.53L2997 1698.33C2987.37 1695.8 2979.98 1690.35 2974.86 1681.98 2969.73 1673.61 2967.16 1663.48 2967.16 1651.58 2967.16 1639.71 2969.74 1629.58 2974.88 1621.18 2980.03 1612.77 2987.4 1607.31 2997 1604.78Z" fill-rule="evenodd"/><path d="M3009.11 1632.23C3013.78 1632.23 3017.48 1635.42 3020.23 1641.78 3022.97 1648.14 3024.76 1657.68 3025.58 1670.41L3026.17 1670.41C3033.14 1653.57 3037.73 1641.16 3039.93 1633.17L3049.84 1633.17 3049.84 1635.59C3039.85 1652.39 3032.07 1667.1 3026.52 1679.73 3026.84 1683.18 3027.01 1687.14 3027.01 1691.61 3027.01 1693.81 3026.94 1695.74 3026.81 1697.38L3022.37 1700.19 3017.29 1700.19 3017.29 1697.09C3017.29 1691.63 3018.41 1686.3 3020.65 1681.11 3019.46 1669.14 3017.44 1658.88 3014.58 1650.33 3011.72 1641.79 3008.65 1637.51 3005.36 1637.51 3004.27 1637.51 3002.76 1638.22 3000.82 1639.63L2998.8 1636.77C3002.65 1633.75 3006.08 1632.23 3009.11 1632.23ZM3070.41 1621.09 3077.22 1621.09 3074.51 1633.27 3089.5 1633.27 3088.41 1638.25 3073.42 1638.25 3069.03 1657.39C3068.18 1661.1 3067.64 1663.77 3067.41 1665.4 3067.18 1667.03 3067.06 1668.33 3067.06 1669.32 3067.06 1673.4 3068.75 1675.44 3072.14 1675.44 3073.59 1675.44 3075.12 1674.89 3076.75 1673.78 3078.38 1672.68 3080.31 1670.8 3082.55 1668.14L3085.41 1671.1C3082.55 1674.55 3079.79 1677.1 3077.15 1678.74 3074.5 1680.38 3071.73 1681.21 3068.84 1681.21 3061.96 1681.21 3058.53 1677.74 3058.53 1670.8 3058.53 1668.6 3058.81 1666.28 3059.37 1663.85L3065.19 1638.25 3056.9 1638.25 3057.64 1634.85C3059.58 1634.82 3061.05 1634.67 3062.06 1634.4 3063.06 1634.14 3063.9 1633.78 3064.57 1633.32 3065.24 1632.86 3065.86 1632.2 3066.42 1631.35 3066.98 1630.49 3067.52 1629.4 3068.05 1628.07 3068.57 1626.74 3069.36 1624.41 3070.41 1621.09Z" fill-rule="evenodd"/><text fill="#000000" fill-opacity="0" font-family="Arial,Arial_MSFontService,sans-serif" font-size="79.1035" x="2998.8" y="1690.3">풥洧노</text><path d="M3191.59 1619.86 3198.59 1619.86 3198.59 1648.26 3225.47 1648.26 3225.47 1654.82 3198.59 1654.82 3198.59 1683.23 3191.59 1683.23 3191.59 1654.82 3164.71 1654.82 3164.71 1648.26 3191.59 1648.26Z" fill-rule="evenodd"/><text fill="#000000" fill-opacity="0" font-family="Arial,Arial_MSFontService,sans-serif" font-size="63.3716" x="3164.71" y="1675.31">+</text><path d="M3316.91 1632.48C3318.68 1632.48 3320.27 1632.69 3321.66 1633.1 3323.06 1633.51 3324.29 1634.14 3325.36 1635 3326.43 1635.85 3327.31 1636.91 3328 1638.18 3328.69 1639.44 3329.21 1640.96 3329.55 1642.74 3329.9 1644.51 3330.07 1646.77 3330.07 1649.5L3330.07 1668.09C3330.07 1670.36 3330.14 1672 3330.27 1673.02 3330.4 1674.04 3330.63 1674.83 3330.96 1675.39 3331.29 1675.95 3331.77 1676.41 3332.39 1676.79 3333.02 1677.17 3334.1 1677.57 3335.65 1678L3335.65 1680.42 3316.21 1680.42 3316.21 1678C3317.5 1677.61 3318.42 1677.26 3318.98 1676.96 3319.54 1676.67 3320 1676.26 3320.38 1675.73 3320.76 1675.21 3321.06 1674.39 3321.27 1673.29 3321.48 1672.19 3321.59 1670.52 3321.59 1668.28L3321.59 1655.36C3321.59 1653.06 3321.52 1650.97 3321.39 1649.1 3321.26 1647.23 3321.04 1645.69 3320.73 1644.49 3320.41 1643.29 3320.04 1642.35 3319.59 1641.68 3319.15 1641 3318.62 1640.43 3318.01 1639.95 3317.41 1639.48 3316.71 1639.1 3315.92 1638.82 3315.13 1638.54 3314.09 1638.4 3312.81 1638.4 3311.53 1638.4 3310.31 1638.65 3309.16 1639.16 3308.01 1639.67 3306.75 1640.55 3305.36 1641.8 3303.98 1643.05 3302.98 1644.28 3302.36 1645.5 3301.73 1646.72 3301.42 1648.11 3301.42 1649.69L3301.42 1668.09C3301.42 1670.92 3301.55 1672.88 3301.81 1673.98 3302.08 1675.08 3302.58 1675.92 3303.32 1676.5 3304.06 1677.07 3305.27 1677.57 3306.94 1678L3306.94 1680.42 3287.61 1680.42 3287.61 1678C3288.89 1677.61 3289.81 1677.26 3290.35 1676.96 3290.89 1676.67 3291.35 1676.26 3291.73 1675.73 3292.11 1675.21 3292.4 1674.4 3292.62 1673.32 3292.83 1672.23 3292.94 1670.54 3292.94 1668.24L3292.94 1646.73C3292.94 1644.63 3292.9 1642.94 3292.84 1641.65 3292.77 1640.37 3292.54 1639.34 3292.15 1638.57 3291.75 1637.8 3291.15 1637.22 3290.35 1636.85 3289.54 1636.47 3288.4 1636.15 3286.92 1635.88L3286.92 1633.27 3298.46 1632.83 3301.47 1632.83 3300.93 1640.86 3301.62 1641.06C3304.05 1638.6 3306.01 1636.84 3307.51 1635.79 3309.01 1634.73 3310.52 1633.92 3312.05 1633.34 3313.58 1632.77 3315.2 1632.48 3316.91 1632.48ZM3269.82 1609.84 3272.78 1609.84 3272.78 1668.09C3272.78 1670.92 3272.91 1672.88 3273.17 1673.98 3273.44 1675.08 3273.94 1675.92 3274.68 1676.5 3275.42 1677.07 3276.63 1677.57 3278.3 1678L3278.3 1680.42 3258.72 1680.42 3258.72 1678C3260.37 1677.57 3261.51 1677.13 3262.15 1676.67 3262.79 1676.21 3263.25 1675.66 3263.53 1675.02 3263.81 1674.38 3264.01 1673.5 3264.12 1672.4 3264.24 1671.3 3264.3 1669.86 3264.3 1668.09L3264.3 1626.81C3264.3 1623.65 3264.27 1621.45 3264.22 1620.2 3264.17 1618.95 3264.04 1617.89 3263.83 1617.02 3263.61 1616.15 3263.32 1615.47 3262.94 1614.97 3262.56 1614.48 3262.05 1614.09 3261.41 1613.79 3260.77 1613.49 3259.61 1613.2 3257.93 1612.9L3257.93 1610.34Z" fill-rule="evenodd"/><text fill="#000000" fill-opacity="0" font-family="Arial,Arial_MSFontService,sans-serif" font-size="70.5718" x="3257.93" y="1671.6">ln</text><path d="M3476.5 1604.78C3486.1 1607.31 3493.47 1612.77 3498.62 1621.18 3503.76 1629.58 3506.33 1639.71 3506.33 1651.58 3506.33 1663.48 3503.77 1673.61 3498.64 1681.98 3493.51 1690.35 3486.13 1695.8 3476.5 1698.33L3475.31 1694.53C3482.91 1692 3488.56 1687 3492.25 1679.54 3495.95 1672.08 3497.8 1662.59 3497.8 1651.09 3497.8 1639.97 3495.96 1630.74 3492.28 1623.39 3488.6 1616.05 3482.89 1611.11 3475.17 1608.57ZM3377.19 1604.78 3378.52 1608.57C3370.82 1611.11 3365.13 1616.05 3361.43 1623.39 3357.73 1630.74 3355.88 1639.97 3355.88 1651.09 3355.88 1662.59 3357.73 1672.08 3361.43 1679.54 3365.13 1687 3370.78 1692 3378.37 1694.53L3377.19 1698.33C3367.55 1695.8 3360.17 1690.35 3355.04 1681.98 3349.91 1673.61 3347.35 1663.48 3347.35 1651.58 3347.35 1639.71 3349.92 1629.58 3355.07 1621.18 3360.21 1612.77 3367.59 1607.31 3377.19 1604.78Z" fill-rule="evenodd"/><path d="M3389.29 1632.23C3393.96 1632.23 3397.67 1635.42 3400.42 1641.78 3403.16 1648.14 3404.94 1657.68 3405.77 1670.41L3406.36 1670.41C3413.33 1653.57 3417.91 1641.16 3420.12 1633.17L3430.03 1633.17 3430.03 1635.59C3420.03 1652.39 3412.26 1667.1 3406.7 1679.73 3407.03 1683.18 3407.2 1687.14 3407.2 1691.61 3407.2 1693.81 3407.13 1695.74 3407 1697.38L3402.56 1700.19 3397.48 1700.19 3397.48 1697.09C3397.48 1691.63 3398.6 1686.3 3400.83 1681.11 3399.65 1669.14 3397.63 1658.88 3394.77 1650.33 3391.91 1641.79 3388.83 1637.51 3385.55 1637.51 3384.46 1637.51 3382.95 1638.22 3381.01 1639.63L3378.99 1636.77C3382.83 1633.75 3386.27 1632.23 3389.29 1632.23ZM3450.6 1621.09 3457.41 1621.09 3454.69 1633.27 3469.69 1633.27 3468.6 1638.25 3453.61 1638.25 3449.22 1657.39C3448.37 1661.1 3447.82 1663.77 3447.59 1665.4 3447.36 1667.03 3447.25 1668.33 3447.25 1669.32 3447.25 1673.4 3448.94 1675.44 3452.33 1675.44 3453.77 1675.44 3455.31 1674.89 3456.94 1673.78 3458.57 1672.68 3460.5 1670.8 3462.73 1668.14L3465.59 1671.1C3462.73 1674.55 3459.98 1677.1 3457.33 1678.74 3454.69 1680.38 3451.92 1681.21 3449.02 1681.21 3442.15 1681.21 3438.72 1677.74 3438.72 1670.8 3438.72 1668.6 3439 1666.28 3439.55 1663.85L3445.37 1638.25 3437.09 1638.25 3437.83 1634.85C3439.77 1634.82 3441.24 1634.67 3442.24 1634.4 3443.25 1634.14 3444.08 1633.78 3444.76 1633.32 3445.43 1632.86 3446.05 1632.2 3446.61 1631.35 3447.17 1630.49 3447.71 1629.4 3448.23 1628.07 3448.76 1626.74 3449.55 1624.41 3450.6 1621.09Z" fill-rule="evenodd"/><text fill="#000000" fill-opacity="0" font-family="Arial,Arial_MSFontService,sans-serif" font-size="79.1035" x="3378.99" y="1690.3">풥洧노</text><path d="M3571.78 1619.86 3578.78 1619.86 3578.78 1648.26 3605.66 1648.26 3605.66 1654.82 3578.78 1654.82 3578.78 1683.23 3571.78 1683.23 3571.78 1654.82 3544.9 1654.82 3544.9 1648.26 3571.78 1648.26Z" fill-rule="evenodd"/><text fill="#000000" fill-opacity="0" font-family="Arial,Arial_MSFontService,sans-serif" font-size="63.3716" x="3544.9" y="1675.31">+</text><path d="M3643.99 1632.23C3648.66 1632.23 3652.37 1635.42 3655.11 1641.78 3657.86 1648.14 3659.64 1657.68 3660.46 1670.41L3661.05 1670.41C3668.02 1653.57 3672.61 1641.16 3674.81 1633.17L3684.73 1633.17 3684.73 1635.59C3674.73 1652.39 3666.96 1667.1 3661.4 1679.73 3661.73 1683.18 3661.89 1687.14 3661.89 1691.61 3661.89 1693.81 3661.83 1695.74 3661.7 1697.38L3657.26 1700.19 3652.18 1700.19 3652.18 1697.09C3652.18 1691.63 3653.29 1686.3 3655.53 1681.11 3654.35 1669.14 3652.32 1658.88 3649.46 1650.33 3646.6 1641.79 3643.53 1637.51 3640.24 1637.51 3639.16 1637.51 3637.65 1638.22 3635.71 1639.63L3633.68 1636.77C3637.53 1633.75 3640.97 1632.23 3643.99 1632.23Z" fill-rule="evenodd"/><text fill="#000000" fill-opacity="0" font-family="Arial,Arial_MSFontService,sans-serif" font-size="67.958" x="3633.68" y="1691.7">풥</text><path d="M3711.73 1667.68C3710.41 1667.68 3709.1 1668.01 3707.81 1668.66 3706.52 1669.31 3705.31 1670.23 3704.16 1671.42 3703.02 1672.61 3701.98 1674.06 3701.04 1675.76 3700.1 1677.46 3699.31 1679.35 3698.69 1681.45 3701.75 1681.42 3704.38 1681.18 3706.58 1680.73 3708.79 1680.27 3710.59 1679.64 3712 1678.85 3713.41 1678.05 3714.45 1677.11 3715.11 1676.03 3715.77 1674.94 3716.1 1673.75 3716.1 1672.45 3716.1 1670.96 3715.73 1669.79 3714.98 1668.95 3714.24 1668.1 3713.15 1667.68 3711.73 1667.68ZM3713.28 1664.1C3716.37 1664.1 3718.71 1664.78 3720.31 1666.13 3721.91 1667.48 3722.72 1669.39 3722.72 1671.87 3722.72 1680.59 3714.47 1684.95 3697.96 1684.95 3697.84 1685.58 3697.75 1686.26 3697.68 1686.99 3697.6 1687.73 3697.57 1688.53 3697.57 1689.4 3697.57 1692.02 3698.1 1693.94 3699.17 1695.14 3700.25 1696.35 3701.91 1696.95 3704.18 1696.95 3705.36 1696.95 3706.48 1696.82 3707.54 1696.57 3708.6 1696.32 3709.64 1695.93 3710.67 1695.4 3711.69 1694.87 3712.72 1694.18 3713.75 1693.35 3714.79 1692.52 3715.87 1691.53 3717.01 1690.37L3719.72 1693.3C3716.92 1696.07 3714.13 1698.15 3711.35 1699.55 3708.57 1700.95 3705.58 1701.65 3702.37 1701.65 3700.49 1701.65 3698.83 1701.36 3697.37 1700.8 3695.91 1700.23 3694.68 1699.41 3693.68 1698.32 3692.68 1697.24 3691.92 1695.92 3691.41 1694.37 3690.89 1692.81 3690.63 1691.06 3690.63 1689.11 3690.63 1687.74 3690.75 1686.31 3690.99 1684.83 3691.23 1683.34 3691.6 1681.86 3692.11 1680.38 3692.62 1678.9 3693.24 1677.46 3693.99 1676.05 3694.74 1674.64 3695.62 1673.32 3696.63 1672.09 3698.65 1669.58 3701.09 1667.63 3703.94 1666.22 3706.8 1664.81 3709.91 1664.1 3713.28 1664.1Z" fill-rule="evenodd"/><text fill="#000000" fill-opacity="0" font-family="Arial,Arial_MSFontService,sans-serif" font-size="37.542" x="3690.63" y="1696.95">洧</text><path d="M3734.65 1608.96 3756.64 1608.96 3756.64 1703 3734.65 1703 3734.65 1699.21 3748.45 1699.21 3748.45 1612.75 3734.65 1612.75Z" fill-rule="evenodd"/><text fill="#000000" fill-opacity="0" font-family="Arial,Arial_MSFontService,sans-serif" font-size="94.0464" x="3734.65" y="1691.25">]</text></g></svg>