<svg width="2558" height="389" xmlns="http://www.w3.org/2000/svg" xmlns:xlink="http://www.w3.org/1999/xlink" xml:space="preserve" overflow="hidden"><g transform="translate(-921 -771)"><path d="M949.202 933.156 998.124 933.156 998.124 948.838 991.368 948.838C990.283 945.715 989.362 943.602 988.606 942.501 987.85 941.4 986.946 940.528 985.894 939.887 984.842 939.246 983.05 938.926 980.518 938.926L969.767 938.926 969.767 962.597 976.277 962.597C977.724 962.597 978.858 962.392 979.68 961.981 980.502 961.57 981.184 960.888 981.727 959.934 982.269 958.981 982.787 957.501 983.28 955.496L988.853 955.496 988.853 975.518 983.28 975.518C982.82 973.611 982.31 972.157 981.751 971.154 981.192 970.151 980.527 969.436 979.754 969.009 978.981 968.581 977.822 968.367 976.277 968.367L969.767 968.367 969.767 994.702 980.469 994.702C981.62 994.702 982.59 994.628 983.379 994.481 984.168 994.333 984.875 994.078 985.499 993.716 986.124 993.354 986.724 992.861 987.299 992.237 987.875 991.612 988.384 990.938 988.828 990.215 989.272 989.491 989.741 988.538 990.234 987.354 990.727 986.171 991.269 984.543 991.861 982.472L998.617 982.472 997.68 1000.47 949.202 1000.47 949.202 997.218C950.978 996.757 952.186 996.231 952.827 995.639 953.468 995.048 953.904 994.267 954.134 993.297 954.364 992.327 954.479 990.593 954.479 988.094L954.479 945.583C954.479 943.085 954.372 941.35 954.159 940.38 953.945 939.411 953.509 938.63 952.852 938.038 952.194 937.446 950.978 936.904 949.202 936.41Z" fill-rule="evenodd"/><text fill="#000000" fill-opacity="0" font-family="Arial,Arial_MSFontService,sans-serif" font-size="67.3169" x="949.202" y="992.058">𝐄</text><path d="M1014.56 929.013 1036.55 929.013 1036.55 932.81 1022.74 932.81 1022.74 1019.26 1036.55 1019.26 1036.55 1023.06 1014.56 1023.06Z" fill-rule="evenodd"/><text fill="#000000" fill-opacity="0" font-family="Arial,Arial_MSFontService,sans-serif" font-size="94.0464" x="1014.56" y="1011.3">[</text><path d="M1320.06 924.833C1329.66 927.365 1337.04 932.831 1342.18 941.231 1347.33 949.631 1349.9 959.766 1349.9 971.634 1349.9 983.536 1347.33 993.671 1342.21 1002.04 1337.08 1010.41 1329.7 1015.85 1320.06 1018.39L1318.88 1014.59C1326.47 1012.06 1332.12 1007.06 1335.82 999.597 1339.52 992.134 1341.37 982.648 1341.37 971.141 1341.37 960.029 1339.53 950.798 1335.84 943.45 1332.16 936.102 1326.46 931.162 1318.73 928.631ZM1077.55 924.833 1078.88 928.631C1071.18 931.162 1065.49 936.102 1061.79 943.45 1058.09 950.798 1056.24 960.029 1056.24 971.141 1056.24 982.648 1058.09 992.134 1061.79 999.597 1065.49 1007.06 1071.13 1012.06 1078.73 1014.59L1077.55 1018.39C1067.91 1015.85 1060.53 1010.41 1055.4 1002.04 1050.27 993.671 1047.71 983.536 1047.71 971.634 1047.71 959.766 1050.28 949.631 1055.43 941.231 1060.57 932.831 1067.95 927.365 1077.55 924.833Z" fill-rule="evenodd"/><path d="M1096.51 951.551 1110.56 951.551 1104.4 978.231C1103.87 980.499 1103.42 982.604 1103.04 984.543 1102.67 986.483 1102.48 988.094 1102.48 989.376 1102.48 990.823 1102.76 991.924 1103.31 992.68 1103.87 993.437 1104.81 993.815 1106.13 993.815 1107.87 993.815 1109.67 992.993 1111.53 991.349 1113.38 989.705 1114.99 987.806 1116.36 985.653 1117.72 983.499 1118.7 981.042 1119.29 978.28L1125.21 951.551 1139.46 951.551 1131.47 985.086C1130.98 987.157 1130.73 989.031 1130.73 990.708 1130.73 991.793 1130.92 992.631 1131.28 993.223 1131.64 993.815 1132.26 994.111 1133.15 994.111 1134.07 994.111 1135.09 993.7 1136.21 992.878 1137.33 992.056 1138.64 990.806 1140.15 989.13L1143.7 992.68C1140.65 995.738 1137.85 997.933 1135.32 999.264 1132.79 1000.6 1130.21 1001.26 1127.58 1001.26 1124.72 1001.26 1122.47 1000.51 1120.82 998.993 1119.18 997.481 1118.36 995.459 1118.36 992.927 1118.36 991.875 1118.45 991.086 1118.65 990.56L1117.96 990.461C1115.13 993.913 1112.5 996.478 1110.05 998.155 1107.6 999.831 1105.19 1000.67 1102.82 1000.67 1100.32 1000.67 1098.22 999.946 1096.51 998.5L1096.11 998.648C1095.75 1002.4 1095.57 1006.18 1095.57 1009.99 1095.57 1011.96 1095.62 1013.72 1095.72 1015.27L1094.73 1020.25 1083.93 1020.25 1081.42 1016.89C1081.94 1015.25 1082.65 1012.72 1083.54 1009.3 1084.43 1005.88 1085.15 1002.87 1085.71 1000.28Z" fill-rule="evenodd"/><text fill="#000000" fill-opacity="0" font-family="Arial,Arial_MSFontService,sans-serif" font-size="68.6978" x="1081.42" y="1011.66">𝝁</text><path d="M1174.61 968.318 1235.36 968.318 1235.36 974.877 1174.61 974.877Z" fill-rule="evenodd"/><text fill="#000000" fill-opacity="0" font-family="Arial,Arial_MSFontService,sans-serif" font-size="6.55908" x="1174.61" y="974.057">−</text><path d="M1276.36 951.551 1313.94 951.551 1315.67 954.805 1293.37 982.867C1289.73 987.469 1286.36 991.448 1283.27 994.801L1283.61 995.245 1292.93 995.245C1294.51 995.245 1295.87 994.965 1297 994.407 1298.13 993.848 1299.24 992.828 1300.33 991.349 1301.41 989.869 1302.55 987.782 1303.73 985.086L1308.96 985.086 1305.65 1000.47 1267.68 1000.47 1265.95 997.218 1287.8 969.699C1291.42 965.129 1294.94 960.97 1298.36 957.222L1298.01 956.778 1288.74 956.778C1287.49 956.778 1286.36 957.025 1285.34 957.518 1284.32 958.011 1283.31 958.858 1282.3 960.058 1281.3 961.258 1280.04 963.255 1278.53 966.05L1273.25 966.05Z" fill-rule="evenodd"/><text fill="#000000" fill-opacity="0" font-family="Arial,Arial_MSFontService,sans-serif" font-size="48.9219" x="1265.95" y="994.357">𝒛</text><path d="M1380.67 913.654C1384.21 913.654 1387.1 914.13 1389.34 915.082 1391.58 916.033 1393.2 917.322 1394.2 918.948 1395.2 920.574 1395.7 922.471 1395.7 924.639 1395.7 926.542 1395.35 928.312 1394.64 929.95 1393.93 931.588 1392.7 933.455 1390.95 935.551 1389.21 937.647 1386.26 940.646 1382.12 944.548 1380.84 945.752 1379.32 947.336 1377.55 949.299 1375.78 951.263 1374.37 952.943 1373.34 954.34L1373.34 954.701 1386.16 954.701C1387.73 954.701 1388.9 954.587 1389.67 954.358 1390.44 954.129 1391.05 953.732 1391.49 953.166 1391.94 952.599 1392.31 951.75 1392.6 950.618L1396.75 950.618 1395.92 963.554 1362.82 963.554 1362.82 961.169C1364.68 956.905 1368.47 951.413 1374.2 944.692 1376.81 941.633 1378.79 939.116 1380.15 937.141 1381.51 935.165 1382.53 933.299 1383.2 931.54 1383.88 929.782 1384.21 927.963 1384.21 926.084 1384.21 923.434 1383.62 921.357 1382.44 919.851 1381.26 918.346 1379.65 917.593 1377.6 917.593 1373.67 917.593 1371.16 920.423 1370.05 926.084L1363.55 926.084 1363.55 917.557C1367.47 915.967 1370.64 914.919 1373.05 914.413 1375.46 913.907 1378 913.654 1380.67 913.654Z" fill-rule="evenodd"/><text fill="#000000" fill-opacity="0" font-family="Arial,Arial_MSFontService,sans-serif" font-size="49.8994" x="1362.82" y="957.316">𝟐</text><path d="M1442.36 978.576 1503.12 978.576 1503.12 985.135 1442.36 985.135ZM1442.36 958.11 1503.12 958.11 1503.12 964.669 1442.36 964.669Z" fill-rule="evenodd"/><text fill="#000000" fill-opacity="0" font-family="Arial,Arial_MSFontService,sans-serif" font-size="27.0254" x="1442.36" y="981.757">=</text><path d="M1544.04 933.156 1590.15 933.156 1590.15 948.049 1585.32 948.049C1584.82 946.438 1584.31 945.024 1583.79 943.808 1583.26 942.591 1582.72 941.572 1582.16 940.75 1581.6 939.928 1580.99 939.271 1580.31 938.778 1579.64 938.284 1578.84 937.948 1577.92 937.767 1577 937.586 1575.9 937.495 1574.62 937.495L1559.03 937.495 1559.03 963.337 1569.59 963.337C1571.03 963.337 1572.17 963.132 1572.99 962.721 1573.81 962.31 1574.49 961.611 1575.03 960.625 1575.58 959.638 1576.09 958.093 1576.59 955.989L1581.22 955.989 1581.22 974.927 1576.59 974.927C1576.13 972.954 1575.62 971.466 1575.06 970.463 1574.5 969.461 1573.83 968.746 1573.06 968.318 1572.29 967.891 1571.13 967.677 1569.59 967.677L1559.03 967.677 1559.03 996.133 1574.37 996.133C1575.98 996.133 1577.29 995.993 1578.29 995.713 1579.29 995.434 1580.16 994.957 1580.88 994.283 1581.6 993.609 1582.24 992.73 1582.8 991.645 1583.36 990.56 1583.83 989.434 1584.21 988.267 1584.59 987.099 1585.1 985.398 1585.76 983.162L1590.64 983.162 1589.71 1000.47 1544.04 1000.47 1544.04 998.056C1546.08 997.53 1547.44 996.946 1548.13 996.305 1548.82 995.664 1549.28 994.752 1549.49 993.568 1549.7 992.385 1549.81 990.576 1549.81 988.143L1549.81 945.485C1549.81 943.216 1549.73 941.564 1549.56 940.528 1549.4 939.493 1549.13 938.687 1548.75 938.112 1548.37 937.536 1547.87 937.076 1547.24 936.731 1546.62 936.386 1545.55 936 1544.04 935.572Z" fill-rule="evenodd"/><text fill="#000000" fill-opacity="0" font-family="Arial,Arial_MSFontService,sans-serif" font-size="67.3169" x="1544.04" y="992.058">E</text><path d="M1738.22 924.613 1760.21 924.613 1760.21 1018.66 1738.22 1018.66 1738.22 1014.86 1752.02 1014.86 1752.02 928.41 1738.22 928.41ZM1607.18 924.613 1629.18 924.613 1629.18 928.41 1615.37 928.41 1615.37 1014.86 1629.18 1014.86 1629.18 1018.66 1607.18 1018.66Z" fill-rule="evenodd"/><path d="M1646.57 953.326 1654.85 953.326 1648.78 980.203C1648.29 982.373 1647.91 984.256 1647.63 985.85 1647.35 987.445 1647.21 988.9 1647.21 990.215 1647.21 991.924 1647.66 993.223 1648.56 994.111 1649.47 994.998 1650.76 995.442 1652.43 995.442 1654.37 995.442 1656.49 994.407 1658.77 992.335 1661.06 990.264 1663.1 987.667 1664.91 984.543 1666.72 981.42 1667.89 978.658 1668.41 976.258L1673.3 953.326 1681.83 953.326 1674.82 984.543C1674.07 987.93 1673.69 990.363 1673.69 991.842 1673.69 993.157 1673.9 994.111 1674.33 994.702 1674.76 995.294 1675.43 995.59 1676.35 995.59 1677.11 995.59 1678.02 995.294 1679.09 994.702 1680.16 994.111 1681.35 993.075 1682.67 991.596L1685.43 994.357C1683.59 996.166 1681.95 997.563 1680.52 998.549 1679.09 999.535 1677.78 1000.23 1676.6 1000.65 1675.42 1001.06 1674.13 1001.26 1672.75 1001.26 1670.62 1001.26 1668.96 1000.63 1667.77 999.363 1666.59 998.097 1666 996.33 1666 994.061 1666 992.22 1666.42 990.248 1667.28 988.143L1666.74 987.847C1663.68 992.385 1660.85 995.681 1658.25 997.735 1655.66 999.79 1652.98 1000.82 1650.22 1000.82 1648.83 1000.82 1647.58 1000.6 1646.44 1000.15 1645.31 999.708 1644.13 998.861 1642.92 997.612 1642.52 999.585 1642.17 1002.24 1641.86 1005.58 1641.54 1008.91 1641.39 1011.91 1641.39 1014.58 1641.39 1015.56 1641.42 1016.35 1641.49 1016.94L1640.8 1020.25 1634.38 1020.25 1631.97 1017.29C1633.45 1011.83 1634.83 1006.23 1636.11 1000.47Z" fill-rule="evenodd"/><text fill="#000000" fill-opacity="0" font-family="Arial,Arial_MSFontService,sans-serif" font-size="66.9224" x="1631.97" y="1011.88">𝜇</text><path d="M1711.08 916.762C1713.58 916.762 1715.72 917.045 1717.49 917.611 1719.26 918.177 1720.7 918.942 1721.81 919.905 1722.92 920.869 1723.72 922.025 1724.21 923.374 1724.7 924.723 1724.95 926.18 1724.95 927.746 1724.95 928.686 1724.89 929.559 1724.75 930.366 1724.62 931.173 1724.39 931.968 1724.07 932.751 1723.74 933.533 1723.31 934.322 1722.78 935.117 1722.25 935.912 1721.59 936.755 1720.8 937.647 1720.19 938.417 1719.41 939.309 1718.45 940.32 1717.48 941.332 1716.43 942.416 1715.29 943.572 1714.14 944.729 1712.94 945.933 1711.69 947.186 1710.44 948.438 1709.22 949.679 1708.04 950.907 1706.86 952.136 1705.78 953.328 1704.79 954.484 1703.8 955.641 1702.99 956.701 1702.37 957.664L1715.74 957.664C1716.87 957.664 1717.77 957.622 1718.45 957.538 1719.12 957.453 1719.68 957.267 1720.13 956.978 1720.57 956.689 1720.95 956.249 1721.27 955.659 1721.58 955.069 1721.94 954.256 1722.35 953.22L1725.71 953.22C1725.59 954.93 1725.48 956.652 1725.37 958.387 1725.26 960.121 1725.14 961.844 1725.02 963.554L1694.42 963.554 1694.42 961.675C1695 960.374 1695.67 959.091 1696.44 957.827 1697.21 956.562 1698.08 955.279 1699.04 953.979 1700.01 952.678 1701.1 951.335 1702.33 949.95 1703.56 948.565 1704.92 947.125 1706.42 945.632 1708.68 943.368 1710.52 941.434 1711.94 939.833 1713.37 938.231 1714.49 936.803 1715.3 935.551 1716.12 934.298 1716.68 933.142 1716.98 932.082 1717.29 931.022 1717.44 929.89 1717.44 928.686 1717.44 927.457 1717.26 926.325 1716.91 925.289 1716.56 924.253 1716.06 923.374 1715.41 922.651 1714.76 921.929 1713.94 921.363 1712.94 920.953 1711.94 920.544 1710.79 920.339 1709.49 920.339 1707.25 920.339 1705.37 920.947 1703.85 922.164 1702.33 923.38 1701.15 925.145 1700.31 927.457L1695.58 927.457 1695.58 920.411C1698.66 919.135 1701.5 918.207 1704.08 917.629 1706.67 917.051 1709.01 916.762 1711.08 916.762Z" fill-rule="evenodd"/><text fill="#000000" fill-opacity="0" font-family="Arial,Arial_MSFontService,sans-serif" font-size="46.792" x="1694.42" y="957.705">2</text><path d="M1828.02 939.912 1835.03 939.912 1835.03 968.318 1861.91 968.318 1861.91 974.877 1835.03 974.877 1835.03 1003.28 1828.02 1003.28 1828.02 974.877 1801.15 974.877 1801.15 968.318 1828.02 968.318Z" fill-rule="evenodd"/><text fill="#000000" fill-opacity="0" font-family="Arial,Arial_MSFontService,sans-serif" font-size="63.3716" x="1801.15" y="995.362">+</text><path d="M1897.23 933.156 1943.34 933.156 1943.34 948.049 1938.51 948.049C1938.02 946.438 1937.51 945.024 1936.98 943.808 1936.45 942.591 1935.91 941.572 1935.35 940.75 1934.79 939.928 1934.18 939.271 1933.5 938.778 1932.83 938.284 1932.03 937.948 1931.11 937.767 1930.19 937.586 1929.09 937.495 1927.81 937.495L1912.22 937.495 1912.22 963.337 1922.78 963.337C1924.22 963.337 1925.36 963.132 1926.18 962.721 1927 962.31 1927.68 961.611 1928.23 960.625 1928.77 959.638 1929.29 958.093 1929.78 955.989L1934.42 955.989 1934.42 974.927 1929.78 974.927C1929.32 972.954 1928.81 971.466 1928.25 970.463 1927.69 969.461 1927.03 968.746 1926.25 968.318 1925.48 967.891 1924.32 967.677 1922.78 967.677L1912.22 967.677 1912.22 996.133 1927.56 996.133C1929.17 996.133 1930.48 995.993 1931.48 995.713 1932.48 995.434 1933.35 994.957 1934.07 994.283 1934.79 993.609 1935.43 992.73 1935.99 991.645 1936.55 990.56 1937.02 989.434 1937.4 988.267 1937.78 987.099 1938.3 985.398 1938.95 983.162L1943.83 983.162 1942.9 1000.47 1897.23 1000.47 1897.23 998.056C1899.27 997.53 1900.63 996.946 1901.32 996.305 1902.01 995.664 1902.47 994.752 1902.68 993.568 1902.89 992.385 1903 990.576 1903 988.143L1903 945.485C1903 943.216 1902.92 941.564 1902.75 940.528 1902.59 939.493 1902.32 938.687 1901.94 938.112 1901.56 937.536 1901.06 937.076 1900.44 936.731 1899.81 936.386 1898.74 936 1897.23 935.572Z" fill-rule="evenodd"/><text fill="#000000" fill-opacity="0" font-family="Arial,Arial_MSFontService,sans-serif" font-size="67.3169" x="1897.23" y="992.058">E</text><path d="M2223.16 924.613 2245.15 924.613 2245.15 1018.66 2223.16 1018.66 2223.16 1014.86 2236.96 1014.86 2236.96 928.41 2223.16 928.41ZM1960.37 924.613 1982.37 924.613 1982.37 928.41 1968.56 928.41 1968.56 1014.86 1982.37 1014.86 1982.37 1018.66 1960.37 1018.66Z" fill-rule="evenodd"/><path d="M1991.77 968.318 2052.53 968.318 2052.53 974.877 1991.77 974.877Z" fill-rule="evenodd"/><text fill="#000000" fill-opacity="0" font-family="Arial,Arial_MSFontService,sans-serif" font-size="6.55908" x="1991.77" y="974.057">−</text><path d="M2182.06 953.326 2217.13 953.326 2218.06 955.792 2194.54 982.817C2189.97 988.045 2186.01 992.483 2182.65 996.133L2182.95 996.478 2194.09 996.478C2196.07 996.478 2197.58 996.371 2198.63 996.157 2199.68 995.944 2200.6 995.541 2201.39 994.949 2202.18 994.357 2203 993.461 2203.83 992.261 2204.67 991.061 2205.72 989.179 2206.97 986.615L2211.36 986.615 2208.35 1000.47 2172.64 1000.47 2171.7 998.056 2198.68 966.987C2202.49 962.614 2205.29 959.507 2207.06 957.666L2206.77 957.321 2195.23 957.321C2193.52 957.321 2192.27 957.436 2191.48 957.666 2190.69 957.896 2189.9 958.299 2189.11 958.874 2188.32 959.449 2187.48 960.304 2186.57 961.439 2185.67 962.573 2184.66 964.192 2183.54 966.296L2179.15 966.296ZM2130.81 953.326 2139.09 953.326 2133.03 980.203C2132.54 982.373 2132.15 984.256 2131.87 985.85 2131.59 987.445 2131.45 988.9 2131.45 990.215 2131.45 991.924 2131.9 993.223 2132.81 994.111 2133.71 994.998 2135 995.442 2136.68 995.442 2138.62 995.442 2140.73 994.407 2143.02 992.335 2145.3 990.264 2147.35 987.667 2149.16 984.543 2150.96 981.42 2152.13 978.658 2152.66 976.258L2157.54 953.326 2166.07 953.326 2159.07 984.543C2158.31 987.93 2157.93 990.363 2157.93 991.842 2157.93 993.157 2158.15 994.111 2158.57 994.702 2159 995.294 2159.68 995.59 2160.6 995.59 2161.35 995.59 2162.26 995.294 2163.33 994.702 2164.4 994.111 2165.59 993.075 2166.91 991.596L2169.67 994.357C2167.83 996.166 2166.19 997.563 2164.76 998.549 2163.33 999.535 2162.03 1000.23 2160.84 1000.65 2159.66 1001.06 2158.38 1001.26 2157 1001.26 2154.86 1001.26 2153.2 1000.63 2152.02 999.363 2150.83 998.097 2150.24 996.33 2150.24 994.061 2150.24 992.22 2150.67 990.248 2151.52 988.143L2150.98 987.847C2147.92 992.385 2145.09 995.681 2142.5 997.735 2139.9 999.79 2137.22 1000.82 2134.46 1000.82 2133.08 1000.82 2131.82 1000.6 2130.69 1000.15 2129.55 999.708 2128.38 998.861 2127.16 997.612 2126.77 999.585 2126.41 1002.24 2126.1 1005.58 2125.79 1008.91 2125.63 1011.91 2125.63 1014.58 2125.63 1015.56 2125.66 1016.35 2125.73 1016.94L2125.04 1020.25 2118.63 1020.25 2116.21 1017.29C2117.69 1011.83 2119.07 1006.23 2120.35 1000.47ZM2087.83 932.367C2093.94 932.367 2098.56 933.706 2101.69 936.386 2104.81 939.065 2106.37 942.953 2106.37 948.049 2106.37 949.792 2106.2 951.394 2105.85 952.857 2105.51 954.321 2104.97 955.767 2104.23 957.197 2103.49 958.628 2102.49 960.165 2101.24 961.808 2099.99 963.452 2098.61 965.121 2097.1 966.814 2095.59 968.507 2092.97 971.326 2089.26 975.272 2083.01 981.88 2078.43 987.65 2075.5 992.582L2094.09 992.582C2095.7 992.582 2097 992.483 2097.99 992.286 2098.97 992.089 2099.76 991.76 2100.36 991.3 2100.95 990.839 2101.42 990.239 2101.76 989.5 2102.11 988.76 2102.54 987.617 2103.07 986.072L2107.26 986.072 2106.42 1000.47 2065.83 1000.47 2065.83 998.105C2067.25 994.653 2069.15 991.119 2071.55 987.502 2073.95 983.886 2077.36 979.628 2081.76 974.729 2085.58 970.521 2088.32 967.332 2090 965.162 2091.84 962.795 2093.21 960.748 2094.12 959.022 2095.02 957.296 2095.67 955.669 2096.06 954.14 2096.46 952.611 2096.66 951.074 2096.66 949.529 2096.66 947.063 2096.26 944.885 2095.47 942.994 2094.68 941.104 2093.48 939.616 2091.85 938.531 2090.22 937.446 2088.17 936.904 2085.71 936.904 2079.56 936.904 2075.42 940.323 2073.28 947.161L2067.31 947.161 2067.31 937.693C2071.29 935.819 2075.01 934.462 2078.48 933.624 2081.95 932.786 2085.07 932.367 2087.83 932.367Z" fill-rule="evenodd"/><text fill="#000000" fill-opacity="0" font-family="Arial,Arial_MSFontService,sans-serif" font-size="87.8818" x="2065.83" y="1009.26">2𝜇𝑧</text><path d="M2312.96 939.912 2319.97 939.912 2319.97 968.318 2346.84 968.318 2346.84 974.877 2319.97 974.877 2319.97 1003.28 2312.96 1003.28 2312.96 974.877 2286.09 974.877 2286.09 968.318 2312.96 968.318Z" fill-rule="evenodd"/><text fill="#000000" fill-opacity="0" font-family="Arial,Arial_MSFontService,sans-serif" font-size="63.3716" x="2286.09" y="995.362">+</text><path d="M2382.17 933.156 2428.28 933.156 2428.28 948.049 2423.45 948.049C2422.96 946.438 2422.45 945.024 2421.92 943.808 2421.39 942.591 2420.85 941.572 2420.29 940.75 2419.73 939.928 2419.12 939.271 2418.44 938.778 2417.77 938.284 2416.97 937.948 2416.05 937.767 2415.13 937.586 2414.03 937.495 2412.75 937.495L2397.16 937.495 2397.16 963.337 2407.72 963.337C2409.16 963.337 2410.3 963.132 2411.12 962.721 2411.94 962.31 2412.62 961.611 2413.17 960.625 2413.71 959.638 2414.23 958.093 2414.72 955.989L2419.36 955.989 2419.36 974.927 2414.72 974.927C2414.26 972.954 2413.75 971.466 2413.19 970.463 2412.63 969.461 2411.97 968.746 2411.19 968.318 2410.42 967.891 2409.26 967.677 2407.72 967.677L2397.16 967.677 2397.16 996.133 2412.5 996.133C2414.11 996.133 2415.42 995.993 2416.42 995.713 2417.42 995.434 2418.29 994.957 2419.01 994.283 2419.73 993.609 2420.37 992.73 2420.93 991.645 2421.49 990.56 2421.96 989.434 2422.34 988.267 2422.72 987.099 2423.23 985.398 2423.89 983.162L2428.77 983.162 2427.84 1000.47 2382.17 1000.47 2382.17 998.056C2384.21 997.53 2385.57 996.946 2386.26 996.305 2386.95 995.664 2387.41 994.752 2387.62 993.568 2387.83 992.385 2387.94 990.576 2387.94 988.143L2387.94 945.485C2387.94 943.216 2387.86 941.564 2387.69 940.528 2387.53 939.493 2387.26 938.687 2386.88 938.112 2386.5 937.536 2386 937.076 2385.38 936.731 2384.75 936.386 2383.68 936 2382.17 935.572Z" fill-rule="evenodd"/><text fill="#000000" fill-opacity="0" font-family="Arial,Arial_MSFontService,sans-serif" font-size="67.3169" x="2382.17" y="992.058">E</text><path d="M2571.69 924.613 2593.69 924.613 2593.69 1018.66 2571.69 1018.66 2571.69 1014.86 2585.5 1014.86 2585.5 928.41 2571.69 928.41ZM2445.31 924.613 2467.31 924.613 2467.31 928.41 2453.5 928.41 2453.5 1014.86 2467.31 1014.86 2467.31 1018.66 2445.31 1018.66Z" fill-rule="evenodd"/><path d="M2480.95 953.326 2516.01 953.326 2516.95 955.792 2493.43 982.817C2488.86 988.045 2484.89 992.483 2481.54 996.133L2481.84 996.478 2492.98 996.478C2494.95 996.478 2496.47 996.371 2497.52 996.157 2498.57 995.944 2499.49 995.541 2500.28 994.949 2501.07 994.357 2501.88 993.461 2502.72 992.261 2503.56 991.061 2504.6 989.179 2505.85 986.615L2510.24 986.615 2507.23 1000.47 2471.53 1000.47 2470.59 998.056 2497.57 966.987C2501.38 962.614 2504.18 959.507 2505.95 957.666L2505.66 957.321 2494.12 957.321C2492.41 957.321 2491.16 957.436 2490.37 957.666 2489.58 957.896 2488.79 958.299 2488 958.874 2487.21 959.449 2486.37 960.304 2485.46 961.439 2484.56 962.573 2483.55 964.192 2482.43 966.296L2478.04 966.296Z" fill-rule="evenodd"/><text fill="#000000" fill-opacity="0" font-family="Arial,Arial_MSFontService,sans-serif" font-size="47.1465" x="2470.59" y="994.579">𝑧</text><path d="M2544.56 916.762C2547.06 916.762 2549.2 917.045 2550.97 917.611 2552.74 918.177 2554.18 918.942 2555.29 919.905 2556.4 920.869 2557.2 922.025 2557.69 923.374 2558.18 924.723 2558.43 926.18 2558.43 927.746 2558.43 928.686 2558.36 929.559 2558.23 930.366 2558.1 931.173 2557.87 931.968 2557.55 932.751 2557.22 933.533 2556.79 934.322 2556.26 935.117 2555.73 935.912 2555.07 936.755 2554.28 937.647 2553.67 938.417 2552.89 939.309 2551.93 940.32 2550.96 941.332 2549.91 942.416 2548.77 943.572 2547.62 944.729 2546.42 945.933 2545.17 947.186 2543.92 948.438 2542.7 949.679 2541.52 950.907 2540.34 952.136 2539.26 953.328 2538.27 954.484 2537.28 955.641 2536.47 956.701 2535.85 957.664L2549.22 957.664C2550.35 957.664 2551.25 957.622 2551.93 957.538 2552.6 957.453 2553.16 957.267 2553.61 956.978 2554.05 956.689 2554.43 956.249 2554.75 955.659 2555.06 955.069 2555.42 954.256 2555.83 953.22L2559.19 953.22C2559.07 954.93 2558.95 956.652 2558.85 958.387 2558.74 960.121 2558.62 961.844 2558.5 963.554L2527.9 963.554 2527.9 961.675C2528.48 960.374 2529.15 959.091 2529.92 957.827 2530.69 956.562 2531.56 955.279 2532.52 953.979 2533.49 952.678 2534.58 951.335 2535.81 949.95 2537.04 948.565 2538.4 947.125 2539.89 945.632 2542.16 943.368 2544 941.434 2545.42 939.833 2546.84 938.231 2547.96 936.803 2548.78 935.551 2549.6 934.298 2550.16 933.142 2550.46 932.082 2550.76 931.022 2550.92 929.89 2550.92 928.686 2550.92 927.457 2550.74 926.325 2550.39 925.289 2550.04 924.253 2549.54 923.374 2548.89 922.651 2548.24 921.929 2547.42 921.363 2546.42 920.953 2545.42 920.544 2544.27 920.339 2542.97 920.339 2540.73 920.339 2538.85 920.947 2537.33 922.164 2535.81 923.38 2534.63 925.145 2533.79 927.457L2529.05 927.457 2529.05 920.411C2532.14 919.135 2534.97 918.207 2537.56 917.629 2540.15 917.051 2542.48 916.762 2544.56 916.762Z" fill-rule="evenodd"/><text fill="#000000" fill-opacity="0" font-family="Arial,Arial_MSFontService,sans-serif" font-size="46.792" x="2527.9" y="957.705">2</text><path d="M2640.22 978.576 2700.98 978.576 2700.98 985.135 2640.22 985.135ZM2640.22 958.11 2700.98 958.11 2700.98 964.669 2640.22 964.669Z" fill-rule="evenodd"/><text fill="#000000" fill-opacity="0" font-family="Arial,Arial_MSFontService,sans-serif" font-size="27.0254" x="2640.22" y="981.757">=</text><path d="M2741.89 933.156 2788 933.156 2788 948.049 2783.17 948.049C2782.68 946.438 2782.17 945.024 2781.64 943.808 2781.12 942.591 2780.57 941.572 2780.02 940.75 2779.46 939.928 2778.84 939.271 2778.17 938.778 2777.49 938.284 2776.69 937.948 2775.77 937.767 2774.85 937.586 2773.75 937.495 2772.47 937.495L2756.89 937.495 2756.89 963.337 2767.44 963.337C2768.89 963.337 2770.02 963.132 2770.84 962.721 2771.66 962.31 2772.35 961.611 2772.89 960.625 2773.43 959.638 2773.95 958.093 2774.44 955.989L2779.08 955.989 2779.08 974.927 2774.44 974.927C2773.98 972.954 2773.47 971.466 2772.91 970.463 2772.35 969.461 2771.69 968.746 2770.92 968.318 2770.14 967.891 2768.98 967.677 2767.44 967.677L2756.89 967.677 2756.89 996.133 2772.22 996.133C2773.83 996.133 2775.14 995.993 2776.14 995.713 2777.15 995.434 2778.01 994.957 2778.73 994.283 2779.46 993.609 2780.1 992.73 2780.66 991.645 2781.22 990.56 2781.68 989.434 2782.06 988.267 2782.44 987.099 2782.96 985.398 2783.62 983.162L2788.5 983.162 2787.56 1000.47 2741.89 1000.47 2741.89 998.056C2743.93 997.53 2745.3 996.946 2745.99 996.305 2746.68 995.664 2747.13 994.752 2747.34 993.568 2747.56 992.385 2747.66 990.576 2747.66 988.143L2747.66 945.485C2747.66 943.216 2747.58 941.564 2747.42 940.528 2747.25 939.493 2746.98 938.687 2746.6 938.112 2746.23 937.536 2745.72 937.076 2745.1 936.731 2744.47 936.386 2743.41 936 2741.89 935.572Z" fill-rule="evenodd"/><text fill="#000000" fill-opacity="0" font-family="Arial,Arial_MSFontService,sans-serif" font-size="67.3169" x="2741.89" y="992.058">E</text><path d="M2931.42 924.613 2953.41 924.613 2953.41 1018.66 2931.42 1018.66 2931.42 1014.86 2945.23 1014.86 2945.23 928.41 2931.42 928.41ZM2805.03 924.613 2827.03 924.613 2827.03 928.41 2813.22 928.41 2813.22 1014.86 2827.03 1014.86 2827.03 1018.66 2805.03 1018.66Z" fill-rule="evenodd"/><path d="M2840.67 953.326 2875.74 953.326 2876.67 955.792 2853.15 982.817C2848.58 988.045 2844.62 992.483 2841.26 996.133L2841.56 996.478 2852.71 996.478C2854.68 996.478 2856.19 996.371 2857.24 996.157 2858.29 995.944 2859.21 995.541 2860 994.949 2860.79 994.357 2861.61 993.461 2862.45 992.261 2863.28 991.061 2864.33 989.179 2865.58 986.615L2869.97 986.615 2866.96 1000.47 2831.25 1000.47 2830.32 998.056 2857.29 966.987C2861.11 962.614 2863.9 959.507 2865.68 957.666L2865.38 957.321 2853.84 957.321C2852.13 957.321 2850.88 957.436 2850.09 957.666 2849.3 957.896 2848.51 958.299 2847.72 958.874 2846.94 959.449 2846.09 960.304 2845.18 961.439 2844.28 962.573 2843.27 964.192 2842.15 966.296L2837.76 966.296Z" fill-rule="evenodd"/><text fill="#000000" fill-opacity="0" font-family="Arial,Arial_MSFontService,sans-serif" font-size="47.1465" x="2830.32" y="994.579">𝑧</text><path d="M2904.28 916.762C2906.78 916.762 2908.92 917.045 2910.69 917.611 2912.46 918.177 2913.9 918.942 2915.01 919.905 2916.12 920.869 2916.92 922.025 2917.41 923.374 2917.91 924.723 2918.15 926.18 2918.15 927.746 2918.15 928.686 2918.09 929.559 2917.96 930.366 2917.82 931.173 2917.59 931.968 2917.27 932.751 2916.94 933.533 2916.52 934.322 2915.99 935.117 2915.46 935.912 2914.79 936.755 2914 937.647 2913.4 938.417 2912.61 939.309 2911.65 940.32 2910.69 941.332 2909.63 942.416 2908.49 943.572 2907.34 944.729 2906.15 945.933 2904.89 947.186 2903.64 948.438 2902.42 949.679 2901.24 950.907 2900.06 952.136 2898.98 953.328 2897.99 954.484 2897 955.641 2896.2 956.701 2895.57 957.664L2908.94 957.664C2910.07 957.664 2910.98 957.622 2911.65 957.538 2912.32 957.453 2912.88 957.267 2913.33 956.978 2913.78 956.689 2914.16 956.249 2914.47 955.659 2914.78 955.069 2915.14 954.256 2915.55 953.22L2918.91 953.22C2918.79 954.93 2918.68 956.652 2918.57 958.387 2918.46 960.121 2918.35 961.844 2918.23 963.554L2887.62 963.554 2887.62 961.675C2888.2 960.374 2888.87 959.091 2889.65 957.827 2890.42 956.562 2891.28 955.279 2892.25 953.979 2893.21 952.678 2894.31 951.335 2895.53 949.95 2896.76 948.565 2898.12 947.125 2899.62 945.632 2901.88 943.368 2903.72 941.434 2905.15 939.833 2906.57 938.231 2907.69 936.803 2908.51 935.551 2909.33 934.298 2909.89 933.142 2910.19 932.082 2910.49 931.022 2910.64 929.89 2910.64 928.686 2910.64 927.457 2910.46 926.325 2910.11 925.289 2909.76 924.253 2909.27 923.374 2908.61 922.651 2907.96 921.929 2907.14 921.363 2906.14 920.953 2905.14 920.544 2903.99 920.339 2902.69 920.339 2900.45 920.339 2898.57 920.947 2897.05 922.164 2895.53 923.38 2894.35 925.145 2893.51 927.457L2888.78 927.457 2888.78 920.411C2891.86 919.135 2894.7 918.207 2897.29 917.629 2899.88 917.051 2902.21 916.762 2904.28 916.762Z" fill-rule="evenodd"/><text fill="#000000" fill-opacity="0" font-family="Arial,Arial_MSFontService,sans-serif" font-size="46.792" x="2887.62" y="957.705">2</text><path d="M2994.35 968.318 3055.11 968.318 3055.11 974.877 2994.35 974.877Z" fill-rule="evenodd"/><text fill="#000000" fill-opacity="0" font-family="Arial,Arial_MSFontService,sans-serif" font-size="6.55908" x="2994.35" y="974.057">−</text><path d="M3099.8 953.326 3108.09 953.326 3102.02 980.203C3101.53 982.373 3101.14 984.256 3100.86 985.85 3100.58 987.445 3100.44 988.9 3100.44 990.215 3100.44 991.924 3100.9 993.223 3101.8 994.111 3102.7 994.998 3104 995.442 3105.67 995.442 3107.61 995.442 3109.72 994.407 3112.01 992.335 3114.29 990.264 3116.34 987.667 3118.15 984.543 3119.96 981.42 3121.12 978.658 3121.65 976.258L3126.53 953.326 3135.06 953.326 3128.06 984.543C3127.31 987.93 3126.93 990.363 3126.93 991.842 3126.93 993.157 3127.14 994.111 3127.57 994.702 3128 995.294 3128.67 995.59 3129.59 995.59 3130.35 995.59 3131.26 995.294 3132.33 994.702 3133.4 994.111 3134.59 993.075 3135.9 991.596L3138.66 994.357C3136.82 996.166 3135.19 997.563 3133.76 998.549 3132.33 999.535 3131.02 1000.23 3129.84 1000.65 3128.65 1001.06 3127.37 1001.26 3125.99 1001.26 3123.85 1001.26 3122.19 1000.63 3121.01 999.363 3119.83 998.097 3119.23 996.33 3119.23 994.061 3119.23 992.22 3119.66 990.248 3120.52 988.143L3119.97 987.847C3116.92 992.385 3114.09 995.681 3111.49 997.735 3108.89 999.79 3106.21 1000.82 3103.45 1000.82 3102.07 1000.82 3100.81 1000.6 3099.68 1000.15 3098.55 999.708 3097.37 998.861 3096.15 997.612 3095.76 999.585 3095.41 1002.24 3095.09 1005.58 3094.78 1008.91 3094.62 1011.91 3094.62 1014.58 3094.62 1015.56 3094.66 1016.35 3094.72 1016.94L3094.03 1020.25 3087.62 1020.25 3085.21 1017.29C3086.69 1011.83 3088.07 1006.23 3089.35 1000.47Z" fill-rule="evenodd"/><text fill="#000000" fill-opacity="0" font-family="Arial,Arial_MSFontService,sans-serif" font-size="66.9224" x="3085.21" y="1011.88">𝜇</text><path d="M3164.31 916.762C3166.82 916.762 3168.96 917.045 3170.73 917.611 3172.5 918.177 3173.94 918.942 3175.05 919.905 3176.15 920.869 3176.95 922.025 3177.45 923.374 3177.94 924.723 3178.19 926.18 3178.19 927.746 3178.19 928.686 3178.12 929.559 3177.99 930.366 3177.86 931.173 3177.63 931.968 3177.3 932.751 3176.98 933.533 3176.55 934.322 3176.02 935.117 3175.49 935.912 3174.83 936.755 3174.03 937.647 3173.43 938.417 3172.65 939.309 3171.69 940.32 3170.72 941.332 3169.67 942.416 3168.52 943.572 3167.38 944.729 3166.18 945.933 3164.93 947.186 3163.68 948.438 3162.46 949.679 3161.28 950.907 3160.1 952.136 3159.01 953.328 3158.03 954.484 3157.04 955.641 3156.23 956.701 3155.61 957.664L3168.98 957.664C3170.11 957.664 3171.01 957.622 3171.69 957.538 3172.36 957.453 3172.92 957.267 3173.37 956.978 3173.81 956.689 3174.19 956.249 3174.5 955.659 3174.82 955.069 3175.18 954.256 3175.59 953.22L3178.95 953.22C3178.83 954.93 3178.71 956.652 3178.6 958.387 3178.5 960.121 3178.38 961.844 3178.26 963.554L3147.66 963.554 3147.66 961.675C3148.24 960.374 3148.91 959.091 3149.68 957.827 3150.45 956.562 3151.32 955.279 3152.28 953.979 3153.25 952.678 3154.34 951.335 3155.57 949.95 3156.8 948.565 3158.16 947.125 3159.65 945.632 3161.92 943.368 3163.76 941.434 3165.18 939.833 3166.6 938.231 3167.72 936.803 3168.54 935.551 3169.36 934.298 3169.92 933.142 3170.22 932.082 3170.52 931.022 3170.67 929.89 3170.67 928.686 3170.67 927.457 3170.5 926.325 3170.15 925.289 3169.8 924.253 3169.3 923.374 3168.65 922.651 3168 921.929 3167.17 921.363 3166.18 920.953 3165.18 920.544 3164.03 920.339 3162.72 920.339 3160.48 920.339 3158.61 920.947 3157.09 922.164 3155.57 923.38 3154.39 925.145 3153.55 927.457L3148.81 927.457 3148.81 920.411C3151.9 919.135 3154.73 918.207 3157.32 917.629 3159.91 917.051 3162.24 916.762 3164.31 916.762Z" fill-rule="evenodd"/><text fill="#000000" fill-opacity="0" font-family="Arial,Arial_MSFontService,sans-serif" font-size="46.792" x="3147.66" y="957.705">2</text><path d="M3224.68 988.784 3285.44 988.784 3285.44 995.344 3224.68 995.344ZM3224.68 968.318 3285.44 968.318 3285.44 974.877 3224.68 974.877ZM3224.68 947.852 3285.44 947.852 3285.44 954.411 3224.68 954.411Z" fill-rule="evenodd"/><text fill="#000000" fill-opacity="0" font-family="Arial,Arial_MSFontService,sans-serif" font-size="47.4917" x="3224.68" y="989.407">≡</text><path d="M3325.72 933.156 3350.23 933.156 3363.89 973.644 3378.68 933.156 3401.81 933.156 3401.81 936.41C3400.07 936.904 3398.89 937.438 3398.26 938.013 3397.64 938.589 3397.2 939.361 3396.96 940.331 3396.71 941.301 3396.59 943.019 3396.59 945.485L3396.59 988.143C3396.59 990.149 3396.69 991.735 3396.88 992.902 3397.08 994.07 3397.48 994.957 3398.09 995.565 3398.7 996.174 3399.94 996.724 3401.81 997.218L3401.81 1000.47 3376.51 1000.47 3376.51 997.218C3377.96 996.823 3378.96 996.478 3379.52 996.182 3380.08 995.886 3380.52 995.5 3380.83 995.023 3381.14 994.546 3381.37 993.823 3381.52 992.853 3381.67 991.883 3381.74 990.28 3381.74 988.045L3381.74 963.88C3381.74 961.217 3381.79 958.077 3381.89 954.46 3381.99 950.844 3382.09 948.279 3382.19 946.767L3381.15 946.767C3380.56 948.74 3379.31 952.29 3377.4 957.419L3364.19 993.026 3355.51 993.026 3341.6 953.03C3340.78 950.762 3340.05 948.509 3339.43 946.274L3338.54 946.274C3338.87 951.699 3339.03 958.11 3339.03 965.507L3339.03 988.193C3339.03 990.626 3339.15 992.319 3339.38 993.272 3339.61 994.226 3340.07 995.015 3340.76 995.639 3341.45 996.264 3342.65 996.79 3344.36 997.218L3344.36 1000.47 3325.72 1000.47 3325.72 997.218C3327.49 996.757 3328.7 996.231 3329.34 995.639 3329.98 995.048 3330.42 994.275 3330.65 993.322 3330.88 992.368 3331 990.642 3331 988.143L3331 945.485C3331 942.986 3330.89 941.276 3330.68 940.356 3330.46 939.435 3330.04 938.679 3329.42 938.087 3328.79 937.495 3327.56 936.937 3325.72 936.41Z" fill-rule="evenodd"/><text fill="#000000" fill-opacity="0" font-family="Arial,Arial_MSFontService,sans-serif" font-size="67.3169" x="3325.72" y="992.058">𝚳</text><path d="M3429.44 971.152C3432.99 971.152 3435.88 971.628 3438.12 972.58 3440.36 973.531 3441.98 974.82 3442.98 976.446 3443.98 978.072 3444.48 979.969 3444.48 982.137 3444.48 984.04 3444.12 985.81 3443.41 987.448 3442.7 989.086 3441.47 990.953 3439.72 993.049 3437.98 995.144 3435.03 998.143 3430.89 1002.05 3429.61 1003.25 3428.09 1004.83 3426.32 1006.8 3424.55 1008.76 3423.15 1010.44 3422.11 1011.84L3422.11 1012.2 3434.94 1012.2C3436.5 1012.2 3437.67 1012.08 3438.44 1011.86 3439.21 1011.63 3439.82 1011.23 3440.27 1010.66 3440.71 1010.1 3441.08 1009.25 3441.37 1008.12L3445.52 1008.12 3444.69 1021.05 3411.6 1021.05 3411.6 1018.67C3413.45 1014.4 3417.24 1008.91 3422.98 1002.19 3425.58 999.131 3427.56 996.614 3428.92 994.639 3430.28 992.663 3431.3 990.797 3431.97 989.038 3432.65 987.28 3432.99 985.461 3432.99 983.582 3432.99 980.932 3432.4 978.855 3431.22 977.349 3430.03 975.844 3428.42 975.091 3426.37 975.091 3422.45 975.091 3419.93 977.921 3418.82 983.582L3412.32 983.582 3412.32 975.055C3416.24 973.465 3419.41 972.417 3421.82 971.911 3424.23 971.405 3426.77 971.152 3429.44 971.152Z" fill-rule="evenodd"/><text fill="#000000" fill-opacity="0" font-family="Arial,Arial_MSFontService,sans-serif" font-size="49.8994" x="3411.6" y="1014.81">𝟐</text></g></svg>