<svg width="976" height="390" xmlns="http://www.w3.org/2000/svg" xmlns:xlink="http://www.w3.org/1999/xlink" xml:space="preserve" overflow="hidden"><g transform="translate(-1712 -1308)"><path d="M1747.33 1489.7 1755.62 1489.7 1749.55 1516.58C1749.06 1518.75 1748.67 1520.63 1748.39 1522.22 1748.12 1523.82 1747.98 1525.27 1747.98 1526.59 1747.98 1528.3 1748.43 1529.6 1749.33 1530.48 1750.24 1531.37 1751.53 1531.81 1753.2 1531.81 1755.14 1531.81 1757.26 1530.78 1759.54 1528.71 1761.83 1526.64 1763.87 1524.04 1765.68 1520.92 1767.49 1517.79 1768.66 1515.03 1769.18 1512.63L1774.06 1489.7 1782.6 1489.7 1775.59 1520.92C1774.84 1524.3 1774.46 1526.74 1774.46 1528.21 1774.46 1529.53 1774.67 1530.48 1775.1 1531.08 1775.53 1531.67 1776.2 1531.96 1777.12 1531.96 1777.88 1531.96 1778.79 1531.67 1779.86 1531.08 1780.93 1530.48 1782.12 1529.45 1783.43 1527.97L1786.2 1530.73C1784.35 1532.54 1782.72 1533.94 1781.29 1534.92 1779.86 1535.91 1778.55 1536.61 1777.37 1537.02 1776.18 1537.43 1774.9 1537.63 1773.52 1537.63 1771.38 1537.63 1769.72 1537 1768.54 1535.74 1767.36 1534.47 1766.77 1532.7 1766.77 1530.43 1766.77 1528.59 1767.19 1526.62 1768.05 1524.52L1767.5 1524.22C1764.45 1528.76 1761.62 1532.05 1759.02 1534.11 1756.43 1536.16 1753.75 1537.19 1750.98 1537.19 1749.6 1537.19 1748.35 1536.97 1747.21 1536.52 1746.08 1536.08 1744.9 1535.23 1743.68 1533.98 1743.29 1535.96 1742.94 1538.61 1742.62 1541.95 1742.31 1545.29 1742.16 1548.29 1742.16 1550.95 1742.16 1551.94 1742.19 1552.73 1742.25 1553.32L1741.56 1556.62 1735.15 1556.62 1732.74 1553.66C1734.22 1548.2 1735.6 1542.6 1736.88 1536.85Z" fill-rule="evenodd"/><text fill="#000000" fill-opacity="0" font-family="Arial,Arial_MSFontService,sans-serif" font-size="66.9224" x="1732.74" y="1548.26">𝜇</text><path d="M1798.81 1510.56 1811.27 1510.56C1812.41 1513.57 1813.57 1516.6 1814.76 1519.65 1815.95 1522.69 1817.13 1525.74 1818.28 1528.77 1819.44 1531.81 1820.55 1534.8 1821.63 1537.75 1822.7 1540.7 1823.68 1543.59 1824.57 1546.4L1825.04 1546.4C1825.3 1544.86 1825.64 1543.04 1826.05 1540.93 1826.46 1538.82 1826.94 1536.64 1827.5 1534.37 1827.91 1532.66 1828.32 1530.9 1828.74 1529.1 1829.16 1527.29 1829.56 1525.56 1829.92 1523.89 1830.28 1522.23 1830.57 1520.7 1830.8 1519.29 1831.03 1517.88 1831.15 1516.71 1831.15 1515.8 1831.15 1514.74 1830.88 1513.99 1830.33 1513.54 1829.79 1513.1 1828.79 1512.86 1827.32 1512.84L1827.82 1510.56 1841.23 1510.56 1840.76 1512.73C1839.94 1512.97 1839.29 1513.18 1838.81 1513.36 1838.32 1513.54 1837.92 1513.89 1837.58 1514.41 1837.24 1514.93 1836.92 1515.68 1836.62 1516.67 1836.32 1517.65 1835.96 1519.08 1835.55 1520.93L1827.39 1557.42 1821.93 1557.42C1820.66 1554.15 1819.35 1550.85 1818.01 1547.52 1816.67 1544.2 1815.36 1540.88 1814.07 1537.55 1812.78 1534.23 1811.55 1530.93 1810.37 1527.65 1809.19 1524.37 1808.12 1521.15 1807.15 1517.97L1806.68 1517.97C1806.56 1518.71 1806.42 1519.58 1806.25 1520.57 1806.08 1521.56 1805.9 1522.62 1805.69 1523.77 1805.49 1524.91 1805.27 1526.09 1805.04 1527.29 1804.81 1528.49 1804.58 1529.7 1804.34 1530.9 1804.12 1531.82 1803.86 1532.88 1803.56 1534.1 1803.26 1535.32 1802.95 1536.62 1802.64 1538 1802.32 1539.39 1802.01 1540.79 1801.68 1542.21 1801.35 1543.63 1801.06 1544.99 1800.79 1546.28 1800.53 1547.57 1800.32 1548.74 1800.16 1549.8 1800.01 1550.86 1799.93 1551.69 1799.93 1552.29 1799.93 1553.31 1800.22 1554.02 1800.79 1554.44 1801.37 1554.86 1802.36 1555.12 1803.76 1555.22L1803.36 1557.42 1789.88 1557.42 1790.35 1555.22C1791.07 1555.1 1791.68 1554.96 1792.16 1554.79 1792.64 1554.62 1793.06 1554.27 1793.42 1553.76 1793.78 1553.24 1794.13 1552.46 1794.45 1551.43 1794.78 1550.39 1795.15 1548.93 1795.56 1547.05L1801.48 1520.71C1801.7 1519.75 1801.86 1518.85 1801.97 1518.02 1802.08 1517.19 1802.13 1516.45 1802.13 1515.8 1802.13 1514.74 1801.85 1513.99 1801.3 1513.54 1800.75 1513.1 1799.73 1512.86 1798.27 1512.84Z" fill-rule="evenodd"/><text fill="#000000" fill-opacity="0" font-family="Arial,Arial_MSFontService,sans-serif" font-size="46.8643" x="1789.88" y="1551.57">𝑁</text><path d="M1884.41 1525.16 1945.17 1525.16 1945.17 1531.72 1884.41 1531.72ZM1884.41 1504.69 1945.17 1504.69 1945.17 1511.25 1884.41 1511.25ZM1884.41 1484.22 1945.17 1484.22 1945.17 1490.78 1884.41 1490.78Z" fill-rule="evenodd"/><text fill="#000000" fill-opacity="0" font-family="Arial,Arial_MSFontService,sans-serif" font-size="47.4917" x="1884.41" y="1525.78">≡</text><path d="M2141.96 1461.86 2161.64 1506.14 2161.64 1509.79 2141.96 1554.13 2136.68 1552.25 2152.52 1507.97 2136.68 1463.63ZM2005.96 1461.86 2011.19 1463.73 1995.35 1508.02 2011.19 1552.35 2005.96 1554.13 1986.28 1509.84 1986.28 1506.19Z" fill-rule="evenodd"/><path d="M2027.94 1489.7 2063 1489.7 2063.94 1492.16 2040.41 1519.19C2035.84 1524.42 2031.88 1528.86 2028.53 1532.51L2028.82 1532.85 2039.97 1532.85C2041.94 1532.85 2043.45 1532.74 2044.51 1532.53 2045.56 1532.32 2046.48 1531.91 2047.27 1531.32 2048.06 1530.73 2048.87 1529.83 2049.71 1528.63 2050.55 1527.43 2051.59 1525.55 2052.84 1522.99L2057.23 1522.99 2054.22 1536.85 2018.52 1536.85 2017.58 1534.43 2044.56 1503.36C2048.37 1498.99 2051.16 1495.88 2052.94 1494.04L2052.64 1493.69 2041.1 1493.69C2039.39 1493.69 2038.14 1493.81 2037.36 1494.04 2036.57 1494.27 2035.78 1494.67 2034.99 1495.25 2034.2 1495.82 2033.35 1496.68 2032.45 1497.81 2031.54 1498.95 2030.53 1500.56 2029.42 1502.67L2025.03 1502.67Z" fill-rule="evenodd"/><text fill="#000000" fill-opacity="0" font-family="Arial,Arial_MSFontService,sans-serif" font-size="47.1465" x="2017.58" y="1530.95">𝑧</text><path d="M2081.21 1453.06 2093.68 1453.06C2094.81 1456.07 2095.97 1459.1 2097.16 1462.15 2098.35 1465.2 2099.53 1468.24 2100.68 1471.27 2101.84 1474.31 2102.96 1477.3 2104.03 1480.25 2105.1 1483.2 2106.08 1486.09 2106.97 1488.91L2107.44 1488.91C2107.71 1487.36 2108.04 1485.54 2108.45 1483.43 2108.86 1481.32 2109.34 1479.14 2109.9 1476.87 2110.31 1475.16 2110.72 1473.4 2111.15 1471.6 2111.57 1469.79 2111.96 1468.06 2112.32 1466.4 2112.68 1464.73 2112.98 1463.2 2113.2 1461.79 2113.43 1460.38 2113.55 1459.22 2113.55 1458.3 2113.55 1457.24 2113.28 1456.49 2112.74 1456.04 2112.19 1455.6 2111.19 1455.36 2109.72 1455.34L2110.22 1453.06 2123.63 1453.06 2123.16 1455.23C2122.34 1455.47 2121.69 1455.68 2121.21 1455.86 2120.73 1456.04 2120.32 1456.39 2119.98 1456.91 2119.64 1457.43 2119.32 1458.18 2119.02 1459.17 2118.72 1460.16 2118.37 1461.58 2117.96 1463.43L2109.79 1499.93 2104.33 1499.93C2103.06 1496.65 2101.75 1493.35 2100.41 1490.03 2099.08 1486.7 2097.76 1483.38 2096.48 1480.05 2095.19 1476.73 2093.95 1473.43 2092.77 1470.15 2091.59 1466.88 2090.52 1463.65 2089.56 1460.47L2089.09 1460.47C2088.97 1461.22 2088.82 1462.08 2088.65 1463.07 2088.48 1464.06 2088.3 1465.12 2088.09 1466.27 2087.89 1467.41 2087.67 1468.59 2087.44 1469.79 2087.21 1471 2086.98 1472.2 2086.74 1473.4 2086.52 1474.32 2086.26 1475.39 2085.96 1476.6 2085.66 1477.82 2085.35 1479.12 2085.04 1480.51 2084.73 1481.89 2084.41 1483.29 2084.08 1484.71 2083.76 1486.14 2083.46 1487.49 2083.2 1488.78 2082.93 1490.07 2082.72 1491.24 2082.56 1492.3 2082.41 1493.36 2082.33 1494.19 2082.33 1494.8 2082.33 1495.81 2082.62 1496.52 2083.2 1496.95 2083.77 1497.37 2084.76 1497.63 2086.16 1497.72L2085.76 1499.93 2072.28 1499.93 2072.75 1497.72C2073.48 1497.6 2074.08 1497.46 2074.56 1497.29 2075.04 1497.12 2075.46 1496.78 2075.83 1496.26 2076.19 1495.74 2076.53 1494.96 2076.86 1493.93 2077.18 1492.89 2077.55 1491.44 2077.96 1489.56L2083.88 1463.22C2084.1 1462.25 2084.26 1461.35 2084.37 1460.52 2084.48 1459.69 2084.53 1458.95 2084.53 1458.3 2084.53 1457.24 2084.26 1456.49 2083.7 1456.04 2083.15 1455.6 2082.14 1455.36 2080.67 1455.34Z" fill-rule="evenodd"/><text fill="#000000" fill-opacity="0" font-family="Arial,Arial_MSFontService,sans-serif" font-size="46.8643" x="2072.28" y="1494.07">𝑁</text><path d="M2203.04 1514.95 2263.8 1514.95 2263.8 1521.51 2203.04 1521.51ZM2203.04 1494.48 2263.8 1494.48 2263.8 1501.04 2203.04 1501.04Z" fill-rule="evenodd"/><text fill="#000000" fill-opacity="0" font-family="Arial,Arial_MSFontService,sans-serif" font-size="27.0254" x="2203.04" y="1518.13">=</text><path d="M2346.08 1392.43 2348.79 1392.43C2348.59 1395.58 2348.49 1399.96 2348.49 1405.54L2348.49 1447.66C2348.49 1449.57 2348.6 1451.01 2348.81 1451.98 2349.03 1452.95 2349.41 1453.74 2349.95 1454.34 2350.49 1454.95 2351.27 1455.43 2352.29 1455.77 2353.31 1456.12 2354.59 1456.38 2356.14 1456.56 2357.68 1456.74 2359.72 1456.87 2362.25 1456.93L2362.25 1460.53 2325.81 1460.53 2325.81 1456.93C2329.46 1456.77 2332.06 1456.55 2333.62 1456.27 2335.19 1455.99 2336.38 1455.57 2337.2 1455.01 2338.02 1454.45 2338.62 1453.66 2339 1452.64 2339.38 1451.62 2339.57 1449.96 2339.57 1447.66L2339.57 1407.67C2339.57 1406.35 2339.34 1405.39 2338.88 1404.78 2338.42 1404.17 2337.74 1403.87 2336.85 1403.87 2335.8 1403.87 2334.31 1404.41 2332.37 1405.5 2330.43 1406.58 2328.03 1408.08 2325.17 1409.98L2323 1406.19Z" fill-rule="evenodd"/><text fill="#000000" fill-opacity="0" font-family="Arial,Arial_MSFontService,sans-serif" font-size="68.106" x="2323" y="1452.02">1</text><path d="M2314.28 1556.3C2316.35 1556.3 2317.99 1556.99 2319.19 1558.35 2320.39 1559.72 2320.99 1561.5 2320.99 1563.7 2320.99 1565.51 2320.61 1567.43 2319.86 1569.47L2320.45 1569.67C2323.47 1565.16 2326.48 1561.82 2329.47 1559.63 2332.47 1557.45 2335.49 1556.35 2338.55 1556.35 2341.7 1556.35 2344.1 1557.25 2345.75 1559.04 2347.39 1560.83 2348.21 1563.42 2348.21 1566.81L2348.21 1567.5C2348.21 1567.73 2348.2 1567.98 2348.16 1568.24 2350.99 1564.23 2353.81 1561.24 2356.62 1559.29 2359.43 1557.33 2362.35 1556.35 2365.38 1556.35 2368.4 1556.35 2370.73 1557.22 2372.38 1558.97 2374.02 1560.71 2374.84 1563.16 2374.84 1566.32 2374.84 1568.39 2374.37 1571.33 2373.41 1575.14L2370.21 1588.06C2369.32 1591.65 2368.88 1594.18 2368.88 1595.66 2368.88 1596.97 2369.09 1597.93 2369.52 1598.52 2369.95 1599.11 2370.62 1599.41 2371.54 1599.41 2372.53 1599.41 2373.58 1599 2374.7 1598.2 2375.81 1597.39 2377.39 1595.86 2379.43 1593.59L2382.24 1596.35C2379.41 1599.34 2376.95 1601.54 2374.84 1602.96 2372.74 1604.37 2370.34 1605.08 2367.64 1605.08 2365.51 1605.08 2363.8 1604.31 2362.52 1602.78 2361.23 1601.26 2360.59 1599.31 2360.59 1596.94 2360.59 1594.8 2361.13 1591.66 2362.22 1587.52L2364.39 1578.99C2365.18 1575.9 2365.7 1573.61 2365.94 1572.13 2366.19 1570.66 2366.31 1569.46 2366.31 1568.53 2366.31 1566.27 2365.93 1564.63 2365.18 1563.63 2364.42 1562.62 2363.19 1562.12 2361.48 1562.12 2360.1 1562.12 2358.62 1562.64 2357.04 1563.68 2355.46 1564.71 2353.8 1566.32 2352.06 1568.51 2350.32 1570.7 2348.9 1572.85 2347.79 1574.97 2346.69 1577.09 2345.81 1579.68 2345.16 1582.74L2340.67 1604.29 2332.14 1604.29 2337.81 1579.24C2338.5 1576.18 2338.97 1573.92 2339.21 1572.46 2339.46 1570.99 2339.58 1569.73 2339.58 1568.68 2339.58 1566.32 2339.16 1564.63 2338.33 1563.63 2337.49 1562.62 2336.18 1562.12 2334.4 1562.12 2333.16 1562.12 2331.73 1562.64 2330.14 1563.68 2328.54 1564.71 2326.84 1566.37 2325.03 1568.66 2323.23 1570.94 2321.81 1573.14 2320.79 1575.24 2319.77 1577.35 2318.92 1579.91 2318.23 1582.93L2313.54 1604.29 2305.01 1604.29 2312.21 1573.02C2312.94 1569.87 2313.3 1567.43 2313.3 1565.72 2313.3 1564.41 2313.08 1563.45 2312.66 1562.86 2312.23 1562.27 2311.55 1561.98 2310.63 1561.98 2309.61 1561.98 2308.54 1562.39 2307.4 1563.23 2306.27 1564.07 2304.72 1565.59 2302.74 1567.79L2299.93 1565.03C2302.83 1562.01 2305.32 1559.8 2307.4 1558.4 2309.49 1557 2311.78 1556.3 2314.28 1556.3Z" fill-rule="evenodd"/><text fill="#000000" fill-opacity="0" font-family="Arial,Arial_MSFontService,sans-serif" font-size="48.7739" x="2299.93" y="1598.98">𝑚</text><path d="M2298.99 1504.84 2385.99 1504.84 2385.99 1511.84 2298.99 1511.84Z" fill-rule="evenodd"/><path d="M2405.36 1411.58 2524.46 1411.58 2524.46 1440.78 2517.95 1440.78C2517.19 1433.77 2515.67 1428.23 2513.36 1424.16 2511.06 1420.08 2507.58 1418.04 2502.91 1418.04L2425.09 1418.04 2483.92 1497.93 2483.92 1503.9 2420.4 1590.11 2505.97 1590.11C2509.75 1590.11 2512.64 1588.78 2514.65 1586.11 2516.65 1583.45 2518.38 1577.5 2519.82 1568.26L2527.12 1568.26 2524.61 1604.41 2403.34 1604.41 2403.34 1599.53 2472.43 1505.87 2405.36 1416.27Z" fill-rule="evenodd"/><text fill="#000000" fill-opacity="0" font-family="Arial,Arial_MSFontService,sans-serif" font-size="192.827" x="2403.34" y="1580.31">෍</text><path d="M2564.12 1489.7 2599.18 1489.7 2600.12 1492.16 2576.59 1519.19C2572.02 1524.42 2568.06 1528.86 2564.71 1532.51L2565.01 1532.85 2576.15 1532.85C2578.12 1532.85 2579.64 1532.74 2580.69 1532.53 2581.74 1532.32 2582.66 1531.91 2583.45 1531.32 2584.24 1530.73 2585.05 1529.83 2585.89 1528.63 2586.73 1527.43 2587.77 1525.55 2589.02 1522.99L2593.41 1522.99 2590.4 1536.85 2554.7 1536.85 2553.76 1534.43 2580.74 1503.36C2584.55 1498.99 2587.35 1495.88 2589.12 1494.04L2588.83 1493.69 2577.29 1493.69C2575.58 1493.69 2574.33 1493.81 2573.54 1494.04 2572.75 1494.27 2571.96 1494.67 2571.17 1495.25 2570.38 1495.82 2569.53 1496.68 2568.63 1497.81 2567.73 1498.95 2566.72 1500.56 2565.6 1502.67L2561.21 1502.67Z" fill-rule="evenodd"/><text fill="#000000" fill-opacity="0" font-family="Arial,Arial_MSFontService,sans-serif" font-size="47.1465" x="2553.76" y="1530.95">𝑧</text><path d="M2616.12 1524.95 2617.89 1524.95 2612.54 1549.01C2612.2 1550.44 2611.97 1551.57 2611.84 1552.41 2611.7 1553.25 2611.64 1554.01 2611.64 1554.69 2611.64 1555.6 2611.82 1556.27 2612.2 1556.67 2612.57 1557.08 2613.13 1557.29 2613.88 1557.29 2614.31 1557.29 2614.74 1557.2 2615.18 1557.04 2615.61 1556.87 2616.08 1556.6 2616.57 1556.24 2617.06 1555.88 2617.61 1555.42 2618.2 1554.85 2618.79 1554.28 2619.44 1553.6 2620.16 1552.81L2622.62 1555.19C2621.37 1556.47 2620.23 1557.55 2619.21 1558.43 2618.18 1559.31 2617.21 1560.02 2616.3 1560.58 2615.38 1561.13 2614.49 1561.53 2613.61 1561.77 2612.73 1562.01 2611.79 1562.13 2610.81 1562.13 2609.89 1562.13 2609.07 1561.96 2608.33 1561.63 2607.6 1561.29 2606.96 1560.82 2606.43 1560.23 2605.9 1559.64 2605.49 1558.94 2605.21 1558.12 2604.92 1557.3 2604.77 1556.4 2604.77 1555.41 2604.77 1554.62 2604.87 1553.63 2605.06 1552.45 2605.25 1551.27 2605.5 1549.98 2605.8 1548.6 2606.1 1547.21 2606.43 1545.76 2606.8 1544.25 2607.16 1542.73 2607.51 1541.22 2607.86 1539.73 2608.21 1538.24 2608.52 1536.8 2608.8 1535.41 2609.08 1534.03 2609.28 1532.77 2609.4 1531.63 2609.45 1531.44 2609.47 1531.26 2609.47 1531.07 2609.47 1530.89 2609.47 1530.73 2609.47 1530.59 2609.42 1529.65 2609.09 1528.96 2608.48 1528.53 2607.86 1528.09 2606.77 1527.85 2605.21 1527.8L2605.64 1525.35ZM2614.02 1510.39 2621.25 1510.39 2619.48 1518.16 2612.32 1518.16Z" fill-rule="evenodd"/><text fill="#000000" fill-opacity="0" font-family="Arial,Arial_MSFontService,sans-serif" font-size="51.7422" x="2604.77" y="1555.66">𝑖</text><path d="M2617.39 1449.01 2629.86 1449.01C2630.99 1452.02 2632.15 1455.05 2633.34 1458.09 2634.54 1461.14 2635.71 1464.18 2636.87 1467.22 2638.02 1470.25 2639.14 1473.25 2640.21 1476.2 2641.28 1479.15 2642.26 1482.03 2643.15 1484.85L2643.62 1484.85C2643.89 1483.31 2644.23 1481.48 2644.63 1479.38 2645.04 1477.27 2645.53 1475.08 2646.08 1472.82 2646.49 1471.11 2646.91 1469.35 2647.33 1467.54 2647.75 1465.74 2648.14 1464 2648.5 1462.34 2648.86 1460.68 2649.16 1459.14 2649.39 1457.73 2649.61 1456.32 2649.73 1455.16 2649.73 1454.25 2649.73 1453.19 2649.46 1452.43 2648.92 1451.99 2648.37 1451.54 2647.37 1451.31 2645.9 1451.28L2646.41 1449.01 2659.81 1449.01 2659.34 1451.17C2658.52 1451.41 2657.87 1451.63 2657.39 1451.81 2656.91 1451.99 2656.5 1452.34 2656.16 1452.85 2655.82 1453.37 2655.5 1454.12 2655.2 1455.11 2654.9 1456.1 2654.55 1457.52 2654.14 1459.38L2645.97 1495.87 2640.52 1495.87C2639.24 1492.59 2637.93 1489.29 2636.6 1485.97 2635.26 1482.65 2633.95 1479.32 2632.66 1476 2631.37 1472.67 2630.13 1469.37 2628.95 1466.1 2627.77 1462.82 2626.7 1459.59 2625.74 1456.41L2625.27 1456.41C2625.15 1457.16 2625 1458.03 2624.83 1459.01 2624.67 1460 2624.48 1461.07 2624.27 1462.21 2624.07 1463.36 2623.85 1464.53 2623.62 1465.74 2623.39 1466.94 2623.16 1468.14 2622.92 1469.35 2622.7 1470.26 2622.44 1471.33 2622.14 1472.55 2621.84 1473.76 2621.53 1475.06 2621.22 1476.45 2620.91 1477.83 2620.59 1479.24 2620.26 1480.66 2619.94 1482.08 2619.64 1483.43 2619.38 1484.72 2619.11 1486.01 2618.9 1487.19 2618.75 1488.25 2618.59 1489.31 2618.51 1490.14 2618.51 1490.74 2618.51 1491.75 2618.8 1492.47 2619.38 1492.89 2619.96 1493.31 2620.94 1493.57 2622.34 1493.67L2621.94 1495.87 2608.47 1495.87 2608.94 1493.67C2609.66 1493.55 2610.26 1493.4 2610.74 1493.23 2611.22 1493.06 2611.65 1492.72 2612.01 1492.2 2612.37 1491.68 2612.71 1490.91 2613.04 1489.87 2613.36 1488.84 2613.73 1487.38 2614.14 1485.5L2620.06 1459.16C2620.28 1458.2 2620.44 1457.3 2620.55 1456.47 2620.66 1455.64 2620.71 1454.9 2620.71 1454.25 2620.71 1453.19 2620.44 1452.43 2619.88 1451.99 2619.33 1451.54 2618.32 1451.31 2616.85 1451.28Z" fill-rule="evenodd"/><text fill="#000000" fill-opacity="0" font-family="Arial,Arial_MSFontService,sans-serif" font-size="46.8643" x="2608.47" y="1490.01">𝑁</text><path d="M2447.04 1350.26C2448.82 1350.26 2450.2 1350.85 2451.18 1352.01 2452.15 1353.18 2452.64 1354.72 2452.64 1356.62 2452.64 1357.15 2452.61 1357.67 2452.53 1358.18 2452.46 1358.68 2452.33 1359.17 2452.14 1359.66L2452.57 1359.84C2454.86 1356.63 2457.15 1354.24 2459.43 1352.65 2461.72 1351.06 2464.07 1350.26 2466.48 1350.26 2469.03 1350.26 2470.94 1350.92 2472.21 1352.23 2473.47 1353.54 2474.1 1355.48 2474.1 1358.03 2474.1 1358.25 2474.1 1358.46 2474.1 1358.66 2474.1 1358.87 2474.08 1359.08 2474.03 1359.3L2474.18 1359.3C2476.42 1356.24 2478.65 1353.97 2480.86 1352.48 2483.08 1351 2485.39 1350.26 2487.8 1350.26 2490.35 1350.26 2492.26 1350.95 2493.53 1352.32 2494.79 1353.69 2495.42 1355.62 2495.42 1358.1 2495.42 1358.85 2495.3 1359.86 2495.06 1361.12 2494.82 1362.38 2494.53 1363.78 2494.18 1365.29 2493.83 1366.81 2493.45 1368.38 2493.04 1370.01 2492.63 1371.63 2492.24 1373.17 2491.88 1374.62 2491.67 1375.55 2491.49 1376.32 2491.36 1376.91 2491.23 1377.5 2491.12 1377.99 2491.05 1378.39 2490.98 1378.79 2490.93 1379.13 2490.91 1379.42 2490.88 1379.71 2490.87 1380.02 2490.87 1380.36 2490.87 1381.28 2491.04 1381.94 2491.38 1382.35 2491.71 1382.76 2492.26 1382.96 2493 1382.96 2493.44 1382.96 2493.87 1382.88 2494.3 1382.71 2494.74 1382.54 2495.2 1382.28 2495.69 1381.91 2496.19 1381.55 2496.73 1381.09 2497.32 1380.52 2497.91 1379.96 2498.57 1379.28 2499.29 1378.48L2501.78 1380.87C2500.63 1382.07 2499.55 1383.11 2498.55 1383.97 2497.55 1384.84 2496.59 1385.56 2495.66 1386.12 2494.73 1386.69 2493.81 1387.11 2492.89 1387.39 2491.98 1387.67 2491.01 1387.8 2490 1387.8 2489.09 1387.8 2488.26 1387.64 2487.51 1387.3 2486.76 1386.96 2486.13 1386.5 2485.61 1385.91 2485.09 1385.32 2484.69 1384.62 2484.4 1383.81 2484.11 1383 2483.97 1382.12 2483.97 1381.16 2483.97 1379.18 2484.39 1376.64 2485.23 1373.53 2485.69 1371.97 2486.11 1370.47 2486.48 1369.03 2486.85 1367.6 2487.17 1366.27 2487.44 1365.06 2487.7 1363.84 2487.91 1362.76 2488.07 1361.81 2488.23 1360.85 2488.3 1360.07 2488.3 1359.44 2488.3 1357.95 2488.02 1356.85 2487.46 1356.15 2486.89 1355.45 2486 1355.1 2484.8 1355.1 2484.05 1355.1 2483.26 1355.3 2482.42 1355.68 2481.57 1356.07 2480.72 1356.6 2479.87 1357.29 2479.01 1357.98 2478.18 1358.79 2477.36 1359.73 2476.54 1360.67 2475.78 1361.69 2475.08 1362.78 2474.38 1363.88 2473.76 1365.03 2473.22 1366.23 2472.68 1367.44 2472.26 1368.65 2471.97 1369.88L2468.4 1387.15 2461.35 1387.15C2461.69 1385.61 2462.07 1383.96 2462.49 1382.19 2462.91 1380.41 2463.34 1378.63 2463.77 1376.82 2464.2 1375.01 2464.62 1373.23 2465.02 1371.47 2465.41 1369.71 2465.77 1368.07 2466.08 1366.54 2466.4 1365.01 2466.65 1363.64 2466.84 1362.42 2467.03 1361.2 2467.13 1360.23 2467.13 1359.51 2467.13 1357.99 2466.84 1356.88 2466.25 1356.17 2465.66 1355.46 2464.71 1355.1 2463.41 1355.1 2462.25 1355.1 2461.01 1355.54 2459.69 1356.4 2458.36 1357.27 2457.1 1358.41 2455.91 1359.82 2454.72 1361.23 2453.65 1362.82 2452.71 1364.59 2451.77 1366.36 2451.11 1368.15 2450.73 1369.95L2447.04 1387.15 2439.96 1387.15 2445.38 1363.59C2445.69 1362.29 2445.92 1361.16 2446.07 1360.2 2446.21 1359.23 2446.28 1358.44 2446.28 1357.81 2446.28 1356.06 2445.57 1355.18 2444.15 1355.18 2443.72 1355.18 2443.28 1355.27 2442.83 1355.45 2442.39 1355.63 2441.92 1355.9 2441.42 1356.26 2440.93 1356.62 2440.39 1357.08 2439.81 1357.63 2439.24 1358.19 2438.59 1358.84 2437.86 1359.58L2435.37 1357.24C2436.55 1356.03 2437.64 1354.99 2438.64 1354.11 2439.64 1353.23 2440.6 1352.51 2441.53 1351.94 2442.46 1351.38 2443.37 1350.95 2444.26 1350.68 2445.15 1350.4 2446.08 1350.26 2447.04 1350.26Z" fill-rule="evenodd"/><text fill="#000000" fill-opacity="0" font-family="Arial,Arial_MSFontService,sans-serif" font-size="37.542" x="2435.37" y="1383.11">𝑚</text><path d="M2424.24 1628.81 2426.01 1628.81 2420.66 1652.87C2420.32 1654.29 2420.09 1655.43 2419.95 1656.27 2419.82 1657.11 2419.76 1657.87 2419.76 1658.55 2419.76 1659.46 2419.94 1660.12 2420.32 1660.53 2420.69 1660.94 2421.25 1661.15 2422 1661.15 2422.43 1661.15 2422.86 1661.06 2423.3 1660.89 2423.73 1660.73 2424.19 1660.46 2424.69 1660.1 2425.18 1659.74 2425.72 1659.27 2426.31 1658.71 2426.9 1658.14 2427.56 1657.46 2428.28 1656.67L2430.74 1659.05C2429.49 1660.33 2428.35 1661.41 2427.33 1662.29 2426.3 1663.16 2425.33 1663.88 2424.42 1664.44 2423.5 1664.99 2422.6 1665.39 2421.73 1665.63 2420.85 1665.87 2419.91 1665.99 2418.93 1665.99 2418.01 1665.99 2417.18 1665.82 2416.45 1665.48 2415.72 1665.15 2415.08 1664.68 2414.55 1664.09 2414.02 1663.5 2413.61 1662.8 2413.32 1661.98 2413.04 1661.16 2412.89 1660.26 2412.89 1659.27 2412.89 1658.47 2412.99 1657.49 2413.18 1656.31 2413.37 1655.13 2413.62 1653.84 2413.92 1652.46 2414.22 1651.07 2414.55 1649.62 2414.91 1648.1 2415.28 1646.59 2415.63 1645.08 2415.98 1643.59 2416.33 1642.09 2416.64 1640.65 2416.92 1639.27 2417.2 1637.88 2417.4 1636.63 2417.52 1635.49 2417.56 1635.3 2417.59 1635.11 2417.59 1634.93 2417.59 1634.75 2417.59 1634.59 2417.59 1634.45 2417.54 1633.51 2417.21 1632.82 2416.59 1632.39 2415.98 1631.95 2414.89 1631.71 2413.32 1631.66L2413.76 1629.21ZM2422.14 1614.25 2429.37 1614.25 2427.6 1622.02 2420.44 1622.02Z" fill-rule="evenodd"/><text fill="#000000" fill-opacity="0" font-family="Arial,Arial_MSFontService,sans-serif" font-size="51.7422" x="2412.89" y="1659.52">𝑖</text><path d="M2441.3 1649.3 2482.93 1649.3 2482.93 1654.82 2441.3 1654.82ZM2441.3 1633.58 2482.93 1633.58 2482.93 1639.11 2441.3 1639.11Z" fill-rule="evenodd"/><text fill="#000000" fill-opacity="0" font-family="Arial,Arial_MSFontService,sans-serif" font-size="21.2461" x="2441.3" y="1652.17">=</text><path d="M2509.9 1622.05C2508.22 1622.05 2506.81 1622.49 2505.68 1623.37 2504.54 1624.25 2503.65 1625.54 2502.98 1627.24 2502.32 1628.94 2501.85 1631.01 2501.57 1633.45 2501.3 1635.9 2501.16 1638.67 2501.16 1641.78 2501.16 1645.37 2501.33 1648.47 2501.68 1651.08 2502.03 1653.7 2502.57 1655.85 2503.31 1657.53 2504.04 1659.22 2504.96 1660.46 2506.07 1661.26 2507.18 1662.05 2508.51 1662.45 2510.05 1662.45 2511.49 1662.45 2512.76 1662.07 2513.84 1661.33 2514.93 1660.58 2515.82 1659.42 2516.53 1657.84 2517.24 1656.26 2517.78 1654.26 2518.14 1651.84 2518.5 1649.42 2518.68 1646.56 2518.68 1643.26 2518.68 1639.55 2518.48 1636.36 2518.09 1633.69 2517.69 1631.01 2517.13 1628.81 2516.41 1627.09 2515.68 1625.37 2514.77 1624.1 2513.68 1623.28 2512.58 1622.46 2511.32 1622.05 2509.9 1622.05ZM2510.05 1618.55C2512.91 1618.55 2515.36 1619.08 2517.4 1620.15 2519.44 1621.23 2521.1 1622.76 2522.39 1624.74 2523.68 1626.73 2524.62 1629.16 2525.22 1632.02 2525.83 1634.89 2526.13 1638.13 2526.13 1641.74 2526.13 1649.77 2524.71 1655.83 2521.86 1659.94 2519.02 1664.04 2514.9 1666.1 2509.51 1666.1 2504.16 1666.1 2500.18 1664.16 2497.58 1660.28 2494.98 1656.4 2493.68 1650.52 2493.68 1642.65 2493.68 1638.53 2494.08 1634.96 2494.89 1631.95 2495.7 1628.94 2496.83 1626.44 2498.29 1624.45 2499.74 1622.47 2501.47 1620.99 2503.47 1620.01 2505.47 1619.03 2507.66 1618.55 2510.05 1618.55Z" fill-rule="evenodd"/><text fill="#000000" fill-opacity="0" font-family="Arial,Arial_MSFontService,sans-serif" font-size="47.5508" x="2493.68" y="1660.15">0</text></g></svg>