<svg width="1226" height="390" xmlns="http://www.w3.org/2000/svg" xmlns:xlink="http://www.w3.org/1999/xlink" xml:space="preserve" overflow="hidden"><g transform="translate(-1587 -1867)"><path d="M1617.12 2027.9 1637.04 2027.9 1636.5 2030.31C1635.08 2030.54 1633.96 2031.03 1633.12 2031.77 1632.28 2032.51 1631.86 2033.59 1631.86 2035 1631.86 2037.1 1632.4 2039.75 1633.49 2042.94L1637.58 2054.87 1646.71 2043.33C1648.12 2041.56 1649.22 2040.1 1650.01 2038.97 1650.8 2037.84 1651.37 2036.83 1651.71 2035.96 1652.06 2035.09 1652.23 2034.33 1652.23 2033.67 1652.23 2032.78 1651.97 2032.02 1651.44 2031.4 1650.91 2030.77 1650.01 2030.41 1648.73 2030.31L1649.27 2027.9 1667.67 2027.9 1667.12 2030.31C1666.14 2030.61 1665.21 2031.09 1664.34 2031.74 1663.47 2032.4 1662.43 2033.39 1661.23 2034.7 1660.03 2036.02 1657.8 2038.62 1654.55 2042.5L1639.85 2060.05 1647.05 2080.07C1648.14 2083.1 1649.02 2085.41 1649.71 2087 1650.4 2088.6 1651.01 2089.77 1651.54 2090.53 1651.97 2091.09 1652.41 2091.52 1652.87 2091.84 1653.33 2092.15 1654.1 2092.47 1655.19 2092.8L1654.7 2095.21 1634.77 2095.21 1635.26 2092.8C1636.78 2092.57 1637.94 2092.05 1638.74 2091.24 1639.55 2090.44 1639.95 2089.4 1639.95 2088.11 1639.95 2086.17 1639.56 2084.02 1638.77 2081.65L1633.64 2066.61 1622.39 2080.67C1620.72 2082.77 1619.5 2084.49 1618.74 2085.82 1617.99 2087.15 1617.61 2088.29 1617.61 2089.25 1617.61 2090.53 1617.91 2091.41 1618.52 2091.89 1619.13 2092.36 1619.99 2092.67 1621.11 2092.8L1620.57 2095.21 1602.22 2095.21 1602.72 2092.8C1603.74 2092.47 1604.66 2091.99 1605.5 2091.37 1606.34 2090.74 1607.43 2089.68 1608.76 2088.19 1610.09 2086.69 1612.41 2083.97 1615.74 2080.03L1631.37 2061.43 1624.07 2041.16C1622.85 2037.78 1621.9 2035.44 1621.21 2034.14 1620.52 2032.84 1619.84 2031.93 1619.16 2031.4 1618.49 2030.87 1617.63 2030.51 1616.57 2030.31Z" fill-rule="evenodd"/><text fill="#000000" fill-opacity="0" font-family="Arial,Arial_MSFontService,sans-serif" font-size="67.3169" x="1602.22" y="2086.8">𝑋</text><path d="M1706.38 2073.32 1767.13 2073.32 1767.13 2079.88 1706.38 2079.88ZM1706.38 2052.85 1767.13 2052.85 1767.13 2059.41 1706.38 2059.41Z" fill-rule="evenodd"/><text fill="#000000" fill-opacity="0" font-family="Arial,Arial_MSFontService,sans-serif" font-size="27.0254" x="1706.38" y="2076.5">=</text><path d="M1815.94 2027.9 1835.87 2027.9 1835.32 2030.31C1833.91 2030.54 1832.78 2031.03 1831.94 2031.77 1831.11 2032.51 1830.69 2033.59 1830.69 2035 1830.69 2037.1 1831.23 2039.75 1832.31 2042.94L1836.41 2054.87 1845.53 2043.33C1846.94 2041.56 1848.05 2040.1 1848.84 2038.97 1849.62 2037.84 1850.19 2036.83 1850.54 2035.96 1850.88 2035.09 1851.05 2034.33 1851.05 2033.67 1851.05 2032.78 1850.79 2032.02 1850.27 2031.4 1849.74 2030.77 1848.84 2030.41 1847.55 2030.31L1848.1 2027.9 1866.49 2027.9 1865.95 2030.31C1864.96 2030.61 1864.03 2031.09 1863.16 2031.74 1862.29 2032.4 1861.25 2033.39 1860.05 2034.7 1858.85 2036.02 1856.63 2038.62 1853.37 2042.5L1838.68 2060.05 1845.88 2080.07C1846.96 2083.1 1847.85 2085.41 1848.54 2087 1849.23 2088.6 1849.84 2089.77 1850.36 2090.53 1850.79 2091.09 1851.24 2091.52 1851.7 2091.84 1852.16 2092.15 1852.93 2092.47 1854.01 2092.8L1853.52 2095.21 1833.6 2095.21 1834.09 2092.8C1835.6 2092.57 1836.76 2092.05 1837.57 2091.24 1838.37 2090.44 1838.77 2089.4 1838.77 2088.11 1838.77 2086.17 1838.38 2084.02 1837.59 2081.65L1832.46 2066.61 1821.22 2080.67C1819.54 2082.77 1818.32 2084.49 1817.57 2085.82 1816.81 2087.15 1816.43 2088.29 1816.43 2089.25 1816.43 2090.53 1816.74 2091.41 1817.35 2091.89 1817.96 2092.36 1818.82 2092.67 1819.94 2092.8L1819.39 2095.21 1801.05 2095.21 1801.54 2092.8C1802.56 2092.47 1803.49 2091.99 1804.33 2091.37 1805.17 2090.74 1806.25 2089.68 1807.58 2088.19 1808.91 2086.69 1811.24 2083.97 1814.56 2080.03L1830.19 2061.43 1822.89 2041.16C1821.68 2037.78 1820.72 2035.44 1820.03 2034.14 1819.34 2032.84 1818.66 2031.93 1817.99 2031.4 1817.31 2030.87 1816.45 2030.51 1815.4 2030.31Z" fill-rule="evenodd"/><text fill="#000000" fill-opacity="0" font-family="Arial,Arial_MSFontService,sans-serif" font-size="67.3169" x="1801.05" y="2086.8">𝑋</text><path d="M1884.4 2072.51C1882.71 2072.51 1881.3 2072.95 1880.17 2073.83 1879.04 2074.7 1878.14 2075.99 1877.48 2077.69 1876.82 2079.39 1876.35 2081.46 1876.07 2083.91 1875.79 2086.35 1875.66 2089.13 1875.66 2092.24 1875.66 2095.82 1875.83 2098.93 1876.18 2101.54 1876.53 2104.15 1877.07 2106.3 1877.81 2107.99 1878.54 2109.68 1879.46 2110.92 1880.57 2111.71 1881.68 2112.51 1883 2112.9 1884.54 2112.9 1885.99 2112.9 1887.25 2112.53 1888.34 2111.78 1889.42 2111.04 1890.32 2109.87 1891.03 2108.3 1891.74 2106.72 1892.28 2104.72 1892.64 2102.3 1893 2099.88 1893.18 2097.02 1893.18 2093.72 1893.18 2090.01 1892.98 2086.82 1892.58 2084.14 1892.19 2081.47 1891.63 2079.27 1890.9 2077.55 1890.18 2075.82 1889.27 2074.55 1888.18 2073.74 1887.08 2072.92 1885.82 2072.51 1884.4 2072.51ZM1884.54 2069C1887.41 2069 1889.86 2069.54 1891.9 2070.61 1893.93 2071.68 1895.59 2073.21 1896.88 2075.2 1898.17 2077.19 1899.12 2079.61 1899.72 2082.48 1900.32 2085.35 1900.62 2088.59 1900.62 2092.2 1900.62 2100.22 1899.2 2106.28 1896.36 2110.39 1893.52 2114.5 1889.4 2116.55 1884 2116.55 1878.65 2116.55 1874.68 2114.61 1872.08 2110.74 1869.48 2106.86 1868.18 2100.98 1868.18 2093.1 1868.18 2088.98 1868.58 2085.42 1869.39 2082.41 1870.19 2079.4 1871.33 2076.9 1872.78 2074.91 1874.24 2072.92 1875.97 2071.44 1877.97 2070.47 1879.97 2069.49 1882.16 2069 1884.54 2069Z" fill-rule="evenodd"/><text fill="#000000" fill-opacity="0" font-family="Arial,Arial_MSFontService,sans-serif" font-size="47.5508" x="1868.18" y="2110.61">0</text><path d="M1966.2 2034.65 1973.2 2034.65 1973.2 2063.06 2000.08 2063.06 2000.08 2069.62 1973.2 2069.62 1973.2 2098.03 1966.2 2098.03 1966.2 2069.62 1939.32 2069.62 1939.32 2063.06 1966.2 2063.06Z" fill-rule="evenodd"/><text fill="#000000" fill-opacity="0" font-family="Arial,Arial_MSFontService,sans-serif" font-size="63.3716" x="1939.32" y="2090.1">+</text><path d="M2043.3 2027.9 2063.22 2027.9 2062.68 2030.31C2061.27 2030.54 2060.14 2031.03 2059.3 2031.77 2058.46 2032.51 2058.04 2033.59 2058.04 2035 2058.04 2037.1 2058.59 2039.75 2059.67 2042.94L2063.76 2054.87 2072.89 2043.33C2074.3 2041.56 2075.4 2040.1 2076.19 2038.97 2076.98 2037.84 2077.55 2036.83 2077.89 2035.96 2078.24 2035.09 2078.41 2034.33 2078.41 2033.67 2078.41 2032.78 2078.15 2032.02 2077.62 2031.4 2077.1 2030.77 2076.19 2030.41 2074.91 2030.31L2075.45 2027.9 2093.85 2027.9 2093.3 2030.31C2092.32 2030.61 2091.39 2031.09 2090.52 2031.74 2089.65 2032.4 2088.61 2033.39 2087.41 2034.7 2086.21 2036.02 2083.98 2038.62 2080.73 2042.5L2066.03 2060.05 2073.23 2080.07C2074.32 2083.1 2075.21 2085.41 2075.9 2087 2076.59 2088.6 2077.19 2089.77 2077.72 2090.53 2078.15 2091.09 2078.59 2091.52 2079.05 2091.84 2079.51 2092.15 2080.28 2092.47 2081.37 2092.8L2080.88 2095.21 2060.95 2095.21 2061.45 2092.8C2062.96 2092.57 2064.12 2092.05 2064.92 2091.24 2065.73 2090.44 2066.13 2089.4 2066.13 2088.11 2066.13 2086.17 2065.74 2084.02 2064.95 2081.65L2059.82 2066.61 2048.57 2080.67C2046.9 2082.77 2045.68 2084.49 2044.92 2085.82 2044.17 2087.15 2043.79 2088.29 2043.79 2089.25 2043.79 2090.53 2044.09 2091.41 2044.7 2091.89 2045.31 2092.36 2046.17 2092.67 2047.29 2092.8L2046.75 2095.21 2028.4 2095.21 2028.9 2092.8C2029.92 2092.47 2030.85 2091.99 2031.68 2091.37 2032.52 2090.74 2033.61 2089.68 2034.94 2088.19 2036.27 2086.69 2038.6 2083.97 2041.92 2080.03L2057.55 2061.43 2050.25 2041.16C2049.03 2037.78 2048.08 2035.44 2047.39 2034.14 2046.7 2032.84 2046.02 2031.93 2045.34 2031.4 2044.67 2030.87 2043.81 2030.51 2042.76 2030.31Z" fill-rule="evenodd"/><text fill="#000000" fill-opacity="0" font-family="Arial,Arial_MSFontService,sans-serif" font-size="67.3169" x="2028.4" y="2086.8">𝑋</text><path d="M2112.38 2069.25 2114.59 2069.25C2114.54 2070.58 2114.5 2071.77 2114.48 2072.81 2114.45 2073.86 2114.43 2074.88 2114.42 2075.87 2114.41 2076.85 2114.4 2077.83 2114.4 2078.79L2114.4 2106.25C2114.4 2107 2114.43 2107.65 2114.48 2108.19 2114.53 2108.73 2114.6 2109.19 2114.71 2109.56 2114.82 2109.93 2114.96 2110.25 2115.15 2110.52 2115.33 2110.78 2115.54 2111.01 2115.78 2111.21 2116.07 2111.49 2116.45 2111.72 2116.93 2111.87 2117.42 2112.03 2118.03 2112.16 2118.78 2112.27 2119.52 2112.38 2120.42 2112.46 2121.47 2112.52 2122.52 2112.58 2123.78 2112.63 2125.24 2112.65L2125.24 2115.79 2096.59 2115.79 2096.59 2112.65C2098.01 2112.6 2099.22 2112.55 2100.2 2112.49 2101.19 2112.43 2102.04 2112.34 2102.73 2112.23 2103.43 2112.13 2103.99 2112.01 2104.41 2111.87 2104.84 2111.74 2105.2 2111.58 2105.52 2111.39 2105.85 2111.17 2106.14 2110.93 2106.38 2110.68 2106.62 2110.43 2106.82 2110.11 2106.96 2109.72 2107.11 2109.34 2107.22 2108.87 2107.3 2108.31 2107.39 2107.76 2107.43 2107.07 2107.43 2106.25L2107.43 2080.35C2107.43 2079.41 2107.25 2078.75 2106.89 2078.36 2106.53 2077.97 2106.01 2077.78 2105.34 2077.78 2104.59 2077.78 2103.48 2078.17 2102.01 2078.94 2100.54 2079.71 2098.64 2080.85 2096.3 2082.37 2095.99 2081.82 2095.7 2081.26 2095.44 2080.71 2095.17 2080.16 2094.89 2079.59 2094.6 2079.01 2097.59 2077.37 2100.55 2075.74 2103.47 2074.11 2106.4 2072.49 2109.37 2070.87 2112.38 2069.25Z" fill-rule="evenodd"/><text fill="#000000" fill-opacity="0" font-family="Arial,Arial_MSFontService,sans-serif" font-size="46.5391" x="2094.6" y="2109.98">1</text><path d="M2191.22 2034.65 2198.22 2034.65 2198.22 2063.06 2225.1 2063.06 2225.1 2069.62 2198.22 2069.62 2198.22 2098.03 2191.22 2098.03 2191.22 2069.62 2164.34 2069.62 2164.34 2063.06 2191.22 2063.06Z" fill-rule="evenodd"/><text fill="#000000" fill-opacity="0" font-family="Arial,Arial_MSFontService,sans-serif" font-size="63.3716" x="2164.34" y="2090.1">+</text><path d="M2268.32 2027.9 2288.24 2027.9 2287.7 2030.31C2286.28 2030.54 2285.16 2031.03 2284.32 2031.77 2283.48 2032.51 2283.06 2033.59 2283.06 2035 2283.06 2037.1 2283.6 2039.75 2284.69 2042.94L2288.78 2054.87 2297.91 2043.33C2299.32 2041.56 2300.42 2040.1 2301.21 2038.97 2302 2037.84 2302.57 2036.83 2302.91 2035.96 2303.26 2035.09 2303.43 2034.33 2303.43 2033.67 2303.43 2032.78 2303.17 2032.02 2302.64 2031.4 2302.11 2030.77 2301.21 2030.41 2299.93 2030.31L2300.47 2027.9 2318.87 2027.9 2318.32 2030.31C2317.34 2030.61 2316.41 2031.09 2315.54 2031.74 2314.67 2032.4 2313.63 2033.39 2312.43 2034.7 2311.23 2036.02 2309 2038.62 2305.75 2042.5L2291.05 2060.05 2298.25 2080.07C2299.34 2083.1 2300.22 2085.41 2300.91 2087 2301.6 2088.6 2302.21 2089.77 2302.74 2090.53 2303.17 2091.09 2303.61 2091.52 2304.07 2091.84 2304.53 2092.15 2305.3 2092.47 2306.39 2092.8L2305.9 2095.21 2285.97 2095.21 2286.46 2092.8C2287.98 2092.57 2289.14 2092.05 2289.94 2091.24 2290.75 2090.44 2291.15 2089.4 2291.15 2088.11 2291.15 2086.17 2290.76 2084.02 2289.97 2081.65L2284.84 2066.61 2273.59 2080.67C2271.92 2082.77 2270.7 2084.49 2269.94 2085.82 2269.19 2087.15 2268.81 2088.29 2268.81 2089.25 2268.81 2090.53 2269.11 2091.41 2269.72 2091.89 2270.33 2092.36 2271.19 2092.67 2272.31 2092.8L2271.77 2095.21 2253.42 2095.21 2253.92 2092.8C2254.94 2092.47 2255.86 2091.99 2256.7 2091.37 2257.54 2090.74 2258.63 2089.68 2259.96 2088.19 2261.29 2086.69 2263.61 2083.97 2266.94 2080.03L2282.57 2061.43 2275.27 2041.16C2274.05 2037.78 2273.1 2035.44 2272.41 2034.14 2271.72 2032.84 2271.04 2031.93 2270.36 2031.4 2269.69 2030.87 2268.83 2030.51 2267.77 2030.31Z" fill-rule="evenodd"/><text fill="#000000" fill-opacity="0" font-family="Arial,Arial_MSFontService,sans-serif" font-size="67.3169" x="2253.42" y="2086.8">𝑋</text><path d="M2336.92 2069C2339.42 2069 2341.56 2069.28 2343.33 2069.85 2345.1 2070.42 2346.54 2071.18 2347.65 2072.15 2348.76 2073.11 2349.56 2074.27 2350.05 2075.61 2350.55 2076.96 2350.79 2078.42 2350.79 2079.99 2350.79 2080.93 2350.73 2081.8 2350.6 2082.61 2350.46 2083.41 2350.23 2084.21 2349.91 2084.99 2349.58 2085.77 2349.16 2086.56 2348.63 2087.36 2348.1 2088.15 2347.43 2089 2346.64 2089.89 2346.04 2090.66 2345.25 2091.55 2344.29 2092.56 2343.33 2093.57 2342.27 2094.66 2341.13 2095.81 2339.98 2096.97 2338.79 2098.17 2337.53 2099.43 2336.28 2100.68 2335.06 2101.92 2333.88 2103.15 2332.7 2104.38 2331.62 2105.57 2330.63 2106.72 2329.64 2107.88 2328.84 2108.94 2328.21 2109.9L2341.58 2109.9C2342.71 2109.9 2343.62 2109.86 2344.29 2109.78 2344.96 2109.69 2345.52 2109.51 2345.97 2109.22 2346.42 2108.93 2346.8 2108.49 2347.11 2107.9 2347.42 2107.31 2347.78 2106.5 2348.19 2105.46L2351.55 2105.46C2351.43 2107.17 2351.32 2108.89 2351.21 2110.63 2351.1 2112.36 2350.99 2114.08 2350.87 2115.79L2320.26 2115.79 2320.26 2113.92C2320.84 2112.61 2321.51 2111.33 2322.29 2110.07 2323.06 2108.8 2323.92 2107.52 2324.89 2106.22 2325.85 2104.92 2326.95 2103.57 2328.18 2102.19 2329.4 2100.8 2330.76 2099.37 2332.26 2097.87 2334.52 2095.61 2336.37 2093.67 2337.79 2092.07 2339.21 2090.47 2340.33 2089.04 2341.15 2087.79 2341.97 2086.54 2342.53 2085.38 2342.83 2084.32 2343.13 2083.26 2343.28 2082.13 2343.28 2080.93 2343.28 2079.7 2343.1 2078.57 2342.75 2077.53 2342.41 2076.49 2341.91 2075.61 2341.26 2074.89 2340.6 2074.17 2339.78 2073.6 2338.78 2073.19 2337.78 2072.78 2336.63 2072.58 2335.33 2072.58 2333.09 2072.58 2331.21 2073.19 2329.69 2074.4 2328.18 2075.62 2326.99 2077.38 2326.15 2079.7L2321.42 2079.7 2321.42 2072.65C2324.5 2071.37 2327.34 2070.45 2329.93 2069.87 2332.52 2069.29 2334.85 2069 2336.92 2069Z" fill-rule="evenodd"/><text fill="#000000" fill-opacity="0" font-family="Arial,Arial_MSFontService,sans-serif" font-size="46.792" x="2320.26" y="2109.94">2</text><path d="M2418.58 2034.65 2425.58 2034.65 2425.58 2063.06 2452.46 2063.06 2452.46 2069.62 2425.58 2069.62 2425.58 2098.03 2418.58 2098.03 2418.58 2069.62 2391.7 2069.62 2391.7 2063.06 2418.58 2063.06Z" fill-rule="evenodd"/><text fill="#000000" fill-opacity="0" font-family="Arial,Arial_MSFontService,sans-serif" font-size="63.3716" x="2391.7" y="2090.1">+</text><path d="M2554.95 2060C2556.66 2060 2558.09 2060.6 2559.24 2061.8 2560.39 2063 2560.97 2064.52 2560.97 2066.36 2560.97 2068.21 2560.39 2069.73 2559.24 2070.93 2558.09 2072.13 2556.66 2072.73 2554.95 2072.73 2553.24 2072.73 2551.81 2072.13 2550.66 2070.93 2549.51 2069.73 2548.93 2068.21 2548.93 2066.36 2548.93 2064.52 2549.51 2063 2550.66 2061.8 2551.81 2060.6 2553.24 2060 2554.95 2060ZM2525.07 2060C2526.77 2060 2528.21 2060.6 2529.36 2061.8 2530.51 2063 2531.08 2064.52 2531.08 2066.36 2531.08 2068.21 2530.51 2069.73 2529.36 2070.93 2528.21 2072.13 2526.77 2072.73 2525.07 2072.73 2523.36 2072.73 2521.93 2072.13 2520.77 2070.93 2519.62 2069.73 2519.05 2068.21 2519.05 2066.36 2519.05 2064.52 2519.62 2063 2520.77 2061.8 2521.93 2060.6 2523.36 2060 2525.07 2060ZM2495.18 2060C2496.89 2060 2498.32 2060.6 2499.47 2061.8 2500.62 2063 2501.2 2064.52 2501.2 2066.36 2501.2 2068.21 2500.62 2069.73 2499.47 2070.93 2498.32 2072.13 2496.89 2072.73 2495.18 2072.73 2493.47 2072.73 2492.04 2072.13 2490.89 2070.93 2489.74 2069.73 2489.16 2068.21 2489.16 2066.36 2489.16 2064.52 2489.74 2063 2490.89 2061.8 2492.04 2060.6 2493.47 2060 2495.18 2060Z" fill-rule="evenodd"/><text fill="#000000" fill-opacity="0" font-family="Arial,Arial_MSFontService,sans-serif" font-size="12.7236" x="2489.16" y="2071.14">⋯</text><path d="M2619.35 2034.65 2626.35 2034.65 2626.35 2063.06 2653.23 2063.06 2653.23 2069.62 2626.35 2069.62 2626.35 2098.03 2619.35 2098.03 2619.35 2069.62 2592.47 2069.62 2592.47 2063.06 2619.35 2063.06Z" fill-rule="evenodd"/><text fill="#000000" fill-opacity="0" font-family="Arial,Arial_MSFontService,sans-serif" font-size="63.3716" x="2592.47" y="2090.1">+</text><path d="M2696.45 2027.9 2716.37 2027.9 2715.83 2030.31C2714.41 2030.54 2713.29 2031.03 2712.45 2031.77 2711.61 2032.51 2711.19 2033.59 2711.19 2035 2711.19 2037.1 2711.73 2039.75 2712.82 2042.94L2716.91 2054.87 2726.04 2043.33C2727.45 2041.56 2728.55 2040.1 2729.34 2038.97 2730.13 2037.84 2730.7 2036.83 2731.04 2035.96 2731.39 2035.09 2731.56 2034.33 2731.56 2033.67 2731.56 2032.78 2731.3 2032.02 2730.77 2031.4 2730.24 2030.77 2729.34 2030.41 2728.06 2030.31L2728.6 2027.9 2746.99 2027.9 2746.45 2030.31C2745.47 2030.61 2744.54 2031.09 2743.67 2031.74 2742.79 2032.4 2741.76 2033.39 2740.56 2034.7 2739.36 2036.02 2737.13 2038.62 2733.88 2042.5L2719.18 2060.05 2726.38 2080.07C2727.47 2083.1 2728.35 2085.41 2729.04 2087 2729.73 2088.6 2730.34 2089.77 2730.87 2090.53 2731.3 2091.09 2731.74 2091.52 2732.2 2091.84 2732.66 2092.15 2733.43 2092.47 2734.52 2092.8L2734.02 2095.21 2714.1 2095.21 2714.59 2092.8C2716.11 2092.57 2717.27 2092.05 2718.07 2091.24 2718.88 2090.44 2719.28 2089.4 2719.28 2088.11 2719.28 2086.17 2718.88 2084.02 2718.1 2081.65L2712.97 2066.61 2701.72 2080.67C2700.05 2082.77 2698.83 2084.49 2698.07 2085.82 2697.32 2087.15 2696.94 2088.29 2696.94 2089.25 2696.94 2090.53 2697.24 2091.41 2697.85 2091.89 2698.46 2092.36 2699.32 2092.67 2700.44 2092.8L2699.9 2095.21 2681.55 2095.21 2682.04 2092.8C2683.06 2092.47 2683.99 2091.99 2684.83 2091.37 2685.67 2090.74 2686.75 2089.68 2688.09 2088.19 2689.42 2086.69 2691.74 2083.97 2695.06 2080.03L2710.7 2061.43 2703.4 2041.16C2702.18 2037.78 2701.23 2035.44 2700.54 2034.14 2699.85 2032.84 2699.17 2031.93 2698.49 2031.4 2697.82 2030.87 2696.95 2030.51 2695.9 2030.31Z" fill-rule="evenodd"/><text fill="#000000" fill-opacity="0" font-family="Arial,Arial_MSFontService,sans-serif" font-size="67.3169" x="2681.55" y="2086.8">𝑋</text><path d="M2756.63 2078.9C2758.41 2078.9 2759.79 2079.49 2760.77 2080.65 2761.74 2081.82 2762.23 2083.36 2762.23 2085.26 2762.23 2085.74 2762.19 2086.25 2762.1 2086.78 2762.02 2087.31 2761.87 2087.82 2761.65 2088.3L2762.16 2088.48C2764.49 2085.27 2766.8 2082.88 2769.08 2081.29 2771.35 2079.7 2773.71 2078.9 2776.14 2078.9 2778.69 2078.9 2780.6 2079.59 2781.87 2080.96 2783.13 2082.33 2783.77 2084.26 2783.77 2086.74 2783.77 2087.49 2783.66 2088.53 2783.44 2089.85 2783.22 2091.18 2782.95 2092.62 2782.61 2094.19 2782.27 2095.75 2781.91 2097.36 2781.52 2099.01 2781.14 2100.66 2780.78 2102.18 2780.44 2103.58 2780.1 2104.98 2779.83 2106.17 2779.61 2107.16 2779.39 2108.15 2779.28 2108.76 2779.28 2109 2779.28 2109.92 2779.45 2110.58 2779.79 2110.99 2780.13 2111.4 2780.67 2111.6 2781.42 2111.6 2781.87 2111.6 2782.33 2111.52 2782.77 2111.35 2783.22 2111.18 2783.68 2110.92 2784.16 2110.55 2784.64 2110.19 2785.17 2109.73 2785.75 2109.16 2786.33 2108.6 2786.98 2107.92 2787.7 2107.12L2790.2 2109.51C2789.02 2110.71 2787.93 2111.75 2786.94 2112.61 2785.96 2113.48 2785 2114.2 2784.07 2114.76 2783.14 2115.33 2782.22 2115.75 2781.31 2116.03 2780.39 2116.31 2779.42 2116.44 2778.38 2116.44 2777.51 2116.44 2776.71 2116.28 2775.98 2115.94 2775.24 2115.6 2774.61 2115.14 2774.08 2114.55 2773.55 2113.96 2773.14 2113.26 2772.85 2112.45 2772.56 2111.64 2772.42 2110.76 2772.42 2109.8 2772.42 2108.83 2772.52 2107.71 2772.73 2106.42 2772.93 2105.13 2773.24 2103.71 2773.65 2102.17 2774.08 2100.61 2774.49 2099.11 2774.86 2097.67 2775.23 2096.24 2775.56 2094.92 2775.83 2093.7 2776.11 2092.48 2776.33 2091.4 2776.48 2090.45 2776.64 2089.5 2776.72 2088.71 2776.72 2088.08 2776.72 2086.59 2776.44 2085.49 2775.87 2084.79 2775.3 2084.09 2774.39 2083.74 2773.14 2083.74 2772.42 2083.74 2771.64 2083.93 2770.81 2084.3 2769.98 2084.68 2769.14 2085.2 2768.3 2085.86 2767.46 2086.52 2766.63 2087.3 2765.83 2088.21 2765.02 2089.11 2764.28 2090.07 2763.6 2091.1 2762.93 2092.12 2762.33 2093.19 2761.81 2094.31 2761.3 2095.43 2760.92 2096.55 2760.68 2097.66L2756.63 2115.79 2749.55 2115.79 2754.97 2092.24C2755.28 2090.98 2755.51 2089.86 2755.65 2088.88 2755.8 2087.89 2755.87 2087.08 2755.87 2086.45 2755.87 2084.7 2755.16 2083.82 2753.74 2083.82 2753.31 2083.82 2752.87 2083.91 2752.42 2084.09 2751.97 2084.27 2751.5 2084.54 2751.01 2084.9 2750.52 2085.26 2749.98 2085.72 2749.4 2086.27 2748.82 2086.83 2748.17 2087.48 2747.45 2088.22L2744.96 2085.88C2746.16 2084.65 2747.26 2083.59 2748.26 2082.71 2749.26 2081.84 2750.22 2081.11 2751.12 2080.55 2752.02 2079.98 2752.92 2079.56 2753.81 2079.3 2754.7 2079.03 2755.64 2078.9 2756.63 2078.9Z" fill-rule="evenodd"/><text fill="#000000" fill-opacity="0" font-family="Arial,Arial_MSFontService,sans-serif" font-size="37.542" x="2744.96" y="2111.75">𝑛</text></g></svg>