<svg width="1902" height="390" xmlns="http://www.w3.org/2000/svg" xmlns:xlink="http://www.w3.org/1999/xlink" xml:space="preserve" overflow="hidden"><g transform="translate(-1249 -62)"><path d="M1305.29 238.332C1303.25 238.332 1301.11 238.382 1298.88 238.48L1292.17 268.366 1297.3 268.366C1301.28 268.366 1304.49 267.955 1306.94 267.133 1309.39 266.311 1311.4 265.037 1312.96 263.311 1314.52 261.585 1315.73 259.538 1316.58 257.171 1317.44 254.804 1317.86 252.207 1317.86 249.379 1317.86 245.565 1316.89 242.771 1314.95 240.995 1313.01 239.22 1309.79 238.332 1305.29 238.332ZM1284.62 233.993 1306.37 233.993C1310.29 233.993 1313.5 234.297 1316.01 234.905 1318.53 235.513 1320.6 236.45 1322.23 237.716 1323.86 238.982 1325.07 240.584 1325.88 242.524 1326.68 244.464 1327.09 246.716 1327.09 249.281 1327.09 254.212 1325.92 258.486 1323.58 262.103 1321.25 265.719 1318.09 268.383 1314.09 270.092 1310.1 271.802 1305.3 272.657 1299.72 272.657 1296.36 272.657 1293.57 272.591 1291.33 272.459L1288.18 286.958C1287.88 288.306 1287.67 289.342 1287.56 290.065 1287.44 290.789 1287.34 291.569 1287.26 292.408 1287.18 293.246 1287.14 293.994 1287.14 294.652 1287.14 295.671 1287.3 296.468 1287.63 297.044 1287.96 297.619 1288.45 298.038 1289.11 298.301 1289.77 298.564 1290.9 298.761 1292.52 298.893L1291.97 301.309 1271.7 301.309 1272.25 298.893C1273.5 298.696 1274.43 298.375 1275.06 297.931 1275.68 297.487 1276.21 296.871 1276.64 296.082 1277.06 295.293 1277.46 294.331 1277.82 293.197 1278.18 292.063 1278.72 289.868 1279.45 286.613L1287.83 248.639C1288.55 245.352 1288.91 242.754 1288.91 240.848 1288.91 239.237 1288.54 238.119 1287.78 237.494 1287.02 236.869 1285.79 236.508 1284.08 236.409Z" fill-rule="evenodd"/><text fill="#000000" fill-opacity="0" font-family="Arial,Arial_MSFontService,sans-serif" font-size="67.3169" x="1271.7" y="292.895">𝑃</text><path d="M1719.06 225.67C1728.67 228.202 1736.04 233.668 1741.18 242.068 1746.33 250.468 1748.9 260.603 1748.9 272.471 1748.9 284.373 1746.34 294.508 1741.21 302.875 1736.08 311.242 1728.7 316.692 1719.06 319.223L1717.88 315.426C1725.48 312.894 1731.12 307.897 1734.82 300.434 1738.52 292.971 1740.37 283.485 1740.37 271.978 1740.37 260.866 1738.53 251.635 1734.85 244.287 1731.16 236.939 1725.46 231.999 1717.73 229.467ZM1372.51 225.67 1373.84 229.467C1366.14 231.999 1360.45 236.939 1356.75 244.287 1353.05 251.635 1351.2 260.866 1351.2 271.978 1351.2 283.485 1353.05 292.971 1356.75 300.434 1360.45 307.897 1366.09 312.894 1373.69 315.426L1372.51 319.223C1362.87 316.692 1355.49 311.242 1350.36 302.875 1345.23 294.508 1342.67 284.373 1342.67 272.471 1342.67 260.603 1345.24 250.468 1350.39 242.068 1355.53 233.668 1362.91 228.202 1372.51 225.67Z" fill-rule="evenodd"/><path d="M1389.5 233.993 1409.42 233.993 1408.88 236.409C1407.46 236.639 1406.34 237.124 1405.5 237.864 1404.66 238.604 1404.24 239.68 1404.24 241.094 1404.24 243.198 1404.78 245.845 1405.87 249.034L1409.96 260.969 1419.09 249.429C1420.5 247.653 1421.6 246.198 1422.39 245.064 1423.18 243.93 1423.75 242.927 1424.09 242.056 1424.44 241.185 1424.61 240.42 1424.61 239.763 1424.61 238.875 1424.35 238.119 1423.82 237.494 1423.29 236.869 1422.39 236.508 1421.11 236.409L1421.65 233.993 1440.05 233.993 1439.5 236.409C1438.52 236.705 1437.59 237.182 1436.72 237.839 1435.85 238.497 1434.81 239.483 1433.61 240.798 1432.41 242.113 1430.18 244.711 1426.93 248.59L1412.23 266.147 1419.43 286.169C1420.52 289.194 1421.4 291.504 1422.09 293.098 1422.78 294.693 1423.39 295.868 1423.92 296.624 1424.35 297.183 1424.79 297.619 1425.25 297.931 1425.71 298.244 1426.48 298.564 1427.57 298.893L1427.08 301.309 1407.15 301.309 1407.64 298.893C1409.16 298.663 1410.32 298.145 1411.12 297.339 1411.93 296.534 1412.33 295.49 1412.33 294.208 1412.33 292.268 1411.94 290.115 1411.15 287.747L1406.02 272.706 1394.77 286.761C1393.1 288.865 1391.88 290.583 1391.12 291.915 1390.37 293.246 1389.99 294.389 1389.99 295.342 1389.99 296.624 1390.29 297.504 1390.9 297.981 1391.51 298.457 1392.37 298.761 1393.49 298.893L1392.95 301.309 1374.6 301.309 1375.1 298.893C1376.11 298.564 1377.04 298.087 1377.88 297.463 1378.72 296.838 1379.81 295.778 1381.14 294.282 1382.47 292.786 1384.79 290.065 1388.12 286.12L1403.75 267.528 1396.45 247.259C1395.23 243.872 1394.28 241.53 1393.59 240.231 1392.9 238.932 1392.22 238.02 1391.54 237.494 1390.87 236.968 1390.01 236.606 1388.95 236.409Z" fill-rule="evenodd"/><text fill="#000000" fill-opacity="0" font-family="Arial,Arial_MSFontService,sans-serif" font-size="67.3169" x="1374.6" y="292.895">𝑋</text><path d="M1450.01 289.868 1458.64 289.868C1459.1 292.169 1459.33 294.438 1459.33 296.674 1459.33 298.975 1458.94 301.079 1458.15 302.986 1457.36 304.893 1456.1 306.792 1454.38 308.682 1452.65 310.573 1450.27 312.652 1447.25 314.921L1444.59 311.912C1446.26 310.334 1447.48 308.912 1448.24 307.647 1448.99 306.381 1449.53 304.942 1449.86 303.331 1450.19 301.72 1450.36 299.698 1450.36 297.265 1450.36 294.767 1450.24 292.301 1450.01 289.868Z" fill-rule="evenodd"/><text fill="#000000" fill-opacity="0" font-family="Arial,Arial_MSFontService,sans-serif" font-size="25.0527" x="1444.59" y="311.789">,</text><path d="M1496.36 253.325C1498.43 253.325 1500.07 254.007 1501.27 255.371 1502.47 256.736 1503.07 258.519 1503.07 260.722 1503.07 262.465 1502.67 264.404 1501.88 266.541L1502.48 266.739C1505.7 262.202 1508.76 258.84 1511.67 256.653 1514.58 254.467 1517.58 253.374 1520.67 253.374 1523.73 253.374 1526.08 254.253 1527.73 256.012 1529.37 257.771 1530.19 260.212 1530.19 263.336 1530.19 265.407 1529.71 268.35 1528.76 272.163L1525.56 285.084C1524.67 288.668 1524.22 291.2 1524.22 292.679 1524.22 293.994 1524.44 294.948 1524.87 295.539 1525.29 296.131 1525.97 296.427 1526.89 296.427 1527.87 296.427 1528.93 296.024 1530.04 295.219 1531.16 294.413 1532.74 292.876 1534.78 290.608L1537.59 293.369C1534.76 296.394 1532.3 298.605 1530.19 300.003 1528.09 301.4 1525.69 302.098 1522.99 302.098 1520.85 302.098 1519.14 301.334 1517.86 299.805 1516.58 298.276 1515.94 296.328 1515.94 293.961 1515.94 291.824 1516.48 288.684 1517.57 284.542L1519.74 276.01C1520.53 272.92 1521.04 270.635 1521.29 269.155 1521.54 267.676 1521.66 266.476 1521.66 265.555 1521.66 263.286 1521.28 261.651 1520.53 260.648 1519.77 259.645 1518.54 259.144 1516.83 259.144 1515.45 259.144 1513.96 259.695 1512.36 260.796 1510.77 261.897 1509.08 263.558 1507.28 265.777 1505.49 267.996 1504.05 270.15 1502.97 272.237 1501.88 274.325 1501 276.898 1500.31 279.955L1495.62 301.309 1487.09 301.309 1494.29 270.043C1495.01 266.887 1495.37 264.454 1495.37 262.744 1495.37 261.429 1495.16 260.475 1494.73 259.884 1494.31 259.292 1493.63 258.996 1492.71 258.996 1491.69 258.996 1490.62 259.415 1489.48 260.254 1488.35 261.092 1486.79 262.612 1484.82 264.815L1482.01 262.054C1485.03 258.897 1487.55 256.653 1489.55 255.322 1491.56 253.99 1493.83 253.325 1496.36 253.325Z" fill-rule="evenodd"/><text fill="#000000" fill-opacity="0" font-family="Arial,Arial_MSFontService,sans-serif" font-size="48.7739" x="1482.01" y="296.002">𝑛</text><path d="M1597.05 240.749 1604.05 240.749 1604.05 269.155 1630.93 269.155 1630.93 275.714 1604.05 275.714 1604.05 304.12 1597.05 304.12 1597.05 275.714 1570.17 275.714 1570.17 269.155 1597.05 269.155Z" fill-rule="evenodd"/><text fill="#000000" fill-opacity="0" font-family="Arial,Arial_MSFontService,sans-serif" font-size="63.3716" x="1570.17" y="296.199">+</text><path d="M1692.14 233.203 1694.86 233.203C1694.66 236.36 1694.56 240.732 1694.56 246.322L1694.56 288.438C1694.56 290.345 1694.67 291.783 1694.88 292.753 1695.1 293.723 1695.47 294.512 1696.02 295.12 1696.56 295.728 1697.34 296.205 1698.36 296.55 1699.38 296.896 1700.66 297.159 1702.21 297.339 1703.75 297.52 1705.79 297.644 1708.32 297.709L1708.32 301.309 1671.88 301.309 1671.88 297.709C1675.53 297.545 1678.13 297.323 1679.69 297.044 1681.25 296.764 1682.45 296.345 1683.27 295.786 1684.09 295.227 1684.69 294.438 1685.07 293.419 1685.45 292.4 1685.63 290.739 1685.63 288.438L1685.63 248.442C1685.63 247.127 1685.4 246.165 1684.94 245.557 1684.48 244.949 1683.81 244.645 1682.92 244.645 1681.87 244.645 1680.37 245.187 1678.43 246.272 1676.49 247.357 1674.09 248.853 1671.23 250.76L1669.06 246.963Z" fill-rule="evenodd"/><text fill="#000000" fill-opacity="0" font-family="Arial,Arial_MSFontService,sans-serif" font-size="68.106" x="1669.06" y="292.796">1</text><path d="M1793.06 279.413 1853.82 279.413 1853.82 285.972 1793.06 285.972ZM1793.06 258.947 1853.82 258.947 1853.82 265.506 1793.06 265.506Z" fill-rule="evenodd"/><text fill="#000000" fill-opacity="0" font-family="Arial,Arial_MSFontService,sans-serif" font-size="27.0254" x="1793.06" y="282.594">=</text><path d="M1920.62 156.891 1923.34 156.891C1923.14 160.047 1923.04 164.42 1923.04 170.009L1923.04 212.125C1923.04 214.032 1923.15 215.471 1923.36 216.441 1923.57 217.41 1923.95 218.199 1924.5 218.808 1925.04 219.416 1925.82 219.893 1926.84 220.238 1927.86 220.583 1929.14 220.846 1930.68 221.027 1932.23 221.208 1934.27 221.331 1936.8 221.397L1936.8 224.997 1900.35 224.997 1900.35 221.397C1904 221.232 1906.61 221.01 1908.17 220.731 1909.73 220.452 1910.92 220.032 1911.75 219.473 1912.57 218.915 1913.17 218.125 1913.55 217.106 1913.92 216.087 1914.11 214.427 1914.11 212.125L1914.11 172.13C1914.11 170.815 1913.88 169.853 1913.42 169.245 1912.96 168.636 1912.29 168.332 1911.4 168.332 1910.35 168.332 1908.85 168.875 1906.91 169.96 1904.97 171.045 1902.57 172.541 1899.71 174.448L1897.54 170.65Z" fill-rule="evenodd"/><text fill="#000000" fill-opacity="0" font-family="Arial,Arial_MSFontService,sans-serif" font-size="68.1059" x="1897.54" y="216.484">1</text><path d="M1917.12 300.647C1923.24 300.647 1927.86 301.987 1930.98 304.666 1934.1 307.346 1935.67 311.234 1935.67 316.33 1935.67 318.072 1935.49 319.675 1935.15 321.138 1934.8 322.601 1934.26 324.048 1933.52 325.478 1932.78 326.908 1931.79 328.445 1930.54 330.089 1929.29 331.733 1927.91 333.401 1926.39 335.095 1924.88 336.788 1922.27 339.607 1918.55 343.552 1912.31 350.161 1907.72 355.931 1904.79 360.863L1923.39 360.863C1925 360.863 1926.3 360.764 1927.28 360.567 1928.27 360.369 1929.06 360.041 1929.65 359.58 1930.24 359.12 1930.71 358.52 1931.05 357.78 1931.4 357.04 1931.84 355.898 1932.36 354.353L1936.55 354.353 1935.71 368.753 1895.13 368.753 1895.13 366.386C1896.54 362.934 1898.45 359.399 1900.85 355.783 1903.25 352.166 1906.65 347.909 1911.06 343.01 1914.87 338.802 1917.62 335.613 1919.29 333.443 1921.13 331.075 1922.51 329.029 1923.41 327.303 1924.31 325.577 1924.96 323.949 1925.36 322.42 1925.75 320.892 1925.95 319.355 1925.95 317.809 1925.95 315.343 1925.56 313.165 1924.77 311.275 1923.98 309.384 1922.77 307.897 1921.14 306.812 1919.51 305.727 1917.47 305.184 1915 305.184 1908.85 305.184 1904.71 308.604 1902.57 315.442L1896.61 315.442 1896.61 305.973C1900.58 304.099 1904.31 302.743 1907.78 301.905 1911.25 301.066 1914.36 300.647 1917.12 300.647Z" fill-rule="evenodd"/><text fill="#000000" fill-opacity="0" font-family="Arial,Arial_MSFontService,sans-serif" font-size="68.106" x="1895.13" y="360.24">2</text><path d="M1888.46 269.314 1944.46 269.314 1944.46 276.314 1888.46 276.314Z" fill-rule="evenodd"/><path d="M1997.53 238.332C1995.49 238.332 1993.36 238.382 1991.12 238.48L1984.41 268.366 1989.54 268.366C1993.52 268.366 1996.73 267.955 1999.18 267.133 2001.63 266.311 2003.64 265.037 2005.2 263.311 2006.76 261.585 2007.97 259.538 2008.83 257.171 2009.68 254.804 2010.11 252.207 2010.11 249.379 2010.11 245.565 2009.14 242.771 2007.2 240.995 2005.26 239.22 2002.04 238.332 1997.53 238.332ZM1976.87 233.993 1998.62 233.993C2002.53 233.993 2005.74 234.297 2008.26 234.905 2010.77 235.513 2012.84 236.45 2014.47 237.716 2016.1 238.982 2017.32 240.584 2018.12 242.524 2018.93 244.464 2019.33 246.716 2019.33 249.281 2019.33 254.212 2018.16 258.486 2015.83 262.103 2013.49 265.719 2010.33 268.383 2006.33 270.092 2002.34 271.802 1997.55 272.657 1991.96 272.657 1988.61 272.657 1985.81 272.591 1983.58 272.459L1980.42 286.958C1980.12 288.306 1979.92 289.342 1979.8 290.065 1979.69 290.789 1979.59 291.569 1979.51 292.408 1979.42 293.246 1979.38 293.994 1979.38 294.652 1979.38 295.671 1979.55 296.468 1979.88 297.044 1980.21 297.619 1980.7 298.038 1981.36 298.301 1982.01 298.564 1983.15 298.761 1984.76 298.893L1984.22 301.309 1963.95 301.309 1964.49 298.893C1965.74 298.696 1966.68 298.375 1967.3 297.931 1967.93 297.487 1968.45 296.871 1968.88 296.082 1969.31 295.293 1969.7 294.331 1970.06 293.197 1970.42 292.063 1970.97 289.868 1971.69 286.613L1980.07 248.639C1980.8 245.352 1981.16 242.754 1981.16 240.848 1981.16 239.237 1980.78 238.119 1980.02 237.494 1979.27 236.869 1978.04 236.508 1976.33 236.409Z" fill-rule="evenodd"/><text fill="#000000" fill-opacity="0" font-family="Arial,Arial_MSFontService,sans-serif" font-size="67.3169" x="1963.95" y="292.895">𝑃</text><path d="M2411.31 225.67C2420.91 228.202 2428.28 233.668 2433.43 242.068 2438.57 250.468 2441.15 260.603 2441.15 272.471 2441.15 284.373 2438.58 294.508 2433.45 302.875 2428.32 311.242 2420.94 316.692 2411.31 319.223L2410.12 315.426C2417.72 312.894 2423.37 307.897 2427.06 300.434 2430.76 292.971 2432.61 283.485 2432.61 271.978 2432.61 260.866 2430.77 251.635 2427.09 244.287 2423.41 236.939 2417.7 231.999 2409.98 229.467ZM2064.75 225.67 2066.08 229.467C2058.39 231.999 2052.69 236.939 2048.99 244.287 2045.29 251.635 2043.44 260.866 2043.44 271.978 2043.44 283.485 2045.29 292.971 2048.99 300.434 2052.69 307.897 2058.34 312.894 2065.93 315.426L2064.75 319.223C2055.12 316.692 2047.74 311.242 2042.61 302.875 2037.48 294.508 2034.91 284.373 2034.91 272.471 2034.91 260.603 2037.49 250.468 2042.63 242.068 2047.78 233.668 2055.15 228.202 2064.75 225.67Z" fill-rule="evenodd"/><path d="M2081.74 233.993 2101.66 233.993 2101.12 236.409C2099.71 236.639 2098.58 237.124 2097.74 237.864 2096.9 238.604 2096.49 239.68 2096.49 241.094 2096.49 243.198 2097.03 245.845 2098.11 249.034L2102.21 260.969 2111.33 249.429C2112.74 247.653 2113.84 246.198 2114.63 245.064 2115.42 243.93 2115.99 242.927 2116.34 242.056 2116.68 241.185 2116.85 240.42 2116.85 239.763 2116.85 238.875 2116.59 238.119 2116.06 237.494 2115.54 236.869 2114.63 236.508 2113.35 236.409L2113.89 233.993 2132.29 233.993 2131.75 236.409C2130.76 236.705 2129.83 237.182 2128.96 237.839 2128.09 238.497 2127.05 239.483 2125.85 240.798 2124.65 242.113 2122.43 244.711 2119.17 248.59L2104.47 266.147 2111.68 286.169C2112.76 289.194 2113.65 291.504 2114.34 293.098 2115.03 294.693 2115.64 295.868 2116.16 296.624 2116.59 297.183 2117.03 297.619 2117.49 297.931 2117.95 298.244 2118.73 298.564 2119.81 298.893L2119.32 301.309 2099.4 301.309 2099.89 298.893C2101.4 298.663 2102.56 298.145 2103.37 297.339 2104.17 296.534 2104.57 295.49 2104.57 294.208 2104.57 292.268 2104.18 290.115 2103.39 287.747L2098.26 272.706 2087.02 286.761C2085.34 288.865 2084.12 290.583 2083.37 291.915 2082.61 293.246 2082.23 294.389 2082.23 295.342 2082.23 296.624 2082.54 297.504 2083.15 297.981 2083.75 298.457 2084.62 298.761 2085.73 298.893L2085.19 301.309 2066.85 301.309 2067.34 298.893C2068.36 298.564 2069.29 298.087 2070.13 297.463 2070.96 296.838 2072.05 295.778 2073.38 294.282 2074.71 292.786 2077.04 290.065 2080.36 286.12L2095.99 267.528 2088.69 247.259C2087.48 243.872 2086.52 241.53 2085.83 240.231 2085.14 238.932 2084.46 238.02 2083.79 237.494 2083.11 236.968 2082.25 236.606 2081.2 236.409Z" fill-rule="evenodd"/><text fill="#000000" fill-opacity="0" font-family="Arial,Arial_MSFontService,sans-serif" font-size="67.3169" x="2066.85" y="292.895">𝑋</text><path d="M2192.28 240.749 2199.29 240.749 2199.29 269.155 2226.17 269.155 2226.17 275.714 2199.29 275.714 2199.29 304.12 2192.28 304.12 2192.28 275.714 2165.41 275.714 2165.41 269.155 2192.28 269.155Z" fill-rule="evenodd"/><text fill="#000000" fill-opacity="0" font-family="Arial,Arial_MSFontService,sans-serif" font-size="63.3716" x="2165.41" y="296.199">+</text><path d="M2287.38 233.203 2290.09 233.203C2289.9 236.36 2289.8 240.732 2289.8 246.322L2289.8 288.438C2289.8 290.345 2289.91 291.783 2290.12 292.753 2290.33 293.723 2290.71 294.512 2291.25 295.12 2291.8 295.728 2292.58 296.205 2293.6 296.55 2294.62 296.896 2295.9 297.159 2297.44 297.339 2298.99 297.52 2301.03 297.644 2303.56 297.709L2303.56 301.309 2267.11 301.309 2267.11 297.709C2270.76 297.545 2273.37 297.323 2274.93 297.044 2276.49 296.764 2277.68 296.345 2278.51 295.786 2279.33 295.227 2279.93 294.438 2280.31 293.419 2280.68 292.4 2280.87 290.739 2280.87 288.438L2280.87 248.442C2280.87 247.127 2280.64 246.165 2280.18 245.557 2279.72 244.949 2279.05 244.645 2278.16 244.645 2277.11 244.645 2275.61 245.187 2273.67 246.272 2271.73 247.357 2269.33 248.853 2266.47 250.76L2264.3 246.963Z" fill-rule="evenodd"/><text fill="#000000" fill-opacity="0" font-family="Arial,Arial_MSFontService,sans-serif" font-size="68.106" x="2264.3" y="292.796">1</text><path d="M2317.71 289.868 2326.34 289.868C2326.8 292.169 2327.03 294.438 2327.03 296.674 2327.03 298.975 2326.63 301.079 2325.84 302.986 2325.05 304.893 2323.8 306.792 2322.07 308.682 2320.34 310.573 2317.97 312.652 2314.94 314.921L2312.28 311.912C2313.96 310.334 2315.17 308.912 2315.93 307.647 2316.69 306.381 2317.23 304.942 2317.56 303.331 2317.89 301.72 2318.05 299.698 2318.05 297.265 2318.05 294.767 2317.94 292.301 2317.71 289.868Z" fill-rule="evenodd"/><text fill="#000000" fill-opacity="0" font-family="Arial,Arial_MSFontService,sans-serif" font-size="25.0527" x="2312.28" y="311.789">,</text><path d="M2364.05 253.325C2366.13 253.325 2367.76 254.007 2368.96 255.371 2370.16 256.736 2370.76 258.519 2370.76 260.722 2370.76 262.465 2370.37 264.404 2369.58 266.541L2370.17 266.739C2373.39 262.202 2376.46 258.84 2379.37 256.653 2382.28 254.467 2385.28 253.374 2388.37 253.374 2391.42 253.374 2393.78 254.253 2395.42 256.012 2397.06 257.771 2397.89 260.212 2397.89 263.336 2397.89 265.407 2397.41 268.35 2396.46 272.163L2393.25 285.084C2392.36 288.668 2391.92 291.2 2391.92 292.679 2391.92 293.994 2392.13 294.948 2392.56 295.539 2392.99 296.131 2393.66 296.427 2394.58 296.427 2395.57 296.427 2396.62 296.024 2397.74 295.219 2398.86 294.413 2400.43 292.876 2402.47 290.608L2405.28 293.369C2402.46 296.394 2399.99 298.605 2397.89 300.003 2395.78 301.4 2393.38 302.098 2390.69 302.098 2388.55 302.098 2386.84 301.334 2385.56 299.805 2384.27 298.276 2383.63 296.328 2383.63 293.961 2383.63 291.824 2384.18 288.684 2385.26 284.542L2387.43 276.01C2388.22 272.92 2388.74 270.635 2388.98 269.155 2389.23 267.676 2389.35 266.476 2389.35 265.555 2389.35 263.286 2388.98 261.651 2388.22 260.648 2387.46 259.645 2386.23 259.144 2384.52 259.144 2383.14 259.144 2381.65 259.695 2380.06 260.796 2378.46 261.897 2376.77 263.558 2374.98 265.777 2373.19 267.996 2371.75 270.15 2370.66 272.237 2369.58 274.325 2368.69 276.898 2368 279.955L2363.31 301.309 2354.78 301.309 2361.98 270.043C2362.71 266.887 2363.07 264.454 2363.07 262.744 2363.07 261.429 2362.85 260.475 2362.43 259.884 2362 259.292 2361.33 258.996 2360.4 258.996 2359.39 258.996 2358.31 259.415 2357.17 260.254 2356.04 261.092 2354.49 262.612 2352.51 264.815L2349.7 262.054C2352.73 258.897 2355.24 256.653 2357.25 255.322 2359.25 253.99 2361.52 253.325 2364.05 253.325Z" fill-rule="evenodd"/><text fill="#000000" fill-opacity="0" font-family="Arial,Arial_MSFontService,sans-serif" font-size="48.7739" x="2349.7" y="296.002">𝑛</text><path d="M2506.59 240.749 2513.59 240.749 2513.59 269.155 2540.47 269.155 2540.47 275.714 2513.59 275.714 2513.59 304.12 2506.59 304.12 2506.59 275.714 2479.71 275.714 2479.71 269.155 2506.59 269.155Z" fill-rule="evenodd"/><text fill="#000000" fill-opacity="0" font-family="Arial,Arial_MSFontService,sans-serif" font-size="63.3716" x="2479.71" y="296.199">+</text><path d="M2601.68 156.891 2604.4 156.891C2604.2 160.047 2604.1 164.42 2604.1 170.009L2604.1 212.125C2604.1 214.032 2604.21 215.471 2604.42 216.441 2604.63 217.41 2605.01 218.199 2605.56 218.808 2606.1 219.416 2606.88 219.893 2607.9 220.238 2608.92 220.583 2610.2 220.846 2611.74 221.027 2613.29 221.208 2615.33 221.331 2617.86 221.397L2617.86 224.997 2581.42 224.997 2581.42 221.397C2585.06 221.232 2587.67 221.01 2589.23 220.731 2590.79 220.452 2591.99 220.032 2592.81 219.473 2593.63 218.915 2594.23 218.125 2594.61 217.106 2594.99 216.087 2595.17 214.427 2595.17 212.125L2595.17 172.13C2595.17 170.815 2594.94 169.853 2594.48 169.245 2594.02 168.636 2593.35 168.332 2592.46 168.332 2591.41 168.332 2589.91 168.875 2587.97 169.96 2586.03 171.045 2583.63 172.541 2580.77 174.448L2578.6 170.65Z" fill-rule="evenodd"/><text fill="#000000" fill-opacity="0" font-family="Arial,Arial_MSFontService,sans-serif" font-size="68.1059" x="2578.6" y="216.484">1</text><path d="M2598.18 300.647C2604.3 300.647 2608.92 301.987 2612.04 304.666 2615.16 307.346 2616.73 311.234 2616.73 316.33 2616.73 318.072 2616.55 319.675 2616.21 321.138 2615.86 322.601 2615.32 324.048 2614.58 325.478 2613.84 326.908 2612.85 328.445 2611.6 330.089 2610.35 331.733 2608.97 333.401 2607.45 335.095 2605.94 336.788 2603.33 339.607 2599.61 343.552 2593.37 350.161 2588.78 355.931 2585.85 360.863L2604.45 360.863C2606.06 360.863 2607.36 360.764 2608.34 360.567 2609.33 360.369 2610.12 360.041 2610.71 359.58 2611.3 359.12 2611.77 358.52 2612.11 357.78 2612.46 357.04 2612.9 355.898 2613.42 354.353L2617.61 354.353 2616.77 368.753 2576.19 368.753 2576.19 366.386C2577.6 362.934 2579.51 359.399 2581.91 355.783 2584.31 352.166 2587.71 347.909 2592.12 343.01 2595.93 338.802 2598.68 335.613 2600.35 333.443 2602.19 331.075 2603.57 329.029 2604.47 327.303 2605.37 325.577 2606.02 323.949 2606.42 322.42 2606.81 320.892 2607.01 319.355 2607.01 317.809 2607.01 315.343 2606.62 313.165 2605.83 311.275 2605.04 309.384 2603.83 307.897 2602.2 306.812 2600.57 305.727 2598.53 305.184 2596.06 305.184 2589.91 305.184 2585.77 308.604 2583.63 315.442L2577.67 315.442 2577.67 305.973C2581.65 304.099 2585.37 302.743 2588.84 301.905 2592.31 301.066 2595.42 300.647 2598.18 300.647Z" fill-rule="evenodd"/><text fill="#000000" fill-opacity="0" font-family="Arial,Arial_MSFontService,sans-serif" font-size="68.106" x="2576.19" y="360.24">2</text><path d="M2569.46 269.314 2625.46 269.314 2625.46 276.314 2569.46 276.314Z" fill-rule="evenodd"/><path d="M2678.59 238.332C2676.55 238.332 2674.42 238.382 2672.18 238.48L2665.47 268.366 2670.6 268.366C2674.58 268.366 2677.79 267.955 2680.24 267.133 2682.69 266.311 2684.7 265.037 2686.26 263.311 2687.82 261.585 2689.03 259.538 2689.89 257.171 2690.74 254.804 2691.17 252.207 2691.17 249.379 2691.17 245.565 2690.2 242.771 2688.26 240.995 2686.32 239.22 2683.1 238.332 2678.59 238.332ZM2657.93 233.993 2679.68 233.993C2683.59 233.993 2686.8 234.297 2689.32 234.905 2691.83 235.513 2693.9 236.45 2695.53 237.716 2697.16 238.982 2698.38 240.584 2699.18 242.524 2699.99 244.464 2700.39 246.716 2700.39 249.281 2700.39 254.212 2699.22 258.486 2696.89 262.103 2694.55 265.719 2691.39 268.383 2687.4 270.092 2683.4 271.802 2678.61 272.657 2673.02 272.657 2669.67 272.657 2666.87 272.591 2664.64 272.459L2661.48 286.958C2661.18 288.306 2660.98 289.342 2660.86 290.065 2660.75 290.789 2660.65 291.569 2660.57 292.408 2660.48 293.246 2660.44 293.994 2660.44 294.652 2660.44 295.671 2660.61 296.468 2660.94 297.044 2661.27 297.619 2661.76 298.038 2662.42 298.301 2663.07 298.564 2664.21 298.761 2665.82 298.893L2665.28 301.309 2645.01 301.309 2645.55 298.893C2646.8 298.696 2647.74 298.375 2648.36 297.931 2648.99 297.487 2649.51 296.871 2649.94 296.082 2650.37 295.293 2650.76 294.331 2651.12 293.197 2651.48 292.063 2652.03 289.868 2652.75 286.613L2661.13 248.639C2661.86 245.352 2662.22 242.754 2662.22 240.848 2662.22 239.237 2661.84 238.119 2661.08 237.494 2660.33 236.869 2659.1 236.508 2657.39 236.409Z" fill-rule="evenodd"/><text fill="#000000" fill-opacity="0" font-family="Arial,Arial_MSFontService,sans-serif" font-size="67.3169" x="2645.01" y="292.895">𝑃</text><path d="M2745.81 230.047 2747.14 233.845C2739.45 236.376 2733.75 241.316 2730.05 248.664 2726.35 256.012 2724.51 265.243 2724.51 276.355 2724.51 287.862 2726.35 297.348 2730.05 304.811 2733.75 312.274 2739.4 317.271 2746.99 319.803L2745.81 323.6C2736.18 321.069 2728.8 315.619 2723.67 307.252 2718.54 298.885 2715.97 288.75 2715.97 276.848 2715.97 264.98 2718.55 254.845 2723.69 246.445 2728.84 238.045 2736.21 232.579 2745.81 230.047Z" fill-rule="evenodd"/><text fill="#000000" fill-opacity="0" font-family="Arial,Arial_MSFontService,sans-serif" font-size="93.5532" x="2715.97" y="311.906">(</text><path d="M2762.78 233.993 2782.7 233.993 2782.16 236.409C2780.74 236.639 2779.62 237.124 2778.78 237.864 2777.94 238.604 2777.52 239.68 2777.52 241.094 2777.52 243.198 2778.07 245.845 2779.15 249.034L2783.24 260.969 2792.37 249.429C2793.78 247.653 2794.88 246.198 2795.67 245.064 2796.46 243.93 2797.03 242.927 2797.37 242.056 2797.72 241.185 2797.89 240.42 2797.89 239.763 2797.89 238.875 2797.63 238.119 2797.1 237.494 2796.58 236.869 2795.67 236.508 2794.39 236.409L2794.93 233.993 2813.33 233.993 2812.78 236.409C2811.8 236.705 2810.87 237.182 2810 237.839 2809.13 238.497 2808.09 239.483 2806.89 240.798 2805.69 242.113 2803.46 244.711 2800.21 248.59L2785.51 266.147 2792.71 286.169C2793.8 289.194 2794.69 291.504 2795.38 293.098 2796.07 294.693 2796.67 295.868 2797.2 296.624 2797.63 297.183 2798.07 297.619 2798.53 297.931 2798.99 298.244 2799.76 298.564 2800.85 298.893L2800.36 301.309 2780.43 301.309 2780.93 298.893C2782.44 298.663 2783.6 298.145 2784.4 297.339 2785.21 296.534 2785.61 295.49 2785.61 294.208 2785.61 292.268 2785.22 290.115 2784.43 287.747L2779.3 272.706 2768.05 286.761C2766.38 288.865 2765.16 290.583 2764.4 291.915 2763.65 293.246 2763.27 294.389 2763.27 295.342 2763.27 296.624 2763.57 297.504 2764.18 297.981 2764.79 298.457 2765.65 298.761 2766.77 298.893L2766.23 301.309 2747.88 301.309 2748.38 298.893C2749.4 298.564 2750.32 298.087 2751.16 297.463 2752 296.838 2753.09 295.778 2754.42 294.282 2755.75 292.786 2758.08 290.065 2761.4 286.12L2777.03 267.528 2769.73 247.259C2768.51 243.872 2767.56 241.53 2766.87 240.231 2766.18 238.932 2765.5 238.02 2764.82 237.494 2764.15 236.968 2763.29 236.606 2762.23 236.409Z" fill-rule="evenodd"/><text fill="#000000" fill-opacity="0" font-family="Arial,Arial_MSFontService,sans-serif" font-size="67.3169" x="2747.88" y="292.895">𝑋</text><path d="M2846.44 269.155 2907.2 269.155 2907.2 275.714 2846.44 275.714Z" fill-rule="evenodd"/><text fill="#000000" fill-opacity="0" font-family="Arial,Arial_MSFontService,sans-serif" font-size="6.55908" x="2846.44" y="274.894">−</text><path d="M2968.42 233.203 2971.13 233.203C2970.93 236.36 2970.84 240.732 2970.84 246.322L2970.84 288.438C2970.84 290.345 2970.94 291.783 2971.16 292.753 2971.37 293.723 2971.75 294.512 2972.29 295.12 2972.83 295.728 2973.61 296.205 2974.63 296.55 2975.65 296.896 2976.94 297.159 2978.48 297.339 2980.03 297.52 2982.06 297.644 2984.6 297.709L2984.6 301.309 2948.15 301.309 2948.15 297.709C2951.8 297.545 2954.41 297.323 2955.97 297.044 2957.53 296.764 2958.72 296.345 2959.54 295.786 2960.36 295.227 2960.96 294.438 2961.34 293.419 2961.72 292.4 2961.91 290.739 2961.91 288.438L2961.91 248.442C2961.91 247.127 2961.68 246.165 2961.22 245.557 2960.76 244.949 2960.09 244.645 2959.2 244.645 2958.15 244.645 2956.65 245.187 2954.71 246.272 2952.77 247.357 2950.37 248.853 2947.51 250.76L2945.34 246.963Z" fill-rule="evenodd"/><text fill="#000000" fill-opacity="0" font-family="Arial,Arial_MSFontService,sans-serif" font-size="68.106" x="2945.34" y="292.796">1</text><path d="M2998.74 289.868 3007.37 289.868C3007.83 292.169 3008.06 294.438 3008.06 296.674 3008.06 298.975 3007.67 301.079 3006.88 302.986 3006.09 304.893 3004.83 306.792 3003.11 308.682 3001.38 310.573 2999.01 312.652 2995.98 314.921L2993.32 311.912C2994.99 310.334 2996.21 308.912 2996.97 307.647 2997.72 306.381 2998.27 304.942 2998.59 303.331 2998.92 301.72 2999.09 299.698 2999.09 297.265 2999.09 294.767 2998.97 292.301 2998.74 289.868Z" fill-rule="evenodd"/><text fill="#000000" fill-opacity="0" font-family="Arial,Arial_MSFontService,sans-serif" font-size="25.0527" x="2993.32" y="311.789">,</text><path d="M3045.09 253.325C3047.16 253.325 3048.8 254.007 3050 255.371 3051.2 256.736 3051.8 258.519 3051.8 260.722 3051.8 262.465 3051.4 264.404 3050.62 266.541L3051.21 266.739C3054.43 262.202 3057.49 258.84 3060.4 256.653 3063.31 254.467 3066.31 253.374 3069.4 253.374 3072.46 253.374 3074.81 254.253 3076.46 256.012 3078.1 257.771 3078.92 260.212 3078.92 263.336 3078.92 265.407 3078.45 268.35 3077.49 272.163L3074.29 285.084C3073.4 288.668 3072.96 291.2 3072.96 292.679 3072.96 293.994 3073.17 294.948 3073.6 295.539 3074.02 296.131 3074.7 296.427 3075.62 296.427 3076.6 296.427 3077.66 296.024 3078.77 295.219 3079.89 294.413 3081.47 292.876 3083.51 290.608L3086.32 293.369C3083.49 296.394 3081.03 298.605 3078.92 300.003 3076.82 301.4 3074.42 302.098 3071.72 302.098 3069.59 302.098 3067.88 301.334 3066.59 299.805 3065.31 298.276 3064.67 296.328 3064.67 293.961 3064.67 291.824 3065.21 288.684 3066.3 284.542L3068.47 276.01C3069.26 272.92 3069.77 270.635 3070.02 269.155 3070.27 267.676 3070.39 266.476 3070.39 265.555 3070.39 263.286 3070.01 261.651 3069.26 260.648 3068.5 259.645 3067.27 259.144 3065.56 259.144 3064.18 259.144 3062.69 259.695 3061.09 260.796 3059.5 261.897 3057.81 263.558 3056.02 265.777 3054.22 267.996 3052.79 270.15 3051.7 272.237 3050.62 274.325 3049.73 276.898 3049.04 279.955L3044.35 301.309 3035.82 301.309 3043.02 270.043C3043.74 266.887 3044.11 264.454 3044.11 262.744 3044.11 261.429 3043.89 260.475 3043.46 259.884 3043.04 259.292 3042.36 258.996 3041.44 258.996 3040.42 258.996 3039.35 259.415 3038.21 260.254 3037.08 261.092 3035.52 262.612 3033.55 264.815L3030.74 262.054C3033.77 258.897 3036.28 256.653 3038.29 255.322 3040.29 253.99 3042.56 253.325 3045.09 253.325Z" fill-rule="evenodd"/><text fill="#000000" fill-opacity="0" font-family="Arial,Arial_MSFontService,sans-serif" font-size="48.7739" x="3030.74" y="296.002">𝑛</text><path d="M3092.35 230.047C3101.95 232.579 3109.32 238.045 3114.46 246.445 3119.61 254.845 3122.18 264.98 3122.18 276.848 3122.18 288.75 3119.62 298.885 3114.49 307.252 3109.36 315.619 3101.98 321.069 3092.35 323.6L3091.16 319.803C3098.76 317.271 3104.4 312.274 3108.1 304.811 3111.8 297.348 3113.65 287.862 3113.65 276.355 3113.65 265.243 3111.81 256.012 3108.13 248.664 3104.44 241.316 3098.74 236.376 3091.01 233.845Z" fill-rule="evenodd"/><text fill="#000000" fill-opacity="0" font-family="Arial,Arial_MSFontService,sans-serif" font-size="93.5532" x="3091.01" y="311.906">)</text></g></svg>