<svg width="3797" height="390" xmlns="http://www.w3.org/2000/svg" xmlns:xlink="http://www.w3.org/1999/xlink" xml:space="preserve" overflow="hidden"><g transform="translate(-272 -532)"><path d="M330.19 659.801C328.184 659.801 326.269 660.319 324.444 661.354 322.62 662.39 320.984 663.878 319.537 665.818 318.091 667.757 316.883 670.01 315.913 672.574 314.943 675.138 314.187 677.744 313.644 680.391 313.102 683.037 312.83 685.791 312.83 688.651 312.83 691.61 313.151 693.92 313.792 695.58 314.433 697.24 315.28 698.383 316.332 699.008 317.384 699.632 318.699 699.945 320.277 699.945 323.828 699.945 326.861 698.523 329.376 695.679 331.891 692.835 334.036 688.561 335.812 682.856 337.587 677.152 338.475 672.656 338.475 669.368 338.475 666.015 337.793 663.582 336.428 662.07 335.064 660.557 332.984 659.801 330.19 659.801ZM332.754 632.184C338.245 632.184 342.354 634.05 345.083 637.781 347.812 641.513 349.177 647.16 349.177 654.721 349.177 657.713 348.914 661.272 348.387 665.398 347.861 669.525 346.974 673.823 345.724 678.295 344.475 682.766 343.028 686.563 341.385 689.687 339.741 692.81 337.916 695.391 335.91 697.429 333.905 699.468 331.595 701.046 328.981 702.164 326.368 703.282 323.417 703.841 320.129 703.841 316.809 703.841 313.932 703.158 311.499 701.794 309.066 700.43 307.225 698.457 305.975 695.876 304.726 693.295 304.101 690.131 304.101 686.383 304.101 682.7 304.677 679.043 305.827 675.41 306.978 671.777 308.663 668.472 310.882 665.497 313.102 662.522 315.748 660.179 318.822 658.469 321.896 656.76 325.192 655.905 328.71 655.905 331.077 655.905 333.149 656.176 334.924 656.719 336.699 657.261 338.672 658.322 340.842 659.9L340.941 658.667C341.039 657.089 341.089 655.724 341.089 654.573 341.089 651.878 340.924 649.445 340.595 647.275 340.267 645.105 339.716 643.239 338.943 641.677 338.171 640.116 337.135 638.916 335.836 638.077 334.538 637.239 332.902 636.82 330.929 636.82 328.529 636.82 326.302 637.387 324.247 638.521 322.192 639.655 320.178 641.406 318.206 643.773L314.655 643.773 314.655 639.68C317.778 637.477 320.203 635.907 321.929 634.97 323.655 634.033 325.381 633.335 327.107 632.874 328.834 632.414 330.716 632.184 332.754 632.184Z" fill-rule="evenodd"/><text fill="#000000" fill-opacity="0" font-family="Arial,Arial_MSFontService,sans-serif" font-size="71.6567" x="304.101" y="694.883">∂</text><path d="M391.354 640.074C389.316 640.074 387.179 640.124 384.943 640.222L378.236 670.108 383.365 670.108C387.343 670.108 390.557 669.697 393.006 668.875 395.456 668.053 397.461 666.779 399.023 665.053 400.585 663.327 401.793 661.281 402.648 658.913 403.503 656.546 403.93 653.949 403.93 651.121 403.93 647.308 402.96 644.513 401.02 642.738 399.081 640.962 395.859 640.074 391.354 640.074ZM370.691 635.735 392.439 635.735C396.352 635.735 399.565 636.039 402.081 636.647 404.596 637.255 406.667 638.192 408.294 639.458 409.922 640.724 411.138 642.327 411.944 644.266 412.749 646.206 413.152 648.458 413.152 651.023 413.152 655.954 411.985 660.228 409.651 663.845 407.316 667.461 404.152 670.125 400.157 671.834 396.163 673.544 391.371 674.399 385.782 674.399 382.428 674.399 379.633 674.333 377.398 674.201L374.241 688.7C373.946 690.048 373.74 691.084 373.625 691.807 373.51 692.531 373.411 693.312 373.329 694.15 373.247 694.988 373.206 695.736 373.206 696.394 373.206 697.413 373.37 698.21 373.699 698.786 374.028 699.361 374.521 699.78 375.178 700.043 375.836 700.306 376.97 700.503 378.581 700.635L378.039 703.052 357.77 703.052 358.312 700.635C359.562 700.438 360.499 700.117 361.123 699.673 361.748 699.229 362.274 698.613 362.701 697.824 363.129 697.035 363.523 696.073 363.885 694.939 364.247 693.805 364.789 691.61 365.512 688.355L373.896 650.382C374.62 647.094 374.981 644.497 374.981 642.59 374.981 640.979 374.603 639.861 373.847 639.236 373.091 638.611 371.858 638.25 370.148 638.151Z" fill-rule="evenodd"/><text fill="#000000" fill-opacity="0" font-family="Arial,Arial_MSFontService,sans-serif" font-size="67.3169" x="357.77" y="694.637">𝑃</text><path d="M458.572 631.789 459.904 635.587C452.21 638.118 446.514 643.058 442.816 650.406 439.117 657.754 437.267 666.985 437.267 678.097 437.267 689.605 439.117 699.09 442.816 706.553 446.514 714.016 452.161 719.014 459.756 721.545L458.572 725.343C448.939 722.811 441.558 717.362 436.429 708.994 431.3 700.627 428.736 690.492 428.736 678.591 428.736 666.722 431.308 656.587 436.454 648.187 441.599 639.787 448.972 634.321 458.572 631.789Z" fill-rule="evenodd"/><text fill="#000000" fill-opacity="0" font-family="Arial,Arial_MSFontService,sans-serif" font-size="93.5532" x="428.736" y="713.648">(</text><path d="M481.162 655.067C482.181 655.067 483.077 655.182 483.849 655.412 484.622 655.642 485.304 655.995 485.896 656.472 486.488 656.949 487.014 657.565 487.474 658.322 487.934 659.078 488.378 660.105 488.806 661.404 489.233 662.702 489.636 664.313 490.014 666.237 490.392 668.16 490.729 670.157 491.025 672.229L491.518 672.229C494.674 667.79 497.066 664.544 498.694 662.489 500.321 660.434 501.694 658.905 502.812 657.902 503.929 656.9 505.006 656.193 506.042 655.782 507.077 655.371 508.45 655.165 510.16 655.165 511.705 655.165 512.971 655.363 513.957 655.757L511.984 664.683 508.532 664.683C508.335 663.302 507.76 662.612 506.806 662.612 506.51 662.612 506.198 662.661 505.869 662.76 505.54 662.859 505.138 663.072 504.661 663.401 504.184 663.73 503.486 664.371 502.565 665.324 501.644 666.278 500.609 667.445 499.458 668.826 498.307 670.207 497.124 671.653 495.907 673.166L492.554 677.358C493.146 680.514 493.704 683.243 494.23 685.544 494.757 687.846 495.225 689.761 495.636 691.29 496.047 692.818 496.409 694.027 496.721 694.914 497.033 695.802 497.37 696.468 497.732 696.912 498.094 697.355 498.464 697.668 498.842 697.849 499.22 698.029 499.655 698.12 500.148 698.12 501.036 698.12 501.899 697.775 502.738 697.084 503.576 696.394 504.784 694.832 506.362 692.399L509.568 694.52C507.266 697.939 505.187 700.347 503.329 701.745 501.472 703.142 499.261 703.841 496.696 703.841 495.283 703.841 494.083 703.586 493.096 703.076 492.11 702.567 491.255 701.753 490.532 700.635 489.808 699.517 489.167 697.775 488.608 695.407 487.589 691.199 486.965 687.977 486.734 685.741L486.241 685.741C482.756 690.64 480.167 694.158 478.474 696.295 476.781 698.432 475.383 700.01 474.282 701.03 473.181 702.049 472.112 702.764 471.076 703.175 470.041 703.586 468.668 703.791 466.959 703.791 465.413 703.791 464.147 703.594 463.161 703.199L465.134 694.273 468.586 694.273C468.783 695.654 469.359 696.344 470.312 696.344 470.772 696.344 471.257 696.221 471.767 695.975 472.276 695.728 473.008 695.136 473.961 694.199 474.915 693.262 476.23 691.791 477.907 689.785 479.584 687.78 482.016 684.772 485.206 680.76 484.712 678.163 484.203 675.664 483.677 673.264 483.151 670.864 482.608 668.629 482.049 666.557 481.49 664.486 481.03 663.13 480.668 662.489 480.307 661.848 479.921 661.404 479.51 661.157 479.099 660.911 478.581 660.787 477.956 660.787 477.266 660.787 476.641 660.944 476.082 661.256 475.523 661.568 474.915 662.111 474.257 662.883 473.6 663.656 472.729 664.864 471.644 666.508L468.438 664.387C470.509 661.264 472.498 658.93 474.405 657.385 476.312 655.839 478.564 655.067 481.162 655.067Z" fill-rule="evenodd"/><text fill="#000000" fill-opacity="0" font-family="Arial,Arial_MSFontService,sans-serif" font-size="48.7739" x="463.161" y="697.744">𝑥</text><path d="M525.192 691.61 533.823 691.61C534.283 693.912 534.513 696.18 534.513 698.416 534.513 700.717 534.118 702.821 533.329 704.728 532.54 706.635 531.283 708.534 529.557 710.424 527.831 712.315 525.455 714.394 522.43 716.663L519.767 713.655C521.444 712.076 522.661 710.654 523.417 709.389 524.173 708.123 524.715 706.685 525.044 705.073 525.373 703.462 525.537 701.44 525.537 699.008 525.537 696.509 525.422 694.043 525.192 691.61Z" fill-rule="evenodd"/><text fill="#000000" fill-opacity="0" font-family="Arial,Arial_MSFontService,sans-serif" font-size="25.0527" x="519.767" y="713.531">,</text><path d="M575.289 643.724 582.095 643.724 579.383 655.905 594.375 655.905 593.29 660.886 578.298 660.886 573.909 680.021C573.054 683.736 572.511 686.407 572.281 688.035 572.051 689.662 571.936 690.969 571.936 691.955 571.936 696.032 573.629 698.071 577.015 698.071 578.462 698.071 579.999 697.52 581.627 696.418 583.254 695.317 585.186 693.435 587.421 690.772L590.282 693.731C587.421 697.183 584.668 699.731 582.021 701.375 579.374 703.019 576.604 703.841 573.711 703.841 566.84 703.841 563.404 700.372 563.404 693.435 563.404 691.232 563.684 688.914 564.242 686.481L570.062 660.886 561.777 660.886 562.516 657.483C564.456 657.45 565.927 657.302 566.93 657.039 567.933 656.776 568.771 656.415 569.445 655.954 570.119 655.494 570.736 654.836 571.295 653.982 571.854 653.127 572.396 652.034 572.922 650.702 573.448 649.371 574.237 647.044 575.289 643.724Z" fill-rule="evenodd"/><text fill="#000000" fill-opacity="0" font-family="Arial,Arial_MSFontService,sans-serif" font-size="60.1167" x="561.777" y="696.326">𝑡</text><path d="M601.196 631.789C610.796 634.321 618.169 639.787 623.314 648.187 628.459 656.587 631.032 666.722 631.032 678.591 631.032 690.492 628.468 700.627 623.339 708.994 618.21 717.362 610.829 722.811 601.196 725.343L600.012 721.545C607.607 719.014 613.253 714.016 616.952 706.553 620.651 699.09 622.5 689.605 622.5 678.097 622.5 666.985 620.659 657.754 616.977 650.406 613.294 643.058 607.59 638.118 599.864 635.587Z" fill-rule="evenodd"/><text fill="#000000" fill-opacity="0" font-family="Arial,Arial_MSFontService,sans-serif" font-size="93.5532" x="599.864" y="713.648">)</text><path d="M451.625 803.557C449.62 803.557 447.704 804.075 445.88 805.111 444.055 806.146 442.419 807.634 440.973 809.574 439.526 811.514 438.318 813.766 437.348 816.33 436.378 818.895 435.622 821.5 435.079 824.147 434.537 826.794 434.266 829.547 434.266 832.407 434.266 835.366 434.586 837.676 435.227 839.336 435.869 840.997 436.715 842.139 437.767 842.764 438.819 843.389 440.134 843.701 441.713 843.701 445.263 843.701 448.296 842.279 450.811 839.435 453.327 836.591 455.472 832.317 457.247 826.613 459.023 820.908 459.91 816.412 459.91 813.125 459.91 809.771 459.228 807.338 457.864 805.826 456.499 804.313 454.42 803.557 451.625 803.557ZM454.19 775.94C459.68 775.94 463.79 777.806 466.519 781.538 469.247 785.269 470.612 790.916 470.612 798.478 470.612 801.47 470.349 805.029 469.823 809.155 469.297 813.281 468.409 817.58 467.16 822.051 465.91 826.522 464.464 830.32 462.82 833.443 461.176 836.566 459.351 839.147 457.346 841.186 455.34 843.224 453.031 844.802 450.417 845.92 447.803 847.038 444.852 847.597 441.565 847.597 438.244 847.597 435.367 846.915 432.934 845.55 430.501 844.186 428.66 842.213 427.411 839.632 426.161 837.051 425.537 833.887 425.537 830.139 425.537 826.457 426.112 822.799 427.263 819.166 428.414 815.533 430.099 812.229 432.318 809.253 434.537 806.278 437.184 803.935 440.258 802.226 443.332 800.516 446.628 799.661 450.146 799.661 452.513 799.661 454.584 799.933 456.359 800.475 458.135 801.018 460.108 802.078 462.277 803.656L462.376 802.423C462.475 800.845 462.524 799.48 462.524 798.33 462.524 795.634 462.36 793.201 462.031 791.031 461.702 788.861 461.151 786.995 460.379 785.434 459.606 783.872 458.57 782.672 457.272 781.833 455.973 780.995 454.338 780.576 452.365 780.576 449.965 780.576 447.737 781.143 445.682 782.277 443.628 783.412 441.614 785.162 439.641 787.529L436.09 787.529 436.09 783.436C439.214 781.233 441.639 779.664 443.365 778.727 445.091 777.789 446.817 777.091 448.543 776.631 450.269 776.17 452.151 775.94 454.19 775.94Z" fill-rule="evenodd"/><text fill="#000000" fill-opacity="0" font-family="Arial,Arial_MSFontService,sans-serif" font-size="71.6567" x="425.537" y="838.64">∂</text><path d="M495.677 787.48 502.483 787.48 499.77 799.661 514.762 799.661 513.677 804.642 498.685 804.642 494.296 823.777C493.441 827.492 492.899 830.164 492.669 831.791 492.438 833.418 492.323 834.725 492.323 835.712 492.323 839.788 494.017 841.827 497.403 841.827 498.85 841.827 500.387 841.276 502.014 840.175 503.641 839.073 505.573 837.191 507.809 834.528L510.669 837.487C507.809 840.939 505.055 843.487 502.409 845.131 499.762 846.775 496.992 847.597 494.099 847.597 487.227 847.597 483.792 844.128 483.792 837.191 483.792 834.988 484.071 832.67 484.63 830.237L490.449 804.642 482.164 804.642 482.904 801.239C484.844 801.207 486.315 801.059 487.318 800.796 488.321 800.533 489.159 800.171 489.833 799.711 490.507 799.25 491.123 798.593 491.682 797.738 492.241 796.883 492.784 795.79 493.31 794.458 493.836 793.127 494.625 790.801 495.677 787.48Z" fill-rule="evenodd"/><text fill="#000000" fill-opacity="0" font-family="Arial,Arial_MSFontService,sans-serif" font-size="60.1167" x="482.164" y="840.082">𝑡</text><path d="M299.519 747.372 639.519 747.372 639.519 754.372 299.519 754.372Z" fill-rule="evenodd"/><path d="M691.637 751.845C695.582 751.845 700.284 753.572 705.741 757.024 711.199 760.476 715.342 762.202 718.169 762.202 720.964 762.202 723.298 761.462 725.172 759.983 727.046 758.503 728.937 756.202 730.843 753.078L734.789 755.741C733.375 758.668 731.139 761.618 728.082 764.594 725.024 767.569 721.309 769.057 716.936 769.057 712.728 769.057 707.92 767.331 702.511 763.879 697.103 760.427 692.968 758.7 690.108 758.7 687.708 758.7 685.604 759.457 683.796 760.969 681.987 762.481 680.393 764.684 679.012 767.577L675.165 765.407C676.842 761.528 679.061 758.298 681.823 755.717 684.585 753.136 687.856 751.845 691.637 751.845ZM691.637 732.267C695.582 732.267 700.284 733.993 705.741 737.445 711.199 740.897 715.342 742.623 718.169 742.623 720.964 742.623 723.298 741.884 725.172 740.404 727.046 738.925 728.937 736.623 730.843 733.5L734.789 736.163C733.375 739.089 731.139 742.04 728.082 745.015 725.024 747.991 721.309 749.478 716.936 749.478 712.728 749.478 707.92 747.752 702.511 744.3 697.103 740.848 692.968 739.122 690.108 739.122 687.708 739.122 685.604 739.878 683.796 741.39 681.987 742.903 680.393 745.106 679.012 747.999L675.165 745.829C676.842 741.949 679.061 738.719 681.823 736.138 684.585 733.557 687.856 732.267 691.637 732.267Z" fill-rule="evenodd"/><text fill="#000000" fill-opacity="0" font-family="Arial,Arial_MSFontService,sans-serif" font-size="36.79" x="675.165" y="764.458">≈</text><path d="M806.696 640.074C804.658 640.074 802.52 640.124 800.285 640.222L793.578 670.108 798.707 670.108C802.685 670.108 805.899 669.697 808.348 668.875 810.797 668.053 812.803 666.779 814.365 665.053 815.926 663.327 817.135 661.281 817.989 658.913 818.844 656.546 819.272 653.949 819.272 651.121 819.272 647.308 818.302 644.513 816.362 642.738 814.422 640.962 811.2 640.074 806.696 640.074ZM786.032 635.735 807.781 635.735C811.693 635.735 814.907 636.039 817.422 636.647 819.937 637.255 822.009 638.192 823.636 639.458 825.264 640.724 826.48 642.327 827.286 644.266 828.091 646.206 828.494 648.458 828.494 651.023 828.494 655.954 827.327 660.228 824.992 663.845 822.658 667.461 819.494 670.125 815.499 671.834 811.504 673.544 806.712 674.399 801.123 674.399 797.77 674.399 794.975 674.333 792.739 674.201L789.583 688.7C789.287 690.048 789.082 691.084 788.967 691.807 788.852 692.531 788.753 693.312 788.671 694.15 788.589 694.988 788.547 695.736 788.547 696.394 788.547 697.413 788.712 698.21 789.041 698.786 789.369 699.361 789.863 699.78 790.52 700.043 791.178 700.306 792.312 700.503 793.923 700.635L793.38 703.052 773.111 703.052 773.654 700.635C774.903 700.438 775.84 700.117 776.465 699.673 777.09 699.229 777.616 698.613 778.043 697.824 778.471 697.035 778.865 696.073 779.227 694.939 779.588 693.805 780.131 691.61 780.854 688.355L789.238 650.382C789.961 647.094 790.323 644.497 790.323 642.59 790.323 640.979 789.945 639.861 789.189 639.236 788.432 638.611 787.2 638.25 785.49 638.151Z" fill-rule="evenodd"/><text fill="#000000" fill-opacity="0" font-family="Arial,Arial_MSFontService,sans-serif" font-size="67.3169" x="773.111" y="694.637">𝑃</text><path d="M1220.47 627.412C1230.07 629.944 1237.45 635.41 1242.59 643.81 1247.74 652.21 1250.31 662.345 1250.31 674.214 1250.31 686.115 1247.74 696.25 1242.62 704.617 1237.49 712.984 1230.11 718.434 1220.47 720.965L1219.29 717.168C1226.88 714.637 1232.53 709.639 1236.23 702.176 1239.93 694.713 1241.78 685.228 1241.78 673.72 1241.78 662.608 1239.94 653.377 1236.25 646.029 1232.57 638.681 1226.87 633.741 1219.14 631.21ZM873.914 627.412 875.245 631.21C867.552 633.741 861.856 638.681 858.157 646.029 854.458 653.377 852.609 662.608 852.609 673.72 852.609 685.228 854.458 694.713 858.157 702.176 861.856 709.639 867.503 714.637 875.097 717.168L873.914 720.965C864.281 718.434 856.9 712.984 851.771 704.617 846.642 696.25 844.077 686.115 844.077 674.214 844.077 662.345 846.65 652.21 851.795 643.81 856.941 635.41 864.313 629.944 873.914 627.412Z" fill-rule="evenodd"/><path d="M890.904 635.735 910.828 635.735 910.286 638.151C908.872 638.381 907.746 638.866 906.907 639.606 906.069 640.346 905.65 641.422 905.65 642.836 905.65 644.94 906.192 647.587 907.277 650.776L911.37 662.711 920.494 651.171C921.908 649.395 923.009 647.94 923.798 646.806 924.587 645.672 925.154 644.669 925.5 643.798 925.845 642.927 926.017 642.162 926.017 641.505 926.017 640.617 925.754 639.861 925.228 639.236 924.702 638.611 923.798 638.25 922.516 638.151L923.058 635.735 941.453 635.735 940.911 638.151C939.925 638.447 938.996 638.924 938.125 639.581 937.253 640.239 936.218 641.225 935.018 642.54 933.818 643.855 931.59 646.453 928.335 650.332L913.639 667.889 920.839 687.911C921.924 690.936 922.812 693.246 923.502 694.84 924.193 696.435 924.801 697.61 925.327 698.366 925.754 698.925 926.198 699.361 926.659 699.673 927.119 699.986 927.891 700.306 928.976 700.635L928.483 703.052 908.559 703.052 909.053 700.635C910.565 700.405 911.724 699.887 912.529 699.082 913.335 698.276 913.738 697.232 913.738 695.95 913.738 694.01 913.343 691.857 912.554 689.49L907.425 674.448 896.181 688.503C894.504 690.607 893.288 692.325 892.532 693.657 891.775 694.988 891.397 696.131 891.397 697.084 891.397 698.366 891.701 699.246 892.31 699.723 892.918 700.199 893.781 700.503 894.899 700.635L894.356 703.052 876.011 703.052 876.504 700.635C877.523 700.306 878.452 699.83 879.29 699.205 880.129 698.58 881.214 697.52 882.545 696.024 883.877 694.528 886.203 691.807 889.523 687.862L905.157 669.27 897.858 649.001C896.641 645.614 895.688 643.272 894.997 641.973 894.307 640.674 893.625 639.762 892.951 639.236 892.277 638.71 891.414 638.348 890.362 638.151Z" fill-rule="evenodd"/><text fill="#000000" fill-opacity="0" font-family="Arial,Arial_MSFontService,sans-serif" font-size="67.3169" x="876.011" y="694.637">𝑋</text><path d="M951.419 691.61 960.05 691.61C960.51 693.912 960.74 696.18 960.74 698.416 960.74 700.717 960.345 702.821 959.556 704.728 958.767 706.635 957.51 708.534 955.784 710.424 954.058 712.315 951.682 714.394 948.657 716.663L945.994 713.655C947.671 712.076 948.888 710.654 949.644 709.389 950.4 708.123 950.942 706.685 951.271 705.073 951.6 703.462 951.764 701.44 951.764 699.008 951.764 696.509 951.649 694.043 951.419 691.61Z" fill-rule="evenodd"/><text fill="#000000" fill-opacity="0" font-family="Arial,Arial_MSFontService,sans-serif" font-size="25.0527" x="945.994" y="713.531">,</text><path d="M997.768 655.067C999.84 655.067 1001.48 655.749 1002.68 657.113 1003.88 658.478 1004.48 660.261 1004.48 662.464 1004.48 664.207 1004.08 666.146 1003.29 668.283L1003.88 668.481C1007.11 663.944 1010.17 660.582 1013.08 658.396 1015.99 656.209 1018.99 655.116 1022.08 655.116 1025.14 655.116 1027.49 655.995 1029.13 657.754 1030.78 659.513 1031.6 661.955 1031.6 665.078 1031.6 667.149 1031.12 670.092 1030.17 673.906L1026.96 686.826C1026.08 690.41 1025.63 692.942 1025.63 694.421 1025.63 695.736 1025.85 696.69 1026.27 697.281 1026.7 697.873 1027.37 698.169 1028.3 698.169 1029.28 698.169 1030.33 697.766 1031.45 696.961 1032.57 696.155 1034.15 694.618 1036.19 692.35L1039 695.112C1036.17 698.136 1033.7 700.347 1031.6 701.745 1029.5 703.142 1027.1 703.841 1024.4 703.841 1022.26 703.841 1020.55 703.076 1019.27 701.547 1017.99 700.019 1017.35 698.071 1017.35 695.703 1017.35 693.566 1017.89 690.427 1018.97 686.284L1021.14 677.752C1021.93 674.662 1022.45 672.377 1022.7 670.897 1022.94 669.418 1023.07 668.218 1023.07 667.297 1023.07 665.029 1022.69 663.393 1021.93 662.39 1021.18 661.387 1019.94 660.886 1018.23 660.886 1016.85 660.886 1015.37 661.437 1013.77 662.538 1012.18 663.639 1010.48 665.3 1008.69 667.519 1006.9 669.738 1005.46 671.892 1004.38 673.979 1003.29 676.067 1002.4 678.64 1001.71 681.698L997.029 703.052 988.497 703.052 995.697 671.785C996.42 668.629 996.782 666.196 996.782 664.486 996.782 663.171 996.568 662.218 996.141 661.626 995.714 661.034 995.04 660.738 994.119 660.738 993.1 660.738 992.023 661.157 990.889 661.996 989.755 662.834 988.201 664.355 986.228 666.557L983.417 663.796C986.442 660.639 988.957 658.396 990.963 657.064 992.968 655.732 995.237 655.067 997.768 655.067Z" fill-rule="evenodd"/><text fill="#000000" fill-opacity="0" font-family="Arial,Arial_MSFontService,sans-serif" font-size="48.7739" x="983.417" y="697.744">𝑛</text><path d="M1098.46 642.491 1105.46 642.491 1105.46 670.897 1132.34 670.897 1132.34 677.456 1105.46 677.456 1105.46 705.863 1098.46 705.863 1098.46 677.456 1071.58 677.456 1071.58 670.897 1098.46 670.897Z" fill-rule="evenodd"/><text fill="#000000" fill-opacity="0" font-family="Arial,Arial_MSFontService,sans-serif" font-size="63.3716" x="1071.58" y="697.941">+</text><path d="M1193.55 634.946 1196.26 634.946C1196.07 638.102 1195.97 642.475 1195.97 648.064L1195.97 690.18C1195.97 692.087 1196.08 693.525 1196.29 694.495 1196.5 695.465 1196.88 696.254 1197.42 696.862 1197.97 697.471 1198.75 697.947 1199.77 698.292 1200.79 698.638 1202.07 698.901 1203.61 699.082 1205.16 699.262 1207.2 699.386 1209.73 699.451L1209.73 703.052 1173.28 703.052 1173.28 699.451C1176.93 699.287 1179.54 699.065 1181.1 698.786 1182.66 698.506 1183.85 698.087 1184.68 697.528 1185.5 696.969 1186.1 696.18 1186.48 695.161 1186.85 694.142 1187.04 692.481 1187.04 690.18L1187.04 650.184C1187.04 648.869 1186.81 647.908 1186.35 647.299 1185.89 646.691 1185.22 646.387 1184.33 646.387 1183.28 646.387 1181.78 646.929 1179.84 648.014 1177.9 649.099 1175.5 650.595 1172.64 652.502L1170.47 648.705Z" fill-rule="evenodd"/><text fill="#000000" fill-opacity="0" font-family="Arial,Arial_MSFontService,sans-serif" font-size="68.106" x="1170.47" y="694.538">1</text><path d="M1288.87 670.897 1349.63 670.897 1349.63 677.456 1288.87 677.456Z" fill-rule="evenodd"/><text fill="#000000" fill-opacity="0" font-family="Arial,Arial_MSFontService,sans-serif" font-size="6.55908" x="1288.87" y="676.636">−</text><path d="M1415.39 640.074C1413.35 640.074 1411.21 640.124 1408.97 640.222L1402.27 670.108 1407.4 670.108C1411.37 670.108 1414.59 669.697 1417.04 668.875 1419.49 668.053 1421.49 666.779 1423.05 665.053 1424.62 663.327 1425.82 661.281 1426.68 658.913 1427.53 656.546 1427.96 653.949 1427.96 651.121 1427.96 647.308 1426.99 644.513 1425.05 642.738 1423.11 640.962 1419.89 640.074 1415.39 640.074ZM1394.72 635.735 1416.47 635.735C1420.38 635.735 1423.6 636.039 1426.11 636.647 1428.63 637.255 1430.7 638.192 1432.33 639.458 1433.95 640.724 1435.17 642.327 1435.98 644.266 1436.78 646.206 1437.18 648.458 1437.18 651.023 1437.18 655.954 1436.02 660.228 1433.68 663.845 1431.35 667.461 1428.18 670.125 1424.19 671.834 1420.19 673.544 1415.4 674.399 1409.81 674.399 1406.46 674.399 1403.66 674.333 1401.43 674.201L1398.27 688.7C1397.98 690.048 1397.77 691.084 1397.66 691.807 1397.54 692.531 1397.44 693.312 1397.36 694.15 1397.28 694.988 1397.24 695.736 1397.24 696.394 1397.24 697.413 1397.4 698.21 1397.73 698.786 1398.06 699.361 1398.55 699.78 1399.21 700.043 1399.87 700.306 1401 700.503 1402.61 700.635L1402.07 703.052 1381.8 703.052 1382.34 700.635C1383.59 700.438 1384.53 700.117 1385.15 699.673 1385.78 699.229 1386.31 698.613 1386.73 697.824 1387.16 697.035 1387.55 696.073 1387.92 694.939 1388.28 693.805 1388.82 691.61 1389.54 688.355L1397.93 650.382C1398.65 647.094 1399.01 644.497 1399.01 642.59 1399.01 640.979 1398.63 639.861 1397.88 639.236 1397.12 638.611 1395.89 638.25 1394.18 638.151Z" fill-rule="evenodd"/><text fill="#000000" fill-opacity="0" font-family="Arial,Arial_MSFontService,sans-serif" font-size="67.3169" x="1381.8" y="694.637">𝑃</text><path d="M1653.71 627.412C1663.31 629.944 1670.69 635.41 1675.83 643.81 1680.98 652.21 1683.55 662.345 1683.55 674.214 1683.55 686.115 1680.98 696.25 1675.86 704.617 1670.73 712.984 1663.35 718.434 1653.71 720.965L1652.53 717.168C1660.12 714.637 1665.77 709.639 1669.47 702.176 1673.17 694.713 1675.02 685.228 1675.02 673.72 1675.02 662.608 1673.18 653.377 1669.49 646.029 1665.81 638.681 1660.11 633.741 1652.38 631.21ZM1482.6 627.412 1483.93 631.21C1476.24 633.741 1470.55 638.681 1466.85 646.029 1463.15 653.377 1461.3 662.608 1461.3 673.72 1461.3 685.228 1463.15 694.713 1466.85 702.176 1470.55 709.639 1476.19 714.637 1483.79 717.168L1482.6 720.965C1472.97 718.434 1465.59 712.984 1460.46 704.617 1455.33 696.25 1452.77 686.115 1452.77 674.214 1452.77 662.345 1455.34 652.21 1460.48 643.81 1465.63 635.41 1473 629.944 1482.6 627.412Z" fill-rule="evenodd"/><path d="M1499.59 635.735 1519.52 635.735 1518.98 638.151C1517.56 638.381 1516.44 638.866 1515.6 639.606 1514.76 640.346 1514.34 641.422 1514.34 642.836 1514.34 644.94 1514.88 647.587 1515.97 650.776L1520.06 662.711 1529.18 651.171C1530.6 649.395 1531.7 647.94 1532.49 646.806 1533.28 645.672 1533.84 644.669 1534.19 643.798 1534.53 642.927 1534.71 642.162 1534.71 641.505 1534.71 640.617 1534.44 639.861 1533.92 639.236 1533.39 638.611 1532.49 638.25 1531.21 638.151L1531.75 635.735 1550.14 635.735 1549.6 638.151C1548.61 638.447 1547.69 638.924 1546.81 639.581 1545.94 640.239 1544.91 641.225 1543.71 642.54 1542.51 643.855 1540.28 646.453 1537.02 650.332L1522.33 667.889 1529.53 687.911C1530.61 690.936 1531.5 693.246 1532.19 694.84 1532.88 696.435 1533.49 697.61 1534.02 698.366 1534.44 698.925 1534.89 699.361 1535.35 699.673 1535.81 699.986 1536.58 700.306 1537.67 700.635L1537.17 703.052 1517.25 703.052 1517.74 700.635C1519.25 700.405 1520.41 699.887 1521.22 699.082 1522.02 698.276 1522.43 697.232 1522.43 695.95 1522.43 694.01 1522.03 691.857 1521.24 689.49L1516.11 674.448 1504.87 688.503C1503.19 690.607 1501.98 692.325 1501.22 693.657 1500.46 694.988 1500.09 696.131 1500.09 697.084 1500.09 698.366 1500.39 699.246 1501 699.723 1501.61 700.199 1502.47 700.503 1503.59 700.635L1503.05 703.052 1484.7 703.052 1485.19 700.635C1486.21 700.306 1487.14 699.83 1487.98 699.205 1488.82 698.58 1489.9 697.52 1491.23 696.024 1492.57 694.528 1494.89 691.807 1498.21 687.862L1513.85 669.27 1506.55 649.001C1505.33 645.614 1504.38 643.272 1503.69 641.973 1503 640.674 1502.31 639.762 1501.64 639.236 1500.97 638.71 1500.1 638.348 1499.05 638.151Z" fill-rule="evenodd"/><text fill="#000000" fill-opacity="0" font-family="Arial,Arial_MSFontService,sans-serif" font-size="67.3169" x="1484.7" y="694.637">𝑋</text><path d="M1560.11 691.61 1568.74 691.61C1569.2 693.912 1569.43 696.18 1569.43 698.416 1569.43 700.717 1569.04 702.821 1568.25 704.728 1567.46 706.635 1566.2 708.534 1564.47 710.424 1562.75 712.315 1560.37 714.394 1557.35 716.663L1554.68 713.655C1556.36 712.076 1557.58 710.654 1558.33 709.389 1559.09 708.123 1559.63 706.685 1559.96 705.073 1560.29 703.462 1560.45 701.44 1560.45 699.008 1560.45 696.509 1560.34 694.043 1560.11 691.61Z" fill-rule="evenodd"/><text fill="#000000" fill-opacity="0" font-family="Arial,Arial_MSFontService,sans-serif" font-size="25.0527" x="1554.68" y="713.531">,</text><path d="M1606.46 655.067C1608.53 655.067 1610.16 655.749 1611.36 657.113 1612.57 658.478 1613.17 660.261 1613.17 662.464 1613.17 664.207 1612.77 666.146 1611.98 668.283L1612.57 668.481C1615.8 663.944 1618.86 660.582 1621.77 658.396 1624.68 656.209 1627.68 655.116 1630.77 655.116 1633.83 655.116 1636.18 655.995 1637.82 657.754 1639.47 659.513 1640.29 661.955 1640.29 665.078 1640.29 667.149 1639.81 670.092 1638.86 673.906L1635.65 686.826C1634.77 690.41 1634.32 692.942 1634.32 694.421 1634.32 695.736 1634.54 696.69 1634.96 697.281 1635.39 697.873 1636.06 698.169 1636.98 698.169 1637.97 698.169 1639.02 697.766 1640.14 696.961 1641.26 696.155 1642.84 694.618 1644.88 692.35L1647.69 695.112C1644.86 698.136 1642.39 700.347 1640.29 701.745 1638.18 703.142 1635.78 703.841 1633.09 703.841 1630.95 703.841 1629.24 703.076 1627.96 701.547 1626.68 700.019 1626.04 698.071 1626.04 695.703 1626.04 693.566 1626.58 690.427 1627.66 686.284L1629.83 677.752C1630.62 674.662 1631.14 672.377 1631.39 670.897 1631.63 669.418 1631.76 668.218 1631.76 667.297 1631.76 665.029 1631.38 663.393 1630.62 662.39 1629.87 661.387 1628.63 660.886 1626.92 660.886 1625.54 660.886 1624.06 661.437 1622.46 662.538 1620.87 663.639 1619.17 665.3 1617.38 667.519 1615.59 669.738 1614.15 671.892 1613.07 673.979 1611.98 676.067 1611.09 678.64 1610.4 681.698L1605.72 703.052 1597.19 703.052 1604.39 671.785C1605.11 668.629 1605.47 666.196 1605.47 664.486 1605.47 663.171 1605.26 662.218 1604.83 661.626 1604.4 661.034 1603.73 660.738 1602.81 660.738 1601.79 660.738 1600.71 661.157 1599.58 661.996 1598.44 662.834 1596.89 664.355 1594.92 666.557L1592.11 663.796C1595.13 660.639 1597.65 658.396 1599.65 657.064 1601.66 655.732 1603.93 655.067 1606.46 655.067Z" fill-rule="evenodd"/><text fill="#000000" fill-opacity="0" font-family="Arial,Arial_MSFontService,sans-serif" font-size="48.7739" x="1592.11" y="697.744">𝑛</text><path d="M1201.49 789.601 1182.7 838.917 1217.03 838.917ZM1199.76 778.702 1207.06 778.702 1227.87 843.652 1227.87 846.808 1173.97 846.808 1173.97 843.652Z" fill-rule="evenodd"/><text fill="#000000" fill-opacity="0" font-family="Arial,Arial_MSFontService,sans-serif" font-size="68.106" x="1173.97" y="838.295">∆</text><path d="M1247.15 798.823C1249.22 798.823 1250.85 799.505 1252.05 800.87 1253.25 802.234 1253.85 804.018 1253.85 806.22 1253.85 807.963 1253.46 809.903 1252.67 812.04L1253.26 812.237C1256.48 807.7 1259.55 804.338 1262.46 802.152 1265.37 799.965 1268.37 798.872 1271.46 798.872 1274.52 798.872 1276.87 799.752 1278.51 801.511 1280.16 803.27 1280.98 805.711 1280.98 808.834 1280.98 810.905 1280.5 813.848 1279.55 817.662L1276.34 830.583C1275.46 834.166 1275.01 836.698 1275.01 838.177 1275.01 839.493 1275.23 840.446 1275.65 841.038 1276.08 841.63 1276.75 841.925 1277.67 841.925 1278.66 841.925 1279.71 841.523 1280.83 840.717 1281.95 839.912 1283.53 838.375 1285.57 836.106L1288.38 838.868C1285.55 841.893 1283.08 844.104 1280.98 845.501 1278.87 846.898 1276.47 847.597 1273.78 847.597 1271.64 847.597 1269.93 846.832 1268.65 845.304 1267.37 843.775 1266.73 841.827 1266.73 839.46 1266.73 837.323 1267.27 834.183 1268.35 830.04L1270.52 821.508C1271.31 818.418 1271.83 816.133 1272.08 814.654 1272.32 813.174 1272.45 811.974 1272.45 811.053 1272.45 808.785 1272.07 807.149 1271.31 806.146 1270.56 805.144 1269.32 804.642 1267.61 804.642 1266.23 804.642 1264.75 805.193 1263.15 806.294 1261.56 807.396 1259.86 809.056 1258.07 811.275 1256.28 813.495 1254.84 815.648 1253.76 817.736 1252.67 819.823 1251.78 822.396 1251.09 825.454L1246.41 846.808 1237.88 846.808 1245.08 815.541C1245.8 812.385 1246.16 809.952 1246.16 808.242 1246.16 806.927 1245.95 805.974 1245.52 805.382 1245.09 804.79 1244.42 804.494 1243.5 804.494 1242.48 804.494 1241.4 804.914 1240.27 805.752 1239.13 806.59 1237.58 808.111 1235.61 810.314L1232.8 807.552C1235.82 804.396 1238.34 802.152 1240.34 800.82 1242.35 799.489 1244.62 798.823 1247.15 798.823Z" fill-rule="evenodd"/><text fill="#000000" fill-opacity="0" font-family="Arial,Arial_MSFontService,sans-serif" font-size="48.7739" x="1232.8" y="841.5">𝑛</text><path d="M770.519 747.372 1692.52 747.372 1692.52 754.372 770.519 754.372Z" fill-rule="evenodd"/><path d="M1715.76 767.923 1724.39 767.923C1724.85 770.224 1725.08 772.493 1725.08 774.728 1725.08 777.03 1724.69 779.134 1723.9 781.041 1723.11 782.948 1721.85 784.846 1720.12 786.737 1718.4 788.627 1716.02 790.707 1713 792.975L1710.33 789.967C1712.01 788.389 1713.23 786.967 1713.98 785.701 1714.74 784.435 1715.28 782.997 1715.61 781.386 1715.94 779.775 1716.1 777.753 1716.1 775.32 1716.1 772.821 1715.99 770.356 1715.76 767.923Z" fill-rule="evenodd"/><text fill="#000000" fill-opacity="0" font-family="Arial,Arial_MSFontService,sans-serif" font-size="25.0527" x="1710.33" y="789.844">,</text><path d="M1962.96 659.801C1959.9 659.801 1957.06 661.009 1954.45 663.426 1951.83 665.842 1949.71 669.467 1948.06 674.3 1946.42 679.133 1945.6 683.917 1945.6 688.651 1945.6 691.61 1945.92 693.92 1946.56 695.58 1947.2 697.24 1948.05 698.383 1949.1 699.008 1950.15 699.632 1951.46 699.945 1953.04 699.945 1956.59 699.945 1959.63 698.523 1962.14 695.679 1964.66 692.835 1966.8 688.561 1968.58 682.856 1970.35 677.152 1971.24 672.656 1971.24 669.368 1971.24 666.015 1970.56 663.582 1969.19 662.07 1967.83 660.557 1965.75 659.801 1962.96 659.801ZM1965.52 632.184C1971.01 632.184 1975.12 634.05 1977.85 637.781 1980.58 641.513 1981.94 647.16 1981.94 654.721 1981.94 657.713 1981.68 661.272 1981.15 665.398 1980.63 669.525 1979.74 673.823 1978.49 678.295 1977.24 682.766 1975.79 686.563 1974.15 689.687 1972.51 692.81 1970.68 695.391 1968.68 697.429 1966.67 699.468 1964.36 701.046 1961.75 702.164 1959.13 703.282 1956.18 703.841 1952.89 703.841 1947.96 703.841 1944.06 702.361 1941.18 699.402 1938.31 696.443 1936.87 692.103 1936.87 686.383 1936.87 681.221 1937.95 676.256 1940.12 671.489 1942.29 666.722 1945.27 662.933 1949.05 660.122 1952.83 657.311 1956.97 655.905 1961.48 655.905 1963.84 655.905 1965.91 656.176 1967.69 656.719 1969.46 657.261 1971.44 658.322 1973.61 659.9L1973.71 658.667C1973.8 657.089 1973.85 655.724 1973.85 654.573 1973.85 648.36 1973.03 643.847 1971.39 641.036 1969.74 638.225 1967.18 636.82 1963.69 636.82 1961.29 636.82 1959.07 637.387 1957.01 638.521 1954.96 639.655 1952.94 641.406 1950.97 643.773L1947.42 643.773 1947.42 639.68C1950.54 637.477 1952.97 635.907 1954.69 634.97 1956.42 634.033 1958.15 633.335 1959.87 632.874 1961.6 632.414 1963.48 632.184 1965.52 632.184Z" fill-rule="evenodd"/><text fill="#000000" fill-opacity="0" font-family="Arial,Arial_MSFontService,sans-serif" font-size="71.6567" x="1936.87" y="694.883">𝜕</text><path d="M2013.7 619.341C2016.2 619.341 2018.34 619.624 2020.11 620.19 2021.88 620.756 2023.32 621.521 2024.43 622.484 2025.54 623.448 2026.34 624.604 2026.83 625.953 2027.32 627.302 2027.57 628.759 2027.57 630.325 2027.57 631.265 2027.51 632.138 2027.37 632.945 2027.24 633.752 2027.01 634.547 2026.69 635.33 2026.36 636.112 2025.93 636.901 2025.4 637.696 2024.87 638.491 2024.21 639.334 2023.42 640.226 2022.81 640.996 2022.03 641.888 2021.07 642.899 2020.1 643.911 2019.05 644.995 2017.91 646.151 2016.76 647.308 2015.56 648.512 2014.31 649.765 2013.06 651.017 2011.84 652.258 2010.66 653.486 2009.48 654.715 2008.4 655.907 2007.41 657.063 2006.42 658.22 2005.61 659.28 2004.99 660.243L2018.36 660.243C2019.49 660.243 2020.39 660.201 2021.07 660.117 2021.74 660.032 2022.3 659.846 2022.75 659.557 2023.19 659.268 2023.57 658.828 2023.89 658.238 2024.2 657.648 2024.56 656.835 2024.97 655.799L2028.33 655.799C2028.21 657.509 2028.1 659.231 2027.99 660.966 2027.88 662.7 2027.76 664.423 2027.64 666.133L1997.04 666.133 1997.04 664.254C1997.62 662.953 1998.29 661.67 1999.06 660.406 1999.83 659.141 2000.7 657.858 2001.66 656.558 2002.63 655.257 2003.72 653.914 2004.95 652.529 2006.18 651.144 2007.54 649.704 2009.04 648.211 2011.3 645.947 2013.14 644.013 2014.56 642.412 2015.99 640.81 2017.11 639.383 2017.92 638.13 2018.74 636.877 2019.3 635.721 2019.6 634.661 2019.91 633.601 2020.06 632.469 2020.06 631.265 2020.06 630.036 2019.88 628.904 2019.53 627.868 2019.18 626.832 2018.68 625.953 2018.03 625.23 2017.38 624.508 2016.56 623.942 2015.56 623.532 2014.56 623.123 2013.41 622.918 2012.11 622.918 2009.87 622.918 2007.99 623.526 2006.47 624.743 2004.95 625.959 2003.77 627.724 2002.93 630.036L1998.2 630.036 1998.2 622.99C2001.28 621.714 2004.12 620.786 2006.7 620.208 2009.29 619.63 2011.62 619.341 2013.7 619.341Z" fill-rule="evenodd"/><text fill="#000000" fill-opacity="0" font-family="Arial,Arial_MSFontService,sans-serif" font-size="46.792" x="1997.04" y="660.284">2</text><path d="M2075.11 640.074C2073.07 640.074 2070.94 640.124 2068.7 640.222L2061.99 670.108 2067.12 670.108C2071.1 670.108 2074.31 669.697 2076.76 668.875 2079.21 668.053 2081.22 666.779 2082.78 665.053 2084.34 663.327 2085.55 661.281 2086.4 658.913 2087.26 656.546 2087.69 653.949 2087.69 651.121 2087.69 647.308 2086.72 644.513 2084.78 642.738 2082.84 640.962 2079.61 640.074 2075.11 640.074ZM2054.45 635.735 2076.2 635.735C2080.11 635.735 2083.32 636.039 2085.84 636.647 2088.35 637.255 2090.42 638.192 2092.05 639.458 2093.68 640.724 2094.89 642.327 2095.7 644.266 2096.51 646.206 2096.91 648.458 2096.91 651.023 2096.91 655.954 2095.74 660.228 2093.41 663.845 2091.07 667.461 2087.91 670.125 2083.91 671.834 2079.92 673.544 2075.13 674.399 2069.54 674.399 2066.18 674.399 2063.39 674.333 2061.15 674.201L2058 688.7C2057.7 690.048 2057.5 691.084 2057.38 691.807 2057.27 692.531 2057.17 693.312 2057.09 694.15 2057 694.988 2056.96 695.736 2056.96 696.394 2056.96 697.413 2057.13 698.21 2057.46 698.786 2057.78 699.361 2058.28 699.78 2058.93 700.043 2059.59 700.306 2060.73 700.503 2062.34 700.635L2061.79 703.052 2041.53 703.052 2042.07 700.635C2043.32 700.438 2044.25 700.117 2044.88 699.673 2045.5 699.229 2046.03 698.613 2046.46 697.824 2046.89 697.035 2047.28 696.073 2047.64 694.939 2048 693.805 2048.55 691.61 2049.27 688.355L2057.65 650.382C2058.38 647.094 2058.74 644.497 2058.74 642.59 2058.74 640.979 2058.36 639.861 2057.6 639.236 2056.85 638.611 2055.61 638.25 2053.9 638.151Z" fill-rule="evenodd"/><text fill="#000000" fill-opacity="0" font-family="Arial,Arial_MSFontService,sans-serif" font-size="67.3169" x="2041.53" y="694.637">𝑃</text><path d="M2284.97 627.412C2294.57 629.944 2301.95 635.41 2307.09 643.81 2312.24 652.21 2314.81 662.345 2314.81 674.214 2314.81 686.115 2312.25 696.25 2307.12 704.617 2301.99 712.984 2294.61 718.434 2284.97 720.965L2283.79 717.168C2291.39 714.637 2297.03 709.639 2300.73 702.176 2304.43 694.713 2306.28 685.228 2306.28 673.72 2306.28 662.608 2304.44 653.377 2300.76 646.029 2297.07 638.681 2291.37 633.741 2283.64 631.21ZM2142.33 627.412 2143.66 631.21C2135.97 633.741 2130.27 638.681 2126.57 646.029 2122.87 653.377 2121.02 662.608 2121.02 673.72 2121.02 685.228 2122.87 694.713 2126.57 702.176 2130.27 709.639 2135.92 714.637 2143.51 717.168L2142.33 720.965C2132.7 718.434 2125.31 712.984 2120.19 704.617 2115.06 696.25 2112.49 686.115 2112.49 674.214 2112.49 662.345 2115.06 652.21 2120.21 643.81 2125.36 635.41 2132.73 629.944 2142.33 627.412Z" fill-rule="evenodd"/><path d="M2164.94 655.067C2165.96 655.067 2166.86 655.182 2167.63 655.412 2168.4 655.642 2169.08 655.995 2169.68 656.472 2170.27 656.949 2170.79 657.565 2171.25 658.322 2171.71 659.078 2172.16 660.105 2172.58 661.404 2173.01 662.702 2173.41 664.313 2173.79 666.237 2174.17 668.16 2174.51 670.157 2174.8 672.229L2175.3 672.229C2178.45 667.79 2180.85 664.544 2182.47 662.489 2184.1 660.434 2185.47 658.905 2186.59 657.902 2187.71 656.9 2188.79 656.193 2189.82 655.782 2190.86 655.371 2192.23 655.165 2193.94 655.165 2195.48 655.165 2196.75 655.363 2197.74 655.757L2195.76 664.683 2192.31 664.683C2192.11 663.302 2191.54 662.612 2190.59 662.612 2190.29 662.612 2189.98 662.661 2189.65 662.76 2189.32 662.859 2188.92 663.072 2188.44 663.401 2187.96 663.73 2187.26 664.371 2186.34 665.324 2185.42 666.278 2184.39 667.445 2183.24 668.826 2182.09 670.207 2180.9 671.653 2179.69 673.166L2176.33 677.358C2176.92 680.514 2177.48 683.243 2178.01 685.544 2178.54 687.846 2179 689.761 2179.42 691.29 2179.83 692.818 2180.19 694.027 2180.5 694.914 2180.81 695.802 2181.15 696.468 2181.51 696.912 2181.87 697.355 2182.24 697.668 2182.62 697.849 2183 698.029 2183.43 698.12 2183.93 698.12 2184.82 698.12 2185.68 697.775 2186.52 697.084 2187.35 696.394 2188.56 694.832 2190.14 692.399L2193.35 694.52C2191.05 697.939 2188.97 700.347 2187.11 701.745 2185.25 703.142 2183.04 703.841 2180.48 703.841 2179.06 703.841 2177.86 703.586 2176.88 703.076 2175.89 702.567 2175.03 701.753 2174.31 700.635 2173.59 699.517 2172.95 697.775 2172.39 695.407 2171.37 691.199 2170.74 687.977 2170.51 685.741L2170.02 685.741C2166.54 690.64 2163.95 694.158 2162.25 696.295 2160.56 698.432 2159.16 700.01 2158.06 701.03 2156.96 702.049 2155.89 702.764 2154.86 703.175 2153.82 703.586 2152.45 703.791 2150.74 703.791 2149.19 703.791 2147.93 703.594 2146.94 703.199L2148.91 694.273 2152.36 694.273C2152.56 695.654 2153.14 696.344 2154.09 696.344 2154.55 696.344 2155.04 696.221 2155.55 695.975 2156.06 695.728 2156.79 695.136 2157.74 694.199 2158.69 693.262 2160.01 691.791 2161.69 689.785 2163.36 687.78 2165.8 684.772 2168.98 680.76 2168.49 678.163 2167.98 675.664 2167.46 673.264 2166.93 670.864 2166.39 668.629 2165.83 666.557 2165.27 664.486 2164.81 663.13 2164.45 662.489 2164.09 661.848 2163.7 661.404 2163.29 661.157 2162.88 660.911 2162.36 660.787 2161.74 660.787 2161.04 660.787 2160.42 660.944 2159.86 661.256 2159.3 661.568 2158.69 662.111 2158.04 662.883 2157.38 663.656 2156.51 664.864 2155.42 666.508L2152.22 664.387C2154.29 661.264 2156.28 658.93 2158.18 657.385 2160.09 655.839 2162.34 655.067 2164.94 655.067Z" fill-rule="evenodd"/><text fill="#000000" fill-opacity="0" font-family="Arial,Arial_MSFontService,sans-serif" font-size="48.7739" x="2146.94" y="697.744">𝑥</text><path d="M2208.97 691.61 2217.6 691.61C2218.06 693.912 2218.29 696.18 2218.29 698.416 2218.29 700.717 2217.9 702.821 2217.11 704.728 2216.32 706.635 2215.06 708.534 2213.34 710.424 2211.61 712.315 2209.23 714.394 2206.21 716.663L2203.55 713.655C2205.22 712.076 2206.44 710.654 2207.2 709.389 2207.95 708.123 2208.49 706.685 2208.82 705.073 2209.15 703.462 2209.32 701.44 2209.32 699.008 2209.32 696.509 2209.2 694.043 2208.97 691.61Z" fill-rule="evenodd"/><text fill="#000000" fill-opacity="0" font-family="Arial,Arial_MSFontService,sans-serif" font-size="25.0527" x="2203.55" y="713.531">,</text><path d="M2259.07 643.724 2265.87 643.724 2263.16 655.905 2278.15 655.905 2277.07 660.886 2262.08 660.886 2257.69 680.021C2256.83 683.736 2256.29 686.407 2256.06 688.035 2255.83 689.662 2255.72 690.969 2255.72 691.955 2255.72 696.032 2257.41 698.071 2260.79 698.071 2262.24 698.071 2263.78 697.52 2265.41 696.418 2267.03 695.317 2268.96 693.435 2271.2 690.772L2274.06 693.731C2271.2 697.183 2268.45 699.731 2265.8 701.375 2263.15 703.019 2260.38 703.841 2257.49 703.841 2250.62 703.841 2247.18 700.372 2247.18 693.435 2247.18 691.232 2247.46 688.914 2248.02 686.481L2253.84 660.886 2245.56 660.886 2246.3 657.483C2248.24 657.45 2249.71 657.302 2250.71 657.039 2251.71 656.776 2252.55 656.415 2253.22 655.954 2253.9 655.494 2254.52 654.836 2255.07 653.982 2255.63 653.127 2256.18 652.034 2256.7 650.702 2257.23 649.371 2258.02 647.044 2259.07 643.724Z" fill-rule="evenodd"/><text fill="#000000" fill-opacity="0" font-family="Arial,Arial_MSFontService,sans-serif" font-size="60.1167" x="2245.56" y="696.326">𝑡</text><path d="M2077.29 803.557C2075.28 803.557 2073.37 804.075 2071.54 805.111 2069.72 806.146 2068.08 807.634 2066.64 809.574 2065.19 811.514 2063.98 813.766 2063.01 816.33 2062.04 818.895 2061.28 821.5 2060.74 824.147 2060.2 826.794 2059.93 829.547 2059.93 832.407 2059.93 835.366 2060.25 837.676 2060.89 839.336 2061.53 840.997 2062.38 842.139 2063.43 842.764 2064.48 843.389 2065.8 843.701 2067.38 843.701 2070.93 843.701 2073.96 842.279 2076.47 839.435 2078.99 836.591 2081.13 832.317 2082.91 826.613 2084.69 820.908 2085.57 816.412 2085.57 813.125 2085.57 809.771 2084.89 807.338 2083.53 805.826 2082.16 804.313 2080.08 803.557 2077.29 803.557ZM2079.85 775.94C2085.34 775.94 2089.45 777.806 2092.18 781.538 2094.91 785.269 2096.27 790.916 2096.27 798.478 2096.27 801.47 2096.01 805.029 2095.49 809.155 2094.96 813.281 2094.07 817.58 2092.82 822.051 2091.57 826.522 2090.13 830.32 2088.48 833.443 2086.84 836.566 2085.01 839.147 2083.01 841.186 2081 843.224 2078.69 844.802 2076.08 845.92 2073.47 847.038 2070.51 847.597 2067.23 847.597 2063.91 847.597 2061.03 846.915 2058.6 845.55 2056.16 844.186 2054.32 842.213 2053.07 839.632 2051.82 837.051 2051.2 833.887 2051.2 830.139 2051.2 826.457 2051.77 822.799 2052.93 819.166 2054.08 815.533 2055.76 812.229 2057.98 809.253 2060.2 806.278 2062.85 803.935 2065.92 802.226 2068.99 800.516 2072.29 799.661 2075.81 799.661 2078.18 799.661 2080.25 799.933 2082.02 800.475 2083.8 801.018 2085.77 802.078 2087.94 803.656L2088.04 802.423C2088.14 800.845 2088.19 799.48 2088.19 798.33 2088.19 795.634 2088.02 793.201 2087.69 791.031 2087.36 788.861 2086.81 786.995 2086.04 785.434 2085.27 783.872 2084.23 782.672 2082.93 781.833 2081.64 780.995 2080 780.576 2078.03 780.576 2075.63 780.576 2073.4 781.143 2071.34 782.277 2069.29 783.412 2067.28 785.162 2065.3 787.529L2061.75 787.529 2061.75 783.436C2064.88 781.233 2067.3 779.664 2069.03 778.727 2070.75 777.789 2072.48 777.091 2074.21 776.631 2075.93 776.17 2077.81 775.94 2079.85 775.94Z" fill-rule="evenodd"/><text fill="#000000" fill-opacity="0" font-family="Arial,Arial_MSFontService,sans-serif" font-size="71.6567" x="2051.2" y="838.64">∂</text><path d="M2121.54 798.823C2122.56 798.823 2123.45 798.938 2124.22 799.168 2125 799.398 2125.68 799.752 2126.27 800.228 2126.86 800.705 2127.39 801.322 2127.85 802.078 2128.31 802.834 2128.75 803.861 2129.18 805.16 2129.61 806.459 2130.01 808.07 2130.39 809.993 2130.77 811.916 2131.1 813.914 2131.4 815.985L2131.89 815.985C2135.05 811.547 2137.44 808.3 2139.07 806.245 2140.7 804.19 2142.07 802.661 2143.19 801.659 2144.3 800.656 2145.38 799.949 2146.42 799.538 2147.45 799.127 2148.82 798.922 2150.53 798.922 2152.08 798.922 2153.35 799.119 2154.33 799.513L2152.36 808.44 2148.91 808.44C2148.71 807.059 2148.13 806.368 2147.18 806.368 2146.89 806.368 2146.57 806.418 2146.24 806.516 2145.92 806.615 2145.51 806.829 2145.04 807.157 2144.56 807.486 2143.86 808.127 2142.94 809.081 2142.02 810.034 2140.98 811.201 2139.83 812.582 2138.68 813.963 2137.5 815.41 2136.28 816.922L2132.93 821.114C2133.52 824.27 2134.08 826.999 2134.61 829.3 2135.13 831.602 2135.6 833.517 2136.01 835.046 2136.42 836.575 2136.78 837.783 2137.1 838.671 2137.41 839.558 2137.75 840.224 2138.11 840.668 2138.47 841.112 2138.84 841.424 2139.22 841.605 2139.59 841.786 2140.03 841.876 2140.52 841.876 2141.41 841.876 2142.27 841.531 2143.11 840.841 2143.95 840.15 2145.16 838.588 2146.74 836.155L2149.94 838.276C2147.64 841.695 2145.56 844.104 2143.7 845.501 2141.85 846.898 2139.64 847.597 2137.07 847.597 2135.66 847.597 2134.46 847.342 2133.47 846.832 2132.48 846.323 2131.63 845.509 2130.91 844.391 2130.18 843.273 2129.54 841.531 2128.98 839.164 2127.96 834.955 2127.34 831.733 2127.11 829.498L2126.62 829.498C2123.13 834.396 2120.54 837.914 2118.85 840.051 2117.16 842.188 2115.76 843.767 2114.66 844.786 2113.56 845.805 2112.49 846.52 2111.45 846.931 2110.42 847.342 2109.04 847.548 2107.33 847.548 2105.79 847.548 2104.52 847.35 2103.54 846.956L2105.51 838.029 2108.96 838.029C2109.16 839.41 2109.73 840.101 2110.69 840.101 2111.15 840.101 2111.63 839.977 2112.14 839.731 2112.65 839.484 2113.38 838.893 2114.34 837.956 2115.29 837.018 2116.6 835.547 2118.28 833.542 2119.96 831.536 2122.39 828.528 2125.58 824.517 2125.09 821.919 2124.58 819.421 2124.05 817.021 2123.53 814.621 2122.98 812.385 2122.42 810.314 2121.87 808.242 2121.41 806.886 2121.04 806.245 2120.68 805.604 2120.3 805.16 2119.88 804.914 2119.47 804.667 2118.96 804.544 2118.33 804.544 2117.64 804.544 2117.02 804.7 2116.46 805.012 2115.9 805.324 2115.29 805.867 2114.63 806.64 2113.97 807.412 2113.1 808.62 2112.02 810.264L2108.81 808.144C2110.88 805.02 2112.87 802.686 2114.78 801.141 2116.69 799.596 2118.94 798.823 2121.54 798.823Z" fill-rule="evenodd"/><text fill="#000000" fill-opacity="0" font-family="Arial,Arial_MSFontService,sans-serif" font-size="48.7739" x="2103.54" y="841.5">𝑥</text><path d="M2182.98 769.743C2185.49 769.743 2187.63 770.026 2189.4 770.592 2191.17 771.158 2192.61 771.923 2193.71 772.886 2194.82 773.85 2195.62 775.006 2196.12 776.355 2196.61 777.704 2196.86 779.161 2196.86 780.727 2196.86 781.667 2196.79 782.54 2196.66 783.347 2196.53 784.154 2196.3 784.949 2195.97 785.732 2195.65 786.515 2195.22 787.303 2194.69 788.098 2194.16 788.893 2193.5 789.736 2192.7 790.628 2192.1 791.398 2191.32 792.29 2190.35 793.301 2189.39 794.313 2188.34 795.397 2187.19 796.553 2186.05 797.71 2184.85 798.914 2183.6 800.167 2182.34 801.419 2181.13 802.66 2179.95 803.888 2178.77 805.117 2177.68 806.309 2176.7 807.466 2175.71 808.622 2174.9 809.682 2174.27 810.645L2187.64 810.645C2188.78 810.645 2189.68 810.603 2190.35 810.519 2191.03 810.434 2191.59 810.248 2192.03 809.959 2192.48 809.67 2192.86 809.23 2193.17 808.64 2193.48 808.05 2193.85 807.237 2194.26 806.201L2197.62 806.201C2197.5 807.911 2197.38 809.633 2197.27 811.368 2197.16 813.102 2197.05 814.825 2196.93 816.535L2166.32 816.535 2166.32 814.656C2166.9 813.355 2167.58 812.072 2168.35 810.808 2169.12 809.543 2169.99 808.26 2170.95 806.96 2171.91 805.659 2173.01 804.316 2174.24 802.931 2175.47 801.546 2176.83 800.106 2178.32 798.613 2180.59 796.349 2182.43 794.416 2183.85 792.814 2185.27 791.212 2186.39 789.785 2187.21 788.532 2188.03 787.279 2188.59 786.123 2188.89 785.063 2189.19 784.003 2189.34 782.871 2189.34 781.667 2189.34 780.438 2189.17 779.306 2188.82 778.27 2188.47 777.234 2187.97 776.355 2187.32 775.633 2186.67 774.91 2185.84 774.344 2184.84 773.934 2183.84 773.525 2182.69 773.32 2181.39 773.32 2179.15 773.32 2177.27 773.928 2175.76 775.145 2174.24 776.361 2173.06 778.126 2172.21 780.438L2167.48 780.438 2167.48 773.392C2170.56 772.116 2173.4 771.188 2175.99 770.61 2178.58 770.032 2180.91 769.743 2182.98 769.743Z" fill-rule="evenodd"/><text fill="#000000" fill-opacity="0" font-family="Arial,Arial_MSFontService,sans-serif" font-size="46.792" x="2166.32" y="810.686">2</text><path d="M1931.52 747.372 2323.52 747.372 2323.52 754.372 1931.52 754.372Z" fill-rule="evenodd"/><path d="M2375.44 751.845C2379.38 751.845 2384.09 753.572 2389.54 757.024 2395 760.476 2399.14 762.202 2401.97 762.202 2404.77 762.202 2407.1 761.462 2408.97 759.983 2410.85 758.503 2412.74 756.202 2414.65 753.078L2418.59 755.741C2417.18 758.668 2414.94 761.618 2411.88 764.594 2408.83 767.569 2405.11 769.057 2400.74 769.057 2396.53 769.057 2391.72 767.331 2386.31 763.879 2380.9 760.427 2376.77 758.7 2373.91 758.7 2371.51 758.7 2369.41 759.457 2367.6 760.969 2365.79 762.481 2364.19 764.684 2362.81 767.577L2358.97 765.407C2360.64 761.528 2362.86 758.298 2365.62 755.717 2368.39 753.136 2371.66 751.845 2375.44 751.845ZM2375.44 732.267C2379.38 732.267 2384.09 733.993 2389.54 737.445 2395 740.897 2399.14 742.623 2401.97 742.623 2404.77 742.623 2407.1 741.884 2408.97 740.404 2410.85 738.925 2412.74 736.623 2414.65 733.5L2418.59 736.163C2417.18 739.089 2414.94 742.04 2411.88 745.015 2408.83 747.991 2405.11 749.478 2400.74 749.478 2396.53 749.478 2391.72 747.752 2386.31 744.3 2380.9 740.848 2376.77 739.122 2373.91 739.122 2371.51 739.122 2369.41 739.878 2367.6 741.39 2365.79 742.903 2364.19 745.106 2362.81 747.999L2358.97 745.829C2360.64 741.949 2362.86 738.719 2365.62 736.138 2368.39 733.557 2371.66 732.267 2375.44 732.267Z" fill-rule="evenodd"/><text fill="#000000" fill-opacity="0" font-family="Arial,Arial_MSFontService,sans-serif" font-size="36.79" x="2358.97" y="764.458">≈</text><path d="M2490.5 640.074C2488.46 640.074 2486.32 640.124 2484.09 640.222L2477.38 670.108 2482.51 670.108C2486.49 670.108 2489.7 669.697 2492.15 668.875 2494.6 668.053 2496.6 666.779 2498.17 665.053 2499.73 663.327 2500.94 661.281 2501.79 658.913 2502.65 656.546 2503.07 653.949 2503.07 651.121 2503.07 647.308 2502.1 644.513 2500.16 642.738 2498.22 640.962 2495 640.074 2490.5 640.074ZM2469.83 635.735 2491.58 635.735C2495.5 635.735 2498.71 636.039 2501.22 636.647 2503.74 637.255 2505.81 638.192 2507.44 639.458 2509.07 640.724 2510.28 642.327 2511.09 644.266 2511.89 646.206 2512.3 648.458 2512.3 651.023 2512.3 655.954 2511.13 660.228 2508.79 663.845 2506.46 667.461 2503.3 670.125 2499.3 671.834 2495.31 673.544 2490.51 674.399 2484.93 674.399 2481.57 674.399 2478.78 674.333 2476.54 674.201L2473.39 688.7C2473.09 690.048 2472.88 691.084 2472.77 691.807 2472.65 692.531 2472.56 693.312 2472.47 694.15 2472.39 694.988 2472.35 695.736 2472.35 696.394 2472.35 697.413 2472.51 698.21 2472.84 698.786 2473.17 699.361 2473.66 699.78 2474.32 700.043 2474.98 700.306 2476.11 700.503 2477.73 700.635L2477.18 703.052 2456.91 703.052 2457.46 700.635C2458.71 700.438 2459.64 700.117 2460.27 699.673 2460.89 699.229 2461.42 698.613 2461.85 697.824 2462.27 697.035 2462.67 696.073 2463.03 694.939 2463.39 693.805 2463.93 691.61 2464.66 688.355L2473.04 650.382C2473.76 647.094 2474.12 644.497 2474.12 642.59 2474.12 640.979 2473.75 639.861 2472.99 639.236 2472.23 638.611 2471 638.25 2469.29 638.151Z" fill-rule="evenodd"/><text fill="#000000" fill-opacity="0" font-family="Arial,Arial_MSFontService,sans-serif" font-size="67.3169" x="2456.91" y="694.637">𝑃</text><path d="M2904.27 627.412C2913.88 629.944 2921.25 635.41 2926.39 643.81 2931.54 652.21 2934.11 662.345 2934.11 674.214 2934.11 686.115 2931.55 696.25 2926.42 704.617 2921.29 712.984 2913.91 718.434 2904.27 720.965L2903.09 717.168C2910.69 714.637 2916.33 709.639 2920.03 702.176 2923.73 694.713 2925.58 685.228 2925.58 673.72 2925.58 662.608 2923.74 653.377 2920.06 646.029 2916.37 638.681 2910.67 633.741 2902.94 631.21ZM2557.72 627.412 2559.05 631.21C2551.35 633.741 2545.66 638.681 2541.96 646.029 2538.26 653.377 2536.41 662.608 2536.41 673.72 2536.41 685.228 2538.26 694.713 2541.96 702.176 2545.66 709.639 2551.3 714.637 2558.9 717.168L2557.72 720.965C2548.08 718.434 2540.7 712.984 2535.57 704.617 2530.44 696.25 2527.88 686.115 2527.88 674.214 2527.88 662.345 2530.45 652.21 2535.6 643.81 2540.74 635.41 2548.12 629.944 2557.72 627.412Z" fill-rule="evenodd"/><path d="M2574.71 635.735 2594.63 635.735 2594.09 638.151C2592.67 638.381 2591.55 638.866 2590.71 639.606 2589.87 640.346 2589.45 641.422 2589.45 642.836 2589.45 644.94 2589.99 647.587 2591.08 650.776L2595.17 662.711 2604.3 651.171C2605.71 649.395 2606.81 647.94 2607.6 646.806 2608.39 645.672 2608.96 644.669 2609.3 643.798 2609.65 642.927 2609.82 642.162 2609.82 641.505 2609.82 640.617 2609.56 639.861 2609.03 639.236 2608.5 638.611 2607.6 638.25 2606.32 638.151L2606.86 635.735 2625.26 635.735 2624.71 638.151C2623.73 638.447 2622.8 638.924 2621.93 639.581 2621.06 640.239 2620.02 641.225 2618.82 642.54 2617.62 643.855 2615.39 646.453 2612.14 650.332L2597.44 667.889 2604.64 687.911C2605.73 690.936 2606.61 693.246 2607.3 694.84 2607.99 696.435 2608.6 697.61 2609.13 698.366 2609.56 698.925 2610 699.361 2610.46 699.673 2610.92 699.986 2611.69 700.306 2612.78 700.635L2612.29 703.052 2592.36 703.052 2592.85 700.635C2594.37 700.405 2595.53 699.887 2596.33 699.082 2597.14 698.276 2597.54 697.232 2597.54 695.95 2597.54 694.01 2597.15 691.857 2596.36 689.49L2591.23 674.448 2579.98 688.503C2578.31 690.607 2577.09 692.325 2576.33 693.657 2575.58 694.988 2575.2 696.131 2575.2 697.084 2575.2 698.366 2575.5 699.246 2576.11 699.723 2576.72 700.199 2577.58 700.503 2578.7 700.635L2578.16 703.052 2559.81 703.052 2560.31 700.635C2561.32 700.306 2562.25 699.83 2563.09 699.205 2563.93 698.58 2565.02 697.52 2566.35 696.024 2567.68 694.528 2570 691.807 2573.33 687.862L2588.96 669.27 2581.66 649.001C2580.44 645.614 2579.49 643.272 2578.8 641.973 2578.11 640.674 2577.43 639.762 2576.75 639.236 2576.08 638.71 2575.22 638.348 2574.16 638.151Z" fill-rule="evenodd"/><text fill="#000000" fill-opacity="0" font-family="Arial,Arial_MSFontService,sans-serif" font-size="67.3169" x="2559.81" y="694.637">𝑋</text><path d="M2685.25 642.491 2692.25 642.491 2692.25 670.897 2719.13 670.897 2719.13 677.456 2692.25 677.456 2692.25 705.863 2685.25 705.863 2685.25 677.456 2658.37 677.456 2658.37 670.897 2685.25 670.897Z" fill-rule="evenodd"/><text fill="#000000" fill-opacity="0" font-family="Arial,Arial_MSFontService,sans-serif" font-size="63.3716" x="2658.37" y="697.941">+</text><path d="M2780.35 634.946 2783.06 634.946C2782.86 638.102 2782.76 642.475 2782.76 648.064L2782.76 690.18C2782.76 692.087 2782.87 693.525 2783.09 694.495 2783.3 695.465 2783.68 696.254 2784.22 696.862 2784.76 697.471 2785.54 697.947 2786.56 698.292 2787.58 698.638 2788.86 698.901 2790.41 699.082 2791.95 699.262 2793.99 699.386 2796.52 699.451L2796.52 703.052 2760.08 703.052 2760.08 699.451C2763.73 699.287 2766.33 699.065 2767.9 698.786 2769.46 698.506 2770.65 698.087 2771.47 697.528 2772.29 696.969 2772.89 696.18 2773.27 695.161 2773.65 694.142 2773.84 692.481 2773.84 690.18L2773.84 650.184C2773.84 648.869 2773.61 647.908 2773.15 647.299 2772.69 646.691 2772.01 646.387 2771.13 646.387 2770.07 646.387 2768.58 646.929 2766.64 648.014 2764.7 649.099 2762.3 650.595 2759.44 652.502L2757.27 648.705Z" fill-rule="evenodd"/><text fill="#000000" fill-opacity="0" font-family="Arial,Arial_MSFontService,sans-serif" font-size="68.106" x="2757.27" y="694.538">1</text><path d="M2810.67 691.61 2819.3 691.61C2819.76 693.912 2819.99 696.18 2819.99 698.416 2819.99 700.717 2819.6 702.821 2818.81 704.728 2818.02 706.635 2816.76 708.534 2815.04 710.424 2813.31 712.315 2810.93 714.394 2807.91 716.663L2805.25 713.655C2806.92 712.076 2808.14 710.654 2808.9 709.389 2809.65 708.123 2810.19 706.685 2810.52 705.073 2810.85 703.462 2811.02 701.44 2811.02 699.008 2811.02 696.509 2810.9 694.043 2810.67 691.61Z" fill-rule="evenodd"/><text fill="#000000" fill-opacity="0" font-family="Arial,Arial_MSFontService,sans-serif" font-size="25.0527" x="2805.25" y="713.531">,</text><path d="M2857.02 655.067C2859.09 655.067 2860.73 655.749 2861.93 657.113 2863.13 658.478 2863.73 660.261 2863.73 662.464 2863.73 664.207 2863.33 666.146 2862.54 668.283L2863.14 668.481C2866.36 663.944 2869.42 660.582 2872.33 658.396 2875.24 656.209 2878.24 655.116 2881.33 655.116 2884.39 655.116 2886.74 655.995 2888.39 657.754 2890.03 659.513 2890.85 661.955 2890.85 665.078 2890.85 667.149 2890.37 670.092 2889.42 673.906L2886.22 686.826C2885.33 690.41 2884.88 692.942 2884.88 694.421 2884.88 695.736 2885.1 696.69 2885.53 697.281 2885.95 697.873 2886.63 698.169 2887.55 698.169 2888.53 698.169 2889.59 697.766 2890.7 696.961 2891.82 696.155 2893.4 694.618 2895.44 692.35L2898.25 695.112C2895.42 698.136 2892.96 700.347 2890.85 701.745 2888.75 703.142 2886.35 703.841 2883.65 703.841 2881.51 703.841 2879.8 703.076 2878.52 701.547 2877.24 700.019 2876.6 698.071 2876.6 695.703 2876.6 693.566 2877.14 690.427 2878.23 686.284L2880.4 677.752C2881.19 674.662 2881.7 672.377 2881.95 670.897 2882.2 669.418 2882.32 668.218 2882.32 667.297 2882.32 665.029 2881.94 663.393 2881.19 662.39 2880.43 661.387 2879.2 660.886 2877.49 660.886 2876.11 660.886 2874.62 661.437 2873.02 662.538 2871.43 663.639 2869.74 665.3 2867.94 667.519 2866.15 669.738 2864.71 671.892 2863.63 673.979 2862.54 676.067 2861.66 678.64 2860.97 681.698L2856.28 703.052 2847.75 703.052 2854.95 671.785C2855.67 668.629 2856.03 666.196 2856.03 664.486 2856.03 663.171 2855.82 662.218 2855.39 661.626 2854.97 661.034 2854.29 660.738 2853.37 660.738 2852.35 660.738 2851.28 661.157 2850.14 661.996 2849.01 662.834 2847.45 664.355 2845.48 666.557L2842.67 663.796C2845.69 660.639 2848.21 658.396 2850.21 657.064 2852.22 655.732 2854.49 655.067 2857.02 655.067Z" fill-rule="evenodd"/><text fill="#000000" fill-opacity="0" font-family="Arial,Arial_MSFontService,sans-serif" font-size="48.7739" x="2842.67" y="697.744">𝑛</text><path d="M2972.68 670.897 3033.43 670.897 3033.43 677.456 2972.68 677.456Z" fill-rule="evenodd"/><text fill="#000000" fill-opacity="0" font-family="Arial,Arial_MSFontService,sans-serif" font-size="6.55908" x="2972.68" y="676.636">−</text><path d="M3155.19 640.074C3153.15 640.074 3151.01 640.124 3148.78 640.222L3142.07 670.108 3147.2 670.108C3151.18 670.108 3154.39 669.697 3156.84 668.875 3159.29 668.053 3161.29 666.779 3162.86 665.053 3164.42 663.327 3165.63 661.281 3166.48 658.913 3167.34 656.546 3167.76 653.949 3167.76 651.121 3167.76 647.308 3166.79 644.513 3164.85 642.738 3162.91 640.962 3159.69 640.074 3155.19 640.074ZM3134.52 635.735 3156.27 635.735C3160.18 635.735 3163.4 636.039 3165.91 636.647 3168.43 637.255 3170.5 638.192 3172.13 639.458 3173.76 640.724 3174.97 642.327 3175.78 644.266 3176.58 646.206 3176.99 648.458 3176.99 651.023 3176.99 655.954 3175.82 660.228 3173.48 663.845 3171.15 667.461 3167.99 670.125 3163.99 671.834 3160 673.544 3155.2 674.399 3149.61 674.399 3146.26 674.399 3143.47 674.333 3141.23 674.201L3138.07 688.7C3137.78 690.048 3137.57 691.084 3137.46 691.807 3137.34 692.531 3137.24 693.312 3137.16 694.15 3137.08 694.988 3137.04 695.736 3137.04 696.394 3137.04 697.413 3137.2 698.21 3137.53 698.786 3137.86 699.361 3138.35 699.78 3139.01 700.043 3139.67 700.306 3140.8 700.503 3142.41 700.635L3141.87 703.052 3121.6 703.052 3122.15 700.635C3123.39 700.438 3124.33 700.117 3124.96 699.673 3125.58 699.229 3126.11 698.613 3126.53 697.824 3126.96 697.035 3127.36 696.073 3127.72 694.939 3128.08 693.805 3128.62 691.61 3129.35 688.355L3137.73 650.382C3138.45 647.094 3138.81 644.497 3138.81 642.59 3138.81 640.979 3138.44 639.861 3137.68 639.236 3136.92 638.611 3135.69 638.25 3133.98 638.151ZM3091.15 634.946C3097.26 634.946 3101.88 636.285 3105.01 638.965 3108.13 641.644 3109.69 645.532 3109.69 650.628 3109.69 652.371 3109.52 653.973 3109.17 655.437 3108.83 656.9 3108.29 658.346 3107.55 659.776 3106.81 661.207 3105.81 662.744 3104.56 664.387 3103.31 666.031 3101.93 667.7 3100.42 669.393 3098.91 671.086 3096.29 673.906 3092.58 677.851 3086.33 684.459 3081.75 690.229 3078.82 695.161L3097.41 695.161C3099.02 695.161 3100.32 695.062 3101.31 694.865 3102.29 694.668 3103.08 694.339 3103.68 693.879 3104.27 693.418 3104.74 692.818 3105.08 692.079 3105.43 691.339 3105.86 690.196 3106.39 688.651L3110.58 688.651 3109.74 703.052 3069.15 703.052 3069.15 700.684C3070.57 697.232 3072.47 693.698 3074.87 690.081 3077.27 686.465 3080.68 682.207 3085.08 677.308 3088.9 673.1 3091.64 669.911 3093.32 667.741 3095.16 665.374 3096.53 663.327 3097.44 661.601 3098.34 659.875 3098.99 658.248 3099.38 656.719 3099.78 655.19 3099.98 653.653 3099.98 652.108 3099.98 649.642 3099.58 647.464 3098.79 645.573 3098 643.683 3096.8 642.195 3095.17 641.11 3093.54 640.025 3091.49 639.483 3089.03 639.483 3082.88 639.483 3078.74 642.902 3076.6 649.74L3070.63 649.74 3070.63 640.272C3074.61 638.398 3078.33 637.042 3081.8 636.203 3085.27 635.365 3088.39 634.946 3091.15 634.946Z" fill-rule="evenodd"/><text fill="#000000" fill-opacity="0" font-family="Arial,Arial_MSFontService,sans-serif" font-size="68.106" x="3069.15" y="694.538">2𝑃</text><path d="M3393.09 627.412C3402.69 629.944 3410.06 635.41 3415.21 643.81 3420.35 652.21 3422.92 662.345 3422.92 674.214 3422.92 686.115 3420.36 696.25 3415.23 704.617 3410.1 712.984 3402.72 718.434 3393.09 720.965L3391.9 717.168C3399.5 714.637 3405.15 709.639 3408.84 702.176 3412.54 694.713 3414.39 685.228 3414.39 673.72 3414.39 662.608 3412.55 653.377 3408.87 646.029 3405.19 638.681 3399.48 633.741 3391.76 631.21ZM3221.98 627.412 3223.31 631.21C3215.62 633.741 3209.92 638.681 3206.22 646.029 3202.52 653.377 3200.67 662.608 3200.67 673.72 3200.67 685.228 3202.52 694.713 3206.22 702.176 3209.92 709.639 3215.57 714.637 3223.16 717.168L3221.98 720.965C3212.35 718.434 3204.96 712.984 3199.83 704.617 3194.71 696.25 3192.14 686.115 3192.14 674.214 3192.14 662.345 3194.71 652.21 3199.86 643.81 3205.01 635.41 3212.38 629.944 3221.98 627.412Z" fill-rule="evenodd"/><path d="M3238.97 635.735 3258.89 635.735 3258.35 638.151C3256.94 638.381 3255.81 638.866 3254.97 639.606 3254.13 640.346 3253.71 641.422 3253.71 642.836 3253.71 644.94 3254.26 647.587 3255.34 650.776L3259.44 662.711 3268.56 651.171C3269.97 649.395 3271.07 647.94 3271.86 646.806 3272.65 645.672 3273.22 644.669 3273.56 643.798 3273.91 642.927 3274.08 642.162 3274.08 641.505 3274.08 640.617 3273.82 639.861 3273.29 639.236 3272.77 638.611 3271.86 638.25 3270.58 638.151L3271.12 635.735 3289.52 635.735 3288.98 638.151C3287.99 638.447 3287.06 638.924 3286.19 639.581 3285.32 640.239 3284.28 641.225 3283.08 642.54 3281.88 643.855 3279.65 646.453 3276.4 650.332L3261.7 667.889 3268.9 687.911C3269.99 690.936 3270.88 693.246 3271.57 694.84 3272.26 696.435 3272.87 697.61 3273.39 698.366 3273.82 698.925 3274.26 699.361 3274.72 699.673 3275.18 699.986 3275.96 700.306 3277.04 700.635L3276.55 703.052 3256.62 703.052 3257.12 700.635C3258.63 700.405 3259.79 699.887 3260.59 699.082 3261.4 698.276 3261.8 697.232 3261.8 695.95 3261.8 694.01 3261.41 691.857 3260.62 689.49L3255.49 674.448 3244.25 688.503C3242.57 690.607 3241.35 692.325 3240.6 693.657 3239.84 694.988 3239.46 696.131 3239.46 697.084 3239.46 698.366 3239.77 699.246 3240.37 699.723 3240.98 700.199 3241.85 700.503 3242.96 700.635L3242.42 703.052 3224.08 703.052 3224.57 700.635C3225.59 700.306 3226.52 699.83 3227.35 699.205 3228.19 698.58 3229.28 697.52 3230.61 696.024 3231.94 694.528 3234.27 691.807 3237.59 687.862L3253.22 669.27 3245.92 649.001C3244.71 645.614 3243.75 643.272 3243.06 641.973 3242.37 640.674 3241.69 639.762 3241.02 639.236 3240.34 638.71 3239.48 638.348 3238.43 638.151Z" fill-rule="evenodd"/><text fill="#000000" fill-opacity="0" font-family="Arial,Arial_MSFontService,sans-serif" font-size="67.3169" x="3224.08" y="694.637">𝑋</text><path d="M3299.48 691.61 3308.11 691.61C3308.57 693.912 3308.8 696.18 3308.8 698.416 3308.8 700.717 3308.41 702.821 3307.62 704.728 3306.83 706.635 3305.57 708.534 3303.85 710.424 3302.12 712.315 3299.75 714.394 3296.72 716.663L3294.06 713.655C3295.74 712.076 3296.95 710.654 3297.71 709.389 3298.46 708.123 3299.01 706.685 3299.34 705.073 3299.66 703.462 3299.83 701.44 3299.83 699.008 3299.83 696.509 3299.71 694.043 3299.48 691.61Z" fill-rule="evenodd"/><text fill="#000000" fill-opacity="0" font-family="Arial,Arial_MSFontService,sans-serif" font-size="25.0527" x="3294.06" y="713.531">,</text><path d="M3345.83 655.067C3347.9 655.067 3349.54 655.749 3350.74 657.113 3351.94 658.478 3352.54 660.261 3352.54 662.464 3352.54 664.207 3352.15 666.146 3351.36 668.283L3351.95 668.481C3355.17 663.944 3358.24 660.582 3361.15 658.396 3364.06 656.209 3367.06 655.116 3370.15 655.116 3373.2 655.116 3375.55 655.995 3377.2 657.754 3378.84 659.513 3379.66 661.955 3379.66 665.078 3379.66 667.149 3379.19 670.092 3378.23 673.906L3375.03 686.826C3374.14 690.41 3373.7 692.942 3373.7 694.421 3373.7 695.736 3373.91 696.69 3374.34 697.281 3374.77 697.873 3375.44 698.169 3376.36 698.169 3377.35 698.169 3378.4 697.766 3379.52 696.961 3380.63 696.155 3382.21 694.618 3384.25 692.35L3387.06 695.112C3384.23 698.136 3381.77 700.347 3379.66 701.745 3377.56 703.142 3375.16 703.841 3372.46 703.841 3370.33 703.841 3368.62 703.076 3367.33 701.547 3366.05 700.019 3365.41 698.071 3365.41 695.703 3365.41 693.566 3365.95 690.427 3367.04 686.284L3369.21 677.752C3370 674.662 3370.52 672.377 3370.76 670.897 3371.01 669.418 3371.13 668.218 3371.13 667.297 3371.13 665.029 3370.75 663.393 3370 662.39 3369.24 661.387 3368.01 660.886 3366.3 660.886 3364.92 660.886 3363.43 661.437 3361.84 662.538 3360.24 663.639 3358.55 665.3 3356.76 667.519 3354.96 669.738 3353.53 671.892 3352.44 673.979 3351.36 676.067 3350.47 678.64 3349.78 681.698L3345.09 703.052 3336.56 703.052 3343.76 671.785C3344.49 668.629 3344.85 666.196 3344.85 664.486 3344.85 663.171 3344.63 662.218 3344.21 661.626 3343.78 661.034 3343.1 660.738 3342.18 660.738 3341.16 660.738 3340.09 661.157 3338.95 661.996 3337.82 662.834 3336.27 664.355 3334.29 666.557L3331.48 663.796C3334.51 660.639 3337.02 658.396 3339.03 657.064 3341.03 655.732 3343.3 655.067 3345.83 655.067Z" fill-rule="evenodd"/><text fill="#000000" fill-opacity="0" font-family="Arial,Arial_MSFontService,sans-serif" font-size="48.7739" x="3331.48" y="697.744">𝑛</text><path d="M3488.37 642.491 3495.37 642.491 3495.37 670.897 3522.25 670.897 3522.25 677.456 3495.37 677.456 3495.37 705.863 3488.37 705.863 3488.37 677.456 3461.49 677.456 3461.49 670.897 3488.37 670.897Z" fill-rule="evenodd"/><text fill="#000000" fill-opacity="0" font-family="Arial,Arial_MSFontService,sans-serif" font-size="63.3716" x="3461.49" y="697.941">+</text><path d="M3588 640.074C3585.96 640.074 3583.82 640.124 3581.59 640.222L3574.88 670.108 3580.01 670.108C3583.99 670.108 3587.2 669.697 3589.65 668.875 3592.1 668.053 3594.11 666.779 3595.67 665.053 3597.23 663.327 3598.44 661.281 3599.29 658.913 3600.15 656.546 3600.58 653.949 3600.58 651.121 3600.58 647.308 3599.61 644.513 3597.67 642.738 3595.73 640.962 3592.5 640.074 3588 640.074ZM3567.34 635.735 3589.08 635.735C3593 635.735 3596.21 636.039 3598.73 636.647 3601.24 637.255 3603.31 638.192 3604.94 639.458 3606.57 640.724 3607.78 642.327 3608.59 644.266 3609.4 646.206 3609.8 648.458 3609.8 651.023 3609.8 655.954 3608.63 660.228 3606.3 663.845 3603.96 667.461 3600.8 670.125 3596.8 671.834 3592.81 673.544 3588.02 674.399 3582.43 674.399 3579.07 674.399 3576.28 674.333 3574.04 674.201L3570.89 688.7C3570.59 690.048 3570.39 691.084 3570.27 691.807 3570.16 692.531 3570.06 693.312 3569.97 694.15 3569.89 694.988 3569.85 695.736 3569.85 696.394 3569.85 697.413 3570.02 698.21 3570.34 698.786 3570.67 699.361 3571.17 699.78 3571.82 700.043 3572.48 700.306 3573.62 700.503 3575.23 700.635L3574.68 703.052 3554.42 703.052 3554.96 700.635C3556.21 700.438 3557.14 700.117 3557.77 699.673 3558.39 699.229 3558.92 698.613 3559.35 697.824 3559.77 697.035 3560.17 696.073 3560.53 694.939 3560.89 693.805 3561.43 691.61 3562.16 688.355L3570.54 650.382C3571.27 647.094 3571.63 644.497 3571.63 642.59 3571.63 640.979 3571.25 639.861 3570.49 639.236 3569.74 638.611 3568.5 638.25 3566.79 638.151Z" fill-rule="evenodd"/><text fill="#000000" fill-opacity="0" font-family="Arial,Arial_MSFontService,sans-serif" font-size="67.3169" x="3554.42" y="694.637">𝑃</text><path d="M3655.22 631.789 3656.55 635.587C3648.86 638.118 3643.16 643.058 3639.46 650.406 3635.76 657.754 3633.91 666.985 3633.91 678.097 3633.91 689.605 3635.76 699.09 3639.46 706.553 3643.16 714.016 3648.81 719.014 3656.4 721.545L3655.22 725.343C3645.58 722.811 3638.2 717.362 3633.07 708.994 3627.95 700.627 3625.38 690.492 3625.38 678.591 3625.38 666.722 3627.95 656.587 3633.1 648.187 3638.24 639.787 3645.62 634.321 3655.22 631.789Z" fill-rule="evenodd"/><text fill="#000000" fill-opacity="0" font-family="Arial,Arial_MSFontService,sans-serif" font-size="93.5532" x="3625.38" y="713.648">(</text><path d="M3672.19 635.735 3692.11 635.735 3691.57 638.151C3690.15 638.381 3689.03 638.866 3688.19 639.606 3687.35 640.346 3686.93 641.422 3686.93 642.836 3686.93 644.94 3687.47 647.587 3688.56 650.776L3692.65 662.711 3701.78 651.171C3703.19 649.395 3704.29 647.94 3705.08 646.806 3705.87 645.672 3706.44 644.669 3706.78 643.798 3707.13 642.927 3707.3 642.162 3707.3 641.505 3707.3 640.617 3707.04 639.861 3706.51 639.236 3705.98 638.611 3705.08 638.25 3703.8 638.151L3704.34 635.735 3722.73 635.735 3722.19 638.151C3721.21 638.447 3720.28 638.924 3719.41 639.581 3718.53 640.239 3717.5 641.225 3716.3 642.54 3715.1 643.855 3712.87 646.453 3709.62 650.332L3694.92 667.889 3702.12 687.911C3703.21 690.936 3704.09 693.246 3704.78 694.84 3705.47 696.435 3706.08 697.61 3706.61 698.366 3707.04 698.925 3707.48 699.361 3707.94 699.673 3708.4 699.986 3709.17 700.306 3710.26 700.635L3709.76 703.052 3689.84 703.052 3690.33 700.635C3691.85 700.405 3693.01 699.887 3693.81 699.082 3694.62 698.276 3695.02 697.232 3695.02 695.95 3695.02 694.01 3694.62 691.857 3693.84 689.49L3688.71 674.448 3677.46 688.503C3675.79 690.607 3674.57 692.325 3673.81 693.657 3673.06 694.988 3672.68 696.131 3672.68 697.084 3672.68 698.366 3672.98 699.246 3673.59 699.723 3674.2 700.199 3675.06 700.503 3676.18 700.635L3675.64 703.052 3657.29 703.052 3657.78 700.635C3658.8 700.306 3659.73 699.83 3660.57 699.205 3661.41 698.58 3662.49 697.52 3663.83 696.024 3665.16 694.528 3667.48 691.807 3670.8 687.862L3686.44 669.27 3679.14 649.001C3677.92 645.614 3676.97 643.272 3676.28 641.973 3675.59 640.674 3674.91 639.762 3674.23 639.236 3673.56 638.71 3672.69 638.348 3671.64 638.151Z" fill-rule="evenodd"/><text fill="#000000" fill-opacity="0" font-family="Arial,Arial_MSFontService,sans-serif" font-size="67.3169" x="3657.29" y="694.637">𝑋</text><path d="M3755.85 670.897 3816.61 670.897 3816.61 677.456 3755.85 677.456Z" fill-rule="evenodd"/><text fill="#000000" fill-opacity="0" font-family="Arial,Arial_MSFontService,sans-serif" font-size="6.55908" x="3755.85" y="676.636">−</text><path d="M3877.83 634.946 3880.54 634.946C3880.34 638.102 3880.24 642.475 3880.24 648.064L3880.24 690.18C3880.24 692.087 3880.35 693.525 3880.56 694.495 3880.78 695.465 3881.16 696.254 3881.7 696.862 3882.24 697.471 3883.02 697.947 3884.04 698.292 3885.06 698.638 3886.34 698.901 3887.89 699.082 3889.43 699.262 3891.47 699.386 3894 699.451L3894 703.052 3857.56 703.052 3857.56 699.451C3861.21 699.287 3863.81 699.065 3865.38 698.786 3866.94 698.506 3868.13 698.087 3868.95 697.528 3869.77 696.969 3870.37 696.18 3870.75 695.161 3871.13 694.142 3871.32 692.481 3871.32 690.18L3871.32 650.184C3871.32 648.869 3871.09 647.908 3870.63 647.299 3870.17 646.691 3869.49 646.387 3868.61 646.387 3867.55 646.387 3866.06 646.929 3864.12 648.014 3862.18 649.099 3859.78 650.595 3856.92 652.502L3854.75 648.705Z" fill-rule="evenodd"/><text fill="#000000" fill-opacity="0" font-family="Arial,Arial_MSFontService,sans-serif" font-size="68.106" x="3854.75" y="694.538">1</text><path d="M3908.15 691.61 3916.78 691.61C3917.24 693.912 3917.47 696.18 3917.47 698.416 3917.47 700.717 3917.08 702.821 3916.29 704.728 3915.5 706.635 3914.24 708.534 3912.51 710.424 3910.79 712.315 3908.41 714.394 3905.39 716.663L3902.73 713.655C3904.4 712.076 3905.62 710.654 3906.38 709.389 3907.13 708.123 3907.67 706.685 3908 705.073 3908.33 703.462 3908.5 701.44 3908.5 699.008 3908.5 696.509 3908.38 694.043 3908.15 691.61Z" fill-rule="evenodd"/><text fill="#000000" fill-opacity="0" font-family="Arial,Arial_MSFontService,sans-serif" font-size="25.0527" x="3902.73" y="713.531">,</text><path d="M3954.5 655.067C3956.57 655.067 3958.21 655.749 3959.41 657.113 3960.61 658.478 3961.21 660.261 3961.21 662.464 3961.21 664.207 3960.81 666.146 3960.02 668.283L3960.61 668.481C3963.84 663.944 3966.9 660.582 3969.81 658.396 3972.72 656.209 3975.72 655.116 3978.81 655.116 3981.87 655.116 3984.22 655.995 3985.86 657.754 3987.51 659.513 3988.33 661.955 3988.33 665.078 3988.33 667.149 3987.85 670.092 3986.9 673.906L3983.69 686.826C3982.81 690.41 3982.36 692.942 3982.36 694.421 3982.36 695.736 3982.58 696.69 3983 697.281 3983.43 697.873 3984.11 698.169 3985.03 698.169 3986.01 698.169 3987.06 697.766 3988.18 696.961 3989.3 696.155 3990.88 694.618 3992.92 692.35L3995.73 695.112C3992.9 698.136 3990.43 700.347 3988.33 701.745 3986.23 703.142 3983.83 703.841 3981.13 703.841 3978.99 703.841 3977.28 703.076 3976 701.547 3974.72 700.019 3974.08 698.071 3974.08 695.703 3974.08 693.566 3974.62 690.427 3975.71 686.284L3977.88 677.752C3978.66 674.662 3979.18 672.377 3979.43 670.897 3979.68 669.418 3979.8 668.218 3979.8 667.297 3979.8 665.029 3979.42 663.393 3978.66 662.39 3977.91 661.387 3976.68 660.886 3974.97 660.886 3973.58 660.886 3972.1 661.437 3970.5 662.538 3968.91 663.639 3967.21 665.3 3965.42 667.519 3963.63 669.738 3962.19 671.892 3961.11 673.979 3960.02 676.067 3959.14 678.64 3958.44 681.698L3953.76 703.052 3945.23 703.052 3952.43 671.785C3953.15 668.629 3953.51 666.196 3953.51 664.486 3953.51 663.171 3953.3 662.218 3952.87 661.626 3952.44 661.034 3951.77 660.738 3950.85 660.738 3949.83 660.738 3948.75 661.157 3947.62 661.996 3946.49 662.834 3944.93 664.355 3942.96 666.557L3940.15 663.796C3943.17 660.639 3945.69 658.396 3947.69 657.064 3949.7 655.732 3951.97 655.067 3954.5 655.067Z" fill-rule="evenodd"/><text fill="#000000" fill-opacity="0" font-family="Arial,Arial_MSFontService,sans-serif" font-size="48.7739" x="3940.15" y="697.744">𝑛</text><path d="M4001.75 631.789C4011.35 634.321 4018.73 639.787 4023.87 648.187 4029.02 656.587 4031.59 666.722 4031.59 678.591 4031.59 690.492 4029.03 700.627 4023.9 708.994 4018.77 717.362 4011.39 722.811 4001.75 725.343L4000.57 721.545C4008.16 719.014 4013.81 714.016 4017.51 706.553 4021.21 699.09 4023.06 689.605 4023.06 678.097 4023.06 666.985 4021.22 657.754 4017.53 650.406 4013.85 643.058 4008.15 638.118 4000.42 635.587Z" fill-rule="evenodd"/><text fill="#000000" fill-opacity="0" font-family="Arial,Arial_MSFontService,sans-serif" font-size="93.5532" x="4000.42" y="713.648">)</text><path d="M3213.3 789.601 3194.51 838.917 3228.83 838.917ZM3211.57 778.702 3218.87 778.702 3239.68 843.652 3239.68 846.808 3185.78 846.808 3185.78 843.652Z" fill-rule="evenodd"/><text fill="#000000" fill-opacity="0" font-family="Arial,Arial_MSFontService,sans-serif" font-size="68.106" x="3185.78" y="838.295">∆</text><path d="M3257.28 779.491 3277.2 779.491 3276.66 781.907C3275.25 782.138 3274.12 782.622 3273.28 783.362 3272.44 784.102 3272.02 785.179 3272.02 786.592 3272.02 788.697 3272.57 791.343 3273.65 794.532L3277.75 806.467 3286.87 794.927C3288.28 793.152 3289.38 791.697 3290.17 790.562 3290.96 789.428 3291.53 788.425 3291.87 787.554 3292.22 786.683 3292.39 785.918 3292.39 785.261 3292.39 784.373 3292.13 783.617 3291.6 782.992 3291.08 782.368 3290.17 782.006 3288.89 781.907L3289.43 779.491 3307.83 779.491 3307.29 781.907C3306.3 782.203 3305.37 782.68 3304.5 783.338 3303.63 783.995 3302.59 784.981 3301.39 786.297 3300.19 787.612 3297.97 790.209 3294.71 794.089L3280.01 811.645 3287.21 831.668C3288.3 834.692 3289.19 837.002 3289.88 838.597 3290.57 840.191 3291.18 841.367 3291.7 842.123 3292.13 842.682 3292.57 843.117 3293.03 843.43 3293.49 843.742 3294.27 844.062 3295.35 844.391L3294.86 846.808 3274.93 846.808 3275.43 844.391C3276.94 844.161 3278.1 843.643 3278.9 842.838 3279.71 842.032 3280.11 840.988 3280.11 839.706 3280.11 837.766 3279.72 835.613 3278.93 833.246L3273.8 818.204 3262.56 832.259C3260.88 834.364 3259.66 836.081 3258.91 837.413 3258.15 838.745 3257.77 839.887 3257.77 840.841 3257.77 842.123 3258.08 843.002 3258.68 843.479 3259.29 843.956 3260.16 844.26 3261.27 844.391L3260.73 846.808 3242.39 846.808 3242.88 844.391C3243.9 844.062 3244.83 843.586 3245.67 842.961 3246.5 842.336 3247.59 841.276 3248.92 839.78 3250.25 838.284 3252.58 835.564 3255.9 831.618L3271.53 813.026 3264.23 792.757C3263.02 789.371 3262.06 787.028 3261.37 785.729 3260.68 784.431 3260 783.518 3259.33 782.992 3258.65 782.466 3257.79 782.105 3256.74 781.907Z" fill-rule="evenodd"/><text fill="#000000" fill-opacity="0" font-family="Arial,Arial_MSFontService,sans-serif" font-size="67.3169" x="3242.39" y="838.393">𝑋</text><path d="M2454.52 747.372 3247.52 747.372 4040.52 747.372 4040.52 754.372 3247.52 754.372 2454.52 754.372Z" fill-rule="evenodd"/></g></svg>