<svg width="977" height="390" xmlns="http://www.w3.org/2000/svg" xmlns:xlink="http://www.w3.org/1999/xlink" xml:space="preserve" overflow="hidden"><g transform="translate(-306 -994)"><path d="M351.03 1121.97C349.024 1121.97 347.109 1122.49 345.284 1123.53 343.46 1124.56 341.824 1126.05 340.377 1127.99 338.931 1129.93 337.722 1132.18 336.753 1134.75 335.783 1137.31 335.026 1139.92 334.484 1142.56 333.941 1145.21 333.67 1147.96 333.67 1150.82 333.67 1153.78 333.991 1156.09 334.632 1157.75 335.273 1159.41 336.12 1160.55 337.172 1161.18 338.224 1161.8 339.539 1162.12 341.117 1162.12 344.668 1162.12 347.701 1160.69 350.216 1157.85 352.731 1155.01 354.876 1150.73 356.652 1145.03 358.427 1139.32 359.315 1134.83 359.315 1131.54 359.315 1128.19 358.633 1125.75 357.268 1124.24 355.904 1122.73 353.824 1121.97 351.03 1121.97ZM353.594 1094.36C359.085 1094.36 363.194 1096.22 365.923 1099.95 368.652 1103.68 370.016 1109.33 370.016 1116.89 370.016 1119.89 369.753 1123.44 369.227 1127.57 368.701 1131.7 367.814 1136 366.564 1140.47 365.315 1144.94 363.868 1148.74 362.224 1151.86 360.581 1154.98 358.756 1157.56 356.75 1159.6 354.745 1161.64 352.435 1163.22 349.821 1164.34 347.208 1165.45 344.257 1166.01 340.969 1166.01 337.648 1166.01 334.772 1165.33 332.339 1163.97 329.906 1162.6 328.065 1160.63 326.815 1158.05 325.566 1155.47 324.941 1152.3 324.941 1148.55 324.941 1144.87 325.517 1141.21 326.667 1137.58 327.818 1133.95 329.503 1130.64 331.722 1127.67 333.941 1124.69 336.588 1122.35 339.662 1120.64 342.736 1118.93 346.032 1118.08 349.55 1118.08 351.917 1118.08 353.989 1118.35 355.764 1118.89 357.539 1119.43 359.512 1120.49 361.682 1122.07L361.781 1120.84C361.879 1119.26 361.929 1117.9 361.929 1116.75 361.929 1114.05 361.764 1111.62 361.435 1109.45 361.107 1107.28 360.556 1105.41 359.783 1103.85 359.011 1102.29 357.975 1101.09 356.676 1100.25 355.378 1099.41 353.742 1098.99 351.769 1098.99 349.369 1098.99 347.142 1099.56 345.087 1100.69 343.032 1101.83 341.018 1103.58 339.046 1105.94L335.495 1105.94 335.495 1101.85C338.618 1099.65 341.043 1098.08 342.769 1097.14 344.495 1096.2 346.221 1095.51 347.947 1095.05 349.673 1094.59 351.556 1094.36 353.594 1094.36Z" fill-rule="evenodd"/><text fill="#000000" fill-opacity="0" font-family="Arial,Arial_MSFontService,sans-serif" font-size="71.6567" x="324.941" y="1157.06">∂</text><path d="M412.194 1102.25C410.156 1102.25 408.019 1102.3 405.783 1102.39L399.076 1132.28 404.205 1132.28C408.183 1132.28 411.397 1131.87 413.846 1131.05 416.296 1130.23 418.301 1128.95 419.863 1127.22 421.425 1125.5 422.633 1123.45 423.488 1121.09 424.342 1118.72 424.77 1116.12 424.77 1113.29 424.77 1109.48 423.8 1106.68 421.86 1104.91 419.92 1103.13 416.698 1102.25 412.194 1102.25ZM391.531 1097.91 413.279 1097.91C417.192 1097.91 420.405 1098.21 422.921 1098.82 425.436 1099.43 427.507 1100.36 429.134 1101.63 430.762 1102.9 431.978 1104.5 432.784 1106.44 433.589 1108.38 433.992 1110.63 433.992 1113.19 433.992 1118.13 432.825 1122.4 430.491 1126.02 428.156 1129.63 424.992 1132.3 420.997 1134.01 417.003 1135.72 412.211 1136.57 406.621 1136.57 403.268 1136.57 400.473 1136.5 398.238 1136.37L395.081 1150.87C394.785 1152.22 394.58 1153.26 394.465 1153.98 394.35 1154.7 394.251 1155.48 394.169 1156.32 394.087 1157.16 394.046 1157.91 394.046 1158.57 394.046 1159.58 394.21 1160.38 394.539 1160.96 394.868 1161.53 395.361 1161.95 396.018 1162.21 396.676 1162.48 397.81 1162.68 399.421 1162.81L398.879 1165.22 378.61 1165.22 379.152 1162.81C380.402 1162.61 381.339 1162.29 381.963 1161.85 382.588 1161.4 383.114 1160.78 383.541 1160 383.969 1159.21 384.363 1158.24 384.725 1157.11 385.087 1155.98 385.629 1153.78 386.352 1150.53L394.736 1112.55C395.459 1109.27 395.821 1106.67 395.821 1104.76 395.821 1103.15 395.443 1102.03 394.687 1101.41 393.931 1100.78 392.698 1100.42 390.988 1100.32Z" fill-rule="evenodd"/><text fill="#000000" fill-opacity="0" font-family="Arial,Arial_MSFontService,sans-serif" font-size="67.3169" x="378.61" y="1156.81">𝑃</text><path d="M479.412 1093.96 480.744 1097.76C473.05 1100.29 467.354 1105.23 463.655 1112.58 459.957 1119.93 458.107 1129.16 458.107 1140.27 458.107 1151.78 459.957 1161.26 463.655 1168.72 467.354 1176.19 473.001 1181.19 480.596 1183.72L479.412 1187.51C469.779 1184.98 462.398 1179.53 457.269 1171.17 452.14 1162.8 449.576 1152.66 449.576 1140.76 449.576 1128.89 452.148 1118.76 457.294 1110.36 462.439 1101.96 469.812 1096.49 479.412 1093.96Z" fill-rule="evenodd"/><text fill="#000000" fill-opacity="0" font-family="Arial,Arial_MSFontService,sans-serif" font-size="93.5532" x="449.576" y="1175.82">(</text><path d="M502.002 1117.24C503.021 1117.24 503.917 1117.35 504.689 1117.58 505.462 1117.81 506.144 1118.17 506.736 1118.64 507.328 1119.12 507.854 1119.74 508.314 1120.49 508.774 1121.25 509.218 1122.28 509.646 1123.58 510.073 1124.87 510.476 1126.49 510.854 1128.41 511.232 1130.33 511.569 1132.33 511.865 1134.4L512.358 1134.4C515.514 1129.96 517.906 1126.72 519.534 1124.66 521.161 1122.61 522.534 1121.08 523.651 1120.07 524.769 1119.07 525.846 1118.36 526.882 1117.95 527.917 1117.54 529.29 1117.34 531 1117.34 532.545 1117.34 533.811 1117.53 534.797 1117.93L532.824 1126.86 529.372 1126.86C529.175 1125.47 528.6 1124.78 527.646 1124.78 527.35 1124.78 527.038 1124.83 526.709 1124.93 526.38 1125.03 525.978 1125.24 525.501 1125.57 525.024 1125.9 524.325 1126.54 523.405 1127.5 522.484 1128.45 521.449 1129.62 520.298 1131 519.147 1132.38 517.964 1133.83 516.747 1135.34L513.394 1139.53C513.985 1142.69 514.544 1145.41 515.07 1147.72 515.596 1150.02 516.065 1151.93 516.476 1153.46 516.887 1154.99 517.249 1156.2 517.561 1157.09 517.873 1157.97 518.21 1158.64 518.572 1159.08 518.934 1159.53 519.303 1159.84 519.681 1160.02 520.06 1160.2 520.495 1160.29 520.988 1160.29 521.876 1160.29 522.739 1159.95 523.577 1159.26 524.416 1158.57 525.624 1157 527.202 1154.57L530.408 1156.69C528.106 1160.11 526.027 1162.52 524.169 1163.92 522.312 1165.31 520.101 1166.01 517.536 1166.01 516.122 1166.01 514.922 1165.76 513.936 1165.25 512.95 1164.74 512.095 1163.92 511.372 1162.81 510.648 1161.69 510.007 1159.95 509.448 1157.58 508.429 1153.37 507.804 1150.15 507.574 1147.91L507.081 1147.91C503.596 1152.81 501.007 1156.33 499.314 1158.47 497.621 1160.6 496.223 1162.18 495.122 1163.2 494.021 1164.22 492.952 1164.94 491.916 1165.35 490.881 1165.76 489.508 1165.96 487.798 1165.96 486.253 1165.96 484.987 1165.77 484.001 1165.37L485.974 1156.44 489.426 1156.44C489.623 1157.83 490.198 1158.52 491.152 1158.52 491.612 1158.52 492.097 1158.39 492.607 1158.15 493.116 1157.9 493.848 1157.31 494.801 1156.37 495.755 1155.43 497.07 1153.96 498.747 1151.96 500.423 1149.95 502.856 1146.94 506.046 1142.93 505.552 1140.33 505.043 1137.84 504.517 1135.44 503.991 1133.04 503.448 1130.8 502.889 1128.73 502.33 1126.66 501.87 1125.3 501.508 1124.66 501.147 1124.02 500.76 1123.58 500.349 1123.33 499.938 1123.08 499.421 1122.96 498.796 1122.96 498.106 1122.96 497.481 1123.12 496.922 1123.43 496.363 1123.74 495.755 1124.28 495.097 1125.06 494.44 1125.83 493.568 1127.04 492.483 1128.68L489.278 1126.56C491.349 1123.44 493.338 1121.1 495.245 1119.56 497.152 1118.01 499.404 1117.24 502.002 1117.24Z" fill-rule="evenodd"/><text fill="#000000" fill-opacity="0" font-family="Arial,Arial_MSFontService,sans-serif" font-size="48.7739" x="484.001" y="1159.92">𝑥</text><path d="M546.032 1153.78 554.662 1153.78C555.123 1156.08 555.353 1158.35 555.353 1160.59 555.353 1162.89 554.958 1164.99 554.169 1166.9 553.38 1168.81 552.123 1170.71 550.397 1172.6 548.67 1174.49 546.295 1176.57 543.27 1178.83L540.607 1175.83C542.284 1174.25 543.5 1172.83 544.257 1171.56 545.013 1170.29 545.555 1168.86 545.884 1167.25 546.213 1165.63 546.377 1163.61 546.377 1161.18 546.377 1158.68 546.262 1156.21 546.032 1153.78Z" fill-rule="evenodd"/><text fill="#000000" fill-opacity="0" font-family="Arial,Arial_MSFontService,sans-serif" font-size="25.0527" x="540.607" y="1175.7">,</text><path d="M596.129 1105.9 602.935 1105.9 600.223 1118.08 615.215 1118.08 614.13 1123.06 599.138 1123.06 594.748 1142.19C593.894 1145.91 593.351 1148.58 593.121 1150.21 592.891 1151.83 592.776 1153.14 592.776 1154.13 592.776 1158.2 594.469 1160.24 597.855 1160.24 599.302 1160.24 600.839 1159.69 602.466 1158.59 604.094 1157.49 606.025 1155.61 608.261 1152.94L611.121 1155.9C608.261 1159.35 605.508 1161.9 602.861 1163.55 600.214 1165.19 597.444 1166.01 594.551 1166.01 587.68 1166.01 584.244 1162.54 584.244 1155.61 584.244 1153.4 584.523 1151.09 585.082 1148.65L590.902 1123.06 582.617 1123.06 583.356 1119.65C585.296 1119.62 586.767 1119.47 587.77 1119.21 588.773 1118.95 589.611 1118.59 590.285 1118.13 590.959 1117.67 591.576 1117.01 592.135 1116.15 592.694 1115.3 593.236 1114.21 593.762 1112.87 594.288 1111.54 595.077 1109.22 596.129 1105.9Z" fill-rule="evenodd"/><text fill="#000000" fill-opacity="0" font-family="Arial,Arial_MSFontService,sans-serif" font-size="60.1167" x="582.617" y="1158.5">𝑡</text><path d="M622.035 1093.96C631.636 1096.49 639.009 1101.96 644.154 1110.36 649.299 1118.76 651.872 1128.89 651.872 1140.76 651.872 1152.66 649.307 1162.8 644.179 1171.17 639.05 1179.53 631.669 1184.98 622.035 1187.51L620.852 1183.72C628.447 1181.19 634.093 1176.19 637.792 1168.72 641.491 1161.26 643.34 1151.78 643.34 1140.27 643.34 1129.16 641.499 1119.93 637.817 1112.58 634.134 1105.23 628.43 1100.29 620.704 1097.76Z" fill-rule="evenodd"/><text fill="#000000" fill-opacity="0" font-family="Arial,Arial_MSFontService,sans-serif" font-size="93.5532" x="620.704" y="1175.82">)</text><path d="M472.465 1265.73C470.46 1265.73 468.544 1266.25 466.72 1267.28 464.895 1268.32 463.259 1269.81 461.813 1271.75 460.366 1273.69 459.158 1275.94 458.188 1278.5 457.218 1281.07 456.462 1283.67 455.919 1286.32 455.377 1288.97 455.106 1291.72 455.106 1294.58 455.106 1297.54 455.426 1299.85 456.067 1301.51 456.708 1303.17 457.555 1304.31 458.607 1304.94 459.659 1305.56 460.974 1305.87 462.552 1305.87 466.103 1305.87 469.136 1304.45 471.651 1301.61 474.166 1298.76 476.312 1294.49 478.087 1288.78 479.862 1283.08 480.75 1278.58 480.75 1275.3 480.75 1271.94 480.068 1269.51 478.704 1268 477.339 1266.49 475.26 1265.73 472.465 1265.73ZM475.029 1238.11C480.52 1238.11 484.63 1239.98 487.359 1243.71 490.087 1247.44 491.452 1253.09 491.452 1260.65 491.452 1263.64 491.189 1267.2 490.663 1271.33 490.137 1275.45 489.249 1279.75 488 1284.22 486.75 1288.69 485.304 1292.49 483.66 1295.61 482.016 1298.74 480.191 1301.32 478.186 1303.36 476.18 1305.4 473.871 1306.97 471.257 1308.09 468.643 1309.21 465.692 1309.77 462.404 1309.77 459.084 1309.77 456.207 1309.09 453.774 1307.72 451.341 1306.36 449.5 1304.38 448.251 1301.8 447.001 1299.22 446.377 1296.06 446.377 1292.31 446.377 1288.63 446.952 1284.97 448.103 1281.34 449.253 1277.7 450.938 1274.4 453.158 1271.43 455.377 1268.45 458.024 1266.11 461.098 1264.4 464.172 1262.69 467.468 1261.83 470.986 1261.83 473.353 1261.83 475.424 1262.1 477.199 1262.65 478.975 1263.19 480.947 1264.25 483.117 1265.83L483.216 1264.59C483.315 1263.02 483.364 1261.65 483.364 1260.5 483.364 1257.81 483.2 1255.37 482.871 1253.2 482.542 1251.03 481.991 1249.17 481.219 1247.61 480.446 1246.04 479.41 1244.84 478.112 1244.01 476.813 1243.17 475.177 1242.75 473.205 1242.75 470.805 1242.75 468.577 1243.31 466.522 1244.45 464.468 1245.58 462.454 1247.33 460.481 1249.7L456.93 1249.7 456.93 1245.61C460.054 1243.41 462.478 1241.84 464.205 1240.9 465.931 1239.96 467.657 1239.26 469.383 1238.8 471.109 1238.34 472.991 1238.11 475.029 1238.11Z" fill-rule="evenodd"/><text fill="#000000" fill-opacity="0" font-family="Arial,Arial_MSFontService,sans-serif" font-size="71.6567" x="446.377" y="1300.81">∂</text><path d="M516.517 1249.65 523.322 1249.65 520.61 1261.83 535.602 1261.83 534.517 1266.81 519.525 1266.81 515.136 1285.95C514.281 1289.66 513.739 1292.34 513.508 1293.96 513.278 1295.59 513.163 1296.9 513.163 1297.88 513.163 1301.96 514.856 1304 518.243 1304 519.689 1304 521.227 1303.45 522.854 1302.35 524.481 1301.24 526.413 1299.36 528.649 1296.7L531.509 1299.66C528.649 1303.11 525.895 1305.66 523.248 1307.3 520.602 1308.95 517.832 1309.77 514.939 1309.77 508.067 1309.77 504.632 1306.3 504.632 1299.36 504.632 1297.16 504.911 1294.84 505.47 1292.41L511.289 1266.81 503.004 1266.81 503.744 1263.41C505.684 1263.38 507.155 1263.23 508.158 1262.97 509.16 1262.7 509.999 1262.34 510.673 1261.88 511.347 1261.42 511.963 1260.76 512.522 1259.91 513.081 1259.05 513.624 1257.96 514.15 1256.63 514.676 1255.3 515.465 1252.97 516.517 1249.65Z" fill-rule="evenodd"/><text fill="#000000" fill-opacity="0" font-family="Arial,Arial_MSFontService,sans-serif" font-size="60.1167" x="503.004" y="1302.25">𝑡</text><path d="M320.903 1209.54 490.903 1209.54 660.903 1209.54 660.903 1216.54 490.903 1216.54 320.903 1216.54Z" fill-rule="evenodd"/><path d="M696.005 1219.64 756.763 1219.64 756.763 1226.2 696.005 1226.2ZM696.005 1199.17 756.763 1199.17 756.763 1205.73 696.005 1205.73Z" fill-rule="evenodd"/><text fill="#000000" fill-opacity="0" font-family="Arial,Arial_MSFontService,sans-serif" font-size="27.0254" x="696.005" y="1222.82">=</text><path d="M826.284 1178.51C824.837 1178.51 823.276 1178.56 821.599 1178.66L808.826 1237C809.779 1237.1 811.604 1237.15 814.3 1237.15 819.626 1237.15 824.147 1236.22 827.862 1234.36 831.577 1232.5 834.783 1229.59 837.479 1225.63 840.175 1221.67 842.164 1217.49 843.446 1213.1 844.728 1208.72 845.37 1204.09 845.37 1199.22 845.37 1192.35 843.767 1187.18 840.561 1183.71 837.356 1180.24 832.597 1178.51 826.284 1178.51ZM807.445 1174.22 826.136 1174.22C831.101 1174.22 835.128 1174.6 838.219 1175.35 841.309 1176.11 844.194 1177.47 846.874 1179.45 849.553 1181.42 851.567 1184.04 852.915 1187.31 854.263 1190.58 854.937 1194.46 854.937 1198.93 854.937 1203.36 854.427 1207.61 853.408 1211.65 852.389 1215.69 850.926 1219.42 849.019 1222.82 847.112 1226.22 844.827 1229.18 842.164 1231.7 839.501 1234.21 836.92 1236.14 834.421 1237.49 831.923 1238.84 829.128 1239.85 826.037 1240.52 822.947 1241.2 819.347 1241.54 815.237 1241.54L794.524 1241.54 795.067 1239.12C796.316 1238.92 797.253 1238.6 797.878 1238.16 798.503 1237.71 799.029 1237.1 799.456 1236.31 799.883 1235.52 800.278 1234.56 800.64 1233.42 801.001 1232.29 801.544 1230.09 802.267 1226.84L810.651 1188.87C811.374 1185.58 811.736 1182.93 811.736 1180.93 811.736 1179.38 811.349 1178.3 810.577 1177.7 809.804 1177.09 808.579 1176.73 806.903 1176.64Z" fill-rule="evenodd"/><text fill="#000000" fill-opacity="0" font-family="Arial,Arial_MSFontService,sans-serif" font-size="67.3169" x="794.524" y="1233.12">𝐷</text><path d="M911.594 1121.97C909.589 1121.97 907.674 1122.49 905.849 1123.53 904.024 1124.56 902.388 1126.05 900.942 1127.99 899.495 1129.93 898.287 1132.18 897.317 1134.75 896.347 1137.31 895.591 1139.92 895.049 1142.56 894.506 1145.21 894.235 1147.96 894.235 1150.82 894.235 1153.78 894.555 1156.09 895.196 1157.75 895.838 1159.41 896.684 1160.55 897.736 1161.18 898.788 1161.8 900.103 1162.12 901.682 1162.12 905.232 1162.12 908.265 1160.69 910.78 1157.85 913.296 1155.01 915.441 1150.73 917.216 1145.03 918.992 1139.32 919.879 1134.83 919.879 1131.54 919.879 1128.19 919.197 1125.75 917.833 1124.24 916.468 1122.73 914.389 1121.97 911.594 1121.97ZM914.159 1094.36C919.649 1094.36 923.759 1096.22 926.488 1099.95 929.217 1103.68 930.581 1109.33 930.581 1116.89 930.581 1119.89 930.318 1123.44 929.792 1127.57 929.266 1131.7 928.378 1136 927.129 1140.47 925.88 1144.94 924.433 1148.74 922.789 1151.86 921.145 1154.98 919.32 1157.56 917.315 1159.6 915.309 1161.64 913 1163.22 910.386 1164.34 907.772 1165.45 904.821 1166.01 901.534 1166.01 898.213 1166.01 895.336 1165.33 892.903 1163.97 890.47 1162.6 888.629 1160.63 887.38 1158.05 886.13 1155.47 885.506 1152.3 885.506 1148.55 885.506 1144.87 886.081 1141.21 887.232 1137.58 888.383 1133.95 890.068 1130.64 892.287 1127.67 894.506 1124.69 897.153 1122.35 900.227 1120.64 903.301 1118.93 906.597 1118.08 910.115 1118.08 912.482 1118.08 914.553 1118.35 916.329 1118.89 918.104 1119.43 920.077 1120.49 922.247 1122.07L922.345 1120.84C922.444 1119.26 922.493 1117.9 922.493 1116.75 922.493 1114.05 922.329 1111.62 922 1109.45 921.671 1107.28 921.12 1105.41 920.348 1103.85 919.575 1102.29 918.54 1101.09 917.241 1100.25 915.942 1099.41 914.307 1098.99 912.334 1098.99 909.934 1098.99 907.706 1099.56 905.652 1100.69 903.597 1101.83 901.583 1103.58 899.61 1105.94L896.06 1105.94 896.06 1101.85C899.183 1099.65 901.608 1098.08 903.334 1097.14 905.06 1096.2 906.786 1095.51 908.512 1095.05 910.238 1094.59 912.12 1094.36 914.159 1094.36Z" fill-rule="evenodd"/><text fill="#000000" fill-opacity="0" font-family="Arial,Arial_MSFontService,sans-serif" font-size="71.6567" x="885.506" y="1157.06">∂</text><path d="M957.935 1081.51C960.44 1081.51 962.578 1081.8 964.348 1082.36 966.119 1082.93 967.558 1083.69 968.666 1084.66 969.774 1085.62 970.575 1086.78 971.069 1088.12 971.563 1089.47 971.81 1090.93 971.81 1092.5 971.81 1093.44 971.743 1094.31 971.611 1095.12 971.478 1095.92 971.249 1096.72 970.924 1097.5 970.599 1098.28 970.172 1099.07 969.642 1099.87 969.112 1100.66 968.449 1101.51 967.654 1102.4 967.052 1103.17 966.269 1104.06 965.306 1105.07 964.342 1106.08 963.288 1107.17 962.144 1108.32 961 1109.48 959.801 1110.68 958.549 1111.94 957.296 1113.19 956.08 1114.43 954.899 1115.66 953.719 1116.89 952.635 1118.08 951.647 1119.24 950.66 1120.39 949.853 1121.45 949.227 1122.41L962.596 1122.41C963.728 1122.41 964.631 1122.37 965.306 1122.29 965.98 1122.2 966.54 1122.02 966.986 1121.73 967.431 1121.44 967.811 1121 968.124 1120.41 968.437 1119.82 968.798 1119.01 969.208 1117.97L972.568 1117.97C972.448 1119.68 972.333 1121.4 972.225 1123.14 972.117 1124.87 972.002 1126.59 971.882 1128.3L941.277 1128.3 941.277 1126.43C941.855 1125.12 942.53 1123.84 943.301 1122.58 944.072 1121.31 944.939 1120.03 945.902 1118.73 946.866 1117.43 947.962 1116.09 949.19 1114.7 950.419 1113.32 951.78 1111.88 953.273 1110.38 955.538 1108.12 957.38 1106.19 958.802 1104.58 960.223 1102.98 961.343 1101.55 962.162 1100.3 962.981 1099.05 963.541 1097.89 963.842 1096.83 964.143 1095.77 964.294 1094.64 964.294 1093.44 964.294 1092.21 964.119 1091.08 963.77 1090.04 963.421 1089 962.921 1088.12 962.27 1087.4 961.62 1086.68 960.795 1086.11 959.795 1085.7 958.796 1085.29 957.645 1085.09 956.345 1085.09 954.104 1085.09 952.226 1085.7 950.708 1086.91 949.19 1088.13 948.01 1089.9 947.167 1092.21L942.434 1092.21 942.434 1085.16C945.517 1083.89 948.353 1082.96 950.943 1082.38 953.532 1081.8 955.863 1081.51 957.935 1081.51Z" fill-rule="evenodd"/><text fill="#000000" fill-opacity="0" font-family="Arial,Arial_MSFontService,sans-serif" font-size="46.792" x="941.277" y="1122.46">2</text><path d="M1019.35 1102.25C1017.31 1102.25 1015.17 1102.3 1012.94 1102.39L1006.23 1132.28 1011.36 1132.28C1015.34 1132.28 1018.55 1131.87 1021 1131.05 1023.45 1130.23 1025.46 1128.95 1027.02 1127.22 1028.58 1125.5 1029.79 1123.45 1030.64 1121.09 1031.5 1118.72 1031.92 1116.12 1031.92 1113.29 1031.92 1109.48 1030.95 1106.68 1029.01 1104.91 1027.07 1103.13 1023.85 1102.25 1019.35 1102.25ZM998.685 1097.91 1020.43 1097.91C1024.35 1097.91 1027.56 1098.21 1030.07 1098.82 1032.59 1099.43 1034.66 1100.36 1036.29 1101.63 1037.92 1102.9 1039.13 1104.5 1039.94 1106.44 1040.74 1108.38 1041.15 1110.63 1041.15 1113.19 1041.15 1118.13 1039.98 1122.4 1037.64 1126.02 1035.31 1129.63 1032.15 1132.3 1028.15 1134.01 1024.16 1135.72 1019.36 1136.57 1013.78 1136.57 1010.42 1136.57 1007.63 1136.5 1005.39 1136.37L1002.24 1150.87C1001.94 1152.22 1001.73 1153.26 1001.62 1153.98 1001.5 1154.7 1001.41 1155.48 1001.32 1156.32 1001.24 1157.16 1001.2 1157.91 1001.2 1158.57 1001.2 1159.58 1001.36 1160.38 1001.69 1160.96 1002.02 1161.53 1002.52 1161.95 1003.17 1162.21 1003.83 1162.48 1004.96 1162.68 1006.58 1162.81L1006.03 1165.22 985.764 1165.22 986.306 1162.81C987.556 1162.61 988.493 1162.29 989.117 1161.85 989.742 1161.4 990.268 1160.78 990.695 1160 991.123 1159.21 991.517 1158.24 991.879 1157.11 992.241 1155.98 992.783 1153.78 993.507 1150.53L1001.89 1112.55C1002.61 1109.27 1002.98 1106.67 1002.98 1104.76 1002.98 1103.15 1002.6 1102.03 1001.84 1101.41 1001.08 1100.78 999.852 1100.42 998.142 1100.32Z" fill-rule="evenodd"/><text fill="#000000" fill-opacity="0" font-family="Arial,Arial_MSFontService,sans-serif" font-size="67.3169" x="985.764" y="1156.81">𝑃</text><path d="M1086.57 1093.96 1087.9 1097.76C1080.2 1100.29 1074.51 1105.23 1070.81 1112.58 1067.11 1119.93 1065.26 1129.16 1065.26 1140.27 1065.26 1151.78 1067.11 1161.26 1070.81 1168.72 1074.51 1176.19 1080.16 1181.19 1087.75 1183.72L1086.57 1187.51C1076.93 1184.98 1069.55 1179.53 1064.42 1171.17 1059.29 1162.8 1056.73 1152.66 1056.73 1140.76 1056.73 1128.89 1059.3 1118.76 1064.45 1110.36 1069.59 1101.96 1076.97 1096.49 1086.57 1093.96Z" fill-rule="evenodd"/><text fill="#000000" fill-opacity="0" font-family="Arial,Arial_MSFontService,sans-serif" font-size="93.5532" x="1056.73" y="1175.82">(</text><path d="M1109.16 1117.24C1110.17 1117.24 1111.07 1117.35 1111.84 1117.58 1112.62 1117.81 1113.3 1118.17 1113.89 1118.64 1114.48 1119.12 1115.01 1119.74 1115.47 1120.49 1115.93 1121.25 1116.37 1122.28 1116.8 1123.58 1117.23 1124.87 1117.63 1126.49 1118.01 1128.41 1118.39 1130.33 1118.72 1132.33 1119.02 1134.4L1119.51 1134.4C1122.67 1129.96 1125.06 1126.72 1126.69 1124.66 1128.32 1122.61 1129.69 1121.08 1130.81 1120.07 1131.92 1119.07 1133 1118.36 1134.04 1117.95 1135.07 1117.54 1136.44 1117.34 1138.15 1117.34 1139.7 1117.34 1140.96 1117.53 1141.95 1117.93L1139.98 1126.86 1136.53 1126.86C1136.33 1125.47 1135.75 1124.78 1134.8 1124.78 1134.5 1124.78 1134.19 1124.83 1133.86 1124.93 1133.53 1125.03 1133.13 1125.24 1132.66 1125.57 1132.18 1125.9 1131.48 1126.54 1130.56 1127.5 1129.64 1128.45 1128.6 1129.62 1127.45 1131 1126.3 1132.38 1125.12 1133.83 1123.9 1135.34L1120.55 1139.53C1121.14 1142.69 1121.7 1145.41 1122.22 1147.72 1122.75 1150.02 1123.22 1151.93 1123.63 1153.46 1124.04 1154.99 1124.4 1156.2 1124.72 1157.09 1125.03 1157.97 1125.36 1158.64 1125.73 1159.08 1126.09 1159.53 1126.46 1159.84 1126.84 1160.02 1127.21 1160.2 1127.65 1160.29 1128.14 1160.29 1129.03 1160.29 1129.89 1159.95 1130.73 1159.26 1131.57 1158.57 1132.78 1157 1134.36 1154.57L1137.56 1156.69C1135.26 1160.11 1133.18 1162.52 1131.32 1163.92 1129.47 1165.31 1127.25 1166.01 1124.69 1166.01 1123.28 1166.01 1122.08 1165.76 1121.09 1165.25 1120.1 1164.74 1119.25 1163.92 1118.53 1162.81 1117.8 1161.69 1117.16 1159.95 1116.6 1157.58 1115.58 1153.37 1114.96 1150.15 1114.73 1147.91L1114.24 1147.91C1110.75 1152.81 1108.16 1156.33 1106.47 1158.47 1104.77 1160.6 1103.38 1162.18 1102.28 1163.2 1101.17 1164.22 1100.11 1164.94 1099.07 1165.35 1098.03 1165.76 1096.66 1165.96 1094.95 1165.96 1093.41 1165.96 1092.14 1165.77 1091.16 1165.37L1093.13 1156.44 1096.58 1156.44C1096.78 1157.83 1097.35 1158.52 1098.31 1158.52 1098.77 1158.52 1099.25 1158.39 1099.76 1158.15 1100.27 1157.9 1101 1157.31 1101.96 1156.37 1102.91 1155.43 1104.22 1153.96 1105.9 1151.96 1107.58 1149.95 1110.01 1146.94 1113.2 1142.93 1112.71 1140.33 1112.2 1137.84 1111.67 1135.44 1111.14 1133.04 1110.6 1130.8 1110.04 1128.73 1109.48 1126.66 1109.02 1125.3 1108.66 1124.66 1108.3 1124.02 1107.91 1123.58 1107.5 1123.33 1107.09 1123.08 1106.57 1122.96 1105.95 1122.96 1105.26 1122.96 1104.64 1123.12 1104.08 1123.43 1103.52 1123.74 1102.91 1124.28 1102.25 1125.06 1101.59 1125.83 1100.72 1127.04 1099.64 1128.68L1096.43 1126.56C1098.5 1123.44 1100.49 1121.1 1102.4 1119.56 1104.31 1118.01 1106.56 1117.24 1109.16 1117.24Z" fill-rule="evenodd"/><text fill="#000000" fill-opacity="0" font-family="Arial,Arial_MSFontService,sans-serif" font-size="48.7739" x="1091.16" y="1159.92">𝑥</text><path d="M1153.19 1153.78 1161.82 1153.78C1162.28 1156.08 1162.51 1158.35 1162.51 1160.59 1162.51 1162.89 1162.11 1164.99 1161.32 1166.9 1160.53 1168.81 1159.28 1170.71 1157.55 1172.6 1155.82 1174.49 1153.45 1176.57 1150.42 1178.83L1147.76 1175.83C1149.44 1174.25 1150.65 1172.83 1151.41 1171.56 1152.17 1170.29 1152.71 1168.86 1153.04 1167.25 1153.37 1165.63 1153.53 1163.61 1153.53 1161.18 1153.53 1158.68 1153.42 1156.21 1153.19 1153.78Z" fill-rule="evenodd"/><text fill="#000000" fill-opacity="0" font-family="Arial,Arial_MSFontService,sans-serif" font-size="25.0527" x="1147.76" y="1175.7">,</text><path d="M1203.28 1105.9 1210.09 1105.9 1207.38 1118.08 1222.37 1118.08 1221.28 1123.06 1206.29 1123.06 1201.9 1142.19C1201.05 1145.91 1200.51 1148.58 1200.28 1150.21 1200.05 1151.83 1199.93 1153.14 1199.93 1154.13 1199.93 1158.2 1201.62 1160.24 1205.01 1160.24 1206.46 1160.24 1207.99 1159.69 1209.62 1158.59 1211.25 1157.49 1213.18 1155.61 1215.42 1152.94L1218.28 1155.9C1215.42 1159.35 1212.66 1161.9 1210.02 1163.55 1207.37 1165.19 1204.6 1166.01 1201.71 1166.01 1194.83 1166.01 1191.4 1162.54 1191.4 1155.61 1191.4 1153.4 1191.68 1151.09 1192.24 1148.65L1198.06 1123.06 1189.77 1123.06 1190.51 1119.65C1192.45 1119.62 1193.92 1119.47 1194.92 1119.21 1195.93 1118.95 1196.77 1118.59 1197.44 1118.13 1198.11 1117.67 1198.73 1117.01 1199.29 1116.15 1199.85 1115.3 1200.39 1114.21 1200.92 1112.87 1201.44 1111.54 1202.23 1109.22 1203.28 1105.9Z" fill-rule="evenodd"/><text fill="#000000" fill-opacity="0" font-family="Arial,Arial_MSFontService,sans-serif" font-size="60.1167" x="1189.77" y="1158.5">𝑡</text><path d="M1229.19 1093.96C1238.79 1096.49 1246.16 1101.96 1251.31 1110.36 1256.45 1118.76 1259.03 1128.89 1259.03 1140.76 1259.03 1152.66 1256.46 1162.8 1251.33 1171.17 1246.2 1179.53 1238.82 1184.98 1229.19 1187.51L1228.01 1183.72C1235.6 1181.19 1241.25 1176.19 1244.95 1168.72 1248.64 1161.26 1250.49 1151.78 1250.49 1140.27 1250.49 1129.16 1248.65 1119.93 1244.97 1112.58 1241.29 1105.23 1235.58 1100.29 1227.86 1097.76Z" fill-rule="evenodd"/><text fill="#000000" fill-opacity="0" font-family="Arial,Arial_MSFontService,sans-serif" font-size="93.5532" x="1227.86" y="1175.82">)</text><path d="M1024.34 1265.73C1022.34 1265.73 1020.42 1266.25 1018.6 1267.28 1016.77 1268.32 1015.14 1269.81 1013.69 1271.75 1012.25 1273.69 1011.04 1275.94 1010.07 1278.5 1009.1 1281.07 1008.34 1283.67 1007.8 1286.32 1007.26 1288.97 1006.98 1291.72 1006.98 1294.58 1006.98 1297.54 1007.31 1299.85 1007.95 1301.51 1008.59 1303.17 1009.43 1304.31 1010.49 1304.94 1011.54 1305.56 1012.85 1305.87 1014.43 1305.87 1017.98 1305.87 1021.02 1304.45 1023.53 1301.61 1026.05 1298.76 1028.19 1294.49 1029.97 1288.78 1031.74 1283.08 1032.63 1278.58 1032.63 1275.3 1032.63 1271.94 1031.95 1269.51 1030.58 1268 1029.22 1266.49 1027.14 1265.73 1024.34 1265.73ZM1026.91 1238.11C1032.4 1238.11 1036.51 1239.98 1039.24 1243.71 1041.97 1247.44 1043.33 1253.09 1043.33 1260.65 1043.33 1263.64 1043.07 1267.2 1042.54 1271.33 1042.02 1275.45 1041.13 1279.75 1039.88 1284.22 1038.63 1288.69 1037.18 1292.49 1035.54 1295.61 1033.9 1298.74 1032.07 1301.32 1030.06 1303.36 1028.06 1305.4 1025.75 1306.97 1023.14 1308.09 1020.52 1309.21 1017.57 1309.77 1014.28 1309.77 1010.96 1309.77 1008.09 1309.09 1005.65 1307.72 1003.22 1306.36 1001.38 1304.38 1000.13 1301.8 998.88 1299.22 998.256 1296.06 998.256 1292.31 998.256 1288.63 998.831 1284.97 999.982 1281.34 1001.13 1277.7 1002.82 1274.4 1005.04 1271.43 1007.26 1268.45 1009.9 1266.11 1012.98 1264.4 1016.05 1262.69 1019.35 1261.83 1022.86 1261.83 1025.23 1261.83 1027.3 1262.1 1029.08 1262.65 1030.85 1263.19 1032.83 1264.25 1035 1265.83L1035.1 1264.59C1035.19 1263.02 1035.24 1261.65 1035.24 1260.5 1035.24 1257.81 1035.08 1255.37 1034.75 1253.2 1034.42 1251.03 1033.87 1249.17 1033.1 1247.61 1032.33 1246.04 1031.29 1244.84 1029.99 1244.01 1028.69 1243.17 1027.06 1242.75 1025.08 1242.75 1022.68 1242.75 1020.46 1243.31 1018.4 1244.45 1016.35 1245.58 1014.33 1247.33 1012.36 1249.7L1008.81 1249.7 1008.81 1245.61C1011.93 1243.41 1014.36 1241.84 1016.08 1240.9 1017.81 1239.96 1019.54 1239.26 1021.26 1238.8 1022.99 1238.34 1024.87 1238.11 1026.91 1238.11Z" fill-rule="evenodd"/><text fill="#000000" fill-opacity="0" font-family="Arial,Arial_MSFontService,sans-serif" font-size="71.6567" x="998.256" y="1300.81">∂</text><path d="M1068.59 1260.99C1069.61 1260.99 1070.51 1261.11 1071.28 1261.34 1072.05 1261.57 1072.74 1261.92 1073.33 1262.4 1073.92 1262.88 1074.45 1263.49 1074.91 1264.25 1075.37 1265.01 1075.81 1266.03 1076.24 1267.33 1076.66 1268.63 1077.07 1270.24 1077.45 1272.16 1077.82 1274.09 1078.16 1276.09 1078.46 1278.16L1078.95 1278.16C1082.11 1273.72 1084.5 1270.47 1086.13 1268.42 1087.75 1266.36 1089.13 1264.83 1090.24 1263.83 1091.36 1262.83 1092.44 1262.12 1093.47 1261.71 1094.51 1261.3 1095.88 1261.09 1097.59 1261.09 1099.14 1261.09 1100.4 1261.29 1101.39 1261.69L1099.42 1270.61 1095.96 1270.61C1095.77 1269.23 1095.19 1268.54 1094.24 1268.54 1093.94 1268.54 1093.63 1268.59 1093.3 1268.69 1092.97 1268.79 1092.57 1269 1092.09 1269.33 1091.62 1269.66 1090.92 1270.3 1090 1271.25 1089.08 1272.21 1088.04 1273.37 1086.89 1274.75 1085.74 1276.13 1084.56 1277.58 1083.34 1279.09L1079.99 1283.29C1080.58 1286.44 1081.14 1289.17 1081.66 1291.47 1082.19 1293.77 1082.66 1295.69 1083.07 1297.22 1083.48 1298.75 1083.84 1299.95 1084.15 1300.84 1084.46 1301.73 1084.8 1302.4 1085.16 1302.84 1085.53 1303.28 1085.9 1303.6 1086.27 1303.78 1086.65 1303.96 1087.09 1304.05 1087.58 1304.05 1088.47 1304.05 1089.33 1303.7 1090.17 1303.01 1091.01 1302.32 1092.22 1300.76 1093.79 1298.33L1097 1300.45C1094.7 1303.87 1092.62 1306.28 1090.76 1307.67 1088.9 1309.07 1086.69 1309.77 1084.13 1309.77 1082.71 1309.77 1081.51 1309.51 1080.53 1309 1079.54 1308.49 1078.69 1307.68 1077.96 1306.56 1077.24 1305.45 1076.6 1303.7 1076.04 1301.34 1075.02 1297.13 1074.4 1293.91 1074.17 1291.67L1073.67 1291.67C1070.19 1296.57 1067.6 1300.09 1065.91 1302.22 1064.21 1304.36 1062.82 1305.94 1061.71 1306.96 1060.61 1307.98 1059.54 1308.69 1058.51 1309.1 1057.47 1309.51 1056.1 1309.72 1054.39 1309.72 1052.84 1309.72 1051.58 1309.52 1050.59 1309.13L1052.57 1300.2 1056.02 1300.2C1056.21 1301.58 1056.79 1302.27 1057.74 1302.27 1058.2 1302.27 1058.69 1302.15 1059.2 1301.9 1059.71 1301.66 1060.44 1301.06 1061.39 1300.13 1062.35 1299.19 1063.66 1297.72 1065.34 1295.71 1067.02 1293.71 1069.45 1290.7 1072.64 1286.69 1072.14 1284.09 1071.63 1281.59 1071.11 1279.19 1070.58 1276.79 1070.04 1274.56 1069.48 1272.49 1068.92 1270.41 1068.46 1269.06 1068.1 1268.42 1067.74 1267.78 1067.35 1267.33 1066.94 1267.09 1066.53 1266.84 1066.01 1266.72 1065.39 1266.72 1064.7 1266.72 1064.07 1266.87 1063.51 1267.18 1062.95 1267.5 1062.35 1268.04 1061.69 1268.81 1061.03 1269.58 1060.16 1270.79 1059.08 1272.44L1055.87 1270.32C1057.94 1267.19 1059.93 1264.86 1061.84 1263.31 1063.74 1261.77 1066 1260.99 1068.59 1260.99Z" fill-rule="evenodd"/><text fill="#000000" fill-opacity="0" font-family="Arial,Arial_MSFontService,sans-serif" font-size="48.7739" x="1050.59" y="1303.67">𝑥</text><path d="M1130.04 1231.91C1132.54 1231.91 1134.68 1232.2 1136.45 1232.76 1138.22 1233.33 1139.66 1234.09 1140.77 1235.06 1141.88 1236.02 1142.68 1237.18 1143.17 1238.53 1143.67 1239.88 1143.91 1241.33 1143.91 1242.9 1143.91 1243.84 1143.85 1244.71 1143.71 1245.52 1143.58 1246.33 1143.35 1247.12 1143.03 1247.9 1142.7 1248.69 1142.28 1249.48 1141.75 1250.27 1141.22 1251.07 1140.55 1251.91 1139.76 1252.8 1139.16 1253.57 1138.37 1254.46 1137.41 1255.47 1136.45 1256.48 1135.39 1257.57 1134.25 1258.73 1133.1 1259.88 1131.91 1261.09 1130.65 1262.34 1129.4 1263.59 1128.18 1264.83 1127 1266.06 1125.82 1267.29 1124.74 1268.48 1123.75 1269.64 1122.76 1270.79 1121.96 1271.85 1121.33 1272.82L1134.7 1272.82C1135.83 1272.82 1136.74 1272.77 1137.41 1272.69 1138.08 1272.61 1138.64 1272.42 1139.09 1272.13 1139.54 1271.84 1139.92 1271.4 1140.23 1270.81 1140.54 1270.22 1140.9 1269.41 1141.31 1268.37L1144.67 1268.37C1144.55 1270.08 1144.44 1271.81 1144.33 1273.54 1144.22 1275.27 1144.11 1277 1143.99 1278.71L1113.38 1278.71 1113.38 1276.83C1113.96 1275.53 1114.63 1274.24 1115.4 1272.98 1116.18 1271.71 1117.04 1270.43 1118.01 1269.13 1118.97 1267.83 1120.07 1266.49 1121.29 1265.1 1122.52 1263.72 1123.88 1262.28 1125.38 1260.78 1127.64 1258.52 1129.48 1256.59 1130.91 1254.99 1132.33 1253.38 1133.45 1251.96 1134.27 1250.7 1135.09 1249.45 1135.65 1248.29 1135.95 1247.23 1136.25 1246.18 1136.4 1245.04 1136.4 1243.84 1136.4 1242.61 1136.22 1241.48 1135.87 1240.44 1135.52 1239.41 1135.03 1238.53 1134.37 1237.8 1133.72 1237.08 1132.9 1236.52 1131.9 1236.11 1130.9 1235.7 1129.75 1235.49 1128.45 1235.49 1126.21 1235.49 1124.33 1236.1 1122.81 1237.32 1121.29 1238.53 1120.11 1240.3 1119.27 1242.61L1114.54 1242.61 1114.54 1235.56C1117.62 1234.29 1120.46 1233.36 1123.05 1232.78 1125.64 1232.2 1127.97 1231.91 1130.04 1231.91Z" fill-rule="evenodd"/><text fill="#000000" fill-opacity="0" font-family="Arial,Arial_MSFontService,sans-serif" font-size="46.792" x="1113.38" y="1272.86">2</text><path d="M880.903 1209.54 1073.9 1209.54 1266.9 1209.54 1266.9 1216.54 1073.9 1216.54 880.903 1216.54Z" fill-rule="evenodd"/></g></svg>