<svg width="1575" height="390" xmlns="http://www.w3.org/2000/svg" xmlns:xlink="http://www.w3.org/1999/xlink" xml:space="preserve" overflow="hidden"><g transform="translate(-2507 -994)"><path d="M2561.06 1144.73C2559.02 1144.73 2556.89 1144.78 2554.65 1144.88L2547.94 1174.77 2553.07 1174.77C2557.05 1174.77 2560.26 1174.36 2562.71 1173.53 2565.16 1172.71 2567.17 1171.44 2568.73 1169.71 2570.29 1167.99 2571.5 1165.94 2572.35 1163.57 2573.21 1161.2 2573.64 1158.61 2573.64 1155.78 2573.64 1151.97 2572.67 1149.17 2570.73 1147.4 2568.79 1145.62 2565.56 1144.73 2561.06 1144.73ZM2540.4 1140.39 2562.15 1140.39C2566.06 1140.39 2569.27 1140.7 2571.79 1141.31 2574.3 1141.91 2576.37 1142.85 2578 1144.12 2579.63 1145.38 2580.84 1146.99 2581.65 1148.92 2582.46 1150.86 2582.86 1153.12 2582.86 1155.68 2582.86 1160.61 2581.69 1164.89 2579.36 1168.5 2577.02 1172.12 2573.86 1174.78 2569.86 1176.49 2565.87 1178.2 2561.08 1179.06 2555.49 1179.06 2552.13 1179.06 2549.34 1178.99 2547.1 1178.86L2543.95 1193.36C2543.65 1194.71 2543.45 1195.74 2543.33 1196.47 2543.22 1197.19 2543.12 1197.97 2543.04 1198.81 2542.95 1199.65 2542.91 1200.39 2542.91 1201.05 2542.91 1202.07 2543.08 1202.87 2543.41 1203.44 2543.73 1204.02 2544.23 1204.44 2544.89 1204.7 2545.54 1204.96 2546.68 1205.16 2548.29 1205.29L2547.75 1207.71 2527.48 1207.71 2528.02 1205.29C2529.27 1205.1 2530.21 1204.78 2530.83 1204.33 2531.45 1203.89 2531.98 1203.27 2532.41 1202.48 2532.84 1201.69 2533.23 1200.73 2533.59 1199.6 2533.95 1198.46 2534.5 1196.27 2535.22 1193.01L2543.6 1155.04C2544.33 1151.75 2544.69 1149.16 2544.69 1147.25 2544.69 1145.64 2544.31 1144.52 2543.55 1143.89 2542.8 1143.27 2541.56 1142.91 2539.85 1142.81Z" fill-rule="evenodd"/><text fill="#000000" fill-opacity="0" font-family="Arial,Arial_MSFontService,sans-serif" font-size="67.3169" x="2527.48" y="1199.3">𝑃</text><path d="M2770.93 1132.07C2780.53 1134.6 2787.9 1140.07 2793.04 1148.47 2798.19 1156.87 2800.76 1167 2800.76 1178.87 2800.76 1190.77 2798.2 1200.91 2793.07 1209.28 2787.94 1217.64 2780.56 1223.09 2770.93 1225.62L2769.74 1221.83C2777.34 1219.3 2782.98 1214.3 2786.68 1206.83 2790.38 1199.37 2792.23 1189.89 2792.23 1178.38 2792.23 1167.27 2790.39 1158.04 2786.71 1150.69 2783.02 1143.34 2777.32 1138.4 2769.59 1135.87ZM2628.28 1132.07 2629.61 1135.87C2621.92 1138.4 2616.22 1143.34 2612.52 1150.69 2608.82 1158.04 2606.97 1167.27 2606.97 1178.38 2606.97 1189.89 2608.82 1199.37 2612.52 1206.83 2616.22 1214.3 2621.87 1219.3 2629.46 1221.83L2628.28 1225.62C2618.65 1223.09 2611.26 1217.64 2606.14 1209.28 2601.01 1200.91 2598.44 1190.77 2598.44 1178.87 2598.44 1167 2601.01 1156.87 2606.16 1148.47 2611.31 1140.07 2618.68 1134.6 2628.28 1132.07Z" fill-rule="evenodd"/><path d="M2650.89 1159.73C2651.91 1159.73 2652.81 1159.84 2653.58 1160.07 2654.35 1160.3 2655.03 1160.65 2655.63 1161.13 2656.22 1161.61 2656.74 1162.22 2657.2 1162.98 2657.66 1163.74 2658.11 1164.76 2658.54 1166.06 2658.96 1167.36 2659.37 1168.97 2659.74 1170.9 2660.12 1172.82 2660.46 1174.82 2660.75 1176.89L2661.25 1176.89C2664.4 1172.45 2666.8 1169.2 2668.42 1167.15 2670.05 1165.09 2671.42 1163.56 2672.54 1162.56 2673.66 1161.56 2674.74 1160.85 2675.77 1160.44 2676.81 1160.03 2678.18 1159.82 2679.89 1159.82 2681.43 1159.82 2682.7 1160.02 2683.69 1160.42L2681.71 1169.34 2678.26 1169.34C2678.06 1167.96 2677.49 1167.27 2676.54 1167.27 2676.24 1167.27 2675.93 1167.32 2675.6 1167.42 2675.27 1167.52 2674.87 1167.73 2674.39 1168.06 2673.91 1168.39 2673.22 1169.03 2672.29 1169.98 2671.37 1170.94 2670.34 1172.1 2669.19 1173.48 2668.04 1174.87 2666.85 1176.31 2665.64 1177.82L2662.28 1182.02C2662.88 1185.17 2663.43 1187.9 2663.96 1190.2 2664.49 1192.5 2664.95 1194.42 2665.37 1195.95 2665.78 1197.48 2666.14 1198.69 2666.45 1199.57 2666.76 1200.46 2667.1 1201.13 2667.46 1201.57 2667.82 1202.01 2668.19 1202.33 2668.57 1202.51 2668.95 1202.69 2669.38 1202.78 2669.88 1202.78 2670.77 1202.78 2671.63 1202.43 2672.47 1201.74 2673.31 1201.05 2674.51 1199.49 2676.09 1197.06L2679.3 1199.18C2677 1202.6 2674.92 1205.01 2673.06 1206.4 2671.2 1207.8 2668.99 1208.5 2666.43 1208.5 2665.01 1208.5 2663.81 1208.24 2662.83 1207.73 2661.84 1207.23 2660.98 1206.41 2660.26 1205.29 2659.54 1204.18 2658.9 1202.43 2658.34 1200.07 2657.32 1195.86 2656.69 1192.64 2656.46 1190.4L2655.97 1190.4C2652.49 1195.3 2649.9 1198.82 2648.2 1200.95 2646.51 1203.09 2645.11 1204.67 2644.01 1205.69 2642.91 1206.71 2641.84 1207.42 2640.81 1207.83 2639.77 1208.24 2638.4 1208.45 2636.69 1208.45 2635.14 1208.45 2633.88 1208.25 2632.89 1207.86L2634.86 1198.93 2638.32 1198.93C2638.51 1200.31 2639.09 1201 2640.04 1201 2640.5 1201 2640.99 1200.88 2641.5 1200.63 2642.01 1200.39 2642.74 1199.79 2643.69 1198.86 2644.64 1197.92 2645.96 1196.45 2647.64 1194.44 2649.31 1192.44 2651.75 1189.43 2654.94 1185.42 2654.44 1182.82 2653.93 1180.32 2653.41 1177.92 2652.88 1175.52 2652.34 1173.29 2651.78 1171.22 2651.22 1169.14 2650.76 1167.79 2650.4 1167.15 2650.04 1166.51 2649.65 1166.06 2649.24 1165.82 2648.83 1165.57 2648.31 1165.45 2647.69 1165.45 2647 1165.45 2646.37 1165.6 2645.81 1165.91 2645.25 1166.23 2644.64 1166.77 2643.99 1167.54 2643.33 1168.31 2642.46 1169.52 2641.37 1171.17L2638.17 1169.05C2640.24 1165.92 2642.23 1163.59 2644.13 1162.04 2646.04 1160.5 2648.29 1159.73 2650.89 1159.73Z" fill-rule="evenodd"/><text fill="#000000" fill-opacity="0" font-family="Arial,Arial_MSFontService,sans-serif" font-size="48.7739" x="2632.89" y="1202.4">𝑥</text><path d="M2694.92 1196.27 2703.55 1196.27C2704.01 1198.57 2704.24 1200.84 2704.24 1203.07 2704.24 1205.38 2703.85 1207.48 2703.06 1209.39 2702.27 1211.29 2701.01 1213.19 2699.29 1215.08 2697.56 1216.97 2695.18 1219.05 2692.16 1221.32L2689.5 1218.31C2691.17 1216.73 2692.39 1215.31 2693.15 1214.05 2693.9 1212.78 2694.44 1211.34 2694.77 1209.73 2695.1 1208.12 2695.27 1206.1 2695.27 1203.67 2695.27 1201.17 2695.15 1198.7 2694.92 1196.27Z" fill-rule="evenodd"/><text fill="#000000" fill-opacity="0" font-family="Arial,Arial_MSFontService,sans-serif" font-size="25.0527" x="2689.5" y="1218.19">,</text><path d="M2745.02 1148.38 2751.82 1148.38 2749.11 1160.56 2764.1 1160.56 2763.02 1165.54 2748.03 1165.54 2743.64 1184.68C2742.78 1188.39 2742.24 1191.07 2742.01 1192.69 2741.78 1194.32 2741.67 1195.63 2741.67 1196.61 2741.67 1200.69 2743.36 1202.73 2746.74 1202.73 2748.19 1202.73 2749.73 1202.18 2751.36 1201.08 2752.98 1199.98 2754.92 1198.09 2757.15 1195.43L2760.01 1198.39C2757.15 1201.84 2754.4 1204.39 2751.75 1206.03 2749.1 1207.68 2746.33 1208.5 2743.44 1208.5 2736.57 1208.5 2733.13 1205.03 2733.13 1198.09 2733.13 1195.89 2733.41 1193.57 2733.97 1191.14L2739.79 1165.54 2731.51 1165.54 2732.25 1162.14C2734.19 1162.11 2735.66 1161.96 2736.66 1161.7 2737.66 1161.43 2738.5 1161.07 2739.17 1160.61 2739.85 1160.15 2740.47 1159.5 2741.02 1158.64 2741.58 1157.79 2742.13 1156.69 2742.65 1155.36 2743.18 1154.03 2743.97 1151.7 2745.02 1148.38Z" fill-rule="evenodd"/><text fill="#000000" fill-opacity="0" font-family="Arial,Arial_MSFontService,sans-serif" font-size="60.1167" x="2731.51" y="1200.98">𝑡</text><path d="M2844.92 1185.81 2905.68 1185.81 2905.68 1192.37 2844.92 1192.37ZM2844.92 1165.35 2905.68 1165.35 2905.68 1171.91 2844.92 1171.91Z" fill-rule="evenodd"/><text fill="#000000" fill-opacity="0" font-family="Arial,Arial_MSFontService,sans-serif" font-size="27.0254" x="2844.92" y="1188.99">=</text><path d="M3166.36 1063.29 3169.07 1063.29C3168.87 1066.45 3168.78 1070.82 3168.78 1076.41L3168.78 1118.53C3168.78 1120.43 3168.88 1121.87 3169.1 1122.84 3169.31 1123.81 3169.69 1124.6 3170.23 1125.21 3170.77 1125.82 3171.55 1126.29 3172.57 1126.64 3173.59 1126.98 3174.87 1127.25 3176.42 1127.43 3177.96 1127.61 3180 1127.73 3182.53 1127.8L3182.53 1131.4 3146.09 1131.4 3146.09 1127.8C3149.74 1127.63 3152.34 1127.41 3153.91 1127.13 3155.47 1126.85 3156.66 1126.43 3157.48 1125.87 3158.3 1125.32 3158.9 1124.53 3159.28 1123.51 3159.66 1122.49 3159.85 1120.83 3159.85 1118.53L3159.85 1078.53C3159.85 1077.22 3159.62 1076.25 3159.16 1075.65 3158.7 1075.04 3158.02 1074.73 3157.14 1074.73 3156.08 1074.73 3154.59 1075.28 3152.65 1076.36 3150.71 1077.45 3148.31 1078.94 3145.45 1080.85L3143.28 1077.05Z" fill-rule="evenodd"/><text fill="#000000" fill-opacity="0" font-family="Arial,Arial_MSFontService,sans-serif" font-size="68.106" x="3143.28" y="1122.88">1</text><path d="M3005.53 1201.39 3019.33 1201.39 3019.33 1201.71 3383.95 1201.71 3383.95 1208.71 3015.95 1208.71 3015.95 1207.95 3009.47 1207.95 2977.42 1326.8 2972.63 1326.8 2952.22 1282.91 2943.88 1286.61 2942.35 1282.91 2958.53 1275.51 2975.59 1313.58Z" fill-rule="evenodd"/><path d="M3043.87 1227.01C3049.99 1227.01 3054.61 1228.35 3057.73 1231.03 3060.86 1233.71 3062.42 1237.59 3062.42 1242.69 3062.42 1244.43 3062.24 1246.04 3061.9 1247.5 3061.55 1248.96 3061.01 1250.41 3060.27 1251.84 3059.53 1253.27 3058.54 1254.81 3057.29 1256.45 3056.04 1258.09 3054.66 1259.76 3053.15 1261.46 3051.63 1263.15 3049.02 1265.97 3045.3 1269.91 3039.06 1276.52 3034.47 1282.29 3031.55 1287.22L3050.14 1287.22C3051.75 1287.22 3053.05 1287.12 3054.03 1286.93 3055.02 1286.73 3055.81 1286.4 3056.4 1285.94 3056.99 1285.48 3057.46 1284.88 3057.81 1284.14 3058.15 1283.4 3058.59 1282.26 3059.11 1280.71L3063.3 1280.71 3062.47 1295.11 3021.88 1295.11 3021.88 1292.75C3023.29 1289.29 3025.2 1285.76 3027.6 1282.14 3030 1278.53 3033.4 1274.27 3037.81 1269.37 3041.62 1265.16 3044.37 1261.97 3046.04 1259.8 3047.89 1257.44 3049.26 1255.39 3050.16 1253.66 3051.07 1251.94 3051.72 1250.31 3052.11 1248.78 3052.5 1247.25 3052.7 1245.72 3052.7 1244.17 3052.7 1241.7 3052.31 1239.53 3051.52 1237.64 3050.73 1235.75 3049.52 1234.26 3047.89 1233.17 3046.27 1232.09 3044.22 1231.55 3041.75 1231.55 3035.61 1231.55 3031.46 1234.96 3029.33 1241.8L3023.36 1241.8 3023.36 1232.33C3027.34 1230.46 3031.06 1229.1 3034.53 1228.27 3038 1227.43 3041.11 1227.01 3043.87 1227.01Z" fill-rule="evenodd"/><text fill="#000000" fill-opacity="0" font-family="Arial,Arial_MSFontService,sans-serif" font-size="68.106" x="3021.88" y="1286.6">2</text><path d="M3089.73 1247.97 3130.22 1247.97 3128.79 1254.48 3117.05 1254.48 3111.48 1279.19C3110.76 1282.41 3110.4 1284.84 3110.4 1286.48 3110.4 1287.8 3110.61 1288.75 3111.04 1289.34 3111.46 1289.94 3112.14 1290.23 3113.06 1290.23 3115.03 1290.23 3117.35 1288.65 3120.01 1285.5L3122.87 1288.16C3120.37 1290.89 3118.1 1292.86 3116.04 1294.08 3113.99 1295.3 3111.79 1295.9 3109.46 1295.9 3107.22 1295.9 3105.46 1295.14 3104.18 1293.61 3102.9 1292.08 3102.26 1290.07 3102.26 1287.57 3102.26 1285.37 3102.72 1282.18 3103.64 1278L3104.72 1273.02C3105.28 1270.39 3106.08 1267.22 3107.12 1263.5 3108.15 1259.79 3109.05 1256.93 3109.8 1254.92L3109.56 1254.48 3095.06 1254.48 3088.99 1282.54C3088.5 1284.74 3087.92 1287.12 3087.27 1289.66 3086.61 1292.21 3086.1 1294.03 3085.74 1295.11L3075.28 1295.11 3075.78 1292.7C3079.26 1289.25 3082.48 1281.16 3085.44 1268.43L3088.7 1254.48 3087.12 1254.48C3084.78 1254.48 3082.81 1254.87 3081.2 1255.66 3079.59 1256.45 3077.83 1258.03 3075.92 1260.4L3072.82 1257.78C3074.53 1255.71 3075.92 1254.13 3077.01 1253.05 3078.09 1251.96 3079.24 1251.04 3080.44 1250.29 3081.64 1249.53 3082.98 1248.95 3084.48 1248.56 3085.98 1248.17 3087.73 1247.97 3089.73 1247.97Z" fill-rule="evenodd"/><text fill="#000000" fill-opacity="0" font-family="Arial,Arial_MSFontService,sans-serif" font-size="47.9355" x="3072.82" y="1289.91">𝜋</text><path d="M3171.56 1223.85 3172.9 1227.65C3165.2 1230.18 3159.51 1235.12 3155.81 1242.47 3152.11 1249.82 3150.26 1259.05 3150.26 1270.16 3150.26 1281.67 3152.11 1291.15 3155.81 1298.62 3159.51 1306.08 3165.15 1311.08 3172.75 1313.61L3171.56 1317.41C3161.93 1314.87 3154.55 1309.42 3149.42 1301.06 3144.29 1292.69 3141.73 1282.56 3141.73 1270.65 3141.73 1258.78 3144.3 1248.65 3149.45 1240.25 3154.59 1231.85 3161.96 1226.38 3171.56 1223.85Z" fill-rule="evenodd"/><text fill="#000000" fill-opacity="0" font-family="Arial,Arial_MSFontService,sans-serif" font-size="93.5532" x="3141.73" y="1305.71">(</text><path d="M3318.96 1235.79 3325.76 1235.79 3323.05 1247.97 3338.04 1247.97 3336.96 1252.95 3321.96 1252.95 3317.58 1272.08C3316.72 1275.8 3316.18 1278.47 3315.95 1280.1 3315.72 1281.72 3315.6 1283.03 3315.6 1284.02 3315.6 1288.09 3317.3 1290.13 3320.68 1290.13 3322.13 1290.13 3323.67 1289.58 3325.29 1288.48 3326.92 1287.38 3328.85 1285.5 3331.09 1282.83L3333.95 1285.79C3331.09 1289.25 3328.33 1291.79 3325.69 1293.44 3323.04 1295.08 3320.27 1295.9 3317.38 1295.9 3310.51 1295.9 3307.07 1292.43 3307.07 1285.5 3307.07 1283.29 3307.35 1280.98 3307.91 1278.54L3313.73 1252.95 3305.44 1252.95 3306.18 1249.55C3308.12 1249.51 3309.59 1249.37 3310.6 1249.1 3311.6 1248.84 3312.44 1248.48 3313.11 1248.02 3313.79 1247.56 3314.4 1246.9 3314.96 1246.04 3315.52 1245.19 3316.06 1244.1 3316.59 1242.76 3317.12 1241.43 3317.9 1239.11 3318.96 1235.79ZM3265.24 1232.09C3263.8 1232.09 3262.24 1232.14 3260.56 1232.24L3247.79 1290.58C3248.74 1290.68 3250.56 1290.73 3253.26 1290.73 3258.59 1290.73 3263.11 1289.8 3266.82 1287.94 3270.54 1286.08 3273.74 1283.17 3276.44 1279.21 3279.14 1275.25 3281.12 1271.07 3282.41 1266.68 3283.69 1262.29 3284.33 1257.67 3284.33 1252.8 3284.33 1245.93 3282.73 1240.76 3279.52 1237.29 3276.32 1233.82 3271.56 1232.09 3265.24 1232.09ZM3246.41 1227.8 3265.1 1227.8C3270.06 1227.8 3274.09 1228.18 3277.18 1228.93 3280.27 1229.69 3283.15 1231.05 3285.83 1233.02 3288.51 1235 3290.53 1237.62 3291.88 1240.89 3293.22 1244.16 3293.9 1248.03 3293.9 1252.5 3293.9 1256.94 3293.39 1261.18 3292.37 1265.23 3291.35 1269.27 3289.89 1273 3287.98 1276.4 3286.07 1279.8 3283.79 1282.76 3281.12 1285.28 3278.46 1287.79 3275.88 1289.72 3273.38 1291.07 3270.88 1292.42 3268.09 1293.43 3265 1294.1 3261.91 1294.78 3258.31 1295.11 3254.2 1295.11L3233.48 1295.11 3234.03 1292.7C3235.28 1292.5 3236.21 1292.18 3236.84 1291.74 3237.46 1291.29 3237.99 1290.68 3238.42 1289.89 3238.84 1289.1 3239.24 1288.14 3239.6 1287 3239.96 1285.87 3240.5 1283.67 3241.23 1280.42L3249.61 1242.44C3250.33 1239.16 3250.7 1236.51 3250.7 1234.5 3250.7 1232.96 3250.31 1231.88 3249.54 1231.27 3248.76 1230.67 3247.54 1230.31 3245.86 1230.21ZM3203.03 1227.01C3209.15 1227.01 3213.77 1228.35 3216.89 1231.03 3220.01 1233.71 3221.57 1237.59 3221.57 1242.69 3221.57 1244.43 3221.4 1246.04 3221.06 1247.5 3220.71 1248.96 3220.17 1250.41 3219.43 1251.84 3218.69 1253.27 3217.69 1254.81 3216.44 1256.45 3215.2 1258.09 3213.81 1259.76 3212.3 1261.46 3210.79 1263.15 3208.18 1265.97 3204.46 1269.91 3198.21 1276.52 3193.63 1282.29 3190.7 1287.22L3209.29 1287.22C3210.9 1287.22 3212.2 1287.12 3213.19 1286.93 3214.18 1286.73 3214.97 1286.4 3215.56 1285.94 3216.15 1285.48 3216.62 1284.88 3216.96 1284.14 3217.31 1283.4 3217.74 1282.26 3218.27 1280.71L3222.46 1280.71 3221.62 1295.11 3181.04 1295.11 3181.04 1292.75C3182.45 1289.29 3184.36 1285.76 3186.76 1282.14 3189.16 1278.53 3192.56 1274.27 3196.96 1269.37 3200.78 1265.16 3203.52 1261.97 3205.2 1259.8 3207.04 1257.44 3208.41 1255.39 3209.32 1253.66 3210.22 1251.94 3210.87 1250.31 3211.27 1248.78 3211.66 1247.25 3211.86 1245.72 3211.86 1244.17 3211.86 1241.7 3211.46 1239.53 3210.67 1237.64 3209.89 1235.75 3208.68 1234.26 3207.05 1233.17 3205.42 1232.09 3203.38 1231.55 3200.91 1231.55 3194.76 1231.55 3190.62 1234.96 3188.48 1241.8L3182.51 1241.8 3182.51 1232.33C3186.49 1230.46 3190.22 1229.1 3193.69 1228.27 3197.15 1227.43 3200.27 1227.01 3203.03 1227.01Z" fill-rule="evenodd"/><text fill="#000000" fill-opacity="0" font-family="Arial,Arial_MSFontService,sans-serif" font-size="68.895" x="3181.04" y="1287.29">2𝐷𝑡</text><path d="M3345.33 1223.85C3354.93 1226.38 3362.3 1231.85 3367.45 1240.25 3372.59 1248.65 3375.17 1258.78 3375.17 1270.65 3375.17 1282.56 3372.6 1292.69 3367.47 1301.06 3362.35 1309.42 3354.96 1314.87 3345.33 1317.41L3344.15 1313.61C3351.74 1311.08 3357.39 1306.08 3361.09 1298.62 3364.79 1291.15 3366.64 1281.67 3366.64 1270.16 3366.64 1259.05 3364.79 1249.82 3361.11 1242.47 3357.43 1235.12 3351.73 1230.18 3344 1227.65Z" fill-rule="evenodd"/><text fill="#000000" fill-opacity="0" font-family="Arial,Arial_MSFontService,sans-serif" font-size="93.5532" x="3344" y="1305.71">)</text><path d="M2940.95 1175.71 3162.45 1175.71 3383.95 1175.71 3383.95 1182.71 3162.45 1182.71 2940.95 1182.71Z" fill-rule="evenodd"/><path d="M3432.46 1163.62C3429.14 1163.62 3425.94 1165.3 3422.86 1168.65 3419.79 1172.01 3417.43 1176.54 3415.79 1182.26 3420.42 1182.23 3424.4 1181.81 3427.72 1181.01 3431.04 1180.2 3433.59 1178.92 3435.37 1177.16 3437.14 1175.4 3438.03 1173.02 3438.03 1170.03 3438.03 1168.03 3437.56 1166.46 3436.62 1165.32 3435.69 1164.19 3434.3 1163.62 3432.46 1163.62ZM3434.23 1159.73C3438.21 1159.73 3441.19 1160.53 3443.18 1162.14 3445.17 1163.75 3446.17 1166.27 3446.17 1169.69 3446.17 1175.28 3443.54 1179.47 3438.3 1182.26 3433.06 1185.06 3425.27 1186.45 3414.95 1186.45 3414.56 1188.43 3414.36 1190.56 3414.36 1192.87 3414.36 1196.32 3415.03 1198.82 3416.38 1200.39 3417.73 1201.95 3419.93 1202.73 3422.99 1202.73 3426.01 1202.73 3428.75 1202.07 3431.2 1200.76 3433.65 1199.44 3436.24 1197.42 3438.97 1194.69L3442.02 1197.9C3438.84 1201.41 3435.6 1204.06 3432.33 1205.84 3429.06 1207.61 3425.26 1208.5 3420.92 1208.5 3416.15 1208.5 3412.46 1207.04 3409.85 1204.13 3407.23 1201.22 3405.92 1197.17 3405.92 1191.98 3405.92 1188.46 3406.56 1184.69 3407.82 1180.66 3409.09 1176.63 3411 1173.02 3413.57 1169.81 3416.13 1166.6 3419.21 1164.12 3422.79 1162.36 3426.37 1160.6 3430.19 1159.73 3434.23 1159.73Z" fill-rule="evenodd"/><text fill="#000000" fill-opacity="0" font-family="Arial,Arial_MSFontService,sans-serif" font-size="48.7739" x="3405.92" y="1202.4">𝑒</text><path d="M3462.13 1146.87 3503.75 1146.87 3503.75 1152.4 3462.13 1152.4Z" fill-rule="evenodd"/><text fill="#000000" fill-opacity="0" font-family="Arial,Arial_MSFontService,sans-serif" font-size="5.52832" x="3462.13" y="1151.71">−</text><path d="M3723.68 1115.42C3730.71 1117.27 3736.11 1121.28 3739.88 1127.43 3743.65 1133.59 3745.54 1141.01 3745.54 1149.71 3745.54 1158.43 3743.66 1165.85 3739.9 1171.98 3736.14 1178.11 3730.73 1182.11 3723.68 1183.96L3722.81 1181.18C3728.37 1179.32 3732.51 1175.66 3735.22 1170.19 3737.93 1164.73 3739.29 1157.78 3739.29 1149.35 3739.29 1141.2 3737.94 1134.44 3735.24 1129.06 3732.54 1123.67 3728.36 1120.05 3722.7 1118.2ZM3537.67 1115.42 3538.64 1118.2C3533.01 1120.05 3528.83 1123.67 3526.12 1129.06 3523.41 1134.44 3522.06 1141.2 3522.06 1149.35 3522.06 1157.78 3523.41 1164.73 3526.12 1170.19 3528.83 1175.66 3532.97 1179.32 3538.53 1181.18L3537.67 1183.96C3530.61 1182.11 3525.2 1178.11 3521.44 1171.98 3517.69 1165.85 3515.81 1158.43 3515.81 1149.71 3515.81 1141.01 3517.69 1133.59 3521.46 1127.43 3525.23 1121.28 3530.63 1117.27 3537.67 1115.42Z" fill-rule="evenodd"/><path d="M3555.89 1133.9C3557.22 1133.9 3558.3 1134.19 3559.15 1134.77 3559.99 1135.35 3560.69 1136.19 3561.24 1137.3 3561.8 1138.4 3562.25 1139.77 3562.61 1141.4 3562.98 1143.02 3563.36 1144.88 3563.77 1146.98L3564.24 1146.98C3565.69 1145.08 3566.94 1143.43 3568 1142.03 3569.06 1140.63 3570 1139.45 3570.83 1138.49 3571.67 1137.53 3572.41 1136.74 3573.07 1136.14 3573.74 1135.54 3574.38 1135.07 3575.01 1134.75 3575.63 1134.42 3576.28 1134.2 3576.94 1134.08 3577.6 1133.96 3578.34 1133.9 3579.16 1133.9 3580.37 1133.9 3581.46 1134.12 3582.45 1134.55L3580.64 1141.67 3577.65 1141.67C3577.57 1140.63 3577.19 1140.11 3576.49 1140.11 3576.22 1140.11 3575.94 1140.16 3575.62 1140.26 3575.31 1140.36 3574.94 1140.55 3574.5 1140.84 3574.07 1141.13 3573.57 1141.53 3573 1142.05 3572.44 1142.57 3571.77 1143.24 3571 1144.07 3570.23 1144.9 3569.35 1145.92 3568.36 1147.12 3567.37 1148.33 3566.24 1149.75 3564.96 1151.39 3565.61 1154.71 3566.17 1157.37 3566.64 1159.37 3567.11 1161.37 3567.56 1162.9 3568 1163.96 3568.43 1165.02 3568.87 1165.71 3569.3 1166.04 3569.73 1166.37 3570.23 1166.53 3570.78 1166.53 3571.19 1166.53 3571.57 1166.48 3571.92 1166.38 3572.27 1166.29 3572.63 1166.08 3573 1165.75 3573.38 1165.43 3573.79 1164.96 3574.25 1164.34 3574.71 1163.73 3575.25 1162.91 3575.88 1161.9L3578.59 1163.67C3577.53 1165.26 3576.59 1166.56 3575.77 1167.58 3574.95 1168.59 3574.15 1169.38 3573.38 1169.96 3572.61 1170.54 3571.82 1170.93 3571 1171.13 3570.18 1171.34 3569.24 1171.44 3568.18 1171.44 3567.26 1171.44 3566.44 1171.32 3565.72 1171.06 3565 1170.81 3564.37 1170.35 3563.84 1169.67 3563.48 1169.26 3563.14 1168.71 3562.83 1168.03 3562.52 1167.34 3562.23 1166.6 3561.96 1165.81 3561.7 1165.01 3561.46 1164.19 3561.24 1163.33 3561.02 1162.47 3560.84 1161.67 3560.7 1160.93 3560.55 1160.18 3560.44 1159.51 3560.36 1158.92 3560.27 1158.33 3560.22 1157.89 3560.19 1157.6L3559.8 1157.6C3558.35 1159.53 3557.09 1161.21 3556.02 1162.64 3554.95 1164.08 3553.98 1165.31 3553.11 1166.33 3552.24 1167.35 3551.46 1168.2 3550.76 1168.86 3550.06 1169.52 3549.38 1170.04 3548.7 1170.43 3548.03 1170.82 3547.34 1171.08 3546.63 1171.22 3545.92 1171.37 3545.13 1171.44 3544.26 1171.44 3543.01 1171.44 3541.93 1171.22 3541.04 1170.79L3542.71 1163.75 3545.78 1163.75C3545.85 1164.81 3546.25 1165.34 3546.97 1165.34 3547.23 1165.31 3547.49 1165.26 3547.75 1165.19 3548 1165.12 3548.29 1164.97 3548.63 1164.74 3548.97 1164.51 3549.4 1164.15 3549.91 1163.66 3550.43 1163.16 3551.09 1162.47 3551.88 1161.6 3552.68 1160.72 3553.65 1159.61 3554.81 1158.29 3555.97 1156.96 3557.35 1155.33 3558.97 1153.38 3558.53 1151.35 3558.15 1149.59 3557.83 1148.1 3557.5 1146.61 3557.2 1145.32 3556.92 1144.25 3556.65 1143.18 3556.38 1142.31 3556.11 1141.63 3555.85 1140.96 3555.57 1140.42 3555.3 1140.02 3555.02 1139.63 3554.72 1139.34 3554.39 1139.18 3554.07 1139.01 3553.69 1138.91 3553.26 1138.89 3552.85 1138.89 3552.47 1138.95 3552.12 1139.08 3551.77 1139.22 3551.41 1139.45 3551.03 1139.79 3550.66 1140.13 3550.25 1140.6 3549.81 1141.2 3549.36 1141.8 3548.85 1142.58 3548.27 1143.55L3545.49 1141.74C3546.48 1140.27 3547.37 1139.03 3548.16 1138.02 3548.96 1137.01 3549.74 1136.2 3550.51 1135.6 3551.28 1135 3552.09 1134.56 3552.95 1134.3 3553.8 1134.03 3554.79 1133.9 3555.89 1133.9Z" fill-rule="evenodd"/><text fill="#000000" fill-opacity="0" font-family="Arial,Arial_MSFontService,sans-serif" font-size="37.542" x="3541.04" y="1166.75">𝑥</text><path d="M3591.47 1146.87 3633.09 1146.87 3633.09 1152.4 3591.47 1152.4Z" fill-rule="evenodd"/><text fill="#000000" fill-opacity="0" font-family="Arial,Arial_MSFontService,sans-serif" font-size="5.52832" x="3591.47" y="1151.71">−</text><path d="M3654.69 1133.9C3656.01 1133.9 3657.1 1134.19 3657.94 1134.77 3658.78 1135.35 3659.48 1136.19 3660.04 1137.3 3660.59 1138.4 3661.05 1139.77 3661.41 1141.4 3661.77 1143.02 3662.16 1144.88 3662.56 1146.98L3663.03 1146.98C3664.48 1145.08 3665.73 1143.43 3666.79 1142.03 3667.85 1140.63 3668.8 1139.45 3669.63 1138.49 3670.46 1137.53 3671.21 1136.74 3671.87 1136.14 3672.53 1135.54 3673.18 1135.07 3673.8 1134.75 3674.43 1134.42 3675.07 1134.2 3675.73 1134.08 3676.4 1133.96 3677.14 1133.9 3677.96 1133.9 3679.16 1133.9 3680.26 1134.12 3681.25 1134.55L3679.44 1141.67 3676.44 1141.67C3676.37 1140.63 3675.98 1140.11 3675.28 1140.11 3675.02 1140.11 3674.73 1140.16 3674.42 1140.26 3674.1 1140.36 3673.73 1140.55 3673.3 1140.84 3672.86 1141.13 3672.36 1141.53 3671.8 1142.05 3671.23 1142.57 3670.56 1143.24 3669.79 1144.07 3669.02 1144.9 3668.14 1145.92 3667.15 1147.12 3666.17 1148.33 3665.03 1149.75 3663.76 1151.39 3664.41 1154.71 3664.97 1157.37 3665.44 1159.37 3665.91 1161.37 3666.36 1162.9 3666.79 1163.96 3667.23 1165.02 3667.66 1165.71 3668.09 1166.04 3668.53 1166.37 3669.02 1166.53 3669.57 1166.53 3669.98 1166.53 3670.36 1166.48 3670.71 1166.38 3671.06 1166.29 3671.42 1166.08 3671.8 1165.75 3672.17 1165.43 3672.59 1164.96 3673.04 1164.34 3673.5 1163.73 3674.04 1162.91 3674.67 1161.9L3677.38 1163.67C3676.32 1165.26 3675.38 1166.56 3674.56 1167.58 3673.74 1168.59 3672.95 1169.38 3672.18 1169.96 3671.41 1170.54 3670.61 1170.93 3669.79 1171.13 3668.97 1171.34 3668.03 1171.44 3666.97 1171.44 3666.06 1171.44 3665.24 1171.32 3664.52 1171.06 3663.79 1170.81 3663.17 1170.35 3662.64 1169.67 3662.28 1169.26 3661.94 1168.71 3661.62 1168.03 3661.31 1167.34 3661.02 1166.6 3660.76 1165.81 3660.49 1165.01 3660.25 1164.19 3660.04 1163.33 3659.82 1162.47 3659.64 1161.67 3659.49 1160.93 3659.35 1160.18 3659.23 1159.51 3659.15 1158.92 3659.07 1158.33 3659.01 1157.89 3658.99 1157.6L3658.59 1157.6C3657.14 1159.53 3655.89 1161.21 3654.81 1162.64 3653.74 1164.08 3652.77 1165.31 3651.91 1166.33 3651.04 1167.35 3650.26 1168.2 3649.56 1168.86 3648.86 1169.52 3648.17 1170.04 3647.5 1170.43 3646.82 1170.82 3646.13 1171.08 3645.42 1171.22 3644.71 1171.37 3643.92 1171.44 3643.05 1171.44 3641.8 1171.44 3640.73 1171.22 3639.84 1170.79L3641.5 1163.75 3644.57 1163.75C3644.64 1164.81 3645.04 1165.34 3645.76 1165.34 3646.03 1165.31 3646.29 1165.26 3646.54 1165.19 3646.79 1165.12 3647.09 1164.97 3647.42 1164.74 3647.76 1164.51 3648.19 1164.15 3648.71 1163.66 3649.23 1163.16 3649.88 1162.47 3650.68 1161.6 3651.47 1160.72 3652.45 1159.61 3653.6 1158.29 3654.76 1156.96 3656.14 1155.33 3657.76 1153.38 3657.33 1151.35 3656.95 1149.59 3656.62 1148.1 3656.3 1146.61 3655.99 1145.32 3655.72 1144.25 3655.44 1143.18 3655.17 1142.31 3654.9 1141.63 3654.64 1140.96 3654.37 1140.42 3654.09 1140.02 3653.81 1139.63 3653.51 1139.34 3653.19 1139.18 3652.86 1139.01 3652.48 1138.91 3652.05 1138.89 3651.64 1138.89 3651.26 1138.95 3650.91 1139.08 3650.56 1139.22 3650.2 1139.45 3649.83 1139.79 3649.45 1140.13 3649.04 1140.6 3648.6 1141.2 3648.15 1141.8 3647.64 1142.58 3647.06 1143.55L3644.28 1141.74C3645.27 1140.27 3646.16 1139.03 3646.96 1138.02 3647.75 1137.01 3648.53 1136.2 3649.3 1135.6 3650.07 1135 3650.89 1134.56 3651.74 1134.3 3652.6 1134.03 3653.58 1133.9 3654.69 1133.9Z" fill-rule="evenodd"/><text fill="#000000" fill-opacity="0" font-family="Arial,Arial_MSFontService,sans-serif" font-size="37.542" x="3639.84" y="1166.75">𝑥</text><path d="M3700.38 1152.06C3698.58 1152.06 3697.14 1152.67 3696.08 1153.89 3695.02 1155.11 3694.27 1156.83 3693.83 1159.04 3693.4 1161.25 3693.18 1164 3693.18 1167.28 3693.18 1172.89 3693.76 1176.98 3694.92 1179.53 3696.08 1182.08 3697.92 1183.36 3700.44 1183.36 3702.83 1183.36 3704.59 1182.17 3705.73 1179.8 3706.87 1177.43 3707.44 1173.63 3707.44 1168.41 3707.44 1162.85 3706.87 1158.73 3705.73 1156.06 3704.59 1153.39 3702.81 1152.06 3700.38 1152.06ZM3700.44 1148.93C3702.97 1148.93 3705.08 1149.37 3706.79 1150.27 3708.5 1151.16 3709.88 1152.42 3710.94 1154.04 3712.01 1155.65 3712.76 1157.59 3713.21 1159.83 3713.65 1162.07 3713.88 1164.54 3713.88 1167.22 3713.88 1173.59 3712.68 1178.4 3710.29 1181.63 3707.9 1184.87 3704.46 1186.49 3699.97 1186.49 3695.54 1186.49 3692.23 1184.95 3690.03 1181.87 3687.84 1178.79 3686.74 1174.18 3686.74 1168.02 3686.74 1163.73 3687.33 1160.16 3688.5 1157.3 3689.67 1154.44 3691.28 1152.33 3693.33 1150.97 3695.37 1149.61 3697.74 1148.93 3700.44 1148.93Z" fill-rule="evenodd"/><text fill="#000000" fill-opacity="0" font-family="Arial,Arial_MSFontService,sans-serif" font-size="37.5591" x="3686.74" y="1181.79">0</text><path d="M3770.01 1106.97C3772.3 1106.97 3774.19 1107.22 3775.69 1107.71 3777.19 1108.21 3778.38 1108.85 3779.28 1109.65 3780.17 1110.44 3780.8 1111.38 3781.15 1112.45 3781.51 1113.52 3781.69 1114.62 3781.69 1115.75 3781.69 1117.18 3781.4 1118.51 3780.83 1119.73 3780.25 1120.95 3779.31 1122.28 3778 1123.72 3776.69 1125.16 3774.34 1127.41 3770.97 1130.47 3767.37 1133.72 3764.76 1136.54 3763.13 1138.93L3773.89 1138.93C3774.9 1138.93 3775.67 1138.88 3776.21 1138.78 3776.75 1138.68 3777.17 1138.52 3777.49 1138.32 3777.81 1138.11 3778.08 1137.84 3778.3 1137.53 3778.51 1137.21 3778.84 1136.51 3779.28 1135.44L3782.29 1135.44 3781.66 1143.84 3756.16 1143.84 3756.16 1142.2C3757.16 1140.08 3758.5 1137.99 3760.19 1135.93 3761.87 1133.88 3763.84 1131.76 3766.08 1129.57 3768.78 1126.99 3770.7 1125.05 3771.83 1123.74 3772.96 1122.43 3773.8 1121.18 3774.35 1120 3774.89 1118.82 3775.17 1117.63 3775.17 1116.44 3775.17 1114.47 3774.61 1112.92 3773.5 1111.79 3772.39 1110.66 3770.79 1110.09 3768.7 1110.09 3766.9 1110.09 3765.36 1110.57 3764.1 1111.52 3762.84 1112.48 3761.88 1113.89 3761.23 1115.75L3757.09 1115.75 3757.09 1109.89C3759.67 1108.83 3762.05 1108.08 3764.22 1107.64 3766.4 1107.19 3768.33 1106.97 3770.01 1106.97Z" fill-rule="evenodd"/><text fill="#000000" fill-opacity="0" font-family="Arial,Arial_MSFontService,sans-serif" font-size="36.874" x="3756.16" y="1139.23">2</text><path d="M3819.42 1119.09 3825.02 1119.09 3798.93 1186.33 3793.26 1186.33Z" fill-rule="evenodd"/><text fill="#000000" fill-opacity="0" font-family="Arial,Arial_MSFontService,sans-serif" font-size="67.2432" x="3793.26" y="1177.92">/</text><path d="M3848.68 1124C3851.19 1124 3853.33 1124.28 3855.1 1124.85 3856.87 1125.41 3858.31 1126.18 3859.41 1127.14 3860.52 1128.11 3861.32 1129.26 3861.82 1130.61 3862.31 1131.96 3862.56 1133.42 3862.56 1134.98 3862.56 1135.92 3862.49 1136.8 3862.36 1137.6 3862.23 1138.41 3862 1139.21 3861.67 1139.99 3861.35 1140.77 3860.92 1141.56 3860.39 1142.35 3859.86 1143.15 3859.2 1143.99 3858.4 1144.88 3857.8 1145.66 3857.02 1146.55 3856.05 1147.56 3855.09 1148.57 3854.04 1149.65 3852.89 1150.81 3851.75 1151.97 3850.55 1153.17 3849.3 1154.42 3848.04 1155.68 3846.83 1156.92 3845.65 1158.14 3844.47 1159.37 3843.38 1160.57 3842.4 1161.72 3841.41 1162.88 3840.6 1163.94 3839.97 1164.9L3853.34 1164.9C3854.48 1164.9 3855.38 1164.86 3856.05 1164.78 3856.73 1164.69 3857.29 1164.5 3857.73 1164.22 3858.18 1163.93 3858.56 1163.49 3858.87 1162.9 3859.19 1162.31 3859.55 1161.49 3859.96 1160.46L3863.32 1160.46C3863.2 1162.17 3863.08 1163.89 3862.97 1165.62 3862.86 1167.36 3862.75 1169.08 3862.63 1170.79L3832.03 1170.79 3832.03 1168.91C3832.6 1167.61 3833.28 1166.33 3834.05 1165.06 3834.82 1163.8 3835.69 1162.52 3836.65 1161.22 3837.61 1159.92 3838.71 1158.57 3839.94 1157.19 3841.17 1155.8 3842.53 1154.36 3844.02 1152.87 3846.29 1150.61 3848.13 1148.67 3849.55 1147.07 3850.97 1145.47 3852.09 1144.04 3852.91 1142.79 3853.73 1141.54 3854.29 1140.38 3854.59 1139.32 3854.89 1138.26 3855.04 1137.13 3855.04 1135.92 3855.04 1134.69 3854.87 1133.56 3854.52 1132.53 3854.17 1131.49 3853.67 1130.61 3853.02 1129.89 3852.37 1129.17 3851.54 1128.6 3850.54 1128.19 3849.54 1127.78 3848.39 1127.58 3847.09 1127.58 3844.85 1127.58 3842.97 1128.18 3841.46 1129.4 3839.94 1130.62 3838.76 1132.38 3837.91 1134.69L3833.18 1134.69 3833.18 1127.65C3836.26 1126.37 3839.1 1125.44 3841.69 1124.87 3844.28 1124.29 3846.61 1124 3848.68 1124Z" fill-rule="evenodd"/><text fill="#000000" fill-opacity="0" font-family="Arial,Arial_MSFontService,sans-serif" font-size="46.792" x="3832.03" y="1164.94">2</text><path d="M3897.87 1118.58 3898.85 1121.36C3893.21 1123.22 3889.04 1126.84 3886.33 1132.22 3883.62 1137.6 3882.26 1144.37 3882.26 1152.51 3882.26 1160.94 3883.62 1167.89 3886.33 1173.36 3889.04 1178.82 3893.17 1182.49 3898.74 1184.34L3897.87 1187.12C3890.81 1185.27 3885.41 1181.28 3881.65 1175.15 3877.89 1169.01 3876.01 1161.59 3876.01 1152.87 3876.01 1144.17 3877.9 1136.75 3881.67 1130.59 3885.44 1124.44 3890.84 1120.43 3897.87 1118.58Z" fill-rule="evenodd"/><text fill="#000000" fill-opacity="0" font-family="Arial,Arial_MSFontService,sans-serif" font-size="68.5439" x="3876.01" y="1178.56">(</text><path d="M3968.18 1127.68C3967.33 1127.68 3966.59 1127.7 3965.95 1127.72 3965.32 1127.75 3964.73 1127.78 3964.2 1127.83L3955.42 1166.96C3955.52 1166.96 3955.73 1166.97 3956.07 1166.98 3956.41 1166.99 3956.78 1167 3957.19 1167.02 3957.6 1167.03 3958.02 1167.04 3958.44 1167.05 3958.86 1167.06 3959.2 1167.07 3959.47 1167.07 3963.42 1167.07 3966.76 1166.46 3969.5 1165.24 3972.23 1164.03 3974.57 1162.13 3976.52 1159.55 3978.47 1156.88 3979.91 1154.08 3980.82 1151.15 3981.74 1148.23 3982.2 1145.05 3982.2 1141.63 3982.2 1139.42 3981.89 1137.44 3981.27 1135.71 3980.66 1133.97 3979.76 1132.51 3978.56 1131.32 3977.37 1130.12 3975.9 1129.22 3974.16 1128.61 3972.41 1127.99 3970.42 1127.68 3968.18 1127.68ZM4010.41 1125.48 4016.05 1125.48 4013.99 1134.66 4026.27 1134.66 4025.44 1138.67 4013.19 1138.67 4009.51 1153.81C4009.26 1154.82 4009.07 1155.73 4008.91 1156.54 4008.75 1157.34 4008.63 1158.07 4008.53 1158.72 4008.43 1159.37 4008.37 1159.96 4008.33 1160.49 4008.29 1161.02 4008.28 1161.52 4008.28 1161.97 4008.28 1163.42 4008.58 1164.55 4009.18 1165.37 4009.78 1166.19 4010.77 1166.6 4012.14 1166.6 4013.3 1166.6 4014.53 1166.17 4015.83 1165.32 4017.13 1164.46 4018.61 1163.12 4020.27 1161.29L4022.77 1163.82C4021.54 1165.19 4020.37 1166.36 4019.26 1167.32 4018.15 1168.29 4017.07 1169.08 4016.01 1169.69 4014.95 1170.3 4013.9 1170.75 4012.87 1171.03 4011.83 1171.3 4010.77 1171.44 4009.69 1171.44 4006.82 1171.44 4004.68 1170.77 4003.27 1169.42 4001.86 1168.07 4001.16 1166.08 4001.16 1163.46 4001.16 1162.57 4001.22 1161.58 4001.36 1160.51 4001.49 1159.44 4001.68 1158.4 4001.92 1157.39L4006.22 1138.67 4000 1138.67 4000.73 1135.89C4002.17 1135.89 4003.3 1135.75 4004.1 1135.47 4004.91 1135.19 4005.59 1134.82 4006.15 1134.33 4006.51 1134 4006.86 1133.58 4007.19 1133.09 4007.53 1132.59 4007.87 1132 4008.2 1131.3 4008.54 1130.6 4008.89 1129.77 4009.23 1128.82 4009.58 1127.87 4009.98 1126.76 4010.41 1125.48ZM3921.44 1124C3923.95 1124 3926.09 1124.28 3927.86 1124.85 3929.63 1125.41 3931.07 1126.18 3932.17 1127.14 3933.28 1128.11 3934.08 1129.26 3934.58 1130.61 3935.07 1131.96 3935.32 1133.42 3935.32 1134.98 3935.32 1135.92 3935.25 1136.8 3935.12 1137.6 3934.99 1138.41 3934.76 1139.21 3934.43 1139.99 3934.11 1140.77 3933.68 1141.56 3933.15 1142.35 3932.62 1143.15 3931.96 1143.99 3931.16 1144.88 3930.56 1145.66 3929.78 1146.55 3928.81 1147.56 3927.85 1148.57 3926.8 1149.65 3925.65 1150.81 3924.51 1151.97 3923.31 1153.17 3922.06 1154.42 3920.8 1155.68 3919.59 1156.92 3918.41 1158.14 3917.23 1159.37 3916.14 1160.57 3915.16 1161.72 3914.17 1162.88 3913.36 1163.94 3912.73 1164.9L3926.1 1164.9C3927.24 1164.9 3928.14 1164.86 3928.81 1164.78 3929.49 1164.69 3930.05 1164.5 3930.49 1164.22 3930.94 1163.93 3931.32 1163.49 3931.63 1162.9 3931.95 1162.31 3932.31 1161.49 3932.72 1160.46L3936.08 1160.46C3935.96 1162.17 3935.84 1163.89 3935.73 1165.62 3935.62 1167.36 3935.51 1169.08 3935.39 1170.79L3904.79 1170.79 3904.79 1168.91C3905.36 1167.61 3906.04 1166.33 3906.81 1165.06 3907.58 1163.8 3908.45 1162.52 3909.41 1161.22 3910.37 1159.92 3911.47 1158.57 3912.7 1157.19 3913.93 1155.8 3915.29 1154.36 3916.78 1152.87 3919.05 1150.61 3920.89 1148.67 3922.31 1147.07 3923.73 1145.47 3924.85 1144.04 3925.67 1142.79 3926.49 1141.54 3927.05 1140.38 3927.35 1139.32 3927.65 1138.26 3927.8 1137.13 3927.8 1135.92 3927.8 1134.69 3927.63 1133.56 3927.28 1132.53 3926.93 1131.49 3926.43 1130.61 3925.78 1129.89 3925.13 1129.17 3924.3 1128.6 3923.3 1128.19 3922.3 1127.78 3921.15 1127.58 3919.85 1127.58 3917.61 1127.58 3915.73 1128.18 3914.22 1129.4 3912.7 1130.62 3911.52 1132.38 3910.68 1134.69L3905.94 1134.69 3905.94 1127.65C3909.03 1126.37 3911.86 1125.44 3914.45 1124.87 3917.04 1124.29 3919.37 1124 3921.44 1124ZM3953.18 1123.93 3967.49 1123.93C3969.83 1123.93 3971.86 1124.04 3973.58 1124.25 3975.3 1124.47 3976.79 1124.79 3978.04 1125.23 3979.75 1125.71 3981.32 1126.41 3982.74 1127.32 3984.16 1128.24 3985.39 1129.38 3986.42 1130.74 3987.46 1132.1 3988.27 1133.69 3988.84 1135.51 3989.42 1137.33 3989.71 1139.37 3989.71 1141.63 3989.71 1145.94 3989.05 1149.88 3987.72 1153.45 3986.4 1157.01 3984.46 1160.08 3981.91 1162.64 3979.35 1165.21 3976.21 1167.21 3972.48 1168.64 3968.74 1170.07 3964.45 1170.79 3959.61 1170.79L3944.26 1170.79 3944.65 1168.59C3945.4 1168.47 3946.01 1168.33 3946.48 1168.17 3946.95 1168.02 3947.37 1167.68 3947.74 1167.16 3948.12 1166.64 3948.46 1165.87 3948.77 1164.83 3949.09 1163.79 3949.45 1162.32 3949.86 1160.42L3955.78 1134.08C3956.02 1133.02 3956.2 1132.08 3956.32 1131.26 3956.45 1130.44 3956.51 1129.74 3956.51 1129.17 3956.51 1128.11 3956.23 1127.35 3955.67 1126.91 3955.12 1126.46 3954.11 1126.23 3952.64 1126.2Z" fill-rule="evenodd"/><text fill="#000000" fill-opacity="0" font-family="Arial,Arial_MSFontService,sans-serif" font-size="47.5146" x="3904.79" y="1165.5">2𝐷𝑡</text><path d="M4031.95 1118.58C4038.99 1120.43 4044.39 1124.44 4048.16 1130.59 4051.93 1136.75 4053.81 1144.17 4053.81 1152.87 4053.81 1161.59 4051.93 1169.01 4048.18 1175.15 4044.42 1181.28 4039.01 1185.27 4031.95 1187.12L4031.08 1184.34C4036.65 1182.49 4040.79 1178.82 4043.5 1173.36 4046.21 1167.89 4047.56 1160.94 4047.56 1152.51 4047.56 1144.37 4046.21 1137.6 4043.51 1132.22 4040.82 1126.84 4036.64 1123.22 4030.98 1121.36Z" fill-rule="evenodd"/><text fill="#000000" fill-opacity="0" font-family="Arial,Arial_MSFontService,sans-serif" font-size="68.5439" x="4030.98" y="1178.56">)</text></g></svg>