<svg width="1156" height="390" xmlns="http://www.w3.org/2000/svg" xmlns:xlink="http://www.w3.org/1999/xlink" xml:space="preserve" overflow="hidden"><g transform="translate(-216 -1638)"><path d="M273.293 1807.99 267.128 1836.3C270.252 1836.99 273.03 1837.33 275.463 1837.33 279.474 1837.33 282.762 1836.6 285.326 1835.14 287.891 1833.67 289.748 1831.7 290.899 1829.22 292.05 1826.74 292.625 1823.88 292.625 1820.66 292.625 1816.36 291.219 1813.17 288.408 1811.1 285.597 1809.02 281.085 1807.99 274.871 1807.99ZM270.531 1802.51 275.019 1802.51C281.956 1802.51 287.299 1803.2 291.047 1804.56 294.795 1805.93 297.507 1807.82 299.184 1810.26 300.861 1812.69 301.699 1815.63 301.699 1819.08 301.699 1823.59 300.359 1827.68 297.68 1831.36 295 1835.05 291.334 1837.86 286.682 1839.8 282.03 1841.74 276.416 1842.71 269.841 1842.71 268.526 1842.71 267.194 1842.66 265.846 1842.56L263.676 1852.87C263.15 1855.33 262.501 1857.49 261.728 1859.33 260.956 1861.17 259.994 1862.8 258.843 1864.23 257.692 1865.66 256.18 1866.94 254.306 1868.06 252.432 1869.17 250.714 1869.93 249.152 1870.32 247.591 1870.72 245.922 1870.92 244.147 1870.92 241.648 1870.92 239.412 1870.22 237.44 1868.82 235.467 1867.42 233.708 1865.29 232.163 1862.43L238.87 1858.59C240.251 1861.32 241.582 1863.33 242.865 1864.63 244.147 1865.93 245.561 1866.58 247.106 1866.58 247.895 1866.58 248.684 1866.42 249.473 1866.11 250.262 1865.8 250.977 1865.18 251.618 1864.26 252.259 1863.34 252.818 1862.04 253.295 1860.36 253.772 1858.69 254.405 1855.97 255.194 1852.23L261.408 1822.19C262.032 1819.23 262.813 1816.57 263.75 1814.2 264.687 1811.84 265.665 1809.96 266.684 1808.58L266.586 1808.09C261.654 1808.09 257.717 1808.37 254.775 1808.93 251.832 1809.48 249.646 1810.4 248.215 1811.66 246.785 1812.93 246.07 1814.66 246.07 1816.87 246.07 1818.64 246.646 1820.73 247.796 1823.13L240.202 1826.09C239.478 1824.9 238.96 1823.79 238.648 1822.76 238.336 1821.72 238.18 1820.58 238.18 1819.33 238.18 1817.92 238.607 1816.49 239.462 1815.04 240.514 1813.27 242.24 1811.44 244.64 1809.57 247.04 1807.69 249.489 1806.22 251.988 1805.15 254.487 1804.08 257.331 1803.35 260.52 1802.96 262.887 1802.66 266.224 1802.51 270.531 1802.51Z" fill-rule="evenodd"/><text fill="#000000" fill-opacity="0" font-family="Arial,Arial_MSFontService,sans-serif" font-size="68.4019" x="232.163" y="1862.37">𝒫</text><path d="M490.064 1794.49C499.665 1797.02 507.037 1802.49 512.183 1810.89 517.328 1819.29 519.901 1829.42 519.901 1841.29 519.901 1853.19 517.336 1863.33 512.207 1871.69 507.078 1880.06 499.697 1885.51 490.064 1888.04L488.881 1884.24C496.475 1881.71 502.122 1876.71 505.821 1869.25 509.52 1861.79 511.369 1852.3 511.369 1840.8 511.369 1829.68 509.528 1820.45 505.846 1813.1 502.163 1805.76 496.459 1800.82 488.733 1798.29ZM347.418 1794.49 348.75 1798.29C341.056 1800.82 335.36 1805.76 331.661 1813.1 327.963 1820.45 326.113 1829.68 326.113 1840.8 326.113 1852.3 327.963 1861.79 331.661 1869.25 335.36 1876.71 341.007 1881.71 348.602 1884.24L347.418 1888.04C337.785 1885.51 330.404 1880.06 325.275 1871.69 320.146 1863.33 317.582 1853.19 317.582 1841.29 317.582 1829.42 320.154 1819.29 325.3 1810.89 330.445 1802.49 337.818 1797.02 347.418 1794.49Z" fill-rule="evenodd"/><path d="M370.03 1822.14C371.05 1822.14 371.946 1822.26 372.718 1822.49 373.491 1822.72 374.173 1823.07 374.765 1823.55 375.357 1824.02 375.883 1824.64 376.343 1825.4 376.803 1826.15 377.247 1827.18 377.674 1828.48 378.102 1829.78 378.505 1831.39 378.883 1833.31 379.261 1835.24 379.598 1837.23 379.894 1839.3L380.387 1839.3C383.543 1834.87 385.935 1831.62 387.562 1829.56 389.19 1827.51 390.562 1825.98 391.68 1824.98 392.798 1823.98 393.875 1823.27 394.911 1822.86 395.946 1822.45 397.319 1822.24 399.028 1822.24 400.574 1822.24 401.84 1822.44 402.826 1822.83L400.853 1831.76 397.401 1831.76C397.204 1830.38 396.628 1829.69 395.675 1829.69 395.379 1829.69 395.067 1829.74 394.738 1829.84 394.409 1829.93 394.006 1830.15 393.53 1830.48 393.053 1830.81 392.354 1831.45 391.434 1832.4 390.513 1833.35 389.478 1834.52 388.327 1835.9 387.176 1837.28 385.992 1838.73 384.776 1840.24L381.423 1844.43C382.014 1847.59 382.573 1850.32 383.099 1852.62 383.625 1854.92 384.094 1856.84 384.505 1858.37 384.916 1859.89 385.277 1861.1 385.59 1861.99 385.902 1862.88 386.239 1863.54 386.601 1863.99 386.962 1864.43 387.332 1864.74 387.71 1864.92 388.088 1865.1 388.524 1865.2 389.017 1865.2 389.905 1865.2 390.768 1864.85 391.606 1864.16 392.445 1863.47 393.653 1861.91 395.231 1859.47L398.437 1861.6C396.135 1865.01 394.056 1867.42 392.198 1868.82 390.341 1870.22 388.13 1870.92 385.565 1870.92 384.151 1870.92 382.951 1870.66 381.965 1870.15 380.979 1869.64 380.124 1868.83 379.401 1867.71 378.677 1866.59 378.036 1864.85 377.477 1862.48 376.458 1858.27 375.833 1855.05 375.603 1852.82L375.11 1852.82C371.625 1857.72 369.036 1861.23 367.343 1863.37 365.649 1865.51 364.252 1867.09 363.151 1868.11 362.049 1869.12 360.981 1869.84 359.945 1870.25 358.91 1870.66 357.537 1870.87 355.827 1870.87 354.282 1870.87 353.016 1870.67 352.03 1870.28L354.003 1861.35 357.455 1861.35C357.652 1862.73 358.227 1863.42 359.181 1863.42 359.641 1863.42 360.126 1863.3 360.636 1863.05 361.145 1862.8 361.877 1862.21 362.83 1861.27 363.784 1860.34 365.099 1858.87 366.776 1856.86 368.452 1854.86 370.885 1851.85 374.074 1847.84 373.581 1845.24 373.072 1842.74 372.546 1840.34 372.02 1837.94 371.477 1835.7 370.918 1833.63 370.359 1831.56 369.899 1830.21 369.537 1829.56 369.176 1828.92 368.789 1828.48 368.378 1828.23 367.967 1827.99 367.45 1827.86 366.825 1827.86 366.134 1827.86 365.51 1828.02 364.951 1828.33 364.392 1828.64 363.784 1829.19 363.126 1829.96 362.469 1830.73 361.597 1831.94 360.512 1833.58L357.307 1831.46C359.378 1828.34 361.367 1826.01 363.274 1824.46 365.181 1822.91 367.433 1822.14 370.03 1822.14Z" fill-rule="evenodd"/><text fill="#000000" fill-opacity="0" font-family="Arial,Arial_MSFontService,sans-serif" font-size="48.7739" x="352.03" y="1864.82">𝑥</text><path d="M414.061 1858.69 422.691 1858.69C423.152 1860.99 423.382 1863.26 423.382 1865.49 423.382 1867.79 422.987 1869.9 422.198 1871.8 421.409 1873.71 420.152 1875.61 418.425 1877.5 416.699 1879.39 414.324 1881.47 411.299 1883.74L408.636 1880.73C410.313 1879.15 411.529 1877.73 412.286 1876.46 413.042 1875.2 413.584 1873.76 413.913 1872.15 414.242 1870.54 414.406 1868.52 414.406 1866.08 414.406 1863.58 414.291 1861.12 414.061 1858.69Z" fill-rule="evenodd"/><text fill="#000000" fill-opacity="0" font-family="Arial,Arial_MSFontService,sans-serif" font-size="25.0527" x="408.636" y="1880.61">,</text><path d="M464.158 1810.8 470.964 1810.8 468.251 1822.98 483.244 1822.98 482.159 1827.96 467.166 1827.96 462.777 1847.1C461.922 1850.81 461.38 1853.48 461.15 1855.11 460.92 1856.74 460.805 1858.04 460.805 1859.03 460.805 1863.11 462.498 1865.15 465.884 1865.15 467.331 1865.15 468.868 1864.6 470.495 1863.49 472.123 1862.39 474.054 1860.51 476.29 1857.85L479.15 1860.81C476.29 1864.26 473.536 1866.81 470.89 1868.45 468.243 1870.09 465.473 1870.92 462.58 1870.92 455.709 1870.92 452.273 1867.45 452.273 1860.51 452.273 1858.31 452.552 1855.99 453.111 1853.56L458.931 1827.96 450.645 1827.96 451.385 1824.56C453.325 1824.53 454.796 1824.38 455.799 1824.11 456.802 1823.85 457.64 1823.49 458.314 1823.03 458.988 1822.57 459.605 1821.91 460.164 1821.06 460.722 1820.2 461.265 1819.11 461.791 1817.78 462.317 1816.45 463.106 1814.12 464.158 1810.8Z" fill-rule="evenodd"/><text fill="#000000" fill-opacity="0" font-family="Arial,Arial_MSFontService,sans-serif" font-size="60.1167" x="450.645" y="1863.4">𝑡</text><path d="M564.057 1848.23 624.815 1848.23 624.815 1854.79 564.057 1854.79ZM564.057 1827.76 624.815 1827.76 624.815 1834.32 564.057 1834.32Z" fill-rule="evenodd"/><text fill="#000000" fill-opacity="0" font-family="Arial,Arial_MSFontService,sans-serif" font-size="27.0254" x="564.057" y="1851.41">=</text><path d="M714.494 1725.71 717.207 1725.71C717.009 1728.86 716.911 1733.24 716.911 1738.83L716.911 1780.94C716.911 1782.85 717.018 1784.29 717.231 1785.26 717.445 1786.23 717.823 1787.02 718.366 1787.63 718.908 1788.23 719.689 1788.71 720.708 1789.06 721.727 1789.4 723.01 1789.66 724.555 1789.84 726.1 1790.03 728.138 1790.15 730.67 1790.21L730.67 1793.81 694.225 1793.81 694.225 1790.21C697.875 1790.05 700.48 1789.83 702.042 1789.55 703.604 1789.27 704.795 1788.85 705.617 1788.29 706.439 1787.73 707.039 1786.94 707.417 1785.92 707.795 1784.9 707.984 1783.24 707.984 1780.94L707.984 1740.95C707.984 1739.63 707.754 1738.67 707.294 1738.06 706.834 1737.45 706.16 1737.15 705.272 1737.15 704.22 1737.15 702.724 1737.69 700.784 1738.78 698.845 1739.86 696.444 1741.36 693.584 1743.27L691.414 1739.47Z" fill-rule="evenodd"/><text fill="#000000" fill-opacity="0" font-family="Arial,Arial_MSFontService,sans-serif" font-size="68.106" x="691.414" y="1785.3">1</text><path d="M689.601 1869.46C691.903 1869.46 693.876 1869.76 695.519 1870.35 697.098 1870.88 698.561 1871.77 699.909 1873.02 701.355 1874.33 702.687 1876.06 703.903 1878.19 704.89 1879.9 705.925 1882.17 707.01 1885 709.147 1890.56 711.284 1896.8 713.421 1903.74 715.624 1910.81 717.613 1918.04 719.389 1925.44L719.882 1925.44C720.342 1922.05 720.934 1918.42 721.657 1914.54 722.38 1910.66 722.989 1907.59 723.482 1905.32L726.934 1889.19C728.512 1881.83 730.723 1876.7 733.567 1873.8 736.411 1870.91 740.299 1869.46 745.23 1869.46 747.795 1869.46 750.08 1870.16 752.085 1871.54 754.091 1872.92 755.883 1875.05 757.461 1877.95L750.113 1881.1C748.765 1878.37 747.54 1876.48 746.439 1875.41 745.337 1874.34 743.997 1873.8 742.419 1873.8 741.564 1873.8 740.751 1873.95 739.978 1874.25 739.206 1874.54 738.49 1875.14 737.833 1876.02 737.175 1876.91 736.592 1878.29 736.082 1880.17 735.573 1882.04 734.94 1884.7 734.183 1888.16L724.074 1934.76 717.219 1938.36 715.197 1938.36C711.449 1924.26 708.177 1912.98 705.383 1904.53 702.588 1896.08 700.024 1889.31 697.689 1884.21L697.147 1884.26C696.851 1886.69 696.259 1890.06 695.371 1894.37L690.045 1918.68C688.434 1926.08 686.223 1931.21 683.412 1934.07 680.601 1936.93 676.796 1938.36 671.995 1938.36 669.365 1938.36 667.056 1937.65 665.067 1936.24 663.077 1934.83 661.31 1932.69 659.765 1929.83L666.472 1926.08C667.886 1928.91 669.242 1930.94 670.541 1932.17 671.839 1933.4 673.245 1934.02 674.757 1934.02 675.645 1934.02 676.418 1933.87 677.075 1933.58 677.733 1933.28 678.3 1932.88 678.776 1932.37 679.253 1931.86 679.672 1931.18 680.034 1930.32 680.396 1929.47 680.766 1928.32 681.144 1926.89 681.522 1925.46 682.072 1923.07 682.796 1919.72L687.925 1895.41C689.601 1887.45 691.508 1881.6 693.645 1877.85 691.771 1876.17 689.881 1875.33 687.974 1875.33 685.837 1875.33 683.889 1875.85 682.13 1876.89 680.371 1877.92 678.423 1879.64 676.286 1882.04L673.376 1879.33C676.697 1875.58 679.549 1873 681.933 1871.59 684.316 1870.17 686.873 1869.46 689.601 1869.46Z" fill-rule="evenodd"/><text fill="#000000" fill-opacity="0" font-family="Arial,Arial_MSFontService,sans-serif" font-size="68.895" x="659.765" y="1929.75">𝒩</text><path d="M659.465 1838.12 760.465 1838.12 760.465 1845.12 659.465 1845.12Z" fill-rule="evenodd"/><path d="M839.645 1732.65C841.387 1732.65 842.973 1732.81 844.404 1733.12 845.834 1733.43 847.042 1733.82 848.028 1734.28L847.091 1744.59 841.617 1744.59C841.519 1742.78 841.124 1741.41 840.434 1740.47 839.743 1739.53 838.477 1739.07 836.636 1739.07 832.033 1739.07 828.68 1744.24 826.576 1754.6 824.472 1764.96 822.581 1793.54 820.904 1840.36 819.228 1882.48 815.964 1911.26 811.115 1926.71 806.266 1942.17 799.715 1949.89 791.462 1949.89 789.786 1949.89 788.24 1949.76 786.827 1949.5 785.413 1949.24 784.164 1948.81 783.079 1948.22L784.016 1937.42 788.997 1937.42C789.49 1939.59 790.131 1941.11 790.92 1941.98 791.709 1942.85 792.909 1943.28 794.52 1943.28 797.479 1943.28 800.323 1938.17 803.052 1927.95 805.781 1917.72 807.918 1890.98 809.463 1847.71 811.37 1800.76 814.436 1769.85 818.66 1754.97 822.885 1740.09 829.88 1732.65 839.645 1732.65Z" fill-rule="evenodd"/><text fill="#000000" fill-opacity="0" font-family="Arial,Arial_MSFontService,sans-serif" font-size="217.239" x="783.079" y="1922.74">න</text><path d="M930.254 1807.15C928.216 1807.15 926.079 1807.2 923.843 1807.3L917.136 1837.18 922.265 1837.18C926.243 1837.18 929.457 1836.77 931.906 1835.95 934.356 1835.13 936.361 1833.85 937.923 1832.13 939.485 1830.4 940.693 1828.36 941.548 1825.99 942.403 1823.62 942.83 1821.02 942.83 1818.2 942.83 1814.38 941.86 1811.59 939.92 1809.81 937.981 1808.04 934.758 1807.15 930.254 1807.15ZM909.591 1802.81 931.339 1802.81C935.252 1802.81 938.465 1803.11 940.981 1803.72 943.496 1804.33 945.567 1805.27 947.194 1806.53 948.822 1807.8 950.038 1809.4 950.844 1811.34 951.649 1813.28 952.052 1815.53 952.052 1818.1 952.052 1823.03 950.885 1827.3 948.551 1830.92 946.216 1834.54 943.052 1837.2 939.057 1838.91 935.063 1840.62 930.271 1841.47 924.682 1841.47 921.328 1841.47 918.533 1841.41 916.298 1841.28L913.141 1855.78C912.846 1857.12 912.64 1858.16 912.525 1858.88 912.41 1859.61 912.311 1860.39 912.229 1861.23 912.147 1862.06 912.106 1862.81 912.106 1863.47 912.106 1864.49 912.27 1865.29 912.599 1865.86 912.928 1866.44 913.421 1866.86 914.078 1867.12 914.736 1867.38 915.87 1867.58 917.481 1867.71L916.939 1870.13 896.67 1870.13 897.212 1867.71C898.462 1867.51 899.399 1867.19 900.023 1866.75 900.648 1866.31 901.174 1865.69 901.601 1864.9 902.029 1864.11 902.423 1863.15 902.785 1862.01 903.147 1860.88 903.689 1858.69 904.412 1855.43L912.796 1817.46C913.52 1814.17 913.881 1811.57 913.881 1809.67 913.881 1808.05 913.503 1806.94 912.747 1806.31 911.991 1805.69 910.758 1805.33 909.048 1805.23Z" fill-rule="evenodd"/><text fill="#000000" fill-opacity="0" font-family="Arial,Arial_MSFontService,sans-serif" font-size="67.3169" x="896.67" y="1861.71">𝑃</text><path d="M1173.87 1794.49C1183.47 1797.02 1190.85 1802.49 1195.99 1810.89 1201.14 1819.29 1203.71 1829.42 1203.71 1841.29 1203.71 1853.19 1201.15 1863.33 1196.02 1871.69 1190.89 1880.06 1183.51 1885.51 1173.87 1888.04L1172.69 1884.24C1180.29 1881.71 1185.93 1876.71 1189.63 1869.25 1193.33 1861.79 1195.18 1852.3 1195.18 1840.8 1195.18 1829.68 1193.34 1820.45 1189.66 1813.1 1185.97 1805.76 1180.27 1800.82 1172.54 1798.29ZM997.472 1794.49 998.804 1798.29C991.11 1800.82 985.414 1805.76 981.716 1813.1 978.017 1820.45 976.167 1829.68 976.167 1840.8 976.167 1852.3 978.017 1861.79 981.716 1869.25 985.414 1876.71 991.061 1881.71 998.656 1884.24L997.472 1888.04C987.839 1885.51 980.458 1880.06 975.329 1871.69 970.2 1863.33 967.636 1853.19 967.636 1841.29 967.636 1829.42 970.208 1819.29 975.354 1810.89 980.499 1802.49 987.872 1797.02 997.472 1794.49Z" fill-rule="evenodd"/><path d="M1020.08 1822.14C1021.1 1822.14 1022 1822.26 1022.77 1822.49 1023.54 1822.72 1024.23 1823.07 1024.82 1823.55 1025.41 1824.02 1025.94 1824.64 1026.4 1825.4 1026.86 1826.15 1027.3 1827.18 1027.73 1828.48 1028.16 1829.78 1028.56 1831.39 1028.94 1833.31 1029.31 1835.24 1029.65 1837.23 1029.95 1839.3L1030.44 1839.3C1033.6 1834.87 1035.99 1831.62 1037.62 1829.56 1039.24 1827.51 1040.62 1825.98 1041.73 1824.98 1042.85 1823.98 1043.93 1823.27 1044.96 1822.86 1046 1822.45 1047.37 1822.24 1049.08 1822.24 1050.63 1822.24 1051.89 1822.44 1052.88 1822.83L1050.91 1831.76 1047.46 1831.76C1047.26 1830.38 1046.68 1829.69 1045.73 1829.69 1045.43 1829.69 1045.12 1829.74 1044.79 1829.84 1044.46 1829.93 1044.06 1830.15 1043.58 1830.48 1043.11 1830.81 1042.41 1831.45 1041.49 1832.4 1040.57 1833.35 1039.53 1834.52 1038.38 1835.9 1037.23 1837.28 1036.05 1838.73 1034.83 1840.24L1031.48 1844.43C1032.07 1847.59 1032.63 1850.32 1033.15 1852.62 1033.68 1854.92 1034.15 1856.84 1034.56 1858.37 1034.97 1859.89 1035.33 1861.1 1035.64 1861.99 1035.96 1862.88 1036.29 1863.54 1036.65 1863.99 1037.02 1864.43 1037.39 1864.74 1037.76 1864.92 1038.14 1865.1 1038.58 1865.2 1039.07 1865.2 1039.96 1865.2 1040.82 1864.85 1041.66 1864.16 1042.5 1863.47 1043.71 1861.91 1045.29 1859.47L1048.49 1861.6C1046.19 1865.01 1044.11 1867.42 1042.25 1868.82 1040.39 1870.22 1038.18 1870.92 1035.62 1870.92 1034.21 1870.92 1033.01 1870.66 1032.02 1870.15 1031.03 1869.64 1030.18 1868.83 1029.45 1867.71 1028.73 1866.59 1028.09 1864.85 1027.53 1862.48 1026.51 1858.27 1025.89 1855.05 1025.66 1852.82L1025.16 1852.82C1021.68 1857.72 1019.09 1861.23 1017.4 1863.37 1015.7 1865.51 1014.31 1867.09 1013.2 1868.11 1012.1 1869.12 1011.04 1869.84 1010 1870.25 1008.96 1870.66 1007.59 1870.87 1005.88 1870.87 1004.34 1870.87 1003.07 1870.67 1002.08 1870.28L1004.06 1861.35 1007.51 1861.35C1007.71 1862.73 1008.28 1863.42 1009.23 1863.42 1009.7 1863.42 1010.18 1863.3 1010.69 1863.05 1011.2 1862.8 1011.93 1862.21 1012.88 1861.27 1013.84 1860.34 1015.15 1858.87 1016.83 1856.86 1018.51 1854.86 1020.94 1851.85 1024.13 1847.84 1023.64 1845.24 1023.13 1842.74 1022.6 1840.34 1022.07 1837.94 1021.53 1835.7 1020.97 1833.63 1020.41 1831.56 1019.95 1830.21 1019.59 1829.56 1019.23 1828.92 1018.84 1828.48 1018.43 1828.23 1018.02 1827.99 1017.5 1827.86 1016.88 1827.86 1016.19 1827.86 1015.56 1828.02 1015.01 1828.33 1014.45 1828.64 1013.84 1829.19 1013.18 1829.96 1012.52 1830.73 1011.65 1831.94 1010.57 1833.58L1007.36 1831.46C1009.43 1828.34 1011.42 1826.01 1013.33 1824.46 1015.24 1822.91 1017.49 1822.14 1020.08 1822.14Z" fill-rule="evenodd"/><text fill="#000000" fill-opacity="0" font-family="Arial,Arial_MSFontService,sans-serif" font-size="48.7739" x="1002.08" y="1864.82">𝑥</text><path d="M1064.12 1858.69 1072.75 1858.69C1073.21 1860.99 1073.44 1863.26 1073.44 1865.49 1073.44 1867.79 1073.04 1869.9 1072.25 1871.8 1071.46 1873.71 1070.21 1875.61 1068.48 1877.5 1066.75 1879.39 1064.38 1881.47 1061.35 1883.74L1058.69 1880.73C1060.37 1879.15 1061.58 1877.73 1062.34 1876.46 1063.1 1875.2 1063.64 1873.76 1063.97 1872.15 1064.3 1870.54 1064.46 1868.52 1064.46 1866.08 1064.46 1863.58 1064.35 1861.12 1064.12 1858.69Z" fill-rule="evenodd"/><text fill="#000000" fill-opacity="0" font-family="Arial,Arial_MSFontService,sans-serif" font-size="25.0527" x="1058.69" y="1880.61">,</text><path d="M1114.21 1810.8 1121.02 1810.8 1118.31 1822.98 1133.3 1822.98 1132.21 1827.96 1117.22 1827.96 1112.83 1847.1C1111.98 1850.81 1111.43 1853.48 1111.2 1855.11 1110.97 1856.74 1110.86 1858.04 1110.86 1859.03 1110.86 1863.11 1112.55 1865.15 1115.94 1865.15 1117.39 1865.15 1118.92 1864.6 1120.55 1863.49 1122.18 1862.39 1124.11 1860.51 1126.34 1857.85L1129.2 1860.81C1126.34 1864.26 1123.59 1866.81 1120.94 1868.45 1118.3 1870.09 1115.53 1870.92 1112.63 1870.92 1105.76 1870.92 1102.33 1867.45 1102.33 1860.51 1102.33 1858.31 1102.61 1855.99 1103.17 1853.56L1108.98 1827.96 1100.7 1827.96 1101.44 1824.56C1103.38 1824.53 1104.85 1824.38 1105.85 1824.11 1106.86 1823.85 1107.69 1823.49 1108.37 1823.03 1109.04 1822.57 1109.66 1821.91 1110.22 1821.06 1110.78 1820.2 1111.32 1819.11 1111.85 1817.78 1112.37 1816.45 1113.16 1814.12 1114.21 1810.8Z" fill-rule="evenodd"/><text fill="#000000" fill-opacity="0" font-family="Arial,Arial_MSFontService,sans-serif" font-size="60.1167" x="1100.7" y="1863.4">𝑡</text><path d="M1152.44 1794.91 1161.76 1794.91 1161.76 1797.73 1149.73 1826.67 1145.51 1825.4Z" fill-rule="evenodd"/><text fill="#000000" fill-opacity="0" font-family="Arial,Arial_MSFontService,sans-serif" font-size="31.7607" x="1145.51" y="1822.7">′</text><path d="M1262.23 1826.09C1258.02 1826.09 1254.82 1827.77 1252.61 1831.14 1250.41 1834.51 1249.31 1839.35 1249.31 1845.67 1249.31 1851.98 1250.21 1856.78 1252.02 1860.07 1253.83 1863.35 1256.57 1865 1260.26 1865 1261.7 1865 1262.9 1864.87 1263.86 1864.63 1264.81 1864.38 1265.75 1863.99 1266.67 1863.44 1267.59 1862.9 1268.53 1862.15 1269.48 1861.2 1270.43 1860.25 1271.13 1859.38 1271.57 1858.59 1272.02 1857.8 1272.36 1856.89 1272.59 1855.87 1272.82 1854.86 1272.93 1853.54 1272.93 1851.93L1272.93 1840.88C1272.93 1838.32 1272.82 1836.26 1272.59 1834.72 1272.36 1833.17 1271.97 1831.87 1271.43 1830.82 1270.88 1829.77 1270.15 1828.88 1269.23 1828.16 1268.31 1827.44 1267.3 1826.91 1266.2 1826.58 1265.1 1826.25 1263.77 1826.09 1262.23 1826.09ZM1278.5 1799.56 1281.41 1799.56 1281.41 1856.66C1281.41 1859.23 1281.46 1861.06 1281.56 1862.16 1281.66 1863.26 1281.87 1864.14 1282.2 1864.8 1282.53 1865.46 1283.05 1865.99 1283.76 1866.4 1284.46 1866.81 1285.7 1867.2 1287.48 1867.56L1287.48 1870.13 1275.84 1870.62 1272.88 1870.62 1273.47 1862.53 1272.73 1862.34C1270.66 1864.54 1268.86 1866.19 1267.33 1867.29 1265.8 1868.39 1264.18 1869.27 1262.45 1869.93 1260.73 1870.59 1258.88 1870.92 1256.9 1870.92 1251.51 1870.92 1247.35 1868.87 1244.43 1864.78 1241.5 1860.68 1240.04 1854.77 1240.04 1847.05 1240.04 1841.66 1240.99 1837.08 1242.9 1833.31 1244.8 1829.55 1247.38 1826.75 1250.62 1824.9 1253.85 1823.06 1257.49 1822.14 1261.54 1822.14 1263.71 1822.14 1265.68 1822.31 1267.46 1822.66 1269.23 1823.01 1271.06 1823.57 1272.93 1824.36L1272.93 1816.52C1272.93 1813.36 1272.91 1811.16 1272.86 1809.91 1272.81 1808.66 1272.68 1807.6 1272.46 1806.73 1272.25 1805.86 1271.95 1805.18 1271.57 1804.68 1271.2 1804.19 1270.69 1803.8 1270.05 1803.5 1269.4 1803.2 1268.25 1802.91 1266.57 1802.61L1266.57 1800.05Z" fill-rule="evenodd"/><text fill="#000000" fill-opacity="0" font-family="Arial,Arial_MSFontService,sans-serif" font-size="71.3608" x="1240.04" y="1862">d</text><path d="M1310.29 1810.8 1317.09 1810.8 1314.38 1822.98 1329.37 1822.98 1328.29 1827.96 1313.3 1827.96 1308.91 1847.1C1308.05 1850.81 1307.51 1853.48 1307.28 1855.11 1307.05 1856.74 1306.93 1858.04 1306.93 1859.03 1306.93 1863.11 1308.63 1865.15 1312.01 1865.15 1313.46 1865.15 1315 1864.6 1316.62 1863.49 1318.25 1862.39 1320.18 1860.51 1322.42 1857.85L1325.28 1860.81C1322.42 1864.26 1319.67 1866.81 1317.02 1868.45 1314.37 1870.09 1311.6 1870.92 1308.71 1870.92 1301.84 1870.92 1298.4 1867.45 1298.4 1860.51 1298.4 1858.31 1298.68 1855.99 1299.24 1853.56L1305.06 1827.96 1296.77 1827.96 1297.51 1824.56C1299.45 1824.53 1300.93 1824.38 1301.93 1824.11 1302.93 1823.85 1303.77 1823.49 1304.44 1823.03 1305.12 1822.57 1305.73 1821.91 1306.29 1821.06 1306.85 1820.2 1307.39 1819.11 1307.92 1817.78 1308.45 1816.45 1309.24 1814.12 1310.29 1810.8ZM1343.19 1792.8 1352.41 1792.8 1352.41 1795.61 1340.52 1824.21 1336.33 1822.98Z" fill-rule="evenodd"/><text fill="#000000" fill-opacity="0" font-family="Arial,Arial_MSFontService,sans-serif" font-size="78.1172" x="1296.77" y="1861.15">𝑡′</text><path d="M874.769 1710.21 880.406 1710.21 878.346 1719.39 890.631 1719.39 889.8 1723.4 877.551 1723.4 873.865 1738.54C873.625 1739.55 873.426 1740.46 873.269 1741.27 873.113 1742.07 872.986 1742.8 872.89 1743.45 872.794 1744.1 872.727 1744.69 872.691 1745.22 872.655 1745.75 872.637 1746.25 872.637 1746.7 872.637 1748.15 872.938 1749.28 873.54 1750.1 874.143 1750.92 875.13 1751.33 876.503 1751.33 877.659 1751.33 878.888 1750.9 880.189 1750.05 881.49 1749.19 882.971 1747.85 884.633 1746.02L887.126 1748.55C885.898 1749.92 884.729 1751.09 883.621 1752.05 882.513 1753.02 881.429 1753.8 880.369 1754.42 879.31 1755.03 878.262 1755.48 877.226 1755.76 876.19 1756.03 875.13 1756.17 874.046 1756.17 871.18 1756.17 869.042 1755.5 867.633 1754.15 866.223 1752.8 865.519 1750.81 865.519 1748.19 865.519 1747.29 865.585 1746.31 865.718 1745.24 865.85 1744.17 866.037 1743.13 866.278 1742.12L870.577 1723.4 864.363 1723.4 865.085 1720.62C866.531 1720.62 867.657 1720.48 868.464 1720.2 869.271 1719.92 869.951 1719.54 870.505 1719.06 870.866 1718.73 871.216 1718.31 871.553 1717.82 871.89 1717.32 872.227 1716.73 872.565 1716.03 872.902 1715.33 873.245 1714.5 873.594 1713.55 873.944 1712.6 874.335 1711.49 874.769 1710.21Z" fill-rule="evenodd"/><text fill="#000000" fill-opacity="0" font-family="Arial,Arial_MSFontService,sans-serif" font-size="45.9609" x="864.363" y="1750.43">𝑡</text><path d="M843.488 1922.24C841.801 1922.24 840.392 1922.68 839.26 1923.56 838.128 1924.44 837.231 1925.73 836.568 1927.43 835.906 1929.13 835.436 1931.2 835.159 1933.64 834.882 1936.09 834.743 1938.86 834.743 1941.97 834.743 1945.56 834.918 1948.66 835.267 1951.27 835.617 1953.89 836.159 1956.04 836.893 1957.72 837.628 1959.41 838.549 1960.65 839.658 1961.45 840.766 1962.24 842.09 1962.64 843.632 1962.64 845.077 1962.64 846.342 1962.27 847.426 1961.52 848.51 1960.77 849.407 1959.61 850.118 1958.03 850.829 1956.45 851.365 1954.45 851.726 1952.03 852.087 1949.61 852.268 1946.75 852.268 1943.45 852.268 1939.74 852.069 1936.55 851.672 1933.88 851.274 1931.2 850.714 1929 849.992 1927.28 849.269 1925.56 848.359 1924.29 847.263 1923.47 846.167 1922.65 844.909 1922.24 843.488 1922.24ZM843.632 1918.74C846.499 1918.74 848.95 1919.27 850.985 1920.35 853.021 1921.42 854.683 1922.95 855.971 1924.93 857.26 1926.92 858.206 1929.35 858.808 1932.21 859.41 1935.08 859.711 1938.32 859.711 1941.93 859.711 1949.96 858.29 1956.02 855.448 1960.13 852.605 1964.23 848.486 1966.29 843.09 1966.29 837.742 1966.29 833.768 1964.35 831.166 1960.47 828.565 1956.59 827.264 1950.71 827.264 1942.84 827.264 1938.72 827.667 1935.15 828.474 1932.14 829.281 1929.13 830.414 1926.63 831.871 1924.64 833.328 1922.66 835.057 1921.18 837.056 1920.2 839.055 1919.22 841.247 1918.74 843.632 1918.74Z" fill-rule="evenodd"/><text fill="#000000" fill-opacity="0" font-family="Arial,Arial_MSFontService,sans-serif" font-size="47.5508" x="827.264" y="1960.34">0</text></g></svg>