<svg width="1033" height="1602" xmlns="http://www.w3.org/2000/svg" xmlns:xlink="http://www.w3.org/1999/xlink" xml:space="preserve" overflow="hidden"><g transform="translate(-2267 -577)"><text font-family="Calibri,Calibri_MSFontService,sans-serif" font-weight="700" font-size="101" transform="matrix(1 0 0 1 2339.28 702)">(1)</text><text font-family="Calibri,Calibri_MSFontService,sans-serif" font-weight="700" font-size="101" transform="matrix(1 0 0 1 2339.28 1016)">(2)</text><text font-family="Calibri,Calibri_MSFontService,sans-serif" font-weight="700" font-size="101" transform="matrix(1 0 0 1 2339.28 1328)">(3)</text><text font-family="Calibri,Calibri_MSFontService,sans-serif" font-weight="700" font-size="101" transform="matrix(1 0 0 1 2339.28 1644)">(4)</text><text font-family="Calibri,Calibri_MSFontService,sans-serif" font-weight="700" font-size="101" transform="matrix(1 0 0 1 2339.28 1960)">(5)</text><path d="M2546 789 3221.59 789" stroke="#000000" stroke-width="27.5" stroke-miterlimit="8" fill="none" fill-rule="evenodd"/><path d="M2628.5 789.5C2628.5 753.602 2657.6 724.5 2693.5 724.5 2729.4 724.5 2758.5 753.602 2758.5 789.5 2758.5 825.399 2729.4 854.5 2693.5 854.5 2657.6 854.5 2628.5 825.399 2628.5 789.5Z" stroke="#000000" stroke-width="20.625" stroke-miterlimit="8" fill="#FFFFFF" fill-rule="evenodd"/><path d="M2821.5 789.5C2821.5 753.602 2850.6 724.5 2886.5 724.5 2922.4 724.5 2951.5 753.602 2951.5 789.5 2951.5 825.399 2922.4 854.5 2886.5 854.5 2850.6 854.5 2821.5 825.399 2821.5 789.5Z" stroke="#000000" stroke-width="20.625" stroke-miterlimit="8" fill="#FFFFFF" fill-rule="evenodd"/><path d="M3015.5 791.5C3015.5 755.601 3044.38 726.5 3080 726.5 3115.62 726.5 3144.5 755.601 3144.5 791.5 3144.5 827.399 3115.62 856.5 3080 856.5 3044.38 856.5 3015.5 827.399 3015.5 791.5Z" stroke="#000000" stroke-width="20.625" stroke-miterlimit="8" fill="#FFFFFF" fill-rule="evenodd"/><path d="M-6.8237 66.883-6.64114 60.2298C-6.63182 59.8902-6.59733 59.5517-6.53798 59.2172L-5.38777 52.7352C-5.33045 52.4122-5.25009 52.0937-5.1473 51.7822L-3.07612 45.505 0.218998 38.6067 4.41823 32.0902 9.44526 25.9908 15.2306 20.3346 21.7122 15.1432 28.8342 10.4375 36.5453 6.23928 44.797 2.57227 53.5428-0.537761 62.7369-3.06315 72.3342-4.97455 82.2894-6.24122 92.5569-6.83128 102.853-6.71783 112.898-5.91695 122.639-4.4599 132.03-2.37722 141.021 0.301617 149.566 3.54847 157.615 7.33678 165.121 11.6419 172.033 16.4412 178.299 21.7143 183.864 27.4424 188.666 33.6073 192.637 40.1887 195.7 47.1595 196.683 50.4958 183.421 54.1273 183.07 52.5952 180.818 47.216 177.774 41.9989 173.96 36.9802 169.408 32.2028 164.156 27.7116 158.248 23.5512 151.731 19.7644 144.655 16.3917 137.07 13.4718 129.029 11.0414 120.583 9.13544 111.783 7.78778 102.68 7.03108 93.3239 6.89731 84.0021 7.4017 74.9958 8.51538 66.3531 10.2028 58.1218 12.4274 50.3502 15.151 43.086 18.3339 36.376 21.9346 30.2652 25.9093 24.7957 30.2124 20.0048 34.7975 15.924 39.6187 12.5772 44.6347 9.98144 49.8135 7.91027 56.0906 8.15074 55.1376 7.00053 61.6196 7.10369 60.607 6.92113 67.2601ZM214.358 10.6336 191.998 65.8165 154.969 19.1902C152.608 16.2168 153.104 11.8922 156.077 9.53084 159.051 7.16951 163.375 7.66567 165.737 10.6391L195.436 48.036 183.68 49.7297 201.614 5.46989C203.04 1.95084 207.049 0.254031 210.568 1.67995 214.087 3.10586 215.784 7.11454 214.358 10.6336Z" transform="matrix(-1 0 0 1 2887 652)"/><path d="M2851 789.5C2851 771.551 2865.55 757 2883.5 757 2901.45 757 2916 771.551 2916 789.5 2916 807.449 2901.45 822 2883.5 822 2865.55 822 2851 807.449 2851 789.5Z" fill-rule="evenodd"/><path d="M2879.18 716.883 2879.36 710.23C2879.37 709.891 2879.4 709.551 2879.46 709.217L2880.61 702.735C2880.67 702.412 2880.75 702.094 2880.85 701.782L2882.92 695.505 2886.22 688.607 2890.42 682.09 2895.45 675.991 2901.23 670.335 2907.71 665.143 2914.83 660.438 2922.55 656.239 2930.8 652.572 2939.54 649.462 2948.74 646.937 2958.33 645.026 2968.29 643.759 2978.56 643.169 2988.85 643.282 2998.9 644.083 3008.64 645.54 3018.03 647.623 3027.02 650.302 3035.57 653.549 3043.61 657.337 3051.12 661.642 3058.03 666.441 3064.3 671.714 3069.86 677.442 3074.67 683.607 3078.64 690.189 3081.7 697.159 3082.68 700.496 3069.42 704.127 3069.07 702.595 3066.82 697.216 3063.77 691.999 3059.96 686.98 3055.41 682.203 3050.16 677.712 3044.25 673.551 3037.73 669.764 3030.66 666.392 3023.07 663.472 3015.03 661.041 3006.58 659.135 2997.78 657.788 2988.68 657.031 2979.32 656.897 2970 657.402 2961 658.515 2952.35 660.203 2944.12 662.427 2936.35 665.151 2929.09 668.334 2922.38 671.935 2916.27 675.909 2910.8 680.212 2906.01 684.797 2901.92 689.619 2898.58 694.635 2895.98 699.813 2893.91 706.091 2894.15 705.138 2893 711.62 2893.1 710.607 2892.92 717.26ZM3100.36 660.634 3078 715.816 3040.97 669.19C3038.61 666.217 3039.1 661.892 3042.08 659.531 3045.05 657.169 3049.38 657.666 3051.74 660.639L3081.44 698.036 3069.68 699.73 3087.61 655.47C3089.04 651.951 3093.05 650.254 3096.57 651.68 3100.09 653.106 3101.78 657.115 3100.36 660.634Z"/><path d="M2546 1106 3221.59 1106" stroke="#000000" stroke-width="27.5" stroke-miterlimit="8" fill="none" fill-rule="evenodd"/><path d="M2628.5 1106C2628.5 1070.38 2657.6 1041.5 2693.5 1041.5 2729.4 1041.5 2758.5 1070.38 2758.5 1106 2758.5 1141.62 2729.4 1170.5 2693.5 1170.5 2657.6 1170.5 2628.5 1141.62 2628.5 1106Z" stroke="#000000" stroke-width="20.625" stroke-miterlimit="8" fill="#FFFFFF" fill-rule="evenodd"/><path d="M2660 1105.5C2660 1087.55 2674.55 1073 2692.5 1073 2710.45 1073 2725 1087.55 2725 1105.5 2725 1123.45 2710.45 1138 2692.5 1138 2674.55 1138 2660 1123.45 2660 1105.5Z" fill-rule="evenodd"/><path d="M2821.5 1106C2821.5 1070.38 2850.6 1041.5 2886.5 1041.5 2922.4 1041.5 2951.5 1070.38 2951.5 1106 2951.5 1141.62 2922.4 1170.5 2886.5 1170.5 2850.6 1170.5 2821.5 1141.62 2821.5 1106Z" stroke="#000000" stroke-width="20.625" stroke-miterlimit="8" fill="#FFFFFF" fill-rule="evenodd"/><path d="M3015.5 1107.5C3015.5 1071.6 3044.38 1042.5 3080 1042.5 3115.62 1042.5 3144.5 1071.6 3144.5 1107.5 3144.5 1143.4 3115.62 1172.5 3080 1172.5 3044.38 1172.5 3015.5 1143.4 3015.5 1107.5Z" stroke="#000000" stroke-width="20.625" stroke-miterlimit="8" fill="#FFFFFF" fill-rule="evenodd"/><path d="M2688.18 1034.88 2688.36 1028.23C2688.37 1027.89 2688.4 1027.55 2688.46 1027.22L2689.61 1020.74C2689.67 1020.41 2689.75 1020.09 2689.85 1019.78L2691.92 1013.51 2695.22 1006.61 2699.42 1000.09 2704.45 993.991 2710.23 988.335 2716.71 983.143 2723.83 978.438 2731.55 974.239 2739.8 970.572 2748.54 967.462 2757.74 964.937 2767.33 963.025 2777.29 961.759 2787.56 961.169 2797.85 961.282 2807.9 962.083 2817.64 963.54 2827.03 965.623 2836.02 968.302 2844.57 971.548 2852.61 975.337 2860.12 979.642 2867.03 984.441 2873.3 989.714 2878.86 995.442 2883.67 1001.61 2887.64 1008.19 2890.7 1015.16 2891.68 1018.5 2878.42 1022.13 2878.07 1020.6 2875.82 1015.22 2872.77 1010 2868.96 1004.98 2864.41 1000.2 2859.16 995.712 2853.25 991.551 2846.73 987.764 2839.66 984.392 2832.07 981.472 2824.03 979.041 2815.58 977.135 2806.78 975.788 2797.68 975.031 2788.32 974.897 2779 975.402 2770 976.515 2761.35 978.203 2753.12 980.427 2745.35 983.151 2738.09 986.334 2731.38 989.935 2725.27 993.909 2719.8 998.212 2715 1002.8 2710.92 1007.62 2707.58 1012.63 2704.98 1017.81 2702.91 1024.09 2703.15 1023.14 2702 1029.62 2702.1 1028.61 2701.92 1035.26ZM2909.36 978.634 2887 1033.82 2849.97 987.19C2847.61 984.217 2848.1 979.892 2851.08 977.531 2854.05 975.169 2858.38 975.666 2860.74 978.639L2890.44 1016.04 2878.68 1017.73 2896.61 973.47C2898.04 969.951 2902.05 968.254 2905.57 969.68 2909.09 971.106 2910.78 975.115 2909.36 978.634Z"/><path d="M2851 1105.5C2851 1087.55 2865.55 1073 2883.5 1073 2901.45 1073 2916 1087.55 2916 1105.5 2916 1123.45 2901.45 1138 2883.5 1138 2865.55 1138 2851 1123.45 2851 1105.5Z" fill-rule="evenodd"/><path d="M2549 1408 3224.59 1408" stroke="#000000" stroke-width="27.5" stroke-miterlimit="8" fill="none" fill-rule="evenodd"/><path d="M2630.5 1408.5C2630.5 1372.6 2659.6 1343.5 2695.5 1343.5 2731.4 1343.5 2760.5 1372.6 2760.5 1408.5 2760.5 1444.4 2731.4 1473.5 2695.5 1473.5 2659.6 1473.5 2630.5 1444.4 2630.5 1408.5Z" stroke="#000000" stroke-width="20.625" stroke-miterlimit="8" fill="#FFFFFF" fill-rule="evenodd"/><path d="M2663 1408.5C2663 1390.55 2677.55 1376 2695.5 1376 2713.45 1376 2728 1390.55 2728 1408.5 2728 1426.45 2713.45 1441 2695.5 1441 2677.55 1441 2663 1426.45 2663 1408.5Z" fill-rule="evenodd"/><path d="M2824.5 1408.5C2824.5 1372.6 2853.38 1343.5 2889 1343.5 2924.62 1343.5 2953.5 1372.6 2953.5 1408.5 2953.5 1444.4 2924.62 1473.5 2889 1473.5 2853.38 1473.5 2824.5 1444.4 2824.5 1408.5Z" stroke="#000000" stroke-width="20.625" stroke-miterlimit="8" fill="#FFFFFF" fill-rule="evenodd"/><path d="M3017.5 1410.5C3017.5 1374.6 3046.6 1345.5 3082.5 1345.5 3118.4 1345.5 3147.5 1374.6 3147.5 1410.5 3147.5 1446.4 3118.4 1475.5 3082.5 1475.5 3046.6 1475.5 3017.5 1446.4 3017.5 1410.5Z" stroke="#000000" stroke-width="20.625" stroke-miterlimit="8" fill="#FFFFFF" fill-rule="evenodd"/><path d="M2894.82 1479.13 2894.64 1485.78C2894.63 1486.12 2894.6 1486.46 2894.54 1486.79L2893.39 1493.27C2893.34 1493.59 2893.26 1493.91 2893.15 1494.22L2891.09 1500.5 2887.81 1507.39 2883.64 1513.91 2878.63 1520.01 2872.88 1525.66 2866.42 1530.85 2859.34 1535.56 2851.66 1539.76 2843.45 1543.43 2834.74 1546.54 2825.59 1549.06 2816.04 1550.98 2806.13 1552.24 2795.91 1552.83 2785.67 1552.72 2775.67 1551.91 2765.97 1550.46 2756.63 1548.37 2747.68 1545.69 2739.18 1542.44 2731.16 1538.65 2723.7 1534.34 2716.82 1529.54 2710.58 1524.26 2705.05 1518.53 2700.27 1512.37 2696.32 1505.79 2693.28 1498.82 2692.31 1495.5 2705.57 1491.89 2705.92 1493.41 2708.16 1498.79 2711.19 1504.01 2714.98 1509.02 2719.5 1513.8 2724.72 1518.29 2730.6 1522.45 2737.08 1526.24 2744.11 1529.61 2751.65 1532.53 2759.64 1534.96 2768.04 1536.86 2776.79 1538.21 2785.84 1538.97 2795.14 1539.1 2804.41 1538.6 2813.37 1537.49 2821.96 1535.8 2830.14 1533.58 2837.87 1530.86 2845.1 1527.68 2851.77 1524.08 2857.85 1520.11 2863.29 1515.81 2868.05 1511.22 2872.11 1506.4 2875.44 1501.39 2878.03 1496.21 2880.09 1489.93 2879.85 1490.88 2881 1484.4 2880.9 1485.4 2881.08 1478.75ZM2674.61 1535.36 2697 1480.19 2734 1526.84C2736.36 1529.81 2735.86 1534.14 2732.89 1536.5 2729.91 1538.86 2725.59 1538.36 2723.23 1535.38L2693.55 1497.97 2705.31 1496.28 2687.35 1540.53C2685.92 1544.05 2681.91 1545.74 2678.39 1544.31 2674.87 1542.88 2673.18 1538.87 2674.61 1535.36Z"/><path d="M2691.18 1337.87 2691.36 1331.22C2691.37 1330.88 2691.4 1330.54 2691.46 1330.21L2692.61 1323.73C2692.66 1323.41 2692.74 1323.09 2692.85 1322.78L2694.91 1316.5 2698.19 1309.61 2702.36 1303.09 2707.37 1296.99 2713.12 1291.34 2719.57 1286.15 2726.66 1281.44 2734.34 1277.24 2742.55 1273.57 2751.26 1270.46 2760.41 1267.94 2769.96 1266.02 2779.87 1264.76 2790.09 1264.17 2800.33 1264.28 2810.33 1265.09 2820.03 1266.54 2829.37 1268.63 2838.32 1271.31 2846.82 1274.56 2854.83 1278.35 2862.3 1282.66 2869.18 1287.46 2875.42 1292.74 2880.95 1298.47 2885.73 1304.63 2889.68 1311.21 2892.72 1318.18 2893.69 1321.5 2880.43 1325.11 2880.08 1323.59 2877.84 1318.21 2874.81 1312.99 2871.02 1307.98 2866.5 1303.2 2861.28 1298.71 2855.4 1294.55 2848.92 1290.76 2841.89 1287.39 2834.35 1284.47 2826.36 1282.04 2817.96 1280.14 2809.21 1278.79 2800.16 1278.03 2790.86 1277.9 2781.59 1278.4 2772.63 1279.51 2764.04 1281.2 2755.86 1283.42 2748.13 1286.14 2740.9 1289.32 2734.23 1292.92 2728.15 1296.89 2722.71 1301.19 2717.95 1305.78 2713.89 1310.6 2710.56 1315.61 2707.97 1320.79 2705.91 1327.07 2706.15 1326.12 2705 1332.6 2705.1 1331.6 2704.92 1338.25ZM2911.39 1281.64 2889 1336.81 2852 1290.16C2849.64 1287.19 2850.14 1282.86 2853.11 1280.5 2856.09 1278.14 2860.41 1278.64 2862.77 1281.62L2892.45 1319.03 2880.69 1320.72 2898.65 1276.47C2900.08 1272.95 2904.09 1271.26 2907.61 1272.69 2911.13 1274.12 2912.82 1278.13 2911.39 1281.64Z"/><path d="M2549 1722 3224.59 1722" stroke="#000000" stroke-width="27.5" stroke-miterlimit="8" fill="none" fill-rule="evenodd"/><path d="M2630.5 1722.5C2630.5 1686.6 2659.6 1657.5 2695.5 1657.5 2731.4 1657.5 2760.5 1686.6 2760.5 1722.5 2760.5 1758.4 2731.4 1787.5 2695.5 1787.5 2659.6 1787.5 2630.5 1758.4 2630.5 1722.5Z" stroke="#000000" stroke-width="20.625" stroke-miterlimit="8" fill="#FFFFFF" fill-rule="evenodd"/><path d="M2663 1722.5C2663 1704.55 2677.55 1690 2695.5 1690 2713.45 1690 2728 1704.55 2728 1722.5 2728 1740.45 2713.45 1755 2695.5 1755 2677.55 1755 2663 1740.45 2663 1722.5Z" fill-rule="evenodd"/><path d="M2824.5 1722.5C2824.5 1686.6 2853.38 1657.5 2889 1657.5 2924.62 1657.5 2953.5 1686.6 2953.5 1722.5 2953.5 1758.4 2924.62 1787.5 2889 1787.5 2853.38 1787.5 2824.5 1758.4 2824.5 1722.5Z" stroke="#000000" stroke-width="20.625" stroke-miterlimit="8" fill="#FFFFFF" fill-rule="evenodd"/><path d="M3017.5 1724.5C3017.5 1688.6 3046.6 1659.5 3082.5 1659.5 3118.4 1659.5 3147.5 1688.6 3147.5 1724.5 3147.5 1760.4 3118.4 1789.5 3082.5 1789.5 3046.6 1789.5 3017.5 1760.4 3017.5 1724.5Z" stroke="#000000" stroke-width="20.625" stroke-miterlimit="8" fill="#FFFFFF" fill-rule="evenodd"/><path d="M2691.18 1651.87 2691.36 1645.22C2691.37 1644.88 2691.4 1644.54 2691.46 1644.21L2692.61 1637.73C2692.66 1637.41 2692.74 1637.09 2692.85 1636.78L2694.91 1630.5 2698.19 1623.61 2702.36 1617.09 2707.37 1610.99 2713.12 1605.34 2719.57 1600.15 2726.66 1595.44 2734.34 1591.24 2742.55 1587.57 2751.26 1584.46 2760.41 1581.94 2769.96 1580.02 2779.87 1578.76 2790.09 1578.17 2800.33 1578.28 2810.33 1579.09 2820.03 1580.54 2829.37 1582.63 2838.32 1585.31 2846.82 1588.56 2854.83 1592.35 2862.3 1596.66 2869.18 1601.46 2875.42 1606.74 2880.95 1612.47 2885.73 1618.63 2889.68 1625.21 2892.72 1632.18 2893.69 1635.5 2880.43 1639.11 2880.08 1637.59 2877.84 1632.21 2874.81 1626.99 2871.02 1621.98 2866.5 1617.2 2861.28 1612.71 2855.4 1608.55 2848.92 1604.76 2841.89 1601.39 2834.35 1598.47 2826.36 1596.04 2817.96 1594.14 2809.21 1592.79 2800.16 1592.03 2790.86 1591.9 2781.59 1592.4 2772.63 1593.51 2764.04 1595.2 2755.86 1597.42 2748.13 1600.14 2740.9 1603.32 2734.23 1606.92 2728.15 1610.89 2722.71 1615.19 2717.95 1619.78 2713.89 1624.6 2710.56 1629.61 2707.97 1634.79 2705.91 1641.07 2706.15 1640.12 2705 1646.6 2705.1 1645.6 2704.92 1652.25ZM2911.39 1595.64 2889 1650.81 2852 1604.16C2849.64 1601.19 2850.14 1596.86 2853.11 1594.5 2856.09 1592.14 2860.41 1592.64 2862.77 1595.62L2892.45 1633.03 2880.69 1634.72 2898.65 1590.47C2900.08 1586.95 2904.09 1585.26 2907.61 1586.69 2911.13 1588.12 2912.82 1592.13 2911.39 1595.64Z"/><path d="M2854 1722.5C2854 1704.55 2868.55 1690 2886.5 1690 2904.45 1690 2919 1704.55 2919 1722.5 2919 1740.45 2904.45 1755 2886.5 1755 2868.55 1755 2854 1740.45 2854 1722.5Z" fill-rule="evenodd"/><path d="M2882.18 1649.87 2882.36 1643.22C2882.37 1642.88 2882.4 1642.54 2882.46 1642.21L2883.61 1635.73C2883.66 1635.41 2883.74 1635.09 2883.85 1634.78L2885.91 1628.5 2889.19 1621.61 2893.36 1615.09 2898.37 1608.99 2904.12 1603.34 2910.57 1598.15 2917.66 1593.44 2925.34 1589.24 2933.55 1585.57 2942.26 1582.46 2951.41 1579.94 2960.96 1578.02 2970.87 1576.76 2981.09 1576.17 2991.33 1576.28 3001.33 1577.09 3011.03 1578.54 3020.37 1580.63 3029.32 1583.31 3037.82 1586.56 3045.83 1590.35 3053.3 1594.66 3060.18 1599.46 3066.42 1604.74 3071.95 1610.47 3076.73 1616.63 3080.68 1623.21 3083.72 1630.18 3084.69 1633.5 3071.43 1637.11 3071.08 1635.59 3068.84 1630.21 3065.81 1624.99 3062.02 1619.98 3057.5 1615.2 3052.28 1610.71 3046.4 1606.55 3039.92 1602.76 3032.89 1599.39 3025.35 1596.47 3017.36 1594.04 3008.96 1592.14 3000.21 1590.79 2991.16 1590.03 2981.86 1589.9 2972.59 1590.4 2963.63 1591.51 2955.04 1593.2 2946.85 1595.42 2939.13 1598.14 2931.9 1601.32 2925.23 1604.92 2919.15 1608.89 2913.71 1613.19 2908.95 1617.78 2904.89 1622.6 2901.55 1627.61 2898.97 1632.79 2896.91 1639.07 2897.15 1638.12 2896 1644.6 2896.1 1643.6 2895.92 1650.25ZM3102.39 1593.64 3080 1648.81 3043 1602.16C3040.64 1599.19 3041.14 1594.86 3044.11 1592.5 3047.09 1590.14 3051.41 1590.64 3053.77 1593.62L3083.45 1631.03 3071.69 1632.72 3089.65 1588.47C3091.08 1584.95 3095.09 1583.26 3098.61 1584.69 3102.13 1586.12 3103.82 1590.13 3102.39 1593.64Z"/><path d="M2549 2035 3224.59 2035" stroke="#000000" stroke-width="27.5" stroke-miterlimit="8" fill="none" fill-rule="evenodd"/><path d="M2630.5 2035C2630.5 1999.38 2659.6 1970.5 2695.5 1970.5 2731.4 1970.5 2760.5 1999.38 2760.5 2035 2760.5 2070.62 2731.4 2099.5 2695.5 2099.5 2659.6 2099.5 2630.5 2070.62 2630.5 2035Z" stroke="#000000" stroke-width="20.625" stroke-miterlimit="8" fill="#FFFFFF" fill-rule="evenodd"/><path d="M2663 2034.5C2663 2016.55 2677.55 2002 2695.5 2002 2713.45 2002 2728 2016.55 2728 2034.5 2728 2052.45 2713.45 2067 2695.5 2067 2677.55 2067 2663 2052.45 2663 2034.5Z" fill-rule="evenodd"/><path d="M2824.5 2035C2824.5 1999.38 2853.38 1970.5 2889 1970.5 2924.62 1970.5 2953.5 1999.38 2953.5 2035 2953.5 2070.62 2924.62 2099.5 2889 2099.5 2853.38 2099.5 2824.5 2070.62 2824.5 2035Z" stroke="#000000" stroke-width="20.625" stroke-miterlimit="8" fill="#FFFFFF" fill-rule="evenodd"/><path d="M3017.5 2036.5C3017.5 2000.6 3046.6 1971.5 3082.5 1971.5 3118.4 1971.5 3147.5 2000.6 3147.5 2036.5 3147.5 2072.4 3118.4 2101.5 3082.5 2101.5 3046.6 2101.5 3017.5 2072.4 3017.5 2036.5Z" stroke="#000000" stroke-width="20.625" stroke-miterlimit="8" fill="#FFFFFF" fill-rule="evenodd"/><path d="M2691.18 1963.87 2691.36 1957.22C2691.37 1956.88 2691.4 1956.54 2691.46 1956.21L2692.61 1949.73C2692.66 1949.41 2692.74 1949.09 2692.85 1948.78L2694.91 1942.5 2698.19 1935.61 2702.36 1929.09 2707.37 1922.99 2713.12 1917.34 2719.57 1912.15 2726.66 1907.44 2734.34 1903.24 2742.55 1899.57 2751.26 1896.46 2760.41 1893.94 2769.96 1892.02 2779.87 1890.76 2790.09 1890.17 2800.33 1890.28 2810.33 1891.09 2820.03 1892.54 2829.37 1894.63 2838.32 1897.31 2846.82 1900.56 2854.83 1904.35 2862.3 1908.66 2869.18 1913.46 2875.42 1918.74 2880.95 1924.47 2885.73 1930.63 2889.68 1937.21 2892.72 1944.18 2893.69 1947.5 2880.43 1951.11 2880.08 1949.59 2877.84 1944.21 2874.81 1938.99 2871.02 1933.98 2866.5 1929.2 2861.28 1924.71 2855.4 1920.55 2848.92 1916.76 2841.89 1913.39 2834.35 1910.47 2826.36 1908.04 2817.96 1906.14 2809.21 1904.79 2800.16 1904.03 2790.86 1903.9 2781.59 1904.4 2772.63 1905.51 2764.04 1907.2 2755.86 1909.42 2748.13 1912.14 2740.9 1915.32 2734.23 1918.92 2728.15 1922.89 2722.71 1927.19 2717.95 1931.78 2713.89 1936.6 2710.56 1941.61 2707.97 1946.79 2705.91 1953.07 2706.15 1952.12 2705 1958.6 2705.1 1957.6 2704.92 1964.25ZM2911.39 1907.64 2889 1962.81 2852 1916.16C2849.64 1913.19 2850.14 1908.86 2853.11 1906.5 2856.09 1904.14 2860.41 1904.64 2862.77 1907.62L2892.45 1945.03 2880.69 1946.72 2898.65 1902.47C2900.08 1898.95 2904.09 1897.26 2907.61 1898.69 2911.13 1900.12 2912.82 1904.13 2911.39 1907.64Z"/><path d="M2854 2034.5C2854 2016.55 2868.55 2002 2886.5 2002 2904.45 2002 2919 2016.55 2919 2034.5 2919 2052.45 2904.45 2067 2886.5 2067 2868.55 2067 2854 2052.45 2854 2034.5Z" fill-rule="evenodd"/><path d="M2882.18 1961.87 2882.36 1955.22C2882.37 1954.88 2882.4 1954.54 2882.46 1954.21L2883.61 1947.73C2883.66 1947.41 2883.74 1947.09 2883.85 1946.78L2885.91 1940.5 2889.19 1933.61 2893.36 1927.09 2898.37 1920.99 2904.12 1915.34 2910.57 1910.15 2917.66 1905.44 2925.34 1901.24 2933.55 1897.57 2942.26 1894.46 2951.41 1891.94 2960.96 1890.02 2970.87 1888.76 2981.09 1888.17 2991.33 1888.28 3001.33 1889.09 3011.03 1890.54 3020.37 1892.63 3029.32 1895.31 3037.82 1898.56 3045.83 1902.35 3053.3 1906.66 3060.18 1911.46 3066.42 1916.74 3071.95 1922.47 3076.73 1928.63 3080.68 1935.21 3083.72 1942.18 3084.69 1945.5 3071.43 1949.11 3071.08 1947.59 3068.84 1942.21 3065.81 1936.99 3062.02 1931.98 3057.5 1927.2 3052.28 1922.71 3046.4 1918.55 3039.92 1914.76 3032.89 1911.39 3025.35 1908.47 3017.36 1906.04 3008.96 1904.14 3000.21 1902.79 2991.16 1902.03 2981.86 1901.9 2972.59 1902.4 2963.63 1903.51 2955.04 1905.2 2946.85 1907.42 2939.13 1910.14 2931.9 1913.32 2925.23 1916.92 2919.15 1920.89 2913.71 1925.19 2908.95 1929.78 2904.89 1934.6 2901.55 1939.61 2898.97 1944.79 2896.91 1951.07 2897.15 1950.12 2896 1956.6 2896.1 1955.6 2895.92 1962.25ZM3102.39 1905.64 3080 1960.81 3043 1914.16C3040.64 1911.19 3041.14 1906.86 3044.11 1904.5 3047.09 1902.14 3051.41 1902.64 3053.77 1905.62L3083.45 1943.03 3071.69 1944.72 3089.65 1900.47C3091.08 1896.95 3095.09 1895.26 3098.61 1896.69 3102.13 1898.12 3103.82 1902.13 3102.39 1905.64Z"/><path d="M3048 2034.5C3048 2016.55 3062.55 2002 3080.5 2002 3098.45 2002 3113 2016.55 3113 2034.5 3113 2052.45 3098.45 2067 3080.5 2067 3062.55 2067 3048 2052.45 3048 2034.5Z" fill-rule="evenodd"/><path d="M2856 1409.5C2856 1391.55 2870.55 1377 2888.5 1377 2906.45 1377 2921 1391.55 2921 1409.5 2921 1427.45 2906.45 1442 2888.5 1442 2870.55 1442 2856 1427.45 2856 1409.5Z" fill-rule="evenodd"/><rect x="2274" y="1196" width="1019" height="976" stroke="#ADB9CA" stroke-width="13.75" stroke-miterlimit="8" stroke-dasharray="55 41.25" fill="none"/></g></svg>